<svg width="3393" height="1039" xmlns="http://www.w3.org/2000/svg" xmlns:xlink="http://www.w3.org/1999/xlink" overflow="hidden"><defs><clipPath id="clip0"><rect x="372" y="468" width="3393" height="1039"/></clipPath><clipPath id="clip1"><rect x="604" y="631" width="1481" height="689"/></clipPath><clipPath id="clip2"><rect x="604" y="631" width="1481" height="689"/></clipPath><clipPath id="clip3"><rect x="642" y="668" width="1410" height="621"/></clipPath><clipPath id="clip4"><rect x="604" y="631" width="1481" height="689"/></clipPath><clipPath id="clip5"><rect x="642" y="668" width="1410" height="621"/></clipPath><clipPath id="clip6"><rect x="604" y="631" width="1481" height="689"/></clipPath><clipPath id="clip7"><rect x="642" y="668" width="1410" height="621"/></clipPath><clipPath id="clip8"><rect x="604" y="631" width="1481" height="689"/></clipPath><clipPath id="clip9"><rect x="2270" y="629" width="1470" height="691"/></clipPath><clipPath id="clip10"><rect x="2270" y="629" width="1470" height="691"/></clipPath><clipPath id="clip11"><rect x="2294" y="666" width="1409" height="624"/></clipPath><clipPath id="clip12"><rect x="2270" y="629" width="1470" height="691"/></clipPath><clipPath id="clip13"><rect x="2294" y="666" width="1409" height="624"/></clipPath><clipPath id="clip14"><rect x="2270" y="629" width="1470" height="691"/></clipPath><clipPath id="clip15"><rect x="2294" y="666" width="1409" height="624"/></clipPath><clipPath id="clip16"><rect x="2270" y="629" width="1470" height="691"/></clipPath></defs><g clip-path="url(#clip0)" transform="translate(-372 -468)"><g clip-path="url(#clip1)"><path d="M642.5 1286.5 2048.5 1286.5M642.5 1209.54 2048.5 1209.54M642.5 1131.54 2048.5 1131.54M642.5 1054.53 2048.5 1054.53M642.5 977.532 2048.5 977.532M642.5 900.53 2048.5 900.53M642.5 823.527 2048.5 823.527M642.5 745.525 2048.5 745.525M642.5 668.5 2048.5 668.5" stroke="#D9D9D9" stroke-width="3.4375" stroke-linejoin="round" stroke-miterlimit="10" fill="none"/></g><g clip-path="url(#clip2)"><path d="M642.5 668.5 642.5 1286.5M783.526 668.5 783.526 1286.5M923.53 668.5 923.53 1286.5M1064.54 668.5 1064.54 1286.5M1204.54 668.5 1204.54 1286.5M1345.54 668.5 1345.54 1286.5M1486.55 668.5 1486.55 1286.5M1626.55 668.5 1626.55 1286.5M1767.56 668.5 1767.56 1286.5M1907.56 668.5 1907.56 1286.5M2048.5 668.5 2048.5 1286.5" stroke="#D9D9D9" stroke-width="3.4375" stroke-linejoin="round" stroke-miterlimit="10" fill="none"/></g><g clip-path="url(#clip3)"><path d="M712.5 807.5 783.526 842.528 923.531 857.528 993.533 863.529 1064.54 864.529 1204.54 865.529 1345.54 866.529 1486.55 867.529 1626.55 867.529 1767.56 869.529 1907.56 873.529 2048.5 874.5" stroke="#FF0000" stroke-width="3.4375" stroke-linecap="round" stroke-linejoin="round" stroke-miterlimit="10" fill="none"/></g><g clip-path="url(#clip4)"><path d="M731.57 806.051C731.57 817.096 722.616 826.05 711.57 826.05 700.525 826.05 691.571 817.096 691.571 806.051 691.571 795.005 700.525 786.051 711.57 786.051 722.616 786.051 731.57 795.005 731.57 806.051Z" stroke="#FF0000" stroke-width="3.4375" stroke-linejoin="round" stroke-miterlimit="10" fill="none"/><path d="M802.57 841.051C802.57 852.096 793.616 861.05 782.57 861.05 771.525 861.05 762.571 852.096 762.571 841.051 762.571 830.005 771.525 821.051 782.57 821.051 793.616 821.051 802.57 830.005 802.57 841.051Z" stroke="#FF0000" stroke-width="3.4375" stroke-linejoin="round" stroke-miterlimit="10" fill="none"/><path d="M942.57 856.051C942.57 867.096 933.616 876.05 922.57 876.05 911.525 876.05 902.571 867.096 902.571 856.051 902.571 845.005 911.525 836.051 922.57 836.051 933.616 836.051 942.57 845.005 942.57 856.051Z" stroke="#FF0000" stroke-width="3.4375" stroke-linejoin="round" stroke-miterlimit="10" fill="none"/><path d="M1013.57 862.051C1013.57 873.096 1004.62 882.05 993.57 882.05 982.525 882.05 973.571 873.096 973.571 862.051 973.571 851.005 982.525 842.051 993.57 842.051 1004.62 842.051 1013.57 851.005 1013.57 862.051Z" stroke="#FF0000" stroke-width="3.4375" stroke-linejoin="round" stroke-miterlimit="10" fill="none"/><path d="M1083.57 863.051C1083.57 874.096 1074.62 883.05 1063.57 883.05 1052.53 883.05 1043.57 874.096 1043.57 863.051 1043.57 852.005 1052.53 843.051 1063.57 843.051 1074.62 843.051 1083.57 852.005 1083.57 863.051Z" stroke="#FF0000" stroke-width="3.4375" stroke-linejoin="round" stroke-miterlimit="10" fill="none"/><path d="M1223.57 864.051C1223.57 875.096 1214.62 884.05 1203.57 884.05 1192.52 884.05 1183.57 875.096 1183.57 864.051 1183.57 853.005 1192.52 844.051 1203.57 844.051 1214.62 844.051 1223.57 853.005 1223.57 864.051Z" stroke="#FF0000" stroke-width="3.4375" stroke-linejoin="round" stroke-miterlimit="10" fill="none"/><path d="M1364.57 865.051C1364.57 876.096 1355.62 885.05 1344.57 885.05 1333.52 885.05 1324.57 876.096 1324.57 865.051 1324.57 854.005 1333.52 845.051 1344.57 845.051 1355.62 845.051 1364.57 854.005 1364.57 865.051Z" stroke="#FF0000" stroke-width="3.4375" stroke-linejoin="round" stroke-miterlimit="10" fill="none"/><path d="M1505.57 866.051C1505.57 877.096 1496.62 886.05 1485.57 886.05 1474.52 886.05 1465.57 877.096 1465.57 866.051 1465.57 855.005 1474.52 846.051 1485.57 846.051 1496.62 846.051 1505.57 855.005 1505.57 866.051Z" stroke="#FF0000" stroke-width="3.4375" stroke-linejoin="round" stroke-miterlimit="10" fill="none"/><path d="M1645.57 866.051C1645.57 877.096 1636.62 886.05 1625.57 886.05 1614.53 886.05 1605.57 877.096 1605.57 866.051 1605.57 855.005 1614.53 846.051 1625.57 846.051 1636.62 846.051 1645.57 855.005 1645.57 866.051Z" stroke="#FF0000" stroke-width="3.4375" stroke-linejoin="round" stroke-miterlimit="10" fill="none"/><path d="M1786.57 868.051C1786.57 879.096 1777.62 888.05 1766.57 888.05 1755.53 888.05 1746.57 879.096 1746.57 868.051 1746.57 857.005 1755.53 848.051 1766.57 848.051 1777.62 848.051 1786.57 857.005 1786.57 868.051Z" stroke="#FF0000" stroke-width="3.4375" stroke-linejoin="round" stroke-miterlimit="10" fill="none"/><path d="M1927.57 872.051C1927.57 883.096 1918.62 892.05 1907.57 892.05 1896.52 892.05 1887.57 883.096 1887.57 872.051 1887.57 861.005 1896.52 852.051 1907.57 852.051 1918.62 852.051 1927.57 861.005 1927.57 872.051Z" stroke="#FF0000" stroke-width="3.4375" stroke-linejoin="round" stroke-miterlimit="10" fill="none"/><path d="M2067.57 873.051C2067.57 884.096 2058.62 893.05 2047.57 893.05 2036.52 893.05 2027.57 884.096 2027.57 873.051 2027.57 862.005 2036.52 853.051 2047.57 853.051 2058.62 853.051 2067.57 862.005 2067.57 873.051Z" stroke="#FF0000" stroke-width="3.4375" stroke-linejoin="round" stroke-miterlimit="10" fill="none"/></g><g clip-path="url(#clip5)"><path d="M712.5 968.5 783.526 1033.53 923.531 1144.54 993.533 1163.54 1064.54 1171.54 1204.54 1180.54 1345.54 1188.54 1486.55 1194.54 1626.55 1199.54 1767.56 1203.54 1907.56 1207.54 2048.5 1211.5" stroke="#4472C4" stroke-width="3.4375" stroke-linecap="round" stroke-linejoin="round" stroke-miterlimit="10" fill="none"/></g><g clip-path="url(#clip6)"><path d="M712.57 948.051 732.57 968.051 712.57 988.05 692.57 968.051Z" stroke="#4472C4" stroke-width="3.4375" stroke-linejoin="round" stroke-miterlimit="10" stroke-opacity="0.968627" fill="none"/><path d="M783.57 1013.05 803.569 1033.05 783.57 1053.05 763.57 1033.05Z" stroke="#4472C4" stroke-width="3.4375" stroke-linejoin="round" stroke-miterlimit="10" stroke-opacity="0.968627" fill="none"/><path d="M923.57 1124.05 943.57 1144.05 923.57 1164.05 903.57 1144.05Z" stroke="#4472C4" stroke-width="3.4375" stroke-linejoin="round" stroke-miterlimit="10" stroke-opacity="0.968627" fill="none"/><path d="M994.57 1143.05 1014.57 1163.05 994.57 1183.05 974.57 1163.05Z" stroke="#4472C4" stroke-width="3.4375" stroke-linejoin="round" stroke-miterlimit="10" stroke-opacity="0.968627" fill="none"/><path d="M1064.57 1151.05 1084.57 1171.05 1064.57 1191.05 1044.57 1171.05Z" stroke="#4472C4" stroke-width="3.4375" stroke-linejoin="round" stroke-miterlimit="10" stroke-opacity="0.968627" fill="none"/><path d="M1204.57 1160.05 1224.57 1180.05 1204.57 1200.05 1184.57 1180.05Z" stroke="#4472C4" stroke-width="3.4375" stroke-linejoin="round" stroke-miterlimit="10" stroke-opacity="0.968627" fill="none"/><path d="M1345.57 1168.05 1365.57 1188.05 1345.57 1208.05 1325.57 1188.05Z" stroke="#4472C4" stroke-width="3.4375" stroke-linejoin="round" stroke-miterlimit="10" stroke-opacity="0.968627" fill="none"/><path d="M1486.57 1174.05 1506.57 1194.05 1486.57 1214.05 1466.57 1194.05Z" stroke="#4472C4" stroke-width="3.4375" stroke-linejoin="round" stroke-miterlimit="10" stroke-opacity="0.968627" fill="none"/><path d="M1626.57 1179.05 1646.57 1199.05 1626.57 1219.05 1606.57 1199.05Z" stroke="#4472C4" stroke-width="3.4375" stroke-linejoin="round" stroke-miterlimit="10" stroke-opacity="0.968627" fill="none"/><path d="M1767.57 1183.05 1787.57 1203.05 1767.57 1223.05 1747.57 1203.05Z" stroke="#4472C4" stroke-width="3.4375" stroke-linejoin="round" stroke-miterlimit="10" stroke-opacity="0.968627" fill="none"/><path d="M1908.57 1187.05 1928.57 1207.05 1908.57 1227.05 1888.57 1207.05Z" stroke="#4472C4" stroke-width="3.4375" stroke-linejoin="round" stroke-miterlimit="10" stroke-opacity="0.968627" fill="none"/><path d="M2048.57 1191.05 2068.57 1211.05 2048.57 1231.05 2028.57 1211.05Z" stroke="#4472C4" stroke-width="3.4375" stroke-linejoin="round" stroke-miterlimit="10" stroke-opacity="0.968627" fill="none"/></g><g clip-path="url(#clip7)"><path d="M712.5 821.5 783.526 843.528 923.531 857.528 993.533 863.529 1064.54 864.529 1204.54 865.529 1345.54 866.529 1486.55 867.529 1626.55 867.529 1767.56 869.529 1907.56 873.529 2048.5 874.5" stroke="#006600" stroke-width="3.4375" stroke-linecap="round" stroke-linejoin="round" stroke-miterlimit="10" fill="none"/></g><g clip-path="url(#clip8)"><path d="M712.57 800.551 712.57 841.55M692.07 821.051 733.07 821.051" stroke="#006600" stroke-width="3.4375" stroke-linejoin="round" stroke-miterlimit="10" fill="none"/><path d="M783.57 822.551 783.57 863.55M763.07 843.051 804.07 843.051" stroke="#006600" stroke-width="3.4375" stroke-linejoin="round" stroke-miterlimit="10" fill="none"/><path d="M923.57 836.551 923.57 877.551M903.07 857.051 944.07 857.051" stroke="#006600" stroke-width="3.4375" stroke-linejoin="round" stroke-miterlimit="10" fill="none"/><path d="M994.57 842.551 994.57 883.55M974.07 863.051 1015.07 863.051" stroke="#006600" stroke-width="3.4375" stroke-linejoin="round" stroke-miterlimit="10" fill="none"/><path d="M1064.57 843.551 1064.57 884.55M1044.07 864.051 1085.07 864.051" stroke="#006600" stroke-width="3.4375" stroke-linejoin="round" stroke-miterlimit="10" fill="none"/><path d="M1204.57 844.551 1204.57 885.55M1184.07 865.051 1225.07 865.051" stroke="#006600" stroke-width="3.4375" stroke-linejoin="round" stroke-miterlimit="10" fill="none"/><path d="M1345.57 845.551 1345.57 886.551M1325.07 866.051 1366.07 866.051" stroke="#006600" stroke-width="3.4375" stroke-linejoin="round" stroke-miterlimit="10" fill="none"/><path d="M1486.57 846.551 1486.57 887.551M1466.07 867.051 1507.07 867.051" stroke="#006600" stroke-width="3.4375" stroke-linejoin="round" stroke-miterlimit="10" fill="none"/><path d="M1626.57 846.551 1626.57 887.551M1606.07 867.051 1647.07 867.051" stroke="#006600" stroke-width="3.4375" stroke-linejoin="round" stroke-miterlimit="10" fill="none"/><path d="M1767.57 848.551 1767.57 889.551M1747.07 869.051 1788.07 869.051" stroke="#006600" stroke-width="3.4375" stroke-linejoin="round" stroke-miterlimit="10" fill="none"/><path d="M1908.57 852.551 1908.57 893.55M1888.07 873.051 1929.07 873.051" stroke="#006600" stroke-width="3.4375" stroke-linejoin="round" stroke-miterlimit="10" fill="none"/><path d="M2048.57 853.551 2048.57 894.55M2028.07 874.051 2069.07 874.051" stroke="#006600" stroke-width="3.4375" stroke-linejoin="round" stroke-miterlimit="10" fill="none"/></g><text font-family="Times New Roman,Times New Roman_MSFontService,sans-serif" font-weight="400" font-size="92" transform="matrix(-1.83697e-16 -1 1 -1.83697e-16 488.577 1238)">Relative Error</text><text font-family="Times New Roman,Times New Roman_MSFontService,sans-serif" font-weight="400" font-size="73" transform="matrix(1 0 0 1 625.938 1364)">0<tspan font-size="73" x="109.305" y="-1">0.2</tspan><tspan font-size="73" x="249.555" y="-1">0.4</tspan><tspan font-size="73" x="388.888" y="-2">0.6</tspan><tspan font-size="73" x="529.138" y="-2">0.8</tspan><tspan font-size="73" x="813.305" y="-2">1.2</tspan><tspan font-size="73" x="953.555" y="-2">1.4</tspan><tspan font-size="73" x="1092.89" y="-2">1.6</tspan><tspan font-size="73" x="1233.14" y="-2">1.8</tspan><tspan font-size="73" x="699.257" y="-1">1</tspan><tspan font-size="73" x="1405.09" y="-2">2</tspan></text><path d="M1342.74 1424.8C1347.05 1424.8 1351.57 1425.51 1356.3 1426.95L1354.59 1435.13 1350.37 1435.13C1349.83 1430.61 1347.18 1428.34 1342.42 1428.34 1339.7 1428.34 1337.46 1429.12 1335.73 1430.66 1333.99 1432.2 1333.12 1434.32 1333.12 1437.01 1333.12 1438.96 1333.89 1440.52 1335.44 1441.69 1336.98 1442.85 1339.1 1443.44 1341.79 1443.44L1348.17 1443.44 1347.14 1448.07 1342.65 1448.07C1340.37 1448.07 1338.5 1448.21 1337.03 1448.51 1335.56 1448.81 1334.19 1449.3 1332.9 1449.97 1331.61 1450.65 1330.6 1451.37 1329.87 1452.13 1329.13 1452.89 1328.58 1453.76 1328.23 1454.71 1327.87 1455.67 1327.69 1456.77 1327.69 1457.99 1327.69 1460.09 1328.41 1461.69 1329.84 1462.8 1331.28 1463.91 1333.35 1464.46 1336.04 1464.46 1338.41 1464.46 1340.69 1464.12 1342.89 1463.45 1345.09 1462.78 1347.59 1461.5 1350.37 1459.61L1352.57 1463.11C1349.46 1465.27 1346.4 1466.83 1343.39 1467.79 1340.38 1468.74 1337.22 1469.22 1333.93 1469.22 1330.94 1469.22 1328.37 1468.72 1326.23 1467.72 1324.09 1466.72 1322.48 1465.38 1321.42 1463.72 1320.36 1462.06 1319.83 1460.22 1319.83 1458.22 1319.83 1455.13 1321.02 1452.5 1323.42 1450.31 1325.81 1448.13 1329.26 1446.55 1333.75 1445.59L1333.84 1445.15C1328.63 1443.41 1326.02 1440.41 1326.02 1436.16 1326.02 1434.24 1326.62 1432.42 1327.82 1430.7 1329.02 1428.98 1330.9 1427.57 1333.46 1426.46 1336.02 1425.35 1339.11 1424.8 1342.74 1424.8Z" fill-rule="evenodd"/><text fill="#000000" fill-opacity="0" font-family="Arial,Arial_MSFontService,sans-serif" font-size="44.4277" x="1319.83" y="1463.67">ğœ€</text><text font-family="Times New Roman,Times New Roman_MSFontService,sans-serif" font-weight="400" font-size="73" transform="matrix(1 0 0 1 556.328 851)">1<tspan font-size="73" x="-16.5" y="-78">10</tspan><tspan font-size="73" x="-36.8387" y="155">10</tspan><tspan font-size="49" x="36.4947" y="133">-</tspan><tspan font-size="49" x="52.5363" y="133">2</tspan></text><rect x="1577.5" y="923.5" width="446" height="156" stroke="#000000" stroke-width="3.4375" stroke-linejoin="round" stroke-miterlimit="10" fill="#FFFFFF"/><text font-family="Times New Roman,Times New Roman_MSFontService,sans-serif" font-weight="700" font-size="101" transform="matrix(1 0 0 1 1671.51 1037)">Gplus<tspan font-weight="400" font-size="73" x="-1152.02" y="-110">10</tspan><tspan font-weight="400" font-size="49" x="-1078.69" y="-132">-</tspan><tspan font-weight="400" font-size="49" x="-1062.65" y="-132">1</tspan><tspan font-weight="400" font-size="73" x="-1152.02" y="120">10</tspan><tspan font-weight="400" font-size="49" x="-1078.69" y="98">-</tspan><tspan font-weight="400" font-size="49" x="-1062.65" y="98">4</tspan><tspan font-weight="400" font-size="73" x="-1152.02" y="46">10</tspan><tspan font-weight="400" font-size="49" x="-1078.69" y="24">-</tspan><tspan font-weight="400" font-size="49" x="-1062.65" y="24">3</tspan><tspan font-weight="400" font-size="73" x="-1152.02" y="277">10</tspan><tspan font-weight="400" font-size="49" x="-1078.69" y="255">-</tspan><tspan font-weight="400" font-size="49" x="-1062.65" y="255">6</tspan><tspan font-weight="400" font-size="73" x="-1152.02" y="198">10</tspan><tspan font-weight="400" font-size="49" x="-1078.69" y="176">-</tspan><tspan font-weight="400" font-size="49" x="-1062.65" y="176">5</tspan></text><path d="M641.028 490.368 3700.03 490.368 3700.03 620.368 641.028 620.368Z" stroke="#000000" stroke-width="3.34656" stroke-linejoin="round" stroke-miterlimit="10" fill="#FFFFFF" fill-rule="evenodd"/><text font-family="Times New Roman,Times New Roman_MSFontService,sans-serif" font-weight="400" font-size="92" transform="matrix(1 0 0 1 1117.77 585)">triangles</text><g clip-path="url(#clip9)"><path d="M2294.5 1286.5 3700.5 1286.5M2294.5 1209.54 3700.5 1209.54M2294.5 1131.54 3700.5 1131.54M2294.5 1054.53 3700.5 1054.53M2294.5 976.532 3700.5 976.532M2294.5 899.53 3700.5 899.53M2294.5 821.527 3700.5 821.527M2294.5 744.525 3700.5 744.525M2294.5 666.5 3700.5 666.5" stroke="#D9D9D9" stroke-width="3.4375" stroke-linejoin="round" stroke-miterlimit="10" fill="none"/></g><g clip-path="url(#clip10)"><path d="M2294.5 666.5 2294.5 1286.5M2435.58 666.5 2435.58 1286.5M2575.58 666.5 2575.58 1286.5M2716.59 666.5 2716.59 1286.5M2856.59 666.5 2856.59 1286.5M2997.6 666.5 2997.6 1286.5M3137.6 666.5 3137.6 1286.5M3278.61 666.5 3278.61 1286.5M3418.61 666.5 3418.61 1286.5M3559.62 666.5 3559.62 1286.5M3700.5 666.5 3700.5 1286.5" stroke="#D9D9D9" stroke-width="3.4375" stroke-linejoin="round" stroke-miterlimit="10" fill="none"/></g><g clip-path="url(#clip11)"><path d="M2364.5 743.5 2435.58 791.526 2575.58 833.528 2645.59 845.528 2716.59 847.528 2856.59 856.528 2997.6 861.528 3137.6 867.529 3278.61 867.529 3418.61 868.529 3559.62 869.5 3700.5 868.529" stroke="#FF0000" stroke-width="3.4375" stroke-linecap="round" stroke-linejoin="round" stroke-miterlimit="10" fill="none"/></g><g clip-path="url(#clip12)"><path d="M2383.79 742.801C2383.79 753.846 2374.83 762.8 2363.79 762.8 2352.74 762.8 2343.79 753.846 2343.79 742.801 2343.79 731.755 2352.74 722.801 2363.79 722.801 2374.83 722.801 2383.79 731.755 2383.79 742.801Z" stroke="#FF0000" stroke-width="3.4375" stroke-linejoin="round" stroke-miterlimit="10" fill="none"/><path d="M2454.79 790.801C2454.79 801.846 2445.83 810.8 2434.79 810.8 2423.74 810.8 2414.79 801.846 2414.79 790.801 2414.79 779.755 2423.74 770.801 2434.79 770.801 2445.83 770.801 2454.79 779.755 2454.79 790.801Z" stroke="#FF0000" stroke-width="3.4375" stroke-linejoin="round" stroke-miterlimit="10" fill="none"/><path d="M2594.79 832.801C2594.79 843.846 2585.83 852.8 2574.79 852.8 2563.74 852.8 2554.79 843.846 2554.79 832.801 2554.79 821.755 2563.74 812.801 2574.79 812.801 2585.83 812.801 2594.79 821.755 2594.79 832.801Z" stroke="#FF0000" stroke-width="3.4375" stroke-linejoin="round" stroke-miterlimit="10" fill="none"/><path d="M2665.79 844.801C2665.79 855.846 2656.83 864.8 2645.79 864.8 2634.74 864.8 2625.79 855.846 2625.79 844.801 2625.79 833.755 2634.74 824.801 2645.79 824.801 2656.83 824.801 2665.79 833.755 2665.79 844.801Z" stroke="#FF0000" stroke-width="3.4375" stroke-linejoin="round" stroke-miterlimit="10" fill="none"/><path d="M2735.79 846.801C2735.79 857.846 2726.83 866.8 2715.79 866.8 2704.74 866.8 2695.79 857.846 2695.79 846.801 2695.79 835.755 2704.74 826.801 2715.79 826.801 2726.83 826.801 2735.79 835.755 2735.79 846.801Z" stroke="#FF0000" stroke-width="3.4375" stroke-linejoin="round" stroke-miterlimit="10" fill="none"/><path d="M2875.79 856.801C2875.79 867.846 2866.83 876.8 2855.79 876.8 2844.74 876.8 2835.79 867.846 2835.79 856.801 2835.79 845.755 2844.74 836.801 2855.79 836.801 2866.83 836.801 2875.79 845.755 2875.79 856.801Z" stroke="#FF0000" stroke-width="3.4375" stroke-linejoin="round" stroke-miterlimit="10" fill="none"/><path d="M3016.79 860.801C3016.79 871.846 3007.83 880.8 2996.79 880.8 2985.74 880.8 2976.79 871.846 2976.79 860.801 2976.79 849.755 2985.74 840.801 2996.79 840.801 3007.83 840.801 3016.79 849.755 3016.79 860.801Z" stroke="#FF0000" stroke-width="3.4375" stroke-linejoin="round" stroke-miterlimit="10" fill="none"/><path d="M3156.79 866.801C3156.79 877.846 3147.83 886.8 3136.79 886.8 3125.74 886.8 3116.79 877.846 3116.79 866.801 3116.79 855.755 3125.74 846.801 3136.79 846.801 3147.83 846.801 3156.79 855.755 3156.79 866.801Z" stroke="#FF0000" stroke-width="3.4375" stroke-linejoin="round" stroke-miterlimit="10" fill="none"/><path d="M3297.79 866.801C3297.79 877.846 3288.83 886.8 3277.79 886.8 3266.74 886.8 3257.79 877.846 3257.79 866.801 3257.79 855.755 3266.74 846.801 3277.79 846.801 3288.83 846.801 3297.79 855.755 3297.79 866.801Z" stroke="#FF0000" stroke-width="3.4375" stroke-linejoin="round" stroke-miterlimit="10" fill="none"/><path d="M3438.79 867.801C3438.79 878.846 3429.83 887.8 3418.79 887.8 3407.74 887.8 3398.79 878.846 3398.79 867.801 3398.79 856.755 3407.74 847.801 3418.79 847.801 3429.83 847.801 3438.79 856.755 3438.79 867.801Z" stroke="#FF0000" stroke-width="3.4375" stroke-linejoin="round" stroke-miterlimit="10" fill="none"/><path d="M3578.79 868.801C3578.79 879.846 3569.83 888.8 3558.79 888.8 3547.74 888.8 3538.79 879.846 3538.79 868.801 3538.79 857.755 3547.74 848.801 3558.79 848.801 3569.83 848.801 3578.79 857.755 3578.79 868.801Z" stroke="#FF0000" stroke-width="3.4375" stroke-linejoin="round" stroke-miterlimit="10" fill="none"/><path d="M3719.79 867.801C3719.79 878.846 3710.83 887.8 3699.79 887.8 3688.74 887.8 3679.79 878.846 3679.79 867.801 3679.79 856.755 3688.74 847.801 3699.79 847.801 3710.83 847.801 3719.79 856.755 3719.79 867.801Z" stroke="#FF0000" stroke-width="3.4375" stroke-linejoin="round" stroke-miterlimit="10" fill="none"/></g><g clip-path="url(#clip13)"><path d="M2364.5 951.5 2435.58 1015.53 2575.58 1124.54 2645.59 1168.54 2716.59 1184.54 2856.59 1195.54 2997.6 1202.54 3137.6 1208.54 3278.61 1213.54 3418.61 1218.54 3559.62 1222.54 3700.5 1225.5" stroke="#4472C4" stroke-width="3.4375" stroke-linecap="round" stroke-linejoin="round" stroke-miterlimit="10" fill="none"/></g><g clip-path="url(#clip14)"><path d="M2364.79 931.801 2384.79 951.801 2364.79 971.8 2344.79 951.801Z" stroke="#4472C4" stroke-width="3.4375" stroke-linejoin="round" stroke-miterlimit="10" stroke-opacity="0.968627" fill="none"/><path d="M2435.79 995.801 2455.79 1015.8 2435.79 1035.8 2415.79 1015.8Z" stroke="#4472C4" stroke-width="3.4375" stroke-linejoin="round" stroke-miterlimit="10" stroke-opacity="0.968627" fill="none"/><path d="M2575.79 1104.8 2595.79 1124.8 2575.79 1144.8 2555.79 1124.8Z" stroke="#4472C4" stroke-width="3.4375" stroke-linejoin="round" stroke-miterlimit="10" stroke-opacity="0.968627" fill="none"/><path d="M2646.79 1148.8 2666.79 1168.8 2646.79 1188.8 2626.79 1168.8Z" stroke="#4472C4" stroke-width="3.4375" stroke-linejoin="round" stroke-miterlimit="10" stroke-opacity="0.968627" fill="none"/><path d="M2716.79 1164.8 2736.79 1184.8 2716.79 1204.8 2696.79 1184.8Z" stroke="#4472C4" stroke-width="3.4375" stroke-linejoin="round" stroke-miterlimit="10" stroke-opacity="0.968627" fill="none"/><path d="M2856.79 1175.8 2876.79 1195.8 2856.79 1215.8 2836.79 1195.8Z" stroke="#4472C4" stroke-width="3.4375" stroke-linejoin="round" stroke-miterlimit="10" stroke-opacity="0.968627" fill="none"/><path d="M2997.79 1182.8 3017.79 1202.8 2997.79 1222.8 2977.79 1202.8Z" stroke="#4472C4" stroke-width="3.4375" stroke-linejoin="round" stroke-miterlimit="10" stroke-opacity="0.968627" fill="none"/><path d="M3137.79 1188.8 3157.79 1208.8 3137.79 1228.8 3117.79 1208.8Z" stroke="#4472C4" stroke-width="3.4375" stroke-linejoin="round" stroke-miterlimit="10" stroke-opacity="0.968627" fill="none"/><path d="M3278.79 1193.8 3298.79 1213.8 3278.79 1233.8 3258.79 1213.8Z" stroke="#4472C4" stroke-width="3.4375" stroke-linejoin="round" stroke-miterlimit="10" stroke-opacity="0.968627" fill="none"/><path d="M3419.79 1198.8 3439.79 1218.8 3419.79 1238.8 3399.79 1218.8Z" stroke="#4472C4" stroke-width="3.4375" stroke-linejoin="round" stroke-miterlimit="10" stroke-opacity="0.968627" fill="none"/><path d="M3559.79 1202.8 3579.79 1222.8 3559.79 1242.8 3539.79 1222.8Z" stroke="#4472C4" stroke-width="3.4375" stroke-linejoin="round" stroke-miterlimit="10" stroke-opacity="0.968627" fill="none"/><path d="M3700.79 1205.8 3720.79 1225.8 3700.79 1245.8 3680.79 1225.8Z" stroke="#4472C4" stroke-width="3.4375" stroke-linejoin="round" stroke-miterlimit="10" stroke-opacity="0.968627" fill="none"/></g><g clip-path="url(#clip15)"><path d="M2364.5 801.5 2435.58 806.527 2575.58 836.528 2645.59 847.528 2716.59 847.528 2856.59 856.528 2997.6 861.528 3137.6 867.529 3278.61 867.529 3418.61 868.529 3559.62 869.5 3700.5 868.529" stroke="#006600" stroke-width="3.4375" stroke-linecap="round" stroke-linejoin="round" stroke-miterlimit="10" fill="none"/></g><g clip-path="url(#clip16)"><path d="M2364.79 781.301 2364.79 822.3M2344.29 801.801 2385.29 801.801" stroke="#006600" stroke-width="3.4375" stroke-linejoin="round" stroke-miterlimit="10" fill="none"/><path d="M2435.79 786.3 2435.79 827.3M2415.29 806.801 2456.29 806.801" stroke="#006600" stroke-width="3.4375" stroke-linejoin="round" stroke-miterlimit="10" fill="none"/><path d="M2575.79 816.301 2575.79 857.301M2555.29 836.801 2596.29 836.801" stroke="#006600" stroke-width="3.4375" stroke-linejoin="round" stroke-miterlimit="10" fill="none"/><path d="M2646.79 827.301 2646.79 868.301M2626.29 847.801 2667.29 847.801" stroke="#006600" stroke-width="3.4375" stroke-linejoin="round" stroke-miterlimit="10" fill="none"/><path d="M2716.79 827.301 2716.79 868.301M2696.29 847.801 2737.29 847.801" stroke="#006600" stroke-width="3.4375" stroke-linejoin="round" stroke-miterlimit="10" fill="none"/><path d="M2856.79 837.301 2856.79 878.301M2836.29 857.801 2877.29 857.801" stroke="#006600" stroke-width="3.4375" stroke-linejoin="round" stroke-miterlimit="10" fill="none"/><path d="M2997.79 841.3 2997.79 882.3M2977.29 861.801 3018.29 861.801" stroke="#006600" stroke-width="3.4375" stroke-linejoin="round" stroke-miterlimit="10" fill="none"/><path d="M3137.79 847.301 3137.79 888.3M3117.29 867.801 3158.29 867.801" stroke="#006600" stroke-width="3.4375" stroke-linejoin="round" stroke-miterlimit="10" fill="none"/><path d="M3278.79 847.301 3278.79 888.3M3258.29 867.801 3299.29 867.801" stroke="#006600" stroke-width="3.4375" stroke-linejoin="round" stroke-miterlimit="10" fill="none"/><path d="M3419.79 848.301 3419.79 889.301M3399.29 868.801 3440.29 868.801" stroke="#006600" stroke-width="3.4375" stroke-linejoin="round" stroke-miterlimit="10" fill="none"/><path d="M3559.79 849.301 3559.79 890.301M3539.29 869.801 3580.29 869.801" stroke="#006600" stroke-width="3.4375" stroke-linejoin="round" stroke-miterlimit="10" fill="none"/><path d="M3700.79 848.301 3700.79 889.301M3680.29 868.801 3721.29 868.801" stroke="#006600" stroke-width="3.4375" stroke-linejoin="round" stroke-miterlimit="10" fill="none"/></g><text font-family="Times New Roman,Times New Roman_MSFontService,sans-serif" font-weight="400" font-size="92" transform="matrix(-1.83697e-16 -1 1 -1.83697e-16 2141.64 1238)">Relative Error</text><text font-family="Times New Roman,Times New Roman_MSFontService,sans-serif" font-weight="400" font-size="73" transform="matrix(1 0 0 1 2279 1364)">0<tspan font-size="73" x="109.305" y="-1">0.2</tspan><tspan font-size="73" x="249.555" y="-1">0.4</tspan><tspan font-size="73" x="388.888" y="-2">0.6</tspan><tspan font-size="73" x="529.138" y="-2">0.8</tspan><tspan font-size="73" x="813.305" y="-2">1.2</tspan><tspan font-size="73" x="953.555" y="-2">1.4</tspan><tspan font-size="73" x="1092.89" y="-2">1.6</tspan><tspan font-size="73" x="1233.14" y="-2">1.8</tspan><tspan font-size="73" x="699.257" y="-1">1</tspan><tspan font-size="73" x="1405.09" y="-2">2</tspan></text><path d="M2995.79 1424.8C3000.11 1424.8 3004.63 1425.51 3009.36 1426.95L3007.65 1435.13 3003.43 1435.13C3002.89 1430.61 3000.24 1428.34 2995.48 1428.34 2992.75 1428.34 2990.52 1429.12 2988.79 1430.66 2987.05 1432.2 2986.18 1434.32 2986.18 1437.01 2986.18 1438.96 2986.95 1440.52 2988.49 1441.69 2990.04 1442.85 2992.16 1443.44 2994.85 1443.44L3001.23 1443.44 3000.2 1448.06 2995.7 1448.06C2993.43 1448.06 2991.56 1448.21 2990.09 1448.51 2988.62 1448.81 2987.24 1449.3 2985.96 1449.97 2984.67 1450.65 2983.66 1451.37 2982.92 1452.13 2982.19 1452.89 2981.64 1453.75 2981.28 1454.71 2980.93 1455.67 2980.75 1456.76 2980.75 1457.99 2980.75 1460.09 2981.46 1461.69 2982.9 1462.8 2984.34 1463.91 2986.41 1464.46 2989.1 1464.46 2991.47 1464.46 2993.75 1464.12 2995.95 1463.45 2998.15 1462.78 3000.65 1461.5 3003.43 1459.61L3005.63 1463.11C3002.52 1465.27 2999.46 1466.83 2996.45 1467.79 2993.44 1468.74 2990.28 1469.22 2986.99 1469.22 2983.99 1469.22 2981.43 1468.72 2979.29 1467.72 2977.14 1466.71 2975.54 1465.38 2974.48 1463.72 2973.42 1462.06 2972.88 1460.22 2972.88 1458.22 2972.88 1455.13 2974.08 1452.5 2976.48 1450.31 2978.87 1448.12 2982.32 1446.55 2986.81 1445.59L2986.9 1445.14C2981.69 1443.41 2979.08 1440.41 2979.08 1436.16 2979.08 1434.24 2979.68 1432.42 2980.88 1430.7 2982.08 1428.98 2983.96 1427.57 2986.52 1426.46 2989.08 1425.35 2992.17 1424.8 2995.79 1424.8Z" fill-rule="evenodd"/><text fill="#000000" fill-opacity="0" font-family="Arial,Arial_MSFontService,sans-serif" font-size="44.4277" x="2972.88" y="1463.67">ğœ€</text><path d="M948.226 551.394 1084.23 551.394" stroke="#FF0000" stroke-width="3.34583" stroke-linecap="round" stroke-linejoin="round" stroke-miterlimit="10" fill="none" fill-rule="evenodd"/><path d="M1034.29 551.377C1034.29 561.318 1026.22 569.378 1016.29 569.378 1006.35 569.378 998.288 561.318 998.288 551.377 998.288 541.437 1006.35 533.377 1016.29 533.377 1026.22 533.377 1034.29 541.437 1034.29 551.377Z" stroke="#FF0000" stroke-width="3.34583" stroke-linejoin="round" stroke-miterlimit="10" fill="none" fill-rule="evenodd"/><path d="M1747.23 553.394 1883.23 553.394" stroke="#4472C4" stroke-width="3.34583" stroke-linecap="round" stroke-linejoin="round" stroke-miterlimit="10" fill="none" fill-rule="evenodd"/><path d="M1816.29 534.375 1835.29 553.375 1816.29 572.374 1797.29 553.375Z" stroke="#4472C4" stroke-width="3.34583" stroke-linejoin="round" stroke-miterlimit="10" stroke-opacity="0.968627" fill="none" fill-rule="evenodd"/><path d="M2484.23 551.394 2620.23 551.394" stroke="#006600" stroke-width="3.34583" stroke-linecap="round" stroke-linejoin="round" stroke-miterlimit="10" fill="none" fill-rule="evenodd"/><path d="M2553.4 531.375 2553.4 570.375M2534.29 551.513 2572.29 551.513" stroke="#006600" stroke-width="3.34583" stroke-linejoin="round" stroke-miterlimit="10" fill="none" fill-rule="evenodd"/><text font-family="Times New Roman,Times New Roman_MSFontService,sans-serif" font-weight="400" font-size="92" transform="matrix(1 0 0 1 1916.91 585)">2<tspan font-size="92" x="45.8334" y="0">-</tspan><tspan font-size="92" x="76.198" y="0">stars</tspan><tspan font-size="92" x="742.018" y="3">clustering coefficient</tspan></text><rect x="3231.5" y="922.5" width="446" height="155" stroke="#000000" stroke-width="3.4375" stroke-linejoin="round" stroke-miterlimit="10" fill="#FFFFFF"/><text font-family="Times New Roman,Times New Roman_MSFontService,sans-serif" font-weight="700" font-size="101" transform="matrix(1 0 0 1 3317.23 1035)">IMDB<tspan font-weight="400" font-size="73" x="-2789.72" y="-341">10</tspan><tspan font-weight="400" font-size="49" x="-2716.38" y="-363">2</tspan><tspan font-weight="400" font-size="73" x="-1106.31" y="-182">1</tspan><tspan font-weight="400" font-size="73" x="-1122.81" y="-260">10</tspan><tspan font-weight="400" font-size="73" x="-1143.15" y="-27">10</tspan><tspan font-weight="400" font-size="49" x="-1069.82" y="-49">-</tspan><tspan font-weight="400" font-size="49" x="-1053.78" y="-49">2</tspan><tspan font-weight="400" font-size="73" x="-1143.15" y="-105">10</tspan><tspan font-weight="400" font-size="49" x="-1069.82" y="-127">-</tspan><tspan font-weight="400" font-size="49" x="-1053.78" y="-127">1</tspan><tspan font-weight="400" font-size="73" x="-1143.15" y="124">10</tspan><tspan font-weight="400" font-size="49" x="-1069.82" y="102">-</tspan><tspan font-weight="400" font-size="49" x="-1053.78" y="102">4</tspan><tspan font-weight="400" font-size="73" x="-1143.15" y="50">10</tspan><tspan font-weight="400" font-size="49" x="-1069.82" y="28">-</tspan><tspan font-weight="400" font-size="49" x="-1053.78" y="28">3</tspan><tspan font-weight="400" font-size="73" x="-1143.15" y="281">10</tspan><tspan font-weight="400" font-size="49" x="-1069.82" y="259">-</tspan><tspan font-weight="400" font-size="49" x="-1053.78" y="259">6</tspan><tspan font-weight="400" font-size="73" x="-1143.15" y="203">10</tspan><tspan font-weight="400" font-size="49" x="-1069.82" y="181">-</tspan><tspan font-weight="400" font-size="49" x="-1053.78" y="181">5</tspan><tspan font-weight="400" font-size="73" x="-1135.13" y="-339">10</tspan><tspan font-weight="400" font-size="49" x="-1061.8" y="-361">2</tspan></text></g></svg>