<svg width="3374" height="1031" xmlns="http://www.w3.org/2000/svg" xmlns:xlink="http://www.w3.org/1999/xlink" overflow="hidden"><defs><clipPath id="clip0"><rect x="386" y="741" width="3374" height="1031"/></clipPath><clipPath id="clip1"><rect x="590" y="898" width="1501" height="663"/></clipPath><clipPath id="clip2"><rect x="590" y="898" width="1501" height="663"/></clipPath><clipPath id="clip3"><rect x="638" y="928" width="1414" height="614"/></clipPath><clipPath id="clip4"><rect x="590" y="898" width="1501" height="663"/></clipPath><clipPath id="clip5"><rect x="638" y="928" width="1414" height="614"/></clipPath><clipPath id="clip6"><rect x="590" y="898" width="1501" height="663"/></clipPath><clipPath id="clip7"><rect x="2255" y="890" width="1468" height="669"/></clipPath><clipPath id="clip8"><rect x="2255" y="890" width="1468" height="669"/></clipPath><clipPath id="clip9"><rect x="2284" y="926" width="1415" height="614"/></clipPath><clipPath id="clip10"><rect x="2255" y="890" width="1468" height="669"/></clipPath><clipPath id="clip11"><rect x="2284" y="926" width="1415" height="614"/></clipPath><clipPath id="clip12"><rect x="2255" y="890" width="1468" height="669"/></clipPath></defs><g clip-path="url(#clip0)" transform="translate(-386 -741)"><g clip-path="url(#clip1)"><path d="M638.5 1539.5 2049.5 1539.5M638.5 1437.55 2049.5 1437.55M638.5 1335.54 2049.5 1335.54M638.5 1233.54 2049.5 1233.54M638.5 1131.54 2049.5 1131.54M638.5 1030.53 2049.5 1030.53M638.5 928.5 2049.5 928.5" stroke="#D9D9D9" stroke-width="3.4375" stroke-linejoin="round" stroke-miterlimit="10" fill="none"/></g><g clip-path="url(#clip2)"><path d="M638.5 928.5 638.5 1539.5M779.526 928.5 779.526 1539.5M920.53 928.5 920.53 1539.5M1061.53 928.5 1061.53 1539.5M1202.54 928.5 1202.54 1539.5M1344.54 928.5 1344.54 1539.5M1485.55 928.5 1485.55 1539.5M1626.55 928.5 1626.55 1539.5M1767.56 928.5 1767.56 1539.5M1908.56 928.5 1908.56 1539.5M2049.5 928.5 2049.5 1539.5" stroke="#D9D9D9" stroke-width="3.4375" stroke-linejoin="round" stroke-miterlimit="10" fill="none"/></g><g clip-path="url(#clip3)"><path d="M709.5 1501.55 779.526 1496.5 920.53 1504.55 991.533 1506.5 1061.54 1505.55 1202.54 1504.55 1344.54 1504.55 1485.55 1504.55 1626.55 1504.55 1767.56 1504.55 1908.56 1504.55 2049.5 1504.55" stroke="#FF0000" stroke-width="3.4375" stroke-linecap="round" stroke-linejoin="round" stroke-miterlimit="10" fill="none"/></g><g clip-path="url(#clip4)"><path d="M728.995 1500.09C728.995 1511.13 720.041 1520.09 708.995 1520.09 697.95 1520.09 688.996 1511.13 688.996 1500.09 688.996 1489.04 697.95 1480.09 708.995 1480.09 720.041 1480.09 728.995 1489.04 728.995 1500.09Z" stroke="#FF0000" stroke-width="3.4375" stroke-linejoin="round" stroke-miterlimit="10" fill="none"/><path d="M798.995 1495.09C798.995 1506.13 790.041 1515.09 778.995 1515.09 767.95 1515.09 758.996 1506.13 758.996 1495.09 758.996 1484.04 767.95 1475.09 778.995 1475.09 790.041 1475.09 798.995 1484.04 798.995 1495.09Z" stroke="#FF0000" stroke-width="3.4375" stroke-linejoin="round" stroke-miterlimit="10" fill="none"/><path d="M939.995 1503.09C939.995 1514.13 931.041 1523.09 919.995 1523.09 908.95 1523.09 899.996 1514.13 899.996 1503.09 899.996 1492.04 908.95 1483.09 919.995 1483.09 931.041 1483.09 939.995 1492.04 939.995 1503.09Z" stroke="#FF0000" stroke-width="3.4375" stroke-linejoin="round" stroke-miterlimit="10" fill="none"/><path d="M1010.99 1505.09C1010.99 1516.13 1002.04 1525.09 990.995 1525.09 979.95 1525.09 970.995 1516.13 970.995 1505.09 970.995 1494.04 979.95 1485.09 990.995 1485.09 1002.04 1485.09 1010.99 1494.04 1010.99 1505.09Z" stroke="#FF0000" stroke-width="3.4375" stroke-linejoin="round" stroke-miterlimit="10" fill="none"/><path d="M1080.99 1504.09C1080.99 1515.13 1072.04 1524.09 1061 1524.09 1049.95 1524.09 1041 1515.13 1041 1504.09 1041 1493.04 1049.95 1484.09 1061 1484.09 1072.04 1484.09 1080.99 1493.04 1080.99 1504.09Z" stroke="#FF0000" stroke-width="3.4375" stroke-linejoin="round" stroke-miterlimit="10" fill="none"/><path d="M1222.99 1504.09C1222.99 1515.13 1214.04 1524.09 1203 1524.09 1191.95 1524.09 1183 1515.13 1183 1504.09 1183 1493.04 1191.95 1484.09 1203 1484.09 1214.04 1484.09 1222.99 1493.04 1222.99 1504.09Z" stroke="#FF0000" stroke-width="3.4375" stroke-linejoin="round" stroke-miterlimit="10" fill="none"/><path d="M1363.99 1504.09C1363.99 1515.13 1355.04 1524.09 1343.99 1524.09 1332.95 1524.09 1324 1515.13 1324 1504.09 1324 1493.04 1332.95 1484.09 1343.99 1484.09 1355.04 1484.09 1363.99 1493.04 1363.99 1504.09Z" stroke="#FF0000" stroke-width="3.4375" stroke-linejoin="round" stroke-miterlimit="10" fill="none"/><path d="M1504.99 1504.09C1504.99 1515.13 1496.04 1524.09 1485 1524.09 1473.95 1524.09 1465 1515.13 1465 1504.09 1465 1493.04 1473.95 1484.09 1485 1484.09 1496.04 1484.09 1504.99 1493.04 1504.99 1504.09Z" stroke="#FF0000" stroke-width="3.4375" stroke-linejoin="round" stroke-miterlimit="10" fill="none"/><path d="M1645.99 1504.09C1645.99 1515.13 1637.04 1524.09 1626 1524.09 1614.95 1524.09 1606 1515.13 1606 1504.09 1606 1493.04 1614.95 1484.09 1626 1484.09 1637.04 1484.09 1645.99 1493.04 1645.99 1504.09Z" stroke="#FF0000" stroke-width="3.4375" stroke-linejoin="round" stroke-miterlimit="10" fill="none"/><path d="M1786.99 1504.09C1786.99 1515.13 1778.04 1524.09 1767 1524.09 1755.95 1524.09 1747 1515.13 1747 1504.09 1747 1493.04 1755.95 1484.09 1767 1484.09 1778.04 1484.09 1786.99 1493.04 1786.99 1504.09Z" stroke="#FF0000" stroke-width="3.4375" stroke-linejoin="round" stroke-miterlimit="10" fill="none"/><path d="M1927.99 1504.09C1927.99 1515.13 1919.04 1524.09 1908 1524.09 1896.95 1524.09 1888 1515.13 1888 1504.09 1888 1493.04 1896.95 1484.09 1908 1484.09 1919.04 1484.09 1927.99 1493.04 1927.99 1504.09Z" stroke="#FF0000" stroke-width="3.4375" stroke-linejoin="round" stroke-miterlimit="10" fill="none"/><path d="M2068.99 1504.09C2068.99 1515.13 2060.04 1524.09 2049 1524.09 2037.95 1524.09 2029 1515.13 2029 1504.09 2029 1493.04 2037.95 1484.09 2049 1484.09 2060.04 1484.09 2068.99 1493.04 2068.99 1504.09Z" stroke="#FF0000" stroke-width="3.4375" stroke-linejoin="round" stroke-miterlimit="10" fill="none"/></g><g clip-path="url(#clip5)"><path d="M709.5 1161.5 779.526 1222.54 920.53 1288.54 991.533 1312.54 1061.54 1324.54 1202.54 1357.54 1344.54 1369.55 1485.55 1393.55 1626.55 1410.55 1767.56 1424.55 1908.56 1434.55 2049.5 1441.5" stroke="#006600" stroke-width="3.4375" stroke-linecap="round" stroke-linejoin="round" stroke-miterlimit="10" fill="none"/></g><g clip-path="url(#clip6)"><path d="M709.995 1143.09 727.995 1179.09 691.995 1179.09Z" stroke="#006600" stroke-width="3.4375" stroke-linejoin="round" stroke-miterlimit="10" fill="none"/><path d="M779.995 1204.09 797.995 1240.09 761.995 1240.09Z" stroke="#006600" stroke-width="3.4375" stroke-linejoin="round" stroke-miterlimit="10" fill="none"/><path d="M920.995 1270.09 938.995 1306.09 902.995 1306.09Z" stroke="#006600" stroke-width="3.4375" stroke-linejoin="round" stroke-miterlimit="10" fill="none"/><path d="M991.995 1294.09 1009.99 1330.09 973.995 1330.09Z" stroke="#006600" stroke-width="3.4375" stroke-linejoin="round" stroke-miterlimit="10" fill="none"/><path d="M1061.99 1306.09 1079.99 1342.09 1044 1342.09Z" stroke="#006600" stroke-width="3.4375" stroke-linejoin="round" stroke-miterlimit="10" fill="none"/><path d="M1203.99 1339.09 1221.99 1375.09 1186 1375.09Z" stroke="#006600" stroke-width="3.4375" stroke-linejoin="round" stroke-miterlimit="10" fill="none"/><path d="M1344.99 1351.09 1362.99 1387.09 1327 1387.09Z" stroke="#006600" stroke-width="3.4375" stroke-linejoin="round" stroke-miterlimit="10" fill="none"/><path d="M1485.99 1376.09 1503.99 1412.09 1468 1412.09Z" stroke="#006600" stroke-width="3.4375" stroke-linejoin="round" stroke-miterlimit="10" fill="none"/><path d="M1626.99 1392.09 1644.99 1428.09 1609 1428.09Z" stroke="#006600" stroke-width="3.4375" stroke-linejoin="round" stroke-miterlimit="10" fill="none"/><path d="M1767.99 1406.09 1785.99 1442.09 1750 1442.09Z" stroke="#006600" stroke-width="3.4375" stroke-linejoin="round" stroke-miterlimit="10" fill="none"/><path d="M1908.99 1416.09 1926.99 1452.09 1891 1452.09Z" stroke="#006600" stroke-width="3.4375" stroke-linejoin="round" stroke-miterlimit="10" fill="none"/><path d="M2049.99 1423.09 2067.99 1459.09 2032 1459.09Z" stroke="#006600" stroke-width="3.4375" stroke-linejoin="round" stroke-miterlimit="10" fill="none"/></g><text font-family="Times New Roman,Times New Roman_MSFontService,sans-serif" font-weight="400" font-size="73" transform="matrix(1 0 0 1 621.805 1627)">0<tspan font-size="73" x="110.381" y="1">0.2</tspan><tspan font-size="73" x="250.631" y="1">0.4</tspan><tspan font-size="73" x="389.965" y="0">0.6</tspan><tspan font-size="73" x="530.215" y="0">0.8</tspan><tspan font-size="73" x="814.381" y="0">1.2</tspan><tspan font-size="73" x="954.631" y="0">1.4</tspan><tspan font-size="73" x="1093.96" y="-1">1.6</tspan><tspan font-size="73" x="1234.21" y="-1">1.8</tspan><tspan font-size="73" x="700.333" y="1">1</tspan><tspan font-size="73" x="1406.17" y="-1">2</tspan></text><path d="M1339.68 1689.1C1343.99 1689.1 1348.51 1689.82 1353.25 1691.26L1351.54 1699.44 1347.32 1699.44C1346.78 1694.91 1344.13 1692.65 1339.37 1692.65 1336.64 1692.65 1334.41 1693.42 1332.67 1694.97 1330.93 1696.51 1330.07 1698.63 1330.07 1701.32 1330.07 1703.27 1330.84 1704.83 1332.38 1705.99 1333.92 1707.16 1336.04 1707.75 1338.74 1707.75L1345.12 1707.75 1344.08 1712.37 1339.59 1712.37C1337.31 1712.37 1335.44 1712.52 1333.97 1712.82 1332.51 1713.12 1331.13 1713.61 1329.84 1714.28 1328.55 1714.96 1327.54 1715.68 1326.81 1716.44 1326.08 1717.2 1325.53 1718.06 1325.17 1719.02 1324.81 1719.98 1324.63 1721.07 1324.63 1722.3 1324.63 1724.4 1325.35 1726 1326.79 1727.11 1328.22 1728.22 1330.29 1728.77 1332.99 1728.77 1335.35 1728.77 1337.64 1728.43 1339.84 1727.76 1342.04 1727.09 1344.53 1725.8 1347.32 1723.92L1349.52 1727.42C1346.4 1729.58 1343.34 1731.14 1340.33 1732.09 1337.32 1733.05 1334.17 1733.53 1330.88 1733.53 1327.88 1733.53 1325.31 1733.03 1323.17 1732.03 1321.03 1731.02 1319.43 1729.69 1318.36 1728.03 1317.3 1726.37 1316.77 1724.53 1316.77 1722.53 1316.77 1719.44 1317.97 1716.81 1320.36 1714.62 1322.76 1712.43 1326.2 1710.86 1330.7 1709.9L1330.79 1709.45C1325.57 1707.72 1322.97 1704.72 1322.97 1700.47 1322.97 1698.55 1323.57 1696.73 1324.77 1695.01 1325.96 1693.29 1327.84 1691.87 1330.4 1690.77 1332.96 1689.66 1336.06 1689.1 1339.68 1689.1Z" fill-rule="evenodd"/><text fill="#000000" fill-opacity="0" font-family="Arial,Arial_MSFontService,sans-serif" font-size="44.4277" x="1316.77" y="1727.98">ğœ€</text><text font-family="Times New Roman,Times New Roman_MSFontService,sans-serif" font-weight="400" font-size="92" transform="matrix(-1.83697e-16 -1 1 -1.83697e-16 502.778 1500)">Relative Error</text><rect x="1288.5" y="950.5" width="736" height="155" stroke="#000000" stroke-width="3.4375" stroke-linejoin="round" stroke-miterlimit="10" fill="#FFFFFF"/><text font-family="Times New Roman,Times New Roman_MSFontService,sans-serif" font-weight="700" font-size="101" transform="matrix(1 0 0 1 1320.96 1063)">Bipartite <tspan font-size="101" x="411.927" y="0">Gplus</tspan><tspan font-weight="400" font-size="73" x="-793.88" y="-6">10</tspan><tspan font-weight="400" font-size="49" x="-720.547" y="-28">4</tspan><tspan font-weight="400" font-size="73" x="-794.797" y="96">10</tspan><tspan font-weight="400" font-size="49" x="-721.463" y="74">3</tspan><tspan font-weight="400" font-size="73" x="-794.797" y="195">10</tspan><tspan font-weight="400" font-size="49" x="-721.463" y="173">2</tspan><tspan font-weight="400" font-size="73" x="-782.479" y="299">10</tspan><tspan font-weight="400" font-size="73" x="-764.146" y="399">1</tspan><tspan font-weight="400" font-size="73" x="-802.147" y="500">10</tspan><tspan font-weight="400" font-size="49" x="-728.814" y="478">-</tspan><tspan font-weight="400" font-size="49" x="-712.772" y="478">1</tspan><tspan font-weight="400" font-size="73" x="952.16" y="563">0</tspan><tspan font-weight="400" font-size="73" x="1062.54" y="564">0.2</tspan><tspan font-weight="400" font-size="73" x="1202.79" y="564">0.4</tspan><tspan font-weight="400" font-size="73" x="1342.12" y="563">0.6</tspan><tspan font-weight="400" font-size="73" x="1482.37" y="563">0.8</tspan><tspan font-weight="400" font-size="73" x="1766.54" y="563">1.2</tspan><tspan font-weight="400" font-size="73" x="1906.79" y="563">1.4</tspan><tspan font-weight="400" font-size="73" x="2046.12" y="562">1.6</tspan><tspan font-weight="400" font-size="73" x="2186.37" y="562">1.8</tspan><tspan font-weight="400" font-size="73" x="1652.49" y="564">1</tspan><tspan font-weight="400" font-size="73" x="2358.33" y="562">2</tspan></text><path d="M2990.99 1688.52C2995.31 1688.52 2999.83 1689.24 3004.56 1690.68L3002.85 1698.86 2998.63 1698.86C2998.09 1694.33 2995.44 1692.07 2990.68 1692.07 2987.95 1692.07 2985.72 1692.84 2983.99 1694.39 2982.25 1695.93 2981.38 1698.05 2981.38 1700.74 2981.38 1702.69 2982.15 1704.25 2983.69 1705.42 2985.24 1706.58 2987.36 1707.17 2990.05 1707.17L2996.43 1707.17 2995.4 1711.79 2990.9 1711.79C2988.63 1711.79 2986.76 1711.94 2985.29 1712.24 2983.82 1712.54 2982.44 1713.03 2981.16 1713.7 2979.87 1714.38 2978.86 1715.1 2978.12 1715.86 2977.39 1716.62 2976.84 1717.48 2976.48 1718.44 2976.13 1719.4 2975.95 1720.49 2975.95 1721.72 2975.95 1723.82 2976.66 1725.42 2978.1 1726.53 2979.54 1727.64 2981.61 1728.19 2984.3 1728.19 2986.67 1728.19 2988.95 1727.85 2991.15 1727.18 2993.35 1726.51 2995.85 1725.23 2998.63 1723.34L3000.83 1726.84C2997.72 1729 2994.66 1730.56 2991.65 1731.51 2988.64 1732.47 2985.48 1732.95 2982.19 1732.95 2979.2 1732.95 2976.63 1732.45 2974.49 1731.45 2972.34 1730.44 2970.74 1729.11 2969.68 1727.45 2968.62 1725.79 2968.08 1723.95 2968.08 1721.95 2968.08 1718.86 2969.28 1716.23 2971.68 1714.04 2974.07 1711.85 2977.52 1710.28 2982.01 1709.32L2982.1 1708.87C2976.89 1707.14 2974.28 1704.14 2974.28 1699.89 2974.28 1697.97 2974.88 1696.15 2976.08 1694.43 2977.28 1692.71 2979.16 1691.29 2981.72 1690.19 2984.28 1689.08 2987.37 1688.52 2990.99 1688.52Z" fill-rule="evenodd"/><text fill="#000000" fill-opacity="0" font-family="Arial,Arial_MSFontService,sans-serif" font-size="44.4277" x="2968.08" y="1727.4">ğœ€</text><text font-family="Times New Roman,Times New Roman_MSFontService,sans-serif" font-weight="400" font-size="92" transform="matrix(-1.83697e-16 -1 1 -1.83697e-16 2154.09 1500)">Relative Error</text><path d="M637.029 751.368 3697.03 751.368 3697.03 881.368 637.029 881.368Z" stroke="#000000" stroke-width="3.34656" stroke-linejoin="round" stroke-miterlimit="10" fill="#FFFFFF" fill-rule="evenodd"/><path d="M1081.37 820.143 1217.37 820.143" stroke="#FF0000" stroke-width="3.34656" stroke-linecap="round" stroke-linejoin="round" stroke-miterlimit="10" fill="none" fill-rule="evenodd"/><path d="M1166.37 818.575C1166.37 828.791 1158.08 837.074 1147.87 837.074 1137.65 837.074 1129.37 828.791 1129.37 818.575 1129.37 808.358 1137.65 800.075 1147.87 800.075 1158.08 800.075 1166.37 808.358 1166.37 818.575Z" stroke="#FF0000" stroke-width="3.34656" stroke-linejoin="round" stroke-miterlimit="10" fill="none" fill-rule="evenodd"/><path d="M2686.37 820.143 2821.37 820.143" stroke="#006600" stroke-width="3.34656" stroke-linecap="round" stroke-linejoin="round" stroke-miterlimit="10" fill="none" fill-rule="evenodd"/><path d="M2753.37 804.075 2768.37 835.075 2738.37 835.075Z" stroke="#006600" stroke-width="3.34656" stroke-linejoin="round" stroke-miterlimit="10" fill="none" fill-rule="evenodd"/><path d="M1567.36 809.878C1564.28 809.878 1561.82 811.113 1559.97 813.584 1558.13 816.055 1557.05 819.581 1556.72 824.163L1576.35 824.163C1576.17 820.929 1575.76 818.286 1575.14 816.234 1574.51 814.183 1573.56 812.611 1572.31 811.517 1571.05 810.424 1569.4 809.878 1567.36 809.878ZM1416.92 807.093 1429.73 807.093 1429.73 829.958C1429.73 833.462 1429.86 836.127 1430.13 837.954 1430.4 839.781 1430.81 841.158 1431.34 842.087 1431.88 843.015 1432.65 843.794 1433.64 844.423 1434.62 845.052 1435.99 845.366 1437.72 845.366 1438.86 845.366 1439.95 845.141 1441 844.692 1442.05 844.243 1443.22 843.457 1444.51 842.334 1445.79 841.211 1446.71 840.095 1447.27 838.987 1447.82 837.879 1448.1 836.591 1448.1 835.124L1448.1 818.278C1448.1 816.571 1448.06 815.283 1447.97 814.415 1447.88 813.546 1447.73 812.85 1447.52 812.326 1447.31 811.802 1447.06 811.375 1446.77 811.046 1446.49 810.716 1446.09 810.417 1445.56 810.147 1445.04 809.878 1444.19 809.593 1443.02 809.294L1443.02 807.093 1455.83 807.093 1455.83 837.774C1455.83 840.08 1455.87 841.742 1455.96 842.761 1456.05 843.779 1456.25 844.587 1456.55 845.186 1456.84 845.785 1457.31 846.272 1457.94 846.646 1458.57 847.021 1459.69 847.373 1461.31 847.702L1461.31 850.038 1451.02 850.487 1448.28 850.487 1448.55 843.12 1447.88 842.94C1445.39 845.636 1443.02 847.612 1440.76 848.87 1438.49 850.128 1436.23 850.757 1433.95 850.757 1431.22 850.757 1428.98 850.218 1427.21 849.14 1425.44 848.061 1424.13 846.452 1423.26 844.31 1422.39 842.169 1421.96 839.152 1421.96 835.259L1421.96 818.278C1421.96 815.763 1421.86 814.033 1421.66 813.09 1421.47 812.146 1421.09 811.398 1420.54 810.844 1419.99 810.29 1418.78 809.773 1416.92 809.294ZM1567.81 806.329C1570.84 806.329 1573.41 806.808 1575.54 807.766 1577.67 808.725 1579.37 810.035 1580.64 811.697 1581.91 813.359 1582.9 815.456 1583.6 817.986 1584.31 820.517 1584.7 823.819 1584.79 827.891L1556.49 827.891 1556.49 828.7C1556.49 832.234 1556.89 835.206 1557.68 837.617 1558.48 840.028 1559.78 841.915 1561.59 843.277 1563.4 844.64 1565.76 845.321 1568.67 845.321 1571.12 845.321 1573.33 844.864 1575.29 843.951 1577.25 843.038 1579.21 841.548 1581.15 839.481L1583.89 842.401C1581.98 844.408 1580.22 845.98 1578.62 847.118 1577.01 848.256 1575.25 849.147 1573.34 849.791 1571.42 850.435 1569.31 850.757 1567 850.757 1560.83 850.757 1556.18 848.907 1553.03 845.209 1549.89 841.51 1548.32 836.052 1548.32 828.835 1548.32 824.373 1549.12 820.434 1550.72 817.02 1552.32 813.606 1554.61 810.971 1557.57 809.114 1560.54 807.257 1563.95 806.329 1567.81 806.329ZM1234.63 788.72 1253.86 788.72 1253.86 790.921C1252 791.28 1250.71 791.819 1249.97 792.538 1249.24 793.257 1248.87 794.26 1248.87 795.548 1248.87 796.596 1249.01 797.839 1249.28 799.276 1249.55 800.714 1249.92 802.346 1250.4 804.173L1259.43 839.661 1273.89 788.72 1281.44 788.72 1293.17 839.706 1303.77 805.431C1305.06 801.268 1305.7 798.303 1305.7 796.536 1305.7 794.709 1305.32 793.391 1304.55 792.583 1303.79 791.774 1302.53 791.22 1300.76 790.921L1300.76 788.72 1318.46 788.72 1318.46 790.921C1317.56 791.22 1316.84 791.557 1316.3 791.932 1315.76 792.306 1315.25 792.815 1314.75 793.459 1314.26 794.103 1313.72 795.099 1313.13 796.446 1312.55 797.794 1311.87 799.606 1311.09 801.882L1294.74 850.352 1288.31 850.352 1275.92 800.175 1261.54 850.352 1254.26 850.352 1241.19 801.567C1240.65 799.531 1240.16 797.869 1239.71 796.581 1239.26 795.293 1238.81 794.282 1238.36 793.549 1237.91 792.815 1237.43 792.261 1236.9 791.887 1236.38 791.512 1235.62 791.19 1234.63 790.921ZM1342.94 788.001C1345.21 788.001 1347.44 788.121 1349.61 788.36 1351.78 788.6 1354.5 789.139 1357.76 789.977L1357.76 802.106 1353.31 802.106C1352.62 799.471 1351.76 797.419 1350.71 795.952 1349.66 794.485 1348.43 793.459 1347.02 792.875 1345.62 792.291 1343.79 791.999 1341.54 791.999 1339.6 791.999 1337.85 792.358 1336.31 793.077 1334.77 793.796 1333.55 794.881 1332.65 796.334 1331.75 797.786 1331.3 799.516 1331.3 801.522 1331.3 803.649 1331.68 805.445 1332.45 806.913 1333.21 808.38 1334.4 809.743 1336.02 811.001 1337.64 812.259 1340.03 813.666 1343.21 815.224 1347.04 817.14 1350.01 818.922 1352.12 820.569 1354.23 822.216 1355.88 824.096 1357.06 826.207 1358.25 828.318 1358.84 830.781 1358.84 833.597 1358.84 836.741 1358.34 839.399 1357.36 841.57 1356.37 843.741 1355 845.508 1353.25 846.871 1351.49 848.234 1349.4 849.222 1346.96 849.836 1344.52 850.45 1341.84 850.757 1338.94 850.757 1334.24 850.757 1328.82 849.963 1322.68 848.376L1322.68 836.067 1327.17 836.067C1327.77 838.703 1328.58 840.784 1329.59 842.311 1330.61 843.839 1331.93 844.969 1333.55 845.703 1335.16 846.437 1337.25 846.804 1339.79 846.804 1343.3 846.804 1345.98 845.89 1347.85 844.063 1349.73 842.237 1350.66 839.571 1350.66 836.067 1350.66 833.821 1350.27 831.934 1349.49 830.407 1348.72 828.88 1347.44 827.442 1345.68 826.095 1343.91 824.747 1341.21 823.175 1337.59 821.378 1334.09 819.641 1331.32 817.941 1329.28 816.279 1327.24 814.617 1325.72 812.813 1324.72 810.866 1323.72 808.919 1323.22 806.793 1323.22 804.487 1323.22 801.133 1324 798.221 1325.57 795.75 1327.15 793.279 1329.45 791.37 1332.49 790.022 1335.53 788.675 1339.01 788.001 1342.94 788.001ZM1376.35 785.755 1379.04 785.755 1379.04 814.145 1379.22 814.19C1381.56 811.824 1383.41 810.17 1384.77 809.226 1386.13 808.283 1387.48 807.572 1388.81 807.093 1390.14 806.613 1391.57 806.374 1393.1 806.374 1394.75 806.374 1396.22 806.569 1397.5 806.958 1398.79 807.347 1399.92 807.939 1400.9 808.732 1401.87 809.526 1402.66 810.499 1403.28 811.652 1403.89 812.805 1404.35 814.183 1404.65 815.785 1404.95 817.387 1405.1 819.416 1405.1 821.872L1405.1 838.807C1405.1 841.413 1405.21 843.187 1405.43 844.131 1405.66 845.074 1406.06 845.808 1406.65 846.332 1407.23 846.856 1408.41 847.358 1410.17 847.837L1410.17 850.038 1392.47 850.038 1392.47 847.837C1393.64 847.477 1394.48 847.163 1394.99 846.893 1395.5 846.624 1395.92 846.25 1396.27 845.77 1396.61 845.291 1396.88 844.55 1397.08 843.547 1397.27 842.544 1397.37 841.024 1397.37 838.987L1397.37 827.218C1397.37 823.235 1397.17 820.187 1396.76 818.076 1396.36 815.965 1395.57 814.385 1394.38 813.337 1393.2 812.289 1391.54 811.765 1389.42 811.765 1388.22 811.765 1387.14 811.974 1386.18 812.393 1385.23 812.813 1384.12 813.561 1382.86 814.64 1381.6 815.718 1380.65 816.826 1380.01 817.964 1379.36 819.102 1379.04 820.315 1379.04 821.602L1379.04 838.807C1379.04 840.844 1379.09 842.296 1379.2 843.165 1379.3 844.033 1379.51 844.76 1379.81 845.344 1380.1 845.928 1380.56 846.407 1381.18 846.781 1381.79 847.155 1382.74 847.507 1384.03 847.837L1384.03 850.038 1366.24 850.038 1366.24 847.837C1367.56 847.477 1368.5 847.133 1369.07 846.804 1369.64 846.474 1370.08 846.055 1370.39 845.546 1370.71 845.037 1370.94 844.303 1371.09 843.345 1371.24 842.386 1371.31 840.874 1371.31 838.807L1371.31 801.208C1371.31 798.333 1371.29 796.326 1371.25 795.188 1371.2 794.05 1371.08 793.085 1370.89 792.291 1370.69 791.497 1370.42 790.876 1370.08 790.427 1369.74 789.977 1369.27 789.618 1368.69 789.349 1368.1 789.079 1367.05 788.809 1365.52 788.54L1365.52 786.204ZM1519 785.53C1521.37 785.53 1523.37 785.695 1525.02 786.024L1525.02 786.057 1532.3 785.755 1535 785.755 1535 838.807C1535 841.383 1535.12 843.172 1535.36 844.176 1535.6 845.179 1536.05 845.943 1536.73 846.467 1537.4 846.991 1538.5 847.447 1540.03 847.837L1540.03 850.038 1522.19 850.038 1522.19 847.837C1523.69 847.447 1524.73 847.043 1525.32 846.624 1525.9 846.205 1526.32 845.703 1526.57 845.119 1526.83 844.535 1527.01 843.741 1527.11 842.738 1527.22 841.735 1527.27 840.425 1527.27 838.807L1527.27 801.208C1527.27 798.333 1527.25 796.326 1527.2 795.188 1527.16 794.05 1527.04 793.085 1526.84 792.291 1526.65 791.497 1526.38 790.876 1526.03 790.427L1525.02 789.643 1525.02 794.155 1520.57 794.155C1520.01 792.388 1519.34 791.138 1518.58 790.404 1517.81 789.67 1516.74 789.304 1515.36 789.304 1514.38 789.304 1513.54 789.438 1512.87 789.708 1512.2 789.977 1511.58 790.397 1511.01 790.966 1510.44 791.535 1509.95 792.298 1509.55 793.257 1509.14 794.215 1508.84 795.405 1508.65 796.828 1508.45 798.251 1508.36 800.1 1508.36 802.376L1508.36 807.093 1519.09 807.093 1519.09 811.63 1508.36 811.63 1508.36 838.807C1508.36 840.814 1508.45 842.326 1508.65 843.345 1508.84 844.363 1509.13 845.134 1509.5 845.658 1509.88 846.182 1510.37 846.601 1510.98 846.916 1511.6 847.23 1512.58 847.537 1513.93 847.837L1513.93 850.038 1495.55 850.038 1495.55 847.837C1496.87 847.477 1497.81 847.133 1498.38 846.804 1498.95 846.474 1499.39 846.055 1499.71 845.546 1500.02 845.037 1500.25 844.303 1500.4 843.345 1500.55 842.386 1500.63 840.874 1500.63 838.807L1500.63 811.63 1495.19 811.63 1495.19 809.339C1496.33 809.159 1497.09 809.017 1497.46 808.912 1497.84 808.807 1498.2 808.65 1498.54 808.44 1498.88 808.231 1499.18 807.931 1499.44 807.542 1499.69 807.153 1499.92 806.576 1500.11 805.812 1500.31 805.049 1500.46 803.978 1500.58 802.6 1500.85 799.336 1501.45 796.686 1502.36 794.649 1503.27 792.613 1504.6 790.876 1506.36 789.438 1508.11 788.001 1509.98 786.99 1511.97 786.406 1513.96 785.822 1516.31 785.53 1519 785.53ZM1491 785.53C1493.37 785.53 1495.37 785.695 1497.02 786.024L1497.02 794.155 1492.57 794.155C1492.01 792.388 1491.34 791.138 1490.58 790.404 1489.81 789.67 1488.74 789.304 1487.36 789.304 1486.38 789.304 1485.54 789.438 1484.87 789.708 1484.2 789.977 1483.58 790.397 1483.01 790.966 1482.44 791.535 1481.95 792.298 1481.55 793.257 1481.14 794.215 1480.84 795.405 1480.65 796.828 1480.45 798.251 1480.36 800.1 1480.36 802.376L1480.36 807.093 1491.09 807.093 1491.09 811.63 1480.36 811.63 1480.36 838.807C1480.36 840.814 1480.45 842.326 1480.65 843.345 1480.84 844.363 1481.13 845.134 1481.5 845.658 1481.88 846.182 1482.37 846.601 1482.98 846.916 1483.6 847.23 1484.58 847.537 1485.93 847.837L1485.93 850.038 1467.55 850.038 1467.55 847.837C1468.87 847.477 1469.81 847.133 1470.38 846.804 1470.95 846.474 1471.39 846.055 1471.71 845.546 1472.02 845.037 1472.25 844.303 1472.4 843.345 1472.55 842.386 1472.63 840.874 1472.63 838.807L1472.63 811.63 1467.19 811.63 1467.19 809.339C1468.33 809.159 1469.09 809.017 1469.46 808.912 1469.84 808.807 1470.2 808.65 1470.54 808.44 1470.88 808.231 1471.18 807.931 1471.44 807.542 1471.69 807.153 1471.92 806.576 1472.11 805.812 1472.31 805.049 1472.46 803.978 1472.58 802.6 1472.85 799.336 1473.45 796.686 1474.36 794.649 1475.27 792.613 1476.6 790.876 1478.36 789.438 1480.11 788.001 1481.98 786.99 1483.97 786.406 1485.96 785.822 1488.31 785.53 1491 785.53Z" fill-rule="evenodd"/><text fill="#000000" fill-opacity="0" font-family="Arial,Arial_MSFontService,sans-serif" font-size="65.2266" x="1234.63" y="842.603">WShuffle</text><path d="M3092.41 825.766C3086.33 825.826 3081.78 826.635 3078.75 828.192 3075.73 829.749 3074.22 832.1 3074.22 835.245 3074.22 836.952 3074.56 838.3 3075.25 839.288 3075.94 840.276 3076.81 840.957 3077.86 841.332 3078.9 841.706 3080.15 841.893 3081.58 841.893 3083.62 841.893 3085.47 841.399 3087.13 840.411 3088.79 839.423 3090.09 838.165 3091.02 836.637 3091.95 835.11 3092.41 833.598 3092.41 832.1ZM2997.29 806.091C2993.67 806.091 2990.89 807.663 2988.96 810.807 2987.03 813.952 2986.06 818.429 2986.06 824.239 2986.06 830.408 2987.04 835.148 2989 838.457 2990.96 841.766 2993.77 843.421 2997.42 843.421 2999.43 843.421 3001.14 842.934 3002.55 841.961 3003.95 840.987 3005.1 839.677 3005.98 838.03 3006.87 836.383 3007.5 834.474 3007.89 832.302 3008.28 830.131 3008.48 827.863 3008.48 825.497 3008.48 821.094 3007.99 817.441 3007.02 814.536 3006.04 811.631 3004.72 809.497 3003.04 808.135 3001.36 806.772 2999.45 806.091 2997.29 806.091ZM3087.56 802.542C3090.52 802.542 3092.91 803.013 3094.7 803.957 3096.5 804.9 3097.85 806.345 3098.74 808.292 3099.64 810.238 3100.09 813.173 3100.09 817.096L3100.09 832.729C3100.09 834.945 3100.11 836.51 3100.14 837.424 3100.17 838.337 3100.26 839.183 3100.41 839.962 3100.56 840.74 3100.78 841.362 3101.08 841.826 3101.38 842.29 3101.82 842.687 3102.41 843.016 3102.99 843.346 3103.94 843.69 3105.26 844.05L3105.26 846.251 3092.95 846.251 3093.17 839.827 3092.5 839.647C3089.9 842.313 3087.45 844.199 3085.16 845.307 3082.86 846.415 3080.43 846.969 3077.86 846.969 3075.58 846.969 3073.57 846.528 3071.84 845.644 3070.1 844.761 3068.77 843.518 3067.84 841.916 3066.91 840.314 3066.45 838.464 3066.45 836.368 3066.45 831.996 3068.61 828.619 3072.94 826.238 3077.26 823.857 3083.76 822.472 3092.41 822.083L3092.41 819.163C3092.41 816.048 3092.11 813.593 3091.51 811.796 3090.91 809.999 3089.97 808.681 3088.68 807.843 3087.39 807.004 3085.67 806.585 3083.52 806.585 3081.18 806.585 3079.3 807.199 3077.88 808.427 3076.46 809.654 3075.39 811.496 3074.67 813.952L3068.78 813.952 3068.78 808.112C3071.66 806.615 3074.05 805.514 3075.97 804.81 3077.89 804.107 3079.8 803.552 3081.72 803.148 3083.64 802.744 3085.58 802.542 3087.56 802.542ZM3046.6 802.542C3049.06 802.542 3051.33 802.684 3053.41 802.969 3055.49 803.253 3057.58 803.71 3059.68 804.339L3059.68 813.727 3053.97 813.727C3053.46 811.781 3052.83 810.246 3052.08 809.123 3051.34 808 3050.47 807.214 3049.48 806.764 3048.49 806.315 3047.26 806.091 3045.8 806.091 3043.7 806.091 3041.84 806.764 3040.23 808.112 3038.61 809.46 3037.33 811.511 3036.38 814.266 3035.44 817.022 3034.97 820.391 3034.97 824.374 3034.97 826.919 3035.15 829.248 3035.51 831.359 3035.87 833.47 3036.48 835.275 3037.35 836.772 3038.22 838.27 3039.37 839.438 3040.81 840.276 3042.25 841.115 3044.03 841.534 3046.16 841.534 3048.22 841.534 3050.15 841.13 3051.93 840.321 3053.71 839.512 3055.56 838.09 3057.48 836.053L3060.04 839.018C3058.51 840.695 3057.16 841.991 3055.99 842.904 3054.82 843.817 3053.57 844.581 3052.24 845.195 3050.91 845.809 3049.59 846.258 3048.29 846.543 3046.99 846.827 3045.57 846.969 3044.04 846.969 3038.38 846.969 3034.06 845.09 3031.06 841.332 3028.07 837.573 3026.57 832.145 3026.57 825.048 3026.57 820.615 3027.41 816.685 3029.08 813.256 3030.76 809.827 3033.11 807.184 3036.14 805.327 3039.16 803.47 3042.65 802.542 3046.6 802.542ZM2997.47 802.542C3003.88 802.542 3008.73 804.406 3012.02 808.135 3015.32 811.863 3016.97 817.216 3016.97 824.194 3016.97 829.165 3016.14 833.358 3014.49 836.772 3012.85 840.186 3010.51 842.739 3007.49 844.431 3004.46 846.123 3000.88 846.969 2996.75 846.969 2990.52 846.969 2985.77 845.135 2982.49 841.467 2979.21 837.798 2977.57 832.37 2977.57 825.182 2977.57 820.241 2978.43 816.063 2980.15 812.649 2981.87 809.235 2984.23 806.697 2987.23 805.035 2990.22 803.373 2993.64 802.542 2997.47 802.542ZM2929.29 784.932 2948.2 784.932 2948.2 787.134C2946.88 787.493 2945.95 787.815 2945.39 788.099 2944.84 788.384 2944.38 788.766 2944.02 789.245 2943.66 789.724 2943.39 790.458 2943.21 791.446 2943.03 792.434 2942.94 794.007 2942.94 796.163L2942.94 842.118 2954.71 842.118C2956 842.118 2957.08 842.043 2957.95 841.893 2958.82 841.744 2959.56 841.511 2960.17 841.197 2960.79 840.883 2961.34 840.448 2961.83 839.894 2962.33 839.34 2962.8 838.614 2963.25 837.716 2963.7 836.817 2964.12 835.687 2964.53 834.324 2964.93 832.961 2965.44 830.917 2966.03 828.192L2970.57 828.192 2969.67 846.251 2929.29 846.251 2929.29 844.05C2931.14 843.57 2932.39 843.039 2933.02 842.455 2933.65 841.871 2934.06 841.04 2934.25 839.962 2934.45 838.884 2934.54 837.236 2934.54 835.02L2934.54 796.163C2934.54 794.096 2934.47 792.592 2934.32 791.648 2934.17 790.705 2933.92 789.971 2933.58 789.447 2933.23 788.923 2932.78 788.504 2932.21 788.189 2931.64 787.875 2930.67 787.523 2929.29 787.134ZM2840.84 784.932 2860.07 784.932 2860.07 787.134C2858.21 787.493 2856.92 788.032 2856.18 788.751 2855.45 789.469 2855.08 790.473 2855.08 791.76 2855.08 792.809 2855.22 794.052 2855.49 795.489 2855.75 796.927 2856.13 798.559 2856.61 800.385L2865.64 835.874 2880.1 784.932 2887.65 784.932 2899.37 835.919 2909.98 801.643C2911.26 797.481 2911.91 794.516 2911.91 792.749 2911.91 790.922 2911.53 789.604 2910.76 788.796 2910 787.987 2908.73 787.433 2906.97 787.134L2906.97 784.932 2924.66 784.932 2924.66 787.134C2923.77 787.433 2923.05 787.77 2922.51 788.144 2921.97 788.519 2921.45 789.028 2920.96 789.672 2920.46 790.315 2919.93 791.311 2919.34 792.659 2918.76 794.007 2918.08 795.818 2917.3 798.094L2900.95 846.565 2894.52 846.565 2882.12 796.387 2867.75 846.565 2860.47 846.565 2847.4 797.78C2846.86 795.744 2846.37 794.081 2845.92 792.794 2845.47 791.506 2845.02 790.495 2844.57 789.761 2844.12 789.028 2843.63 788.474 2843.11 788.099 2842.58 787.725 2841.83 787.403 2840.84 787.134ZM3121.51 781.968 3124.2 781.968 3124.2 835.02C3124.2 837.596 3124.32 839.385 3124.56 840.388 3124.8 841.392 3125.26 842.155 3125.93 842.679 3126.61 843.204 3127.71 843.66 3129.24 844.05L3129.24 846.251 3111.4 846.251 3111.4 844.05C3112.9 843.66 3113.94 843.256 3114.52 842.837 3115.11 842.417 3115.53 841.916 3115.78 841.332 3116.04 840.748 3116.22 839.954 3116.32 838.951 3116.42 837.948 3116.48 836.637 3116.48 835.02L3116.48 797.421C3116.48 794.546 3116.45 792.539 3116.41 791.401 3116.36 790.263 3116.25 789.297 3116.05 788.504 3115.86 787.71 3115.59 787.089 3115.24 786.639 3114.9 786.19 3114.43 785.831 3113.85 785.561 3113.27 785.292 3112.21 785.022 3110.68 784.753L3110.68 782.417Z" fill-rule="evenodd"/><text fill="#000000" fill-opacity="0" font-family="Arial,Arial_MSFontService,sans-serif" font-size="65.002" x="2840.84" y="838.844">WLocal</text><rect x="1599.5" y="822.5" width="39.0002" height="38.9998" stroke="#000000" stroke-width="4.58333" stroke-miterlimit="8" fill="none"/><rect x="3138.5" y="822.5" width="39.0002" height="38.9998" stroke="#000000" stroke-width="4.58333" stroke-miterlimit="8" fill="none"/><text font-family="Times New Roman,Times New Roman_MSFontService,sans-serif" font-weight="400" font-size="73" transform="matrix(1 0 0 1 527.08 954)">10<tspan font-size="49" x="73.3333" y="-22">5</tspan></text><g clip-path="url(#clip7)"><path d="M2284.5 1537.5 3696.5 1537.5M2284.5 1435.55 3696.5 1435.55M2284.5 1333.54 3696.5 1333.54M2284.5 1231.54 3696.5 1231.54M2284.5 1129.54 3696.5 1129.54M2284.5 1028.53 3696.5 1028.53M2284.5 926.5 3696.5 926.5" stroke="#D9D9D9" stroke-width="3.4375" stroke-linejoin="round" stroke-miterlimit="10" fill="none"/></g><g clip-path="url(#clip8)"><path d="M2284.5 926.5 2284.5 1537.5M2425.58 926.5 2425.58 1537.5M2566.58 926.5 2566.58 1537.5M2707.59 926.5 2707.59 1537.5M2848.59 926.5 2848.59 1537.5M2990.6 926.5 2990.6 1537.5M3131.6 926.5 3131.6 1537.5M3272.61 926.5 3272.61 1537.5M3413.61 926.5 3413.61 1537.5M3554.62 926.5 3554.62 1537.5M3696.5 926.5 3696.5 1537.5" stroke="#D9D9D9" stroke-width="3.4375" stroke-linejoin="round" stroke-miterlimit="10" fill="none"/></g><g clip-path="url(#clip9)"><path d="M2354.5 1363.5 2425.58 1414.55 2566.58 1456.5 2637.59 1456.55 2707.59 1456.55 2848.59 1456.55 2990.6 1456.55 3131.6 1456.55 3272.61 1456.55 3413.61 1456.55 3554.62 1456.55 3696.5 1456.55" stroke="#FF0000" stroke-width="3.4375" stroke-linecap="round" stroke-linejoin="round" stroke-miterlimit="10" fill="none"/></g><g clip-path="url(#clip10)"><path d="M2373.63 1362.74C2373.63 1373.78 2364.67 1382.74 2353.63 1382.74 2342.58 1382.74 2333.63 1373.78 2333.63 1362.74 2333.63 1351.69 2342.58 1342.74 2353.63 1342.74 2364.67 1342.74 2373.63 1351.69 2373.63 1362.74Z" stroke="#FF0000" stroke-width="3.4375" stroke-linejoin="round" stroke-miterlimit="10" fill="none"/><path d="M2444.63 1413.74C2444.63 1424.78 2435.67 1433.74 2424.63 1433.74 2413.58 1433.74 2404.63 1424.78 2404.63 1413.74 2404.63 1402.69 2413.58 1393.74 2424.63 1393.74 2435.67 1393.74 2444.63 1402.69 2444.63 1413.74Z" stroke="#FF0000" stroke-width="3.4375" stroke-linejoin="round" stroke-miterlimit="10" fill="none"/><path d="M2585.63 1455.74C2585.63 1466.78 2576.67 1475.74 2565.63 1475.74 2554.58 1475.74 2545.63 1466.78 2545.63 1455.74 2545.63 1444.69 2554.58 1435.74 2565.63 1435.74 2576.67 1435.74 2585.63 1444.69 2585.63 1455.74Z" stroke="#FF0000" stroke-width="3.4375" stroke-linejoin="round" stroke-miterlimit="10" fill="none"/><path d="M2656.63 1455.74C2656.63 1466.78 2647.67 1475.74 2636.63 1475.74 2625.58 1475.74 2616.63 1466.78 2616.63 1455.74 2616.63 1444.69 2625.58 1435.74 2636.63 1435.74 2647.67 1435.74 2656.63 1444.69 2656.63 1455.74Z" stroke="#FF0000" stroke-width="3.4375" stroke-linejoin="round" stroke-miterlimit="10" fill="none"/><path d="M2726.63 1455.74C2726.63 1466.78 2717.67 1475.74 2706.63 1475.74 2695.58 1475.74 2686.63 1466.78 2686.63 1455.74 2686.63 1444.69 2695.58 1435.74 2706.63 1435.74 2717.67 1435.74 2726.63 1444.69 2726.63 1455.74Z" stroke="#FF0000" stroke-width="3.4375" stroke-linejoin="round" stroke-miterlimit="10" fill="none"/><path d="M2868.63 1455.74C2868.63 1466.78 2859.67 1475.74 2848.63 1475.74 2837.58 1475.74 2828.63 1466.78 2828.63 1455.74 2828.63 1444.69 2837.58 1435.74 2848.63 1435.74 2859.67 1435.74 2868.63 1444.69 2868.63 1455.74Z" stroke="#FF0000" stroke-width="3.4375" stroke-linejoin="round" stroke-miterlimit="10" fill="none"/><path d="M3009.63 1455.74C3009.63 1466.78 3000.67 1475.74 2989.63 1475.74 2978.58 1475.74 2969.63 1466.78 2969.63 1455.74 2969.63 1444.69 2978.58 1435.74 2989.63 1435.74 3000.67 1435.74 3009.63 1444.69 3009.63 1455.74Z" stroke="#FF0000" stroke-width="3.4375" stroke-linejoin="round" stroke-miterlimit="10" fill="none"/><path d="M3150.63 1455.74C3150.63 1466.78 3141.67 1475.74 3130.63 1475.74 3119.58 1475.74 3110.63 1466.78 3110.63 1455.74 3110.63 1444.69 3119.58 1435.74 3130.63 1435.74 3141.67 1435.74 3150.63 1444.69 3150.63 1455.74Z" stroke="#FF0000" stroke-width="3.4375" stroke-linejoin="round" stroke-miterlimit="10" fill="none"/><path d="M3291.63 1455.74C3291.63 1466.78 3282.67 1475.74 3271.63 1475.74 3260.58 1475.74 3251.63 1466.78 3251.63 1455.74 3251.63 1444.69 3260.58 1435.74 3271.63 1435.74 3282.67 1435.74 3291.63 1444.69 3291.63 1455.74Z" stroke="#FF0000" stroke-width="3.4375" stroke-linejoin="round" stroke-miterlimit="10" fill="none"/><path d="M3432.63 1455.74C3432.63 1466.78 3423.67 1475.74 3412.63 1475.74 3401.58 1475.74 3392.63 1466.78 3392.63 1455.74 3392.63 1444.69 3401.58 1435.74 3412.63 1435.74 3423.67 1435.74 3432.63 1444.69 3432.63 1455.74Z" stroke="#FF0000" stroke-width="3.4375" stroke-linejoin="round" stroke-miterlimit="10" fill="none"/><path d="M3573.63 1455.74C3573.63 1466.78 3564.67 1475.74 3553.63 1475.74 3542.58 1475.74 3533.63 1466.78 3533.63 1455.74 3533.63 1444.69 3542.58 1435.74 3553.63 1435.74 3564.67 1435.74 3573.63 1444.69 3573.63 1455.74Z" stroke="#FF0000" stroke-width="3.4375" stroke-linejoin="round" stroke-miterlimit="10" fill="none"/><path d="M3715.63 1455.74C3715.63 1466.78 3706.67 1475.74 3695.63 1475.74 3684.58 1475.74 3675.63 1466.78 3675.63 1455.74 3675.63 1444.69 3684.58 1435.74 3695.63 1435.74 3706.67 1435.74 3715.63 1444.69 3715.63 1455.74Z" stroke="#FF0000" stroke-width="3.4375" stroke-linejoin="round" stroke-miterlimit="10" fill="none"/></g><g clip-path="url(#clip11)"><path d="M2354.5 950.5 2425.58 1015.53 2566.58 1067.54 2637.59 1093.54 2707.59 1107.54 2848.59 1134.54 2990.6 1162.54 3131.6 1179.54 3272.61 1193.54 3413.61 1211.54 3554.62 1228.54 3696.5 1246.5" stroke="#006600" stroke-width="3.4375" stroke-linecap="round" stroke-linejoin="round" stroke-miterlimit="10" fill="none"/></g><g clip-path="url(#clip12)"><path d="M2354.63 932.739 2372.63 968.738 2336.63 968.738Z" stroke="#006600" stroke-width="3.4375" stroke-linejoin="round" stroke-miterlimit="10" fill="none"/><path d="M2425.63 997.739 2443.63 1033.74 2407.63 1033.74Z" stroke="#006600" stroke-width="3.4375" stroke-linejoin="round" stroke-miterlimit="10" fill="none"/><path d="M2566.63 1049.74 2584.63 1085.74 2548.63 1085.74Z" stroke="#006600" stroke-width="3.4375" stroke-linejoin="round" stroke-miterlimit="10" fill="none"/><path d="M2637.63 1075.74 2655.63 1111.74 2619.63 1111.74Z" stroke="#006600" stroke-width="3.4375" stroke-linejoin="round" stroke-miterlimit="10" fill="none"/><path d="M2707.63 1089.74 2725.63 1125.74 2689.63 1125.74Z" stroke="#006600" stroke-width="3.4375" stroke-linejoin="round" stroke-miterlimit="10" fill="none"/><path d="M2849.63 1116.74 2867.63 1152.74 2831.63 1152.74Z" stroke="#006600" stroke-width="3.4375" stroke-linejoin="round" stroke-miterlimit="10" fill="none"/><path d="M2990.63 1145.74 3008.63 1181.74 2972.63 1181.74Z" stroke="#006600" stroke-width="3.4375" stroke-linejoin="round" stroke-miterlimit="10" fill="none"/><path d="M3131.63 1161.74 3149.63 1197.74 3113.63 1197.74Z" stroke="#006600" stroke-width="3.4375" stroke-linejoin="round" stroke-miterlimit="10" fill="none"/><path d="M3272.63 1175.74 3290.63 1211.74 3254.63 1211.74Z" stroke="#006600" stroke-width="3.4375" stroke-linejoin="round" stroke-miterlimit="10" fill="none"/><path d="M3413.63 1193.74 3431.63 1229.74 3395.63 1229.74Z" stroke="#006600" stroke-width="3.4375" stroke-linejoin="round" stroke-miterlimit="10" fill="none"/><path d="M3554.63 1210.74 3572.63 1246.74 3536.63 1246.74Z" stroke="#006600" stroke-width="3.4375" stroke-linejoin="round" stroke-miterlimit="10" fill="none"/><path d="M3696.63 1228.74 3714.63 1264.74 3678.63 1264.74Z" stroke="#006600" stroke-width="3.4375" stroke-linejoin="round" stroke-miterlimit="10" fill="none"/></g><text font-family="Times New Roman,Times New Roman_MSFontService,sans-serif" font-weight="400" font-size="73" transform="matrix(1 0 0 1 2178.32 1057)">10<tspan font-size="49" x="73.3333" y="-22">4</tspan><tspan font-size="73" x="-0.916748" y="102">10</tspan><tspan font-size="49" x="72.4165" y="80">3</tspan><tspan font-size="73" x="-0.916748" y="200">10</tspan><tspan font-size="49" x="72.4165" y="178">2</tspan><tspan font-size="73" x="11.4009" y="304">10</tspan><tspan font-size="73" x="29.7341" y="405">1</tspan><tspan font-size="73" x="-8.26733" y="506">10</tspan><tspan font-size="49" x="65.0662" y="484">-</tspan><tspan font-size="49" x="81.1077" y="484">1</tspan><tspan font-size="73" x="0" y="-103">10</tspan><tspan font-size="49" x="73.3333" y="-125">5</tspan></text><rect x="2894.5" y="944.5" width="780" height="156" stroke="#000000" stroke-width="3.4375" stroke-linejoin="round" stroke-miterlimit="10" fill="#FFFFFF"/><text font-family="Times New Roman,Times New Roman_MSFontService,sans-serif" font-weight="700" font-size="101" transform="matrix(1 0 0 1 2940.72 1058)">Bipartite IMDB</text></g></svg>