<svg width="3011" height="979" xmlns="http://www.w3.org/2000/svg" xmlns:xlink="http://www.w3.org/1999/xlink" overflow="hidden"><defs><clipPath id="clip0"><rect x="625" y="732" width="3011" height="979"/></clipPath></defs><g clip-path="url(#clip0)" transform="translate(-625 -732)"><path d="M2590.5 1199.5 3240.5 1199.5" stroke="#000000" stroke-width="3.4375" stroke-linejoin="round" stroke-miterlimit="10" fill="none" fill-rule="evenodd"/><path d="M1831.5 971.5 2221.5 1179.5" stroke="#000000" stroke-width="3.4375" stroke-linejoin="round" stroke-miterlimit="10" fill="none" fill-rule="evenodd"/><path d="M0 0 389 208" stroke="#000000" stroke-width="3.4375" stroke-linejoin="round" stroke-miterlimit="10" fill="none" fill-rule="evenodd" transform="matrix(1 0 0 -1 1832.5 1425.5)"/><path d="M768.523 947.407C770.679 947.407 772.237 947.969 773.195 949.092 774.153 950.215 774.632 951.72 774.632 953.607 774.632 955.044 774.378 956.691 773.869 958.548 773.36 960.405 772.641 962.366 771.712 964.433 770.784 966.499 769.676 968.618 768.388 970.789 767.1 972.96 765.678 975.072 764.121 977.123 762.563 979.175 760.901 981.106 759.134 982.918 757.367 984.73 755.533 986.31 753.631 987.657 751.73 989.005 749.798 990.076 747.836 990.869 745.875 991.663 743.921 992.06 741.974 992.06 741.106 992.06 740.379 991.843 739.795 991.408 739.211 990.974 738.74 990.36 738.38 989.567 738.021 988.773 737.766 987.837 737.617 986.759 737.467 985.681 737.392 984.498 737.392 983.21 737.392 981.503 737.497 979.676 737.707 977.73 737.916 975.783 738.186 973.821 738.515 971.845L740.402 959.402C740.522 958.683 740.619 958.001 740.694 957.358 740.769 956.714 740.806 956.242 740.806 955.943 740.806 955.014 740.656 954.25 740.357 953.652 740.057 953.053 739.548 952.753 738.83 952.753 738.261 952.753 737.647 952.925 736.988 953.27 736.329 953.614 735.663 954.056 734.989 954.595 734.315 955.134 733.664 955.71 733.035 956.324 732.406 956.938 731.822 957.515 731.283 958.054L729.126 955.538C730.055 954.58 731.043 953.629 732.091 952.686 733.139 951.742 734.248 950.889 735.416 950.125 736.583 949.362 737.811 948.748 739.099 948.283 740.387 947.819 741.705 947.587 743.052 947.587 744.19 947.587 745.119 947.774 745.837 948.149 746.556 948.523 747.118 949.017 747.522 949.631 747.926 950.245 748.203 950.919 748.353 951.653 748.503 952.386 748.578 953.112 748.578 953.831 748.578 954.25 748.563 954.655 748.533 955.044 748.503 955.433 748.458 955.793 748.398 956.122L745.882 972.384C745.613 974.091 745.388 975.761 745.208 977.393 745.029 979.025 744.939 980.47 744.939 981.728 744.939 982.986 745.014 984.004 745.164 984.782 745.313 985.561 745.598 985.95 746.017 985.95 747.005 985.95 748.248 985.554 749.746 984.76 751.243 983.966 752.815 982.873 754.462 981.481 756.11 980.088 757.757 978.441 759.404 976.539 761.051 974.638 762.533 972.579 763.851 970.362 765.169 968.146 766.239 965.81 767.063 963.355 767.887 960.899 768.298 958.428 768.298 955.943 768.298 954.864 768.066 954.033 767.602 953.449 767.138 952.865 766.412 952.573 765.423 952.573 764.166 952.573 763.005 953.06 761.942 954.033 760.879 955.007 759.778 956.287 758.64 957.874L756.08 955.583C756.798 954.505 757.644 953.472 758.618 952.484 759.591 951.495 760.624 950.627 761.717 949.878 762.81 949.129 763.941 948.53 765.109 948.081 766.277 947.632 767.415 947.407 768.523 947.407Z" fill-rule="evenodd"/><text fill="#000000" fill-opacity="0" font-family="Arial,Arial_MSFontService,sans-serif" font-size="44.6523" x="729.126" y="986.478">ğ‘£</text><path d="M794.883 967.859 796.879 967.859C796.835 969.059 796.802 970.133 796.781 971.082 796.759 972.031 796.742 972.952 796.732 973.846 796.721 974.74 796.715 975.624 796.715 976.496L796.715 1001.36C796.715 1002.04 796.737 1002.62 796.781 1003.11 796.824 1003.6 796.895 1004.01 796.993 1004.35 797.091 1004.69 797.222 1004.98 797.386 1005.22 797.549 1005.46 797.74 1005.67 797.958 1005.84 798.22 1006.1 798.569 1006.3 799.005 1006.45 799.441 1006.59 799.998 1006.71 800.674 1006.81 801.35 1006.9 802.162 1006.98 803.111 1007.04 804.06 1007.09 805.199 1007.13 806.53 1007.15L806.53 1010 780.587 1010 780.587 1007.15C781.874 1007.11 782.964 1007.06 783.858 1007 784.753 1006.95 785.516 1006.87 786.148 1006.77 786.781 1006.68 787.288 1006.57 787.67 1006.45 788.051 1006.33 788.384 1006.18 788.667 1006 788.973 1005.81 789.234 1005.6 789.453 1005.37 789.671 1005.14 789.845 1004.85 789.976 1004.5 790.107 1004.15 790.21 1003.73 790.287 1003.22 790.363 1002.72 790.401 1002.1 790.401 1001.36L790.401 977.903C790.401 977.052 790.238 976.452 789.911 976.104 789.583 975.755 789.114 975.58 788.504 975.58 787.828 975.58 786.824 975.929 785.494 976.627 784.164 977.325 782.441 978.361 780.325 979.735 780.042 979.233 779.78 978.732 779.54 978.23 779.3 977.728 779.049 977.216 778.787 976.692 781.492 975.209 784.169 973.732 786.819 972.26 789.469 970.787 792.157 969.321 794.883 967.859Z" fill-rule="evenodd"/><text fill="#000000" fill-opacity="0" font-family="Arial,Arial_MSFontService,sans-serif" font-size="42.1367" x="778.787" y="1004.73">1</text><path d="M763.684 1398.25C765.841 1398.25 767.398 1398.81 768.356 1399.93 769.315 1401.05 769.794 1402.56 769.794 1404.45 769.794 1405.88 769.539 1407.53 769.03 1409.39 768.521 1411.24 767.802 1413.21 766.874 1415.27 765.945 1417.34 764.837 1419.46 763.55 1421.63 762.262 1423.8 760.839 1425.91 759.282 1427.96 757.725 1430.01 756.063 1431.95 754.296 1433.76 752.529 1435.57 750.695 1437.15 748.793 1438.5 746.891 1439.84 744.96 1440.91 742.998 1441.71 741.036 1442.5 739.082 1442.9 737.136 1442.9 736.267 1442.9 735.541 1442.68 734.957 1442.25 734.373 1441.81 733.901 1441.2 733.542 1440.41 733.182 1439.61 732.928 1438.68 732.778 1437.6 732.628 1436.52 732.554 1435.34 732.554 1434.05 732.554 1432.34 732.658 1430.52 732.868 1428.57 733.078 1426.62 733.347 1424.66 733.677 1422.68L735.563 1410.24C735.683 1409.52 735.78 1408.84 735.855 1408.2 735.93 1407.55 735.968 1407.08 735.968 1406.78 735.968 1405.85 735.818 1405.09 735.518 1404.49 735.219 1403.89 734.71 1403.59 733.991 1403.59 733.422 1403.59 732.808 1403.76 732.149 1404.11 731.49 1404.45 730.824 1404.89 730.15 1405.43 729.476 1405.97 728.825 1406.55 728.196 1407.16 727.567 1407.78 726.983 1408.35 726.444 1408.89L724.288 1406.38C725.216 1405.42 726.205 1404.47 727.253 1403.52 728.301 1402.58 729.409 1401.73 730.577 1400.96 731.745 1400.2 732.973 1399.59 734.261 1399.12 735.548 1398.66 736.866 1398.43 738.214 1398.43 739.352 1398.43 740.28 1398.61 740.999 1398.99 741.718 1399.36 742.279 1399.86 742.683 1400.47 743.088 1401.08 743.365 1401.76 743.515 1402.49 743.664 1403.23 743.739 1403.95 743.739 1404.67 743.739 1405.09 743.724 1405.49 743.694 1405.88 743.664 1406.27 743.619 1406.63 743.559 1406.96L741.044 1423.22C740.774 1424.93 740.55 1426.6 740.37 1428.23 740.19 1429.86 740.1 1431.31 740.1 1432.57 740.1 1433.82 740.175 1434.84 740.325 1435.62 740.475 1436.4 740.759 1436.79 741.179 1436.79 742.167 1436.79 743.41 1436.39 744.907 1435.6 746.404 1434.81 747.977 1433.71 749.624 1432.32 751.271 1430.93 752.918 1429.28 754.565 1427.38 756.212 1425.48 757.695 1423.42 759.013 1421.2 760.33 1418.99 761.401 1416.65 762.224 1414.19 763.048 1411.74 763.46 1409.27 763.46 1406.78 763.46 1405.7 763.228 1404.87 762.764 1404.29 762.299 1403.7 761.573 1403.41 760.585 1403.41 759.327 1403.41 758.167 1403.9 757.103 1404.87 756.04 1405.85 754.94 1407.13 753.802 1408.71L751.241 1406.42C751.96 1405.34 752.806 1404.31 753.779 1403.32 754.753 1402.33 755.786 1401.47 756.879 1400.72 757.972 1399.97 759.102 1399.37 760.27 1398.92 761.438 1398.47 762.576 1398.25 763.684 1398.25Z" fill-rule="evenodd"/><text fill="#000000" fill-opacity="0" font-family="Arial,Arial_MSFontService,sans-serif" font-size="44.6523" x="724.288" y="1437.32">ğ‘£</text><path d="M777.533 1427.43C779.147 1427.43 780.395 1427.96 781.279 1429.02 782.162 1430.08 782.604 1431.47 782.604 1433.19 782.604 1433.63 782.566 1434.09 782.489 1434.57 782.413 1435.04 782.277 1435.5 782.08 1435.94L782.538 1436.1C784.654 1433.2 786.742 1431.03 788.803 1429.59 790.864 1428.15 792.996 1427.43 795.199 1427.43 797.511 1427.43 799.239 1428.05 800.384 1429.3 801.529 1430.54 802.102 1432.29 802.102 1434.53 802.102 1435.21 802.004 1436.15 801.807 1437.35 801.611 1438.55 801.36 1439.85 801.055 1441.27 800.75 1442.69 800.422 1444.15 800.073 1445.64 799.724 1447.13 799.397 1448.51 799.092 1449.78 798.787 1451.04 798.536 1452.12 798.34 1453.02 798.143 1453.91 798.045 1454.47 798.045 1454.68 798.045 1455.51 798.198 1456.11 798.503 1456.48 798.808 1456.85 799.299 1457.04 799.975 1457.04 800.39 1457.04 800.799 1456.96 801.202 1456.81 801.606 1456.66 802.025 1456.42 802.462 1456.09 802.898 1455.76 803.378 1455.34 803.901 1454.83 804.424 1454.32 805.013 1453.7 805.668 1452.98L807.925 1455.14C806.856 1456.23 805.875 1457.17 804.981 1457.96 804.086 1458.74 803.219 1459.39 802.38 1459.9 801.54 1460.42 800.706 1460.8 799.877 1461.05 799.048 1461.3 798.165 1461.42 797.227 1461.42 796.442 1461.42 795.717 1461.27 795.052 1460.97 794.386 1460.66 793.814 1460.24 793.334 1459.71 792.854 1459.17 792.484 1458.54 792.222 1457.81 791.96 1457.08 791.829 1456.28 791.829 1455.4 791.829 1454.53 791.922 1453.51 792.107 1452.35 792.293 1451.18 792.571 1449.9 792.942 1448.5 793.334 1447.08 793.699 1445.73 794.038 1444.43 794.376 1443.13 794.67 1441.93 794.921 1440.83 795.172 1439.73 795.368 1438.75 795.51 1437.89 795.651 1437.02 795.722 1436.31 795.722 1435.74 795.722 1434.39 795.466 1433.4 794.954 1432.77 794.441 1432.13 793.618 1431.82 792.484 1431.82 791.829 1431.82 791.126 1431.99 790.373 1432.32 789.621 1432.66 788.863 1433.13 788.1 1433.73 787.336 1434.33 786.589 1435.04 785.859 1435.86 785.128 1436.68 784.458 1437.55 783.847 1438.47 783.236 1439.4 782.696 1440.37 782.227 1441.39 781.759 1442.4 781.415 1443.41 781.197 1444.41L777.533 1460.84 771.121 1460.84 776.028 1439.51C776.312 1438.37 776.519 1437.36 776.65 1436.46 776.78 1435.57 776.846 1434.84 776.846 1434.27 776.846 1432.68 776.203 1431.88 774.916 1431.88 774.523 1431.88 774.125 1431.96 773.722 1432.13 773.318 1432.29 772.893 1432.54 772.446 1432.86 771.999 1433.19 771.513 1433.61 770.99 1434.11 770.466 1434.61 769.878 1435.2 769.223 1435.87L766.966 1433.75C768.057 1432.63 769.054 1431.68 769.959 1430.88 770.865 1430.09 771.726 1429.43 772.544 1428.92 773.362 1428.41 774.174 1428.03 774.981 1427.79 775.788 1427.55 776.639 1427.43 777.533 1427.43Z" fill-rule="evenodd"/><text fill="#000000" fill-opacity="0" font-family="Arial,Arial_MSFontService,sans-serif" font-size="33.9907" x="766.966" y="1457.18">ğ‘›</text><path d="M1400.5 970.5 1608.5 970.5" stroke="#000000" stroke-width="3.4375" stroke-linejoin="round" stroke-miterlimit="10" fill="none" fill-rule="evenodd"/><path d="M1399.5 1433.5 1607.5 1433.5" stroke="#000000" stroke-width="3.4375" stroke-linejoin="round" stroke-miterlimit="10" fill="none" fill-rule="evenodd"/><text font-family="Times New Roman,Times New Roman_MSFontService,sans-serif" font-weight="400" font-size="92" transform="matrix(1 0 0 1 680.732 852)">User</text><rect x="2221.5" y="1101.5" width="370" height="195" stroke="#000000" stroke-width="3.4375" stroke-miterlimit="8" fill="#FFFFFF"/><text font-family="Times New Roman,Times New Roman_MSFontService,sans-serif" font-weight="400" font-size="92" transform="matrix(1 0 0 1 2256.36 1231)">Shuffler</text><path d="M1.01519e-06-1.71875 569.75-1.71841 569.75 1.71909-1.01519e-06 1.71875ZM565.167-22.9163 611 0.000360892 565.167 22.917Z" transform="matrix(1 0 0 -1 2610.5 1164.5)"/><rect x="3238.5" y="1090.5" width="362" height="208" stroke="#000000" stroke-width="3.4375" stroke-miterlimit="8" fill="#FFFFFF"/><text font-family="Times New Roman,Times New Roman_MSFontService,sans-serif" font-weight="400" font-size="92" transform="matrix(1 0 0 1 3334.64 1169)">Data <tspan font-size="92" x="-73.3335" y="110">collector</tspan></text><path d="M966.928 973.7C962.286 973.82 958.849 974.689 956.618 976.306 954.387 977.923 953.272 980.289 953.272 983.404 953.272 985.26 953.781 986.675 954.799 987.649 955.817 988.622 957.225 989.109 959.022 989.109 960.399 989.109 961.702 988.742 962.93 988.008 964.158 987.274 965.131 986.294 965.85 985.066 966.568 983.838 966.928 982.535 966.928 981.157ZM964.682 949.622C968.305 949.622 971.203 950.102 973.374 951.06 975.545 952.018 977.17 953.575 978.248 955.732 979.326 957.888 979.865 960.868 979.865 964.671L979.865 982.191C979.865 984.736 979.94 986.541 980.09 987.604 980.24 988.667 980.472 989.438 980.786 989.917 981.101 990.396 981.505 990.771 981.999 991.04 982.493 991.31 983.399 991.609 984.717 991.939L984.717 994.904 968.006 994.904 968.41 989.019 967.736 988.794C965.281 991.19 962.892 992.927 960.571 994.005 958.25 995.083 955.787 995.622 953.182 995.622 949.348 995.622 946.309 994.612 944.063 992.59 941.816 990.569 940.693 987.866 940.693 984.482 940.693 980.079 942.857 976.613 947.185 974.082 951.512 971.552 958.078 969.957 966.883 969.298L966.883 965.031C966.883 962.245 966.568 960.097 965.94 958.584 965.311 957.072 964.502 956.009 963.514 955.395 962.525 954.781 961.343 954.474 959.965 954.474 958.587 954.474 957.397 954.713 956.394 955.193 955.39 955.672 954.484 956.578 953.676 957.91 952.867 959.243 952.268 961.092 951.879 963.458L943.389 963.458 943.389 955.282C946.833 953.755 949.745 952.61 952.126 951.846 954.507 951.082 956.723 950.521 958.774 950.161 960.826 949.802 962.795 949.622 964.682 949.622Z" fill-rule="evenodd"/><text fill="#000000" fill-opacity="0" font-family="Arial,Arial_MSFontService,sans-serif" font-size="46" x="940.693" y="989.872">ğš</text><path d="M1004.72 975.681 1005.7 975.681 1005.7 1009.78C1005.7 1012.05 1005.8 1013.46 1005.98 1014.01 1006.17 1014.57 1006.57 1015 1007.16 1015.3 1007.76 1015.59 1008.97 1015.76 1010.79 1015.8L1010.79 1016.9 995.604 1016.9 995.604 1015.8C997.51 1015.76 998.742 1015.6 999.298 1015.31 999.854 1015.02 1000.24 1014.63 1000.46 1014.15 1000.68 1013.66 1000.79 1012.21 1000.79 1009.78L1000.79 987.982C1000.79 985.043 1000.69 983.157 1000.49 982.323 1000.35 981.688 1000.1 981.221 999.729 980.923 999.362 980.625 998.92 980.476 998.404 980.476 997.669 980.476 996.647 980.784 995.336 981.4L994.889 980.476Z" fill-rule="evenodd"/><text fill="#000000" fill-opacity="0" font-family="Arial,Arial_MSFontService,sans-serif" font-size="41.2227" x="994.889" y="1011.75">1</text><path d="M1075.86 941.986 1094.28 941.986 1094.28 948.23 1075.82 948.23C1072.85 948.23 1070.45 948.394 1068.61 948.724 1066.77 949.053 1065.23 949.585 1064.01 950.319 1062.78 951.052 1061.66 952.093 1060.66 953.441 1059.66 954.788 1058.87 956.443 1058.3 958.405 1057.73 960.366 1057.37 962.59 1057.22 965.075L1094.28 965.075 1094.28 971.32 1057.18 971.32C1057.33 974.105 1057.73 976.575 1058.39 978.732 1059.05 980.888 1060.04 982.722 1061.38 984.235 1062.71 985.747 1064.43 986.863 1066.54 987.581 1068.65 988.3 1071.57 988.659 1075.28 988.659L1094.28 988.659 1094.28 994.904 1075.1 994.904C1072.17 994.904 1069.62 994.724 1067.46 994.365 1065.31 994.005 1063.36 993.421 1061.62 992.613 1059.89 991.804 1058.25 990.584 1056.71 988.951 1055.16 987.319 1053.91 985.515 1052.95 983.538 1052 981.562 1051.28 979.331 1050.8 976.845 1050.32 974.359 1050.08 971.664 1050.08 968.759 1050.08 964.027 1050.54 960.112 1051.47 957.012 1052.4 953.912 1053.96 951.157 1056.14 948.746 1058.33 946.336 1060.95 944.606 1064.01 943.558 1067.06 942.51 1071.01 941.986 1075.86 941.986Z" fill-rule="evenodd"/><text fill="#000000" fill-opacity="0" font-family="Arial,Arial_MSFontService,sans-serif" font-size="52.918" x="1050.08" y="988.289">âˆˆ</text><path d="M1158.08 929.812 1159.25 929.812 1159.25 933.226 1158.57 933.226C1154.23 933.226 1150.83 934.356 1148.37 936.617 1145.92 938.878 1144.69 942.6 1144.69 947.781 1144.69 949.877 1144.99 952.467 1145.59 955.552 1146.19 958.637 1146.49 960.838 1146.49 962.156 1146.49 964.701 1145.74 966.79 1144.24 968.422 1142.74 970.054 1140.96 971.26 1138.9 972.038L1138.9 972.847C1140.96 973.626 1142.74 974.831 1144.24 976.463 1145.74 978.095 1146.49 980.184 1146.49 982.73 1146.49 984.047 1146.19 986.249 1145.59 989.333 1144.99 992.418 1144.69 995.008 1144.69 997.105 1144.69 1002.56 1145.92 1006.41 1148.37 1008.67 1150.83 1010.93 1154.23 1012.06 1158.57 1012.06L1159.25 1012.06 1159.25 1015.48 1158.08 1015.48C1151.04 1015.36 1145.78 1013.75 1142.29 1010.65 1138.8 1007.55 1137.05 1002.76 1137.05 996.296 1137.05 993.81 1137.41 990.98 1138.11 987.806 1138.81 984.631 1139.17 982.505 1139.17 981.427 1139.17 979.361 1138.45 977.676 1137.03 976.373 1135.61 975.071 1133.46 974.374 1130.59 974.284L1130.59 970.601C1133.46 970.511 1135.61 969.815 1137.03 968.512 1138.45 967.209 1139.17 965.525 1139.17 963.458 1139.17 962.38 1138.81 960.254 1138.11 957.079 1137.41 953.905 1137.05 951.075 1137.05 948.589 1137.05 942.39 1138.8 937.74 1142.29 934.641 1145.78 931.541 1151.04 929.932 1158.08 929.812Z" fill-rule="evenodd"/><text fill="#000000" fill-opacity="0" font-family="Arial,Arial_MSFontService,sans-serif" font-size="85.666" x="1130.59" y="1004.77">{</text><path d="M1187.31 936.685C1185.24 936.685 1183.51 937.299 1182.12 938.527 1180.73 939.754 1179.61 941.521 1178.75 943.827 1177.9 946.133 1177.29 948.941 1176.93 952.25 1176.57 955.56 1176.39 959.295 1176.39 963.458 1176.39 973.221 1177.3 980.386 1179.11 984.953 1180.92 989.52 1183.73 991.804 1187.53 991.804 1191.16 991.804 1193.85 989.655 1195.6 985.358 1197.35 981.06 1198.23 974.404 1198.23 965.39 1198.23 958.502 1197.78 952.924 1196.88 948.656 1195.98 944.389 1194.73 941.327 1193.13 939.47 1191.52 937.613 1189.59 936.685 1187.31 936.685ZM1187.53 932.866C1194.09 932.866 1198.97 935.397 1202.18 940.458 1205.38 945.519 1206.99 953.171 1206.99 963.413 1206.99 974.015 1205.27 982.033 1201.84 987.469 1198.41 992.905 1193.4 995.622 1186.82 995.622 1180.35 995.622 1175.53 993.077 1172.37 987.986 1169.21 982.894 1167.63 975.168 1167.63 964.806 1167.63 959.295 1168.12 954.534 1169.09 950.521 1170.07 946.508 1171.43 943.191 1173.18 940.571 1174.93 937.95 1177.04 936.011 1179.49 934.753 1181.95 933.495 1184.63 932.866 1187.53 932.866Z" fill-rule="evenodd"/><text fill="#000000" fill-opacity="0" font-family="Arial,Arial_MSFontService,sans-serif" font-size="62.7559" x="1167.63" y="987.778">0</text><path d="M1218.85 984.482 1226.71 984.482C1227.13 986.578 1227.34 988.644 1227.34 990.681 1227.34 992.777 1226.98 994.694 1226.26 996.431 1225.54 998.168 1224.4 999.897 1222.82 1001.62 1221.25 1003.34 1219.09 1005.24 1216.33 1007.3L1213.91 1004.56C1215.43 1003.12 1216.54 1001.83 1217.23 1000.68 1217.92 999.523 1218.41 998.213 1218.71 996.745 1219.01 995.278 1219.16 993.436 1219.16 991.22 1219.16 988.944 1219.06 986.698 1218.85 984.482Z" fill-rule="evenodd"/><text fill="#000000" fill-opacity="0" font-family="Arial,Arial_MSFontService,sans-serif" font-size="22.8203" x="1213.91" y="1004.45">,</text><path d="M1260.75 932.866 1263.22 932.866C1263.05 935.741 1262.96 939.725 1262.96 944.816L1262.96 983.179C1262.96 984.916 1263.05 986.226 1263.25 987.11 1263.44 987.993 1263.79 988.712 1264.28 989.266 1264.77 989.82 1265.49 990.254 1266.41 990.569 1267.34 990.883 1268.51 991.123 1269.92 991.287 1271.33 991.452 1273.18 991.564 1275.49 991.624L1275.49 994.904 1242.29 994.904 1242.29 991.624C1245.62 991.475 1247.99 991.272 1249.41 991.018 1250.83 990.763 1251.92 990.381 1252.67 989.872 1253.42 989.363 1253.96 988.644 1254.31 987.716 1254.65 986.788 1254.82 985.275 1254.82 983.179L1254.82 946.747C1254.82 945.549 1254.61 944.673 1254.2 944.119 1253.78 943.565 1253.16 943.288 1252.35 943.288 1251.4 943.288 1250.03 943.782 1248.27 944.771 1246.5 945.759 1244.31 947.122 1241.71 948.859L1239.73 945.4Z" fill-rule="evenodd"/><text fill="#000000" fill-opacity="0" font-family="Arial,Arial_MSFontService,sans-serif" font-size="62.0371" x="1239.73" y="987.149">1</text><path d="M1285.42 929.812 1286.59 929.812C1293.63 929.932 1298.89 931.541 1302.38 934.641 1305.87 937.74 1307.61 942.405 1307.61 948.634 1307.61 951.12 1307.26 953.95 1306.56 957.124 1305.85 960.299 1305.5 962.425 1305.5 963.503 1305.5 965.57 1306.21 967.254 1307.63 968.557 1309.06 969.86 1311.2 970.556 1314.08 970.646L1314.08 974.329C1311.2 974.419 1309.06 975.115 1307.63 976.418 1306.21 977.721 1305.5 979.406 1305.5 981.472 1305.5 982.55 1305.85 984.676 1306.56 987.851 1307.26 991.025 1307.61 993.855 1307.61 996.341 1307.61 1002.78 1305.87 1007.55 1302.38 1010.65 1298.89 1013.75 1293.63 1015.36 1286.59 1015.48L1285.42 1015.48 1285.42 1012.06 1286.09 1012.06C1290.44 1012.06 1293.83 1010.93 1296.29 1008.67 1298.75 1006.41 1299.97 1002.57 1299.97 997.15 1299.97 995.053 1299.67 992.463 1299.08 989.378 1298.48 986.294 1298.18 984.092 1298.18 982.775 1298.18 980.229 1298.93 978.14 1300.42 976.508 1301.92 974.876 1303.7 973.67 1305.77 972.892L1305.77 972.083C1303.7 971.305 1301.92 970.099 1300.42 968.467 1298.93 966.835 1298.18 964.746 1298.18 962.2 1298.18 960.883 1298.48 958.682 1299.08 955.597 1299.67 952.512 1299.97 949.922 1299.97 947.825 1299.97 942.615 1298.75 938.878 1296.29 936.617 1293.83 934.356 1290.44 933.226 1286.09 933.226L1285.42 933.226Z" fill-rule="evenodd"/><text fill="#000000" fill-opacity="0" font-family="Arial,Arial_MSFontService,sans-serif" font-size="85.666" x="1285.42" y="1004.77">}</text><path d="M1330.15 927.929C1331.77 927.929 1333.02 928.458 1333.9 929.515 1334.78 930.573 1335.22 931.964 1335.22 933.687 1335.22 934.123 1335.19 934.581 1335.11 935.061 1335.03 935.54 1334.9 935.998 1334.7 936.435L1335.16 936.598C1337.27 933.698 1339.36 931.527 1341.42 930.088 1343.48 928.648 1345.62 927.929 1347.82 927.929 1350.13 927.929 1351.86 928.55 1353 929.794 1354.15 931.037 1354.72 932.781 1354.72 935.028 1354.72 935.704 1354.62 936.642 1354.43 937.841 1354.23 939.041 1353.98 940.349 1353.68 941.767 1353.37 943.185 1353.04 944.641 1352.69 946.135 1352.34 947.629 1352.02 949.008 1351.71 950.273 1351.41 951.538 1351.16 952.618 1350.96 953.512 1350.76 954.406 1350.67 954.962 1350.67 955.18 1350.67 956.009 1350.82 956.609 1351.12 956.98 1351.43 957.35 1351.92 957.536 1352.6 957.536 1353.01 957.536 1353.42 957.459 1353.82 957.307 1354.23 957.154 1354.65 956.914 1355.08 956.587 1355.52 956.26 1356 955.84 1356.52 955.327 1357.04 954.815 1357.63 954.199 1358.29 953.479L1360.55 955.638C1359.48 956.729 1358.5 957.667 1357.6 958.452 1356.71 959.237 1355.84 959.886 1355 960.398 1354.16 960.911 1353.33 961.292 1352.5 961.543 1351.67 961.794 1350.79 961.919 1349.85 961.919 1349.06 961.919 1348.34 961.767 1347.67 961.461 1347.01 961.156 1346.43 960.736 1345.95 960.202 1345.47 959.668 1345.1 959.035 1344.84 958.305 1344.58 957.574 1344.45 956.772 1344.45 955.9 1344.45 955.028 1344.54 954.008 1344.73 952.841 1344.91 951.674 1345.19 950.393 1345.56 948.997 1345.95 947.579 1346.32 946.222 1346.66 944.924 1347 943.626 1347.29 942.427 1347.54 941.326 1347.79 940.224 1347.99 939.243 1348.13 938.381 1348.27 937.52 1348.34 936.805 1348.34 936.238 1348.34 934.886 1348.09 933.894 1347.57 933.261 1347.06 932.629 1346.24 932.313 1345.1 932.313 1344.45 932.313 1343.75 932.482 1342.99 932.82 1342.24 933.158 1341.48 933.627 1340.72 934.226 1339.96 934.826 1339.21 935.535 1338.48 936.353 1337.75 937.171 1337.08 938.043 1336.47 938.97 1335.86 939.897 1335.32 940.867 1334.85 941.882 1334.38 942.896 1334.04 943.905 1333.82 944.908L1330.15 961.331 1323.74 961.331 1328.65 940.001C1328.93 938.866 1329.14 937.852 1329.27 936.958 1329.4 936.064 1329.47 935.333 1329.47 934.766 1329.47 933.174 1328.82 932.378 1327.54 932.378 1327.14 932.378 1326.75 932.46 1326.34 932.623 1325.94 932.787 1325.51 933.032 1325.07 933.359 1324.62 933.687 1324.13 934.101 1323.61 934.603 1323.09 935.104 1322.5 935.693 1321.84 936.369L1319.59 934.243C1320.68 933.13 1321.67 932.176 1322.58 931.38 1323.48 930.584 1324.35 929.93 1325.16 929.417 1325.98 928.905 1326.79 928.529 1327.6 928.289 1328.41 928.049 1329.26 927.929 1330.15 927.929Z" fill-rule="evenodd"/><text fill="#000000" fill-opacity="0" font-family="Arial,Arial_MSFontService,sans-serif" font-size="33.9907" x="1319.59" y="957.671">ğ‘›</text><path d="M968.263 1434.54C963.621 1434.66 960.184 1435.53 957.953 1437.15 955.722 1438.77 954.607 1441.13 954.607 1444.25 954.607 1446.1 955.116 1447.52 956.134 1448.49 957.152 1449.46 958.56 1449.95 960.357 1449.95 961.734 1449.95 963.037 1449.58 964.265 1448.85 965.493 1448.12 966.466 1447.14 967.185 1445.91 967.903 1444.68 968.263 1443.38 968.263 1442ZM966.017 1410.47C969.64 1410.47 972.538 1410.94 974.709 1411.9 976.88 1412.86 978.505 1414.42 979.583 1416.57 980.661 1418.73 981.2 1421.71 981.2 1425.51L981.2 1443.03C981.2 1445.58 981.275 1447.38 981.425 1448.45 981.575 1449.51 981.807 1450.28 982.121 1450.76 982.436 1451.24 982.84 1451.61 983.334 1451.88 983.828 1452.15 984.734 1452.45 986.052 1452.78L986.052 1455.75 969.341 1455.75 969.745 1449.86 969.071 1449.64C966.616 1452.03 964.227 1453.77 961.906 1454.85 959.585 1455.93 957.122 1456.47 954.517 1456.47 950.683 1456.47 947.644 1455.45 945.398 1453.43 943.151 1451.41 942.028 1448.71 942.028 1445.32 942.028 1440.92 944.192 1437.46 948.52 1434.93 952.847 1432.39 959.413 1430.8 968.218 1430.14L968.218 1425.87C968.218 1423.09 967.903 1420.94 967.274 1419.43 966.646 1417.91 965.837 1416.85 964.849 1416.24 963.86 1415.62 962.677 1415.32 961.3 1415.32 959.922 1415.32 958.732 1415.56 957.729 1416.04 956.725 1416.51 955.819 1417.42 955.011 1418.75 954.202 1420.09 953.603 1421.94 953.214 1424.3L944.724 1424.3 944.724 1416.13C948.168 1414.6 951.08 1413.45 953.461 1412.69 955.842 1411.93 958.058 1411.36 960.109 1411 962.161 1410.65 964.13 1410.47 966.017 1410.47Z" fill-rule="evenodd"/><text fill="#000000" fill-opacity="0" font-family="Arial,Arial_MSFontService,sans-serif" font-size="46" x="942.028" y="1450.72">ğš</text><path d="M1002.54 1450.79 998.577 1464.34C1002.29 1458.8 1005.14 1455.16 1007.11 1453.41 1009.09 1451.66 1010.99 1450.79 1012.81 1450.79 1013.81 1450.79 1014.63 1451.12 1015.27 1451.77 1015.92 1452.43 1016.24 1453.28 1016.24 1454.34 1016.24 1455.53 1015.95 1457.12 1015.38 1459.1L1011.74 1471.64C1011.33 1473.09 1011.12 1473.97 1011.12 1474.29 1011.12 1474.57 1011.2 1474.8 1011.36 1474.99 1011.51 1475.18 1011.68 1475.27 1011.86 1475.27 1012.1 1475.27 1012.39 1475.15 1012.73 1474.89 1013.78 1474.05 1014.93 1472.78 1016.18 1471.07L1017.1 1471.64C1015.26 1474.28 1013.51 1476.17 1011.86 1477.3 1010.71 1478.07 1009.68 1478.46 1008.76 1478.46 1008.03 1478.46 1007.44 1478.24 1007.01 1477.79 1006.57 1477.34 1006.35 1476.74 1006.35 1475.99 1006.35 1475.04 1006.69 1473.4 1007.36 1471.07L1010.82 1459.1C1011.26 1457.61 1011.47 1456.45 1011.47 1455.62 1011.47 1455.22 1011.35 1454.9 1011.09 1454.65 1010.83 1454.4 1010.51 1454.28 1010.13 1454.28 1009.58 1454.28 1008.91 1454.51 1008.14 1454.99 1006.67 1455.88 1005.14 1457.36 1003.55 1459.41 1001.96 1461.47 1000.29 1464.1 998.518 1467.29 997.584 1468.98 996.81 1470.83 996.195 1472.83L994.705 1477.75 990.237 1477.75 995.658 1459.1C996.294 1456.86 996.612 1455.51 996.612 1455.05 996.612 1454.61 996.438 1454.23 996.09 1453.9 995.743 1453.58 995.311 1453.41 994.795 1453.41 994.556 1453.41 994.139 1453.45 993.544 1453.53L992.412 1453.71 992.233 1452.64Z" fill-rule="evenodd"/><text fill="#000000" fill-opacity="0" font-family="Arial,Arial_MSFontService,sans-serif" font-size="27.6704" x="990.237" y="1475">n</text><path d="M1077.2 1402.83 1095.62 1402.83 1095.62 1409.07 1077.15 1409.07C1074.19 1409.07 1071.79 1409.24 1069.94 1409.57 1068.1 1409.9 1066.57 1410.43 1065.34 1411.16 1064.11 1411.9 1063 1412.94 1061.99 1414.28 1060.99 1415.63 1060.2 1417.29 1059.64 1419.25 1059.07 1421.21 1058.71 1423.43 1058.56 1425.92L1095.62 1425.92 1095.62 1432.16 1058.51 1432.16C1058.66 1434.95 1059.07 1437.42 1059.73 1439.57 1060.38 1441.73 1061.38 1443.57 1062.71 1445.08 1064.05 1446.59 1065.77 1447.71 1067.88 1448.42 1069.99 1449.14 1072.9 1449.5 1076.62 1449.5L1095.62 1449.5 1095.62 1455.75 1076.44 1455.75C1073.5 1455.75 1070.96 1455.57 1068.8 1455.21 1066.64 1454.85 1064.7 1454.26 1062.96 1453.46 1061.22 1452.65 1059.58 1451.43 1058.04 1449.79 1056.5 1448.16 1055.25 1446.36 1054.29 1444.38 1053.33 1442.4 1052.61 1440.17 1052.13 1437.69 1051.65 1435.2 1051.41 1432.51 1051.41 1429.6 1051.41 1424.87 1051.88 1420.95 1052.81 1417.85 1053.74 1414.76 1055.29 1412 1057.48 1409.59 1059.67 1407.18 1062.29 1405.45 1065.34 1404.4 1068.4 1403.35 1072.35 1402.83 1077.2 1402.83Z" fill-rule="evenodd"/><text fill="#000000" fill-opacity="0" font-family="Arial,Arial_MSFontService,sans-serif" font-size="52.918" x="1051.41" y="1449.13">âˆˆ</text><path d="M1159.41 1390.65 1160.58 1390.65 1160.58 1394.07 1159.91 1394.07C1155.56 1394.07 1152.17 1395.2 1149.71 1397.46 1147.25 1399.72 1146.03 1403.44 1146.03 1408.62 1146.03 1410.72 1146.33 1413.31 1146.92 1416.4 1147.52 1419.48 1147.82 1421.68 1147.82 1423 1147.82 1425.54 1147.07 1427.63 1145.58 1429.27 1144.08 1430.9 1142.3 1432.1 1140.23 1432.88L1140.23 1433.69C1142.3 1434.47 1144.08 1435.67 1145.58 1437.31 1147.07 1438.94 1147.82 1441.03 1147.82 1443.57 1147.82 1444.89 1147.52 1447.09 1146.92 1450.18 1146.33 1453.26 1146.03 1455.85 1146.03 1457.95 1146.03 1463.4 1147.25 1467.25 1149.71 1469.52 1152.17 1471.78 1155.56 1472.91 1159.91 1472.91L1160.58 1472.91 1160.58 1476.32 1159.41 1476.32C1152.38 1476.2 1147.11 1474.59 1143.62 1471.49 1140.13 1468.39 1138.39 1463.61 1138.39 1457.14 1138.39 1454.65 1138.74 1451.82 1139.44 1448.65 1140.15 1445.47 1140.5 1443.35 1140.5 1442.27 1140.5 1440.2 1139.79 1438.52 1138.37 1437.22 1136.94 1435.91 1134.8 1435.22 1131.92 1435.13L1131.92 1431.44C1134.8 1431.35 1136.94 1430.66 1138.37 1429.35 1139.79 1428.05 1140.5 1426.37 1140.5 1424.3 1140.5 1423.22 1140.15 1421.1 1139.44 1417.92 1138.74 1414.75 1138.39 1411.92 1138.39 1409.43 1138.39 1403.23 1140.13 1398.58 1143.62 1395.48 1147.11 1392.38 1152.38 1390.77 1159.41 1390.65Z" fill-rule="evenodd"/><text fill="#000000" fill-opacity="0" font-family="Arial,Arial_MSFontService,sans-serif" font-size="85.666" x="1131.92" y="1465.61">{</text><path d="M1188.64 1397.53C1186.58 1397.53 1184.85 1398.14 1183.46 1399.37 1182.06 1400.6 1180.94 1402.36 1180.09 1404.67 1179.23 1406.98 1178.63 1409.78 1178.27 1413.09 1177.91 1416.4 1177.73 1420.14 1177.73 1424.3 1177.73 1434.06 1178.63 1441.23 1180.45 1445.8 1182.26 1450.36 1185.07 1452.65 1188.87 1452.65 1192.49 1452.65 1195.18 1450.5 1196.93 1446.2 1198.68 1441.9 1199.56 1435.25 1199.56 1426.23 1199.56 1419.34 1199.11 1413.77 1198.21 1409.5 1197.31 1405.23 1196.06 1402.17 1194.46 1400.31 1192.86 1398.46 1190.92 1397.53 1188.64 1397.53ZM1188.87 1393.71C1195.43 1393.71 1200.31 1396.24 1203.51 1401.3 1206.72 1406.36 1208.32 1414.01 1208.32 1424.26 1208.32 1434.86 1206.61 1442.88 1203.18 1448.31 1199.75 1453.75 1194.74 1456.47 1188.15 1456.47 1181.68 1456.47 1176.87 1453.92 1173.71 1448.83 1170.55 1443.74 1168.97 1436.01 1168.97 1425.65 1168.97 1420.14 1169.46 1415.38 1170.43 1411.36 1171.4 1407.35 1172.76 1404.03 1174.52 1401.41 1176.27 1398.79 1178.37 1396.85 1180.83 1395.6 1183.28 1394.34 1185.96 1393.71 1188.87 1393.71Z" fill-rule="evenodd"/><text fill="#000000" fill-opacity="0" font-family="Arial,Arial_MSFontService,sans-serif" font-size="62.7559" x="1168.97" y="1448.62">0</text><path d="M1220.18 1445.32 1228.04 1445.32C1228.46 1447.42 1228.67 1449.49 1228.67 1451.52 1228.67 1453.62 1228.31 1455.54 1227.59 1457.27 1226.88 1459.01 1225.73 1460.74 1224.16 1462.46 1222.59 1464.18 1220.42 1466.08 1217.67 1468.15L1215.24 1465.4C1216.77 1463.97 1217.88 1462.67 1218.57 1461.52 1219.25 1460.37 1219.75 1459.06 1220.05 1457.59 1220.35 1456.12 1220.5 1454.28 1220.5 1452.06 1220.5 1449.79 1220.39 1447.54 1220.18 1445.32Z" fill-rule="evenodd"/><text fill="#000000" fill-opacity="0" font-family="Arial,Arial_MSFontService,sans-serif" font-size="22.8203" x="1215.24" y="1465.29">,</text><path d="M1262.09 1393.71 1264.56 1393.71C1264.38 1396.58 1264.29 1400.57 1264.29 1405.66L1264.29 1444.02C1264.29 1445.76 1264.39 1447.07 1264.58 1447.95 1264.78 1448.84 1265.12 1449.55 1265.62 1450.11 1266.11 1450.66 1266.82 1451.1 1267.75 1451.41 1268.68 1451.73 1269.85 1451.97 1271.25 1452.13 1272.66 1452.3 1274.52 1452.41 1276.82 1452.47L1276.82 1455.75 1243.63 1455.75 1243.63 1452.47C1246.95 1452.32 1249.32 1452.12 1250.75 1451.86 1252.17 1451.61 1253.25 1451.22 1254 1450.72 1254.75 1450.21 1255.3 1449.49 1255.64 1448.56 1255.99 1447.63 1256.16 1446.12 1256.16 1444.02L1256.16 1407.59C1256.16 1406.39 1255.95 1405.52 1255.53 1404.96 1255.11 1404.41 1254.5 1404.13 1253.69 1404.13 1252.73 1404.13 1251.37 1404.63 1249.6 1405.61 1247.83 1406.6 1245.65 1407.96 1243.04 1409.7L1241.07 1406.24Z" fill-rule="evenodd"/><text fill="#000000" fill-opacity="0" font-family="Arial,Arial_MSFontService,sans-serif" font-size="62.0371" x="1241.07" y="1447.99">1</text><path d="M1286.75 1390.65 1287.92 1390.65C1294.96 1390.77 1300.22 1392.38 1303.71 1395.48 1307.2 1398.58 1308.95 1403.25 1308.95 1409.48 1308.95 1411.96 1308.59 1414.79 1307.89 1417.97 1307.19 1421.14 1306.83 1423.27 1306.83 1424.35 1306.83 1426.41 1307.55 1428.1 1308.97 1429.4 1310.39 1430.7 1312.54 1431.4 1315.41 1431.49L1315.41 1435.17C1312.54 1435.26 1310.39 1435.96 1308.97 1437.26 1307.55 1438.56 1306.83 1440.25 1306.83 1442.31 1306.83 1443.39 1307.19 1445.52 1307.89 1448.69 1308.59 1451.87 1308.95 1454.7 1308.95 1457.18 1308.95 1463.62 1307.2 1468.39 1303.71 1471.49 1300.22 1474.59 1294.96 1476.2 1287.92 1476.32L1286.75 1476.32 1286.75 1472.91 1287.43 1472.91C1291.77 1472.91 1295.17 1471.78 1297.63 1469.52 1300.08 1467.25 1301.31 1463.41 1301.31 1457.99 1301.31 1455.9 1301.01 1453.31 1300.41 1450.22 1299.81 1447.14 1299.51 1444.94 1299.51 1443.62 1299.51 1441.07 1300.26 1438.98 1301.76 1437.35 1303.26 1435.72 1305.04 1434.51 1307.1 1433.73L1307.1 1432.93C1305.04 1432.15 1303.26 1430.94 1301.76 1429.31 1300.26 1427.68 1299.51 1425.59 1299.51 1423.04 1299.51 1421.73 1299.81 1419.52 1300.41 1416.44 1301.01 1413.36 1301.31 1410.76 1301.31 1408.67 1301.31 1403.46 1300.08 1399.72 1297.63 1397.46 1295.17 1395.2 1291.77 1394.07 1287.43 1394.07L1286.75 1394.07Z" fill-rule="evenodd"/><text fill="#000000" fill-opacity="0" font-family="Arial,Arial_MSFontService,sans-serif" font-size="85.666" x="1286.75" y="1465.61">}</text><path d="M1331.49 1388.77C1333.1 1388.77 1334.35 1389.3 1335.23 1390.36 1336.12 1391.42 1336.56 1392.81 1336.56 1394.53 1336.56 1394.97 1336.52 1395.42 1336.44 1395.9 1336.37 1396.38 1336.23 1396.84 1336.04 1397.28L1336.49 1397.44C1338.61 1394.54 1340.7 1392.37 1342.76 1390.93 1344.82 1389.49 1346.95 1388.77 1349.15 1388.77 1351.47 1388.77 1353.19 1389.39 1354.34 1390.64 1355.48 1391.88 1356.06 1393.62 1356.06 1395.87 1356.06 1396.55 1355.96 1397.48 1355.76 1398.68 1355.57 1399.88 1355.32 1401.19 1355.01 1402.61 1354.7 1404.03 1354.38 1405.48 1354.03 1406.98 1353.68 1408.47 1353.35 1409.85 1353.05 1411.12 1352.74 1412.38 1352.49 1413.46 1352.29 1414.35 1352.1 1415.25 1352 1415.81 1352 1416.02 1352 1416.85 1352.15 1417.45 1352.46 1417.82 1352.76 1418.19 1353.25 1418.38 1353.93 1418.38 1354.35 1418.38 1354.75 1418.3 1355.16 1418.15 1355.56 1418 1355.98 1417.76 1356.42 1417.43 1356.85 1417.1 1357.33 1416.68 1357.86 1416.17 1358.38 1415.66 1358.97 1415.04 1359.62 1414.32L1361.88 1416.48C1360.81 1417.57 1359.83 1418.51 1358.94 1419.29 1358.04 1420.08 1357.17 1420.73 1356.34 1421.24 1355.5 1421.75 1354.66 1422.14 1353.83 1422.39 1353 1422.64 1352.12 1422.76 1351.18 1422.76 1350.4 1422.76 1349.67 1422.61 1349.01 1422.3 1348.34 1422 1347.77 1421.58 1347.29 1421.04 1346.81 1420.51 1346.44 1419.88 1346.18 1419.15 1345.92 1418.42 1345.78 1417.62 1345.78 1416.74 1345.78 1415.87 1345.88 1414.85 1346.06 1413.68 1346.25 1412.52 1346.53 1411.24 1346.9 1409.84 1347.29 1408.42 1347.65 1407.06 1347.99 1405.77 1348.33 1404.47 1348.63 1403.27 1348.88 1402.17 1349.13 1401.07 1349.32 1400.09 1349.47 1399.22 1349.61 1398.36 1349.68 1397.65 1349.68 1397.08 1349.68 1395.73 1349.42 1394.74 1348.91 1394.1 1348.4 1393.47 1347.57 1393.16 1346.44 1393.16 1345.78 1393.16 1345.08 1393.32 1344.33 1393.66 1343.58 1394 1342.82 1394.47 1342.06 1395.07 1341.29 1395.67 1340.54 1396.38 1339.81 1397.2 1339.08 1398.01 1338.41 1398.89 1337.8 1399.81 1337.19 1400.74 1336.65 1401.71 1336.18 1402.72 1335.71 1403.74 1335.37 1404.75 1335.15 1405.75L1331.49 1422.17 1325.08 1422.17 1329.98 1400.84C1330.27 1399.71 1330.47 1398.7 1330.6 1397.8 1330.74 1396.91 1330.8 1396.18 1330.8 1395.61 1330.8 1394.02 1330.16 1393.22 1328.87 1393.22 1328.48 1393.22 1328.08 1393.3 1327.68 1393.47 1327.27 1393.63 1326.85 1393.88 1326.4 1394.2 1325.95 1394.53 1325.47 1394.94 1324.95 1395.45 1324.42 1395.95 1323.83 1396.54 1323.18 1397.21L1320.92 1395.09C1322.01 1393.97 1323.01 1393.02 1323.91 1392.22 1324.82 1391.43 1325.68 1390.77 1326.5 1390.26 1327.32 1389.75 1328.13 1389.37 1328.94 1389.13 1329.74 1388.89 1330.59 1388.77 1331.49 1388.77Z" fill-rule="evenodd"/><text fill="#000000" fill-opacity="0" font-family="Arial,Arial_MSFontService,sans-serif" font-size="33.9907" x="1320.92" y="1418.51">ğ‘›</text><text font-family="Times New Roman,Times New Roman_MSFontService,sans-serif" font-weight="400" font-size="92" transform="matrix(1 0 0 1 910.244 853)">Neighbor list</text><path d="M2037.89 1588.84C2043.58 1588.84 2048.82 1589.65 2053.61 1591.27L2051.5 1600.61 2044.99 1600.61C2044.84 1598.31 2044.15 1596.55 2042.92 1595.33 2041.69 1594.12 2040.08 1593.51 2038.07 1593.51 2036.66 1593.51 2035.35 1593.83 2034.14 1594.46 2032.93 1595.09 2031.95 1596.01 2031.22 1597.22 2030.49 1598.43 2030.12 1599.85 2030.12 1601.46 2030.12 1603.77 2030.8 1605.4 2032.16 1606.36 2033.53 1607.32 2035.72 1607.8 2038.74 1607.8L2044.72 1607.8 2043.46 1613.37 2039.24 1613.37C2036.39 1613.37 2034.13 1613.59 2032.45 1614.02 2030.78 1614.45 2029.34 1615.08 2028.14 1615.88 2026.94 1616.69 2026.07 1617.63 2025.51 1618.69 2024.96 1619.76 2024.68 1620.95 2024.68 1622.26 2024.68 1624.15 2025.3 1625.63 2026.53 1626.69 2027.75 1627.75 2029.64 1628.28 2032.19 1628.28 2034.34 1628.28 2036.6 1627.83 2038.97 1626.94 2041.33 1626.04 2043.87 1624.75 2046.56 1623.07L2049.35 1627.97C2042.25 1632.55 2035.45 1634.84 2028.95 1634.84 2023.62 1634.84 2019.4 1633.82 2016.28 1631.76 2013.17 1629.71 2011.61 1626.76 2011.61 1622.89 2011.61 1619.72 2012.91 1617.04 2015.5 1614.85 2018.09 1612.67 2021.75 1611.2 2026.48 1610.45L2026.62 1609.82C2023.86 1609.16 2021.7 1608.03 2020.15 1606.43 2018.59 1604.83 2017.81 1602.93 2017.81 1600.75 2017.81 1598.17 2018.63 1595.98 2020.28 1594.19 2021.93 1592.39 2024.29 1591.05 2027.38 1590.17 2030.46 1589.28 2033.97 1588.84 2037.89 1588.84Z" fill="#FF0000" fill-rule="evenodd"/><text fill="#000000" fill-opacity="0" font-family="Arial,Arial_MSFontService,sans-serif" font-size="46" x="2011.61" y="1629.09">ğœº</text><path d="M2065.41 1608.17 2081.86 1608.17 2081.41 1610.33C2080.16 1610.68 2079.25 1611.29 2078.66 1612.16 2078.07 1613.03 2077.51 1614.64 2076.99 1617L2069.92 1648.93 2076.11 1648.93C2077.18 1648.93 2078 1648.84 2078.59 1648.67 2079.18 1648.49 2079.72 1648.22 2080.2 1647.85 2080.68 1647.48 2081.2 1646.97 2081.78 1646.31 2082.36 1645.66 2082.93 1644.81 2083.5 1643.76 2084.07 1642.71 2084.65 1641.41 2085.23 1639.84L2089.68 1639.84 2086.35 1652.82 2056.41 1652.82 2056.87 1650.66C2058.11 1650.31 2059.03 1649.7 2059.62 1648.83 2060.21 1647.96 2060.76 1646.35 2061.29 1643.99L2067.24 1617C2067.52 1615.71 2067.67 1614.44 2067.67 1613.17 2067.67 1612.26 2067.45 1611.59 2067.03 1611.16 2066.6 1610.74 2065.91 1610.46 2064.95 1610.33Z" fill="#FF0000" fill-rule="evenodd"/><text fill="#000000" fill-opacity="0" font-family="Arial,Arial_MSFontService,sans-serif" font-size="44.6558" x="2056.41" y="1647.24">ğ‘³</text><text fill="#FF0000" font-family="Times New Roman,Times New Roman_MSFontService,sans-serif" font-weight="700" font-size="92" transform="matrix(1 0 0 1 2096.16 1634)">-<tspan font-size="92" x="30.3647" y="0">LDP</tspan></text><path d="M2712.32 1568 2713.53 1571.45C2706.52 1573.76 2701.33 1578.26 2697.96 1584.95 2694.6 1591.65 2692.91 1600.05 2692.91 1610.18 2692.91 1620.66 2694.6 1629.3 2697.96 1636.1 2701.33 1642.9 2706.48 1647.45 2713.4 1649.75L2712.32 1653.21C2703.54 1650.91 2696.82 1645.94 2692.15 1638.32 2687.48 1630.7 2685.14 1621.47 2685.14 1610.63 2685.14 1599.81 2687.48 1590.58 2692.17 1582.93 2696.86 1575.28 2703.57 1570.3 2712.32 1568Z" fill="#0000CC" fill-rule="evenodd"/><text fill="#000000" fill-opacity="0" font-family="Arial,Arial_MSFontService,sans-serif" font-size="85.2168" x="2685.14" y="1642.56">(</text><path d="M2745.19 1587.63C2750.88 1587.63 2756.12 1588.43 2760.91 1590.05L2758.8 1599.4 2752.29 1599.4C2752.14 1597.09 2751.45 1595.33 2750.22 1594.12 2748.99 1592.9 2747.37 1592.3 2745.37 1592.3 2743.96 1592.3 2742.65 1592.61 2741.44 1593.24 2740.22 1593.87 2739.25 1594.79 2738.52 1596 2737.78 1597.22 2737.42 1598.63 2737.42 1600.25 2737.42 1602.56 2738.1 1604.19 2739.46 1605.15 2740.82 1606.1 2743.02 1606.58 2746.04 1606.58L2752.02 1606.58 2750.76 1612.15 2746.54 1612.15C2743.69 1612.15 2741.43 1612.37 2739.75 1612.8 2738.08 1613.24 2736.64 1613.86 2735.44 1614.67 2734.24 1615.48 2733.37 1616.41 2732.81 1617.48 2732.26 1618.54 2731.98 1619.73 2731.98 1621.05 2731.98 1622.93 2732.6 1624.41 2733.82 1625.47 2735.05 1626.54 2736.94 1627.07 2739.48 1627.07 2741.64 1627.07 2743.9 1626.62 2746.27 1625.72 2748.63 1624.82 2751.16 1623.53 2753.86 1621.86L2756.64 1626.75C2749.55 1631.34 2742.75 1633.63 2736.25 1633.63 2730.92 1633.63 2726.7 1632.6 2723.58 1630.55 2720.47 1628.5 2718.91 1625.54 2718.91 1621.68 2718.91 1618.5 2720.2 1615.82 2722.79 1613.64 2725.39 1611.45 2729.05 1609.98 2733.78 1609.23L2733.91 1608.6C2731.16 1607.95 2729 1606.82 2727.44 1605.21 2725.89 1603.61 2725.11 1601.72 2725.11 1599.53 2725.11 1596.95 2725.93 1594.77 2727.58 1592.97 2729.23 1591.17 2731.59 1589.83 2734.68 1588.95 2737.76 1588.07 2741.27 1587.63 2745.19 1587.63Z" fill="#0000CC" fill-rule="evenodd"/><text fill="#000000" fill-opacity="0" font-family="Arial,Arial_MSFontService,sans-serif" font-size="46" x="2718.91" y="1627.88">ğœº</text><path d="M2767.86 1622.49 2775.73 1622.49C2776.15 1624.58 2776.35 1626.65 2776.35 1628.68 2776.35 1630.78 2776 1632.7 2775.28 1634.43 2774.56 1636.17 2773.41 1637.9 2771.84 1639.62 2770.27 1641.35 2768.1 1643.24 2765.35 1645.31L2762.92 1642.57C2764.45 1641.13 2765.56 1639.83 2766.25 1638.68 2766.94 1637.53 2767.43 1636.22 2767.73 1634.75 2768.03 1633.28 2768.18 1631.44 2768.18 1629.22 2768.18 1626.95 2768.07 1624.7 2767.86 1622.49Z" fill="#0000CC" fill-rule="evenodd"/><text fill="#000000" fill-opacity="0" font-family="Arial,Arial_MSFontService,sans-serif" font-size="22.8203" x="2762.92" y="1642.45">,</text><path d="M2825.51 1595.76C2821.55 1598.27 2818.48 1601.68 2816.27 1605.98 2814.07 1610.27 2812.97 1614.82 2812.97 1619.61 2812.97 1622.76 2813.51 1625.1 2814.59 1626.64 2815.67 1628.18 2817.33 1628.95 2819.58 1628.95 2821.49 1628.95 2823.3 1628.21 2824.99 1626.71 2826.68 1625.21 2828.03 1623.09 2829.03 1620.35 2830.03 1617.61 2830.54 1614.52 2830.54 1611.08 2830.54 1607.93 2830.11 1605.05 2829.26 1602.43 2828.4 1599.81 2827.15 1597.58 2825.51 1595.76ZM2829.41 1568.4C2835.7 1568.4 2842.14 1570.39 2848.73 1574.37L2846.75 1582.77 2840.64 1582.77C2839.42 1579.51 2837.89 1577.08 2836.06 1575.47 2834.24 1573.87 2832.14 1573.07 2829.77 1573.07 2828.28 1573.07 2827.09 1573.43 2826.2 1574.15 2825.32 1574.87 2824.88 1575.87 2824.88 1577.16 2824.88 1578.18 2825.1 1579.19 2825.55 1580.19 2826 1581.19 2826.74 1582.35 2827.77 1583.65 2828.81 1584.95 2830.63 1587 2833.23 1589.78 2835.66 1592.39 2837.57 1594.69 2838.96 1596.7 2840.35 1598.71 2841.43 1600.86 2842.19 1603.15 2842.96 1605.44 2843.34 1607.95 2843.34 1610.67 2843.34 1615.01 2842.28 1618.96 2840.15 1622.51 2838.02 1626.06 2835.07 1628.8 2831.3 1630.73 2827.53 1632.66 2823.32 1633.63 2818.68 1633.63 2814.96 1633.63 2811.74 1632.98 2809.02 1631.69 2806.29 1630.41 2804.2 1628.53 2802.73 1626.06 2801.26 1623.59 2800.53 1620.66 2800.53 1617.27 2800.53 1612.03 2802.36 1607.13 2806.01 1602.56 2809.66 1598 2814.8 1594.35 2821.42 1591.62 2819.08 1589.08 2817.4 1586.91 2816.39 1585.11 2815.37 1583.31 2814.86 1581.26 2814.86 1578.96 2814.86 1576.92 2815.47 1575.1 2816.68 1573.5 2817.89 1571.9 2819.61 1570.65 2821.82 1569.75 2824.04 1568.85 2826.57 1568.4 2829.41 1568.4Z" fill="#0000CC" fill-rule="evenodd"/><text fill="#000000" fill-opacity="0" font-family="Arial,Arial_MSFontService,sans-serif" font-size="65.2266" x="2800.53" y="1625.47">ğœ¹</text><path d="M2852.24 1568C2860.98 1570.3 2867.7 1575.28 2872.39 1582.93 2877.07 1590.58 2879.42 1599.81 2879.42 1610.63 2879.42 1621.47 2877.08 1630.7 2872.41 1638.32 2867.74 1645.94 2861.01 1650.91 2852.24 1653.21L2851.16 1649.75C2858.08 1647.45 2863.22 1642.9 2866.59 1636.1 2869.96 1629.3 2871.64 1620.66 2871.64 1610.18 2871.64 1600.05 2869.97 1591.65 2866.61 1584.95 2863.26 1578.26 2858.06 1573.76 2851.02 1571.45Z" fill="#0000CC" fill-rule="evenodd"/><text fill="#000000" fill-opacity="0" font-family="Arial,Arial_MSFontService,sans-serif" font-size="85.2168" x="2851.02" y="1642.56">)</text><text fill="#0000CC" font-family="Times New Roman,Times New Roman_MSFontService,sans-serif" font-weight="700" font-size="92" transform="matrix(1 0 0 1 2887.13 1633)">-<tspan font-size="92" x="30.3647" y="0">DP</tspan></text><path d="M1967 763 1967 1659.46" stroke="#FF0000" stroke-width="5.72917" stroke-miterlimit="8" stroke-dasharray="22.9167 17.1875" fill="none" fill-rule="evenodd"/><path d="M2640 762 2640 1658.46" stroke="#0000CC" stroke-width="5.72917" stroke-miterlimit="8" stroke-dasharray="22.9167 17.1875" fill="none" fill-rule="evenodd"/><path d="M1912.31 978.984 2184.1 1124.19 2182.48 1127.22 1910.69 982.016ZM2185.72 1111.41 2203.5 1136.5 2172.77 1135.67Z"/><path d="M0.807748-1.51712 273.58 143.713 271.964 146.747-0.807748 1.51712ZM275.188 130.939 293 156 262.264 155.213Z" transform="matrix(1 0 0 -1 1914.5 1410.5)"/><path d="M1705 1164.5C1705 1158.15 1710.37 1153 1717 1153 1723.63 1153 1729 1158.15 1729 1164.5 1729 1170.85 1723.63 1176 1717 1176 1710.37 1176 1705 1170.85 1705 1164.5Z" fill-rule="evenodd"/><path d="M1705 1207C1705 1200.37 1710.37 1195 1717 1195 1723.63 1195 1729 1200.37 1729 1207 1729 1213.63 1723.63 1219 1717 1219 1710.37 1219 1705 1213.63 1705 1207Z" fill-rule="evenodd"/><path d="M1705 1247.5C1705 1241.15 1710.37 1236 1717 1236 1723.63 1236 1729 1241.15 1729 1247.5 1729 1253.85 1723.63 1259 1717 1259 1710.37 1259 1705 1253.85 1705 1247.5Z" fill-rule="evenodd"/><rect x="1608.5" y="912.5" width="224" height="122" stroke="#000000" stroke-width="4.58333" stroke-miterlimit="8" fill="#FFFFFF"/><path d="M1712.57 949.558 1706.87 975.344C1709.71 975.972 1712.24 976.287 1714.46 976.287 1718.11 976.287 1721.11 975.606 1723.44 974.243 1725.78 972.88 1727.47 971.061 1728.52 968.785 1729.57 966.509 1730.09 963.948 1730.09 961.103 1730.09 957.36 1728.86 954.5 1726.41 952.523 1723.95 950.547 1719.64 949.558 1713.47 949.558ZM1709.97 944.572 1712.35 944.572C1717.17 944.572 1721.04 944.804 1723.96 945.268 1726.88 945.733 1729.44 946.571 1731.64 947.784 1733.84 948.997 1735.5 950.607 1736.63 952.613 1737.75 954.62 1738.31 956.971 1738.31 959.666 1738.31 961.882 1737.96 963.963 1737.26 965.91 1736.55 967.857 1735.57 969.653 1734.31 971.301 1733.06 972.948 1731.52 974.423 1729.71 975.725 1727.9 977.028 1726.11 978.024 1724.34 978.713 1723.2 979.132 1721.81 979.491 1720.16 979.791 1721.03 982.426 1722.04 985.271 1723.2 988.326 1724.35 991.381 1725.28 993.649 1725.98 995.132 1726.68 996.614 1727.33 997.812 1727.91 998.725 1728.5 999.639 1729.09 1000.3 1729.69 1000.7 1730.29 1001.11 1730.97 1001.31 1731.75 1001.31 1733.01 1001.31 1734.13 1000.98 1735.12 1000.32 1736.11 999.661 1737.58 998.299 1739.53 996.232L1742.18 998.613C1739.84 1001.43 1737.59 1003.51 1735.44 1004.86 1733.28 1006.2 1730.83 1006.88 1728.07 1006.88 1726.33 1006.88 1724.86 1006.59 1723.65 1006 1722.43 1005.42 1721.41 1004.63 1720.59 1003.62 1719.77 1002.62 1719.03 1001.35 1718.37 999.804 1717.71 998.261 1716.75 995.708 1715.49 992.144 1714.23 988.581 1712.98 984.702 1711.72 980.51 1709.92 980.51 1707.95 980.375 1705.79 980.105L1703.72 990.437C1703.27 992.743 1702.73 994.66 1702.08 996.187 1701.44 997.715 1700.73 999.002 1699.95 1000.05 1699.17 1001.1 1698.32 1002 1697.41 1002.75 1696.5 1003.49 1695.36 1004.23 1694 1004.95 1692.63 1005.67 1691.3 1006.17 1690 1006.45 1688.7 1006.74 1687.34 1006.88 1685.93 1006.88 1683.66 1006.88 1681.62 1006.24 1679.82 1004.97 1678.03 1003.7 1676.42 1001.76 1675.02 999.152L1681.13 995.648C1682.38 998.134 1683.6 999.968 1684.77 1001.15 1685.93 1002.33 1687.22 1002.93 1688.63 1002.93 1689.35 1002.93 1690.07 1002.78 1690.78 1002.5 1691.5 1002.21 1692.16 1001.65 1692.74 1000.81 1693.32 999.976 1693.83 998.793 1694.27 997.265 1694.7 995.738 1695.28 993.267 1696 989.853L1701.79 961.822C1702.24 959.726 1702.86 957.652 1703.66 955.6 1704.45 953.549 1705.38 951.715 1706.46 950.097L1706.37 949.648C1699.69 949.648 1694.91 950.262 1692.02 951.49 1689.13 952.718 1687.69 954.814 1687.69 957.779 1687.69 959.306 1688.21 961.163 1689.26 963.349L1682.34 966.045C1681.68 964.967 1681.21 963.956 1680.92 963.013 1680.64 962.069 1680.5 961.028 1680.5 959.89 1680.5 958.603 1680.87 957.315 1681.62 956.027 1682.55 954.44 1684.06 952.815 1686.16 951.153 1688.25 949.491 1690.42 948.158 1692.65 947.155 1694.88 946.152 1697.37 945.456 1700.13 945.066 1702.34 944.737 1705.62 944.572 1709.97 944.572Z" fill-rule="evenodd"/><text fill="#000000" fill-opacity="0" font-family="Arial,Arial_MSFontService,sans-serif" font-size="62.3066" x="1675.02" y="999.09">â„›</text><rect x="1605.5" y="1363.5" width="223" height="121" stroke="#000000" stroke-width="4.58333" stroke-miterlimit="8" fill="#FFFFFF"/><path d="M1709.43 1400.4 1703.72 1426.18C1706.57 1426.81 1709.1 1427.13 1711.32 1427.13 1714.97 1427.13 1717.96 1426.44 1720.3 1425.08 1722.64 1423.72 1724.33 1421.9 1725.38 1419.62 1726.42 1417.35 1726.95 1414.79 1726.95 1411.94 1726.95 1408.2 1725.72 1405.34 1723.27 1403.36 1720.81 1401.39 1716.5 1400.4 1710.33 1400.4ZM1706.82 1395.41 1709.2 1395.41C1714.03 1395.41 1717.9 1395.64 1720.82 1396.11 1723.74 1396.57 1726.3 1397.41 1728.5 1398.62 1730.7 1399.84 1732.36 1401.45 1733.48 1403.45 1734.61 1405.46 1735.17 1407.81 1735.17 1410.5 1735.17 1412.72 1734.82 1414.8 1734.11 1416.75 1733.41 1418.7 1732.43 1420.49 1731.17 1422.14 1729.91 1423.79 1728.38 1425.26 1726.57 1426.56 1724.76 1427.87 1722.97 1428.86 1721.2 1429.55 1720.06 1429.97 1718.67 1430.33 1717.02 1430.63 1717.89 1433.27 1718.9 1436.11 1720.05 1439.17 1721.21 1442.22 1722.13 1444.49 1722.84 1445.97 1723.54 1447.45 1724.19 1448.65 1724.77 1449.56 1725.35 1450.48 1725.95 1451.14 1726.54 1451.54 1727.14 1451.95 1727.83 1452.15 1728.61 1452.15 1729.87 1452.15 1730.99 1451.82 1731.98 1451.16 1732.97 1450.5 1734.44 1449.14 1736.38 1447.07L1739.03 1449.45C1736.7 1452.27 1734.45 1454.35 1732.29 1455.7 1730.14 1457.04 1727.68 1457.72 1724.93 1457.72 1723.19 1457.72 1721.72 1457.43 1720.5 1456.84 1719.29 1456.26 1718.27 1455.46 1717.45 1454.46 1716.62 1453.46 1715.88 1452.18 1715.22 1450.64 1714.57 1449.1 1713.61 1446.55 1712.35 1442.98 1711.09 1439.42 1709.83 1435.54 1708.58 1431.35 1706.78 1431.35 1704.8 1431.21 1702.65 1430.94L1700.58 1441.28C1700.13 1443.58 1699.58 1445.5 1698.94 1447.03 1698.3 1448.55 1697.58 1449.84 1696.81 1450.89 1696.03 1451.94 1695.18 1452.84 1694.27 1453.58 1693.35 1454.33 1692.22 1455.07 1690.85 1455.79 1689.49 1456.5 1688.16 1457.01 1686.86 1457.29 1685.55 1457.58 1684.2 1457.72 1682.79 1457.72 1680.51 1457.72 1678.48 1457.08 1676.68 1455.81 1674.88 1454.54 1673.28 1452.6 1671.87 1449.99L1677.98 1446.49C1679.24 1448.97 1680.45 1450.81 1681.62 1451.99 1682.79 1453.17 1684.08 1453.76 1685.49 1453.76 1686.2 1453.76 1686.92 1453.62 1687.64 1453.34 1688.36 1453.05 1689.01 1452.49 1689.6 1451.65 1690.18 1450.81 1690.69 1449.63 1691.12 1448.1 1691.56 1446.58 1692.13 1444.11 1692.85 1440.69L1698.65 1412.66C1699.1 1410.56 1699.72 1408.49 1700.51 1406.44 1701.31 1404.39 1702.24 1402.55 1703.32 1400.94L1703.23 1400.49C1696.55 1400.49 1691.77 1401.1 1688.88 1402.33 1685.99 1403.56 1684.54 1405.65 1684.54 1408.62 1684.54 1410.15 1685.07 1412 1686.11 1414.19L1679.2 1416.88C1678.54 1415.81 1678.07 1414.79 1677.78 1413.85 1677.5 1412.91 1677.36 1411.87 1677.36 1410.73 1677.36 1409.44 1677.73 1408.15 1678.48 1406.87 1679.41 1405.28 1680.92 1403.65 1683.02 1401.99 1685.11 1400.33 1687.28 1399 1689.51 1397.99 1691.74 1396.99 1694.23 1396.29 1696.99 1395.91 1699.2 1395.58 1702.48 1395.41 1706.82 1395.41Z" fill-rule="evenodd"/><text fill="#000000" fill-opacity="0" font-family="Arial,Arial_MSFontService,sans-serif" font-size="62.3066" x="1671.87" y="1449.93">â„›</text><text font-family="Times New Roman,Times New Roman_MSFontService,sans-serif" font-weight="400" font-size="92" transform="matrix(1 0 0 1 1496.24 849)">Randomizer</text><path d="M751 1164C751 1157.37 756.149 1152 762.5 1152 768.851 1152 774 1157.37 774 1164 774 1170.63 768.851 1176 762.5 1176 756.149 1176 751 1170.63 751 1164Z" fill-rule="evenodd"/><path d="M751 1206.5C751 1200.15 756.149 1195 762.5 1195 768.851 1195 774 1200.15 774 1206.5 774 1212.85 768.851 1218 762.5 1218 756.149 1218 751 1212.85 751 1206.5Z" fill-rule="evenodd"/><path d="M751 1247C751 1240.37 756.149 1235 762.5 1235 768.851 1235 774 1240.37 774 1247 774 1253.63 768.851 1259 762.5 1259 756.149 1259 751 1253.63 751 1247Z" fill-rule="evenodd"/><path d="M1118 1163.5C1118 1157.15 1123.37 1152 1130 1152 1136.63 1152 1142 1157.15 1142 1163.5 1142 1169.85 1136.63 1175 1130 1175 1123.37 1175 1118 1169.85 1118 1163.5Z" fill-rule="evenodd"/><path d="M1118 1206C1118 1199.37 1123.37 1194 1130 1194 1136.63 1194 1142 1199.37 1142 1206 1142 1212.63 1136.63 1218 1130 1218 1123.37 1218 1118 1212.63 1118 1206Z" fill-rule="evenodd"/><path d="M1118 1246.5C1118 1240.15 1123.37 1235 1130 1235 1136.63 1235 1142 1240.15 1142 1246.5 1142 1252.85 1136.63 1258 1130 1258 1123.37 1258 1118 1252.85 1118 1246.5Z" fill-rule="evenodd"/><text font-family="Times New Roman,Times New Roman_MSFontService,sans-serif" font-weight="400" font-size="83" transform="matrix(1 0 0 1 1999.12 962)">obfuscated<tspan font-size="83" x="110" y="99">data</tspan><tspan font-size="83" x="690.843" y="169">shuffled data</tspan><tspan font-size="83" x="-0.579224" y="462">obfuscated</tspan><tspan font-size="83" x="109.421" y="561">data</tspan></text></g></svg>