<svg width="1862" height="578" xmlns="http://www.w3.org/2000/svg" xmlns:xlink="http://www.w3.org/1999/xlink" overflow="hidden"><defs><clipPath id="clip0"><rect x="657" y="730" width="1862" height="578"/></clipPath></defs><g clip-path="url(#clip0)" transform="translate(-657 -730)"><path d="M931.488 824.816C933.644 824.816 935.201 825.377 936.16 826.5 937.118 827.624 937.597 829.128 937.597 831.015 937.597 832.453 937.343 834.1 936.834 835.957 936.324 837.813 935.606 839.775 934.677 841.841 933.749 843.908 932.641 846.027 931.353 848.198 930.065 850.369 928.643 852.48 927.086 854.532 925.528 856.583 923.866 858.515 922.099 860.327 920.332 862.138 918.498 863.718 916.596 865.066 914.695 866.414 912.763 867.484 910.801 868.278 908.84 869.071 906.886 869.468 904.939 869.468 904.071 869.468 903.344 869.251 902.76 868.817 902.176 868.383 901.705 867.769 901.345 866.975 900.986 866.181 900.731 865.246 900.582 864.167 900.432 863.089 900.357 861.906 900.357 860.619 900.357 858.912 900.462 857.085 900.671 855.138 900.881 853.192 901.151 851.23 901.48 849.253L903.367 836.81C903.487 836.091 903.584 835.41 903.659 834.766 903.734 834.122 903.771 833.651 903.771 833.351 903.771 832.423 903.621 831.659 903.322 831.06 903.022 830.461 902.513 830.162 901.794 830.162 901.225 830.162 900.612 830.334 899.953 830.678 899.294 831.023 898.628 831.464 897.954 832.003 897.28 832.542 896.628 833.119 896 833.733 895.371 834.347 894.787 834.923 894.248 835.462L892.091 832.947C893.02 831.988 894.008 831.038 895.056 830.094 896.104 829.151 897.212 828.297 898.38 827.534 899.548 826.77 900.776 826.156 902.064 825.692 903.352 825.228 904.669 824.996 906.017 824.996 907.155 824.996 908.084 825.183 908.802 825.557 909.521 825.931 910.083 826.426 910.487 827.04 910.891 827.654 911.168 828.327 911.318 829.061 911.468 829.795 911.543 830.521 911.543 831.24 911.543 831.659 911.528 832.063 911.498 832.453 911.468 832.842 911.423 833.201 911.363 833.531L908.847 849.792C908.578 851.5 908.353 853.169 908.173 854.801 907.994 856.433 907.904 857.878 907.904 859.136 907.904 860.394 907.979 861.412 908.128 862.191 908.278 862.97 908.563 863.359 908.982 863.359 909.97 863.359 911.213 862.962 912.711 862.168 914.208 861.375 915.78 860.282 917.427 858.889 919.074 857.497 920.722 855.849 922.369 853.948 924.016 852.046 925.498 849.987 926.816 847.771 928.134 845.555 929.204 843.219 930.028 840.763 930.851 838.307 931.263 835.837 931.263 833.351 931.263 832.273 931.031 831.442 930.567 830.858 930.103 830.274 929.377 829.982 928.388 829.982 927.13 829.982 925.97 830.469 924.907 831.442 923.844 832.415 922.743 833.695 921.605 835.283L919.044 832.992C919.763 831.914 920.609 830.88 921.583 829.892 922.556 828.904 923.589 828.035 924.682 827.287 925.775 826.538 926.906 825.939 928.074 825.49 929.242 825.041 930.38 824.816 931.488 824.816Z" fill-rule="evenodd"/><text fill="#000000" fill-opacity="0" font-family="Arial,Arial_MSFontService,sans-serif" font-size="44.6523" x="892.091" y="863.887">ğ‘£</text><path d="M957.848 845.268 959.844 845.268C959.8 846.467 959.767 847.542 959.746 848.49 959.724 849.439 959.707 850.36 959.696 851.255 959.686 852.149 959.68 853.032 959.68 853.905L959.68 878.768C959.68 879.444 959.702 880.027 959.746 880.518 959.789 881.009 959.86 881.423 959.958 881.761 960.056 882.099 960.187 882.388 960.351 882.628 960.514 882.868 960.705 883.075 960.923 883.25 961.185 883.511 961.534 883.713 961.97 883.855 962.406 883.997 962.963 884.117 963.639 884.215 964.315 884.313 965.127 884.389 966.076 884.444 967.025 884.498 968.164 884.537 969.495 884.558L969.495 887.405 943.552 887.405 943.552 884.558C944.839 884.515 945.929 884.466 946.823 884.411 947.717 884.357 948.481 884.28 949.113 884.182 949.746 884.084 950.253 883.975 950.634 883.855 951.016 883.735 951.349 883.588 951.632 883.413 951.938 883.217 952.199 883.004 952.417 882.775 952.635 882.546 952.81 882.257 952.941 881.908 953.072 881.56 953.175 881.134 953.252 880.633 953.328 880.131 953.366 879.509 953.366 878.768L953.366 855.311C953.366 854.461 953.203 853.861 952.875 853.512 952.548 853.163 952.079 852.989 951.469 852.989 950.793 852.989 949.789 853.337 948.459 854.035 947.129 854.733 945.406 855.769 943.29 857.143 943.006 856.642 942.745 856.14 942.505 855.638 942.265 855.137 942.014 854.624 941.752 854.101 944.457 852.618 947.134 851.14 949.784 849.668 952.434 848.196 955.122 846.729 957.848 845.268Z" fill-rule="evenodd"/><text fill="#000000" fill-opacity="0" font-family="Arial,Arial_MSFontService,sans-serif" font-size="42.1367" x="941.752" y="882.137">1</text><path d="M747.896 1008.15C750.052 1008.15 751.61 1008.71 752.568 1009.83 753.526 1010.96 754.005 1012.46 754.005 1014.35 754.005 1015.79 753.751 1017.43 753.242 1019.29 752.733 1021.15 752.014 1023.11 751.086 1025.17 750.157 1027.24 749.049 1029.36 747.761 1031.53 746.474 1033.7 745.051 1035.81 743.494 1037.86 741.936 1039.92 740.274 1041.85 738.507 1043.66 736.741 1045.47 734.906 1047.05 733.005 1048.4 731.103 1049.75 729.171 1050.82 727.21 1051.61 725.248 1052.4 723.294 1052.8 721.347 1052.8 720.479 1052.8 719.753 1052.58 719.169 1052.15 718.585 1051.72 718.113 1051.1 717.754 1050.31 717.394 1049.51 717.14 1048.58 716.99 1047.5 716.84 1046.42 716.765 1045.24 716.765 1043.95 716.765 1042.24 716.87 1040.42 717.08 1038.47 717.289 1036.52 717.559 1034.56 717.888 1032.59L719.775 1020.14C719.895 1019.42 719.992 1018.74 720.067 1018.1 720.142 1017.46 720.179 1016.98 720.179 1016.68 720.179 1015.76 720.03 1014.99 719.73 1014.39 719.431 1013.79 718.922 1013.49 718.203 1013.49 717.634 1013.49 717.02 1013.67 716.361 1014.01 715.702 1014.36 715.036 1014.8 714.362 1015.34 713.688 1015.88 713.037 1016.45 712.408 1017.07 711.779 1017.68 711.195 1018.26 710.656 1018.8L708.5 1016.28C709.428 1015.32 710.416 1014.37 711.464 1013.43 712.513 1012.48 713.621 1011.63 714.789 1010.87 715.957 1010.1 717.185 1009.49 718.472 1009.03 719.76 1008.56 721.078 1008.33 722.425 1008.33 723.563 1008.33 724.492 1008.52 725.211 1008.89 725.929 1009.26 726.491 1009.76 726.895 1010.37 727.299 1010.99 727.576 1011.66 727.726 1012.39 727.876 1013.13 727.951 1013.85 727.951 1014.57 727.951 1014.99 727.936 1015.4 727.906 1015.79 727.876 1016.18 727.831 1016.53 727.771 1016.86L725.255 1033.13C724.986 1034.83 724.761 1036.5 724.582 1038.13 724.402 1039.77 724.312 1041.21 724.312 1042.47 724.312 1043.73 724.387 1044.75 724.537 1045.52 724.686 1046.3 724.971 1046.69 725.39 1046.69 726.379 1046.69 727.621 1046.3 729.119 1045.5 730.616 1044.71 732.188 1043.61 733.836 1042.22 735.483 1040.83 737.13 1039.18 738.777 1037.28 740.424 1035.38 741.907 1033.32 743.224 1031.1 744.542 1028.89 745.613 1026.55 746.436 1024.1 747.26 1021.64 747.672 1019.17 747.672 1016.68 747.672 1015.61 747.439 1014.78 746.975 1014.19 746.511 1013.61 745.785 1013.32 744.797 1013.32 743.539 1013.32 742.378 1013.8 741.315 1014.78 740.252 1015.75 739.151 1017.03 738.013 1018.62L735.453 1016.32C736.172 1015.25 737.018 1014.21 737.991 1013.23 738.964 1012.24 739.997 1011.37 741.09 1010.62 742.184 1009.87 743.314 1009.27 744.482 1008.82 745.65 1008.37 746.788 1008.15 747.896 1008.15Z" fill-rule="evenodd"/><text fill="#000000" fill-opacity="0" font-family="Arial,Arial_MSFontService,sans-serif" font-size="44.6523" x="708.5" y="1047.22">ğ‘£</text><path d="M773.836 1028.37C776.104 1028.37 778.04 1028.63 779.643 1029.14 781.246 1029.65 782.549 1030.35 783.552 1031.22 784.555 1032.09 785.281 1033.14 785.728 1034.36 786.175 1035.58 786.398 1036.9 786.398 1038.32 786.398 1039.17 786.338 1039.96 786.218 1040.69 786.099 1041.42 785.891 1042.14 785.597 1042.85 785.302 1043.56 784.915 1044.27 784.435 1044.99 783.956 1045.71 783.356 1046.47 782.636 1047.28 782.091 1047.98 781.382 1048.79 780.51 1049.7 779.637 1050.62 778.683 1051.6 777.647 1052.65 776.611 1053.69 775.526 1054.78 774.392 1055.92 773.258 1057.05 772.156 1058.18 771.088 1059.29 770.019 1060.4 769.038 1061.48 768.143 1062.53 767.249 1063.57 766.519 1064.53 765.952 1065.41L778.056 1065.41C779.081 1065.41 779.899 1065.37 780.51 1065.29 781.12 1065.21 781.627 1065.05 782.031 1064.78 782.434 1064.52 782.778 1064.12 783.061 1063.59 783.345 1063.06 783.672 1062.32 784.043 1061.38L787.085 1061.38C786.976 1062.93 786.873 1064.49 786.775 1066.06 786.676 1067.63 786.573 1069.19 786.464 1070.74L758.754 1070.74 758.754 1069.04C759.278 1067.86 759.888 1066.7 760.586 1065.55 761.284 1064.41 762.069 1063.25 762.942 1062.07 763.814 1060.89 764.807 1059.67 765.919 1058.42 767.031 1057.17 768.263 1055.86 769.616 1054.51 771.666 1052.46 773.334 1050.71 774.621 1049.26 775.908 1047.81 776.922 1046.52 777.664 1045.38 778.405 1044.25 778.912 1043.2 779.185 1042.24 779.457 1041.28 779.594 1040.26 779.594 1039.17 779.594 1038.06 779.436 1037.03 779.119 1036.09 778.803 1035.16 778.351 1034.36 777.762 1033.7 777.173 1033.05 776.426 1032.54 775.521 1032.17 774.616 1031.8 773.574 1031.61 772.396 1031.61 770.368 1031.61 768.667 1032.16 767.293 1033.26 765.919 1034.36 764.85 1035.96 764.087 1038.06L759.801 1038.06 759.801 1031.68C762.593 1030.52 765.161 1029.68 767.506 1029.16 769.85 1028.63 771.96 1028.37 773.836 1028.37Z" fill-rule="evenodd"/><text fill="#000000" fill-opacity="0" font-family="Arial,Arial_MSFontService,sans-serif" font-size="42.3657" x="758.754" y="1065.44">2</text><path d="M1074.85 998.984C1077.01 998.984 1078.56 999.546 1079.52 1000.67 1080.48 1001.79 1080.96 1003.3 1080.96 1005.18 1080.96 1006.62 1080.71 1008.27 1080.2 1010.12 1079.69 1011.98 1078.97 1013.94 1078.04 1016.01 1077.11 1018.08 1076 1020.19 1074.72 1022.37 1073.43 1024.54 1072.01 1026.65 1070.45 1028.7 1068.89 1030.75 1067.23 1032.68 1065.46 1034.49 1063.7 1036.31 1061.86 1037.89 1059.96 1039.23 1058.06 1040.58 1056.13 1041.65 1054.16 1042.45 1052.2 1043.24 1050.25 1043.64 1048.3 1043.64 1047.43 1043.64 1046.71 1043.42 1046.12 1042.98 1045.54 1042.55 1045.07 1041.94 1044.71 1041.14 1044.35 1040.35 1044.09 1039.41 1043.95 1038.34 1043.8 1037.26 1043.72 1036.07 1043.72 1034.79 1043.72 1033.08 1043.83 1031.25 1044.03 1029.31 1044.24 1027.36 1044.51 1025.4 1044.84 1023.42L1046.73 1010.98C1046.85 1010.26 1046.95 1009.58 1047.02 1008.93 1047.1 1008.29 1047.13 1007.82 1047.13 1007.52 1047.13 1006.59 1046.98 1005.83 1046.69 1005.23 1046.39 1004.63 1045.88 1004.33 1045.16 1004.33 1044.59 1004.33 1043.97 1004.5 1043.32 1004.85 1042.66 1005.19 1041.99 1005.63 1041.32 1006.17 1040.64 1006.71 1039.99 1007.29 1039.36 1007.9 1038.73 1008.51 1038.15 1009.09 1037.61 1009.63L1035.45 1007.11C1036.38 1006.16 1037.37 1005.21 1038.42 1004.26 1039.47 1003.32 1040.58 1002.47 1041.74 1001.7 1042.91 1000.94 1044.14 1000.32 1045.43 999.86 1046.72 999.396 1048.03 999.164 1049.38 999.164 1050.52 999.164 1051.45 999.351 1052.17 999.725 1052.88 1000.1 1053.45 1000.59 1053.85 1001.21 1054.25 1001.82 1054.53 1002.5 1054.68 1003.23 1054.83 1003.96 1054.91 1004.69 1054.91 1005.41 1054.91 1005.83 1054.89 1006.23 1054.86 1006.62 1054.83 1007.01 1054.79 1007.37 1054.73 1007.7L1052.21 1023.96C1051.94 1025.67 1051.72 1027.34 1051.54 1028.97 1051.36 1030.6 1051.27 1032.05 1051.27 1033.3 1051.27 1034.56 1051.34 1035.58 1051.49 1036.36 1051.64 1037.14 1051.93 1037.53 1052.35 1037.53 1053.33 1037.53 1054.58 1037.13 1056.07 1036.34 1057.57 1035.54 1059.14 1034.45 1060.79 1033.06 1062.44 1031.66 1064.09 1030.02 1065.73 1028.12 1067.38 1026.21 1068.86 1024.16 1070.18 1021.94 1071.5 1019.72 1072.57 1017.39 1073.39 1014.93 1074.21 1012.48 1074.63 1010 1074.63 1007.52 1074.63 1006.44 1074.39 1005.61 1073.93 1005.03 1073.47 1004.44 1072.74 1004.15 1071.75 1004.15 1070.49 1004.15 1069.33 1004.64 1068.27 1005.61 1067.21 1006.58 1066.11 1007.86 1064.97 1009.45L1062.41 1007.16C1063.13 1006.08 1063.97 1005.05 1064.95 1004.06 1065.92 1003.07 1066.95 1002.2 1068.05 1001.45 1069.14 1000.71 1070.27 1000.11 1071.44 999.658 1072.61 999.209 1073.74 998.984 1074.85 998.984Z" fill-rule="evenodd"/><text fill="#000000" fill-opacity="0" font-family="Arial,Arial_MSFontService,sans-serif" font-size="44.6523" x="1035.45" y="1038.05">ğ‘£</text><path d="M1100.73 1019.21C1102.47 1019.21 1104.1 1019.39 1105.62 1019.76 1107.13 1020.13 1108.45 1020.7 1109.56 1021.45 1110.67 1022.2 1111.54 1023.14 1112.16 1024.26 1112.78 1025.38 1113.09 1026.69 1113.09 1028.17 1113.09 1029.57 1112.9 1030.8 1112.5 1031.87 1112.11 1032.94 1111.51 1033.91 1110.69 1034.78 1109.87 1035.65 1108.87 1036.44 1107.68 1037.15 1106.49 1037.86 1105.12 1038.54 1103.57 1039.2L1103.57 1039.59C1105.03 1039.85 1106.4 1040.27 1107.66 1040.85 1108.93 1041.43 1110.03 1042.16 1110.98 1043.04 1111.93 1043.92 1112.68 1044.94 1113.22 1046.1 1113.77 1047.25 1114.04 1048.53 1114.04 1049.93 1114.04 1051.67 1113.71 1053.29 1113.06 1054.78 1112.4 1056.28 1111.42 1057.57 1110.11 1058.66 1108.81 1059.75 1107.19 1060.6 1105.27 1061.21 1103.35 1061.82 1101.11 1062.13 1098.53 1062.13 1096.51 1062.13 1094.44 1061.93 1092.35 1061.52 1090.26 1061.12 1088.27 1060.59 1086.4 1059.94L1086.4 1052.87 1090.62 1052.87C1090.97 1053.96 1091.38 1054.89 1091.86 1055.67 1092.34 1056.44 1092.9 1057.07 1093.54 1057.57 1094.19 1058.06 1094.93 1058.41 1095.77 1058.63 1096.61 1058.85 1097.56 1058.96 1098.63 1058.96 1101.45 1058.96 1103.58 1058.28 1105.03 1056.94 1106.48 1055.6 1107.2 1053.57 1107.2 1050.84 1107.2 1047.94 1106.25 1045.74 1104.34 1044.25 1102.43 1042.76 1099.6 1042.01 1095.85 1042.01L1092.97 1042.01 1092.97 1038.87C1095.26 1038.76 1097.24 1038.44 1098.91 1037.9 1100.58 1037.37 1101.97 1036.68 1103.08 1035.83 1104.19 1034.98 1105.02 1033.98 1105.57 1032.85 1106.11 1031.71 1106.39 1030.5 1106.39 1029.22 1106.39 1027.12 1105.76 1025.47 1104.52 1024.26 1103.28 1023.05 1101.48 1022.45 1099.12 1022.45 1097.14 1022.45 1095.47 1022.99 1094.13 1024.08 1092.79 1025.17 1091.76 1026.8 1091.04 1028.96L1086.89 1028.96 1086.89 1022.51C1089.46 1021.42 1091.89 1020.6 1094.17 1020.04 1096.45 1019.48 1098.63 1019.21 1100.73 1019.21Z" fill-rule="evenodd"/><text fill="#000000" fill-opacity="0" font-family="Arial,Arial_MSFontService,sans-serif" font-size="42.9219" x="1086.4" y="1056.76">3</text><path d="M899.785 1150.71C901.941 1150.71 903.498 1151.27 904.457 1152.4 905.415 1153.52 905.894 1155.03 905.894 1156.91 905.894 1158.35 905.64 1160 905.13 1161.85 904.621 1163.71 903.903 1165.67 902.974 1167.74 902.046 1169.8 900.938 1171.92 899.65 1174.09 898.362 1176.27 896.94 1178.38 895.382 1180.43 893.825 1182.48 892.163 1184.41 890.396 1186.22 888.629 1188.04 886.795 1189.61 884.893 1190.96 882.991 1192.31 881.06 1193.38 879.098 1194.17 877.137 1194.97 875.182 1195.36 873.236 1195.36 872.367 1195.36 871.641 1195.15 871.057 1194.71 870.473 1194.28 870.002 1193.67 869.642 1192.87 869.283 1192.08 869.028 1191.14 868.878 1190.06 868.729 1188.99 868.654 1187.8 868.654 1186.52 868.654 1184.81 868.759 1182.98 868.968 1181.03 869.178 1179.09 869.448 1177.13 869.777 1175.15L871.664 1162.71C871.783 1161.99 871.881 1161.31 871.956 1160.66 872.031 1160.02 872.068 1159.55 872.068 1159.25 872.068 1158.32 871.918 1157.56 871.619 1156.96 871.319 1156.36 870.81 1156.06 870.091 1156.06 869.522 1156.06 868.908 1156.23 868.25 1156.57 867.591 1156.92 866.924 1157.36 866.251 1157.9 865.577 1158.44 864.925 1159.02 864.296 1159.63 863.668 1160.24 863.084 1160.82 862.544 1161.36L860.388 1158.84C861.317 1157.89 862.305 1156.93 863.353 1155.99 864.401 1155.05 865.509 1154.19 866.677 1153.43 867.845 1152.67 869.073 1152.05 870.361 1151.59 871.649 1151.12 872.966 1150.89 874.314 1150.89 875.452 1150.89 876.38 1151.08 877.099 1151.45 877.818 1151.83 878.379 1152.32 878.784 1152.94 879.188 1153.55 879.465 1154.22 879.615 1154.96 879.765 1155.69 879.839 1156.42 879.839 1157.14 879.839 1157.56 879.824 1157.96 879.794 1158.35 879.765 1158.74 879.72 1159.1 879.66 1159.43L877.144 1175.69C876.875 1177.4 876.65 1179.07 876.47 1180.7 876.291 1182.33 876.201 1183.78 876.201 1185.03 876.201 1186.29 876.276 1187.31 876.425 1188.09 876.575 1188.87 876.86 1189.26 877.279 1189.26 878.267 1189.26 879.51 1188.86 881.007 1188.07 882.505 1187.27 884.077 1186.18 885.724 1184.79 887.371 1183.39 889.018 1181.75 890.666 1179.84 892.313 1177.94 893.795 1175.88 895.113 1173.67 896.431 1171.45 897.501 1169.12 898.325 1166.66 899.148 1164.2 899.56 1161.73 899.56 1159.25 899.56 1158.17 899.328 1157.34 898.864 1156.75 898.4 1156.17 897.673 1155.88 896.685 1155.88 895.427 1155.88 894.267 1156.37 893.204 1157.34 892.141 1158.31 891.04 1159.59 889.902 1161.18L887.341 1158.89C888.06 1157.81 888.906 1156.78 889.879 1155.79 890.853 1154.8 891.886 1153.93 892.979 1153.18 894.072 1152.43 895.203 1151.84 896.371 1151.39 897.539 1150.94 898.677 1150.71 899.785 1150.71Z" fill-rule="evenodd"/><text fill="#000000" fill-opacity="0" font-family="Arial,Arial_MSFontService,sans-serif" font-size="44.6523" x="860.388" y="1189.78">ğ‘£</text><path d="M923.343 1179.05C921.25 1182.08 919.161 1185.09 917.078 1188.08 914.996 1191.07 912.896 1194.06 910.781 1197.07L910.781 1197.47 923.343 1197.47 923.343 1190.89C923.343 1190.15 923.354 1189.23 923.376 1188.14 923.398 1187.05 923.425 1185.95 923.458 1184.82 923.491 1183.7 923.529 1182.63 923.572 1181.62 923.616 1180.6 923.66 1179.75 923.703 1179.05ZM924.292 1171.39 929.494 1171.39 929.494 1197.47 930.083 1197.47C930.977 1197.47 931.702 1197.42 932.258 1197.34 932.814 1197.25 933.261 1197.07 933.599 1196.8 933.938 1196.52 934.221 1196.14 934.45 1195.65 934.679 1195.16 934.924 1194.52 935.186 1193.74L937.967 1193.74C937.901 1194.94 937.831 1196.13 937.754 1197.3 937.678 1198.48 937.607 1199.68 937.542 1200.9L929.494 1200.9 929.494 1205.19C929.494 1206.45 929.521 1207.43 929.576 1208.13 929.63 1208.83 929.794 1209.38 930.066 1209.77 930.339 1210.16 930.742 1210.45 931.277 1210.65 931.811 1210.85 932.558 1211.08 933.518 1211.34L933.518 1213.3 919.385 1213.3 919.385 1211.34C920.039 1211.16 920.595 1211.01 921.053 1210.86 921.511 1210.72 921.893 1210.56 922.198 1210.37 922.504 1210.19 922.727 1209.97 922.869 1209.72 923.011 1209.47 923.12 1209.15 923.196 1208.77 923.272 1208.39 923.316 1207.91 923.327 1207.33 923.338 1206.75 923.343 1206.04 923.343 1205.19L923.343 1200.9 904.925 1200.9 904.925 1198.32C908.175 1193.8 911.402 1189.32 914.608 1184.86 917.815 1180.4 921.042 1175.91 924.292 1171.39Z" fill-rule="evenodd"/><text fill="#000000" fill-opacity="0" font-family="Arial,Arial_MSFontService,sans-serif" font-size="41.9077" x="904.925" y="1208.06">4</text><path d="M1243.95 824.816C1246.1 824.816 1247.66 825.377 1248.62 826.5 1249.58 827.624 1250.06 829.128 1250.06 831.015 1250.06 832.453 1249.8 834.1 1249.29 835.957 1248.79 837.813 1248.07 839.775 1247.14 841.841 1246.21 843.908 1245.1 846.027 1243.81 848.198 1242.53 850.369 1241.1 852.48 1239.55 854.532 1237.99 856.583 1236.33 858.515 1234.56 860.327 1232.79 862.138 1230.96 863.718 1229.06 865.066 1227.16 866.414 1225.22 867.484 1223.26 868.278 1221.3 869.071 1219.35 869.468 1217.4 869.468 1216.53 869.468 1215.8 869.251 1215.22 868.817 1214.64 868.383 1214.17 867.769 1213.81 866.975 1213.45 866.181 1213.19 865.246 1213.04 864.167 1212.89 863.089 1212.82 861.906 1212.82 860.619 1212.82 858.912 1212.92 857.085 1213.13 855.138 1213.34 853.192 1213.61 851.23 1213.94 849.253L1215.83 836.81C1215.95 836.091 1216.04 835.41 1216.12 834.766 1216.19 834.122 1216.23 833.651 1216.23 833.351 1216.23 832.423 1216.08 831.659 1215.78 831.06 1215.48 830.461 1214.97 830.162 1214.26 830.162 1213.69 830.162 1213.07 830.334 1212.41 830.678 1211.75 831.023 1211.09 831.464 1210.41 832.003 1209.74 832.542 1209.09 833.119 1208.46 833.733 1207.83 834.347 1207.25 834.923 1206.71 835.462L1204.55 832.947C1205.48 831.988 1206.47 831.038 1207.52 830.094 1208.57 829.151 1209.67 828.297 1210.84 827.534 1212.01 826.77 1213.24 826.156 1214.52 825.692 1215.81 825.228 1217.13 824.996 1218.48 824.996 1219.62 824.996 1220.54 825.183 1221.26 825.557 1221.98 825.931 1222.54 826.426 1222.95 827.04 1223.35 827.654 1223.63 828.327 1223.78 829.061 1223.93 829.795 1224 830.521 1224 831.24 1224 831.659 1223.99 832.063 1223.96 832.453 1223.93 832.842 1223.88 833.201 1223.82 833.531L1221.31 849.792C1221.04 851.5 1220.81 853.169 1220.63 854.801 1220.45 856.433 1220.36 857.878 1220.36 859.136 1220.36 860.394 1220.44 861.412 1220.59 862.191 1220.74 862.97 1221.02 863.359 1221.44 863.359 1222.43 863.359 1223.67 862.962 1225.17 862.168 1226.67 861.375 1228.24 860.282 1229.89 858.889 1231.54 857.497 1233.18 855.849 1234.83 853.948 1236.48 852.046 1237.96 849.987 1239.28 847.771 1240.59 845.555 1241.66 843.219 1242.49 840.763 1243.31 838.307 1243.72 835.837 1243.72 833.351 1243.72 832.273 1243.49 831.442 1243.03 830.858 1242.56 830.274 1241.84 829.982 1240.85 829.982 1239.59 829.982 1238.43 830.469 1237.37 831.442 1236.3 832.415 1235.2 833.695 1234.07 835.283L1231.51 832.992C1232.22 831.914 1233.07 830.88 1234.04 829.892 1235.02 828.904 1236.05 828.035 1237.14 827.287 1238.24 826.538 1239.37 825.939 1240.53 825.49 1241.7 825.041 1242.84 824.816 1243.95 824.816Z" fill-rule="evenodd"/><text fill="#000000" fill-opacity="0" font-family="Arial,Arial_MSFontService,sans-serif" font-size="44.6523" x="1204.55" y="863.887">ğ‘£</text><path d="M1279.24 843.469 1282.19 843.469 1281.73 851.385 1262.56 851.385 1262.56 864.177C1263.72 863.784 1264.98 863.468 1266.35 863.228 1267.73 862.988 1269.11 862.868 1270.51 862.868 1272.52 862.868 1274.33 863.146 1275.96 863.703 1277.58 864.259 1278.98 865.055 1280.14 866.091 1281.31 867.127 1282.22 868.381 1282.86 869.853 1283.5 871.325 1283.82 872.977 1283.82 874.809 1283.82 876.903 1283.46 878.768 1282.75 880.404 1282.03 882.039 1280.99 883.43 1279.65 884.575 1278.31 885.72 1276.68 886.592 1274.75 887.192 1272.82 887.792 1270.64 888.092 1268.22 888.092 1266.3 888.092 1264.34 887.906 1262.33 887.535 1260.32 887.165 1258.24 886.619 1256.08 885.9L1256.08 878.637 1260.27 878.637C1260.92 880.84 1261.91 882.416 1263.21 883.364 1264.52 884.313 1266.25 884.787 1268.38 884.787 1271.24 884.787 1273.4 884.046 1274.86 882.563 1276.32 881.08 1277.05 878.757 1277.05 875.594 1277.05 872.563 1276.28 870.311 1274.73 868.839 1273.18 867.367 1271.01 866.631 1268.22 866.631 1267.48 866.631 1266.81 866.642 1266.21 866.663 1265.61 866.685 1265.01 866.74 1264.42 866.827 1263.84 866.914 1263.25 867.034 1262.67 867.187 1262.1 867.339 1261.45 867.514 1260.73 867.71L1258.05 866.238 1258.05 845.66 1276.17 845.66C1276.69 845.639 1277.11 845.606 1277.43 845.562 1277.75 845.519 1278 845.42 1278.2 845.268 1278.39 845.115 1278.57 844.903 1278.72 844.63 1278.87 844.357 1279.05 843.97 1279.24 843.469Z" fill-rule="evenodd"/><text fill="#000000" fill-opacity="0" font-family="Arial,Arial_MSFontService,sans-serif" font-size="44.623" x="1256.08" y="882.514">5</text><path d="M1267.97 1146.23C1270.13 1146.23 1271.69 1146.79 1272.65 1147.91 1273.6 1149.03 1274.08 1150.54 1274.08 1152.43 1274.08 1153.86 1273.83 1155.51 1273.32 1157.37 1272.81 1159.22 1272.09 1161.19 1271.16 1163.25 1270.23 1165.32 1269.13 1167.44 1267.84 1169.61 1266.55 1171.78 1265.13 1173.89 1263.57 1175.94 1262.01 1177.99 1260.35 1179.93 1258.59 1181.74 1256.82 1183.55 1254.98 1185.13 1253.08 1186.48 1251.18 1187.82 1249.25 1188.9 1247.29 1189.69 1245.33 1190.48 1243.37 1190.88 1241.42 1190.88 1240.56 1190.88 1239.83 1190.66 1239.25 1190.23 1238.66 1189.79 1238.19 1189.18 1237.83 1188.39 1237.47 1187.59 1237.22 1186.66 1237.07 1185.58 1236.92 1184.5 1236.84 1183.32 1236.84 1182.03 1236.84 1180.32 1236.95 1178.5 1237.16 1176.55 1237.37 1174.6 1237.64 1172.64 1237.97 1170.66L1239.85 1158.22C1239.97 1157.5 1240.07 1156.82 1240.14 1156.18 1240.22 1155.53 1240.26 1155.06 1240.26 1154.76 1240.26 1153.83 1240.11 1153.07 1239.81 1152.47 1239.51 1151.87 1239 1151.57 1238.28 1151.57 1237.71 1151.57 1237.1 1151.74 1236.44 1152.09 1235.78 1152.43 1235.11 1152.88 1234.44 1153.41 1233.77 1153.95 1233.11 1154.53 1232.49 1155.14 1231.86 1155.76 1231.27 1156.33 1230.73 1156.87L1228.58 1154.36C1229.51 1153.4 1230.49 1152.45 1231.54 1151.51 1232.59 1150.56 1233.7 1149.71 1234.87 1148.94 1236.03 1148.18 1237.26 1147.57 1238.55 1147.1 1239.84 1146.64 1241.16 1146.41 1242.5 1146.41 1243.64 1146.41 1244.57 1146.59 1245.29 1146.97 1246.01 1147.34 1246.57 1147.84 1246.97 1148.45 1247.38 1149.06 1247.65 1149.74 1247.8 1150.47 1247.95 1151.21 1248.03 1151.93 1248.03 1152.65 1248.03 1153.07 1248.01 1153.47 1247.98 1153.86 1247.95 1154.25 1247.91 1154.61 1247.85 1154.94L1245.33 1171.2C1245.06 1172.91 1244.84 1174.58 1244.66 1176.21 1244.48 1177.84 1244.39 1179.29 1244.39 1180.55 1244.39 1181.81 1244.46 1182.82 1244.61 1183.6 1244.76 1184.38 1245.05 1184.77 1245.47 1184.77 1246.46 1184.77 1247.7 1184.37 1249.2 1183.58 1250.69 1182.79 1252.27 1181.69 1253.91 1180.3 1255.56 1178.91 1257.21 1177.26 1258.85 1175.36 1260.5 1173.46 1261.98 1171.4 1263.3 1169.18 1264.62 1166.97 1265.69 1164.63 1266.51 1162.17 1267.34 1159.72 1267.75 1157.25 1267.75 1154.76 1267.75 1153.68 1267.52 1152.85 1267.05 1152.27 1266.59 1151.69 1265.86 1151.39 1264.87 1151.39 1263.62 1151.39 1262.46 1151.88 1261.39 1152.85 1260.33 1153.83 1259.23 1155.11 1258.09 1156.69L1255.53 1154.4C1256.25 1153.32 1257.1 1152.29 1258.07 1151.3 1259.04 1150.31 1260.07 1149.45 1261.17 1148.7 1262.26 1147.95 1263.39 1147.35 1264.56 1146.9 1265.73 1146.45 1266.87 1146.23 1267.97 1146.23Z" fill-rule="evenodd"/><text fill="#000000" fill-opacity="0" font-family="Arial,Arial_MSFontService,sans-serif" font-size="44.6523" x="1228.58" y="1185.3">ğ‘£</text><path d="M1295.19 1187.13C1293.73 1187.13 1292.38 1187.32 1291.15 1187.71 1289.92 1188.11 1288.74 1188.64 1287.63 1189.32 1287.17 1189.62 1286.82 1189.91 1286.57 1190.17 1286.32 1190.43 1286.13 1190.74 1286.01 1191.1 1285.89 1191.46 1285.81 1191.91 1285.77 1192.44 1285.72 1192.98 1285.7 1193.7 1285.7 1194.62 1285.7 1202.34 1288.5 1206.2 1294.11 1206.2 1295.64 1206.2 1296.95 1205.97 1298.05 1205.53 1299.15 1205.08 1300.05 1204.44 1300.75 1203.6 1301.45 1202.76 1301.96 1201.72 1302.29 1200.49 1302.62 1199.26 1302.78 1197.86 1302.78 1196.29 1302.78 1193.36 1302.12 1191.11 1300.82 1189.51 1299.51 1187.92 1297.63 1187.13 1295.19 1187.13ZM1303.86 1166.45C1304.12 1166.76 1304.36 1167.05 1304.58 1167.33 1304.8 1167.62 1305.04 1167.9 1305.3 1168.18L1305.3 1170.11C1302.66 1170.07 1300.28 1170.42 1298.17 1171.16 1296.05 1171.9 1294.19 1172.99 1292.57 1174.42 1290.96 1175.84 1289.61 1177.6 1288.52 1179.68 1287.43 1181.77 1286.57 1184.12 1285.96 1186.73L1286.32 1186.9C1287.22 1186.29 1288.1 1185.76 1288.97 1185.31 1289.85 1184.86 1290.73 1184.49 1291.62 1184.2 1292.52 1183.9 1293.44 1183.69 1294.4 1183.56 1295.36 1183.43 1296.39 1183.36 1297.48 1183.36 1299.4 1183.36 1301.09 1183.65 1302.57 1184.21 1304.04 1184.78 1305.29 1185.61 1306.31 1186.7 1307.34 1187.79 1308.11 1189.1 1308.64 1190.63 1309.16 1192.15 1309.42 1193.85 1309.42 1195.73 1309.42 1197.71 1309.09 1199.56 1308.44 1201.26 1307.78 1202.96 1306.8 1204.42 1305.49 1205.64 1304.19 1206.86 1302.57 1207.81 1300.64 1208.49 1298.71 1209.16 1296.44 1209.5 1293.85 1209.5 1288.94 1209.5 1285.24 1208.1 1282.74 1205.3 1280.24 1202.5 1279 1198.37 1279 1192.92 1279 1190.47 1279.27 1188.13 1279.81 1185.9 1280.36 1183.66 1281.16 1181.58 1282.22 1179.65 1283.28 1177.72 1284.56 1175.98 1286.06 1174.42 1287.57 1172.86 1289.25 1171.5 1291.1 1170.36 1292.95 1169.21 1294.96 1168.31 1297.12 1167.64 1299.28 1166.98 1301.53 1166.58 1303.86 1166.45Z" fill-rule="evenodd"/><text fill="#000000" fill-opacity="0" font-family="Arial,Arial_MSFontService,sans-serif" font-size="43.0527" x="1279" y="1204.12">6</text><path d="M1509.91 904.053C1512.07 904.053 1513.63 904.615 1514.58 905.738 1515.54 906.861 1516.02 908.366 1516.02 910.253 1516.02 911.69 1515.77 913.337 1515.26 915.194 1514.75 917.051 1514.03 919.012 1513.1 921.079 1512.17 923.145 1511.07 925.264 1509.78 927.435 1508.49 929.606 1507.07 931.718 1505.51 933.769 1503.95 935.821 1502.29 937.752 1500.52 939.564 1498.76 941.376 1496.92 942.956 1495.02 944.303 1493.12 945.651 1491.19 946.722 1489.23 947.515 1487.26 948.309 1485.31 948.706 1483.36 948.706 1482.5 948.706 1481.77 948.489 1481.19 948.054 1480.6 947.62 1480.13 947.006 1479.77 946.213 1479.41 945.419 1479.16 944.483 1479.01 943.405 1478.86 942.327 1478.78 941.144 1478.78 939.856 1478.78 938.149 1478.89 936.322 1479.1 934.376 1479.31 932.429 1479.58 930.467 1479.91 928.491L1481.79 916.048C1481.91 915.329 1482.01 914.647 1482.08 914.004 1482.16 913.36 1482.2 912.888 1482.2 912.589 1482.2 911.66 1482.05 910.896 1481.75 910.298 1481.45 909.699 1480.94 909.399 1480.22 909.399 1479.65 909.399 1479.04 909.571 1478.38 909.916 1477.72 910.26 1477.05 910.702 1476.38 911.241 1475.7 911.78 1475.05 912.356 1474.42 912.97 1473.8 913.584 1473.21 914.161 1472.67 914.7L1470.52 912.184C1471.44 911.226 1472.43 910.275 1473.48 909.332 1474.53 908.388 1475.64 907.535 1476.81 906.771 1477.97 906.008 1479.2 905.394 1480.49 904.929 1481.78 904.465 1483.09 904.233 1484.44 904.233 1485.58 904.233 1486.51 904.42 1487.23 904.795 1487.95 905.169 1488.51 905.663 1488.91 906.277 1489.32 906.891 1489.59 907.565 1489.74 908.299 1489.89 909.032 1489.97 909.758 1489.97 910.477 1489.97 910.896 1489.95 911.301 1489.92 911.69 1489.89 912.079 1489.85 912.439 1489.79 912.768L1487.27 929.03C1487 930.737 1486.78 932.407 1486.6 934.039 1486.42 935.671 1486.33 937.116 1486.33 938.374 1486.33 939.632 1486.4 940.65 1486.55 941.428 1486.7 942.207 1486.99 942.596 1487.41 942.596 1488.4 942.596 1489.64 942.2 1491.14 941.406 1492.63 940.612 1494.21 939.519 1495.85 938.127 1497.5 936.734 1499.15 935.087 1500.79 933.185 1502.44 931.284 1503.92 929.225 1505.24 927.008 1506.56 924.792 1507.63 922.456 1508.45 920.001 1509.28 917.545 1509.69 915.074 1509.69 912.589 1509.69 911.51 1509.46 910.679 1508.99 910.095 1508.53 909.511 1507.8 909.219 1506.81 909.219 1505.56 909.219 1504.39 909.706 1503.33 910.679 1502.27 911.653 1501.17 912.933 1500.03 914.52L1497.47 912.229C1498.19 911.151 1499.03 910.118 1500.01 909.13 1500.98 908.141 1502.01 907.273 1503.11 906.524 1504.2 905.775 1505.33 905.176 1506.5 904.727 1507.67 904.278 1508.8 904.053 1509.91 904.053Z" fill-rule="evenodd"/><text fill="#000000" fill-opacity="0" font-family="Arial,Arial_MSFontService,sans-serif" font-size="44.6523" x="1470.52" y="943.124">ğ‘£</text><path d="M1522.47 924.898 1550.93 924.898 1550.93 926.468 1531.73 966.806 1526.73 966.806 1526.73 965.333 1544.33 931.114 1544.33 930.623 1530.45 930.623C1529.49 930.623 1528.75 930.699 1528.21 930.852 1527.68 931.005 1527.2 931.223 1526.79 931.506 1526.62 931.659 1526.46 931.817 1526.33 931.981 1526.2 932.144 1526.07 932.362 1525.94 932.635 1525.81 932.908 1525.67 933.268 1525.53 933.715 1525.39 934.162 1525.22 934.734 1525.02 935.432L1521.75 935.432Z" fill-rule="evenodd"/><text fill="#000000" fill-opacity="0" font-family="Arial,Arial_MSFontService,sans-serif" font-size="41.9077" x="1521.75" y="961.567">7</text><path d="M1525.19 1143.13C1527.35 1143.13 1528.9 1143.69 1529.86 1144.81 1530.82 1145.94 1531.3 1147.44 1531.3 1149.33 1531.3 1150.77 1531.05 1152.41 1530.54 1154.27 1530.03 1156.13 1529.31 1158.09 1528.38 1160.16 1527.45 1162.22 1526.34 1164.34 1525.06 1166.51 1523.77 1168.68 1522.35 1170.79 1520.79 1172.85 1519.23 1174.9 1517.57 1176.83 1515.8 1178.64 1514.03 1180.45 1512.2 1182.03 1510.3 1183.38 1508.4 1184.73 1506.47 1185.8 1504.5 1186.59 1502.54 1187.39 1500.59 1187.78 1498.64 1187.78 1497.77 1187.78 1497.05 1187.57 1496.46 1187.13 1495.88 1186.7 1495.41 1186.08 1495.05 1185.29 1494.69 1184.5 1494.43 1183.56 1494.28 1182.48 1494.13 1181.4 1494.06 1180.22 1494.06 1178.93 1494.06 1177.23 1494.16 1175.4 1494.37 1173.45 1494.58 1171.51 1494.85 1169.54 1495.18 1167.57L1497.07 1155.12C1497.19 1154.41 1497.29 1153.72 1497.36 1153.08 1497.44 1152.44 1497.47 1151.96 1497.47 1151.67 1497.47 1150.74 1497.32 1149.97 1497.02 1149.37 1496.72 1148.78 1496.22 1148.48 1495.5 1148.48 1494.93 1148.48 1494.31 1148.65 1493.66 1148.99 1493 1149.34 1492.33 1149.78 1491.66 1150.32 1490.98 1150.86 1490.33 1151.43 1489.7 1152.05 1489.07 1152.66 1488.49 1153.24 1487.95 1153.78L1485.79 1151.26C1486.72 1150.3 1487.71 1149.35 1488.76 1148.41 1489.81 1147.47 1490.92 1146.61 1492.08 1145.85 1493.25 1145.08 1494.48 1144.47 1495.77 1144.01 1497.05 1143.54 1498.37 1143.31 1499.72 1143.31 1500.86 1143.31 1501.79 1143.5 1502.5 1143.87 1503.22 1144.25 1503.79 1144.74 1504.19 1145.35 1504.59 1145.97 1504.87 1146.64 1505.02 1147.38 1505.17 1148.11 1505.25 1148.84 1505.25 1149.55 1505.25 1149.97 1505.23 1150.38 1505.2 1150.77 1505.17 1151.16 1505.13 1151.52 1505.07 1151.84L1502.55 1168.11C1502.28 1169.81 1502.06 1171.48 1501.88 1173.12 1501.7 1174.75 1501.61 1176.19 1501.61 1177.45 1501.61 1178.71 1501.68 1179.73 1501.83 1180.51 1501.98 1181.28 1502.27 1181.67 1502.68 1181.67 1503.67 1181.67 1504.92 1181.28 1506.41 1180.48 1507.91 1179.69 1509.48 1178.6 1511.13 1177.2 1512.78 1175.81 1514.42 1174.16 1516.07 1172.26 1517.72 1170.36 1519.2 1168.3 1520.52 1166.09 1521.84 1163.87 1522.91 1161.53 1523.73 1159.08 1524.55 1156.62 1524.97 1154.15 1524.97 1151.67 1524.97 1150.59 1524.73 1149.76 1524.27 1149.17 1523.81 1148.59 1523.08 1148.3 1522.09 1148.3 1520.83 1148.3 1519.67 1148.78 1518.61 1149.76 1517.55 1150.73 1516.45 1152.01 1515.31 1153.6L1512.75 1151.31C1513.47 1150.23 1514.31 1149.19 1515.29 1148.21 1516.26 1147.22 1517.29 1146.35 1518.38 1145.6 1519.48 1144.85 1520.61 1144.25 1521.78 1143.8 1522.94 1143.35 1524.08 1143.13 1525.19 1143.13Z" fill-rule="evenodd"/><text fill="#000000" fill-opacity="0" font-family="Arial,Arial_MSFontService,sans-serif" font-size="44.6523" x="1485.79" y="1182.2">ğ‘£</text><path d="M1551 1185.73C1549.52 1185.73 1548.23 1185.93 1547.16 1186.34 1546.08 1186.74 1545.19 1187.31 1544.49 1188.04 1543.79 1188.77 1543.28 1189.65 1542.97 1190.69 1542.65 1191.72 1542.49 1192.87 1542.49 1194.14 1542.49 1195.49 1542.67 1196.72 1543.02 1197.82 1543.37 1198.92 1543.91 1199.86 1544.64 1200.65 1545.37 1201.43 1546.27 1202.04 1547.35 1202.46 1548.43 1202.89 1549.69 1203.1 1551.13 1203.1 1552.64 1203.1 1553.91 1202.88 1554.94 1202.43 1555.98 1201.98 1556.83 1201.38 1557.49 1200.62 1558.16 1199.85 1558.64 1198.96 1558.95 1197.93 1559.25 1196.91 1559.41 1195.84 1559.41 1194.73 1559.41 1193.31 1559.21 1192.04 1558.82 1190.92 1558.43 1189.79 1557.86 1188.85 1557.13 1188.1 1556.4 1187.35 1555.51 1186.77 1554.47 1186.35 1553.42 1185.94 1552.26 1185.73 1551 1185.73ZM1551.06 1166.53C1548.45 1166.53 1546.45 1167.2 1545.08 1168.54 1543.7 1169.88 1543.02 1171.78 1543.02 1174.25 1543.02 1175.51 1543.17 1176.65 1543.49 1177.67 1543.81 1178.68 1544.3 1179.55 1544.98 1180.28 1545.66 1181.01 1546.51 1181.56 1547.53 1181.94 1548.56 1182.31 1549.77 1182.49 1551.16 1182.49 1552.67 1182.49 1553.93 1182.28 1554.94 1181.87 1555.96 1181.46 1556.77 1180.89 1557.4 1180.17 1558.02 1179.45 1558.47 1178.61 1558.75 1177.67 1559.04 1176.72 1559.18 1175.71 1559.18 1174.64 1559.18 1173.33 1558.98 1172.18 1558.57 1171.17 1558.17 1170.17 1557.61 1169.31 1556.9 1168.6 1556.2 1167.9 1555.34 1167.37 1554.35 1167.03 1553.36 1166.7 1552.26 1166.53 1551.06 1166.53ZM1551.16 1163.35C1553.71 1163.35 1555.91 1163.61 1557.75 1164.14 1559.6 1164.66 1561.11 1165.39 1562.3 1166.31 1563.49 1167.24 1564.37 1168.35 1564.95 1169.63 1565.53 1170.92 1565.82 1172.35 1565.82 1173.92 1565.82 1176.14 1565.21 1178.04 1563.99 1179.61 1562.77 1181.18 1560.91 1182.53 1558.43 1183.67 1558.43 1183.73 1558.43 1183.82 1558.44 1183.93 1558.45 1184.04 1558.46 1184.13 1558.46 1184.19 1561.03 1185.11 1562.95 1186.45 1564.22 1188.22 1565.48 1189.98 1566.11 1192.01 1566.11 1194.3 1566.11 1196.11 1565.75 1197.76 1565.03 1199.26 1564.31 1200.75 1563.28 1202.04 1561.93 1203.12 1560.57 1204.2 1558.95 1205.03 1557.05 1205.6 1555.15 1206.18 1553.02 1206.47 1550.64 1206.47 1548.41 1206.47 1546.39 1206.21 1544.57 1205.69 1542.75 1205.16 1541.19 1204.4 1539.89 1203.4 1538.59 1202.39 1537.59 1201.17 1536.88 1199.72 1536.17 1198.27 1535.82 1196.64 1535.82 1194.82 1535.82 1193.52 1536 1192.35 1536.36 1191.34 1536.72 1190.33 1537.23 1189.42 1537.88 1188.61 1538.53 1187.8 1539.34 1187.08 1540.29 1186.45 1541.23 1185.82 1542.3 1185.21 1543.47 1184.62L1543.47 1184.19C1541.03 1183.15 1539.24 1181.81 1538.09 1180.18 1536.95 1178.56 1536.38 1176.62 1536.38 1174.38 1536.33 1172.74 1536.69 1171.24 1537.46 1169.88 1538.22 1168.52 1539.27 1167.36 1540.61 1166.4 1541.95 1165.44 1543.54 1164.69 1545.37 1164.15 1547.2 1163.62 1549.13 1163.35 1551.16 1163.35Z" fill-rule="evenodd"/><text fill="#000000" fill-opacity="0" font-family="Arial,Arial_MSFontService,sans-serif" font-size="43.1182" x="1535.82" y="1201.08">8</text><path d="M872.5 852C872.5 819.691 898.691 793.5 931 793.5 963.309 793.5 989.5 819.691 989.5 852 989.5 884.309 963.309 910.5 931 910.5 898.691 910.5 872.5 884.309 872.5 852Z" stroke="#000000" stroke-width="4.58333" stroke-miterlimit="8" fill="none" fill-rule="evenodd"/><path d="M690.5 1035C690.5 1002.69 716.691 976.5 749 976.5 781.309 976.5 807.5 1002.69 807.5 1035 807.5 1067.31 781.309 1093.5 749 1093.5 716.691 1093.5 690.5 1067.31 690.5 1035Z" stroke="#000000" stroke-width="4.58333" stroke-miterlimit="8" fill="none" fill-rule="evenodd"/><path d="M1018.5 1026C1018.5 993.691 1044.69 967.5 1077 967.5 1109.31 967.5 1135.5 993.691 1135.5 1026 1135.5 1058.31 1109.31 1084.5 1077 1084.5 1044.69 1084.5 1018.5 1058.31 1018.5 1026Z" stroke="#000000" stroke-width="4.58333" stroke-miterlimit="8" fill="none" fill-rule="evenodd"/><path d="M840.5 1178C840.5 1145.69 866.467 1119.5 898.5 1119.5 930.533 1119.5 956.5 1145.69 956.5 1178 956.5 1210.31 930.533 1236.5 898.5 1236.5 866.467 1236.5 840.5 1210.31 840.5 1178Z" stroke="#000000" stroke-width="4.58333" stroke-miterlimit="8" fill="none" fill-rule="evenodd"/><path d="M1186.5 852C1186.5 819.691 1212.69 793.5 1245 793.5 1277.31 793.5 1303.5 819.691 1303.5 852 1303.5 884.309 1277.31 910.5 1245 910.5 1212.69 910.5 1186.5 884.309 1186.5 852Z" stroke="#000000" stroke-width="4.58333" stroke-miterlimit="8" fill="none" fill-rule="evenodd"/><path d="M1213.5 1172C1213.5 1139.69 1239.69 1113.5 1272 1113.5 1304.31 1113.5 1330.5 1139.69 1330.5 1172 1330.5 1204.31 1304.31 1230.5 1272 1230.5 1239.69 1230.5 1213.5 1204.31 1213.5 1172Z" stroke="#000000" stroke-width="4.58333" stroke-miterlimit="8" fill="none" fill-rule="evenodd"/><path d="M1452.5 931C1452.5 898.691 1478.69 872.5 1511 872.5 1543.31 872.5 1569.5 898.691 1569.5 931 1569.5 963.309 1543.31 989.5 1511 989.5 1478.69 989.5 1452.5 963.309 1452.5 931Z" stroke="#000000" stroke-width="4.58333" stroke-miterlimit="8" fill="none" fill-rule="evenodd"/><path d="M1467.5 1170C1467.5 1137.69 1493.69 1111.5 1526 1111.5 1558.31 1111.5 1584.5 1137.69 1584.5 1170 1584.5 1202.31 1558.31 1228.5 1526 1228.5 1493.69 1228.5 1467.5 1202.31 1467.5 1170Z" stroke="#000000" stroke-width="4.58333" stroke-miterlimit="8" fill="none" fill-rule="evenodd"/><path d="M0 0 99.8448 100.652" stroke="#000000" stroke-width="4.58333" stroke-miterlimit="8" fill="none" fill-rule="evenodd" transform="matrix(-1 0 0 1 889.345 893.5)"/><path d="M856.748 1136.38 789.5 1076.5" stroke="#000000" stroke-width="4.58333" stroke-miterlimit="8" fill="none" fill-rule="evenodd"/><path d="M0 0 95.8725 69.0474" stroke="#000000" stroke-width="4.58333" stroke-miterlimit="8" fill="none" fill-rule="evenodd" transform="matrix(1 0 0 -1 939.5 1136.55)"/><path d="M1035.78 984.987 972.5 893.5" stroke="#000000" stroke-width="4.58333" stroke-miterlimit="8" fill="none" fill-rule="evenodd"/><path d="M1118.5 1067.5 1213.35 1171.87" stroke="#000000" stroke-width="4.58333" stroke-miterlimit="8" fill="none" fill-rule="evenodd"/><path d="M1244.5 910.5 1271.58 1113.45" stroke="#000000" stroke-width="4.58333" stroke-miterlimit="8" fill="none" fill-rule="evenodd"/><path d="M0 0 84.8884 91.4869" stroke="#000000" stroke-width="4.58333" stroke-miterlimit="8" fill="none" fill-rule="evenodd" transform="matrix(-1 0 0 1 1203.39 893.5)"/><path d="M0 0 211.554 9.16522" stroke="#000000" stroke-width="4.58333" stroke-miterlimit="8" fill="none" fill-rule="evenodd" transform="matrix(1 0 0 -1 807.5 1034.67)"/><path d="M1303.5 851.5 1452.54 930.737" stroke="#000000" stroke-width="4.58333" stroke-miterlimit="8" fill="none" fill-rule="evenodd"/><path d="M0 0 156.203 157.965" stroke="#000000" stroke-width="4.58333" stroke-miterlimit="8" fill="none" fill-rule="evenodd" transform="matrix(1 0 0 -1 1313.5 1130.46)"/><path d="M0 0 137.232 1.56916" stroke="#000000" stroke-width="4.58333" stroke-miterlimit="8" fill="none" fill-rule="evenodd" transform="matrix(1 0 0 -1 1330.5 1172.07)"/><path d="M1510.5 989.5 1525.78 1111.65" stroke="#000000" stroke-width="4.58333" stroke-miterlimit="8" fill="none" fill-rule="evenodd"/><path d="M1772.5 784.5C1772.5 770.141 1784.14 758.5 1798.5 758.5 1812.86 758.5 1824.5 770.141 1824.5 784.5 1824.5 798.859 1812.86 810.5 1798.5 810.5 1784.14 810.5 1772.5 798.859 1772.5 784.5Z" stroke="#000000" stroke-width="4.58333" stroke-miterlimit="8" fill="none" fill-rule="evenodd"/><path d="M1708.5 874.5C1708.5 860.141 1720.14 848.5 1734.5 848.5 1748.86 848.5 1760.5 860.141 1760.5 874.5 1760.5 888.859 1748.86 900.5 1734.5 900.5 1720.14 900.5 1708.5 888.859 1708.5 874.5Z" stroke="#000000" stroke-width="4.58333" stroke-miterlimit="8" fill="none" fill-rule="evenodd"/><path d="M0 0 27.443 53.4987" stroke="#000000" stroke-width="4.58333" stroke-miterlimit="8" fill="none" fill-rule="evenodd" transform="matrix(1 0 0 -1 1752.5 856.999)"/><path d="M1836.5 874.5C1836.5 860.141 1848.14 848.5 1862.5 848.5 1876.86 848.5 1888.5 860.141 1888.5 874.5 1888.5 888.859 1876.86 900.5 1862.5 900.5 1848.14 900.5 1836.5 888.859 1836.5 874.5Z" stroke="#000000" stroke-width="4.58333" stroke-miterlimit="8" fill="none" fill-rule="evenodd"/><path d="M1760.5 874.5 1836.87 874.5" stroke="#000000" stroke-width="4.58333" stroke-miterlimit="8" fill="none" fill-rule="evenodd"/><path d="M1817.5 803.5 1844.9 856.998" stroke="#000000" stroke-width="4.58333" stroke-miterlimit="8" fill="none" fill-rule="evenodd"/><text font-family="Times New Roman,Times New Roman_MSFontService,sans-serif" font-weight="400" font-size="92" transform="matrix(1 0 0 1 1960.09 862)">#triangles = 5</text><path d="M1772.5 969.5C1772.5 955.141 1784.14 943.5 1798.5 943.5 1812.86 943.5 1824.5 955.141 1824.5 969.5 1824.5 983.859 1812.86 995.5 1798.5 995.5 1784.14 995.5 1772.5 983.859 1772.5 969.5Z" stroke="#000000" stroke-width="4.58333" stroke-miterlimit="8" fill="none" fill-rule="evenodd"/><path d="M1708.5 1059.5C1708.5 1045.14 1720.14 1033.5 1734.5 1033.5 1748.86 1033.5 1760.5 1045.14 1760.5 1059.5 1760.5 1073.86 1748.86 1085.5 1734.5 1085.5 1720.14 1085.5 1708.5 1073.86 1708.5 1059.5Z" stroke="#000000" stroke-width="4.58333" stroke-miterlimit="8" fill="none" fill-rule="evenodd"/><path d="M0 0 27.443 53.4987" stroke="#000000" stroke-width="4.58333" stroke-miterlimit="8" fill="none" fill-rule="evenodd" transform="matrix(1 0 0 -1 1752.5 1041)"/><path d="M1836.5 1059.5C1836.5 1045.14 1848.14 1033.5 1862.5 1033.5 1876.86 1033.5 1888.5 1045.14 1888.5 1059.5 1888.5 1073.86 1876.86 1085.5 1862.5 1085.5 1848.14 1085.5 1836.5 1073.86 1836.5 1059.5Z" stroke="#000000" stroke-width="4.58333" stroke-miterlimit="8" fill="none" fill-rule="evenodd"/><path d="M1817.5 987.5 1844.9 1041" stroke="#000000" stroke-width="4.58333" stroke-miterlimit="8" fill="none" fill-rule="evenodd"/><text font-family="Times New Roman,Times New Roman_MSFontService,sans-serif" font-weight="400" font-size="92" transform="matrix(1 0 0 1 1972.69 1047)">#2<tspan font-size="92" x="91.6666" y="0">-</tspan><tspan font-size="92" x="122.031" y="0">stars = 28</tspan></text><path d="M1716.5 1147C1716.5 1132.92 1728.14 1121.5 1742.5 1121.5 1756.86 1121.5 1768.5 1132.92 1768.5 1147 1768.5 1161.08 1756.86 1172.5 1742.5 1172.5 1728.14 1172.5 1716.5 1161.08 1716.5 1147Z" stroke="#000000" stroke-width="4.58333" stroke-miterlimit="8" fill="none" fill-rule="evenodd"/><path d="M1716.5 1251C1716.5 1236.92 1728.14 1225.5 1742.5 1225.5 1756.86 1225.5 1768.5 1236.92 1768.5 1251 1768.5 1265.08 1756.86 1276.5 1742.5 1276.5 1728.14 1276.5 1716.5 1265.08 1716.5 1251Z" stroke="#000000" stroke-width="4.58333" stroke-miterlimit="8" fill="none" fill-rule="evenodd"/><path d="M0 0 61.4466 0.274639" stroke="#000000" stroke-width="4.58333" stroke-miterlimit="8" fill="none" fill-rule="evenodd" transform="matrix(1 0 0 -1 1768.5 1146.77)"/><path d="M1829.5 1251C1829.5 1236.92 1841.14 1225.5 1855.5 1225.5 1869.86 1225.5 1881.5 1236.92 1881.5 1251 1881.5 1265.08 1869.86 1276.5 1855.5 1276.5 1841.14 1276.5 1829.5 1265.08 1829.5 1251Z" stroke="#000000" stroke-width="4.58333" stroke-miterlimit="8" fill="none" fill-rule="evenodd"/><path d="M1768.5 1251.5 1829.97 1251.5" stroke="#000000" stroke-width="4.58333" stroke-miterlimit="8" fill="none" fill-rule="evenodd"/><path d="M0 0 0.0238189 52.0277" stroke="#000000" stroke-width="4.58333" stroke-miterlimit="8" fill="none" fill-rule="evenodd" transform="matrix(-1 0 0 1 1742.52 1172.5)"/><text font-family="Times New Roman,Times New Roman_MSFontService,sans-serif" font-weight="400" font-size="92" transform="matrix(1 0 0 1 1964.96 1231)">#4<tspan font-size="92" x="91.6668" y="0">-</tspan><tspan font-size="92" x="122.031" y="0">cycles = 3</tspan></text><path d="M1829.5 1146.5C1829.5 1132.14 1841.14 1120.5 1855.5 1120.5 1869.86 1120.5 1881.5 1132.14 1881.5 1146.5 1881.5 1160.86 1869.86 1172.5 1855.5 1172.5 1841.14 1172.5 1829.5 1160.86 1829.5 1146.5Z" stroke="#000000" stroke-width="4.58333" stroke-miterlimit="8" fill="none" fill-rule="evenodd"/><path d="M1855.5 1172.5 1855.5 1224.8" stroke="#000000" stroke-width="4.58333" stroke-miterlimit="8" fill="none" fill-rule="evenodd"/><rect x="1684.5" y="732.5" width="824" height="558" stroke="#000000" stroke-width="4.58333" stroke-miterlimit="8" fill="none"/><path d="M1684.5 920.5 2507.21 920.5" stroke="#000000" stroke-width="4.58333" stroke-miterlimit="8" fill="none" fill-rule="evenodd"/><path d="M1684.5 1101.5 2507.21 1101.5" stroke="#000000" stroke-width="4.58333" stroke-miterlimit="8" fill="none" fill-rule="evenodd"/><path d="M1914.5 732.5 1914.5 1291.16" stroke="#000000" stroke-width="4.58333" stroke-miterlimit="8" fill="none" fill-rule="evenodd"/></g></svg>