<svg width="2221" height="514" xmlns="http://www.w3.org/2000/svg" xmlns:xlink="http://www.w3.org/1999/xlink" overflow="hidden"><defs><clipPath id="clip0"><rect x="639" y="928" width="2221" height="514"/></clipPath></defs><g clip-path="url(#clip0)" transform="translate(-639 -928)"><rect x="2429.5" y="1110.5" width="427" height="256" stroke="#000000" stroke-width="3.4375" stroke-miterlimit="8" fill="#FFFFFF"/><text font-family="Times New Roman,Times New Roman_MSFontService,sans-serif" font-weight="400" font-size="92" transform="matrix(1 0 0 1 2557.73 1216)">Data <tspan font-size="92" x="-73.3335" y="110">collector</tspan></text><rect x="640.5" y="1108.5" width="369" height="259" stroke="#000000" stroke-width="3.4375" stroke-miterlimit="8" fill="#FFFFFF"/><text font-family="Times New Roman,Times New Roman_MSFontService,sans-serif" font-weight="400" font-size="92" transform="matrix(1 0 0 1 719.766 1267)">Users</text><path d="M5.84013e-07-2.29167 1374.89-2.29132 1374.89 2.29202-5.84013e-07 2.29167ZM1370.31-22.9163 1416.14 0.000360892 1370.31 22.917Z" transform="matrix(-1 0 0 1 2425.64 1200.5)"/><text font-family="Times New Roman,Times New Roman_MSFontService,sans-serif" font-weight="400" font-size="92" transform="matrix(1 0 0 1 1304.35 1045)">independent <tspan font-size="92" x="470.365" y="0">user</tspan><tspan font-size="92" x="620.927" y="0">-</tspan><tspan font-size="92" x="651.292" y="0">pairs</tspan><tspan font-size="92" x="-165.046" y="110">(e.g., </tspan></text><path d="M1604.29 1085.78C1613.04 1088.09 1619.75 1093.07 1624.44 1100.72 1629.13 1108.37 1631.47 1117.6 1631.47 1128.41 1631.47 1139.26 1629.13 1148.49 1624.46 1156.11 1619.79 1163.73 1613.07 1168.69 1604.29 1171L1603.21 1167.54C1610.13 1165.24 1615.27 1160.68 1618.64 1153.89 1622.01 1147.09 1623.7 1138.45 1623.7 1127.97 1623.7 1117.84 1622.02 1109.43 1618.67 1102.74 1615.31 1096.05 1610.12 1091.55 1603.08 1089.24ZM1383.11 1085.78 1384.32 1089.24C1377.31 1091.55 1372.12 1096.05 1368.76 1102.74 1365.39 1109.43 1363.7 1117.84 1363.7 1127.97 1363.7 1138.45 1365.39 1147.09 1368.76 1153.89 1372.12 1160.68 1377.27 1165.24 1384.19 1167.54L1383.11 1171C1374.33 1168.69 1367.61 1163.73 1362.94 1156.11 1358.27 1148.49 1355.93 1139.26 1355.93 1128.41 1355.93 1117.6 1358.27 1108.37 1362.96 1100.72 1367.65 1093.07 1374.36 1088.09 1383.11 1085.78Z" fill-rule="evenodd"/><path d="M1428.43 1110.77C1430.58 1110.77 1432.14 1111.33 1433.1 1112.46 1434.06 1113.58 1434.54 1115.08 1434.54 1116.97 1434.54 1118.41 1434.28 1120.06 1433.77 1121.91 1433.26 1123.77 1432.55 1125.73 1431.62 1127.8 1430.69 1129.86 1429.58 1131.98 1428.29 1134.15 1427 1136.32 1425.58 1138.44 1424.02 1140.49 1422.47 1142.54 1420.81 1144.47 1419.04 1146.28 1417.27 1148.09 1415.44 1149.67 1413.54 1151.02 1411.63 1152.37 1409.7 1153.44 1407.74 1154.23 1405.78 1155.03 1403.83 1155.42 1401.88 1155.42 1401.01 1155.42 1400.28 1155.21 1399.7 1154.77 1399.12 1154.34 1398.64 1153.72 1398.28 1152.93 1397.93 1152.14 1397.67 1151.2 1397.52 1150.12 1397.37 1149.05 1397.3 1147.86 1397.3 1146.57 1397.3 1144.87 1397.4 1143.04 1397.61 1141.09 1397.82 1139.15 1398.09 1137.19 1398.42 1135.21L1400.31 1122.77C1400.43 1122.05 1400.52 1121.37 1400.6 1120.72 1400.67 1120.08 1400.71 1119.61 1400.71 1119.31 1400.71 1118.38 1400.56 1117.61 1400.26 1117.02 1399.96 1116.42 1399.45 1116.12 1398.73 1116.12 1398.16 1116.12 1397.55 1116.29 1396.89 1116.63 1396.23 1116.98 1395.57 1117.42 1394.89 1117.96 1394.22 1118.5 1393.57 1119.07 1392.94 1119.69 1392.31 1120.3 1391.73 1120.88 1391.19 1121.42L1389.03 1118.9C1389.96 1117.94 1390.95 1116.99 1392 1116.05 1393.04 1115.11 1394.15 1114.25 1395.32 1113.49 1396.49 1112.73 1397.72 1112.11 1399 1111.65 1400.29 1111.18 1401.61 1110.95 1402.96 1110.95 1404.09 1110.95 1405.02 1111.14 1405.74 1111.51 1406.46 1111.89 1407.02 1112.38 1407.43 1113 1407.83 1113.61 1408.11 1114.28 1408.26 1115.02 1408.41 1115.75 1408.48 1116.48 1408.48 1117.2 1408.48 1117.61 1408.47 1118.02 1408.44 1118.41 1408.41 1118.8 1408.36 1119.16 1408.3 1119.49L1405.79 1135.75C1405.52 1137.46 1405.29 1139.12 1405.11 1140.76 1404.93 1142.39 1404.84 1143.83 1404.84 1145.09 1404.84 1146.35 1404.92 1147.37 1405.07 1148.15 1405.22 1148.93 1405.5 1149.31 1405.92 1149.31 1406.91 1149.31 1408.15 1148.92 1409.65 1148.12 1411.15 1147.33 1412.72 1146.24 1414.37 1144.84 1416.01 1143.45 1417.66 1141.81 1419.31 1139.9 1420.96 1138 1422.44 1135.94 1423.76 1133.73 1425.07 1131.51 1426.14 1129.17 1426.97 1126.72 1427.79 1124.26 1428.2 1121.79 1428.2 1119.31 1428.2 1118.23 1427.97 1117.4 1427.51 1116.81 1427.04 1116.23 1426.32 1115.94 1425.33 1115.94 1424.07 1115.94 1422.91 1116.42 1421.85 1117.4 1420.78 1118.37 1419.68 1119.65 1418.54 1121.24L1415.98 1118.95C1416.7 1117.87 1417.55 1116.84 1418.52 1115.85 1419.5 1114.86 1420.53 1113.99 1421.62 1113.24 1422.71 1112.49 1423.85 1111.89 1425.01 1111.45 1426.18 1111 1427.32 1110.77 1428.43 1110.77Z" fill-rule="evenodd"/><text fill="#000000" fill-opacity="0" font-family="Arial,Arial_MSFontService,sans-serif" font-size="44.6523" x="1389.03" y="1149.84">ğ‘£</text><path d="M1454.79 1131.22 1456.78 1131.22C1456.74 1132.42 1456.71 1133.5 1456.68 1134.45 1456.66 1135.39 1456.65 1136.32 1456.64 1137.21 1456.62 1138.1 1456.62 1138.99 1456.62 1139.86L1456.62 1164.72C1456.62 1165.4 1456.64 1165.98 1456.68 1166.47 1456.73 1166.96 1456.8 1167.38 1456.9 1167.72 1457 1168.06 1457.13 1168.34 1457.29 1168.58 1457.45 1168.82 1457.64 1169.03 1457.86 1169.21 1458.12 1169.47 1458.47 1169.67 1458.91 1169.81 1459.35 1169.95 1459.9 1170.07 1460.58 1170.17 1461.25 1170.27 1462.07 1170.35 1463.02 1170.4 1463.96 1170.45 1465.1 1170.49 1466.43 1170.51L1466.43 1173.36 1440.49 1173.36 1440.49 1170.51C1441.78 1170.47 1442.87 1170.42 1443.76 1170.37 1444.66 1170.31 1445.42 1170.24 1446.05 1170.14 1446.69 1170.04 1447.19 1169.93 1447.57 1169.81 1447.96 1169.69 1448.29 1169.54 1448.57 1169.37 1448.88 1169.17 1449.14 1168.96 1449.36 1168.73 1449.57 1168.5 1449.75 1168.21 1449.88 1167.86 1450.01 1167.52 1450.11 1167.09 1450.19 1166.59 1450.27 1166.09 1450.31 1165.47 1450.31 1164.72L1450.31 1141.27C1450.31 1140.42 1450.14 1139.82 1449.81 1139.47 1449.49 1139.12 1449.02 1138.94 1448.41 1138.94 1447.73 1138.94 1446.73 1139.29 1445.4 1139.99 1444.07 1140.69 1442.34 1141.73 1440.23 1143.1 1439.95 1142.6 1439.68 1142.1 1439.44 1141.59 1439.2 1141.09 1438.95 1140.58 1438.69 1140.06 1441.4 1138.57 1444.07 1137.1 1446.72 1135.62 1449.37 1134.15 1452.06 1132.68 1454.79 1131.22Z" fill-rule="evenodd"/><text fill="#000000" fill-opacity="0" font-family="Arial,Arial_MSFontService,sans-serif" font-size="42.1367" x="1438.69" y="1168.09">1</text><path d="M1481.49 1144.24 1489.35 1144.24C1489.77 1146.33 1489.98 1148.4 1489.98 1150.44 1489.98 1152.53 1489.62 1154.45 1488.9 1156.19 1488.18 1157.92 1487.03 1159.65 1485.46 1161.38 1483.89 1163.1 1481.73 1164.99 1478.97 1167.06L1476.55 1164.32C1478.07 1162.88 1479.18 1161.59 1479.87 1160.43 1480.56 1159.28 1481.05 1157.97 1481.35 1156.5 1481.65 1155.03 1481.8 1153.19 1481.8 1150.98 1481.8 1148.7 1481.7 1146.45 1481.49 1144.24Z" fill-rule="evenodd"/><text fill="#000000" fill-opacity="0" font-family="Arial,Arial_MSFontService,sans-serif" font-size="22.8203" x="1476.55" y="1164.21">,</text><path d="M1552.2 1110.77C1554.36 1110.77 1555.91 1111.33 1556.87 1112.46 1557.83 1113.58 1558.31 1115.08 1558.31 1116.97 1558.31 1118.41 1558.06 1120.06 1557.55 1121.91 1557.04 1123.77 1556.32 1125.73 1555.39 1127.8 1554.46 1129.86 1553.35 1131.98 1552.07 1134.15 1550.78 1136.32 1549.36 1138.44 1547.8 1140.49 1546.24 1142.54 1544.58 1144.47 1542.81 1146.28 1541.04 1148.09 1539.21 1149.67 1537.31 1151.02 1535.41 1152.37 1533.48 1153.44 1531.51 1154.23 1529.55 1155.03 1527.6 1155.42 1525.65 1155.42 1524.78 1155.42 1524.06 1155.21 1523.47 1154.77 1522.89 1154.34 1522.42 1153.72 1522.06 1152.93 1521.7 1152.14 1521.44 1151.2 1521.29 1150.12 1521.14 1149.05 1521.07 1147.86 1521.07 1146.57 1521.07 1144.87 1521.17 1143.04 1521.38 1141.09 1521.59 1139.15 1521.86 1137.19 1522.19 1135.21L1524.08 1122.77C1524.2 1122.05 1524.3 1121.37 1524.37 1120.72 1524.45 1120.08 1524.48 1119.61 1524.48 1119.31 1524.48 1118.38 1524.33 1117.61 1524.03 1117.02 1523.73 1116.42 1523.23 1116.12 1522.51 1116.12 1521.94 1116.12 1521.32 1116.29 1520.67 1116.63 1520.01 1116.98 1519.34 1117.42 1518.67 1117.96 1517.99 1118.5 1517.34 1119.07 1516.71 1119.69 1516.08 1120.3 1515.5 1120.88 1514.96 1121.42L1512.8 1118.9C1513.73 1117.94 1514.72 1116.99 1515.77 1116.05 1516.82 1115.11 1517.92 1114.25 1519.09 1113.49 1520.26 1112.73 1521.49 1112.11 1522.78 1111.65 1524.06 1111.18 1525.38 1110.95 1526.73 1110.95 1527.87 1110.95 1528.8 1111.14 1529.51 1111.51 1530.23 1111.89 1530.79 1112.38 1531.2 1113 1531.6 1113.61 1531.88 1114.28 1532.03 1115.02 1532.18 1115.75 1532.25 1116.48 1532.25 1117.2 1532.25 1117.61 1532.24 1118.02 1532.21 1118.41 1532.18 1118.8 1532.14 1119.16 1532.08 1119.49L1529.56 1135.75C1529.29 1137.46 1529.07 1139.12 1528.89 1140.76 1528.71 1142.39 1528.62 1143.83 1528.62 1145.09 1528.62 1146.35 1528.69 1147.37 1528.84 1148.15 1528.99 1148.93 1529.28 1149.31 1529.69 1149.31 1530.68 1149.31 1531.93 1148.92 1533.42 1148.12 1534.92 1147.33 1536.49 1146.24 1538.14 1144.84 1539.79 1143.45 1541.43 1141.81 1543.08 1139.9 1544.73 1138 1546.21 1135.94 1547.53 1133.73 1548.85 1131.51 1549.92 1129.17 1550.74 1126.72 1551.56 1124.26 1551.98 1121.79 1551.98 1119.31 1551.98 1118.23 1551.74 1117.4 1551.28 1116.81 1550.82 1116.23 1550.09 1115.94 1549.1 1115.94 1547.84 1115.94 1546.68 1116.42 1545.62 1117.4 1544.56 1118.37 1543.46 1119.65 1542.32 1121.24L1539.76 1118.95C1540.48 1117.87 1541.32 1116.84 1542.29 1115.85 1543.27 1114.86 1544.3 1113.99 1545.39 1113.24 1546.49 1112.49 1547.62 1111.89 1548.79 1111.45 1549.95 1111 1551.09 1110.77 1552.2 1110.77Z" fill-rule="evenodd"/><text fill="#000000" fill-opacity="0" font-family="Arial,Arial_MSFontService,sans-serif" font-size="44.6523" x="1512.8" y="1149.84">ğ‘£</text><path d="M1578.07 1130.99C1579.82 1130.99 1581.45 1131.18 1582.97 1131.55 1584.48 1131.92 1585.8 1132.48 1586.91 1133.24 1588.02 1133.99 1588.89 1134.93 1589.51 1136.05 1590.13 1137.17 1590.44 1138.48 1590.44 1139.96 1590.44 1141.35 1590.24 1142.59 1589.85 1143.66 1589.46 1144.72 1588.85 1145.69 1588.04 1146.57 1587.22 1147.44 1586.21 1148.23 1585.03 1148.94 1583.84 1149.65 1582.47 1150.33 1580.92 1150.98L1580.92 1151.38C1582.38 1151.64 1583.74 1152.06 1585.01 1152.64 1586.28 1153.21 1587.38 1153.94 1588.33 1154.83 1589.28 1155.71 1590.03 1156.73 1590.57 1157.89 1591.12 1159.04 1591.39 1160.32 1591.39 1161.71 1591.39 1163.46 1591.06 1165.08 1590.41 1166.57 1589.75 1168.07 1588.77 1169.36 1587.46 1170.45 1586.16 1171.54 1584.54 1172.39 1582.62 1173 1580.7 1173.61 1578.46 1173.92 1575.88 1173.92 1573.85 1173.92 1571.79 1173.71 1569.7 1173.31 1567.61 1172.91 1565.62 1172.38 1563.75 1171.72L1563.75 1164.66 1567.97 1164.66C1568.31 1165.75 1568.73 1166.68 1569.21 1167.46 1569.69 1168.23 1570.25 1168.86 1570.89 1169.35 1571.54 1169.84 1572.28 1170.2 1573.12 1170.42 1573.96 1170.63 1574.91 1170.74 1575.98 1170.74 1578.79 1170.74 1580.93 1170.07 1582.38 1168.73 1583.83 1167.39 1584.55 1165.36 1584.55 1162.63 1584.55 1159.73 1583.6 1157.53 1581.69 1156.04 1579.78 1154.54 1576.95 1153.8 1573.2 1153.8L1570.32 1153.8 1570.32 1150.66C1572.61 1150.55 1574.59 1150.23 1576.26 1149.69 1577.93 1149.16 1579.32 1148.46 1580.43 1147.61 1581.54 1146.76 1582.37 1145.77 1582.92 1144.64 1583.46 1143.5 1583.73 1142.29 1583.73 1141.01 1583.73 1138.91 1583.11 1137.26 1581.87 1136.05 1580.63 1134.84 1578.83 1134.23 1576.47 1134.23 1574.49 1134.23 1572.82 1134.78 1571.48 1135.87 1570.14 1136.96 1569.11 1138.58 1568.39 1140.74L1564.24 1140.74 1564.24 1134.3C1566.81 1133.21 1569.24 1132.39 1571.52 1131.83 1573.79 1131.27 1575.98 1130.99 1578.07 1130.99Z" fill-rule="evenodd"/><text fill="#000000" fill-opacity="0" font-family="Arial,Arial_MSFontService,sans-serif" font-size="42.9219" x="1563.75" y="1168.55">3</text><path d="M1645.43 1144.24 1653.29 1144.24C1653.71 1146.33 1653.92 1148.4 1653.92 1150.44 1653.92 1152.53 1653.56 1154.45 1652.84 1156.19 1652.13 1157.92 1650.98 1159.65 1649.41 1161.38 1647.84 1163.1 1645.67 1164.99 1642.92 1167.06L1640.49 1164.32C1642.02 1162.88 1643.13 1161.59 1643.82 1160.43 1644.5 1159.28 1645 1157.97 1645.3 1156.5 1645.6 1155.03 1645.75 1153.19 1645.75 1150.98 1645.75 1148.7 1645.64 1146.45 1645.43 1144.24Z" fill-rule="evenodd"/><text fill="#000000" fill-opacity="0" font-family="Arial,Arial_MSFontService,sans-serif" font-size="22.8203" x="1640.49" y="1164.21">,</text><path d="M1932.18 1085.78C1940.93 1088.09 1947.64 1093.07 1952.33 1100.72 1957.02 1108.37 1959.36 1117.6 1959.36 1128.41 1959.36 1139.26 1957.03 1148.49 1952.35 1156.11 1947.68 1163.73 1940.96 1168.69 1932.18 1171L1931.11 1167.54C1938.02 1165.24 1943.17 1160.68 1946.54 1153.89 1949.91 1147.09 1951.59 1138.45 1951.59 1127.97 1951.59 1117.84 1949.91 1109.43 1946.56 1102.74 1943.2 1096.05 1938.01 1091.55 1930.97 1089.24ZM1708.87 1085.78 1710.08 1089.24C1703.07 1091.55 1697.89 1096.05 1694.52 1102.74 1691.15 1109.43 1689.46 1117.84 1689.46 1127.97 1689.46 1138.45 1691.15 1147.09 1694.52 1153.89 1697.89 1160.68 1703.03 1165.24 1709.95 1167.54L1708.87 1171C1700.09 1168.69 1693.37 1163.73 1688.7 1156.11 1684.03 1148.49 1681.69 1139.26 1681.69 1128.41 1681.69 1117.6 1684.03 1108.37 1688.72 1100.72 1693.41 1093.07 1700.12 1088.09 1708.87 1085.78Z" fill-rule="evenodd"/><path d="M1754.19 1110.77C1756.34 1110.77 1757.9 1111.33 1758.86 1112.46 1759.82 1113.58 1760.3 1115.08 1760.3 1116.97 1760.3 1118.41 1760.04 1120.06 1759.53 1121.91 1759.02 1123.77 1758.31 1125.73 1757.38 1127.8 1756.45 1129.86 1755.34 1131.98 1754.05 1134.15 1752.77 1136.32 1751.34 1138.44 1749.79 1140.49 1748.23 1142.54 1746.57 1144.47 1744.8 1146.28 1743.03 1148.09 1741.2 1149.67 1739.3 1151.02 1737.39 1152.37 1735.46 1153.44 1733.5 1154.23 1731.54 1155.03 1729.59 1155.42 1727.64 1155.42 1726.77 1155.42 1726.04 1155.21 1725.46 1154.77 1724.88 1154.34 1724.4 1153.72 1724.05 1152.93 1723.69 1152.14 1723.43 1151.2 1723.28 1150.12 1723.13 1149.05 1723.06 1147.86 1723.06 1146.57 1723.06 1144.87 1723.16 1143.04 1723.37 1141.09 1723.58 1139.15 1723.85 1137.19 1724.18 1135.21L1726.07 1122.77C1726.19 1122.05 1726.28 1121.37 1726.36 1120.72 1726.43 1120.08 1726.47 1119.61 1726.47 1119.31 1726.47 1118.38 1726.32 1117.61 1726.02 1117.02 1725.72 1116.42 1725.21 1116.12 1724.49 1116.12 1723.93 1116.12 1723.31 1116.29 1722.65 1116.63 1721.99 1116.98 1721.33 1117.42 1720.65 1117.96 1719.98 1118.5 1719.33 1119.07 1718.7 1119.69 1718.07 1120.3 1717.49 1120.88 1716.95 1121.42L1714.79 1118.9C1715.72 1117.94 1716.71 1116.99 1717.76 1116.05 1718.8 1115.11 1719.91 1114.25 1721.08 1113.49 1722.25 1112.73 1723.48 1112.11 1724.76 1111.65 1726.05 1111.18 1727.37 1110.95 1728.72 1110.95 1729.85 1110.95 1730.78 1111.14 1731.5 1111.51 1732.22 1111.89 1732.78 1112.38 1733.19 1113 1733.59 1113.61 1733.87 1114.28 1734.02 1115.02 1734.17 1115.75 1734.24 1116.48 1734.24 1117.2 1734.24 1117.61 1734.23 1118.02 1734.2 1118.41 1734.17 1118.8 1734.12 1119.16 1734.06 1119.49L1731.55 1135.75C1731.28 1137.46 1731.05 1139.12 1730.87 1140.76 1730.69 1142.39 1730.6 1143.83 1730.6 1145.09 1730.6 1146.35 1730.68 1147.37 1730.83 1148.15 1730.98 1148.93 1731.26 1149.31 1731.68 1149.31 1732.67 1149.31 1733.91 1148.92 1735.41 1148.12 1736.91 1147.33 1738.48 1146.24 1740.13 1144.84 1741.77 1143.45 1743.42 1141.81 1745.07 1139.9 1746.72 1138 1748.2 1135.94 1749.52 1133.73 1750.83 1131.51 1751.9 1129.17 1752.73 1126.72 1753.55 1124.26 1753.96 1121.79 1753.96 1119.31 1753.96 1118.23 1753.73 1117.4 1753.27 1116.81 1752.8 1116.23 1752.08 1115.94 1751.09 1115.94 1749.83 1115.94 1748.67 1116.42 1747.61 1117.4 1746.54 1118.37 1745.44 1119.65 1744.3 1121.24L1741.74 1118.95C1742.46 1117.87 1743.31 1116.84 1744.28 1115.85 1745.26 1114.86 1746.29 1113.99 1747.38 1113.24 1748.48 1112.49 1749.61 1111.89 1750.77 1111.45 1751.94 1111 1753.08 1110.77 1754.19 1110.77Z" fill-rule="evenodd"/><text fill="#000000" fill-opacity="0" font-family="Arial,Arial_MSFontService,sans-serif" font-size="44.6523" x="1714.79" y="1149.84">ğ‘£</text><path d="M1780.13 1130.99C1782.4 1130.99 1784.33 1131.25 1785.93 1131.76 1787.54 1132.28 1788.84 1132.97 1789.84 1133.84 1790.85 1134.71 1791.57 1135.76 1792.02 1136.98 1792.47 1138.2 1792.69 1139.52 1792.69 1140.94 1792.69 1141.79 1792.63 1142.58 1792.51 1143.31 1792.39 1144.04 1792.18 1144.76 1791.89 1145.47 1791.59 1146.18 1791.21 1146.89 1790.73 1147.61 1790.25 1148.33 1789.65 1149.1 1788.93 1149.9 1788.38 1150.6 1787.67 1151.41 1786.8 1152.32 1785.93 1153.24 1784.97 1154.22 1783.94 1155.27 1782.9 1156.32 1781.82 1157.41 1780.68 1158.54 1779.55 1159.67 1778.45 1160.8 1777.38 1161.91 1776.31 1163.02 1775.33 1164.1 1774.44 1165.15 1773.54 1166.2 1772.81 1167.16 1772.24 1168.03L1784.35 1168.03C1785.37 1168.03 1786.19 1167.99 1786.8 1167.91 1787.41 1167.84 1787.92 1167.67 1788.32 1167.41 1788.73 1167.14 1789.07 1166.75 1789.35 1166.21 1789.64 1165.68 1789.96 1164.94 1790.33 1164L1793.38 1164C1793.27 1165.55 1793.16 1167.11 1793.07 1168.68 1792.97 1170.25 1792.86 1171.81 1792.76 1173.36L1765.05 1173.36 1765.05 1171.66C1765.57 1170.48 1766.18 1169.32 1766.88 1168.18 1767.58 1167.03 1768.36 1165.87 1769.23 1164.69 1770.11 1163.51 1771.1 1162.3 1772.21 1161.04 1773.32 1159.79 1774.56 1158.49 1775.91 1157.13 1777.96 1155.08 1779.63 1153.33 1780.91 1151.88 1782.2 1150.43 1783.21 1149.14 1783.96 1148.01 1784.7 1146.87 1785.2 1145.83 1785.48 1144.87 1785.75 1143.91 1785.89 1142.88 1785.89 1141.79 1785.89 1140.68 1785.73 1139.65 1785.41 1138.72 1785.09 1137.78 1784.64 1136.98 1784.05 1136.33 1783.46 1135.67 1782.72 1135.16 1781.81 1134.79 1780.91 1134.42 1779.87 1134.23 1778.69 1134.23 1776.66 1134.23 1774.96 1134.78 1773.58 1135.89 1772.21 1136.99 1771.14 1138.58 1770.38 1140.68L1766.09 1140.68 1766.09 1134.3C1768.88 1133.14 1771.45 1132.3 1773.8 1131.78 1776.14 1131.26 1778.25 1130.99 1780.13 1130.99Z" fill-rule="evenodd"/><text fill="#000000" fill-opacity="0" font-family="Arial,Arial_MSFontService,sans-serif" font-size="42.3657" x="1765.05" y="1168.06">2</text><path d="M1809.38 1144.24 1817.24 1144.24C1817.66 1146.33 1817.87 1148.4 1817.87 1150.44 1817.87 1152.53 1817.51 1154.45 1816.79 1156.19 1816.07 1157.92 1814.93 1159.65 1813.35 1161.38 1811.78 1163.1 1809.62 1164.99 1806.86 1167.06L1804.44 1164.32C1805.96 1162.88 1807.07 1161.59 1807.76 1160.43 1808.45 1159.28 1808.94 1157.97 1809.24 1156.5 1809.54 1155.03 1809.69 1153.19 1809.69 1150.98 1809.69 1148.7 1809.59 1146.45 1809.38 1144.24Z" fill-rule="evenodd"/><text fill="#000000" fill-opacity="0" font-family="Arial,Arial_MSFontService,sans-serif" font-size="22.8203" x="1804.44" y="1164.21">,</text><path d="M1880.09 1110.77C1882.25 1110.77 1883.81 1111.33 1884.76 1112.46 1885.72 1113.58 1886.2 1115.08 1886.2 1116.97 1886.2 1118.41 1885.95 1120.06 1885.44 1121.91 1884.93 1123.77 1884.21 1125.73 1883.28 1127.8 1882.35 1129.86 1881.24 1131.98 1879.96 1134.15 1878.67 1136.32 1877.25 1138.44 1875.69 1140.49 1874.13 1142.54 1872.47 1144.47 1870.7 1146.28 1868.94 1148.09 1867.1 1149.67 1865.2 1151.02 1863.3 1152.37 1861.37 1153.44 1859.41 1154.23 1857.44 1155.03 1855.49 1155.42 1853.54 1155.42 1852.67 1155.42 1851.95 1155.21 1851.36 1154.77 1850.78 1154.34 1850.31 1153.72 1849.95 1152.93 1849.59 1152.14 1849.34 1151.2 1849.19 1150.12 1849.04 1149.05 1848.96 1147.86 1848.96 1146.57 1848.96 1144.87 1849.07 1143.04 1849.28 1141.09 1849.48 1139.15 1849.75 1137.19 1850.08 1135.21L1851.97 1122.77C1852.09 1122.05 1852.19 1121.37 1852.26 1120.72 1852.34 1120.08 1852.38 1119.61 1852.38 1119.31 1852.38 1118.38 1852.23 1117.61 1851.93 1117.02 1851.63 1116.42 1851.12 1116.12 1850.4 1116.12 1849.83 1116.12 1849.22 1116.29 1848.56 1116.63 1847.9 1116.98 1847.23 1117.42 1846.56 1117.96 1845.88 1118.5 1845.23 1119.07 1844.6 1119.69 1843.97 1120.3 1843.39 1120.88 1842.85 1121.42L1840.7 1118.9C1841.62 1117.94 1842.61 1116.99 1843.66 1116.05 1844.71 1115.11 1845.82 1114.25 1846.98 1113.49 1848.15 1112.73 1849.38 1112.11 1850.67 1111.65 1851.96 1111.18 1853.27 1110.95 1854.62 1110.95 1855.76 1110.95 1856.69 1111.14 1857.41 1111.51 1858.12 1111.89 1858.69 1112.38 1859.09 1113 1859.5 1113.61 1859.77 1114.28 1859.92 1115.02 1860.07 1115.75 1860.15 1116.48 1860.15 1117.2 1860.15 1117.61 1860.13 1118.02 1860.1 1118.41 1860.07 1118.8 1860.03 1119.16 1859.97 1119.49L1857.45 1135.75C1857.18 1137.46 1856.96 1139.12 1856.78 1140.76 1856.6 1142.39 1856.51 1143.83 1856.51 1145.09 1856.51 1146.35 1856.58 1147.37 1856.73 1148.15 1856.88 1148.93 1857.17 1149.31 1857.59 1149.31 1858.57 1149.31 1859.82 1148.92 1861.31 1148.12 1862.81 1147.33 1864.38 1146.24 1866.03 1144.84 1867.68 1143.45 1869.33 1141.81 1870.97 1139.9 1872.62 1138 1874.1 1135.94 1875.42 1133.73 1876.74 1131.51 1877.81 1129.17 1878.63 1126.72 1879.46 1124.26 1879.87 1121.79 1879.87 1119.31 1879.87 1118.23 1879.64 1117.4 1879.17 1116.81 1878.71 1116.23 1877.98 1115.94 1876.99 1115.94 1875.73 1115.94 1874.57 1116.42 1873.51 1117.4 1872.45 1118.37 1871.35 1119.65 1870.21 1121.24L1867.65 1118.95C1868.37 1117.87 1869.21 1116.84 1870.19 1115.85 1871.16 1114.86 1872.19 1113.99 1873.29 1113.24 1874.38 1112.49 1875.51 1111.89 1876.68 1111.45 1877.85 1111 1878.98 1110.77 1880.09 1110.77Z" fill-rule="evenodd"/><text fill="#000000" fill-opacity="0" font-family="Arial,Arial_MSFontService,sans-serif" font-size="44.6523" x="1840.7" y="1149.84">ğ‘£</text><path d="M1907.31 1151.67C1905.85 1151.67 1904.5 1151.87 1903.27 1152.26 1902.03 1152.65 1900.86 1153.19 1899.75 1153.86 1899.29 1154.17 1898.94 1154.45 1898.69 1154.71 1898.44 1154.97 1898.25 1155.29 1898.13 1155.65 1898.01 1156.01 1897.93 1156.45 1897.89 1156.99 1897.84 1157.52 1897.82 1158.25 1897.82 1159.16 1897.82 1166.88 1900.62 1170.74 1906.23 1170.74 1907.75 1170.74 1909.07 1170.52 1910.17 1170.07 1911.27 1169.63 1912.17 1168.98 1912.87 1168.14 1913.57 1167.3 1914.08 1166.27 1914.41 1165.03 1914.73 1163.8 1914.9 1162.4 1914.9 1160.83 1914.9 1157.91 1914.24 1155.65 1912.93 1154.06 1911.63 1152.47 1909.75 1151.67 1907.31 1151.67ZM1915.98 1130.99C1916.24 1131.3 1916.48 1131.59 1916.7 1131.88 1916.91 1132.16 1917.15 1132.44 1917.42 1132.73L1917.42 1134.66C1914.78 1134.62 1912.4 1134.96 1910.28 1135.71 1908.17 1136.45 1906.3 1137.53 1904.69 1138.96 1903.08 1140.39 1901.72 1142.14 1900.63 1144.23 1899.54 1146.31 1898.69 1148.66 1898.08 1151.28L1898.44 1151.44C1899.34 1150.83 1900.22 1150.3 1901.09 1149.85 1901.96 1149.41 1902.85 1149.04 1903.74 1148.74 1904.64 1148.45 1905.56 1148.24 1906.52 1148.1 1907.48 1147.97 1908.51 1147.91 1909.6 1147.91 1911.52 1147.91 1913.21 1148.19 1914.68 1148.76 1916.16 1149.33 1917.41 1150.15 1918.43 1151.25 1919.46 1152.34 1920.23 1153.64 1920.75 1155.17 1921.28 1156.7 1921.54 1158.4 1921.54 1160.27 1921.54 1162.26 1921.21 1164.1 1920.56 1165.8 1919.9 1167.5 1918.92 1168.97 1917.61 1170.19 1916.3 1171.41 1914.68 1172.36 1912.75 1173.03 1910.82 1173.71 1908.56 1174.05 1905.97 1174.05 1901.06 1174.05 1897.36 1172.65 1894.86 1169.84 1892.36 1167.04 1891.11 1162.91 1891.11 1157.46 1891.11 1155.02 1891.39 1152.68 1891.93 1150.44 1892.48 1148.21 1893.28 1146.13 1894.34 1144.2 1895.39 1142.26 1896.68 1140.52 1898.18 1138.96 1899.68 1137.4 1901.36 1136.05 1903.22 1134.9 1905.07 1133.76 1907.08 1132.85 1909.24 1132.19 1911.4 1131.52 1913.64 1131.13 1915.98 1130.99Z" fill-rule="evenodd"/><text fill="#000000" fill-opacity="0" font-family="Arial,Arial_MSFontService,sans-serif" font-size="43.0527" x="1891.11" y="1168.67">6</text><path d="M1973.32 1144.24 1981.19 1144.24C1981.61 1146.33 1981.81 1148.4 1981.81 1150.44 1981.81 1152.53 1981.46 1154.45 1980.74 1156.19 1980.02 1157.92 1978.87 1159.65 1977.3 1161.38 1975.73 1163.1 1973.56 1164.99 1970.81 1167.06L1968.38 1164.32C1969.91 1162.88 1971.02 1161.59 1971.71 1160.43 1972.4 1159.28 1972.89 1157.97 1973.19 1156.5 1973.49 1155.03 1973.64 1153.19 1973.64 1150.98 1973.64 1148.7 1973.53 1146.45 1973.32 1144.24Z" fill-rule="evenodd"/><text fill="#000000" fill-opacity="0" font-family="Arial,Arial_MSFontService,sans-serif" font-size="22.8203" x="1968.38" y="1164.21">,</text><path d="M2036.76 1089.75 2037.97 1093.21C2030.97 1095.51 2025.78 1100.01 2022.41 1106.71 2019.04 1113.4 2017.35 1121.81 2017.35 1131.93 2017.35 1142.41 2019.04 1151.05 2022.41 1157.85 2025.78 1164.65 2030.92 1169.2 2037.84 1171.51L2036.76 1174.96C2027.99 1172.66 2021.26 1167.7 2016.59 1160.07 2011.92 1152.45 2009.58 1143.22 2009.58 1132.38 2009.58 1121.57 2011.93 1112.34 2016.61 1104.68 2021.3 1097.03 2028.02 1092.05 2036.76 1089.75Z" fill-rule="evenodd"/><text fill="#000000" fill-opacity="0" font-family="Arial,Arial_MSFontService,sans-serif" font-size="85.2168" x="2009.58" y="1164.31">(</text><path d="M2081.85 1110.77C2084.01 1110.77 2085.56 1111.33 2086.52 1112.46 2087.48 1113.58 2087.96 1115.08 2087.96 1116.97 2087.96 1118.41 2087.7 1120.06 2087.2 1121.91 2086.69 1123.77 2085.97 1125.73 2085.04 1127.8 2084.11 1129.86 2083 1131.98 2081.72 1134.15 2080.43 1136.32 2079.01 1138.44 2077.45 1140.49 2075.89 1142.54 2074.23 1144.47 2072.46 1146.28 2070.69 1148.09 2068.86 1149.67 2066.96 1151.02 2065.06 1152.37 2063.13 1153.44 2061.16 1154.23 2059.2 1155.03 2057.25 1155.42 2055.3 1155.42 2054.43 1155.42 2053.71 1155.21 2053.12 1154.77 2052.54 1154.34 2052.07 1153.72 2051.71 1152.93 2051.35 1152.14 2051.09 1151.2 2050.94 1150.12 2050.79 1149.05 2050.72 1147.86 2050.72 1146.57 2050.72 1144.87 2050.82 1143.04 2051.03 1141.09 2051.24 1139.15 2051.51 1137.19 2051.84 1135.21L2053.73 1122.77C2053.85 1122.05 2053.95 1121.37 2054.02 1120.72 2054.1 1120.08 2054.13 1119.61 2054.13 1119.31 2054.13 1118.38 2053.98 1117.61 2053.68 1117.02 2053.38 1116.42 2052.88 1116.12 2052.16 1116.12 2051.59 1116.12 2050.97 1116.29 2050.31 1116.63 2049.66 1116.98 2048.99 1117.42 2048.32 1117.96 2047.64 1118.5 2046.99 1119.07 2046.36 1119.69 2045.73 1120.3 2045.15 1120.88 2044.61 1121.42L2042.45 1118.9C2043.38 1117.94 2044.37 1116.99 2045.42 1116.05 2046.47 1115.11 2047.57 1114.25 2048.74 1113.49 2049.91 1112.73 2051.14 1112.11 2052.43 1111.65 2053.71 1111.18 2055.03 1110.95 2056.38 1110.95 2057.52 1110.95 2058.45 1111.14 2059.16 1111.51 2059.88 1111.89 2060.44 1112.38 2060.85 1113 2061.25 1113.61 2061.53 1114.28 2061.68 1115.02 2061.83 1115.75 2061.9 1116.48 2061.9 1117.2 2061.9 1117.61 2061.89 1118.02 2061.86 1118.41 2061.83 1118.8 2061.78 1119.16 2061.73 1119.49L2059.21 1135.75C2058.94 1137.46 2058.72 1139.12 2058.54 1140.76 2058.36 1142.39 2058.27 1143.83 2058.27 1145.09 2058.27 1146.35 2058.34 1147.37 2058.49 1148.15 2058.64 1148.93 2058.93 1149.31 2059.34 1149.31 2060.33 1149.31 2061.58 1148.92 2063.07 1148.12 2064.57 1147.33 2066.14 1146.24 2067.79 1144.84 2069.44 1143.45 2071.08 1141.81 2072.73 1139.9 2074.38 1138 2075.86 1135.94 2077.18 1133.73 2078.5 1131.51 2079.57 1129.17 2080.39 1126.72 2081.21 1124.26 2081.63 1121.79 2081.63 1119.31 2081.63 1118.23 2081.39 1117.4 2080.93 1116.81 2080.47 1116.23 2079.74 1115.94 2078.75 1115.94 2077.49 1115.94 2076.33 1116.42 2075.27 1117.4 2074.21 1118.37 2073.11 1119.65 2071.97 1121.24L2069.41 1118.95C2070.13 1117.87 2070.97 1116.84 2071.94 1115.85 2072.92 1114.86 2073.95 1113.99 2075.04 1113.24 2076.14 1112.49 2077.27 1111.89 2078.44 1111.45 2079.6 1111 2080.74 1110.77 2081.85 1110.77Z" fill-rule="evenodd"/><text fill="#000000" fill-opacity="0" font-family="Arial,Arial_MSFontService,sans-serif" font-size="44.6523" x="2042.45" y="1149.84">ğ‘£</text><path d="M2105.41 1139.11C2103.31 1142.14 2101.23 1145.15 2099.14 1148.14 2097.06 1151.13 2094.96 1154.12 2092.85 1157.13L2092.85 1157.53 2105.41 1157.53 2105.41 1150.95C2105.41 1150.21 2105.42 1149.29 2105.44 1148.2 2105.46 1147.11 2105.49 1146.01 2105.52 1144.88 2105.56 1143.76 2105.59 1142.69 2105.64 1141.68 2105.68 1140.66 2105.72 1139.81 2105.77 1139.11ZM2106.36 1131.45 2111.56 1131.45 2111.56 1157.53 2112.15 1157.53C2113.04 1157.53 2113.77 1157.48 2114.32 1157.4 2114.88 1157.31 2115.33 1157.13 2115.66 1156.86 2116 1156.58 2116.29 1156.2 2116.52 1155.71 2116.74 1155.22 2116.99 1154.58 2117.25 1153.8L2120.03 1153.8C2119.97 1155 2119.9 1156.19 2119.82 1157.36 2119.74 1158.54 2119.67 1159.74 2119.61 1160.96L2111.56 1160.96 2111.56 1165.25C2111.56 1166.51 2111.59 1167.49 2111.64 1168.19 2111.7 1168.89 2111.86 1169.43 2112.13 1169.83 2112.4 1170.22 2112.81 1170.51 2113.34 1170.71 2113.88 1170.91 2114.62 1171.14 2115.58 1171.4L2115.58 1173.36 2101.45 1173.36 2101.45 1171.4C2102.1 1171.22 2102.66 1171.06 2103.12 1170.92 2103.58 1170.78 2103.96 1170.62 2104.26 1170.43 2104.57 1170.25 2104.79 1170.03 2104.93 1169.78 2105.08 1169.53 2105.19 1169.21 2105.26 1168.83 2105.34 1168.45 2105.38 1167.97 2105.39 1167.39 2105.4 1166.81 2105.41 1166.1 2105.41 1165.25L2105.41 1160.96 2086.99 1160.96 2086.99 1158.38C2090.24 1153.86 2093.47 1149.37 2096.67 1144.91 2099.88 1140.45 2103.11 1135.97 2106.36 1131.45Z" fill-rule="evenodd"/><text fill="#000000" fill-opacity="0" font-family="Arial,Arial_MSFontService,sans-serif" font-size="41.9077" x="2086.99" y="1168.12">4</text><path d="M2133.12 1144.24 2140.98 1144.24C2141.4 1146.33 2141.61 1148.4 2141.61 1150.44 2141.61 1152.53 2141.25 1154.45 2140.53 1156.19 2139.82 1157.92 2138.67 1159.65 2137.1 1161.38 2135.53 1163.1 2133.36 1164.99 2130.61 1167.06L2128.18 1164.32C2129.71 1162.88 2130.82 1161.59 2131.51 1160.43 2132.19 1159.28 2132.69 1157.97 2132.99 1156.5 2133.29 1155.03 2133.44 1153.19 2133.44 1150.98 2133.44 1148.7 2133.33 1146.45 2133.12 1144.24Z" fill-rule="evenodd"/><text fill="#000000" fill-opacity="0" font-family="Arial,Arial_MSFontService,sans-serif" font-size="22.8203" x="2128.18" y="1164.21">,</text><path d="M2203.84 1110.77C2205.99 1110.77 2207.55 1111.33 2208.51 1112.46 2209.47 1113.58 2209.94 1115.08 2209.94 1116.97 2209.94 1118.41 2209.69 1120.06 2209.18 1121.91 2208.67 1123.77 2207.95 1125.73 2207.02 1127.8 2206.1 1129.86 2204.99 1131.98 2203.7 1134.15 2202.41 1136.32 2200.99 1138.44 2199.43 1140.49 2197.88 1142.54 2196.21 1144.47 2194.45 1146.28 2192.68 1148.09 2190.85 1149.67 2188.94 1151.02 2187.04 1152.37 2185.11 1153.44 2183.15 1154.23 2181.19 1155.03 2179.23 1155.42 2177.29 1155.42 2176.42 1155.42 2175.69 1155.21 2175.11 1154.77 2174.52 1154.34 2174.05 1153.72 2173.69 1152.93 2173.33 1152.14 2173.08 1151.2 2172.93 1150.12 2172.78 1149.05 2172.7 1147.86 2172.7 1146.57 2172.7 1144.87 2172.81 1143.04 2173.02 1141.09 2173.23 1139.15 2173.5 1137.19 2173.83 1135.21L2175.71 1122.77C2175.83 1122.05 2175.93 1121.37 2176.01 1120.72 2176.08 1120.08 2176.12 1119.61 2176.12 1119.31 2176.12 1118.38 2175.97 1117.61 2175.67 1117.02 2175.37 1116.42 2174.86 1116.12 2174.14 1116.12 2173.57 1116.12 2172.96 1116.29 2172.3 1116.63 2171.64 1116.98 2170.98 1117.42 2170.3 1117.96 2169.63 1118.5 2168.98 1119.07 2168.35 1119.69 2167.72 1120.3 2167.13 1120.88 2166.6 1121.42L2164.44 1118.9C2165.37 1117.94 2166.36 1116.99 2167.4 1116.05 2168.45 1115.11 2169.56 1114.25 2170.73 1113.49 2171.9 1112.73 2173.12 1112.11 2174.41 1111.65 2175.7 1111.18 2177.02 1110.95 2178.36 1110.95 2179.5 1110.95 2180.43 1111.14 2181.15 1111.51 2181.87 1111.89 2182.43 1112.38 2182.83 1113 2183.24 1113.61 2183.52 1114.28 2183.67 1115.02 2183.82 1115.75 2183.89 1116.48 2183.89 1117.2 2183.89 1117.61 2183.88 1118.02 2183.85 1118.41 2183.82 1118.8 2183.77 1119.16 2183.71 1119.49L2181.19 1135.75C2180.93 1137.46 2180.7 1139.12 2180.52 1140.76 2180.34 1142.39 2180.25 1143.83 2180.25 1145.09 2180.25 1146.35 2180.33 1147.37 2180.48 1148.15 2180.63 1148.93 2180.91 1149.31 2181.33 1149.31 2182.32 1149.31 2183.56 1148.92 2185.06 1148.12 2186.56 1147.33 2188.13 1146.24 2189.77 1144.84 2191.42 1143.45 2193.07 1141.81 2194.72 1139.9 2196.36 1138 2197.85 1135.94 2199.16 1133.73 2200.48 1131.51 2201.55 1129.17 2202.38 1126.72 2203.2 1124.26 2203.61 1121.79 2203.61 1119.31 2203.61 1118.23 2203.38 1117.4 2202.91 1116.81 2202.45 1116.23 2201.72 1115.94 2200.74 1115.94 2199.48 1115.94 2198.32 1116.42 2197.25 1117.4 2196.19 1118.37 2195.09 1119.65 2193.95 1121.24L2191.39 1118.95C2192.11 1117.87 2192.96 1116.84 2193.93 1115.85 2194.9 1114.86 2195.94 1113.99 2197.03 1113.24 2198.12 1112.49 2199.25 1111.89 2200.42 1111.45 2201.59 1111 2202.73 1110.77 2203.84 1110.77Z" fill-rule="evenodd"/><text fill="#000000" fill-opacity="0" font-family="Arial,Arial_MSFontService,sans-serif" font-size="44.6523" x="2164.44" y="1149.84">ğ‘£</text><path d="M2239.13 1129.42 2242.08 1129.42 2241.62 1137.34 2222.45 1137.34 2222.45 1150.13C2223.6 1149.74 2224.87 1149.42 2226.24 1149.18 2227.62 1148.94 2229 1148.82 2230.4 1148.82 2232.4 1148.82 2234.22 1149.1 2235.84 1149.66 2237.47 1150.21 2238.86 1151.01 2240.03 1152.05 2241.2 1153.08 2242.1 1154.34 2242.75 1155.81 2243.39 1157.28 2243.71 1158.93 2243.71 1160.77 2243.71 1162.86 2243.35 1164.72 2242.63 1166.36 2241.91 1168 2240.88 1169.39 2239.54 1170.53 2238.2 1171.68 2236.56 1172.55 2234.63 1173.15 2232.7 1173.75 2230.53 1174.05 2228.11 1174.05 2226.19 1174.05 2224.22 1173.86 2222.22 1173.49 2220.21 1173.12 2218.13 1172.58 2215.97 1171.86L2215.97 1164.59 2220.16 1164.59C2220.81 1166.8 2221.79 1168.37 2223.1 1169.32 2224.41 1170.27 2226.13 1170.74 2228.27 1170.74 2231.13 1170.74 2233.29 1170 2234.75 1168.52 2236.21 1167.04 2236.94 1164.71 2236.94 1161.55 2236.94 1158.52 2236.17 1156.27 2234.62 1154.79 2233.07 1153.32 2230.9 1152.59 2228.11 1152.59 2227.37 1152.59 2226.69 1152.6 2226.09 1152.62 2225.5 1152.64 2224.9 1152.7 2224.31 1152.78 2223.72 1152.87 2223.14 1152.99 2222.56 1153.14 2221.98 1153.3 2221.33 1153.47 2220.62 1153.67L2217.93 1152.19 2217.93 1131.62 2236.06 1131.62C2236.58 1131.59 2237 1131.56 2237.32 1131.52 2237.63 1131.47 2237.89 1131.38 2238.08 1131.22 2238.28 1131.07 2238.46 1130.86 2238.61 1130.59 2238.76 1130.31 2238.94 1129.93 2239.13 1129.42Z" fill-rule="evenodd"/><text fill="#000000" fill-opacity="0" font-family="Arial,Arial_MSFontService,sans-serif" font-size="44.623" x="2215.97" y="1168.47">5</text><path d="M2255.93 1089.75C2264.67 1092.05 2271.39 1097.03 2276.07 1104.68 2280.76 1112.34 2283.1 1121.57 2283.1 1132.38 2283.1 1143.22 2280.77 1152.45 2276.1 1160.07 2271.43 1167.7 2264.7 1172.66 2255.93 1174.96L2254.85 1171.51C2261.77 1169.2 2266.91 1164.65 2270.28 1157.85 2273.65 1151.05 2275.33 1142.41 2275.33 1131.93 2275.33 1121.81 2273.66 1113.4 2270.3 1106.71 2266.95 1100.01 2261.75 1095.51 2254.71 1093.21Z" fill-rule="evenodd"/><text fill="#000000" fill-opacity="0" font-family="Arial,Arial_MSFontService,sans-serif" font-size="85.2168" x="2254.71" y="1164.31">)</text><text font-family="Times New Roman,Times New Roman_MSFontService,sans-serif" font-weight="400" font-size="92" transform="matrix(1 0 0 1 2290.82 1155)">)</text><path d="M41.2502-2.29166 1416.14-2.29131 1416.14 2.29203 41.2502 2.29168ZM45.8333 22.9167 0 0 45.8333-22.9167Z" transform="matrix(-1 0 0 1 2428.64 1272.5)"/><text font-family="Times New Roman,Times New Roman_MSFontService,sans-serif" font-weight="400" font-size="92" transform="matrix(1 0 0 1 1155.72 1366)">shuffled wedges + noisy edges</text></g></svg>