<svg width="2873" height="1155" xmlns="http://www.w3.org/2000/svg" xmlns:xlink="http://www.w3.org/1999/xlink" overflow="hidden"><defs><clipPath id="clip0"><rect x="897" y="626" width="2873" height="1155"/></clipPath></defs><g clip-path="url(#clip0)" transform="translate(-897 -626)"><text font-family="Times New Roman,Times New Roman_MSFontService,sans-serif" font-weight="400" font-size="92" transform="matrix(1 0 0 1 957.478 1021)">User </text><path d="M1195.96 976.817C1198.11 976.817 1199.67 977.378 1200.63 978.501 1201.59 979.625 1202.07 981.129 1202.07 983.016 1202.07 984.454 1201.81 986.101 1201.3 987.958 1200.79 989.814 1200.07 991.776 1199.15 993.842 1198.22 995.909 1197.11 998.028 1195.82 1000.2 1194.53 1002.37 1193.11 1004.48 1191.55 1006.53 1190 1008.58 1188.33 1010.52 1186.57 1012.33 1184.8 1014.14 1182.97 1015.72 1181.06 1017.07 1179.16 1018.41 1177.23 1019.49 1175.27 1020.28 1173.31 1021.07 1171.35 1021.47 1169.41 1021.47 1168.54 1021.47 1167.81 1021.25 1167.23 1020.82 1166.64 1020.38 1166.17 1019.77 1165.81 1018.98 1165.45 1018.18 1165.2 1017.25 1165.05 1016.17 1164.9 1015.09 1164.83 1013.91 1164.83 1012.62 1164.83 1010.91 1164.93 1009.09 1165.14 1007.14 1165.35 1005.19 1165.62 1003.23 1165.95 1001.25L1167.84 988.811C1167.95 988.092 1168.05 987.411 1168.13 986.767 1168.2 986.123 1168.24 985.652 1168.24 985.352 1168.24 984.424 1168.09 983.66 1167.79 983.061 1167.49 982.462 1166.98 982.163 1166.26 982.163 1165.69 982.163 1165.08 982.335 1164.42 982.679 1163.76 983.024 1163.1 983.465 1162.42 984.004 1161.75 984.543 1161.1 985.12 1160.47 985.734 1159.84 986.348 1159.26 986.924 1158.72 987.463L1156.56 984.948C1157.49 983.989 1158.48 983.039 1159.52 982.095 1160.57 981.152 1161.68 980.298 1162.85 979.535 1164.02 978.771 1165.24 978.157 1166.53 977.693 1167.82 977.229 1169.14 976.997 1170.49 976.997 1171.62 976.997 1172.55 977.184 1173.27 977.558 1173.99 977.932 1174.55 978.427 1174.96 979.041 1175.36 979.654 1175.64 980.328 1175.79 981.062 1175.94 981.796 1176.01 982.522 1176.01 983.241 1176.01 983.66 1176 984.064 1175.97 984.454 1175.94 984.843 1175.89 985.202 1175.83 985.532L1173.32 1001.79C1173.05 1003.5 1172.82 1005.17 1172.64 1006.8 1172.46 1008.43 1172.37 1009.88 1172.37 1011.14 1172.37 1012.4 1172.45 1013.41 1172.6 1014.19 1172.75 1014.97 1173.03 1015.36 1173.45 1015.36 1174.44 1015.36 1175.68 1014.96 1177.18 1014.17 1178.68 1013.38 1180.25 1012.28 1181.9 1010.89 1183.54 1009.5 1185.19 1007.85 1186.84 1005.95 1188.48 1004.05 1189.97 1001.99 1191.28 999.772 1192.6 997.556 1193.67 995.22 1194.5 992.764 1195.32 990.308 1195.73 987.838 1195.73 985.352 1195.73 984.274 1195.5 983.443 1195.04 982.859 1194.57 982.275 1193.84 981.983 1192.86 981.983 1191.6 981.983 1190.44 982.47 1189.38 983.443 1188.31 984.416 1187.21 985.696 1186.07 987.284L1183.51 984.993C1184.23 983.915 1185.08 982.881 1186.05 981.893 1187.02 980.905 1188.06 980.036 1189.15 979.288 1190.24 978.539 1191.37 977.94 1192.54 977.491 1193.71 977.042 1194.85 976.817 1195.96 976.817Z" fill-rule="evenodd"/><text fill="#000000" fill-opacity="0" font-family="Arial,Arial_MSFontService,sans-serif" font-size="44.6523" x="1156.56" y="1015.89">ğ‘£</text><path d="M1218.07 1006.33 1219.67 1006.33 1214.83 1028.12C1214.52 1029.41 1214.31 1030.43 1214.19 1031.19 1214.07 1031.96 1214.01 1032.64 1214.01 1033.26 1214.01 1034.08 1214.18 1034.68 1214.52 1035.05 1214.86 1035.43 1215.36 1035.61 1216.04 1035.61 1216.43 1035.61 1216.83 1035.53 1217.22 1035.38 1217.61 1035.23 1218.03 1034.99 1218.48 1034.66 1218.92 1034.33 1219.42 1033.91 1219.95 1033.4 1220.48 1032.89 1221.08 1032.27 1221.73 1031.55L1223.96 1033.71C1222.82 1034.87 1221.79 1035.85 1220.87 1036.64 1219.94 1037.44 1219.06 1038.09 1218.23 1038.59 1217.4 1039.09 1216.59 1039.45 1215.79 1039.67 1215 1039.89 1214.15 1039.99 1213.26 1039.99 1212.43 1039.99 1211.68 1039.84 1211.02 1039.54 1210.35 1039.23 1209.78 1038.81 1209.3 1038.28 1208.82 1037.74 1208.45 1037.1 1208.19 1036.36 1207.93 1035.62 1207.8 1034.8 1207.8 1033.91 1207.8 1033.19 1207.88 1032.3 1208.06 1031.23 1208.23 1030.16 1208.46 1029 1208.73 1027.74 1209 1026.49 1209.3 1025.17 1209.63 1023.8 1209.96 1022.43 1210.28 1021.06 1210.59 1019.71 1210.91 1018.36 1211.19 1017.06 1211.44 1015.8 1211.69 1014.55 1211.87 1013.41 1211.98 1012.38 1212.03 1012.21 1212.05 1012.04 1212.05 1011.88 1212.05 1011.71 1212.05 1011.57 1212.05 1011.43 1212.01 1010.58 1211.71 1009.96 1211.15 1009.57 1210.59 1009.18 1209.61 1008.96 1208.19 1008.92L1208.58 1006.69ZM1216.17 993.147 1222.71 993.147 1221.11 1000.18 1214.63 1000.18Z" fill-rule="evenodd"/><text fill="#000000" fill-opacity="0" font-family="Arial,Arial_MSFontService,sans-serif" font-size="46.8477" x="1207.8" y="1034.14">ğ‘–</text><text font-family="Times New Roman,Times New Roman_MSFontService,sans-serif" font-weight="400" font-size="92" transform="matrix(1 0 0 1 2306.25 1020)">Server</text><path d="M923.5 943.834C923.5 932.052 933.052 922.5 944.834 922.5L1225.17 922.5C1236.95 922.5 1246.5 932.052 1246.5 943.834L1246.5 1029.17C1246.5 1040.95 1236.95 1050.5 1225.17 1050.5L944.834 1050.5C933.052 1050.5 923.5 1040.95 923.5 1029.17Z" stroke="#000000" stroke-width="3.4375" stroke-miterlimit="8" fill="none" fill-rule="evenodd"/><rect x="900" y="721" width="1715" height="374" stroke="#000000" stroke-width="5.72917" stroke-miterlimit="8" fill="none"/><rect x="1485" y="651" width="545" height="144" fill="#FFFFFF"/><text font-family="Times New Roman,Times New Roman_MSFontService,sans-serif" font-weight="400" font-size="92" transform="matrix(1 0 0 1 1570.62 756)">1st Round</text><path d="M0 0 1018.86 0.836909" stroke="#000000" stroke-width="3.4375" stroke-miterlimit="8" fill="none" fill-rule="evenodd" transform="matrix(1 0 0 -1 1246.5 986.337)"/><path d="M2265.5 942.834C2265.5 931.052 2275.05 921.5 2286.83 921.5L2568.17 921.5C2579.95 921.5 2589.5 931.052 2589.5 942.834L2589.5 1028.17C2589.5 1039.95 2579.95 1049.5 2568.17 1049.5L2286.83 1049.5C2275.05 1049.5 2265.5 1039.95 2265.5 1028.17Z" stroke="#000000" stroke-width="3.4375" stroke-miterlimit="8" fill="none" fill-rule="evenodd"/><text font-family="Times New Roman,Times New Roman_MSFontService,sans-serif" font-weight="400" font-size="92" transform="matrix(1 0 0 1 1407.34 904)">noisy edges (ARR)</text><path d="M1312.5 943.781 2144.25 943.782 2144.25 947.219 1312.5 947.219ZM2139.67 922.584 2185.5 945.501 2139.67 968.417Z"/><path d="M1352.75 1412.78 2184.5 1412.78 2184.5 1416.22 1352.75 1416.22ZM1357.33 1437.42 1311.5 1414.5 1357.33 1391.58Z"/><text font-family="Times New Roman,Times New Roman_MSFontService,sans-serif" font-weight="400" font-size="92" transform="matrix(1 0 0 1 1256.67 1377)">noisy edges between others<tspan font-size="92" x="-296.298" y="120">User </tspan></text><path d="M1198.85 1452.68C1201.01 1452.68 1202.56 1453.24 1203.52 1454.36 1204.48 1455.49 1204.96 1456.99 1204.96 1458.88 1204.96 1460.32 1204.71 1461.96 1204.2 1463.82 1203.69 1465.68 1202.97 1467.64 1202.04 1469.7 1201.11 1471.77 1200 1473.89 1198.72 1476.06 1197.43 1478.23 1196.01 1480.34 1194.45 1482.4 1192.89 1484.45 1191.23 1486.38 1189.46 1488.19 1187.7 1490 1185.86 1491.58 1183.96 1492.93 1182.06 1494.28 1180.13 1495.35 1178.16 1496.14 1176.2 1496.93 1174.25 1497.33 1172.3 1497.33 1171.43 1497.33 1170.71 1497.11 1170.12 1496.68 1169.54 1496.25 1169.07 1495.63 1168.71 1494.84 1168.35 1494.05 1168.09 1493.11 1167.94 1492.03 1167.79 1490.95 1167.72 1489.77 1167.72 1488.48 1167.72 1486.78 1167.82 1484.95 1168.03 1483 1168.24 1481.06 1168.51 1479.09 1168.84 1477.12L1170.73 1464.67C1170.85 1463.95 1170.95 1463.27 1171.02 1462.63 1171.1 1461.99 1171.13 1461.51 1171.13 1461.21 1171.13 1460.29 1170.98 1459.52 1170.68 1458.92 1170.39 1458.32 1169.88 1458.03 1169.16 1458.03 1168.59 1458.03 1167.97 1458.2 1167.32 1458.54 1166.66 1458.89 1165.99 1459.33 1165.32 1459.87 1164.64 1460.41 1163.99 1460.98 1163.36 1461.6 1162.73 1462.21 1162.15 1462.79 1161.61 1463.33L1159.45 1460.81C1160.38 1459.85 1161.37 1458.9 1162.42 1457.96 1163.47 1457.01 1164.58 1456.16 1165.74 1455.4 1166.91 1454.63 1168.14 1454.02 1169.43 1453.56 1170.71 1453.09 1172.03 1452.86 1173.38 1452.86 1174.52 1452.86 1175.45 1453.05 1176.17 1453.42 1176.88 1453.8 1177.45 1454.29 1177.85 1454.9 1178.25 1455.52 1178.53 1456.19 1178.68 1456.92 1178.83 1457.66 1178.91 1458.38 1178.91 1459.1 1178.91 1459.52 1178.89 1459.93 1178.86 1460.32 1178.83 1460.71 1178.79 1461.06 1178.73 1461.39L1176.21 1477.66C1175.94 1479.36 1175.72 1481.03 1175.54 1482.66 1175.36 1484.3 1175.27 1485.74 1175.27 1487 1175.27 1488.26 1175.34 1489.28 1175.49 1490.05 1175.64 1490.83 1175.93 1491.22 1176.35 1491.22 1177.33 1491.22 1178.58 1490.83 1180.07 1490.03 1181.57 1489.24 1183.14 1488.15 1184.79 1486.75 1186.44 1485.36 1188.08 1483.71 1189.73 1481.81 1191.38 1479.91 1192.86 1477.85 1194.18 1475.63 1195.5 1473.42 1196.57 1471.08 1197.39 1468.63 1198.21 1466.17 1198.63 1463.7 1198.63 1461.21 1198.63 1460.14 1198.39 1459.31 1197.93 1458.72 1197.47 1458.14 1196.74 1457.85 1195.75 1457.85 1194.49 1457.85 1193.33 1458.33 1192.27 1459.31 1191.21 1460.28 1190.11 1461.56 1188.97 1463.15L1186.41 1460.86C1187.13 1459.78 1187.97 1458.74 1188.95 1457.76 1189.92 1456.77 1190.95 1455.9 1192.05 1455.15 1193.14 1454.4 1194.27 1453.8 1195.44 1453.35 1196.6 1452.9 1197.74 1452.68 1198.85 1452.68Z" fill-rule="evenodd"/><text fill="#000000" fill-opacity="0" font-family="Arial,Arial_MSFontService,sans-serif" font-size="44.6523" x="1159.45" y="1491.75">ğ‘£</text><path d="M1220.96 1482.19 1222.57 1482.19 1217.72 1503.98C1217.42 1505.27 1217.21 1506.29 1217.09 1507.06 1216.97 1507.82 1216.91 1508.51 1216.91 1509.12 1216.91 1509.95 1217.08 1510.55 1217.41 1510.92 1217.75 1511.29 1218.26 1511.47 1218.93 1511.47 1219.33 1511.47 1219.72 1511.4 1220.11 1511.24 1220.51 1511.09 1220.92 1510.85 1221.37 1510.52 1221.82 1510.2 1222.31 1509.78 1222.84 1509.27 1223.38 1508.75 1223.97 1508.14 1224.63 1507.42L1226.85 1509.58C1225.72 1510.73 1224.69 1511.71 1223.76 1512.5 1222.83 1513.3 1221.96 1513.95 1221.13 1514.45 1220.3 1514.95 1219.49 1515.31 1218.69 1515.53 1217.89 1515.75 1217.05 1515.86 1216.15 1515.86 1215.33 1515.86 1214.58 1515.7 1213.91 1515.4 1213.25 1515.09 1212.68 1514.67 1212.2 1514.14 1211.72 1513.61 1211.34 1512.97 1211.08 1512.23 1210.82 1511.48 1210.69 1510.67 1210.69 1509.77 1210.69 1509.05 1210.78 1508.16 1210.95 1507.09 1211.13 1506.02 1211.35 1504.86 1211.62 1503.61 1211.9 1502.35 1212.2 1501.04 1212.52 1499.66 1212.85 1498.29 1213.17 1496.93 1213.49 1495.57 1213.8 1494.22 1214.09 1492.92 1214.34 1491.66 1214.59 1490.41 1214.77 1489.27 1214.88 1488.25 1214.92 1488.07 1214.94 1487.9 1214.94 1487.74 1214.94 1487.58 1214.94 1487.43 1214.94 1487.3 1214.9 1486.45 1214.6 1485.82 1214.04 1485.43 1213.49 1485.04 1212.5 1484.82 1211.08 1484.78L1211.48 1482.55ZM1219.07 1469.01 1225.61 1469.01 1224.01 1476.04 1217.53 1476.04Z" fill-rule="evenodd"/><text fill="#000000" fill-opacity="0" font-family="Arial,Arial_MSFontService,sans-serif" font-size="46.8477" x="1210.69" y="1510">ğ‘–</text><text font-family="Times New Roman,Times New Roman_MSFontService,sans-serif" font-weight="400" font-size="92" transform="matrix(1 0 0 1 2309.15 1496)">Server</text><path d="M926.5 1419.83C926.5 1408.05 936.051 1398.5 947.834 1398.5L1228.17 1398.5C1239.95 1398.5 1249.5 1408.05 1249.5 1419.83L1249.5 1505.17C1249.5 1516.95 1239.95 1526.5 1228.17 1526.5L947.834 1526.5C936.051 1526.5 926.5 1516.95 926.5 1505.17Z" stroke="#000000" stroke-width="3.4375" stroke-miterlimit="8" fill="none" fill-rule="evenodd"/><rect x="903" y="1193" width="1715" height="559" stroke="#000000" stroke-width="5.72917" stroke-miterlimit="8" fill="none"/><rect x="1479" y="1123" width="545" height="145" fill="#FFFFFF"/><text font-family="Times New Roman,Times New Roman_MSFontService,sans-serif" font-weight="400" font-size="92" transform="matrix(1 0 0 1 1548.88 1229)">2nd Round</text><path d="M0 0 1018.86 0.836909" stroke="#000000" stroke-width="3.4375" stroke-miterlimit="8" fill="none" fill-rule="evenodd" transform="matrix(1 0 0 -1 1249.5 1462.34)"/><path d="M2268.5 1418.83C2268.5 1407.05 2278.05 1397.5 2289.83 1397.5L2571.17 1397.5C2582.95 1397.5 2592.5 1407.05 2592.5 1418.83L2592.5 1504.17C2592.5 1515.95 2582.95 1525.5 2571.17 1525.5L2289.83 1525.5C2278.05 1525.5 2268.5 1515.95 2268.5 1504.17Z" stroke="#000000" stroke-width="3.4375" stroke-miterlimit="8" fill="none" fill-rule="evenodd"/><text font-family="Times New Roman,Times New Roman_MSFontService,sans-serif" font-weight="400" font-size="92" transform="matrix(1 0 0 1 1466.27 1599)">#noisy triangles <tspan font-size="92" x="-144.375" y="106">+ </tspan><tspan font-size="92" x="-69.8958" y="106">corrective term </tspan><tspan font-size="92" x="508.75" y="106">+ Lap</tspan></text><path d="M1315.5 1502.78 2147.25 1502.78 2147.25 1506.22 1315.5 1506.22ZM2142.67 1481.58 2188.5 1504.5 2142.67 1527.42Z"/><text font-family="Times New Roman,Times New Roman_MSFontService,sans-serif" font-weight="400" font-size="92" transform="matrix(1 0 0 1 2760.44 743)">ARR (Asymmetric RR)</text><path d="M2714.5 1591C2714.5 1575.81 2726.81 1563.5 2742 1563.5 2757.19 1563.5 2769.5 1575.81 2769.5 1591 2769.5 1606.19 2757.19 1618.5 2742 1618.5 2726.81 1618.5 2714.5 1606.19 2714.5 1591Z" stroke="#000000" stroke-width="4.58333" stroke-miterlimit="8" fill="#FFFFFF" fill-rule="evenodd"/><path d="M2896.5 1590.5C2896.5 1575.04 2908.81 1562.5 2924 1562.5 2939.19 1562.5 2951.5 1575.04 2951.5 1590.5 2951.5 1605.96 2939.19 1618.5 2924 1618.5 2908.81 1618.5 2896.5 1605.96 2896.5 1590.5Z" stroke="#000000" stroke-width="4.58333" stroke-miterlimit="8" fill="#FFFFFF" fill-rule="evenodd"/><path d="M0 0 49.2856 93.4304" stroke="#000000" stroke-width="5.72917" stroke-miterlimit="8" fill="none" fill-rule="evenodd" transform="matrix(-1 0 0 1 2810.29 1477)"/><path d="M0 0 127.365 0.093832" stroke="#FF0000" stroke-width="5.72917" stroke-miterlimit="8" stroke-dasharray="17.1875 5.72917" fill="none" fill-rule="evenodd" transform="matrix(-1 0 0 1 2896.36 1590)"/><path d="M2849 1477 2904.22 1570.34" stroke="#000000" stroke-width="5.72917" stroke-miterlimit="8" fill="none" fill-rule="evenodd"/><path d="M2841.71 1362.16C2843.87 1362.16 2845.42 1362.72 2846.38 1363.85 2847.34 1364.97 2847.82 1366.48 2847.82 1368.36 2847.82 1369.8 2847.56 1371.45 2847.05 1373.3 2846.55 1375.16 2845.83 1377.12 2844.9 1379.19 2843.97 1381.25 2842.86 1383.37 2841.57 1385.54 2840.29 1387.72 2838.86 1389.83 2837.31 1391.88 2835.75 1393.93 2834.09 1395.86 2832.32 1397.67 2830.55 1399.49 2828.72 1401.07 2826.82 1402.41 2824.92 1403.76 2822.98 1404.83 2821.02 1405.62 2819.06 1406.42 2817.11 1406.82 2815.16 1406.82 2814.29 1406.82 2813.57 1406.6 2812.98 1406.16 2812.4 1405.73 2811.93 1405.12 2811.57 1404.32 2811.21 1403.53 2810.95 1402.59 2810.8 1401.51 2810.65 1400.44 2810.58 1399.25 2810.58 1397.97 2810.58 1396.26 2810.68 1394.43 2810.89 1392.49 2811.1 1390.54 2811.37 1388.58 2811.7 1386.6L2813.59 1374.16C2813.71 1373.44 2813.81 1372.76 2813.88 1372.11 2813.96 1371.47 2813.99 1371 2813.99 1370.7 2813.99 1369.77 2813.84 1369.01 2813.54 1368.41 2813.24 1367.81 2812.73 1367.51 2812.02 1367.51 2811.45 1367.51 2810.83 1367.68 2810.17 1368.03 2809.52 1368.37 2808.85 1368.81 2808.18 1369.35 2807.5 1369.89 2806.85 1370.47 2806.22 1371.08 2805.59 1371.69 2805.01 1372.27 2804.47 1372.81L2802.31 1370.29C2803.24 1369.34 2804.23 1368.38 2805.28 1367.44 2806.33 1366.5 2807.43 1365.64 2808.6 1364.88 2809.77 1364.12 2811 1363.5 2812.29 1363.04 2813.57 1362.57 2814.89 1362.34 2816.24 1362.34 2817.38 1362.34 2818.3 1362.53 2819.02 1362.9 2819.74 1363.28 2820.3 1363.77 2820.71 1364.39 2821.11 1365 2821.39 1365.67 2821.54 1366.41 2821.69 1367.14 2821.76 1367.87 2821.76 1368.59 2821.76 1369.01 2821.75 1369.41 2821.72 1369.8 2821.69 1370.19 2821.64 1370.55 2821.58 1370.88L2819.07 1387.14C2818.8 1388.85 2818.57 1390.52 2818.39 1392.15 2818.22 1393.78 2818.13 1395.23 2818.13 1396.48 2818.13 1397.74 2818.2 1398.76 2818.35 1399.54 2818.5 1400.32 2818.78 1400.71 2819.2 1400.71 2820.19 1400.71 2821.43 1400.31 2822.93 1399.52 2824.43 1398.72 2826 1397.63 2827.65 1396.24 2829.3 1394.84 2830.94 1393.2 2832.59 1391.29 2834.24 1389.39 2835.72 1387.33 2837.04 1385.12 2838.35 1382.9 2839.43 1380.57 2840.25 1378.11 2841.07 1375.65 2841.48 1373.18 2841.48 1370.7 2841.48 1369.62 2841.25 1368.79 2840.79 1368.2 2840.32 1367.62 2839.6 1367.33 2838.61 1367.33 2837.35 1367.33 2836.19 1367.82 2835.13 1368.79 2834.06 1369.76 2832.96 1371.04 2831.83 1372.63L2829.27 1370.34C2829.98 1369.26 2830.83 1368.23 2831.8 1367.24 2832.78 1366.25 2833.81 1365.38 2834.9 1364.63 2836 1363.89 2837.13 1363.29 2838.3 1362.84 2839.46 1362.39 2840.6 1362.16 2841.71 1362.16Z" fill-rule="evenodd"/><text fill="#000000" fill-opacity="0" font-family="Arial,Arial_MSFontService,sans-serif" font-size="44.6523" x="2802.31" y="1401.23">ğ‘£</text><path d="M2863.82 1391.68 2865.42 1391.68 2860.58 1413.46C2860.28 1414.75 2860.06 1415.78 2859.94 1416.54 2859.82 1417.3 2859.76 1417.99 2859.76 1418.6 2859.76 1419.43 2859.93 1420.03 2860.27 1420.4 2860.61 1420.77 2861.12 1420.96 2861.79 1420.96 2862.19 1420.96 2862.58 1420.88 2862.97 1420.73 2863.36 1420.57 2863.78 1420.34 2864.23 1420.01 2864.68 1419.68 2865.17 1419.26 2865.7 1418.75 2866.24 1418.24 2866.83 1417.62 2867.49 1416.9L2869.71 1419.06C2868.58 1420.22 2867.55 1421.19 2866.62 1421.99 2865.69 1422.78 2864.81 1423.43 2863.98 1423.93 2863.16 1424.44 2862.34 1424.8 2861.55 1425.01 2860.75 1425.23 2859.91 1425.34 2859.01 1425.34 2858.18 1425.34 2857.44 1425.19 2856.77 1424.88 2856.11 1424.58 2855.53 1424.16 2855.05 1423.62 2854.57 1423.09 2854.2 1422.45 2853.94 1421.71 2853.68 1420.97 2853.55 1420.15 2853.55 1419.26 2853.55 1418.54 2853.64 1417.64 2853.81 1416.57 2853.99 1415.5 2854.21 1414.34 2854.48 1413.09 2854.75 1411.83 2855.05 1410.52 2855.38 1409.15 2855.71 1407.77 2856.03 1406.41 2856.35 1405.06 2856.66 1403.71 2856.95 1402.4 2857.2 1401.15 2857.45 1399.89 2857.63 1398.75 2857.74 1397.73 2857.78 1397.55 2857.8 1397.39 2857.8 1397.22 2857.8 1397.06 2857.8 1396.91 2857.8 1396.78 2857.76 1395.93 2857.46 1395.31 2856.9 1394.92 2856.35 1394.52 2855.36 1394.3 2853.94 1394.26L2854.33 1392.04ZM2861.92 1378.49 2868.47 1378.49 2866.86 1385.53 2860.39 1385.53Z" fill-rule="evenodd"/><text fill="#000000" fill-opacity="0" font-family="Arial,Arial_MSFontService,sans-serif" font-size="46.8477" x="2853.55" y="1419.48">ğ‘–</text><path d="M2710.54 1633.5C2712.69 1633.5 2714.25 1634.06 2715.21 1635.18 2716.17 1636.31 2716.64 1637.81 2716.64 1639.7 2716.64 1641.13 2716.39 1642.78 2715.88 1644.64 2715.37 1646.49 2714.65 1648.46 2713.72 1650.52 2712.8 1652.59 2711.69 1654.71 2710.4 1656.88 2709.11 1659.05 2707.69 1661.16 2706.13 1663.21 2704.58 1665.26 2702.91 1667.2 2701.15 1669.01 2699.38 1670.82 2697.55 1672.4 2695.64 1673.75 2693.74 1675.1 2691.81 1676.17 2689.85 1676.96 2687.89 1677.75 2685.93 1678.15 2683.99 1678.15 2683.12 1678.15 2682.39 1677.93 2681.81 1677.5 2681.22 1677.06 2680.75 1676.45 2680.39 1675.66 2680.03 1674.86 2679.78 1673.93 2679.63 1672.85 2679.48 1671.77 2679.4 1670.59 2679.4 1669.3 2679.4 1667.59 2679.51 1665.77 2679.72 1663.82 2679.93 1661.87 2680.2 1659.91 2680.53 1657.94L2682.41 1645.49C2682.53 1644.77 2682.63 1644.09 2682.71 1643.45 2682.78 1642.8 2682.82 1642.33 2682.82 1642.03 2682.82 1641.1 2682.67 1640.34 2682.37 1639.74 2682.07 1639.14 2681.56 1638.84 2680.84 1638.84 2680.27 1638.84 2679.66 1639.02 2679 1639.36 2678.34 1639.7 2677.68 1640.15 2677 1640.69 2676.33 1641.22 2675.68 1641.8 2675.05 1642.41 2674.42 1643.03 2673.83 1643.6 2673.3 1644.14L2671.14 1641.63C2672.07 1640.67 2673.06 1639.72 2674.1 1638.78 2675.15 1637.83 2676.26 1636.98 2677.43 1636.22 2678.6 1635.45 2679.82 1634.84 2681.11 1634.37 2682.4 1633.91 2683.72 1633.68 2685.06 1633.68 2686.2 1633.68 2687.13 1633.86 2687.85 1634.24 2688.57 1634.61 2689.13 1635.11 2689.53 1635.72 2689.94 1636.34 2690.22 1637.01 2690.37 1637.74 2690.52 1638.48 2690.59 1639.2 2690.59 1639.92 2690.59 1640.34 2690.58 1640.74 2690.55 1641.13 2690.52 1641.52 2690.47 1641.88 2690.41 1642.21L2687.89 1658.47C2687.63 1660.18 2687.4 1661.85 2687.22 1663.48 2687.04 1665.12 2686.95 1666.56 2686.95 1667.82 2686.95 1669.08 2687.03 1670.09 2687.18 1670.87 2687.33 1671.65 2687.61 1672.04 2688.03 1672.04 2689.02 1672.04 2690.26 1671.64 2691.76 1670.85 2693.26 1670.06 2694.83 1668.96 2696.47 1667.57 2698.12 1666.18 2699.77 1664.53 2701.42 1662.63 2703.06 1660.73 2704.55 1658.67 2705.86 1656.45 2707.18 1654.24 2708.25 1651.9 2709.08 1649.44 2709.9 1646.99 2710.31 1644.52 2710.31 1642.03 2710.31 1640.95 2710.08 1640.12 2709.61 1639.54 2709.15 1638.96 2708.42 1638.66 2707.44 1638.66 2706.18 1638.66 2705.02 1639.15 2703.95 1640.12 2702.89 1641.1 2701.79 1642.38 2700.65 1643.96L2698.09 1641.67C2698.81 1640.6 2699.66 1639.56 2700.63 1638.57 2701.6 1637.59 2702.64 1636.72 2703.73 1635.97 2704.82 1635.22 2705.95 1634.62 2707.12 1634.17 2708.29 1633.72 2709.43 1633.5 2710.54 1633.5Z" fill-rule="evenodd"/><text fill="#000000" fill-opacity="0" font-family="Arial,Arial_MSFontService,sans-serif" font-size="44.6523" x="2671.14" y="1672.57">ğ‘£</text><path d="M2732.5 1663.01 2734.76 1663.01 2727.96 1695.07C2727.41 1697.56 2726.71 1699.69 2725.85 1701.47 2724.99 1703.25 2723.93 1704.7 2722.69 1705.84 2721.45 1706.97 2720 1707.8 2718.34 1708.34 2716.68 1708.87 2714.78 1709.14 2712.65 1709.14 2712.08 1709.14 2711.53 1709.11 2711.01 1709.06 2710.49 1709 2710.02 1708.92 2709.6 1708.81L2710.42 1705.38C2710.68 1705.49 2711.03 1705.56 2711.47 1705.59 2711.91 1705.62 2712.41 1705.64 2712.97 1705.64 2714.04 1705.64 2715 1705.5 2715.84 1705.21 2716.68 1704.93 2717.43 1704.42 2718.09 1703.68 2718.76 1702.93 2719.36 1701.91 2719.89 1700.62 2720.43 1699.32 2720.92 1697.66 2721.38 1695.63 2722.14 1692.09 2722.88 1688.78 2723.57 1685.68 2724.27 1682.59 2724.84 1679.99 2725.29 1677.9 2725.74 1675.8 2726.09 1674.13 2726.35 1672.89 2726.62 1671.65 2726.81 1670.69 2726.93 1670.01 2727.05 1669.34 2727.12 1668.86 2727.14 1668.57 2727.16 1668.29 2727.17 1668.06 2727.17 1667.89 2727.17 1667.12 2726.88 1666.56 2726.3 1666.2 2725.73 1665.84 2724.71 1665.64 2723.25 1665.6L2723.74 1663.37ZM2731.29 1649.83 2737.87 1649.83 2736.27 1656.86 2729.69 1656.86Z" fill-rule="evenodd"/><text fill="#000000" fill-opacity="0" font-family="Arial,Arial_MSFontService,sans-serif" font-size="59.312" x="2709.6" y="1701.73">ğ‘—</text><path d="M2963.68 1635.28C2965.84 1635.28 2967.39 1635.84 2968.35 1636.96 2969.31 1638.08 2969.79 1639.59 2969.79 1641.47 2969.79 1642.91 2969.54 1644.56 2969.03 1646.42 2968.52 1648.27 2967.8 1650.23 2966.87 1652.3 2965.94 1654.37 2964.83 1656.49 2963.55 1658.66 2962.26 1660.83 2960.84 1662.94 2959.28 1664.99 2957.72 1667.04 2956.06 1668.97 2954.29 1670.79 2952.53 1672.6 2950.69 1674.18 2948.79 1675.53 2946.89 1676.87 2944.96 1677.94 2942.99 1678.74 2941.03 1679.53 2939.08 1679.93 2937.13 1679.93 2936.26 1679.93 2935.54 1679.71 2934.95 1679.28 2934.37 1678.84 2933.9 1678.23 2933.54 1677.43 2933.18 1676.64 2932.92 1675.7 2932.77 1674.63 2932.63 1673.55 2932.55 1672.37 2932.55 1671.08 2932.55 1669.37 2932.66 1667.54 2932.86 1665.6 2933.07 1663.65 2933.34 1661.69 2933.67 1659.71L2935.56 1647.27C2935.68 1646.55 2935.78 1645.87 2935.85 1645.23 2935.93 1644.58 2935.96 1644.11 2935.96 1643.81 2935.96 1642.88 2935.81 1642.12 2935.52 1641.52 2935.22 1640.92 2934.71 1640.62 2933.99 1640.62 2933.42 1640.62 2932.8 1640.79 2932.15 1641.14 2931.49 1641.48 2930.82 1641.92 2930.15 1642.46 2929.47 1643 2928.82 1643.58 2928.19 1644.19 2927.56 1644.81 2926.98 1645.38 2926.44 1645.92L2924.28 1643.41C2925.21 1642.45 2926.2 1641.5 2927.25 1640.55 2928.3 1639.61 2929.41 1638.76 2930.57 1637.99 2931.74 1637.23 2932.97 1636.62 2934.26 1636.15 2935.55 1635.69 2936.86 1635.45 2938.21 1635.45 2939.35 1635.45 2940.28 1635.64 2941 1636.02 2941.71 1636.39 2942.28 1636.88 2942.68 1637.5 2943.08 1638.11 2943.36 1638.79 2943.51 1639.52 2943.66 1640.25 2943.74 1640.98 2943.74 1641.7 2943.74 1642.12 2943.72 1642.52 2943.69 1642.91 2943.66 1643.3 2943.62 1643.66 2943.56 1643.99L2941.04 1660.25C2940.77 1661.96 2940.55 1663.63 2940.37 1665.26 2940.19 1666.89 2940.1 1668.34 2940.1 1669.6 2940.1 1670.85 2940.17 1671.87 2940.32 1672.65 2940.47 1673.43 2940.76 1673.82 2941.18 1673.82 2942.16 1673.82 2943.41 1673.42 2944.9 1672.63 2946.4 1671.83 2947.97 1670.74 2949.62 1669.35 2951.27 1667.96 2952.91 1666.31 2954.56 1664.41 2956.21 1662.51 2957.69 1660.45 2959.01 1658.23 2960.33 1656.01 2961.4 1653.68 2962.22 1651.22 2963.04 1648.77 2963.46 1646.3 2963.46 1643.81 2963.46 1642.73 2963.22 1641.9 2962.76 1641.32 2962.3 1640.73 2961.57 1640.44 2960.58 1640.44 2959.32 1640.44 2958.16 1640.93 2957.1 1641.9 2956.04 1642.87 2954.94 1644.15 2953.8 1645.74L2951.24 1643.45C2951.96 1642.37 2952.8 1641.34 2953.78 1640.35 2954.75 1639.36 2955.78 1638.49 2956.88 1637.75 2957.97 1637 2959.1 1636.4 2960.27 1635.95 2961.44 1635.5 2962.57 1635.28 2963.68 1635.28Z" fill-rule="evenodd"/><text fill="#000000" fill-opacity="0" font-family="Arial,Arial_MSFontService,sans-serif" font-size="44.6523" x="2924.28" y="1674.35">ğ‘£</text><path d="M2987.76 1653.21 2990.11 1653.21 2984.35 1678.66 2985.27 1678.66C2986.1 1678.66 2986.99 1678.49 2987.95 1678.14 2988.91 1677.79 2989.87 1677.34 2990.81 1676.78 2991.76 1676.22 2992.67 1675.6 2993.55 1674.9 2994.42 1674.2 2995.19 1673.5 2995.85 1672.79 2996.52 1672.08 2997.05 1671.41 2997.44 1670.78 2997.83 1670.14 2998.03 1669.61 2998.03 1669.17 2998.03 1668.65 2997.85 1668.22 2997.51 1667.9 2997.16 1667.57 2996.52 1667.35 2995.61 1667.24L2996 1665.15 3007.78 1665.15 3008.6 1667.18C3007.22 1668.35 3005.9 1669.45 3004.64 1670.45 3003.37 1671.45 3002.13 1672.42 3000.92 1673.34 2999.71 1674.27 2998.5 1675.18 2997.29 1676.08 2996.08 1676.97 2994.84 1677.9 2993.58 1678.86 2994.1 1680.51 2994.64 1682.2 2995.18 1683.91 2995.73 1685.62 2996.27 1687.32 2996.82 1689 2997.08 1689.89 2997.33 1690.66 2997.55 1691.3 2997.78 1691.95 2998.03 1692.47 2998.29 1692.87 2998.55 1693.28 2998.84 1693.58 2999.14 1693.77 2999.45 1693.97 2999.82 1694.07 3000.25 1694.07 3000.56 1694.07 3000.87 1694.01 3001.2 1693.91 3001.53 1693.8 3001.89 1693.6 3002.3 1693.32 3002.7 1693.03 3003.16 1692.65 3003.67 1692.16 3004.18 1691.66 3004.77 1691.05 3005.42 1690.31L3007.65 1692.43C3006.62 1693.48 3005.67 1694.39 3004.78 1695.15 3003.9 1695.91 3003.06 1696.54 3002.27 1697.03 3001.47 1697.52 3000.7 1697.88 2999.96 1698.11 2999.22 1698.34 2998.46 1698.45 2997.7 1698.45 2996.33 1698.45 2995.22 1698.11 2994.38 1697.42 2993.54 1696.74 2992.83 1695.75 2992.24 1694.48 2991.65 1693.2 2991.11 1691.66 2990.62 1689.85 2990.13 1688.04 2989.56 1686.02 2988.9 1683.8 2988.75 1683.27 2988.6 1682.85 2988.46 1682.54 2988.32 1682.22 2988.14 1681.98 2987.92 1681.82 2987.7 1681.65 2987.43 1681.55 2987.1 1681.51 2986.77 1681.46 2986.36 1681.44 2985.86 1681.44L2983.76 1681.44 2980.17 1697.86 2973.89 1697.86 2981.8 1662.73C2982.06 1661.57 2982.25 1660.66 2982.36 1660 2982.47 1659.33 2982.52 1658.74 2982.52 1658.21 2982.52 1657.8 2982.45 1657.44 2982.31 1657.13 2982.17 1656.83 2981.93 1656.58 2981.61 1656.4 2981.28 1656.21 2980.84 1656.08 2980.3 1655.99 2979.75 1655.9 2979.08 1655.85 2978.27 1655.83L2978.76 1653.6Z" fill-rule="evenodd"/><text fill="#000000" fill-opacity="0" font-family="Arial,Arial_MSFontService,sans-serif" font-size="45.2446" x="2973.89" y="1692.8">ğ‘˜</text><path d="M2802.5 1458C2802.5 1442.81 2814.81 1430.5 2830 1430.5 2845.19 1430.5 2857.5 1442.81 2857.5 1458 2857.5 1473.19 2845.19 1485.5 2830 1485.5 2814.81 1485.5 2802.5 1473.19 2802.5 1458Z" stroke="#000000" stroke-width="4.58333" stroke-miterlimit="8" fill="#7F7F7F" fill-rule="evenodd"/><path d="M0 0 127.365 0.093832" stroke="#FF0000" stroke-width="5.72917" stroke-miterlimit="8" stroke-dasharray="17.1875 5.72917" fill="none" fill-rule="evenodd" transform="matrix(-1 0 0 1 3148.36 1571)"/><text fill="#FF0000" font-family="Times New Roman,Times New Roman_MSFontService,sans-serif" font-weight="400" font-size="92" transform="matrix(1 0 0 1 3184.51 1604)">noisy edges</text><path d="M3022 1458 3151.92 1458" stroke="#000000" stroke-width="5.72917" stroke-miterlimit="8" fill="none" fill-rule="evenodd"/><text font-family="Times New Roman,Times New Roman_MSFontService,sans-serif" font-weight="400" font-size="92" transform="matrix(1 0 0 1 3180.93 1489)">original edges</text><path d="M3027.31 1631.5C3011.95 1631.5 2999.5 1619.05 2999.5 1603.69L2999.5 1432.31C2999.5 1416.95 3011.95 1404.5 3027.31 1404.5M3681.69 1404.5C3697.05 1404.5 3709.5 1416.95 3709.5 1432.31L3709.5 1603.69C3709.5 1619.05 3697.05 1631.5 3681.69 1631.5" stroke="#000000" stroke-width="3.4375" stroke-miterlimit="8" fill="none" fill-rule="evenodd"/><text font-family="Times New Roman,Times New Roman_MSFontService,sans-serif" font-weight="400" font-size="92" transform="matrix(1 0 0 1 2901.43 1305)">Noisy Triangles</text><rect x="2652" y="645" width="1088" height="545" stroke="#000000" stroke-width="5.72917" stroke-miterlimit="8" fill="none"/><rect x="2652" y="1217" width="1088" height="520" stroke="#000000" stroke-width="5.72917" stroke-miterlimit="8" fill="none"/><text font-family="Times New Roman,Times New Roman_MSFontService,sans-serif" font-weight="400" font-size="92" transform="matrix(1 0 0 1 2683 870)">1<tspan font-size="92" x="0.843018" y="255">0</tspan><tspan font-size="92" x="500.88" y="0">1</tspan><tspan font-size="92" x="501.723" y="255">0</tspan></text><path d="M2771 835.854 3137.85 835.855 3137.85 838.146 2771 838.146ZM3133.26 823.25 3160.76 837 3133.26 850.75Z"/><path d="M2772 1090.85 3138.85 1090.85 3138.85 1093.15 2772 1093.15ZM3134.26 1078.25 3161.76 1092 3134.26 1105.75Z"/><path d="M2771.54 857.989 3141.08 1055.08 3140 1057.1 2770.46 860.011ZM3142.97 1041.8 3160.76 1066.87 3130.03 1066.07Z"/><path d="M0.539216-1.01103 370.082 196.079 369.004 198.101-0.539216 1.01103ZM371.97 182.8 389.764 207.874 359.029 207.065Z" transform="matrix(1 0 0 -1 2773 1066.87)"/><path d="M2885.18 775.854C2883.8 775.854 2882.45 776.32 2881.11 777.252 2879.77 778.184 2878.31 779.677 2876.71 781.73 2875.12 783.784 2873.88 785.81 2872.98 787.809 2872.09 789.809 2871.39 792.105 2870.88 794.699L2870.55 796.401C2870.28 797.833 2870.11 798.927 2870.05 799.684 2869.98 800.44 2869.94 801.183 2869.94 801.913 2869.94 804.02 2870.4 805.554 2871.3 806.513 2872.21 807.472 2873.77 807.951 2875.98 807.951 2877.36 807.951 2878.63 807.681 2879.79 807.141 2880.95 806.601 2882.06 805.817 2883.1 804.79 2884.14 803.764 2885.07 802.521 2885.91 801.062 2886.75 799.603 2887.5 797.907 2888.16 795.976 2888.82 794.044 2889.32 792.058 2889.66 790.018 2890 787.978 2890.17 786.067 2890.17 784.284 2890.17 781.447 2889.77 779.332 2888.97 777.941 2888.18 776.55 2886.91 775.854 2885.18 775.854ZM2868.12 771.072C2869.8 771.072 2871.13 771.625 2872.11 772.733 2873.1 773.841 2873.59 775.313 2873.59 777.151 2873.59 778.664 2873.28 780.258 2872.66 781.933L2873.15 782.095C2878.14 774.773 2883.12 771.112 2888.06 771.112 2891.01 771.112 2893.3 772.233 2894.93 774.476 2896.56 776.718 2897.38 779.88 2897.38 783.959 2897.38 788.417 2896.48 792.801 2894.69 797.11 2892.89 801.42 2890.4 804.838 2887.21 807.364 2884.02 809.89 2880.45 811.153 2876.51 811.153 2872.92 811.153 2869.93 810.37 2867.55 808.803L2865.69 817.678C2865.28 819.596 2865.08 821.177 2865.08 822.42 2865.08 823.609 2865.39 824.453 2865.99 824.953 2866.6 825.453 2867.78 825.784 2869.54 825.946L2869.22 827.931 2856.69 827.931 2866.46 784.932C2867.03 782.446 2867.31 780.406 2867.31 778.812 2867.31 777.732 2867.13 776.948 2866.78 776.462 2866.43 775.975 2865.88 775.732 2865.12 775.732 2864.28 775.732 2863.4 776.077 2862.47 776.766 2861.54 777.455 2860.26 778.704 2858.64 780.514L2856.33 778.245C2858.76 775.705 2860.82 773.875 2862.51 772.753 2864.2 771.632 2866.07 771.072 2868.12 771.072Z" fill-rule="evenodd"/><text fill="#000000" fill-opacity="0" font-family="Arial,Arial_MSFontService,sans-serif" font-size="56.8599" x="2856.33" y="820.824">ğ‘</text><path d="M2916.78 788.985 2918.6 788.985C2918.56 790.077 2918.53 791.055 2918.51 791.919 2918.49 792.783 2918.47 793.622 2918.46 794.436 2918.45 795.25 2918.45 796.054 2918.45 796.848L2918.45 819.485C2918.45 820.101 2918.47 820.632 2918.51 821.079 2918.55 821.525 2918.61 821.903 2918.7 822.211 2918.79 822.518 2918.91 822.781 2919.06 823 2919.21 823.218 2919.38 823.407 2919.58 823.566 2919.82 823.804 2920.13 823.988 2920.53 824.117 2920.93 824.246 2921.44 824.355 2922.05 824.444 2922.67 824.534 2923.41 824.603 2924.27 824.653 2925.13 824.703 2926.17 824.737 2927.38 824.757L2927.38 827.348 2903.76 827.348 2903.76 824.757C2904.93 824.717 2905.93 824.673 2906.74 824.623 2907.56 824.573 2908.25 824.504 2908.83 824.415 2909.4 824.325 2909.86 824.226 2910.21 824.117 2910.56 824.008 2910.86 823.874 2911.12 823.715 2911.4 823.536 2911.64 823.342 2911.83 823.134 2912.03 822.925 2912.19 822.662 2912.31 822.345 2912.43 822.027 2912.52 821.64 2912.59 821.183 2912.66 820.726 2912.7 820.16 2912.7 819.485L2912.7 798.129C2912.7 797.355 2912.55 796.809 2912.25 796.491 2911.95 796.173 2911.53 796.014 2910.97 796.014 2910.35 796.014 2909.44 796.332 2908.23 796.968 2907.02 797.603 2905.45 798.546 2903.52 799.797 2903.27 799.34 2903.03 798.884 2902.81 798.427 2902.59 797.97 2902.36 797.504 2902.12 797.027 2904.59 795.677 2907.02 794.332 2909.44 792.991 2911.85 791.651 2914.3 790.316 2916.78 788.985Z" fill-rule="evenodd"/><text fill="#000000" fill-opacity="0" font-family="Arial,Arial_MSFontService,sans-serif" font-size="38.3633" x="2902.12" y="822.553">1</text><path d="M2691.22 935.06 2693.45 935.06C2693.29 937.654 2693.21 941.247 2693.21 945.84L2693.21 980.451C2693.21 982.018 2693.29 983.2 2693.47 983.997 2693.65 984.794 2693.96 985.442 2694.4 985.942 2694.85 986.442 2695.49 986.834 2696.33 987.117 2697.16 987.401 2698.22 987.617 2699.49 987.766 2700.76 987.914 2702.43 988.016 2704.51 988.07L2704.51 991.028 2674.56 991.028 2674.56 988.07C2677.56 987.935 2679.7 987.752 2680.99 987.523 2682.27 987.293 2683.25 986.948 2683.93 986.489 2684.6 986.03 2685.09 985.381 2685.4 984.544 2685.72 983.706 2685.87 982.342 2685.87 980.451L2685.87 947.583C2685.87 946.502 2685.68 945.712 2685.3 945.212 2684.93 944.712 2684.37 944.462 2683.64 944.462 2682.78 944.462 2681.55 944.908 2679.95 945.8 2678.36 946.691 2676.39 947.921 2674.04 949.488L2672.25 946.367Z" fill-rule="evenodd"/><text fill="#000000" fill-opacity="0" font-family="Arial,Arial_MSFontService,sans-serif" font-size="55.9683" x="2672.25" y="984.032">1</text><path d="M2735.25 964.604 2785.17 964.604 2785.17 969.994 2735.25 969.994Z" fill-rule="evenodd"/><text fill="#000000" fill-opacity="0" font-family="Arial,Arial_MSFontService,sans-serif" font-size="5.39014" x="2735.25" y="969.321">âˆ’</text><path d="M2839.24 956.377C2837.86 956.377 2836.51 956.843 2835.17 957.775 2833.83 958.708 2832.37 960.2 2830.77 962.254 2829.18 964.307 2827.94 966.333 2827.04 968.333 2826.15 970.332 2825.45 972.629 2824.94 975.222L2824.61 976.925C2824.34 978.357 2824.17 979.451 2824.11 980.207 2824.04 980.964 2824 981.707 2824 982.436 2824 984.544 2824.46 986.077 2825.36 987.036 2826.27 987.995 2827.83 988.475 2830.04 988.475 2831.42 988.475 2832.69 988.205 2833.85 987.664 2835.01 987.124 2836.12 986.34 2837.16 985.314 2838.2 984.287 2839.13 983.044 2839.97 981.585 2840.81 980.126 2841.56 978.431 2842.22 976.499 2842.88 974.567 2843.38 972.581 2843.72 970.542 2844.06 968.502 2844.23 966.59 2844.23 964.807 2844.23 961.97 2843.83 959.856 2843.03 958.464 2842.24 957.073 2840.97 956.377 2839.24 956.377ZM2822.18 951.595C2823.86 951.595 2825.19 952.149 2826.17 953.257 2827.16 954.364 2827.65 955.837 2827.65 957.674 2827.65 959.187 2827.34 960.781 2826.72 962.456L2827.21 962.618C2832.2 955.297 2837.18 951.636 2842.12 951.636 2845.07 951.636 2847.36 952.757 2848.99 954.999 2850.62 957.242 2851.44 960.403 2851.44 964.483 2851.44 968.941 2850.54 973.324 2848.75 977.634 2846.95 981.943 2844.46 985.361 2841.27 987.887 2838.08 990.413 2834.51 991.677 2830.57 991.677 2826.98 991.677 2823.99 990.893 2821.61 989.326L2819.75 998.201C2819.34 1000.12 2819.14 1001.7 2819.14 1002.94 2819.14 1004.13 2819.45 1004.98 2820.05 1005.48 2820.66 1005.98 2821.84 1006.31 2823.6 1006.47L2823.28 1008.45 2810.75 1008.45 2820.52 965.455C2821.09 962.97 2821.37 960.93 2821.37 959.336 2821.37 958.255 2821.19 957.471 2820.84 956.985 2820.49 956.499 2819.94 956.256 2819.18 956.256 2818.34 956.256 2817.46 956.6 2816.53 957.289 2815.6 957.978 2814.32 959.228 2812.7 961.038L2810.39 958.768C2812.82 956.229 2814.88 954.398 2816.57 953.277 2818.26 952.156 2820.13 951.595 2822.18 951.595Z" fill-rule="evenodd"/><text fill="#000000" fill-opacity="0" font-family="Arial,Arial_MSFontService,sans-serif" font-size="56.8599" x="2810.39" y="1001.35">ğ‘</text><path d="M2870.84 969.509 2872.66 969.509C2872.62 970.601 2872.59 971.579 2872.57 972.442 2872.55 973.306 2872.53 974.145 2872.52 974.959 2872.51 975.773 2872.51 976.578 2872.51 977.372L2872.51 1000.01C2872.51 1000.62 2872.53 1001.16 2872.57 1001.6 2872.61 1002.05 2872.67 1002.43 2872.76 1002.73 2872.85 1003.04 2872.97 1003.3 2873.12 1003.52 2873.27 1003.74 2873.44 1003.93 2873.64 1004.09 2873.88 1004.33 2874.19 1004.51 2874.59 1004.64 2874.99 1004.77 2875.5 1004.88 2876.11 1004.97 2876.73 1005.06 2877.47 1005.13 2878.33 1005.18 2879.19 1005.23 2880.23 1005.26 2881.44 1005.28L2881.44 1007.87 2857.82 1007.87 2857.82 1005.28C2858.99 1005.24 2859.99 1005.2 2860.8 1005.15 2861.62 1005.1 2862.31 1005.03 2862.89 1004.94 2863.46 1004.85 2863.92 1004.75 2864.27 1004.64 2864.62 1004.53 2864.92 1004.4 2865.18 1004.24 2865.46 1004.06 2865.7 1003.87 2865.89 1003.66 2866.09 1003.45 2866.25 1003.19 2866.37 1002.87 2866.49 1002.55 2866.58 1002.16 2866.65 1001.71 2866.72 1001.25 2866.76 1000.68 2866.76 1000.01L2866.76 978.653C2866.76 977.878 2866.61 977.332 2866.31 977.014 2866.01 976.697 2865.59 976.538 2865.03 976.538 2864.42 976.538 2863.5 976.856 2862.29 977.491 2861.08 978.126 2859.51 979.07 2857.58 980.321 2857.33 979.864 2857.09 979.407 2856.87 978.951 2856.65 978.494 2856.42 978.027 2856.18 977.551 2858.65 976.2 2861.08 974.855 2863.5 973.515 2865.91 972.174 2868.36 970.839 2870.84 969.509Z" fill-rule="evenodd"/><text fill="#000000" fill-opacity="0" font-family="Arial,Arial_MSFontService,sans-serif" font-size="38.3633" x="2856.18" y="1003.08">1</text><path d="M2883.52 1114.19C2882.14 1114.19 2880.78 1114.65 2879.44 1115.58 2878.11 1116.52 2876.64 1118.01 2875.05 1120.06 2873.45 1122.12 2872.21 1124.14 2871.32 1126.14 2870.43 1128.14 2869.72 1130.44 2869.21 1133.03L2868.89 1134.73C2868.62 1136.17 2868.45 1137.26 2868.38 1138.02 2868.31 1138.77 2868.28 1139.52 2868.28 1140.25 2868.28 1142.35 2868.73 1143.89 2869.64 1144.85 2870.54 1145.8 2872.1 1146.28 2874.32 1146.28 2875.69 1146.28 2876.96 1146.01 2878.13 1145.47 2879.29 1144.93 2880.39 1144.15 2881.43 1143.12 2882.47 1142.1 2883.41 1140.85 2884.25 1139.39 2885.08 1137.94 2885.83 1136.24 2886.5 1134.31 2887.16 1132.38 2887.66 1130.39 2887.99 1128.35 2888.33 1126.31 2888.5 1124.4 2888.5 1122.62 2888.5 1119.78 2888.1 1117.66 2887.31 1116.27 2886.51 1114.88 2885.25 1114.19 2883.52 1114.19ZM2866.45 1109.4C2868.13 1109.4 2869.46 1109.96 2870.45 1111.07 2871.43 1112.17 2871.93 1113.65 2871.93 1115.48 2871.93 1117 2871.61 1118.59 2870.99 1120.27L2871.48 1120.43C2876.48 1113.11 2881.45 1109.44 2886.39 1109.44 2889.34 1109.44 2891.63 1110.57 2893.26 1112.81 2894.9 1115.05 2895.72 1118.21 2895.72 1122.29 2895.72 1126.75 2894.82 1131.13 2893.02 1135.44 2891.22 1139.75 2888.73 1143.17 2885.54 1145.7 2882.35 1148.22 2878.79 1149.49 2874.84 1149.49 2871.25 1149.49 2868.26 1148.7 2865.89 1147.13L2864.02 1156.01C2863.62 1157.93 2863.42 1159.51 2863.42 1160.75 2863.42 1161.94 2863.72 1162.79 2864.33 1163.29 2864.93 1163.78 2866.12 1164.12 2867.87 1164.28L2867.55 1166.26 2855.03 1166.26 2864.79 1123.26C2865.36 1120.78 2865.64 1118.74 2865.64 1117.14 2865.64 1116.06 2865.47 1115.28 2865.12 1114.79 2864.77 1114.31 2864.21 1114.06 2863.46 1114.06 2862.62 1114.06 2861.73 1114.41 2860.8 1115.1 2859.87 1115.79 2858.59 1117.04 2856.97 1118.85L2854.66 1116.58C2857.09 1114.04 2859.15 1112.21 2860.84 1111.09 2862.53 1109.96 2864.4 1109.4 2866.45 1109.4Z" fill-rule="evenodd"/><text fill="#000000" fill-opacity="0" font-family="Arial,Arial_MSFontService,sans-serif" font-size="56.8599" x="2854.66" y="1159.16">ğ‘</text><path d="M2915.11 1127.32 2916.93 1127.32C2916.89 1128.41 2916.86 1129.39 2916.84 1130.25 2916.82 1131.12 2916.81 1131.95 2916.8 1132.77 2916.79 1133.58 2916.78 1134.39 2916.78 1135.18L2916.78 1157.82C2916.78 1158.43 2916.8 1158.96 2916.84 1159.41 2916.88 1159.86 2916.94 1160.24 2917.03 1160.54 2917.12 1160.85 2917.24 1161.11 2917.39 1161.33 2917.54 1161.55 2917.71 1161.74 2917.91 1161.9 2918.15 1162.14 2918.47 1162.32 2918.87 1162.45 2919.26 1162.58 2919.77 1162.69 2920.38 1162.78 2921 1162.87 2921.74 1162.94 2922.6 1162.99 2923.47 1163.03 2924.5 1163.07 2925.72 1163.09L2925.72 1165.68 2902.1 1165.68 2902.1 1163.09C2903.27 1163.05 2904.26 1163.01 2905.07 1162.96 2905.89 1162.91 2906.58 1162.84 2907.16 1162.75 2907.74 1162.66 2908.2 1162.56 2908.54 1162.45 2908.89 1162.34 2909.2 1162.21 2909.45 1162.05 2909.73 1161.87 2909.97 1161.67 2910.17 1161.47 2910.37 1161.26 2910.53 1160.99 2910.64 1160.68 2910.76 1160.36 2910.86 1159.97 2910.93 1159.52 2911 1159.06 2911.03 1158.49 2911.03 1157.82L2911.03 1136.46C2911.03 1135.69 2910.88 1135.14 2910.58 1134.82 2910.29 1134.51 2909.86 1134.35 2909.3 1134.35 2908.69 1134.35 2907.78 1134.66 2906.56 1135.3 2905.35 1135.94 2903.78 1136.88 2901.86 1138.13 2901.6 1137.67 2901.36 1137.22 2901.14 1136.76 2900.92 1136.3 2900.7 1135.84 2900.46 1135.36 2902.92 1134.01 2905.36 1132.66 2907.77 1131.32 2910.18 1129.98 2912.63 1128.65 2915.11 1127.32Z" fill-rule="evenodd"/><text fill="#000000" fill-opacity="0" font-family="Arial,Arial_MSFontService,sans-serif" font-size="38.3633" x="2900.46" y="1160.89">1</text><text font-family="Times New Roman,Times New Roman_MSFontService,sans-serif" font-weight="400" font-size="92" transform="matrix(1 0 0 1 3668.29 870)">1<tspan font-size="92" x="0.843018" y="255">0</tspan></text><path d="M3253 835.854 3619.85 835.855 3619.85 838.146 3253 838.146ZM3615.26 823.25 3642.76 837 3615.26 850.75Z"/><path d="M3254 1090.85 3620.85 1090.85 3620.85 1093.15 3254 1093.15ZM3616.26 1078.25 3643.76 1092 3616.26 1105.75Z"/><path d="M3253.51 859.975 3622.78 1044.61 3621.75 1046.66 3252.49 862.025ZM3624.32 1031.29 3642.76 1055.88 3612.02 1055.88Z"/><path d="M3369.18 775.854C3367.8 775.854 3366.45 776.32 3365.11 777.252 3363.77 778.184 3362.31 779.677 3360.71 781.73 3359.12 783.784 3357.88 785.81 3356.98 787.809 3356.09 789.809 3355.39 792.105 3354.88 794.699L3354.55 796.401C3354.28 797.833 3354.11 798.927 3354.05 799.684 3353.98 800.44 3353.94 801.183 3353.94 801.913 3353.94 804.02 3354.4 805.554 3355.3 806.513 3356.21 807.472 3357.77 807.951 3359.98 807.951 3361.36 807.951 3362.63 807.681 3363.79 807.141 3364.95 806.601 3366.06 805.817 3367.1 804.79 3368.14 803.764 3369.07 802.521 3369.91 801.062 3370.75 799.603 3371.5 797.907 3372.16 795.976 3372.82 794.044 3373.32 792.058 3373.66 790.018 3374 787.978 3374.17 786.067 3374.17 784.284 3374.17 781.447 3373.77 779.332 3372.97 777.941 3372.18 776.55 3370.91 775.854 3369.18 775.854ZM3352.12 771.072C3353.8 771.072 3355.13 771.625 3356.11 772.733 3357.1 773.841 3357.59 775.313 3357.59 777.151 3357.59 778.664 3357.28 780.258 3356.66 781.933L3357.15 782.095C3362.14 774.773 3367.12 771.112 3372.06 771.112 3375.01 771.112 3377.3 772.233 3378.93 774.476 3380.56 776.718 3381.38 779.88 3381.38 783.959 3381.38 788.417 3380.48 792.801 3378.69 797.11 3376.89 801.42 3374.4 804.838 3371.21 807.364 3368.02 809.89 3364.45 811.153 3360.51 811.153 3356.92 811.153 3353.93 810.37 3351.55 808.803L3349.69 817.678C3349.28 819.596 3349.08 821.177 3349.08 822.42 3349.08 823.609 3349.39 824.453 3349.99 824.953 3350.6 825.453 3351.78 825.784 3353.54 825.946L3353.22 827.931 3340.69 827.931 3350.46 784.932C3351.03 782.446 3351.31 780.406 3351.31 778.812 3351.31 777.732 3351.13 776.948 3350.78 776.462 3350.43 775.975 3349.88 775.732 3349.12 775.732 3348.28 775.732 3347.4 776.077 3346.47 776.766 3345.54 777.455 3344.26 778.704 3342.64 780.514L3340.33 778.245C3342.76 775.705 3344.82 773.875 3346.51 772.753 3348.2 771.632 3350.07 771.072 3352.12 771.072Z" fill-rule="evenodd"/><text fill="#000000" fill-opacity="0" font-family="Arial,Arial_MSFontService,sans-serif" font-size="56.8599" x="3340.33" y="820.824">ğ‘</text><path d="M3400.36 788.777C3402.42 788.777 3404.18 789.01 3405.64 789.477 3407.1 789.943 3408.29 790.574 3409.2 791.368 3410.12 792.162 3410.78 793.115 3411.18 794.227 3411.59 795.339 3411.79 796.541 3411.79 797.831 3411.79 798.606 3411.74 799.326 3411.63 799.991 3411.52 800.656 3411.33 801.311 3411.07 801.957 3410.8 802.602 3410.44 803.252 3410.01 803.908 3409.57 804.563 3409.02 805.258 3408.37 805.992 3407.87 806.628 3407.23 807.363 3406.43 808.197 3405.64 809.031 3404.77 809.924 3403.83 810.877 3402.88 811.83 3401.9 812.823 3400.86 813.856 3399.83 814.888 3398.83 815.911 3397.86 816.924 3396.88 817.936 3395.99 818.919 3395.17 819.872 3394.36 820.826 3393.7 821.699 3393.18 822.493L3404.2 822.493C3405.13 822.493 3405.88 822.459 3406.43 822.389 3406.99 822.32 3407.45 822.166 3407.82 821.928 3408.19 821.689 3408.5 821.327 3408.76 820.84 3409.01 820.354 3409.31 819.684 3409.65 818.83L3412.42 818.83C3412.32 820.24 3412.23 821.659 3412.14 823.089 3412.05 824.519 3411.95 825.939 3411.85 827.348L3386.63 827.348 3386.63 825.8C3387.1 824.727 3387.66 823.67 3388.29 822.628 3388.93 821.585 3389.64 820.528 3390.44 819.455 3391.23 818.383 3392.14 817.276 3393.15 816.134 3394.16 814.993 3395.28 813.806 3396.52 812.575 3398.38 810.708 3399.9 809.115 3401.07 807.794 3402.24 806.474 3403.17 805.297 3403.84 804.265 3404.52 803.232 3404.98 802.279 3405.23 801.406 3405.48 800.532 3405.6 799.599 3405.6 798.606 3405.6 797.593 3405.46 796.66 3405.17 795.806 3404.88 794.952 3404.47 794.227 3403.93 793.632 3403.4 793.036 3402.72 792.569 3401.89 792.232 3401.07 791.894 3400.12 791.725 3399.05 791.725 3397.2 791.725 3395.65 792.227 3394.4 793.23 3393.15 794.232 3392.18 795.687 3391.48 797.593L3387.58 797.593 3387.58 791.785C3390.12 790.733 3392.46 789.968 3394.59 789.492 3396.73 789.015 3398.65 788.777 3400.36 788.777Z" fill-rule="evenodd"/><text fill="#000000" fill-opacity="0" font-family="Arial,Arial_MSFontService,sans-serif" font-size="38.5718" x="3386.63" y="822.527">2</text><path d="M3220.09 935.06 3222.32 935.06C3222.16 937.654 3222.08 941.247 3222.08 945.84L3222.08 980.451C3222.08 982.018 3222.17 983.2 3222.34 983.997 3222.52 984.794 3222.83 985.442 3223.27 985.942 3223.72 986.442 3224.36 986.834 3225.2 987.117 3226.04 987.401 3227.09 987.617 3228.36 987.766 3229.63 987.914 3231.3 988.016 3233.38 988.07L3233.38 991.028 3203.43 991.028 3203.43 988.07C3206.43 987.935 3208.57 987.752 3209.86 987.523 3211.14 987.293 3212.12 986.948 3212.8 986.489 3213.47 986.03 3213.96 985.381 3214.28 984.544 3214.59 983.706 3214.74 982.342 3214.74 980.451L3214.74 947.583C3214.74 946.502 3214.55 945.712 3214.17 945.212 3213.8 944.712 3213.24 944.462 3212.51 944.462 3211.65 944.462 3210.42 944.908 3208.82 945.8 3207.23 946.691 3205.26 947.921 3202.91 949.488L3201.12 946.367Z" fill-rule="evenodd"/><text fill="#000000" fill-opacity="0" font-family="Arial,Arial_MSFontService,sans-serif" font-size="55.9683" x="3201.12" y="984.032">1</text><path d="M3264.12 964.604 3314.05 964.604 3314.05 969.994 3264.12 969.994Z" fill-rule="evenodd"/><text fill="#000000" fill-opacity="0" font-family="Arial,Arial_MSFontService,sans-serif" font-size="5.39014" x="3264.12" y="969.321">âˆ’</text><path d="M3368.11 956.377C3366.74 956.377 3365.38 956.843 3364.04 957.775 3362.7 958.708 3361.24 960.2 3359.64 962.254 3358.05 964.307 3356.81 966.333 3355.92 968.333 3355.02 970.332 3354.32 972.629 3353.81 975.222L3353.48 976.925C3353.21 978.357 3353.04 979.451 3352.98 980.207 3352.91 980.964 3352.88 981.707 3352.88 982.436 3352.88 984.544 3353.33 986.077 3354.23 987.036 3355.14 987.995 3356.7 988.475 3358.91 988.475 3360.29 988.475 3361.56 988.205 3362.72 987.664 3363.89 987.124 3364.99 986.34 3366.03 985.314 3367.07 984.287 3368.01 983.044 3368.84 981.585 3369.68 980.126 3370.43 978.431 3371.09 976.499 3371.75 974.567 3372.25 972.581 3372.59 970.542 3372.93 968.502 3373.1 966.59 3373.1 964.807 3373.1 961.97 3372.7 959.856 3371.9 958.464 3371.11 957.073 3369.84 956.377 3368.11 956.377ZM3351.05 951.595C3352.73 951.595 3354.06 952.149 3355.04 953.257 3356.03 954.364 3356.52 955.837 3356.52 957.674 3356.52 959.187 3356.21 960.781 3355.59 962.456L3356.08 962.618C3361.08 955.297 3366.05 951.636 3370.99 951.636 3373.94 951.636 3376.23 952.757 3377.86 954.999 3379.5 957.242 3380.31 960.403 3380.31 964.483 3380.31 968.941 3379.41 973.324 3377.62 977.634 3375.82 981.943 3373.33 985.361 3370.14 987.887 3366.95 990.413 3363.39 991.677 3359.44 991.677 3355.85 991.677 3352.86 990.893 3350.48 989.326L3348.62 998.201C3348.21 1000.12 3348.01 1001.7 3348.01 1002.94 3348.01 1004.13 3348.32 1004.98 3348.92 1005.48 3349.53 1005.98 3350.71 1006.31 3352.47 1006.47L3352.15 1008.45 3339.62 1008.45 3349.39 965.455C3349.96 962.97 3350.24 960.93 3350.24 959.336 3350.24 958.255 3350.07 957.471 3349.71 956.985 3349.36 956.499 3348.81 956.256 3348.05 956.256 3347.22 956.256 3346.33 956.6 3345.4 957.289 3344.47 957.978 3343.19 959.228 3341.57 961.038L3339.26 958.768C3341.69 956.229 3343.75 954.398 3345.44 953.277 3347.13 952.156 3349 951.595 3351.05 951.595Z" fill-rule="evenodd"/><text fill="#000000" fill-opacity="0" font-family="Arial,Arial_MSFontService,sans-serif" font-size="56.8599" x="3339.26" y="1001.35">ğ‘</text><path d="M3399.29 969.3C3401.35 969.3 3403.12 969.533 3404.57 970 3406.03 970.467 3407.22 971.097 3408.13 971.891 3409.05 972.686 3409.71 973.639 3410.11 974.751 3410.52 975.863 3410.73 977.064 3410.73 978.355 3410.73 979.129 3410.67 979.849 3410.56 980.514 3410.45 981.179 3410.26 981.835 3410 982.48 3409.73 983.125 3409.38 983.776 3408.94 984.431 3408.5 985.086 3407.96 985.781 3407.3 986.516 3406.8 987.151 3406.16 987.886 3405.36 988.72 3404.57 989.554 3403.7 990.448 3402.76 991.401 3401.81 992.354 3400.83 993.347 3399.79 994.379 3398.76 995.412 3397.76 996.434 3396.79 997.447 3395.81 998.46 3394.92 999.443 3394.11 1000.4 3393.29 1001.35 3392.63 1002.22 3392.11 1003.02L3403.13 1003.02C3404.06 1003.02 3404.81 1002.98 3405.36 1002.91 3405.92 1002.84 3406.38 1002.69 3406.75 1002.45 3407.12 1002.21 3407.43 1001.85 3407.69 1001.36 3407.95 1000.88 3408.24 1000.21 3408.58 999.353L3411.35 999.353C3411.25 1000.76 3411.16 1002.18 3411.07 1003.61 3410.98 1005.04 3410.88 1006.46 3410.79 1007.87L3385.56 1007.87 3385.56 1006.32C3386.03 1005.25 3386.59 1004.19 3387.23 1003.15 3387.86 1002.11 3388.58 1001.05 3389.37 999.979 3390.16 998.907 3391.07 997.8 3392.08 996.658 3393.09 995.516 3394.21 994.33 3395.45 993.098 3397.31 991.232 3398.83 989.638 3400 988.318 3401.17 986.997 3402.1 985.821 3402.77 984.788 3403.45 983.756 3403.91 982.803 3404.16 981.929 3404.41 981.055 3404.53 980.122 3404.53 979.129 3404.53 978.117 3404.39 977.183 3404.1 976.329 3403.81 975.476 3403.4 974.751 3402.86 974.155 3402.33 973.559 3401.65 973.093 3400.82 972.755 3400 972.418 3399.05 972.249 3397.98 972.249 3396.13 972.249 3394.58 972.75 3393.33 973.753 3392.08 974.756 3391.11 976.21 3390.41 978.117L3386.51 978.117 3386.51 972.308C3389.05 971.256 3391.39 970.492 3393.52 970.015 3395.66 969.538 3397.58 969.3 3399.29 969.3Z" fill-rule="evenodd"/><text fill="#000000" fill-opacity="0" font-family="Arial,Arial_MSFontService,sans-serif" font-size="38.5718" x="3385.56" y="1003.05">2</text></g></svg>