<svg width="3457" height="1454" xmlns="http://www.w3.org/2000/svg" xmlns:xlink="http://www.w3.org/1999/xlink" overflow="hidden"><defs><clipPath id="clip0"><rect x="882" y="391" width="3457" height="1454"/></clipPath></defs><g clip-path="url(#clip0)" transform="translate(-882 -391)"><path d="M1232.5 1474C1232.5 1448.87 1253.09 1428.5 1278.5 1428.5 1303.91 1428.5 1324.5 1448.87 1324.5 1474 1324.5 1499.13 1303.91 1519.5 1278.5 1519.5 1253.09 1519.5 1232.5 1499.13 1232.5 1474Z" stroke="#000000" stroke-width="4.58333" stroke-miterlimit="8" fill="#FFFFFF" fill-rule="evenodd"/><text font-family="Times New Roman,Times New Roman_MSFontService,sans-serif" font-weight="400" font-size="73" transform="matrix(1 0 0 1 1062.04 1694)">4<tspan font-size="73" x="197.369" y="-198">2</tspan></text><path d="M1072.5 917C1072.5 891.871 1093.09 871.5 1118.5 871.5 1143.91 871.5 1164.5 891.871 1164.5 917 1164.5 942.129 1143.91 962.5 1118.5 962.5 1093.09 962.5 1072.5 942.129 1072.5 917Z" stroke="#000000" stroke-width="4.58333" stroke-miterlimit="8" fill="none" fill-rule="evenodd"/><path d="M1072.5 723C1072.5 697.871 1093.09 677.5 1118.5 677.5 1143.91 677.5 1164.5 697.871 1164.5 723 1164.5 748.129 1143.91 768.5 1118.5 768.5 1093.09 768.5 1072.5 748.129 1072.5 723Z" stroke="#000000" stroke-width="4.58333" stroke-miterlimit="8" fill="#FFFFFF" fill-rule="evenodd"/><path d="M1268.94 723 1165 723" stroke="#000000" stroke-width="5.72917" stroke-miterlimit="8" fill="none" fill-rule="evenodd"/><text font-family="Times New Roman,Times New Roman_MSFontService,sans-serif" font-weight="400" font-size="73" transform="matrix(1 0 0 1 1099.51 746)">1<tspan font-size="73" x="1.24048" y="197">3</tspan></text><path d="M1270.5 917C1270.5 891.871 1291.09 871.5 1316.5 871.5 1341.91 871.5 1362.5 891.871 1362.5 917 1362.5 942.129 1341.91 962.5 1316.5 962.5 1291.09 962.5 1270.5 942.129 1270.5 917Z" stroke="#000000" stroke-width="4.58333" stroke-miterlimit="8" fill="none" fill-rule="evenodd"/><path d="M1271.5 723C1271.5 697.871 1292.09 677.5 1317.5 677.5 1342.91 677.5 1363.5 697.871 1363.5 723 1363.5 748.129 1342.91 768.5 1317.5 768.5 1292.09 768.5 1271.5 748.129 1271.5 723Z" stroke="#000000" stroke-width="4.58333" stroke-miterlimit="8" fill="#FFFFFF" fill-rule="evenodd"/><text font-family="Times New Roman,Times New Roman_MSFontService,sans-serif" font-weight="400" font-size="73" transform="matrix(1 0 0 1 1298.12 746)">4<tspan font-size="73" x="1.24036" y="197">2</tspan></text><path d="M1268.94 917 1165 917" stroke="#000000" stroke-width="5.72917" stroke-miterlimit="8" fill="none" fill-rule="evenodd"/><path d="M0 0 0.000360892 103.937" stroke="#000000" stroke-width="5.72917" stroke-miterlimit="8" fill="none" fill-rule="evenodd" transform="matrix(-1 0 0 1 1118 768)"/><path d="M0 0 0.000360892 103.937" stroke="#000000" stroke-width="5.72917" stroke-miterlimit="8" fill="none" fill-rule="evenodd" transform="matrix(-1 0 0 1 1318 767)"/><path d="M1058.18 1001.29 1060.83 1001.29 1054.36 1030.13C1053.7 1033.06 1053.37 1035.28 1053.37 1036.77 1053.37 1037.97 1053.57 1038.84 1053.96 1039.38 1054.34 1039.92 1054.96 1040.19 1055.8 1040.19 1056.7 1040.19 1057.65 1039.82 1058.67 1039.09 1059.69 1038.35 1061.13 1036.95 1062.98 1034.89L1065.54 1037.4C1062.61 1040.49 1060.23 1042.58 1058.4 1043.69 1056.58 1044.8 1054.52 1045.35 1052.25 1045.35 1050.3 1045.35 1048.74 1044.64 1047.58 1043.22 1046.41 1041.8 1045.82 1039.98 1045.82 1037.76 1045.82 1035.49 1046.24 1032.58 1047.08 1029.05L1050.45 1014.36C1051.14 1011.36 1051.48 1009.12 1051.48 1007.62 1051.48 1006.27 1051.16 1005.36 1050.52 1004.88 1049.87 1004.4 1048.61 1004.13 1046.72 1004.07L1047.22 1001.69ZM1056.96 984.081 1064.92 984.081 1062.85 992.796 1054.9 992.796ZM1079.63 974.198 1088.03 974.198 1088.03 976.759 1077.21 1002.81 1073.39 1001.69Z" fill-rule="evenodd"/><text fill="#000000" fill-opacity="0" font-family="Arial,Arial_MSFontService,sans-serif" font-size="71.1562" x="1045.82" y="1036.46">𝑖′</text><path d="M1396.27 618.976 1398.92 618.976 1392.45 647.816C1391.79 650.751 1391.46 652.967 1391.46 654.464 1391.46 655.662 1391.66 656.531 1392.05 657.07 1392.44 657.609 1393.05 657.878 1393.89 657.878 1394.79 657.878 1395.75 657.512 1396.77 656.778 1397.78 656.044 1399.22 654.644 1401.08 652.578L1403.64 655.093C1400.7 658.178 1398.32 660.274 1396.5 661.382 1394.67 662.49 1392.62 663.044 1390.34 663.044 1388.39 663.044 1386.84 662.333 1385.67 660.911 1384.5 659.488 1383.92 657.669 1383.92 655.453 1383.92 653.177 1384.34 650.272 1385.18 646.738L1388.54 632.048C1389.23 629.054 1389.58 626.807 1389.58 625.31 1389.58 623.962 1389.26 623.049 1388.61 622.57 1387.97 622.091 1386.7 621.821 1384.82 621.761L1385.31 619.38ZM1395.06 601.771 1403.01 601.771 1400.94 610.486 1392.99 610.486Z" fill-rule="evenodd"/><text fill="#000000" fill-opacity="0" font-family="Arial,Arial_MSFontService,sans-serif" font-size="61.2734" x="1383.92" y="655.385">𝑖</text><path d="M1038.74 609.119 1041.3 609.119 1031.96 653.233C1031 657.785 1029.7 661.446 1028.05 664.216 1026.4 666.986 1024.26 669.068 1021.63 670.46 1018.99 671.853 1015.85 672.549 1012.19 672.549 1010.7 672.549 1009.42 672.399 1008.37 672.1L1009.41 668.147C1010.04 668.386 1011.17 668.506 1012.82 668.506 1014.26 668.506 1015.48 668.289 1016.48 667.855 1017.49 667.421 1018.42 666.702 1019.29 665.699 1020.16 664.695 1020.96 663.295 1021.69 661.498 1022.43 659.701 1023.11 657.38 1023.74 654.535L1031.01 622.192C1031.7 619.137 1032.05 616.891 1032.05 615.453 1032.05 614.106 1031.73 613.192 1031.08 612.713 1030.44 612.234 1029.17 611.964 1027.29 611.905L1027.78 609.524ZM1037.53 591.914 1045.48 591.914 1043.41 600.629 1035.46 600.629Z" fill-rule="evenodd"/><text fill="#000000" fill-opacity="0" font-family="Arial,Arial_MSFontService,sans-serif" font-size="80.6348" x="1008.37" y="662.47">𝑗</text><path d="M1082.5 632.524 1137.85 632.524 1137.85 638.498 1082.5 638.498ZM1082.5 613.881 1137.85 613.881 1137.85 619.856 1082.5 619.856Z" fill-rule="evenodd"/><text fill="#000000" fill-opacity="0" font-family="Arial,Arial_MSFontService,sans-serif" font-size="24.6172" x="1082.5" y="635.421">=</text><path d="M1193.2 609.119 1195.76 609.119 1186.42 653.233C1185.46 657.785 1184.16 661.446 1182.51 664.216 1180.86 666.986 1178.72 669.068 1176.08 670.46 1173.45 671.853 1170.3 672.549 1166.65 672.549 1165.15 672.549 1163.88 672.399 1162.83 672.1L1163.87 668.147C1164.49 668.386 1165.63 668.506 1167.28 668.506 1168.72 668.506 1169.94 668.289 1170.94 667.855 1171.94 667.421 1172.88 666.702 1173.75 665.699 1174.62 664.695 1175.42 663.295 1176.15 661.498 1176.89 659.701 1177.57 657.38 1178.2 654.535L1185.47 622.192C1186.16 619.137 1186.51 616.891 1186.51 615.453 1186.51 614.106 1186.18 613.192 1185.54 612.713 1184.9 612.234 1183.63 611.964 1181.74 611.905L1182.24 609.524ZM1191.99 591.914 1199.94 591.914 1197.87 600.629 1189.92 600.629ZM1214.12 582.032 1222.52 582.032 1222.52 584.592 1211.69 610.647 1207.87 609.524Z" fill-rule="evenodd"/><text fill="#000000" fill-opacity="0" font-family="Arial,Arial_MSFontService,sans-serif" font-size="90.5176" x="1162.83" y="661.234">𝑗′</text><path d="M1311.75 973.649 1314.35 973.649 1305.55 1012.87 1306.99 1012.87C1309.23 1012.87 1311.76 1011.89 1314.56 1009.92 1317.36 1007.96 1319.6 1006.14 1321.27 1004.47 1322.95 1002.79 1323.79 1001.17 1323.79 999.614 1323.79 998.146 1322.77 997.323 1320.73 997.143L1321.23 994.942 1335.78 994.942 1336.64 997.143C1334.15 999.389 1331.51 1001.59 1328.73 1003.75L1317.59 1012.37 1321.99 1028.59C1322.35 1029.97 1322.67 1030.96 1322.96 1031.58 1323.24 1032.19 1323.57 1032.65 1323.95 1032.95 1324.32 1033.25 1324.82 1033.4 1325.45 1033.4 1326.23 1033.4 1327.16 1032.98 1328.24 1032.14 1329.31 1031.3 1330.54 1030.09 1331.92 1028.5L1334.48 1031.01C1331.78 1033.86 1329.55 1035.84 1327.79 1036.94 1326.02 1038.05 1324.31 1038.61 1322.67 1038.61 1320.63 1038.61 1319.01 1038.03 1317.81 1036.88 1316.62 1035.72 1315.67 1033.8 1314.98 1031.1L1312.02 1019.42C1311.72 1018.26 1311.42 1017.45 1311.12 1017 1310.82 1016.55 1310.48 1016.25 1310.09 1016.1 1309.7 1015.95 1309.01 1015.88 1308.02 1015.88L1304.92 1015.88 1300.25 1037.89 1292.48 1037.89 1304.02 986.542C1304.41 984.805 1304.69 983.45 1304.85 982.476 1305.02 981.503 1305.1 980.642 1305.1 979.893 1305.1 978.635 1304.72 977.752 1303.96 977.243 1303.19 976.734 1301.82 976.449 1299.84 976.389L1300.38 974.053Z" fill-rule="evenodd"/><text fill="#000000" fill-opacity="0" font-family="Arial,Arial_MSFontService,sans-serif" font-size="64.957" x="1292.48" y="1030.49">𝑘</text><path d="M1373.6 1017.94 1428.94 1017.94 1428.94 1023.92 1373.6 1023.92ZM1373.6 999.299 1428.94 999.299 1428.94 1005.27 1373.6 1005.27Z" fill-rule="evenodd"/><text fill="#000000" fill-opacity="0" font-family="Arial,Arial_MSFontService,sans-serif" font-size="24.6172" x="1373.6" y="1020.84">=</text><path d="M1484.52 973.649 1487.12 973.649 1478.32 1012.87 1479.76 1012.87C1482 1012.87 1484.53 1011.89 1487.33 1009.92 1490.13 1007.96 1492.36 1006.14 1494.04 1004.47 1495.72 1002.79 1496.56 1001.17 1496.56 999.614 1496.56 998.146 1495.54 997.323 1493.5 997.143L1494 994.942 1508.55 994.942 1509.4 997.143C1506.92 999.389 1504.28 1001.59 1501.5 1003.75L1490.36 1012.37 1494.76 1028.59C1495.12 1029.97 1495.44 1030.96 1495.73 1031.58 1496.01 1032.19 1496.34 1032.65 1496.71 1032.95 1497.09 1033.25 1497.59 1033.4 1498.22 1033.4 1499 1033.4 1499.93 1032.98 1501 1032.14 1502.08 1031.3 1503.31 1030.09 1504.69 1028.5L1507.25 1031.01C1504.55 1033.86 1502.32 1035.84 1500.55 1036.94 1498.79 1038.05 1497.08 1038.61 1495.43 1038.61 1493.4 1038.61 1491.78 1038.03 1490.58 1036.88 1489.38 1035.72 1488.44 1033.8 1487.75 1031.1L1484.79 1019.42C1484.49 1018.26 1484.19 1017.45 1483.89 1017 1483.59 1016.55 1483.24 1016.25 1482.86 1016.1 1482.47 1015.95 1481.78 1015.88 1480.79 1015.88L1477.69 1015.88 1473.02 1037.89 1465.25 1037.89 1476.79 986.542C1477.18 984.805 1477.46 983.45 1477.62 982.476 1477.79 981.503 1477.87 980.642 1477.87 979.893 1477.87 978.635 1477.49 977.752 1476.72 977.243 1475.96 976.734 1474.59 976.449 1472.61 976.389L1473.15 974.053ZM1522.21 967.45 1530.61 967.45 1530.61 970.01 1519.78 996.065 1515.97 994.942Z" fill-rule="evenodd"/><text fill="#000000" fill-opacity="0" font-family="Arial,Arial_MSFontService,sans-serif" font-size="71.1562" x="1465.25" y="1029.71">𝑘′</text><path d="M1741.5 917C1741.5 891.871 1762.09 871.5 1787.5 871.5 1812.91 871.5 1833.5 891.871 1833.5 917 1833.5 942.129 1812.91 962.5 1787.5 962.5 1762.09 962.5 1741.5 942.129 1741.5 917Z" stroke="#000000" stroke-width="4.58333" stroke-miterlimit="8" fill="none" fill-rule="evenodd"/><path d="M1741.5 723C1741.5 697.871 1762.09 677.5 1787.5 677.5 1812.91 677.5 1833.5 697.871 1833.5 723 1833.5 748.129 1812.91 768.5 1787.5 768.5 1762.09 768.5 1741.5 748.129 1741.5 723Z" stroke="#000000" stroke-width="4.58333" stroke-miterlimit="8" fill="#FFFFFF" fill-rule="evenodd"/><path d="M1937.94 723 1834 723" stroke="#000000" stroke-width="5.72917" stroke-miterlimit="8" fill="none" fill-rule="evenodd"/><text font-family="Times New Roman,Times New Roman_MSFontService,sans-serif" font-weight="400" font-size="73" transform="matrix(1 0 0 1 1768.68 746)">1<tspan font-size="73" x="1.24048" y="197">3</tspan></text><path d="M1939.5 917C1939.5 891.871 1960.09 871.5 1985.5 871.5 2010.91 871.5 2031.5 891.871 2031.5 917 2031.5 942.129 2010.91 962.5 1985.5 962.5 1960.09 962.5 1939.5 942.129 1939.5 917Z" stroke="#000000" stroke-width="4.58333" stroke-miterlimit="8" fill="none" fill-rule="evenodd"/><path d="M1940.5 723C1940.5 697.871 1961.09 677.5 1986.5 677.5 2011.91 677.5 2032.5 697.871 2032.5 723 2032.5 748.129 2011.91 768.5 1986.5 768.5 1961.09 768.5 1940.5 748.129 1940.5 723Z" stroke="#000000" stroke-width="4.58333" stroke-miterlimit="8" fill="#FFFFFF" fill-rule="evenodd"/><text font-family="Times New Roman,Times New Roman_MSFontService,sans-serif" font-weight="400" font-size="73" transform="matrix(1 0 0 1 1967.29 746)">4<tspan font-size="73" x="1.24036" y="197">2</tspan></text><path d="M1937.94 917 1834 917" stroke="#000000" stroke-width="5.72917" stroke-miterlimit="8" fill="none" fill-rule="evenodd"/><path d="M0 0 0.000360892 103.937" stroke="#000000" stroke-width="5.72917" stroke-miterlimit="8" fill="none" fill-rule="evenodd" transform="matrix(-1 0 0 1 1787 768)"/><path d="M0 0 0.000360892 103.937" stroke="#000000" stroke-width="5.72917" stroke-miterlimit="8" fill="none" fill-rule="evenodd" transform="matrix(-1 0 0 1 1987 767)"/><path d="M1737.63 1001.29 1740.28 1001.29 1733.82 1030.13C1733.16 1033.06 1732.83 1035.28 1732.83 1036.77 1732.83 1037.97 1733.02 1038.84 1733.41 1039.38 1733.8 1039.92 1734.41 1040.19 1735.25 1040.19 1736.15 1040.19 1737.11 1039.82 1738.13 1039.09 1739.15 1038.35 1740.58 1036.95 1742.44 1034.89L1745 1037.4C1742.07 1040.49 1739.69 1042.58 1737.86 1043.69 1736.03 1044.8 1733.98 1045.35 1731.7 1045.35 1729.76 1045.35 1728.2 1044.64 1727.03 1043.22 1725.86 1041.8 1725.28 1039.98 1725.28 1037.76 1725.28 1035.49 1725.7 1032.58 1726.54 1029.05L1729.91 1014.36C1730.6 1011.36 1730.94 1009.12 1730.94 1007.62 1730.94 1006.27 1730.62 1005.36 1729.97 1004.88 1729.33 1004.4 1728.07 1004.13 1726.18 1004.07L1726.67 1001.69ZM1736.42 984.081 1744.37 984.081 1742.31 992.796 1734.35 992.796Z" fill-rule="evenodd"/><text fill="#000000" fill-opacity="0" font-family="Arial,Arial_MSFontService,sans-serif" font-size="61.2734" x="1725.28" y="1037.7">𝑖</text><path d="M2055.15 618.976 2057.8 618.976 2051.33 647.816C2050.67 650.751 2050.34 652.967 2050.34 654.464 2050.34 655.662 2050.54 656.531 2050.93 657.07 2051.31 657.609 2051.93 657.878 2052.77 657.878 2053.67 657.878 2054.62 657.512 2055.64 656.778 2056.66 656.044 2058.1 654.644 2059.95 652.578L2062.52 655.093C2059.58 658.178 2057.2 660.274 2055.37 661.382 2053.55 662.49 2051.49 663.044 2049.22 663.044 2047.27 663.044 2045.71 662.333 2044.55 660.911 2043.38 659.488 2042.79 657.669 2042.79 655.453 2042.79 653.177 2043.21 650.272 2044.05 646.738L2047.42 632.048C2048.11 629.054 2048.45 626.807 2048.45 625.31 2048.45 623.962 2048.13 623.049 2047.49 622.57 2046.85 622.091 2045.58 621.821 2043.69 621.761L2044.19 619.38ZM2053.94 601.771 2061.89 601.771 2059.82 610.486 2051.87 610.486ZM2076.6 591.888 2085 591.888 2085 594.449 2074.18 620.503 2070.36 619.38Z" fill-rule="evenodd"/><text fill="#000000" fill-opacity="0" font-family="Arial,Arial_MSFontService,sans-serif" font-size="71.1562" x="2042.79" y="654.15">𝑖′</text><path d="M1707.91 609.119 1710.47 609.119 1701.12 653.233C1700.17 657.785 1698.86 661.446 1697.22 664.216 1695.57 666.986 1693.43 669.068 1690.79 670.46 1688.16 671.853 1685.01 672.549 1681.36 672.549 1679.86 672.549 1678.59 672.399 1677.54 672.1L1678.57 668.147C1679.2 668.386 1680.34 668.506 1681.99 668.506 1683.43 668.506 1684.65 668.289 1685.65 667.855 1686.65 667.421 1687.59 666.702 1688.46 665.699 1689.33 664.695 1690.13 663.295 1690.86 661.498 1691.59 659.701 1692.28 657.38 1692.9 654.535L1700.18 622.192C1700.87 619.137 1701.21 616.891 1701.21 615.453 1701.21 614.106 1700.89 613.192 1700.25 612.713 1699.6 612.234 1698.34 611.964 1696.45 611.905L1696.95 609.524ZM1706.7 591.914 1714.65 591.914 1712.58 600.629 1704.63 600.629Z" fill-rule="evenodd"/><text fill="#000000" fill-opacity="0" font-family="Arial,Arial_MSFontService,sans-serif" font-size="80.6348" x="1677.54" y="662.47">𝑗</text><path d="M1751.67 632.524 1807.01 632.524 1807.01 638.498 1751.67 638.498ZM1751.67 613.881 1807.01 613.881 1807.01 619.856 1751.67 619.856Z" fill-rule="evenodd"/><text fill="#000000" fill-opacity="0" font-family="Arial,Arial_MSFontService,sans-serif" font-size="24.6172" x="1751.67" y="635.421">=</text><path d="M1862.37 609.119 1864.93 609.119 1855.58 653.233C1854.62 657.785 1853.32 661.446 1851.67 664.216 1850.03 666.986 1847.89 669.068 1845.25 670.46 1842.62 671.853 1839.47 672.549 1835.82 672.549 1834.32 672.549 1833.05 672.399 1832 672.1L1833.03 668.147C1833.66 668.386 1834.8 668.506 1836.45 668.506 1837.88 668.506 1839.1 668.289 1840.11 667.855 1841.11 667.421 1842.05 666.702 1842.92 665.699 1843.78 664.695 1844.58 663.295 1845.32 661.498 1846.05 659.701 1846.73 657.38 1847.36 654.535L1854.64 622.192C1855.33 619.137 1855.67 616.891 1855.67 615.453 1855.67 614.106 1855.35 613.192 1854.71 612.713 1854.06 612.234 1852.8 611.964 1850.91 611.905L1851.41 609.524ZM1861.15 591.914 1869.1 591.914 1867.04 600.629 1859.09 600.629ZM1883.28 582.032 1891.68 582.032 1891.68 584.592 1880.86 610.647 1877.04 609.524Z" fill-rule="evenodd"/><text fill="#000000" fill-opacity="0" font-family="Arial,Arial_MSFontService,sans-serif" font-size="90.5176" x="1832" y="661.234">𝑗′</text><path d="M1980.92 973.649 1983.52 973.649 1974.72 1012.87 1976.15 1012.87C1978.4 1012.87 1980.92 1011.89 1983.72 1009.92 1986.52 1007.96 1988.76 1006.14 1990.44 1004.47 1992.12 1002.79 1992.95 1001.17 1992.95 999.614 1992.95 998.146 1991.94 997.323 1989.9 997.143L1990.39 994.942 2004.95 994.942 2005.8 997.143C2003.32 999.389 2000.68 1001.59 1997.9 1003.75L1986.76 1012.37 1991.16 1028.59C1991.52 1029.97 1991.84 1030.96 1992.12 1031.58 1992.41 1032.19 1992.74 1032.65 1993.11 1032.95 1993.49 1033.25 1993.99 1033.4 1994.62 1033.4 1995.4 1033.4 1996.32 1032.98 1997.4 1032.14 1998.48 1031.3 1999.71 1030.09 2001.09 1028.5L2003.65 1031.01C2000.95 1033.86 1998.72 1035.84 1996.95 1036.94 1995.19 1038.05 1993.48 1038.61 1991.83 1038.61 1989.8 1038.61 1988.18 1038.03 1986.98 1036.88 1985.78 1035.72 1984.84 1033.8 1984.15 1031.1L1981.19 1019.42C1980.89 1018.26 1980.59 1017.45 1980.29 1017 1979.99 1016.55 1979.64 1016.25 1979.25 1016.1 1978.86 1015.95 1978.18 1015.88 1977.19 1015.88L1974.09 1015.88 1969.42 1037.89 1961.64 1037.89 1973.19 986.542C1973.58 984.805 1973.86 983.45 1974.02 982.476 1974.18 981.503 1974.27 980.642 1974.27 979.893 1974.27 978.635 1973.89 977.752 1973.12 977.243 1972.36 976.734 1970.99 976.449 1969.01 976.389L1969.55 974.053Z" fill-rule="evenodd"/><text fill="#000000" fill-opacity="0" font-family="Arial,Arial_MSFontService,sans-serif" font-size="64.957" x="1961.64" y="1030.49">𝑘</text><path d="M2042.76 1017.94 2098.11 1017.94 2098.11 1023.92 2042.76 1023.92ZM2042.76 999.299 2098.11 999.299 2098.11 1005.27 2042.76 1005.27Z" fill-rule="evenodd"/><text fill="#000000" fill-opacity="0" font-family="Arial,Arial_MSFontService,sans-serif" font-size="24.6172" x="2042.76" y="1020.84">=</text><path d="M2153.68 973.649 2156.29 973.649 2147.49 1012.87 2148.92 1012.87C2151.17 1012.87 2153.69 1011.89 2156.49 1009.92 2159.29 1007.96 2161.53 1006.14 2163.21 1004.47 2164.89 1002.79 2165.72 1001.17 2165.72 999.614 2165.72 998.146 2164.71 997.323 2162.67 997.143L2163.16 994.942 2177.72 994.942 2178.57 997.143C2176.09 999.389 2173.45 1001.59 2170.67 1003.75L2159.52 1012.37 2163.93 1028.59C2164.29 1029.97 2164.61 1030.96 2164.89 1031.58 2165.18 1032.19 2165.51 1032.65 2165.88 1032.95 2166.26 1033.25 2166.76 1033.4 2167.39 1033.4 2168.16 1033.4 2169.09 1032.98 2170.17 1032.14 2171.25 1031.3 2172.48 1030.09 2173.85 1028.5L2176.42 1031.01C2173.72 1033.86 2171.49 1035.84 2169.72 1036.94 2167.95 1038.05 2166.25 1038.61 2164.6 1038.61 2162.56 1038.61 2160.95 1038.03 2159.75 1036.88 2158.55 1035.72 2157.61 1033.8 2156.92 1031.1L2153.95 1019.42C2153.65 1018.26 2153.36 1017.45 2153.06 1017 2152.76 1016.55 2152.41 1016.25 2152.02 1016.1 2151.63 1015.95 2150.94 1015.88 2149.96 1015.88L2146.86 1015.88 2142.18 1037.89 2134.41 1037.89 2145.96 986.542C2146.35 984.805 2146.62 983.45 2146.79 982.476 2146.95 981.503 2147.04 980.642 2147.04 979.893 2147.04 978.635 2146.65 977.752 2145.89 977.243 2145.13 976.734 2143.76 976.449 2141.78 976.389L2142.32 974.053ZM2191.38 967.45 2199.78 967.45 2199.78 970.01 2188.95 996.065 2185.13 994.942Z" fill-rule="evenodd"/><text fill="#000000" fill-opacity="0" font-family="Arial,Arial_MSFontService,sans-serif" font-size="71.1562" x="2134.41" y="1029.71">𝑘′</text><rect x="908.5" y="405.5" width="1342" height="686" stroke="#000000" stroke-width="4.58333" stroke-miterlimit="8" fill="none"/><text font-family="Times New Roman,Times New Roman_MSFontService,sans-serif" font-weight="700" font-size="101" transform="matrix(1 0 0 1 942.792 521)">4<tspan font-size="101" x="50.4166" y="0">-</tspan><tspan font-size="101" x="84.2188" y="0">cycles</tspan></text><path d="M1033.5 1668C1033.5 1642.87 1054.09 1622.5 1079.5 1622.5 1104.91 1622.5 1125.5 1642.87 1125.5 1668 1125.5 1693.13 1104.91 1713.5 1079.5 1713.5 1054.09 1713.5 1033.5 1693.13 1033.5 1668Z" stroke="#000000" stroke-width="4.58333" stroke-miterlimit="8" fill="none" fill-rule="evenodd"/><path d="M1033.5 1474C1033.5 1448.87 1054.09 1428.5 1079.5 1428.5 1104.91 1428.5 1125.5 1448.87 1125.5 1474 1125.5 1499.13 1104.91 1519.5 1079.5 1519.5 1054.09 1519.5 1033.5 1499.13 1033.5 1474Z" stroke="#000000" stroke-width="4.58333" stroke-miterlimit="8" fill="#FFFFFF" fill-rule="evenodd"/><path d="M0 0 133.963 129.681" stroke="#000000" stroke-width="5.72917" stroke-miterlimit="8" fill="none" fill-rule="evenodd" transform="matrix(-1 0 0 1 1244.96 1506)"/><text font-family="Times New Roman,Times New Roman_MSFontService,sans-serif" font-weight="400" font-size="73" transform="matrix(1 0 0 1 1060.8 1496)">1</text><path d="M1231.5 1668C1231.5 1642.87 1252.32 1622.5 1278 1622.5 1303.68 1622.5 1324.5 1642.87 1324.5 1668 1324.5 1693.13 1303.68 1713.5 1278 1713.5 1252.32 1713.5 1231.5 1693.13 1231.5 1668Z" stroke="#000000" stroke-width="4.58333" stroke-miterlimit="8" fill="none" fill-rule="evenodd"/><text font-family="Times New Roman,Times New Roman_MSFontService,sans-serif" font-weight="400" font-size="73" transform="matrix(1 0 0 1 1260.65 1694)">3</text><path d="M1229.94 1667 1126 1667" stroke="#000000" stroke-width="5.72917" stroke-miterlimit="8" fill="none" fill-rule="evenodd"/><path d="M0 0 0.000360892 103.937" stroke="#000000" stroke-width="5.72917" stroke-miterlimit="8" fill="none" fill-rule="evenodd" transform="matrix(-1 0 0 1 1079 1519)"/><path d="M1011.74 1751.77 1014.39 1751.77 1007.92 1780.61C1007.26 1783.55 1006.94 1785.76 1006.94 1787.26 1006.94 1788.46 1007.13 1789.33 1007.52 1789.86 1007.91 1790.4 1008.52 1790.67 1009.36 1790.67 1010.26 1790.67 1011.22 1790.31 1012.24 1789.57 1013.25 1788.84 1014.69 1787.44 1016.55 1785.37L1019.11 1787.89C1016.17 1790.97 1013.79 1793.07 1011.97 1794.18 1010.14 1795.29 1008.09 1795.84 1005.81 1795.84 1003.87 1795.84 1002.31 1795.13 1001.14 1793.71 999.972 1792.28 999.388 1790.46 999.388 1788.25 999.388 1785.97 999.808 1783.07 1000.65 1779.53L1004.02 1764.84C1004.7 1761.85 1005.05 1759.6 1005.05 1758.11 1005.05 1756.76 1004.73 1755.84 1004.08 1755.36 1003.44 1754.89 1002.17 1754.62 1000.29 1754.56L1000.78 1752.18ZM1010.53 1734.57 1018.48 1734.57 1016.41 1743.28 1008.46 1743.28Z" fill-rule="evenodd"/><text fill="#000000" fill-opacity="0" font-family="Arial,Arial_MSFontService,sans-serif" font-size="61.2734" x="999.388" y="1788.18">𝑖</text><path d="M1057.38 1775.18 1112.73 1775.18 1112.73 1781.15 1057.38 1781.15ZM1057.38 1756.53 1112.73 1756.53 1112.73 1762.51 1057.38 1762.51Z" fill-rule="evenodd"/><text fill="#000000" fill-opacity="0" font-family="Arial,Arial_MSFontService,sans-serif" font-size="24.6172" x="1057.38" y="1778.07">=</text><path d="M1163.54 1751.77 1166.19 1751.77 1159.72 1780.61C1159.06 1783.55 1158.74 1785.76 1158.74 1787.26 1158.74 1788.46 1158.93 1789.33 1159.32 1789.86 1159.71 1790.4 1160.32 1790.67 1161.16 1790.67 1162.06 1790.67 1163.02 1790.31 1164.04 1789.57 1165.05 1788.84 1166.49 1787.44 1168.35 1785.37L1170.91 1787.89C1167.97 1790.97 1165.59 1793.07 1163.77 1794.18 1161.94 1795.29 1159.89 1795.84 1157.61 1795.84 1155.67 1795.84 1154.11 1795.13 1152.94 1793.71 1151.77 1792.28 1151.19 1790.46 1151.19 1788.25 1151.19 1785.97 1151.61 1783.07 1152.45 1779.53L1155.82 1764.84C1156.5 1761.85 1156.85 1759.6 1156.85 1758.11 1156.85 1756.76 1156.53 1755.84 1155.88 1755.36 1155.24 1754.89 1153.97 1754.62 1152.09 1754.56L1152.58 1752.18ZM1162.33 1734.57 1170.28 1734.57 1168.21 1743.28 1160.26 1743.28ZM1184.99 1724.68 1193.4 1724.68 1193.4 1727.24 1182.57 1753.3 1178.75 1752.18Z" fill-rule="evenodd"/><text fill="#000000" fill-opacity="0" font-family="Arial,Arial_MSFontService,sans-serif" font-size="71.1562" x="1151.19" y="1786.94">𝑖′</text><path d="M1342.68 1348.57 1345.29 1348.57 1336.48 1387.79 1337.92 1387.79C1340.17 1387.79 1342.69 1386.81 1345.49 1384.85 1348.29 1382.89 1350.53 1381.07 1352.2 1379.39 1353.88 1377.71 1354.72 1376.09 1354.72 1374.54 1354.72 1373.07 1353.7 1372.25 1351.67 1372.07L1352.16 1369.87 1366.71 1369.87 1367.57 1372.07C1365.08 1374.31 1362.45 1376.51 1359.66 1378.67L1348.52 1387.3 1352.92 1403.51C1353.28 1404.89 1353.6 1405.89 1353.89 1406.5 1354.17 1407.11 1354.5 1407.57 1354.88 1407.87 1355.25 1408.17 1355.75 1408.32 1356.38 1408.32 1357.16 1408.32 1358.09 1407.9 1359.17 1407.06 1360.25 1406.22 1361.47 1405.01 1362.85 1403.42L1365.41 1405.94C1362.72 1408.78 1360.48 1410.76 1358.72 1411.87 1356.95 1412.98 1355.24 1413.53 1353.6 1413.53 1351.56 1413.53 1349.94 1412.95 1348.75 1411.8 1347.55 1410.65 1346.6 1408.72 1345.92 1406.03L1342.95 1394.35C1342.65 1393.18 1342.35 1392.37 1342.05 1391.92 1341.75 1391.47 1341.41 1391.17 1341.02 1391.02 1340.63 1390.87 1339.94 1390.8 1338.95 1390.8L1335.85 1390.8 1331.18 1412.81 1323.41 1412.81 1334.95 1361.47C1335.34 1359.73 1335.62 1358.37 1335.79 1357.4 1335.95 1356.43 1336.03 1355.57 1336.03 1354.82 1336.03 1353.56 1335.65 1352.68 1334.89 1352.17 1334.12 1351.66 1332.75 1351.37 1330.78 1351.31L1331.32 1348.98Z" fill-rule="evenodd"/><text fill="#000000" fill-opacity="0" font-family="Arial,Arial_MSFontService,sans-serif" font-size="64.957" x="1323.41" y="1405.41">𝑘</text><path d="M1000.03 1359.6 1002.59 1359.6 993.245 1403.72C992.287 1408.27 990.984 1411.93 989.337 1414.7 987.69 1417.47 985.549 1419.55 982.913 1420.95 980.278 1422.34 977.133 1423.03 973.48 1423.03 971.982 1423.03 970.71 1422.88 969.661 1422.58L970.695 1418.63C971.324 1418.87 972.462 1418.99 974.109 1418.99 975.546 1418.99 976.767 1418.77 977.77 1418.34 978.773 1417.91 979.709 1417.19 980.578 1416.18 981.446 1415.18 982.247 1413.78 982.981 1411.98 983.715 1410.19 984.396 1407.87 985.025 1405.02L992.302 1372.68C992.991 1369.62 993.335 1367.38 993.335 1365.94 993.335 1364.59 993.013 1363.68 992.37 1363.2 991.726 1362.72 990.46 1362.45 988.574 1362.39L989.068 1360.01ZM998.816 1342.4 1006.77 1342.4 1004.7 1351.11 996.749 1351.11Z" fill-rule="evenodd"/><text fill="#000000" fill-opacity="0" font-family="Arial,Arial_MSFontService,sans-serif" font-size="80.6348" x="969.661" y="1412.95">𝑗</text><path d="M1043.79 1383.01 1099.13 1383.01 1099.13 1388.98 1043.79 1388.98ZM1043.79 1364.37 1099.13 1364.37 1099.13 1370.34 1043.79 1370.34Z" fill-rule="evenodd"/><text fill="#000000" fill-opacity="0" font-family="Arial,Arial_MSFontService,sans-serif" font-size="24.6172" x="1043.79" y="1385.91">=</text><path d="M1154.49 1359.6 1157.05 1359.6 1147.7 1403.72C1146.75 1408.27 1145.44 1411.93 1143.8 1414.7 1142.15 1417.47 1140.01 1419.55 1137.37 1420.95 1134.74 1422.34 1131.59 1423.03 1127.94 1423.03 1126.44 1423.03 1125.17 1422.88 1124.12 1422.58L1125.15 1418.63C1125.78 1418.87 1126.92 1418.99 1128.57 1418.99 1130 1418.99 1131.22 1418.77 1132.23 1418.34 1133.23 1417.91 1134.17 1417.19 1135.04 1416.18 1135.9 1415.18 1136.71 1413.78 1137.44 1411.98 1138.17 1410.19 1138.85 1407.87 1139.48 1405.02L1146.76 1372.68C1147.45 1369.62 1147.79 1367.38 1147.79 1365.94 1147.79 1364.59 1147.47 1363.68 1146.83 1363.2 1146.18 1362.72 1144.92 1362.45 1143.03 1362.39L1143.53 1360.01ZM1153.27 1342.4 1161.23 1342.4 1159.16 1351.11 1151.21 1351.11ZM1175.4 1332.52 1183.8 1332.52 1183.8 1335.08 1172.98 1361.13 1169.16 1360.01Z" fill-rule="evenodd"/><text fill="#000000" fill-opacity="0" font-family="Arial,Arial_MSFontService,sans-serif" font-size="90.5176" x="1124.12" y="1411.72">𝑗′</text><path d="M1340.53 1724.13 1343.13 1724.13 1334.33 1763.35 1335.76 1763.35C1338.01 1763.35 1340.53 1762.37 1343.33 1760.41 1346.13 1758.45 1348.37 1756.63 1350.05 1754.95 1351.73 1753.27 1352.57 1751.66 1352.57 1750.1 1352.57 1748.63 1351.55 1747.81 1349.51 1747.63L1350 1745.43 1364.56 1745.43 1365.41 1747.63C1362.93 1749.87 1360.29 1752.08 1357.51 1754.23L1346.37 1762.86 1350.77 1779.07C1351.13 1780.45 1351.45 1781.45 1351.73 1782.06 1352.02 1782.67 1352.35 1783.13 1352.72 1783.43 1353.1 1783.73 1353.6 1783.88 1354.23 1783.88 1355.01 1783.88 1355.93 1783.46 1357.01 1782.62 1358.09 1781.78 1359.32 1780.57 1360.7 1778.98L1363.26 1781.5C1360.56 1784.34 1358.33 1786.32 1356.56 1787.43 1354.8 1788.54 1353.09 1789.09 1351.44 1789.09 1349.41 1789.09 1347.79 1788.51 1346.59 1787.36 1345.39 1786.21 1344.45 1784.28 1343.76 1781.59L1340.8 1769.91C1340.5 1768.74 1340.2 1767.93 1339.9 1767.48 1339.6 1767.03 1339.25 1766.73 1338.86 1766.59 1338.47 1766.44 1337.79 1766.36 1336.8 1766.36L1333.7 1766.36 1329.03 1788.37 1321.25 1788.37 1332.8 1737.03C1333.19 1735.29 1333.47 1733.93 1333.63 1732.96 1333.8 1731.99 1333.88 1731.13 1333.88 1730.38 1333.88 1729.12 1333.5 1728.24 1332.73 1727.73 1331.97 1727.22 1330.6 1726.93 1328.62 1726.87L1329.16 1724.54ZM1378.22 1717.93 1386.62 1717.93 1386.62 1720.5 1375.79 1746.55 1371.97 1745.43Z" fill-rule="evenodd"/><text fill="#000000" fill-opacity="0" font-family="Arial,Arial_MSFontService,sans-serif" font-size="71.1562" x="1321.25" y="1780.2">𝑘′</text><rect x="909.5" y="1155.5" width="3427" height="687" stroke="#000000" stroke-width="4.58333" stroke-miterlimit="8" fill="none"/><text font-family="Times New Roman,Times New Roman_MSFontService,sans-serif" font-weight="700" font-size="101" transform="matrix(1 0 0 1 944.565 1271)">3<tspan font-size="101" x="50.4166" y="0">-</tspan><tspan font-size="101" x="84.2188" y="0">stars</tspan></text><path d="M1753.5 1473C1753.5 1447.87 1774.09 1427.5 1799.5 1427.5 1824.91 1427.5 1845.5 1447.87 1845.5 1473 1845.5 1498.13 1824.91 1518.5 1799.5 1518.5 1774.09 1518.5 1753.5 1498.13 1753.5 1473Z" stroke="#000000" stroke-width="4.58333" stroke-miterlimit="8" fill="#FFFFFF" fill-rule="evenodd"/><text font-family="Times New Roman,Times New Roman_MSFontService,sans-serif" font-weight="400" font-size="73" transform="matrix(1 0 0 1 1583.46 1693)">4<tspan font-size="73" x="197.369" y="-198">2</tspan></text><path d="M1554.5 1667C1554.5 1641.87 1575.09 1621.5 1600.5 1621.5 1625.91 1621.5 1646.5 1641.87 1646.5 1667 1646.5 1692.13 1625.91 1712.5 1600.5 1712.5 1575.09 1712.5 1554.5 1692.13 1554.5 1667Z" stroke="#000000" stroke-width="4.58333" stroke-miterlimit="8" fill="none" fill-rule="evenodd"/><path d="M1555.5 1473C1555.5 1447.87 1576.09 1427.5 1601.5 1427.5 1626.91 1427.5 1647.5 1447.87 1647.5 1473 1647.5 1498.13 1626.91 1518.5 1601.5 1518.5 1576.09 1518.5 1555.5 1498.13 1555.5 1473Z" stroke="#000000" stroke-width="4.58333" stroke-miterlimit="8" fill="#FFFFFF" fill-rule="evenodd"/><path d="M0 0 133.963 129.681" stroke="#000000" stroke-width="5.72917" stroke-miterlimit="8" fill="none" fill-rule="evenodd" transform="matrix(-1 0 0 1 1766.96 1504)"/><text font-family="Times New Roman,Times New Roman_MSFontService,sans-serif" font-weight="400" font-size="73" transform="matrix(1 0 0 1 1582.22 1495)">1</text><path d="M1753.5 1667C1753.5 1641.87 1774.09 1621.5 1799.5 1621.5 1824.91 1621.5 1845.5 1641.87 1845.5 1667 1845.5 1692.13 1824.91 1712.5 1799.5 1712.5 1774.09 1712.5 1753.5 1692.13 1753.5 1667Z" stroke="#000000" stroke-width="4.58333" stroke-miterlimit="8" fill="none" fill-rule="evenodd"/><text font-family="Times New Roman,Times New Roman_MSFontService,sans-serif" font-weight="400" font-size="73" transform="matrix(1 0 0 1 1782.07 1693)">3</text><path d="M1751.94 1666 1648 1666" stroke="#000000" stroke-width="5.72917" stroke-miterlimit="8" fill="none" fill-rule="evenodd"/><path d="M0 0 0.000360892 103.937" stroke="#000000" stroke-width="5.72917" stroke-miterlimit="8" fill="none" fill-rule="evenodd" transform="matrix(-1 0 0 1 1600 1518)"/><path d="M1533.17 1750.52 1535.82 1750.52 1529.35 1779.36C1528.69 1782.29 1528.36 1784.51 1528.36 1786.01 1528.36 1787.2 1528.56 1788.07 1528.94 1788.61 1529.33 1789.15 1529.95 1789.42 1530.79 1789.42 1531.68 1789.42 1532.64 1789.05 1533.66 1788.32 1534.68 1787.58 1536.12 1786.18 1537.97 1784.12L1540.53 1786.63C1537.6 1789.72 1535.22 1791.82 1533.39 1792.92 1531.56 1794.03 1529.51 1794.59 1527.24 1794.59 1525.29 1794.59 1523.73 1793.87 1522.57 1792.45 1521.4 1791.03 1520.81 1789.21 1520.81 1786.99 1520.81 1784.72 1521.23 1781.81 1522.07 1778.28L1525.44 1763.59C1526.13 1760.59 1526.47 1758.35 1526.47 1756.85 1526.47 1755.5 1526.15 1754.59 1525.51 1754.11 1524.86 1753.63 1523.6 1753.36 1521.71 1753.3L1522.21 1750.92ZM1531.95 1733.31 1539.91 1733.31 1537.84 1742.03 1529.89 1742.03Z" fill-rule="evenodd"/><text fill="#000000" fill-opacity="0" font-family="Arial,Arial_MSFontService,sans-serif" font-size="61.2734" x="1520.81" y="1786.93">𝑖</text><path d="M1578.81 1773.92 1634.15 1773.92 1634.15 1779.9 1578.81 1779.9ZM1578.81 1755.28 1634.15 1755.28 1634.15 1761.25 1578.81 1761.25Z" fill-rule="evenodd"/><text fill="#000000" fill-opacity="0" font-family="Arial,Arial_MSFontService,sans-serif" font-size="24.6172" x="1578.81" y="1776.82">=</text><path d="M1684.97 1750.52 1687.62 1750.52 1681.15 1779.36C1680.49 1782.29 1680.16 1784.51 1680.16 1786.01 1680.16 1787.2 1680.36 1788.07 1680.74 1788.61 1681.13 1789.15 1681.75 1789.42 1682.59 1789.42 1683.48 1789.42 1684.44 1789.05 1685.46 1788.32 1686.48 1787.58 1687.92 1786.18 1689.77 1784.12L1692.33 1786.63C1689.4 1789.72 1687.02 1791.82 1685.19 1792.92 1683.36 1794.03 1681.31 1794.59 1679.04 1794.59 1677.09 1794.59 1675.53 1793.87 1674.37 1792.45 1673.2 1791.03 1672.61 1789.21 1672.61 1786.99 1672.61 1784.72 1673.03 1781.81 1673.87 1778.28L1677.24 1763.59C1677.93 1760.59 1678.27 1758.35 1678.27 1756.85 1678.27 1755.5 1677.95 1754.59 1677.31 1754.11 1676.66 1753.63 1675.4 1753.36 1673.51 1753.3L1674.01 1750.92ZM1683.75 1733.31 1691.71 1733.31 1689.64 1742.03 1681.69 1742.03ZM1706.42 1723.43 1714.82 1723.43 1714.82 1725.99 1703.99 1752.04 1700.18 1750.92Z" fill-rule="evenodd"/><text fill="#000000" fill-opacity="0" font-family="Arial,Arial_MSFontService,sans-serif" font-size="71.1562" x="1672.61" y="1785.69">𝑖′</text><path d="M1853.7 1347.32 1856.31 1347.32 1847.5 1386.54 1848.94 1386.54C1851.19 1386.54 1853.71 1385.55 1856.51 1383.59 1859.31 1381.63 1861.55 1379.81 1863.23 1378.13 1864.9 1376.46 1865.74 1374.84 1865.74 1373.28 1865.74 1371.82 1864.72 1370.99 1862.69 1370.81L1863.18 1368.61 1877.74 1368.61 1878.59 1370.81C1876.1 1373.06 1873.47 1375.26 1870.68 1377.42L1859.54 1386.04 1863.94 1402.26C1864.3 1403.64 1864.63 1404.63 1864.91 1405.25 1865.19 1405.86 1865.52 1406.32 1865.9 1406.62 1866.27 1406.91 1866.77 1407.06 1867.4 1407.06 1868.18 1407.06 1869.11 1406.65 1870.19 1405.81 1871.27 1404.97 1872.49 1403.76 1873.87 1402.17L1876.43 1404.68C1873.74 1407.53 1871.51 1409.51 1869.74 1410.61 1867.97 1411.72 1866.27 1412.28 1864.62 1412.28 1862.58 1412.28 1860.96 1411.7 1859.77 1410.55 1858.57 1409.39 1857.63 1407.47 1856.94 1404.77L1853.97 1393.09C1853.67 1391.93 1853.37 1391.12 1853.07 1390.67 1852.77 1390.22 1852.43 1389.92 1852.04 1389.77 1851.65 1389.62 1850.96 1389.54 1849.97 1389.54L1846.87 1389.54 1842.2 1411.56 1834.43 1411.56 1845.98 1360.21C1846.36 1358.47 1846.64 1357.12 1846.81 1356.15 1846.97 1355.17 1847.05 1354.31 1847.05 1353.56 1847.05 1352.3 1846.67 1351.42 1845.91 1350.91 1845.14 1350.4 1843.77 1350.12 1841.8 1350.06L1842.34 1347.72ZM1891.39 1341.12 1899.79 1341.12 1899.79 1343.68 1888.97 1369.73 1885.15 1368.61Z" fill-rule="evenodd"/><text fill="#000000" fill-opacity="0" font-family="Arial,Arial_MSFontService,sans-serif" font-size="71.1562" x="1834.43" y="1403.38">𝑘′</text><path d="M1521.45 1358.35 1524.01 1358.35 1514.67 1402.46C1513.71 1407.02 1512.41 1410.68 1510.76 1413.45 1509.12 1416.22 1506.97 1418.3 1504.34 1419.69 1501.7 1421.08 1498.56 1421.78 1494.91 1421.78 1493.41 1421.78 1492.14 1421.63 1491.09 1421.33L1492.12 1417.38C1492.75 1417.62 1493.89 1417.74 1495.53 1417.74 1496.97 1417.74 1498.19 1417.52 1499.2 1417.09 1500.2 1416.65 1501.13 1415.93 1502 1414.93 1502.87 1413.93 1503.67 1412.53 1504.41 1410.73 1505.14 1408.93 1505.82 1406.61 1506.45 1403.77L1513.73 1371.42C1514.42 1368.37 1514.76 1366.12 1514.76 1364.68 1514.76 1363.34 1514.44 1362.42 1513.79 1361.94 1513.15 1361.46 1511.89 1361.2 1510 1361.14L1510.49 1358.75ZM1520.24 1341.15 1528.19 1341.15 1526.13 1349.86 1518.17 1349.86Z" fill-rule="evenodd"/><text fill="#000000" fill-opacity="0" font-family="Arial,Arial_MSFontService,sans-serif" font-size="80.6348" x="1491.09" y="1411.7">𝑗</text><path d="M1565.22 1381.75 1620.56 1381.75 1620.56 1387.73 1565.22 1387.73ZM1565.22 1363.11 1620.56 1363.11 1620.56 1369.09 1565.22 1369.09Z" fill-rule="evenodd"/><text fill="#000000" fill-opacity="0" font-family="Arial,Arial_MSFontService,sans-serif" font-size="24.6172" x="1565.22" y="1384.65">=</text><path d="M1675.91 1358.35 1678.47 1358.35 1669.13 1402.46C1668.17 1407.02 1666.87 1410.68 1665.22 1413.45 1663.57 1416.22 1661.43 1418.3 1658.8 1419.69 1656.16 1421.08 1653.02 1421.78 1649.36 1421.78 1647.87 1421.78 1646.59 1421.63 1645.55 1421.33L1646.58 1417.38C1647.21 1417.62 1648.35 1417.74 1649.99 1417.74 1651.43 1417.74 1652.65 1417.52 1653.65 1417.09 1654.66 1416.65 1655.59 1415.93 1656.46 1414.93 1657.33 1413.93 1658.13 1412.53 1658.86 1410.73 1659.6 1408.93 1660.28 1406.61 1660.91 1403.77L1668.19 1371.42C1668.87 1368.37 1669.22 1366.12 1669.22 1364.68 1669.22 1363.34 1668.9 1362.42 1668.25 1361.94 1667.61 1361.46 1666.34 1361.2 1664.46 1361.14L1664.95 1358.75ZM1674.7 1341.15 1682.65 1341.15 1680.58 1349.86 1672.63 1349.86ZM1696.83 1331.26 1705.23 1331.26 1705.23 1333.82 1694.4 1359.88 1690.58 1358.75Z" fill-rule="evenodd"/><text fill="#000000" fill-opacity="0" font-family="Arial,Arial_MSFontService,sans-serif" font-size="90.5176" x="1645.55" y="1410.47">𝑗′</text><path d="M1861.95 1722.88 1864.56 1722.88 1855.75 1762.1 1857.19 1762.1C1859.44 1762.1 1861.96 1761.12 1864.76 1759.15 1867.56 1757.19 1869.8 1755.37 1871.47 1753.7 1873.15 1752.02 1873.99 1750.4 1873.99 1748.84 1873.99 1747.38 1872.97 1746.55 1870.94 1746.37L1871.43 1744.17 1885.98 1744.17 1886.84 1746.37C1884.35 1748.62 1881.72 1750.82 1878.93 1752.98L1867.79 1761.6 1872.19 1777.82C1872.55 1779.2 1872.87 1780.19 1873.16 1780.81 1873.44 1781.42 1873.77 1781.88 1874.15 1782.18 1874.52 1782.48 1875.02 1782.63 1875.65 1782.63 1876.43 1782.63 1877.36 1782.21 1878.44 1781.37 1879.52 1780.53 1880.74 1779.32 1882.12 1777.73L1884.68 1780.25C1881.99 1783.09 1879.76 1785.07 1877.99 1786.17 1876.22 1787.28 1874.51 1787.84 1872.87 1787.84 1870.83 1787.84 1869.21 1787.26 1868.02 1786.11 1866.82 1784.95 1865.87 1783.03 1865.19 1780.34L1862.22 1768.66C1861.92 1767.49 1861.62 1766.68 1861.32 1766.23 1861.02 1765.78 1860.68 1765.48 1860.29 1765.33 1859.9 1765.18 1859.21 1765.11 1858.22 1765.11L1855.12 1765.11 1850.45 1787.12 1842.68 1787.12 1854.22 1735.77C1854.61 1734.04 1854.89 1732.68 1855.06 1731.71 1855.22 1730.73 1855.3 1729.87 1855.3 1729.12 1855.3 1727.87 1854.92 1726.98 1854.16 1726.47 1853.39 1725.96 1852.02 1725.68 1850.05 1725.62L1850.59 1723.28Z" fill-rule="evenodd"/><text fill="#000000" fill-opacity="0" font-family="Arial,Arial_MSFontService,sans-serif" font-size="64.957" x="1842.68" y="1779.72">𝑘</text><path d="M2270.5 1477C2270.5 1451.87 2291.09 1431.5 2316.5 1431.5 2341.91 1431.5 2362.5 1451.87 2362.5 1477 2362.5 1502.13 2341.91 1522.5 2316.5 1522.5 2291.09 1522.5 2270.5 1502.13 2270.5 1477Z" stroke="#000000" stroke-width="4.58333" stroke-miterlimit="8" fill="#FFFFFF" fill-rule="evenodd"/><text font-family="Times New Roman,Times New Roman_MSFontService,sans-serif" font-weight="400" font-size="73" transform="matrix(1 0 0 1 2100.1 1697)">4<tspan font-size="73" x="197.369" y="-198">2</tspan></text><path d="M2071.5 1671C2071.5 1645.87 2092.09 1625.5 2117.5 1625.5 2142.91 1625.5 2163.5 1645.87 2163.5 1671 2163.5 1696.13 2142.91 1716.5 2117.5 1716.5 2092.09 1716.5 2071.5 1696.13 2071.5 1671Z" stroke="#000000" stroke-width="4.58333" stroke-miterlimit="8" fill="none" fill-rule="evenodd"/><path d="M2071.5 1477C2071.5 1451.87 2092.09 1431.5 2117.5 1431.5 2142.91 1431.5 2163.5 1451.87 2163.5 1477 2163.5 1502.13 2142.91 1522.5 2117.5 1522.5 2092.09 1522.5 2071.5 1502.13 2071.5 1477Z" stroke="#000000" stroke-width="4.58333" stroke-miterlimit="8" fill="#FFFFFF" fill-rule="evenodd"/><path d="M0 0 133.963 129.681" stroke="#000000" stroke-width="5.72917" stroke-miterlimit="8" fill="none" fill-rule="evenodd" transform="matrix(-1 0 0 1 2282.96 1508)"/><text font-family="Times New Roman,Times New Roman_MSFontService,sans-serif" font-weight="400" font-size="73" transform="matrix(1 0 0 1 2098.85 1499)">1</text><path d="M2270.5 1671C2270.5 1645.87 2291.09 1625.5 2316.5 1625.5 2341.91 1625.5 2362.5 1645.87 2362.5 1671 2362.5 1696.13 2341.91 1716.5 2316.5 1716.5 2291.09 1716.5 2270.5 1696.13 2270.5 1671Z" stroke="#000000" stroke-width="4.58333" stroke-miterlimit="8" fill="none" fill-rule="evenodd"/><text font-family="Times New Roman,Times New Roman_MSFontService,sans-serif" font-weight="400" font-size="73" transform="matrix(1 0 0 1 2298.7 1697)">3</text><path d="M2267.94 1670 2164 1670" stroke="#000000" stroke-width="5.72917" stroke-miterlimit="8" fill="none" fill-rule="evenodd"/><path d="M0 0 0.000360892 103.937" stroke="#000000" stroke-width="5.72917" stroke-miterlimit="8" fill="none" fill-rule="evenodd" transform="matrix(-1 0 0 1 2117 1522)"/><path d="M2049.8 1754.67 2052.45 1754.67 2045.98 1783.51C2045.32 1786.44 2044.99 1788.66 2044.99 1790.15 2044.99 1791.35 2045.19 1792.22 2045.57 1792.76 2045.96 1793.3 2046.58 1793.57 2047.42 1793.57 2048.31 1793.57 2049.27 1793.2 2050.29 1792.47 2051.31 1791.73 2052.75 1790.33 2054.6 1788.27L2057.16 1790.78C2054.23 1793.87 2051.85 1795.96 2050.02 1797.07 2048.2 1798.18 2046.14 1798.73 2043.87 1798.73 2041.92 1798.73 2040.36 1798.02 2039.2 1796.6 2038.03 1795.18 2037.44 1793.36 2037.44 1791.14 2037.44 1788.87 2037.86 1785.96 2038.7 1782.43L2042.07 1767.74C2042.76 1764.74 2043.1 1762.5 2043.1 1761 2043.1 1759.65 2042.78 1758.74 2042.14 1758.26 2041.49 1757.78 2040.23 1757.51 2038.34 1757.45L2038.84 1755.07ZM2048.58 1737.46 2056.54 1737.46 2054.47 1746.18 2046.52 1746.18Z" fill-rule="evenodd"/><text fill="#000000" fill-opacity="0" font-family="Arial,Arial_MSFontService,sans-serif" font-size="61.2734" x="2037.44" y="1791.07">𝑖</text><path d="M2095.44 1778.07 2150.78 1778.07 2150.78 1784.04 2095.44 1784.04ZM2095.44 1759.43 2150.78 1759.43 2150.78 1765.4 2095.44 1765.4Z" fill-rule="evenodd"/><text fill="#000000" fill-opacity="0" font-family="Arial,Arial_MSFontService,sans-serif" font-size="24.6172" x="2095.44" y="1780.97">=</text><path d="M2201.6 1754.67 2204.25 1754.67 2197.78 1783.51C2197.12 1786.44 2196.79 1788.66 2196.79 1790.15 2196.79 1791.35 2196.99 1792.22 2197.37 1792.76 2197.76 1793.3 2198.38 1793.57 2199.22 1793.57 2200.11 1793.57 2201.07 1793.2 2202.09 1792.47 2203.11 1791.73 2204.55 1790.33 2206.4 1788.27L2208.96 1790.78C2206.03 1793.87 2203.65 1795.96 2201.82 1797.07 2200 1798.18 2197.94 1798.73 2195.67 1798.73 2193.72 1798.73 2192.16 1798.02 2191 1796.6 2189.83 1795.18 2189.24 1793.36 2189.24 1791.14 2189.24 1788.87 2189.66 1785.96 2190.5 1782.43L2193.87 1767.74C2194.56 1764.74 2194.9 1762.5 2194.9 1761 2194.9 1759.65 2194.58 1758.74 2193.94 1758.26 2193.29 1757.78 2192.03 1757.51 2190.14 1757.45L2190.64 1755.07ZM2200.38 1737.46 2208.34 1737.46 2206.27 1746.18 2198.32 1746.18ZM2223.05 1727.58 2231.45 1727.58 2231.45 1730.14 2220.62 1756.19 2216.81 1755.07Z" fill-rule="evenodd"/><text fill="#000000" fill-opacity="0" font-family="Arial,Arial_MSFontService,sans-serif" font-size="71.1562" x="2189.24" y="1789.84">𝑖′</text><path d="M2343.77 1351.47 2346.37 1351.47 2337.57 1390.68 2339.01 1390.68C2341.25 1390.68 2343.78 1389.7 2346.58 1387.74 2349.38 1385.78 2351.61 1383.96 2353.29 1382.28 2354.97 1380.61 2355.81 1378.99 2355.81 1377.43 2355.81 1375.96 2354.79 1375.14 2352.75 1374.96L2353.25 1372.76 2367.8 1372.76 2368.65 1374.96C2366.17 1377.21 2363.53 1379.41 2360.75 1381.56L2349.61 1390.19 2354.01 1406.41C2354.37 1407.78 2354.69 1408.78 2354.98 1409.39 2355.26 1410.01 2355.59 1410.46 2355.96 1410.76 2356.34 1411.06 2356.84 1411.21 2357.47 1411.21 2358.25 1411.21 2359.18 1410.79 2360.25 1409.96 2361.33 1409.12 2362.56 1407.9 2363.94 1406.32L2366.5 1408.83C2363.8 1411.68 2361.57 1413.65 2359.8 1414.76 2358.04 1415.87 2356.33 1416.42 2354.68 1416.42 2352.65 1416.42 2351.03 1415.85 2349.83 1414.69 2348.63 1413.54 2347.69 1411.62 2347 1408.92L2344.04 1397.24C2343.74 1396.07 2343.44 1395.27 2343.14 1394.82 2342.84 1394.37 2342.49 1394.07 2342.11 1393.92 2341.72 1393.77 2341.03 1393.69 2340.04 1393.69L2336.94 1393.69 2332.27 1415.71 2324.5 1415.71 2336.04 1364.36C2336.43 1362.62 2336.71 1361.27 2336.87 1360.29 2337.04 1359.32 2337.12 1358.46 2337.12 1357.71 2337.12 1356.45 2336.74 1355.57 2335.97 1355.06 2335.21 1354.55 2333.84 1354.27 2331.86 1354.21L2332.4 1351.87Z" fill-rule="evenodd"/><text fill="#000000" fill-opacity="0" font-family="Arial,Arial_MSFontService,sans-serif" font-size="64.957" x="2324.5" y="1408.3">𝑘</text><path d="M2405.61 1395.76 2460.96 1395.76 2460.96 1401.73 2405.61 1401.73ZM2405.61 1377.12 2460.96 1377.12 2460.96 1383.09 2405.61 1383.09Z" fill-rule="evenodd"/><text fill="#000000" fill-opacity="0" font-family="Arial,Arial_MSFontService,sans-serif" font-size="24.6172" x="2405.61" y="1398.66">=</text><path d="M2516.31 1372.36 2518.87 1372.36 2509.53 1416.47C2508.57 1421.02 2507.27 1424.68 2505.62 1427.45 2503.97 1430.22 2501.83 1432.3 2499.2 1433.7 2496.56 1435.09 2493.42 1435.79 2489.76 1435.79 2488.27 1435.79 2486.99 1435.64 2485.94 1435.34L2486.98 1431.38C2487.61 1431.62 2488.74 1431.74 2490.39 1431.74 2491.83 1431.74 2493.05 1431.53 2494.05 1431.09 2495.06 1430.66 2495.99 1429.94 2496.86 1428.94 2497.73 1427.93 2498.53 1426.53 2499.26 1424.73 2500 1422.94 2500.68 1420.62 2501.31 1417.77L2508.59 1385.43C2509.27 1382.37 2509.62 1380.13 2509.62 1378.69 2509.62 1377.34 2509.3 1376.43 2508.65 1375.95 2508.01 1375.47 2506.74 1375.2 2504.86 1375.14L2505.35 1372.76ZM2515.1 1355.15 2523.05 1355.15 2520.98 1363.87 2513.03 1363.87ZM2537.23 1345.27 2545.63 1345.27 2545.63 1347.83 2534.8 1373.88 2530.98 1372.76Z" fill-rule="evenodd"/><text fill="#000000" fill-opacity="0" font-family="Arial,Arial_MSFontService,sans-serif" font-size="90.5176" x="2485.94" y="1424.47">𝑗′</text><path d="M2126.27 1362.5 2128.83 1362.5 2119.48 1406.61C2118.53 1411.16 2117.22 1414.83 2115.58 1417.6 2113.93 1420.37 2111.79 1422.45 2109.15 1423.84 2106.52 1425.23 2103.37 1425.93 2099.72 1425.93 2098.22 1425.93 2096.95 1425.78 2095.9 1425.48L2096.93 1421.53C2097.56 1421.77 2098.7 1421.89 2100.35 1421.89 2101.79 1421.89 2103.01 1421.67 2104.01 1421.23 2105.01 1420.8 2105.95 1420.08 2106.82 1419.08 2107.68 1418.08 2108.49 1416.68 2109.22 1414.88 2109.95 1413.08 2110.63 1410.76 2111.26 1407.92L2118.54 1375.57C2119.23 1372.52 2119.57 1370.27 2119.57 1368.83 2119.57 1367.49 2119.25 1366.57 2118.61 1366.09 2117.96 1365.61 2116.7 1365.34 2114.81 1365.28L2115.31 1362.9ZM2125.05 1345.29 2133.01 1345.29 2130.94 1354.01 2122.99 1354.01Z" fill-rule="evenodd"/><text fill="#000000" fill-opacity="0" font-family="Arial,Arial_MSFontService,sans-serif" font-size="80.6348" x="2095.9" y="1415.85">𝑗</text><path d="M2378.58 1727.03 2381.19 1727.03 2372.38 1766.25 2373.82 1766.25C2376.07 1766.25 2378.59 1765.26 2381.39 1763.3 2384.19 1761.34 2386.43 1759.52 2388.11 1757.85 2389.78 1756.17 2390.62 1754.55 2390.62 1752.99 2390.62 1751.53 2389.6 1750.7 2387.57 1750.52L2388.06 1748.32 2402.61 1748.32 2403.47 1750.52C2400.98 1752.77 2398.35 1754.97 2395.56 1757.13L2384.42 1765.75 2388.82 1781.97C2389.18 1783.35 2389.51 1784.34 2389.79 1784.96 2390.07 1785.57 2390.4 1786.03 2390.78 1786.33 2391.15 1786.63 2391.65 1786.77 2392.28 1786.77 2393.06 1786.77 2393.99 1786.36 2395.07 1785.52 2396.15 1784.68 2397.37 1783.47 2398.75 1781.88L2401.31 1784.39C2398.62 1787.24 2396.39 1789.22 2394.62 1790.32 2392.85 1791.43 2391.15 1791.99 2389.5 1791.99 2387.46 1791.99 2385.84 1791.41 2384.65 1790.26 2383.45 1789.1 2382.5 1787.18 2381.82 1784.48L2378.85 1772.8C2378.55 1771.64 2378.25 1770.83 2377.95 1770.38 2377.65 1769.93 2377.31 1769.63 2376.92 1769.48 2376.53 1769.33 2375.84 1769.26 2374.85 1769.26L2371.75 1769.26 2367.08 1791.27 2359.31 1791.27 2370.86 1739.92C2371.24 1738.18 2371.52 1736.83 2371.69 1735.86 2371.85 1734.88 2371.93 1734.02 2371.93 1733.27 2371.93 1732.02 2371.55 1731.13 2370.79 1730.62 2370.02 1730.11 2368.65 1729.83 2366.68 1729.77L2367.22 1727.43ZM2416.27 1720.83 2424.67 1720.83 2424.67 1723.39 2413.85 1749.44 2410.03 1748.32Z" fill-rule="evenodd"/><text fill="#000000" fill-opacity="0" font-family="Arial,Arial_MSFontService,sans-serif" font-size="71.1562" x="2359.31" y="1783.09">𝑘′</text><path d="M2829.5 1480C2829.5 1454.87 2850.09 1434.5 2875.5 1434.5 2900.91 1434.5 2921.5 1454.87 2921.5 1480 2921.5 1505.13 2900.91 1525.5 2875.5 1525.5 2850.09 1525.5 2829.5 1505.13 2829.5 1480Z" stroke="#000000" stroke-width="4.58333" stroke-miterlimit="8" fill="#FFFFFF" fill-rule="evenodd"/><text font-family="Times New Roman,Times New Roman_MSFontService,sans-serif" font-weight="400" font-size="73" transform="matrix(1 0 0 1 2658.78 1700)">4<tspan font-size="73" x="197.369" y="-198">2</tspan></text><path d="M2630.5 1674C2630.5 1648.87 2651.09 1628.5 2676.5 1628.5 2701.91 1628.5 2722.5 1648.87 2722.5 1674 2722.5 1699.13 2701.91 1719.5 2676.5 1719.5 2651.09 1719.5 2630.5 1699.13 2630.5 1674Z" stroke="#000000" stroke-width="4.58333" stroke-miterlimit="8" fill="none" fill-rule="evenodd"/><path d="M2630.5 1480C2630.5 1454.87 2651.09 1434.5 2676.5 1434.5 2701.91 1434.5 2722.5 1454.87 2722.5 1480 2722.5 1505.13 2701.91 1525.5 2676.5 1525.5 2651.09 1525.5 2630.5 1505.13 2630.5 1480Z" stroke="#000000" stroke-width="4.58333" stroke-miterlimit="8" fill="#FFFFFF" fill-rule="evenodd"/><path d="M0 0 133.963 129.681" stroke="#000000" stroke-width="5.72917" stroke-miterlimit="8" fill="none" fill-rule="evenodd" transform="matrix(-1 0 0 1 2841.96 1511)"/><text font-family="Times New Roman,Times New Roman_MSFontService,sans-serif" font-weight="400" font-size="73" transform="matrix(1 0 0 1 2657.54 1502)">1</text><path d="M2828.5 1674C2828.5 1648.87 2849.09 1628.5 2874.5 1628.5 2899.91 1628.5 2920.5 1648.87 2920.5 1674 2920.5 1699.13 2899.91 1719.5 2874.5 1719.5 2849.09 1719.5 2828.5 1699.13 2828.5 1674Z" stroke="#000000" stroke-width="4.58333" stroke-miterlimit="8" fill="none" fill-rule="evenodd"/><text font-family="Times New Roman,Times New Roman_MSFontService,sans-serif" font-weight="400" font-size="73" transform="matrix(1 0 0 1 2857.39 1700)">3</text><path d="M2826.94 1673 2723 1673" stroke="#000000" stroke-width="5.72917" stroke-miterlimit="8" fill="none" fill-rule="evenodd"/><path d="M0 0 0.000360892 103.937" stroke="#000000" stroke-width="5.72917" stroke-miterlimit="8" fill="none" fill-rule="evenodd" transform="matrix(-1 0 0 1 2676 1525)"/><path d="M2608.48 1757.56 2611.13 1757.56 2604.66 1786.4C2604 1789.34 2603.67 1791.55 2603.67 1793.05 2603.67 1794.25 2603.87 1795.12 2604.26 1795.65 2604.65 1796.19 2605.26 1796.46 2606.1 1796.46 2607 1796.46 2607.96 1796.1 2608.98 1795.36 2609.99 1794.63 2611.43 1793.23 2613.29 1791.16L2615.85 1793.68C2612.91 1796.76 2610.53 1798.86 2608.71 1799.97 2606.88 1801.07 2604.83 1801.63 2602.55 1801.63 2600.6 1801.63 2599.05 1800.92 2597.88 1799.5 2596.71 1798.07 2596.13 1796.25 2596.13 1794.04 2596.13 1791.76 2596.55 1788.86 2597.39 1785.32L2600.75 1770.63C2601.44 1767.64 2601.79 1765.39 2601.79 1763.89 2601.79 1762.55 2601.47 1761.63 2600.82 1761.15 2600.18 1760.68 2598.91 1760.41 2597.03 1760.35L2597.52 1757.96ZM2607.27 1740.36 2615.22 1740.36 2613.15 1749.07 2605.2 1749.07Z" fill-rule="evenodd"/><text fill="#000000" fill-opacity="0" font-family="Arial,Arial_MSFontService,sans-serif" font-size="61.2734" x="2596.13" y="1793.97">𝑖</text><path d="M2654.12 1780.96 2709.47 1780.96 2709.47 1786.94 2654.12 1786.94ZM2654.12 1762.32 2709.47 1762.32 2709.47 1768.3 2654.12 1768.3Z" fill-rule="evenodd"/><text fill="#000000" fill-opacity="0" font-family="Arial,Arial_MSFontService,sans-serif" font-size="24.6172" x="2654.12" y="1783.86">=</text><path d="M2760.28 1757.56 2762.93 1757.56 2756.46 1786.4C2755.8 1789.34 2755.47 1791.55 2755.47 1793.05 2755.47 1794.25 2755.67 1795.12 2756.06 1795.65 2756.45 1796.19 2757.06 1796.46 2757.9 1796.46 2758.8 1796.46 2759.76 1796.1 2760.78 1795.36 2761.79 1794.63 2763.23 1793.23 2765.09 1791.16L2767.65 1793.68C2764.71 1796.76 2762.33 1798.86 2760.51 1799.97 2758.68 1801.07 2756.63 1801.63 2754.35 1801.63 2752.41 1801.63 2750.85 1800.92 2749.68 1799.5 2748.51 1798.07 2747.93 1796.25 2747.93 1794.04 2747.93 1791.76 2748.35 1788.86 2749.19 1785.32L2752.55 1770.63C2753.24 1767.64 2753.59 1765.39 2753.59 1763.89 2753.59 1762.55 2753.27 1761.63 2752.62 1761.15 2751.98 1760.68 2750.71 1760.41 2748.83 1760.35L2749.32 1757.96ZM2759.07 1740.36 2767.02 1740.36 2764.95 1749.07 2757 1749.07ZM2781.73 1730.47 2790.13 1730.47 2790.13 1733.03 2779.31 1759.09 2775.49 1757.96Z" fill-rule="evenodd"/><text fill="#000000" fill-opacity="0" font-family="Arial,Arial_MSFontService,sans-serif" font-size="71.1562" x="2747.93" y="1792.73">𝑖′</text><path d="M2903.02 1354.36 2905.63 1354.36 2896.82 1393.58 2898.26 1393.58C2900.51 1393.58 2903.03 1392.6 2905.83 1390.64 2908.63 1388.67 2910.87 1386.86 2912.55 1385.18 2914.22 1383.5 2915.06 1381.88 2915.06 1380.33 2915.06 1378.86 2914.04 1378.04 2912.01 1377.86L2912.5 1375.65 2927.06 1375.65 2927.91 1377.86C2925.43 1380.1 2922.79 1382.3 2920 1384.46L2908.86 1393.08 2913.27 1409.3C2913.63 1410.68 2913.95 1411.67 2914.23 1412.29 2914.52 1412.9 2914.85 1413.36 2915.22 1413.66 2915.59 1413.96 2916.1 1414.11 2916.73 1414.11 2917.5 1414.11 2918.43 1413.69 2919.51 1412.85 2920.59 1412.01 2921.82 1410.8 2923.19 1409.21L2925.75 1411.73C2923.06 1414.57 2920.83 1416.55 2919.06 1417.66 2917.29 1418.76 2915.59 1419.32 2913.94 1419.32 2911.9 1419.32 2910.29 1418.74 2909.09 1417.59 2907.89 1416.44 2906.95 1414.51 2906.26 1411.82L2903.29 1400.14C2902.99 1398.97 2902.69 1398.16 2902.4 1397.71 2902.1 1397.26 2901.75 1396.96 2901.36 1396.81 2900.97 1396.66 2900.28 1396.59 2899.3 1396.59L2896.2 1396.59 2891.52 1418.6 2883.75 1418.6 2895.3 1367.25C2895.69 1365.52 2895.96 1364.16 2896.13 1363.19 2896.29 1362.22 2896.38 1361.35 2896.38 1360.61 2896.38 1359.35 2895.99 1358.46 2895.23 1357.96 2894.47 1357.45 2893.1 1357.16 2891.12 1357.1L2891.66 1354.77ZM2940.72 1348.16 2949.12 1348.16 2949.12 1350.72 2938.29 1376.78 2934.47 1375.65Z" fill-rule="evenodd"/><text fill="#000000" fill-opacity="0" font-family="Arial,Arial_MSFontService,sans-serif" font-size="71.1562" x="2883.75" y="1410.42">𝑘′</text><path d="M2985.68 1398.65 3041.02 1398.65 3041.02 1404.63 2985.68 1404.63ZM2985.68 1380.01 3041.02 1380.01 3041.02 1385.99 2985.68 1385.99Z" fill-rule="evenodd"/><text fill="#000000" fill-opacity="0" font-family="Arial,Arial_MSFontService,sans-serif" font-size="24.6172" x="2985.68" y="1401.55">=</text><path d="M3096.38 1375.25 3098.94 1375.25 3089.59 1419.36C3088.64 1423.92 3087.33 1427.58 3085.69 1430.35 3084.04 1433.12 3081.9 1435.2 3079.26 1436.59 3076.63 1437.98 3073.48 1438.68 3069.83 1438.68 3068.33 1438.68 3067.06 1438.53 3066.01 1438.23L3067.04 1434.28C3067.67 1434.52 3068.81 1434.64 3070.46 1434.64 3071.89 1434.64 3073.11 1434.42 3074.12 1433.99 3075.12 1433.55 3076.06 1432.83 3076.93 1431.83 3077.79 1430.83 3078.6 1429.43 3079.33 1427.63 3080.06 1425.83 3080.74 1423.51 3081.37 1420.67L3088.65 1388.32C3089.34 1385.27 3089.68 1383.02 3089.68 1381.58 3089.68 1380.24 3089.36 1379.32 3088.72 1378.84 3088.07 1378.37 3086.81 1378.1 3084.92 1378.04L3085.42 1375.65ZM3095.16 1358.05 3103.11 1358.05 3101.05 1366.76 3093.1 1366.76Z" fill-rule="evenodd"/><text fill="#000000" fill-opacity="0" font-family="Arial,Arial_MSFontService,sans-serif" font-size="80.6348" x="3066.01" y="1428.6">𝑗</text><path d="M2674 1365.39 2676.56 1365.39 2667.21 1409.51C2666.26 1414.06 2664.95 1417.72 2663.31 1420.49 2661.66 1423.26 2659.52 1425.34 2656.88 1426.73 2654.25 1428.13 2651.1 1428.82 2647.45 1428.82 2645.95 1428.82 2644.68 1428.67 2643.63 1428.37L2644.66 1424.42C2645.29 1424.66 2646.43 1424.78 2648.08 1424.78 2649.51 1424.78 2650.74 1424.56 2651.74 1424.13 2652.74 1423.7 2653.68 1422.98 2654.55 1421.97 2655.41 1420.97 2656.22 1419.57 2656.95 1417.77 2657.68 1415.98 2658.36 1413.66 2658.99 1410.81L2666.27 1378.47C2666.96 1375.41 2667.3 1373.17 2667.3 1371.73 2667.3 1370.38 2666.98 1369.47 2666.34 1368.99 2665.69 1368.51 2664.43 1368.24 2662.54 1368.18L2663.04 1365.8ZM2672.78 1348.19 2680.74 1348.19 2678.67 1356.9 2670.72 1356.9ZM2694.91 1338.31 2703.31 1338.31 2703.31 1340.87 2692.49 1366.92 2688.67 1365.8Z" fill-rule="evenodd"/><text fill="#000000" fill-opacity="0" font-family="Arial,Arial_MSFontService,sans-serif" font-size="90.5176" x="2643.63" y="1417.51">𝑗′</text><path d="M2937.27 1729.92 2939.87 1729.92 2931.07 1769.14 2932.5 1769.14C2934.75 1769.14 2937.27 1768.16 2940.07 1766.2 2942.87 1764.24 2945.11 1762.42 2946.79 1760.74 2948.47 1759.06 2949.3 1757.45 2949.3 1755.89 2949.3 1754.42 2948.29 1753.6 2946.25 1753.42L2946.74 1751.22 2961.3 1751.22 2962.15 1753.42C2959.67 1755.66 2957.03 1757.86 2954.25 1760.02L2943.11 1768.65 2947.51 1784.86C2947.87 1786.24 2948.19 1787.24 2948.47 1787.85 2948.76 1788.46 2949.09 1788.92 2949.46 1789.22 2949.84 1789.52 2950.34 1789.67 2950.97 1789.67 2951.75 1789.67 2952.67 1789.25 2953.75 1788.41 2954.83 1787.57 2956.06 1786.36 2957.44 1784.77L2960 1787.29C2957.3 1790.13 2955.07 1792.11 2953.3 1793.22 2951.54 1794.33 2949.83 1794.88 2948.18 1794.88 2946.15 1794.88 2944.53 1794.3 2943.33 1793.15 2942.13 1792 2941.19 1790.07 2940.5 1787.38L2937.54 1775.7C2937.24 1774.53 2936.94 1773.72 2936.64 1773.27 2936.34 1772.82 2935.99 1772.52 2935.6 1772.37 2935.21 1772.22 2934.53 1772.15 2933.54 1772.15L2930.44 1772.15 2925.77 1794.16 2917.99 1794.16 2929.54 1742.82C2929.93 1741.08 2930.21 1739.72 2930.37 1738.75 2930.53 1737.78 2930.62 1736.92 2930.62 1736.17 2930.62 1734.91 2930.24 1734.03 2929.47 1733.52 2928.71 1733.01 2927.34 1732.72 2925.36 1732.66L2925.9 1730.33Z" fill-rule="evenodd"/><text fill="#000000" fill-opacity="0" font-family="Arial,Arial_MSFontService,sans-serif" font-size="64.957" x="2917.99" y="1786.76">𝑘</text><path d="M3380.5 1476C3380.5 1450.87 3401.09 1430.5 3426.5 1430.5 3451.91 1430.5 3472.5 1450.87 3472.5 1476 3472.5 1501.13 3451.91 1521.5 3426.5 1521.5 3401.09 1521.5 3380.5 1501.13 3380.5 1476Z" stroke="#000000" stroke-width="4.58333" stroke-miterlimit="8" fill="#FFFFFF" fill-rule="evenodd"/><text font-family="Times New Roman,Times New Roman_MSFontService,sans-serif" font-weight="400" font-size="73" transform="matrix(1 0 0 1 3210.52 1696)">4<tspan font-size="73" x="197.369" y="-198">2</tspan></text><path d="M3181.5 1670C3181.5 1644.87 3202.09 1624.5 3227.5 1624.5 3252.91 1624.5 3273.5 1644.87 3273.5 1670 3273.5 1695.13 3252.91 1715.5 3227.5 1715.5 3202.09 1715.5 3181.5 1695.13 3181.5 1670Z" stroke="#000000" stroke-width="4.58333" stroke-miterlimit="8" fill="none" fill-rule="evenodd"/><path d="M3182.5 1476C3182.5 1450.87 3203.09 1430.5 3228.5 1430.5 3253.91 1430.5 3274.5 1450.87 3274.5 1476 3274.5 1501.13 3253.91 1521.5 3228.5 1521.5 3203.09 1521.5 3182.5 1501.13 3182.5 1476Z" stroke="#000000" stroke-width="4.58333" stroke-miterlimit="8" fill="#FFFFFF" fill-rule="evenodd"/><path d="M0 0 133.963 129.681" stroke="#000000" stroke-width="5.72917" stroke-miterlimit="8" fill="none" fill-rule="evenodd" transform="matrix(-1 0 0 1 3393.96 1507)"/><text font-family="Times New Roman,Times New Roman_MSFontService,sans-serif" font-weight="400" font-size="73" transform="matrix(1 0 0 1 3209.28 1498)">1</text><path d="M3380.5 1670C3380.5 1644.87 3401.09 1624.5 3426.5 1624.5 3451.91 1624.5 3472.5 1644.87 3472.5 1670 3472.5 1695.13 3451.91 1715.5 3426.5 1715.5 3401.09 1715.5 3380.5 1695.13 3380.5 1670Z" stroke="#000000" stroke-width="4.58333" stroke-miterlimit="8" fill="none" fill-rule="evenodd"/><text font-family="Times New Roman,Times New Roman_MSFontService,sans-serif" font-weight="400" font-size="73" transform="matrix(1 0 0 1 3409.13 1696)">3</text><path d="M3378.94 1669 3275 1669" stroke="#000000" stroke-width="5.72917" stroke-miterlimit="8" fill="none" fill-rule="evenodd"/><path d="M0 0 0.000360892 103.937" stroke="#000000" stroke-width="5.72917" stroke-miterlimit="8" fill="none" fill-rule="evenodd" transform="matrix(-1 0 0 1 3227 1521)"/><path d="M3160.22 1753.51 3162.87 1753.51 3156.4 1782.35C3155.74 1785.28 3155.41 1787.5 3155.41 1789 3155.41 1790.19 3155.61 1791.06 3156 1791.6 3156.39 1792.14 3157 1792.41 3157.84 1792.41 3158.74 1792.41 3159.7 1792.04 3160.71 1791.31 3161.73 1790.58 3163.17 1789.18 3165.03 1787.11L3167.59 1789.62C3164.65 1792.71 3162.27 1794.81 3160.44 1795.91 3158.62 1797.02 3156.57 1797.58 3154.29 1797.58 3152.34 1797.58 3150.79 1796.86 3149.62 1795.44 3148.45 1794.02 3147.87 1792.2 3147.87 1789.98 3147.87 1787.71 3148.29 1784.8 3149.12 1781.27L3152.49 1766.58C3153.18 1763.59 3153.53 1761.34 3153.53 1759.84 3153.53 1758.49 3153.2 1757.58 3152.56 1757.1 3151.92 1756.62 3150.65 1756.35 3148.76 1756.29L3149.26 1753.91ZM3159.01 1736.3 3166.96 1736.3 3164.89 1745.02 3156.94 1745.02Z" fill-rule="evenodd"/><text fill="#000000" fill-opacity="0" font-family="Arial,Arial_MSFontService,sans-serif" font-size="61.2734" x="3147.87" y="1789.92">𝑖</text><path d="M3205.86 1776.91 3261.2 1776.91 3261.2 1782.89 3205.86 1782.89ZM3205.86 1758.27 3261.2 1758.27 3261.2 1764.24 3205.86 1764.24Z" fill-rule="evenodd"/><text fill="#000000" fill-opacity="0" font-family="Arial,Arial_MSFontService,sans-serif" font-size="24.6172" x="3205.86" y="1779.81">=</text><path d="M3312.02 1753.51 3314.67 1753.51 3308.2 1782.35C3307.54 1785.28 3307.21 1787.5 3307.21 1789 3307.21 1790.19 3307.41 1791.06 3307.8 1791.6 3308.19 1792.14 3308.8 1792.41 3309.64 1792.41 3310.54 1792.41 3311.5 1792.04 3312.51 1791.31 3313.53 1790.58 3314.97 1789.18 3316.83 1787.11L3319.39 1789.62C3316.45 1792.71 3314.07 1794.81 3312.24 1795.91 3310.42 1797.02 3308.37 1797.58 3306.09 1797.58 3304.14 1797.58 3302.59 1796.86 3301.42 1795.44 3300.25 1794.02 3299.67 1792.2 3299.67 1789.98 3299.67 1787.71 3300.09 1784.8 3300.92 1781.27L3304.29 1766.58C3304.98 1763.59 3305.33 1761.34 3305.33 1759.84 3305.33 1758.49 3305 1757.58 3304.36 1757.1 3303.72 1756.62 3302.45 1756.35 3300.56 1756.29L3301.06 1753.91ZM3310.81 1736.3 3318.76 1736.3 3316.69 1745.02 3308.74 1745.02ZM3333.47 1726.42 3341.87 1726.42 3341.87 1728.98 3331.05 1755.04 3327.23 1753.91Z" fill-rule="evenodd"/><text fill="#000000" fill-opacity="0" font-family="Arial,Arial_MSFontService,sans-serif" font-size="71.1562" x="3299.67" y="1788.68">𝑖′</text><path d="M3505.71 1371.2 3508.27 1371.2 3498.93 1415.31C3497.97 1419.86 3496.66 1423.52 3495.02 1426.29 3493.37 1429.06 3491.23 1431.15 3488.59 1432.54 3485.96 1433.93 3482.81 1434.63 3479.16 1434.63 3477.66 1434.63 3476.39 1434.48 3475.34 1434.18L3476.38 1430.23C3477 1430.46 3478.14 1430.58 3479.79 1430.58 3481.23 1430.58 3482.45 1430.37 3483.45 1429.93 3484.45 1429.5 3485.39 1428.78 3486.26 1427.78 3487.13 1426.77 3487.93 1425.37 3488.66 1423.58 3489.39 1421.78 3490.08 1419.46 3490.71 1416.61L3497.98 1384.27C3498.67 1381.22 3499.02 1378.97 3499.02 1377.53 3499.02 1376.18 3498.69 1375.27 3498.05 1374.79 3497.41 1374.31 3496.14 1374.04 3494.25 1373.98L3494.75 1371.6ZM3504.5 1353.99 3512.45 1353.99 3510.38 1362.71 3502.43 1362.71ZM3526.62 1344.11 3535.03 1344.11 3535.03 1346.67 3524.2 1372.73 3520.38 1371.6Z" fill-rule="evenodd"/><text fill="#000000" fill-opacity="0" font-family="Arial,Arial_MSFontService,sans-serif" font-size="90.5176" x="3475.34" y="1423.31">𝑗′</text><path d="M3236.69 1361.34 3239.25 1361.34 3229.91 1405.45C3228.95 1410.01 3227.65 1413.67 3226 1416.44 3224.35 1419.21 3222.21 1421.29 3219.57 1422.68 3216.94 1424.07 3213.79 1424.77 3210.14 1424.77 3208.64 1424.77 3207.37 1424.62 3206.32 1424.32L3207.36 1420.37C3207.98 1420.61 3209.12 1420.73 3210.77 1420.73 3212.21 1420.73 3213.43 1420.51 3214.43 1420.08 3215.43 1419.64 3216.37 1418.92 3217.24 1417.92 3218.11 1416.92 3218.91 1415.52 3219.64 1413.72 3220.38 1411.92 3221.06 1409.6 3221.69 1406.76L3228.96 1374.41C3229.65 1371.36 3230 1369.11 3230 1367.68 3230 1366.33 3229.67 1365.41 3229.03 1364.93 3228.39 1364.46 3227.12 1364.19 3225.23 1364.13L3225.73 1361.75ZM3235.48 1344.14 3243.43 1344.14 3241.36 1352.85 3233.41 1352.85Z" fill-rule="evenodd"/><text fill="#000000" fill-opacity="0" font-family="Arial,Arial_MSFontService,sans-serif" font-size="80.6348" x="3206.32" y="1414.69">𝑗</text><path d="M3454.78 1725.87 3457.39 1725.87 3448.58 1765.09 3450.02 1765.09C3452.27 1765.09 3454.79 1764.11 3457.59 1762.15 3460.39 1760.18 3462.63 1758.36 3464.3 1756.69 3465.98 1755.01 3466.82 1753.39 3466.82 1751.84 3466.82 1750.37 3465.8 1749.54 3463.77 1749.36L3464.26 1747.16 3478.81 1747.16 3479.67 1749.36C3477.18 1751.61 3474.55 1753.81 3471.76 1755.97L3460.62 1764.59 3465.02 1780.81C3465.38 1782.19 3465.7 1783.18 3465.99 1783.8 3466.27 1784.41 3466.6 1784.87 3466.98 1785.17 3467.35 1785.47 3467.85 1785.62 3468.48 1785.62 3469.26 1785.62 3470.19 1785.2 3471.27 1784.36 3472.35 1783.52 3473.57 1782.31 3474.95 1780.72L3477.51 1783.24C3474.82 1786.08 3472.58 1788.06 3470.82 1789.17 3469.05 1790.27 3467.34 1790.83 3465.7 1790.83 3463.66 1790.83 3462.04 1790.25 3460.85 1789.1 3459.65 1787.95 3458.7 1786.02 3458.02 1783.33L3455.05 1771.65C3454.75 1770.48 3454.45 1769.67 3454.15 1769.22 3453.85 1768.77 3453.51 1768.47 3453.12 1768.32 3452.73 1768.17 3452.04 1768.1 3451.05 1768.1L3447.95 1768.1 3443.28 1790.11 3435.51 1790.11 3447.05 1738.76C3447.44 1737.03 3447.72 1735.67 3447.89 1734.7 3448.05 1733.72 3448.13 1732.86 3448.13 1732.11 3448.13 1730.86 3447.75 1729.97 3446.99 1729.46 3446.22 1728.96 3444.85 1728.67 3442.88 1728.61L3443.42 1726.28Z" fill-rule="evenodd"/><text fill="#000000" fill-opacity="0" font-family="Arial,Arial_MSFontService,sans-serif" font-size="64.957" x="3435.51" y="1782.71">𝑘</text><path d="M3516.63 1770.16 3571.97 1770.16 3571.97 1776.14 3516.63 1776.14ZM3516.63 1751.52 3571.97 1751.52 3571.97 1757.5 3516.63 1757.5Z" fill-rule="evenodd"/><text fill="#000000" fill-opacity="0" font-family="Arial,Arial_MSFontService,sans-serif" font-size="24.6172" x="3516.63" y="1773.06">=</text><path d="M3627.55 1725.87 3630.16 1725.87 3621.35 1765.09 3622.79 1765.09C3625.03 1765.09 3627.56 1764.11 3630.36 1762.15 3633.16 1760.18 3635.4 1758.36 3637.07 1756.69 3638.75 1755.01 3639.59 1753.39 3639.59 1751.84 3639.59 1750.37 3638.57 1749.54 3636.53 1749.36L3637.03 1747.16 3651.58 1747.16 3652.44 1749.36C3649.95 1751.61 3647.32 1753.81 3644.53 1755.97L3633.39 1764.59 3637.79 1780.81C3638.15 1782.19 3638.47 1783.18 3638.76 1783.8 3639.04 1784.41 3639.37 1784.87 3639.75 1785.17 3640.12 1785.47 3640.62 1785.62 3641.25 1785.62 3642.03 1785.62 3642.96 1785.2 3644.04 1784.36 3645.11 1783.52 3646.34 1782.31 3647.72 1780.72L3650.28 1783.24C3647.58 1786.08 3645.35 1788.06 3643.59 1789.17 3641.82 1790.27 3640.11 1790.83 3638.47 1790.83 3636.43 1790.83 3634.81 1790.25 3633.61 1789.1 3632.42 1787.95 3631.47 1786.02 3630.78 1783.33L3627.82 1771.65C3627.52 1770.48 3627.22 1769.67 3626.92 1769.22 3626.62 1768.77 3626.28 1768.47 3625.89 1768.32 3625.5 1768.17 3624.81 1768.1 3623.82 1768.1L3620.72 1768.1 3616.05 1790.11 3608.28 1790.11 3619.82 1738.76C3620.21 1737.03 3620.49 1735.67 3620.65 1734.7 3620.82 1733.72 3620.9 1732.86 3620.9 1732.11 3620.9 1730.86 3620.52 1729.97 3619.76 1729.46 3618.99 1728.96 3617.62 1728.67 3615.65 1728.61L3616.18 1726.28ZM3665.24 1719.67 3673.64 1719.67 3673.64 1722.23 3662.82 1748.29 3659 1747.16Z" fill-rule="evenodd"/><text fill="#000000" fill-opacity="0" font-family="Arial,Arial_MSFontService,sans-serif" font-size="71.1562" x="3608.28" y="1781.93">𝑘′</text><path d="M4003.5 1474C4003.5 1448.87 4024.1 1428.5 4049.5 1428.5 4074.91 1428.5 4095.5 1448.87 4095.5 1474 4095.5 1499.13 4074.91 1519.5 4049.5 1519.5 4024.1 1519.5 4003.5 1499.13 4003.5 1474Z" stroke="#000000" stroke-width="4.58333" stroke-miterlimit="8" fill="#FFFFFF" fill-rule="evenodd"/><text font-family="Times New Roman,Times New Roman_MSFontService,sans-serif" font-weight="400" font-size="73" transform="matrix(1 0 0 1 3833.26 1694)">4<tspan font-size="73" x="197.369" y="-198">2</tspan></text><path d="M3804.5 1668C3804.5 1642.87 3825.1 1622.5 3850.5 1622.5 3875.91 1622.5 3896.5 1642.87 3896.5 1668 3896.5 1693.13 3875.91 1713.5 3850.5 1713.5 3825.1 1713.5 3804.5 1693.13 3804.5 1668Z" stroke="#000000" stroke-width="4.58333" stroke-miterlimit="8" fill="none" fill-rule="evenodd"/><path d="M3805.5 1474C3805.5 1448.87 3826.1 1428.5 3851.5 1428.5 3876.91 1428.5 3897.5 1448.87 3897.5 1474 3897.5 1499.13 3876.91 1519.5 3851.5 1519.5 3826.1 1519.5 3805.5 1499.13 3805.5 1474Z" stroke="#000000" stroke-width="4.58333" stroke-miterlimit="8" fill="#FFFFFF" fill-rule="evenodd"/><path d="M0 0 133.963 129.681" stroke="#000000" stroke-width="5.72917" stroke-miterlimit="8" fill="none" fill-rule="evenodd" transform="matrix(-1 0 0 1 4016.96 1505)"/><text font-family="Times New Roman,Times New Roman_MSFontService,sans-serif" font-weight="400" font-size="73" transform="matrix(1 0 0 1 3832.02 1496)">1</text><path d="M4003.5 1668C4003.5 1642.87 4024.1 1622.5 4049.5 1622.5 4074.91 1622.5 4095.5 1642.87 4095.5 1668 4095.5 1693.13 4074.91 1713.5 4049.5 1713.5 4024.1 1713.5 4003.5 1693.13 4003.5 1668Z" stroke="#000000" stroke-width="4.58333" stroke-miterlimit="8" fill="none" fill-rule="evenodd"/><text font-family="Times New Roman,Times New Roman_MSFontService,sans-serif" font-weight="400" font-size="73" transform="matrix(1 0 0 1 4031.87 1694)">3</text><path d="M4001.94 1667 3898 1667" stroke="#000000" stroke-width="5.72917" stroke-miterlimit="8" fill="none" fill-rule="evenodd"/><path d="M0 0 0.000360892 103.937" stroke="#000000" stroke-width="5.72917" stroke-miterlimit="8" fill="none" fill-rule="evenodd" transform="matrix(-1 0 0 1 3850 1519)"/><path d="M3782.96 1751.73 3785.61 1751.73 3779.14 1780.57C3778.48 1783.51 3778.15 1785.72 3778.15 1787.22 3778.15 1788.42 3778.35 1789.29 3778.74 1789.83 3779.13 1790.37 3779.74 1790.64 3780.58 1790.64 3781.48 1790.64 3782.44 1790.27 3783.46 1789.53 3784.47 1788.8 3785.91 1787.4 3787.77 1785.33L3790.33 1787.85C3787.39 1790.93 3785.01 1793.03 3783.19 1794.14 3781.36 1795.25 3779.31 1795.8 3777.03 1795.8 3775.09 1795.8 3773.53 1795.09 3772.36 1793.67 3771.19 1792.25 3770.61 1790.43 3770.61 1788.21 3770.61 1785.93 3771.03 1783.03 3771.87 1779.49L3775.23 1764.81C3775.92 1761.81 3776.27 1759.56 3776.27 1758.07 3776.27 1756.72 3775.95 1755.81 3775.3 1755.33 3774.66 1754.85 3773.39 1754.58 3771.51 1754.52L3772 1752.14ZM3781.75 1734.53 3789.7 1734.53 3787.63 1743.24 3779.68 1743.24Z" fill-rule="evenodd"/><text fill="#000000" fill-opacity="0" font-family="Arial,Arial_MSFontService,sans-serif" font-size="61.2734" x="3770.61" y="1788.14">𝑖</text><path d="M3828.6 1775.14 3883.95 1775.14 3883.95 1781.11 3828.6 1781.11ZM3828.6 1756.49 3883.95 1756.49 3883.95 1762.47 3828.6 1762.47Z" fill-rule="evenodd"/><text fill="#000000" fill-opacity="0" font-family="Arial,Arial_MSFontService,sans-serif" font-size="24.6172" x="3828.6" y="1778.03">=</text><path d="M3934.76 1751.73 3937.41 1751.73 3930.94 1780.57C3930.28 1783.51 3929.95 1785.72 3929.95 1787.22 3929.95 1788.42 3930.15 1789.29 3930.54 1789.83 3930.93 1790.37 3931.54 1790.64 3932.38 1790.64 3933.28 1790.64 3934.24 1790.27 3935.26 1789.53 3936.27 1788.8 3937.71 1787.4 3939.57 1785.33L3942.13 1787.85C3939.19 1790.93 3936.81 1793.03 3934.99 1794.14 3933.16 1795.25 3931.11 1795.8 3928.83 1795.8 3926.89 1795.8 3925.33 1795.09 3924.16 1793.67 3922.99 1792.25 3922.41 1790.43 3922.41 1788.21 3922.41 1785.93 3922.83 1783.03 3923.67 1779.49L3927.03 1764.81C3927.72 1761.81 3928.07 1759.56 3928.07 1758.07 3928.07 1756.72 3927.75 1755.81 3927.1 1755.33 3926.46 1754.85 3925.19 1754.58 3923.31 1754.52L3923.8 1752.14ZM3933.55 1734.53 3941.5 1734.53 3939.43 1743.24 3931.48 1743.24ZM3956.21 1724.65 3964.61 1724.65 3964.61 1727.21 3953.79 1753.26 3949.97 1752.14Z" fill-rule="evenodd"/><text fill="#000000" fill-opacity="0" font-family="Arial,Arial_MSFontService,sans-serif" font-size="71.1562" x="3922.41" y="1786.91">𝑖′</text><path d="M4139.4 1369.42 4141.97 1369.42 4132.62 1413.54C4131.66 1418.09 4130.36 1421.75 4128.71 1424.52 4127.07 1427.29 4124.92 1429.37 4122.29 1430.76 4119.65 1432.16 4116.51 1432.85 4112.86 1432.85 4111.36 1432.85 4110.09 1432.7 4109.04 1432.4L4110.07 1428.45C4110.7 1428.69 4111.84 1428.81 4113.48 1428.81 4114.92 1428.81 4116.14 1428.59 4117.15 1428.16 4118.15 1427.72 4119.08 1427.01 4119.95 1426 4120.82 1425 4121.62 1423.6 4122.36 1421.8 4123.09 1420.01 4123.77 1417.68 4124.4 1414.84L4131.68 1382.5C4132.37 1379.44 4132.71 1377.19 4132.71 1375.76 4132.71 1374.41 4132.39 1373.5 4131.75 1373.02 4131.1 1372.54 4129.84 1372.27 4127.95 1372.21L4128.44 1369.83ZM4138.19 1352.22 4146.14 1352.22 4144.08 1360.93 4136.13 1360.93Z" fill-rule="evenodd"/><text fill="#000000" fill-opacity="0" font-family="Arial,Arial_MSFontService,sans-serif" font-size="80.6348" x="4109.04" y="1422.77">𝑗</text><path d="M3848.48 1359.57 3851.04 1359.57 3841.69 1403.68C3840.74 1408.23 3839.43 1411.89 3837.79 1414.66 3836.14 1417.43 3834 1419.51 3831.36 1420.91 3828.73 1422.3 3825.58 1423 3821.93 1423 3820.43 1423 3819.16 1422.85 3818.11 1422.55L3819.14 1418.59C3819.77 1418.83 3820.91 1418.95 3822.56 1418.95 3824 1418.95 3825.22 1418.74 3826.22 1418.3 3827.22 1417.87 3828.16 1417.15 3829.03 1416.15 3829.89 1415.14 3830.7 1413.74 3831.43 1411.95 3832.16 1410.15 3832.84 1407.83 3833.47 1404.98L3840.75 1372.64C3841.44 1369.58 3841.78 1367.34 3841.78 1365.9 3841.78 1364.55 3841.46 1363.64 3840.82 1363.16 3840.17 1362.68 3838.91 1362.41 3837.02 1362.35L3837.52 1359.97ZM3847.26 1342.36 3855.22 1342.36 3853.15 1351.08 3845.2 1351.08ZM3869.39 1332.48 3877.79 1332.48 3877.79 1335.04 3866.97 1361.09 3863.15 1359.97Z" fill-rule="evenodd"/><text fill="#000000" fill-opacity="0" font-family="Arial,Arial_MSFontService,sans-serif" font-size="90.5176" x="3818.11" y="1411.68">𝑗′</text><path d="M4077.52 1724.1 4080.13 1724.1 4071.32 1763.31 4072.76 1763.31C4075.01 1763.31 4077.53 1762.33 4080.33 1760.37 4083.13 1758.41 4085.37 1756.59 4087.05 1754.91 4088.72 1753.24 4089.56 1751.62 4089.56 1750.06 4089.56 1748.59 4088.54 1747.77 4086.51 1747.59L4087 1745.39 4101.56 1745.39 4102.41 1747.59C4099.92 1749.84 4097.29 1752.04 4094.5 1754.19L4083.36 1762.82 4087.76 1779.04C4088.12 1780.41 4088.45 1781.41 4088.73 1782.02 4089.02 1782.64 4089.34 1783.09 4089.72 1783.39 4090.09 1783.69 4090.59 1783.84 4091.22 1783.84 4092 1783.84 4092.93 1783.42 4094.01 1782.58 4095.09 1781.75 4096.31 1780.53 4097.69 1778.95L4100.25 1781.46C4097.56 1784.31 4095.33 1786.28 4093.56 1787.39 4091.79 1788.5 4090.09 1789.05 4088.44 1789.05 4086.4 1789.05 4084.79 1788.48 4083.59 1787.32 4082.39 1786.17 4081.45 1784.25 4080.76 1781.55L4077.79 1769.87C4077.49 1768.7 4077.19 1767.9 4076.89 1767.45 4076.59 1767 4076.25 1766.7 4075.86 1766.55 4075.47 1766.4 4074.78 1766.32 4073.79 1766.32L4070.69 1766.32 4066.02 1788.33 4058.25 1788.33 4069.8 1736.99C4070.19 1735.25 4070.46 1733.9 4070.63 1732.92 4070.79 1731.95 4070.87 1731.09 4070.87 1730.34 4070.87 1729.08 4070.49 1728.2 4069.73 1727.69 4068.97 1727.18 4067.59 1726.9 4065.62 1726.84L4066.16 1724.5Z" fill-rule="evenodd"/><text fill="#000000" fill-opacity="0" font-family="Arial,Arial_MSFontService,sans-serif" font-size="64.957" x="4058.25" y="1780.93">𝑘</text><path d="M4139.37 1768.39 4194.71 1768.39 4194.71 1774.36 4139.37 1774.36ZM4139.37 1749.75 4194.71 1749.75 4194.71 1755.72 4139.37 1755.72Z" fill-rule="evenodd"/><text fill="#000000" fill-opacity="0" font-family="Arial,Arial_MSFontService,sans-serif" font-size="24.6172" x="4139.37" y="1771.29">=</text><path d="M4250.29 1724.1 4252.9 1724.1 4244.09 1763.31 4245.53 1763.31C4247.78 1763.31 4250.3 1762.33 4253.1 1760.37 4255.9 1758.41 4258.14 1756.59 4259.81 1754.91 4261.49 1753.24 4262.33 1751.62 4262.33 1750.06 4262.33 1748.59 4261.31 1747.77 4259.28 1747.59L4259.77 1745.39 4274.32 1745.39 4275.18 1747.59C4272.69 1749.84 4270.06 1752.04 4267.27 1754.19L4256.13 1762.82 4260.53 1779.04C4260.89 1780.41 4261.21 1781.41 4261.5 1782.02 4261.78 1782.64 4262.11 1783.09 4262.49 1783.39 4262.86 1783.69 4263.36 1783.84 4263.99 1783.84 4264.77 1783.84 4265.7 1783.42 4266.78 1782.58 4267.86 1781.75 4269.08 1780.53 4270.46 1778.95L4273.02 1781.46C4270.33 1784.31 4268.1 1786.28 4266.33 1787.39 4264.56 1788.5 4262.85 1789.05 4261.21 1789.05 4259.17 1789.05 4257.55 1788.48 4256.36 1787.32 4255.16 1786.17 4254.21 1784.25 4253.53 1781.55L4250.56 1769.87C4250.26 1768.7 4249.96 1767.9 4249.66 1767.45 4249.36 1767 4249.02 1766.7 4248.63 1766.55 4248.24 1766.4 4247.55 1766.32 4246.56 1766.32L4243.46 1766.32 4238.79 1788.33 4231.02 1788.33 4242.56 1736.99C4242.95 1735.25 4243.23 1733.9 4243.4 1732.92 4243.56 1731.95 4243.64 1731.09 4243.64 1730.34 4243.64 1729.08 4243.26 1728.2 4242.5 1727.69 4241.73 1727.18 4240.36 1726.9 4238.39 1726.84L4238.93 1724.5ZM4287.98 1717.9 4296.38 1717.9 4296.38 1720.46 4285.56 1746.51 4281.74 1745.39Z" fill-rule="evenodd"/><text fill="#000000" fill-opacity="0" font-family="Arial,Arial_MSFontService,sans-serif" font-size="71.1562" x="4231.02" y="1780.16">𝑘′</text><path d="M2546.5 916C2546.5 890.871 2567.09 870.5 2592.5 870.5 2617.91 870.5 2638.5 890.871 2638.5 916 2638.5 941.129 2617.91 961.5 2592.5 961.5 2567.09 961.5 2546.5 941.129 2546.5 916Z" stroke="#000000" stroke-width="4.58333" stroke-miterlimit="8" fill="none" fill-rule="evenodd"/><path d="M2546.5 722C2546.5 696.871 2567.09 676.5 2592.5 676.5 2617.91 676.5 2638.5 696.871 2638.5 722 2638.5 747.129 2617.91 767.5 2592.5 767.5 2567.09 767.5 2546.5 747.129 2546.5 722Z" stroke="#000000" stroke-width="4.58333" stroke-miterlimit="8" fill="#FFFFFF" fill-rule="evenodd"/><text font-family="Times New Roman,Times New Roman_MSFontService,sans-serif" font-weight="400" font-size="73" transform="matrix(1 0 0 1 2573.87 744)">1<tspan font-size="73" x="1.24048" y="198">3</tspan></text><path d="M2745.5 916C2745.5 890.871 2766.09 870.5 2791.5 870.5 2816.91 870.5 2837.5 890.871 2837.5 916 2837.5 941.129 2816.91 961.5 2791.5 961.5 2766.09 961.5 2745.5 941.129 2745.5 916Z" stroke="#000000" stroke-width="4.58333" stroke-miterlimit="8" fill="none" fill-rule="evenodd"/><text font-family="Times New Roman,Times New Roman_MSFontService,sans-serif" font-weight="400" font-size="73" transform="matrix(1 0 0 1 2773.72 942)">2</text><path d="M2743.94 915 2640 915" stroke="#000000" stroke-width="5.72917" stroke-miterlimit="8" fill="none" fill-rule="evenodd"/><path d="M0 0 0.000360892 103.937" stroke="#000000" stroke-width="5.72917" stroke-miterlimit="8" fill="none" fill-rule="evenodd" transform="matrix(-1 0 0 1 2592 767)"/><path d="M2497.92 999.511 2500.57 999.511 2494.11 1028.35C2493.45 1031.29 2493.12 1033.5 2493.12 1035 2493.12 1036.2 2493.31 1037.07 2493.7 1037.61 2494.09 1038.14 2494.7 1038.41 2495.54 1038.41 2496.44 1038.41 2497.4 1038.05 2498.42 1037.31 2499.44 1036.58 2500.87 1035.18 2502.73 1033.11L2505.29 1035.63C2502.36 1038.71 2499.98 1040.81 2498.15 1041.92 2496.32 1043.03 2494.27 1043.58 2491.99 1043.58 2490.05 1043.58 2488.49 1042.87 2487.32 1041.45 2486.15 1040.02 2485.57 1038.2 2485.57 1035.99 2485.57 1033.71 2485.99 1030.81 2486.83 1027.27L2490.2 1012.58C2490.89 1009.59 2491.23 1007.34 2491.23 1005.85 2491.23 1004.5 2490.91 1003.58 2490.26 1003.11 2489.62 1002.63 2488.36 1002.36 2486.47 1002.3L2486.96 999.916ZM2496.71 982.306 2504.66 982.306 2502.6 991.021 2494.64 991.021Z" fill-rule="evenodd"/><text fill="#000000" fill-opacity="0" font-family="Arial,Arial_MSFontService,sans-serif" font-size="61.2734" x="2485.57" y="1035.92">𝑖</text><path d="M2543.56 1022.92 2598.91 1022.92 2598.91 1028.89 2543.56 1028.89ZM2543.56 1004.27 2598.91 1004.27 2598.91 1010.25 2543.56 1010.25Z" fill-rule="evenodd"/><text fill="#000000" fill-opacity="0" font-family="Arial,Arial_MSFontService,sans-serif" font-size="24.6172" x="2543.56" y="1025.81">=</text><path d="M2649.72 999.511 2652.37 999.511 2645.91 1028.35C2645.25 1031.29 2644.92 1033.5 2644.92 1035 2644.92 1036.2 2645.11 1037.07 2645.5 1037.61 2645.89 1038.14 2646.5 1038.41 2647.34 1038.41 2648.24 1038.41 2649.2 1038.05 2650.22 1037.31 2651.24 1036.58 2652.67 1035.18 2654.53 1033.11L2657.09 1035.63C2654.16 1038.71 2651.78 1040.81 2649.95 1041.92 2648.12 1043.03 2646.07 1043.58 2643.79 1043.58 2641.85 1043.58 2640.29 1042.87 2639.12 1041.45 2637.95 1040.02 2637.37 1038.2 2637.37 1035.99 2637.37 1033.71 2637.79 1030.81 2638.63 1027.27L2642 1012.58C2642.69 1009.59 2643.03 1007.34 2643.03 1005.85 2643.03 1004.5 2642.71 1003.58 2642.06 1003.11 2641.42 1002.63 2640.16 1002.36 2638.27 1002.3L2638.76 999.916ZM2648.51 982.306 2656.46 982.306 2654.4 991.021 2646.44 991.021ZM2671.18 972.424 2679.58 972.424 2679.58 974.984 2668.75 1001.04 2664.93 999.916Z" fill-rule="evenodd"/><text fill="#000000" fill-opacity="0" font-family="Arial,Arial_MSFontService,sans-serif" font-size="71.1562" x="2637.37" y="1034.69">𝑖′</text><path d="M2513.1 607.345 2515.66 607.345 2506.32 651.458C2505.36 656.01 2504.06 659.671 2502.41 662.442 2500.76 665.212 2498.62 667.293 2495.99 668.686 2493.35 670.078 2490.21 670.775 2486.55 670.775 2485.05 670.775 2483.78 670.625 2482.73 670.325L2483.77 666.372C2484.4 666.612 2485.53 666.732 2487.18 666.732 2488.62 666.732 2489.84 666.515 2490.84 666.08 2491.84 665.646 2492.78 664.927 2493.65 663.924 2494.52 662.921 2495.32 661.521 2496.05 659.724 2496.79 657.927 2497.47 655.606 2498.1 652.761L2505.37 620.417C2506.06 617.362 2506.41 615.116 2506.41 613.679 2506.41 612.331 2506.08 611.418 2505.44 610.939 2504.8 610.459 2503.53 610.19 2501.65 610.13L2502.14 607.749ZM2511.89 590.14 2519.84 590.14 2517.77 598.855 2509.82 598.855Z" fill-rule="evenodd"/><text fill="#000000" fill-opacity="0" font-family="Arial,Arial_MSFontService,sans-serif" font-size="80.6348" x="2482.73" y="660.695">𝑗</text><path d="M2556.86 630.749 2612.21 630.749 2612.21 636.724 2556.86 636.724ZM2556.86 612.107 2612.21 612.107 2612.21 618.081 2556.86 618.081Z" fill-rule="evenodd"/><text fill="#000000" fill-opacity="0" font-family="Arial,Arial_MSFontService,sans-serif" font-size="24.6172" x="2556.86" y="633.647">=</text><path d="M2667.56 607.345 2670.12 607.345 2660.78 651.458C2659.82 656.01 2658.51 659.671 2656.87 662.442 2655.22 665.212 2653.08 667.293 2650.44 668.686 2647.81 670.078 2644.66 670.775 2641.01 670.775 2639.51 670.775 2638.24 670.625 2637.19 670.325L2638.22 666.372C2638.85 666.612 2639.99 666.732 2641.64 666.732 2643.08 666.732 2644.3 666.515 2645.3 666.08 2646.3 665.646 2647.24 664.927 2648.11 663.924 2648.98 662.921 2649.78 661.521 2650.51 659.724 2651.24 657.927 2651.93 655.606 2652.55 652.761L2659.83 620.417C2660.52 617.362 2660.87 615.116 2660.87 613.679 2660.87 612.331 2660.54 611.418 2659.9 610.939 2659.26 610.459 2657.99 610.19 2656.1 610.13L2656.6 607.749ZM2666.35 590.14 2674.3 590.14 2672.23 598.855 2664.28 598.855ZM2688.47 580.257 2696.88 580.257 2696.88 582.818 2686.05 608.872 2682.23 607.749Z" fill-rule="evenodd"/><text fill="#000000" fill-opacity="0" font-family="Arial,Arial_MSFontService,sans-serif" font-size="90.5176" x="2637.19" y="659.46">𝑗′</text><path d="M2786.11 971.875 2788.71 971.875 2779.91 1011.09 2781.35 1011.09C2783.59 1011.09 2786.12 1010.11 2788.92 1008.15 2791.72 1006.19 2793.95 1004.37 2795.63 1002.69 2797.31 1001.01 2798.15 999.397 2798.15 997.839 2798.15 996.372 2797.13 995.548 2795.09 995.369L2795.59 993.167 2810.14 993.167 2810.99 995.369C2808.51 997.615 2805.87 999.816 2803.09 1001.97L2791.95 1010.6 2796.35 1026.81C2796.71 1028.19 2797.03 1029.19 2797.32 1029.8 2797.6 1030.42 2797.93 1030.87 2798.3 1031.17 2798.68 1031.47 2799.18 1031.62 2799.81 1031.62 2800.59 1031.62 2801.52 1031.2 2802.59 1030.36 2803.67 1029.52 2804.9 1028.31 2806.28 1026.72L2808.84 1029.24C2806.14 1032.08 2803.91 1034.06 2802.15 1035.17 2800.38 1036.28 2798.67 1036.83 2797.02 1036.83 2794.99 1036.83 2793.37 1036.26 2792.17 1035.1 2790.97 1033.95 2790.03 1032.02 2789.34 1029.33L2786.38 1017.65C2786.08 1016.48 2785.78 1015.67 2785.48 1015.22 2785.18 1014.77 2784.84 1014.48 2784.45 1014.33 2784.06 1014.18 2783.37 1014.1 2782.38 1014.1L2779.28 1014.1 2774.61 1036.11 2766.84 1036.11 2778.38 984.767C2778.77 983.03 2779.05 981.675 2779.21 980.702 2779.38 979.728 2779.46 978.867 2779.46 978.119 2779.46 976.861 2779.08 975.977 2778.31 975.468 2777.55 974.959 2776.18 974.675 2774.2 974.615L2774.74 972.279Z" fill-rule="evenodd"/><text fill="#000000" fill-opacity="0" font-family="Arial,Arial_MSFontService,sans-serif" font-size="64.957" x="2766.84" y="1028.71">𝑘</text><path d="M2847.96 1016.17 2903.3 1016.17 2903.3 1022.14 2847.96 1022.14ZM2847.96 997.525 2903.3 997.525 2903.3 1003.5 2847.96 1003.5Z" fill-rule="evenodd"/><text fill="#000000" fill-opacity="0" font-family="Arial,Arial_MSFontService,sans-serif" font-size="24.6172" x="2847.96" y="1019.06">=</text><path d="M2958.88 971.875 2961.48 971.875 2952.68 1011.09 2954.12 1011.09C2956.36 1011.09 2958.88 1010.11 2961.68 1008.15 2964.48 1006.19 2966.72 1004.37 2968.4 1002.69 2970.08 1001.01 2970.92 999.397 2970.92 997.839 2970.92 996.372 2969.9 995.548 2967.86 995.369L2968.36 993.167 2982.91 993.167 2983.76 995.369C2981.28 997.615 2978.64 999.816 2975.86 1001.97L2964.72 1010.6 2969.12 1026.81C2969.48 1028.19 2969.8 1029.19 2970.08 1029.8 2970.37 1030.42 2970.7 1030.87 2971.07 1031.17 2971.45 1031.47 2971.95 1031.62 2972.58 1031.62 2973.36 1031.62 2974.29 1031.2 2975.36 1030.36 2976.44 1029.52 2977.67 1028.31 2979.05 1026.72L2981.61 1029.24C2978.91 1032.08 2976.68 1034.06 2974.91 1035.17 2973.15 1036.28 2971.44 1036.83 2969.79 1036.83 2967.76 1036.83 2966.14 1036.26 2964.94 1035.1 2963.74 1033.95 2962.8 1032.02 2962.11 1029.33L2959.15 1017.65C2958.85 1016.48 2958.55 1015.67 2958.25 1015.22 2957.95 1014.77 2957.6 1014.48 2957.21 1014.33 2956.83 1014.18 2956.14 1014.1 2955.15 1014.1L2952.05 1014.1 2947.38 1036.11 2939.61 1036.11 2951.15 984.767C2951.54 983.03 2951.82 981.675 2951.98 980.702 2952.15 979.728 2952.23 978.867 2952.23 978.119 2952.23 976.861 2951.85 975.977 2951.08 975.468 2950.32 974.959 2948.95 974.675 2946.97 974.615L2947.51 972.279ZM2996.57 965.675 3004.97 965.675 3004.97 968.236 2994.14 994.291 2990.32 993.167Z" fill-rule="evenodd"/><text fill="#000000" fill-opacity="0" font-family="Arial,Arial_MSFontService,sans-serif" font-size="71.1562" x="2939.61" y="1027.94">𝑘′</text><rect x="2382.5" y="403.5" width="691" height="687" stroke="#000000" stroke-width="4.58333" stroke-miterlimit="8" fill="none"/><text font-family="Times New Roman,Times New Roman_MSFontService,sans-serif" font-weight="700" font-size="101" transform="matrix(1 0 0 1 2417.15 519)">2<tspan font-size="101" x="50.4168" y="0">-</tspan><tspan font-size="101" x="84.2188" y="0">stars</tspan></text></g></svg>