<svg width="2887" height="1270" xmlns="http://www.w3.org/2000/svg" xmlns:xlink="http://www.w3.org/1999/xlink" overflow="hidden"><defs><clipPath id="clip0"><rect x="893" y="555" width="2887" height="1270"/></clipPath><clipPath id="clip1"><rect x="3231" y="738" width="494" height="936"/></clipPath><clipPath id="clip2"><rect x="3249" y="761" width="466" height="885"/></clipPath><clipPath id="clip3"><rect x="3249" y="761" width="466" height="885"/></clipPath><clipPath id="clip4"><rect x="3249" y="761" width="466" height="885"/></clipPath><clipPath id="clip5"><rect x="2544" y="744" width="493" height="928"/></clipPath><clipPath id="clip6"><rect x="2560" y="761" width="467" height="888"/></clipPath><clipPath id="clip7"><rect x="2560" y="761" width="467" height="888"/></clipPath><clipPath id="clip8"><rect x="2560" y="761" width="467" height="888"/></clipPath><clipPath id="clip9"><rect x="1859" y="743" width="494" height="918"/></clipPath><clipPath id="clip10"><rect x="1872" y="761" width="475" height="885"/></clipPath><clipPath id="clip11"><rect x="1872" y="761" width="475" height="885"/></clipPath><clipPath id="clip12"><rect x="1872" y="761" width="475" height="885"/></clipPath><clipPath id="clip13"><rect x="1184" y="747" width="493" height="910"/></clipPath><clipPath id="clip14"><rect x="1201" y="761" width="466" height="886"/></clipPath><clipPath id="clip15"><rect x="1201" y="761" width="466" height="886"/></clipPath><clipPath id="clip16"><rect x="1201" y="761" width="466" height="886"/></clipPath></defs><g clip-path="url(#clip0)" transform="translate(-893 -555)"><g clip-path="url(#clip1)"><path d="M3249.5 1643.5 3711.5 1643.5M3249.5 1422.55 3711.5 1422.55M3249.5 1202.54 3711.5 1202.54M3249.5 981.532 3711.5 981.532M3249.5 761.5 3711.5 761.5" stroke="#D9D9D9" stroke-width="3.4375" stroke-linejoin="round" stroke-miterlimit="10" fill="none"/></g><g clip-path="url(#clip2)"><rect x="3287.5" y="767.5" width="78" height="876" stroke="#FF0000" stroke-width="3.4375" stroke-linejoin="round" stroke-miterlimit="10" fill="#FF0000"/></g><g clip-path="url(#clip3)"><rect x="3442.5" y="1385.5" width="77" height="258" stroke="#0070C0" stroke-width="3.4375" stroke-linejoin="round" stroke-miterlimit="10" fill="#4472C4"/></g><g clip-path="url(#clip4)"><rect x="3596.5" y="1312.5" width="77" height="331" stroke="#006600" stroke-width="3.4375" stroke-linejoin="round" stroke-miterlimit="10" fill="#006600"/></g><g clip-path="url(#clip5)"><path d="M2560.5 1645.5 3024.5 1645.5M2560.5 1424.55 3024.5 1424.55M2560.5 1203.54 3024.5 1203.54M2560.5 982.532 3024.5 982.532M2560.5 761.5 3024.5 761.5" stroke="#D9D9D9" stroke-width="3.4375" stroke-linejoin="round" stroke-miterlimit="10" fill="none"/></g><g clip-path="url(#clip6)"><rect x="2599.5" y="953.5" width="77" height="692" stroke="#FF0000" stroke-width="3.4375" stroke-linejoin="round" stroke-miterlimit="10" fill="#FF0000"/></g><g clip-path="url(#clip7)"><rect x="2753.5" y="1384.5" width="78" height="261" stroke="#0070C0" stroke-width="3.4375" stroke-linejoin="round" stroke-miterlimit="10" fill="#4472C4"/></g><g clip-path="url(#clip8)"><rect x="2908.5" y="1238.5" width="77" height="407" stroke="#006600" stroke-width="3.4375" stroke-linejoin="round" stroke-miterlimit="10" fill="#006600"/></g><g clip-path="url(#clip9)"><path d="M1872.5 1643.5 2344.5 1643.5M1872.5 1466.55 2344.5 1466.55M1872.5 1290.54 2344.5 1290.54M1872.5 1114.54 2344.5 1114.54M1872.5 938.531 2344.5 938.531M1872.5 761.5 2344.5 761.5" stroke="#D9D9D9" stroke-width="3.4375" stroke-linejoin="round" stroke-miterlimit="10" fill="none"/></g><g clip-path="url(#clip10)"><rect x="1911.5" y="934.5" width="79.0001" height="709" stroke="#FF0000" stroke-width="3.4375" stroke-linejoin="round" stroke-miterlimit="10" fill="#FF0000"/></g><g clip-path="url(#clip11)"><rect x="2068.5" y="1467.5" width="79" height="176" stroke="#0070C0" stroke-width="3.4375" stroke-linejoin="round" stroke-miterlimit="10" fill="#4472C4"/></g><g clip-path="url(#clip12)"><rect x="2226.5" y="1488.5" width="78" height="155" stroke="#006600" stroke-width="3.4375" stroke-linejoin="round" stroke-miterlimit="10" fill="#006600"/></g><path d="M922.821 596.705 974.821 596.705 974.821 648.705 922.821 648.705Z" stroke="#FF0000" stroke-width="8.47303" stroke-linejoin="round" stroke-miterlimit="10" fill="#FF0000" fill-rule="evenodd"/><path d="M1220.6 616.511 1234.23 616.511 1234.23 642.551C1234.23 646.176 1234.86 648.555 1236.12 649.688 1237.38 650.821 1238.91 651.387 1240.69 651.387 1241.91 651.387 1243.29 651.005 1244.83 650.24 1246.38 649.476 1248.21 648.017 1250.33 645.865L1250.33 623.818C1250.33 621.609 1249.93 620.115 1249.12 619.336 1248.32 618.557 1246.64 618.139 1244.09 618.083L1244.09 616.511 1257.34 616.511 1257.34 640.088C1257.34 644.59 1257.45 647.345 1257.66 648.35 1257.87 649.355 1258.21 650.056 1258.68 650.453 1259.15 650.849 1259.69 651.047 1260.32 651.047 1261.19 651.047 1262.19 650.807 1263.29 650.325L1263.88 651.812 1252.24 656.612 1250.33 656.612 1250.33 648.371C1246.99 651.996 1244.44 654.276 1242.69 655.211 1240.93 656.145 1239.08 656.612 1237.12 656.612 1234.94 656.612 1233.05 655.982 1231.45 654.722 1229.85 653.462 1228.74 651.84 1228.12 649.858 1227.49 647.876 1227.18 645.072 1227.18 641.447L1227.18 624.072C1227.18 622.232 1226.98 620.957 1226.59 620.249 1226.19 619.541 1225.6 618.996 1224.82 618.614 1224.04 618.231 1222.64 618.054 1220.6 618.083ZM1022.36 609.714 1012.33 632.993 1032.13 632.993ZM1139.07 601.048C1137.42 601.048 1135.2 601.317 1132.4 601.855L1132.4 625.814C1132.93 625.814 1133.4 625.821 1133.8 625.835 1134.19 625.849 1134.52 625.857 1134.78 625.857 1140.27 625.857 1144.41 624.667 1147.2 622.288 1149.99 619.909 1151.39 616.879 1151.39 613.197 1151.39 609.601 1150.26 606.677 1148.01 604.425 1145.76 602.174 1142.78 601.048 1139.07 601.048ZM1081.07 601.048C1079.42 601.048 1077.2 601.317 1074.4 601.855L1074.4 625.814C1074.93 625.814 1075.4 625.821 1075.8 625.835 1076.19 625.849 1076.52 625.857 1076.78 625.857 1082.27 625.857 1086.41 624.667 1089.2 622.288 1091.99 619.909 1093.39 616.879 1093.39 613.197 1093.39 609.601 1092.26 606.677 1090.01 604.425 1087.76 602.174 1084.78 601.048 1081.07 601.048ZM1173.91 597.819 1216.78 597.819 1217.33 610.479 1215.84 610.479C1215.11 607.788 1214.25 605.813 1213.27 604.553 1212.29 603.292 1211.09 602.379 1209.66 601.813 1208.23 601.246 1206.01 600.963 1203.01 600.963L1190.31 600.963 1190.31 623.605 1200.8 623.605C1203.21 623.605 1204.97 623.074 1206.09 622.012 1207.21 620.95 1207.95 618.847 1208.32 615.704L1209.89 615.704 1209.89 635.202 1208.32 635.202C1208.29 632.965 1208 631.322 1207.45 630.275 1206.9 629.227 1206.14 628.441 1205.16 627.917 1204.18 627.393 1202.73 627.131 1200.8 627.131L1190.31 627.131 1190.31 645.228C1190.31 648.145 1190.5 650.07 1190.86 651.005 1191.15 651.713 1191.74 652.322 1192.65 652.832 1193.89 653.511 1195.2 653.851 1196.56 653.851L1198.64 653.851 1198.64 655.423 1173.91 655.423 1173.91 653.851 1175.95 653.851C1178.33 653.851 1180.06 653.157 1181.14 651.77 1181.82 650.863 1182.16 648.683 1182.16 645.228L1182.16 608.015C1182.16 605.098 1181.97 603.172 1181.6 602.237 1181.32 601.529 1180.74 600.921 1179.86 600.411 1178.64 599.731 1177.34 599.391 1175.95 599.391L1173.91 599.391ZM1116 597.819 1136.98 597.819C1143.1 597.819 1147.61 598.266 1150.51 599.158 1153.42 600.05 1155.88 601.692 1157.91 604.085 1159.93 606.478 1160.94 609.332 1160.94 612.645 1160.94 616.185 1159.79 619.258 1157.48 621.863 1155.17 624.469 1151.6 626.31 1146.75 627.386L1158.65 643.911C1161.37 647.706 1163.7 650.226 1165.66 651.472 1167.61 652.718 1170.16 653.511 1173.3 653.851L1173.3 655.423 1157.93 655.423 1138.43 628.49C1136.98 628.547 1135.81 628.575 1134.9 628.575 1134.53 628.575 1134.14 628.568 1133.71 628.554 1133.29 628.54 1132.85 628.519 1132.4 628.49L1132.4 645.228C1132.4 648.853 1132.79 651.104 1133.59 651.982 1134.66 653.228 1136.28 653.851 1138.43 653.851L1140.68 653.851 1140.68 655.423 1116 655.423 1116 653.851 1118.17 653.851C1120.6 653.851 1122.34 653.058 1123.39 651.472 1123.99 650.594 1124.28 648.513 1124.28 645.228L1124.28 608.015C1124.28 604.39 1123.89 602.138 1123.09 601.26 1121.99 600.014 1120.35 599.391 1118.17 599.391L1116 599.391ZM1058 597.819 1078.98 597.819C1085.1 597.819 1089.61 598.266 1092.51 599.158 1095.42 600.05 1097.88 601.692 1099.91 604.085 1101.93 606.478 1102.94 609.332 1102.94 612.645 1102.94 616.185 1101.79 619.258 1099.48 621.863 1097.17 624.469 1093.6 626.31 1088.75 627.386L1100.65 643.911C1103.37 647.706 1105.7 650.226 1107.66 651.472 1109.61 652.718 1112.16 653.511 1115.3 653.851L1115.3 655.423 1099.93 655.423 1080.43 628.49C1078.98 628.547 1077.81 628.575 1076.9 628.575 1076.53 628.575 1076.14 628.568 1075.71 628.554 1075.29 628.54 1074.85 628.519 1074.4 628.49L1074.4 645.228C1074.4 648.853 1074.79 651.104 1075.59 651.982 1076.66 653.228 1078.28 653.851 1080.43 653.851L1082.68 653.851 1082.68 655.423 1058 655.423 1058 653.851 1060.17 653.851C1062.6 653.851 1064.34 653.058 1065.39 651.472 1065.99 650.594 1066.28 648.513 1066.28 645.228L1066.28 608.015C1066.28 604.39 1065.89 602.138 1065.09 601.26 1063.99 600.014 1062.35 599.391 1060.17 599.391L1058 599.391ZM1023.93 596.503 1025.41 596.503 1045.47 644.421C1047.08 648.272 1048.55 650.771 1049.86 651.918 1051.18 653.065 1053.01 653.71 1055.36 653.851L1055.36 655.423 1032.64 655.423 1032.64 653.851C1034.93 653.738 1036.48 653.356 1037.29 652.704 1038.1 652.053 1038.5 651.26 1038.5 650.325 1038.5 649.079 1037.93 647.111 1036.8 644.421L1033.32 636.137 1011.01 636.137 1007.11 645.228C1006.14 647.465 1005.66 649.136 1005.66 650.24 1005.66 651.118 1006.08 651.89 1006.91 652.556 1007.75 653.221 1009.56 653.653 1012.33 653.851L1012.33 655.423 994.192 655.423 994.192 653.851C996.599 653.426 998.156 652.874 998.865 652.194 1000.31 650.835 1001.91 648.074 1003.66 643.911ZM1302.7 595.016 1304.61 595.016 1304.61 646.63C1304.61 649.065 1304.79 650.679 1305.14 651.472 1305.5 652.265 1306.04 652.867 1306.78 653.278 1307.51 653.688 1308.89 653.894 1310.9 653.894L1310.9 655.423 1291.83 655.423 1291.83 653.894C1293.61 653.894 1294.83 653.71 1295.48 653.341 1296.13 652.973 1296.64 652.364 1297.01 651.515 1297.38 650.665 1297.56 649.037 1297.56 646.63L1297.56 611.286C1297.56 606.896 1297.46 604.199 1297.26 603.193 1297.06 602.188 1296.75 601.501 1296.31 601.133 1295.87 600.765 1295.31 600.581 1294.63 600.581 1293.89 600.581 1292.96 600.807 1291.83 601.26L1291.1 599.774ZM1278.7 595.016 1280.61 595.016 1280.61 646.63C1280.61 649.065 1280.79 650.679 1281.14 651.472 1281.5 652.265 1282.04 652.867 1282.78 653.278 1283.51 653.688 1284.89 653.894 1286.9 653.894L1286.9 655.423 1267.83 655.423 1267.83 653.894C1269.61 653.894 1270.83 653.71 1271.48 653.341 1272.13 652.973 1272.64 652.364 1273.01 651.515 1273.38 650.665 1273.56 649.037 1273.56 646.63L1273.56 611.286C1273.56 606.896 1273.46 604.199 1273.26 603.193 1273.06 602.188 1272.75 601.501 1272.31 601.133 1271.87 600.765 1271.31 600.581 1270.63 600.581 1269.89 600.581 1268.96 600.807 1267.83 601.26L1267.1 599.774Z" fill-rule="evenodd"/><text fill="#000000" fill-opacity="0" font-family="Arial,Arial_MSFontService,sans-serif" font-size="61.5967" x="994.192" y="648.913">ARRFull</text><path d="M1336.16 601.133C1334.23 601.133 1332.41 601.19 1330.68 601.303L1330.68 651.472C1331.81 651.586 1333.48 651.642 1335.69 651.642 1338.07 651.642 1340.2 651.444 1342.07 651.047 1343.93 650.651 1345.63 650.028 1347.16 649.178 1348.69 648.329 1350.07 647.146 1351.28 645.631 1352.5 644.116 1353.49 642.374 1354.26 640.406 1355.02 638.438 1355.58 636.25 1355.94 633.843 1356.29 631.436 1356.47 628.802 1356.47 625.942 1356.47 620.193 1355.64 615.47 1353.98 611.774 1352.32 608.078 1349.99 605.381 1346.97 603.682 1343.96 601.983 1340.35 601.133 1336.16 601.133ZM1375.77 597.437 1393.65 597.437 1393.65 599.519C1392.4 599.859 1391.52 600.163 1391 600.432 1390.47 600.701 1390.04 601.062 1389.7 601.515 1389.36 601.968 1389.11 602.662 1388.94 603.597 1388.77 604.531 1388.68 606.018 1388.68 608.057L1388.68 651.515 1399.81 651.515C1401.03 651.515 1402.05 651.444 1402.87 651.302 1403.69 651.161 1404.39 650.941 1404.97 650.644 1405.55 650.347 1406.08 649.936 1406.54 649.412 1407.01 648.888 1407.46 648.201 1407.88 647.352 1408.31 646.502 1408.71 645.433 1409.09 644.144 1409.47 642.856 1409.95 640.923 1410.52 638.346L1414.81 638.346 1413.96 655.423 1375.77 655.423 1375.77 653.341C1377.52 652.888 1378.7 652.386 1379.29 651.833 1379.89 651.281 1380.28 650.495 1380.46 649.476 1380.64 648.456 1380.74 646.899 1380.74 644.803L1380.74 608.057C1380.74 606.103 1380.67 604.68 1380.52 603.788 1380.38 602.896 1380.15 602.202 1379.82 601.706 1379.5 601.211 1379.07 600.814 1378.53 600.517 1377.99 600.22 1377.07 599.887 1375.77 599.519ZM1317.72 597.437 1336.33 597.437C1341.68 597.437 1346.07 598.025 1349.48 599.2 1352.89 600.375 1355.77 602.11 1358.12 604.404 1360.47 606.698 1362.23 609.551 1363.39 612.964 1364.55 616.376 1365.13 620.447 1365.13 625.177 1365.13 629.963 1364.59 634.176 1363.5 637.815 1362.41 641.454 1360.81 644.505 1358.72 646.969 1356.91 649.122 1354.68 650.892 1352.05 652.279 1349.87 653.412 1347.35 654.219 1344.49 654.701 1341.63 655.182 1337.83 655.423 1333.1 655.423L1317.72 655.423 1317.72 653.341C1319.03 653.002 1319.96 652.676 1320.53 652.364 1321.09 652.053 1321.53 651.656 1321.84 651.175 1322.16 650.693 1322.38 650 1322.52 649.093 1322.67 648.187 1322.74 646.757 1322.74 644.803L1322.74 608.057C1322.74 606.075 1322.67 604.638 1322.52 603.745 1322.38 602.853 1322.15 602.167 1321.82 601.685 1321.5 601.204 1321.07 600.814 1320.53 600.517 1319.99 600.22 1319.06 599.887 1317.72 599.519Z" fill-rule="evenodd"/><text fill="#000000" fill-opacity="0" font-family="Arial,Arial_MSFontService,sans-serif" font-size="57.9858" x="1317.72" y="648.175">DL</text><path d="M1436.5 636.956 1424.6 668.206 1446.35 668.206ZM1435.41 630.05 1440.03 630.05 1453.22 671.206 1453.22 673.206 1419.06 673.206 1419.06 671.206Z" fill-rule="evenodd"/><text fill="#000000" fill-opacity="0" font-family="Arial,Arial_MSFontService,sans-serif" font-size="43.1562" x="1419.06" y="667.812">∆</text><path d="M1511.16 594.039 1512.3 597.31C1505.68 599.49 1500.77 603.745 1497.58 610.075 1494.4 616.405 1492.81 624.356 1492.81 633.928 1492.81 643.84 1494.4 652.01 1497.58 658.439 1500.77 664.868 1505.63 669.172 1512.18 671.353L1511.16 674.624C1502.86 672.443 1496.5 667.749 1492.08 660.542 1487.67 653.334 1485.46 644.605 1485.46 634.353 1485.46 624.129 1487.67 615.399 1492.1 608.163 1496.54 600.928 1502.89 596.219 1511.16 594.039Z" fill-rule="evenodd"/><text fill="#000000" fill-opacity="0" font-family="Arial,Arial_MSFontService,sans-serif" font-size="80.5854" x="1485.46" y="664.551">(</text><path d="M1537.44 601.133C1535.51 601.133 1533.69 601.19 1531.96 601.303L1531.96 651.472C1533.09 651.586 1534.76 651.642 1536.97 651.642 1539.35 651.642 1541.47 651.444 1543.34 651.047 1545.21 650.651 1546.91 650.028 1548.44 649.178 1549.97 648.329 1551.34 647.146 1552.56 645.631 1553.78 644.116 1554.77 642.374 1555.53 640.406 1556.3 638.438 1556.86 636.25 1557.21 633.843 1557.57 631.436 1557.74 628.802 1557.74 625.942 1557.74 620.193 1556.92 615.47 1555.26 611.774 1553.6 608.078 1551.27 605.381 1548.25 603.682 1545.23 601.983 1541.63 601.133 1537.44 601.133ZM1519 597.437 1537.61 597.437C1542.96 597.437 1547.34 598.025 1550.76 599.2 1554.17 600.375 1557.05 602.11 1559.4 604.404 1561.75 606.698 1563.51 609.551 1564.67 612.964 1565.83 616.376 1566.41 620.447 1566.41 625.177 1566.41 629.963 1565.86 634.176 1564.77 637.815 1563.68 641.454 1562.09 644.505 1559.99 646.969 1558.18 649.122 1555.96 650.892 1553.33 652.279 1551.14 653.412 1548.62 654.219 1545.76 654.701 1542.9 655.182 1539.11 655.423 1534.38 655.423L1519 655.423 1519 653.341C1520.3 653.002 1521.24 652.676 1521.8 652.364 1522.37 652.053 1522.81 651.656 1523.12 651.175 1523.43 650.693 1523.66 650 1523.8 649.093 1523.94 648.187 1524.01 646.757 1524.01 644.803L1524.01 608.057C1524.01 606.075 1523.94 604.638 1523.8 603.745 1523.66 602.853 1523.43 602.167 1523.1 601.685 1522.77 601.204 1522.34 600.814 1521.8 600.517 1521.27 600.22 1520.33 599.887 1519 599.519ZM1601.55 596.757C1604.13 596.757 1606.51 596.892 1608.69 597.161 1610.87 597.43 1613.36 597.933 1616.17 598.669L1616.17 610.436 1611.96 610.436C1611.28 607.972 1610.42 606.011 1609.37 604.553 1608.32 603.094 1607.11 602.053 1605.72 601.43 1604.33 600.807 1602.66 600.496 1600.71 600.496 1597.79 600.496 1595.19 601.466 1592.91 603.406 1590.63 605.346 1588.84 608.263 1587.54 612.157 1586.23 616.051 1585.58 620.759 1585.58 626.281 1585.58 631.832 1586.12 636.569 1587.2 640.491 1588.27 644.413 1589.86 647.373 1591.95 649.37 1594.05 651.366 1596.63 652.364 1599.69 652.364 1602.01 652.364 1603.91 652.032 1605.38 651.366 1606.85 650.701 1608.09 649.646 1609.1 648.201 1610.1 646.757 1611.06 644.633 1611.96 641.829L1616.17 641.829 1616.17 653.979C1613.51 654.687 1610.78 655.218 1607.99 655.572 1605.2 655.926 1602.14 656.103 1598.79 656.103 1591.6 656.103 1586.16 653.667 1582.48 648.796 1578.8 643.925 1576.96 636.661 1576.96 627.004 1576.96 620.943 1577.91 615.633 1579.83 611.073 1581.74 606.514 1584.55 602.988 1588.26 600.496 1591.97 598.004 1596.4 596.757 1601.55 596.757Z" fill-rule="evenodd"/><text fill="#000000" fill-opacity="0" font-family="Arial,Arial_MSFontService,sans-serif" font-size="59.3452" x="1519" y="648.685">DC</text><path d="M1623.8 594.039C1632.07 596.219 1638.42 600.928 1642.85 608.163 1647.28 615.399 1649.5 624.129 1649.5 634.353 1649.5 644.605 1647.29 653.334 1642.87 660.542 1638.46 667.749 1632.1 672.443 1623.8 674.624L1622.78 671.353C1629.32 669.172 1634.19 664.868 1637.37 658.439 1640.56 652.01 1642.15 643.84 1642.15 633.928 1642.15 624.356 1640.57 616.405 1637.39 610.075 1634.22 603.745 1629.31 599.49 1622.65 597.31Z" fill-rule="evenodd"/><text fill="#000000" fill-opacity="0" font-family="Arial,Arial_MSFontService,sans-serif" font-size="80.5854" x="1622.65" y="664.551">)</text><path d="M1714.82 596.708 1766.82 596.708 1766.82 645.708 1714.82 645.708Z" stroke="#0070C0" stroke-width="8.47303" stroke-linejoin="round" stroke-miterlimit="10" fill="#4472C4" fill-rule="evenodd"/><path d="M2102.47 615.069C2100.11 615.069 2098.01 615.983 2096.16 617.809 2094.3 619.636 2093.22 622.178 2092.91 625.435L2110.92 625.435C2110.78 622.942 2110.48 621.186 2110.03 620.167 2109.32 618.581 2108.26 617.335 2106.86 616.429 2105.46 615.522 2103.99 615.069 2102.47 615.069ZM2206.08 614.857C2204.58 614.857 2203.07 615.303 2201.56 616.195 2200.04 617.087 2198.82 618.652 2197.88 620.889 2196.95 623.126 2196.48 626.001 2196.48 629.513 2196.48 635.177 2197.6 640.062 2199.86 644.168 2202.11 648.275 2205.07 650.328 2208.76 650.328 2211.5 650.328 2213.77 649.195 2215.55 646.93 2217.34 644.664 2218.23 640.77 2218.23 635.247 2218.23 628.337 2216.74 622.9 2213.77 618.935 2211.76 616.216 2209.2 614.857 2206.08 614.857ZM2287.16 613.243 2305.3 613.243 2305.3 614.814 2304.4 614.814C2303.13 614.814 2302.17 615.091 2301.54 615.643 2300.9 616.195 2300.58 616.882 2300.58 617.703 2300.58 618.808 2301.05 620.337 2301.98 622.291L2311.46 641.917 2320.16 620.422C2320.65 619.261 2320.89 618.114 2320.89 616.981 2320.89 616.471 2320.79 616.089 2320.59 615.834 2320.36 615.522 2320.01 615.275 2319.53 615.091 2319.05 614.906 2318.2 614.814 2316.98 614.814L2316.98 613.243 2329.64 613.243 2329.64 614.814C2328.59 614.928 2327.78 615.154 2327.22 615.494 2326.65 615.834 2326.03 616.471 2325.35 617.406 2325.09 617.802 2324.61 618.893 2323.9 620.677L2308.06 659.504C2306.53 663.27 2304.52 666.117 2302.05 668.042 2299.57 669.968 2297.18 670.931 2294.89 670.931 2293.22 670.931 2291.84 670.45 2290.77 669.487 2289.69 668.524 2289.15 667.419 2289.15 666.173 2289.15 664.984 2289.54 664.028 2290.32 663.306 2291.1 662.584 2292.17 662.223 2293.53 662.223 2294.46 662.223 2295.74 662.534 2297.35 663.157 2298.48 663.582 2299.19 663.794 2299.48 663.794 2300.33 663.794 2301.25 663.355 2302.26 662.477 2303.26 661.6 2304.28 659.9 2305.3 657.38L2308.06 650.625 2294.08 621.271C2293.66 620.393 2292.98 619.303 2292.04 618 2291.33 617.009 2290.75 616.344 2290.3 616.004 2289.65 615.551 2288.6 615.154 2287.16 614.814ZM2268.7 612.096C2270.23 612.096 2272.09 612.421 2274.27 613.073 2275.71 613.497 2276.68 613.71 2277.16 613.71 2277.61 613.71 2277.97 613.611 2278.22 613.413 2278.47 613.214 2278.77 612.775 2279.11 612.096L2280.51 612.096 2280.51 625.35 2279.11 625.35C2278.04 621.186 2276.66 618.354 2274.97 616.853 2273.29 615.352 2271.14 614.602 2268.53 614.602 2266.55 614.602 2264.95 615.126 2263.73 616.174 2262.52 617.222 2261.91 618.383 2261.91 619.657 2261.91 621.243 2262.36 622.602 2263.27 623.735 2264.14 624.896 2265.93 626.128 2268.62 627.431L2274.82 630.447C2280.57 633.251 2283.45 636.947 2283.45 641.535 2283.45 645.075 2282.11 647.928 2279.43 650.094 2276.75 652.261 2273.76 653.344 2270.45 653.344 2268.07 653.344 2265.35 652.919 2262.29 652.07 2261.36 651.787 2260.59 651.645 2260 651.645 2259.34 651.645 2258.83 652.013 2258.47 652.749L2257.06 652.749 2257.06 638.858 2258.47 638.858C2259.26 642.823 2260.77 645.811 2263.01 647.822 2265.25 649.832 2267.76 650.838 2270.53 650.838 2272.49 650.838 2274.08 650.264 2275.31 649.117 2276.54 647.97 2277.16 646.59 2277.16 644.976 2277.16 643.021 2276.47 641.379 2275.1 640.048 2273.72 638.717 2270.98 637.032 2266.88 634.993 2262.77 632.954 2260.08 631.113 2258.81 629.47 2257.53 627.856 2256.89 625.817 2256.89 623.353 2256.89 620.153 2257.99 617.477 2260.19 615.324 2262.38 613.172 2265.22 612.096 2268.7 612.096ZM2242.92 612.096 2244.79 612.096 2244.79 643.361C2244.79 645.797 2244.97 647.418 2245.32 648.225 2245.67 649.032 2246.2 649.634 2246.89 650.031 2247.59 650.427 2248.85 650.625 2250.69 650.625L2250.69 652.155 2231.79 652.155 2231.79 650.625C2233.69 650.625 2234.96 650.441 2235.61 650.073 2236.26 649.705 2236.78 649.096 2237.16 648.247 2237.55 647.397 2237.74 645.768 2237.74 643.361L2237.74 628.366C2237.74 624.146 2237.61 621.413 2237.36 620.167 2237.16 619.261 2236.85 618.631 2236.42 618.277 2236 617.923 2235.42 617.746 2234.68 617.746 2233.89 617.746 2232.92 617.958 2231.79 618.383L2231.2 616.853ZM2207.4 612.096C2213.29 612.096 2218.02 614.333 2221.59 618.808 2224.62 622.631 2226.13 627.02 2226.13 631.977 2226.13 635.46 2225.3 638.986 2223.62 642.554 2221.95 646.122 2219.65 648.813 2216.72 650.625 2213.79 652.438 2210.53 653.344 2206.93 653.344 2201.07 653.344 2196.41 651.008 2192.95 646.335 2190.04 642.398 2188.58 637.98 2188.58 633.081 2188.58 629.513 2189.46 625.966 2191.23 622.44 2193 618.914 2195.33 616.308 2198.22 614.623 2201.11 612.938 2204.17 612.096 2207.4 612.096ZM2052.88 612.096 2054.71 612.096 2054.71 620.337C2059.27 614.843 2063.61 612.096 2067.75 612.096 2069.87 612.096 2071.7 612.627 2073.23 613.689 2074.76 614.751 2075.98 616.499 2076.88 618.935 2077.51 620.634 2077.82 623.24 2077.82 626.751L2077.82 643.361C2077.82 645.825 2078.02 647.496 2078.41 648.374 2078.72 649.082 2079.23 649.634 2079.92 650.031 2080.61 650.427 2081.9 650.625 2083.76 650.625L2083.76 652.155 2064.52 652.155 2064.52 650.625 2065.33 650.625C2067.14 650.625 2068.41 650.349 2069.13 649.797 2069.85 649.245 2070.35 648.431 2070.64 647.354 2070.75 646.93 2070.81 645.599 2070.81 643.361L2070.81 627.431C2070.81 623.891 2070.35 621.321 2069.43 619.721 2068.51 618.121 2066.96 617.321 2064.78 617.321 2061.41 617.321 2058.05 619.162 2054.71 622.843L2054.71 643.361C2054.71 645.995 2054.86 647.623 2055.18 648.247 2055.57 649.068 2056.12 649.67 2056.81 650.052 2057.5 650.434 2058.91 650.625 2061.04 650.625L2061.04 652.155 2041.79 652.155 2041.79 650.625 2042.64 650.625C2044.63 650.625 2045.96 650.123 2046.66 649.117 2047.35 648.112 2047.7 646.193 2047.7 643.361L2047.7 628.918C2047.7 624.245 2047.59 621.399 2047.38 620.379 2047.17 619.36 2046.84 618.666 2046.4 618.298 2045.96 617.93 2045.38 617.746 2044.64 617.746 2043.85 617.746 2042.9 617.958 2041.79 618.383L2041.16 616.853ZM2104.84 612.053C2109.21 612.053 2112.79 613.49 2115.59 616.365 2118.4 619.239 2119.8 623.084 2119.8 627.898L2092.91 627.898C2092.88 633.676 2094.28 638.207 2097.11 641.492 2099.95 644.777 2103.27 646.42 2107.1 646.42 2109.64 646.42 2111.86 645.719 2113.74 644.317 2115.63 642.915 2117.21 640.515 2118.48 637.117L2119.8 637.966C2119.2 641.846 2117.48 645.379 2114.61 648.565 2111.75 651.751 2108.17 653.344 2103.87 653.344 2099.19 653.344 2095.19 651.525 2091.87 647.885 2088.54 644.246 2086.88 639.354 2086.88 633.208 2086.88 626.553 2088.58 621.363 2091.99 617.639 2095.41 613.915 2099.69 612.053 2104.84 612.053ZM1827.49 606.446 1817.47 629.725 1837.26 629.725ZM1944.2 597.78C1942.56 597.78 1940.33 598.049 1937.53 598.587L1937.53 622.546C1938.07 622.546 1938.54 622.553 1938.93 622.567 1939.33 622.581 1939.66 622.588 1939.91 622.588 1945.4 622.588 1949.55 621.399 1952.34 619.02 1955.12 616.641 1956.52 613.611 1956.52 609.929 1956.52 606.332 1955.39 603.408 1953.14 601.157 1950.89 598.905 1947.91 597.78 1944.2 597.78ZM1886.2 597.78C1884.56 597.78 1882.33 598.049 1879.53 598.587L1879.53 622.546C1880.07 622.546 1880.54 622.553 1880.93 622.567 1881.33 622.581 1881.66 622.588 1881.91 622.588 1887.4 622.588 1891.55 621.399 1894.34 619.02 1897.12 616.641 1898.52 613.611 1898.52 609.929 1898.52 606.332 1897.39 603.408 1895.14 601.157 1892.89 598.905 1889.91 597.78 1886.2 597.78ZM2008.66 596.335C2003.5 596.335 1999.37 598.247 1996.25 602.07 1992.37 606.828 1990.43 613.795 1990.43 622.971 1990.43 632.373 1992.44 639.609 1996.47 644.678 1999.55 648.53 2003.63 650.456 2008.7 650.456 2014.11 650.456 2018.58 648.346 2022.1 644.126 2025.63 639.906 2027.39 633.251 2027.39 624.16 2027.39 614.305 2025.45 606.956 2021.57 602.113 2018.46 598.261 2014.15 596.335 2008.66 596.335ZM2121.5 594.551 2137.13 594.551 2172.35 637.754 2172.35 604.534C2172.35 600.994 2171.95 598.785 2171.16 597.907 2170.11 596.718 2168.45 596.123 2166.19 596.123L2164.19 596.123 2164.19 594.551 2184.24 594.551 2184.24 596.123 2182.2 596.123C2179.77 596.123 2178.04 596.859 2177.02 598.332 2176.4 599.238 2176.09 601.306 2176.09 604.534L2176.09 653.089 2174.56 653.089 2136.58 606.701 2136.58 642.172C2136.58 645.712 2136.96 647.921 2137.73 648.799 2138.8 649.988 2140.46 650.583 2142.7 650.583L2144.74 650.583 2144.74 652.155 2124.69 652.155 2124.69 650.583 2126.68 650.583C2129.15 650.583 2130.89 649.847 2131.91 648.374 2132.53 647.468 2132.84 645.4 2132.84 642.172L2132.84 602.113C2131.17 600.159 2129.9 598.87 2129.04 598.247 2128.18 597.624 2126.91 597.043 2125.24 596.505 2124.42 596.25 2123.17 596.123 2121.5 596.123ZM1921.13 594.551 1942.12 594.551C1948.24 594.551 1952.75 594.997 1955.65 595.889 1958.55 596.781 1961.02 598.424 1963.04 600.817 1965.07 603.21 1966.08 606.063 1966.08 609.377 1966.08 612.917 1964.92 615.99 1962.62 618.595 1960.31 621.201 1956.73 623.041 1951.89 624.118L1963.78 640.643C1966.5 644.437 1968.84 646.958 1970.79 648.204 1972.75 649.45 1975.3 650.243 1978.44 650.583L1978.44 652.155 1963.06 652.155 1943.56 625.222C1942.12 625.279 1940.94 625.307 1940.04 625.307 1939.67 625.307 1939.27 625.3 1938.85 625.286 1938.42 625.272 1937.98 625.25 1937.53 625.222L1937.53 641.959C1937.53 645.584 1937.93 647.836 1938.72 648.714 1939.8 649.96 1941.41 650.583 1943.56 650.583L1945.81 650.583 1945.81 652.155 1921.13 652.155 1921.13 650.583 1923.3 650.583C1925.74 650.583 1927.48 649.79 1928.53 648.204 1929.12 647.326 1929.42 645.245 1929.42 641.959L1929.42 604.747C1929.42 601.122 1929.02 598.87 1928.23 597.992 1927.12 596.746 1925.48 596.123 1923.3 596.123L1921.13 596.123ZM1863.13 594.551 1884.12 594.551C1890.24 594.551 1894.75 594.997 1897.65 595.889 1900.55 596.781 1903.02 598.424 1905.04 600.817 1907.07 603.21 1908.08 606.063 1908.08 609.377 1908.08 612.917 1906.92 615.99 1904.62 618.595 1902.31 621.201 1898.73 623.041 1893.89 624.118L1905.78 640.643C1908.5 644.437 1910.84 646.958 1912.79 648.204 1914.75 649.45 1917.3 650.243 1920.44 650.583L1920.44 652.155 1905.06 652.155 1885.56 625.222C1884.12 625.279 1882.94 625.307 1882.04 625.307 1881.67 625.307 1881.27 625.3 1880.85 625.286 1880.42 625.272 1879.98 625.25 1879.53 625.222L1879.53 641.959C1879.53 645.584 1879.93 647.836 1880.72 648.714 1881.8 649.96 1883.41 650.583 1885.56 650.583L1887.81 650.583 1887.81 652.155 1863.13 652.155 1863.13 650.583 1865.3 650.583C1867.74 650.583 1869.48 649.79 1870.53 648.204 1871.12 647.326 1871.42 645.245 1871.42 641.959L1871.42 604.747C1871.42 601.122 1871.02 598.87 1870.23 597.992 1869.12 596.746 1867.48 596.123 1865.3 596.123L1863.13 596.123ZM2009.46 593.234C2016.94 593.234 2023.42 596.073 2028.9 601.752 2034.38 607.43 2037.12 614.517 2037.12 623.013 2037.12 631.764 2034.36 639.028 2028.84 644.806 2023.31 650.583 2016.63 653.472 2008.78 653.472 2000.86 653.472 1994.19 650.654 1988.8 645.018 1983.4 639.382 1980.71 632.09 1980.71 623.141 1980.71 613.993 1983.82 606.531 1990.05 600.753 1995.46 595.741 2001.93 593.234 2009.46 593.234ZM1829.06 593.234 1830.55 593.234 1850.6 641.152C1852.21 645.004 1853.68 647.503 1855 648.65 1856.31 649.797 1858.15 650.441 1860.5 650.583L1860.5 652.155 1837.77 652.155 1837.77 650.583C1840.07 650.47 1841.62 650.087 1842.42 649.436 1843.23 648.785 1843.63 647.992 1843.63 647.057 1843.63 645.811 1843.07 643.843 1841.93 641.152L1838.45 632.869 1816.15 632.869 1812.24 641.959C1811.28 644.197 1810.8 645.868 1810.8 646.972 1810.8 647.85 1811.21 648.622 1812.05 649.287 1812.88 649.953 1814.69 650.385 1817.47 650.583L1817.47 652.155 1799.33 652.155 1799.33 650.583C1801.73 650.158 1803.29 649.606 1804 648.926 1805.44 647.567 1807.04 644.806 1808.8 640.643ZM2241.26 591.747C2242.45 591.747 2243.47 592.165 2244.3 593.001 2245.14 593.836 2245.55 594.849 2245.55 596.038 2245.55 597.227 2245.14 598.247 2244.3 599.097 2243.47 599.946 2242.45 600.371 2241.26 600.371 2240.07 600.371 2239.05 599.946 2238.2 599.097 2237.36 598.247 2236.93 597.227 2236.93 596.038 2236.93 594.849 2237.35 593.836 2238.18 593.001 2239.02 592.165 2240.05 591.747 2241.26 591.747Z" fill-rule="evenodd"/><text fill="#000000" fill-opacity="0" font-family="Arial,Arial_MSFontService,sans-serif" font-size="79.1836" x="1799.33" y="661.033">ARROneNoisy</text><path d="M2353.85 597.865C2351.92 597.865 2350.1 597.921 2348.37 598.035L2348.37 648.204C2349.5 648.317 2351.17 648.374 2353.38 648.374 2355.76 648.374 2357.88 648.176 2359.75 647.779 2361.62 647.383 2363.32 646.76 2364.85 645.91 2366.38 645.06 2367.75 643.878 2368.97 642.363 2370.19 640.848 2371.18 639.106 2371.94 637.138 2372.71 635.17 2373.27 632.982 2373.62 630.575 2373.98 628.167 2374.15 625.534 2374.15 622.673 2374.15 616.924 2373.32 612.202 2371.67 608.506 2370.01 604.81 2367.68 602.113 2364.66 600.414 2361.64 598.714 2358.04 597.865 2353.85 597.865ZM2393.45 594.169 2411.34 594.169 2411.34 596.25C2410.09 596.59 2409.21 596.895 2408.68 597.164 2408.16 597.433 2407.73 597.794 2407.39 598.247 2407.05 598.7 2406.79 599.394 2406.62 600.329 2406.45 601.263 2406.37 602.75 2406.37 604.789L2406.37 648.247 2417.5 648.247C2418.72 648.247 2419.73 648.176 2420.56 648.034 2421.38 647.893 2422.08 647.673 2422.66 647.376 2423.24 647.078 2423.76 646.668 2424.23 646.144 2424.7 645.62 2425.14 644.933 2425.57 644.083 2425.99 643.234 2426.4 642.165 2426.78 640.876 2427.16 639.588 2427.64 637.655 2428.2 635.078L2432.49 635.078 2431.64 652.155 2393.45 652.155 2393.45 650.073C2395.21 649.62 2396.38 649.117 2396.98 648.565 2397.57 648.013 2397.96 647.227 2398.15 646.207 2398.33 645.188 2398.42 643.63 2398.42 641.535L2398.42 604.789C2398.42 602.835 2398.35 601.412 2398.21 600.52 2398.07 599.628 2397.84 598.934 2397.51 598.438 2397.18 597.943 2396.75 597.546 2396.21 597.249 2395.68 596.951 2394.76 596.619 2393.45 596.25ZM2335.41 594.169 2354.02 594.169C2359.37 594.169 2363.75 594.757 2367.17 595.932 2370.58 597.107 2373.46 598.842 2375.81 601.136 2378.16 603.43 2379.92 606.283 2381.08 609.695 2382.24 613.108 2382.82 617.179 2382.82 621.909 2382.82 626.695 2382.27 630.907 2381.18 634.547 2380.09 638.186 2378.5 641.237 2376.4 643.701 2374.59 645.853 2372.37 647.623 2369.74 649.011 2367.55 650.144 2365.03 650.951 2362.17 651.433 2359.31 651.914 2355.52 652.155 2350.79 652.155L2335.41 652.155 2335.41 650.073C2336.71 649.733 2337.65 649.408 2338.21 649.096 2338.78 648.785 2339.22 648.388 2339.53 647.907 2339.84 647.425 2340.07 646.731 2340.21 645.825 2340.35 644.919 2340.42 643.489 2340.42 641.535L2340.42 604.789C2340.42 602.807 2340.35 601.369 2340.21 600.477 2340.07 599.585 2339.84 598.898 2339.51 598.417 2339.18 597.935 2338.75 597.546 2338.21 597.249 2337.68 596.951 2336.74 596.619 2335.41 596.25Z" fill-rule="evenodd"/><text fill="#000000" fill-opacity="0" font-family="Arial,Arial_MSFontService,sans-serif" font-size="57.9858" x="2335.41" y="644.906">DL</text><path d="M2454.19 633.688 2442.28 664.938 2464.03 664.938ZM2453.09 626.782 2457.72 626.782 2470.91 667.938 2470.91 669.938 2436.75 669.938 2436.75 667.938Z" fill-rule="evenodd"/><text fill="#000000" fill-opacity="0" font-family="Arial,Arial_MSFontService,sans-serif" font-size="43.1562" x="2436.75" y="664.544">∆</text><path d="M2528.84 590.77 2529.99 594.041C2523.36 596.222 2518.46 600.477 2515.27 606.807 2512.09 613.136 2510.49 621.087 2510.49 630.66 2510.49 640.572 2512.09 648.742 2515.27 655.171 2518.46 661.6 2523.32 665.904 2529.86 668.085L2528.84 671.356C2520.55 669.175 2514.19 664.481 2509.77 657.274 2505.35 650.066 2503.14 641.336 2503.14 631.084 2503.14 620.861 2505.36 612.131 2509.79 604.895 2514.22 597.659 2520.57 592.951 2528.84 590.77Z" fill-rule="evenodd"/><text fill="#000000" fill-opacity="0" font-family="Arial,Arial_MSFontService,sans-serif" font-size="80.5854" x="2503.14" y="661.283">(</text><path d="M2555.12 597.865C2553.2 597.865 2551.37 597.921 2549.64 598.035L2549.64 648.204C2550.78 648.317 2552.45 648.374 2554.66 648.374 2557.04 648.374 2559.16 648.176 2561.03 647.779 2562.9 647.383 2564.6 646.76 2566.13 645.91 2567.66 645.06 2569.03 643.878 2570.25 642.363 2571.47 640.848 2572.46 639.106 2573.22 637.138 2573.99 635.17 2574.55 632.982 2574.9 630.575 2575.25 628.167 2575.43 625.534 2575.43 622.673 2575.43 616.924 2574.6 612.202 2572.95 608.506 2571.29 604.81 2568.95 602.113 2565.94 600.414 2562.92 598.714 2559.32 597.865 2555.12 597.865ZM2536.69 594.169 2555.29 594.169C2560.65 594.169 2565.03 594.757 2568.44 595.932 2571.85 597.107 2574.74 598.842 2577.09 601.136 2579.44 603.43 2581.19 606.283 2582.35 609.695 2583.52 613.108 2584.1 617.179 2584.1 621.909 2584.1 626.695 2583.55 630.907 2582.46 634.547 2581.37 638.186 2579.78 641.237 2577.68 643.701 2575.87 645.853 2573.65 647.623 2571.01 649.011 2568.83 650.144 2566.31 650.951 2563.45 651.433 2560.59 651.914 2556.8 652.155 2552.07 652.155L2536.69 652.155 2536.69 650.073C2537.99 649.733 2538.93 649.408 2539.49 649.096 2540.06 648.785 2540.5 648.388 2540.81 647.907 2541.12 647.425 2541.35 646.731 2541.49 645.825 2541.63 644.919 2541.7 643.489 2541.7 641.535L2541.7 604.789C2541.7 602.807 2541.63 601.369 2541.49 600.477 2541.35 599.585 2541.11 598.898 2540.79 598.417 2540.46 597.935 2540.03 597.546 2539.49 597.249 2538.95 596.951 2538.02 596.619 2536.69 596.25ZM2619.24 593.489C2621.82 593.489 2624.2 593.624 2626.38 593.893 2628.56 594.162 2631.05 594.664 2633.86 595.401L2633.86 607.168 2629.65 607.168C2628.97 604.704 2628.11 602.743 2627.06 601.284 2626.01 599.826 2624.79 598.785 2623.41 598.162 2622.02 597.539 2620.35 597.227 2618.39 597.227 2615.48 597.227 2612.88 598.197 2610.6 600.137 2608.32 602.077 2606.53 604.994 2605.22 608.888 2603.92 612.782 2603.27 617.491 2603.27 623.013 2603.27 628.564 2603.81 633.3 2604.88 637.223 2605.96 641.145 2607.55 644.105 2609.64 646.101 2611.74 648.098 2614.31 649.096 2617.37 649.096 2619.7 649.096 2621.59 648.763 2623.07 648.098 2624.54 647.432 2625.78 646.377 2626.78 644.933 2627.79 643.489 2628.74 641.365 2629.65 638.561L2633.86 638.561 2633.86 650.71C2631.19 651.418 2628.47 651.949 2625.68 652.303 2622.89 652.657 2619.82 652.834 2616.48 652.834 2609.29 652.834 2603.85 650.399 2600.17 645.528 2596.49 640.657 2594.65 633.393 2594.65 623.735 2594.65 617.675 2595.6 612.365 2597.51 607.805 2599.42 603.246 2602.24 599.72 2605.95 597.227 2609.66 594.735 2614.09 593.489 2619.24 593.489Z" fill-rule="evenodd"/><text fill="#000000" fill-opacity="0" font-family="Arial,Arial_MSFontService,sans-serif" font-size="59.3452" x="2536.69" y="645.416">DC</text><path d="M2641.49 590.77C2649.76 592.951 2656.11 597.659 2660.54 604.895 2664.97 612.131 2667.19 620.861 2667.19 631.084 2667.19 641.336 2664.98 650.066 2660.56 657.274 2656.14 664.481 2649.78 669.175 2641.49 671.356L2640.47 668.085C2647.01 665.904 2651.87 661.6 2655.06 655.171 2658.25 648.742 2659.84 640.572 2659.84 630.66 2659.84 621.087 2658.25 613.136 2655.08 606.807 2651.91 600.477 2647 596.222 2640.34 594.041Z" fill-rule="evenodd"/><text fill="#000000" fill-opacity="0" font-family="Arial,Arial_MSFontService,sans-serif" font-size="80.5854" x="2640.34" y="661.283">)</text><path d="M2722.82 596.705 2774.82 596.705 2774.82 648.705 2722.82 648.705Z" stroke="#006600" stroke-width="8.47303" stroke-linejoin="round" stroke-miterlimit="10" fill="#006600" fill-rule="evenodd"/><path d="M3222.78 614.989C3221.28 614.989 3219.77 615.435 3218.26 616.327 3216.74 617.219 3215.52 618.784 3214.58 621.021 3213.65 623.258 3213.18 626.133 3213.18 629.644 3213.18 635.308 3214.31 640.194 3216.56 644.3 3218.81 648.407 3221.77 650.46 3225.46 650.46 3228.2 650.46 3230.47 649.327 3232.25 647.061 3234.04 644.796 3234.93 640.902 3234.93 635.379 3234.93 628.469 3233.44 623.032 3230.47 619.067 3228.46 616.348 3225.9 614.989 3222.78 614.989ZM3115.78 614.989C3114.28 614.989 3112.77 615.435 3111.26 616.327 3109.74 617.219 3108.52 618.784 3107.58 621.021 3106.65 623.258 3106.18 626.133 3106.18 629.644 3106.18 635.308 3107.31 640.194 3109.56 644.3 3111.81 648.407 3114.77 650.46 3118.46 650.46 3121.2 650.46 3123.47 649.327 3125.25 647.061 3127.04 644.796 3127.93 640.902 3127.93 635.379 3127.93 628.469 3126.44 623.032 3123.47 619.067 3121.46 616.348 3118.9 614.989 3115.78 614.989ZM3303.86 613.374 3322 613.374 3322 614.946 3321.1 614.946C3319.83 614.946 3318.87 615.222 3318.24 615.774 3317.6 616.327 3317.28 617.013 3317.28 617.835 3317.28 618.939 3317.75 620.469 3318.68 622.423L3328.16 642.049 3336.86 620.554C3337.35 619.392 3337.59 618.245 3337.59 617.113 3337.59 616.603 3337.49 616.221 3337.29 615.966 3337.06 615.654 3336.71 615.406 3336.23 615.222 3335.75 615.038 3334.9 614.946 3333.68 614.946L3333.68 613.374 3346.34 613.374 3346.34 614.946C3345.29 615.059 3344.48 615.286 3343.92 615.626 3343.35 615.966 3342.73 616.603 3342.05 617.537 3341.79 617.934 3341.31 619.024 3340.6 620.808L3324.76 659.636C3323.23 663.402 3321.22 666.248 3318.75 668.174 3316.27 670.1 3313.88 671.063 3311.59 671.063 3309.92 671.063 3308.54 670.581 3307.47 669.618 3306.39 668.656 3305.85 667.551 3305.85 666.305 3305.85 665.116 3306.24 664.16 3307.02 663.438 3307.8 662.715 3308.87 662.354 3310.23 662.354 3311.16 662.354 3312.44 662.666 3314.05 663.289 3315.18 663.714 3315.89 663.926 3316.18 663.926 3317.03 663.926 3317.95 663.487 3318.96 662.609 3319.96 661.731 3320.98 660.032 3322 657.512L3324.76 650.757 3310.78 621.403C3310.36 620.525 3309.68 619.435 3308.74 618.132 3308.03 617.141 3307.45 616.475 3307 616.136 3306.35 615.682 3305.3 615.286 3303.86 614.946ZM3032.9 613.374 3049.21 613.374 3049.21 614.946C3047.71 615.059 3046.73 615.328 3046.26 615.753 3045.79 616.178 3045.56 616.787 3045.56 617.58 3045.56 618.458 3045.8 619.52 3046.28 620.766L3054.61 643.153 3062.98 624.929 3060.77 619.194C3060.09 617.495 3059.19 616.32 3058.09 615.668 3057.47 615.272 3056.31 615.031 3054.61 614.946L3054.61 613.374 3073.13 613.374 3073.13 614.946C3071.09 615.031 3069.64 615.399 3068.8 616.051 3068.23 616.504 3067.95 617.226 3067.95 618.217 3067.95 618.784 3068.06 619.364 3068.29 619.959L3077.12 642.304 3085.32 620.766C3085.89 619.237 3086.17 618.019 3086.17 617.113 3086.17 616.575 3085.89 616.093 3085.34 615.668 3084.79 615.243 3083.71 615.003 3082.09 614.946L3082.09 613.374 3094.37 613.374 3094.37 614.946C3091.9 615.314 3090.09 616.985 3088.93 619.959L3075.93 653.476 3074.19 653.476 3064.46 628.625 3053.12 653.476 3051.55 653.476 3039.06 620.766C3038.24 618.699 3037.43 617.304 3036.64 616.582 3035.84 615.859 3034.6 615.314 3032.9 614.946ZM3285.4 612.227C3286.93 612.227 3288.79 612.553 3290.97 613.204 3292.41 613.629 3293.38 613.842 3293.86 613.842 3294.31 613.842 3294.67 613.742 3294.92 613.544 3295.18 613.346 3295.47 612.907 3295.81 612.227L3297.21 612.227 3297.21 625.481 3295.81 625.481C3294.74 621.318 3293.36 618.486 3291.67 616.985 3289.99 615.484 3287.84 614.734 3285.23 614.734 3283.25 614.734 3281.65 615.258 3280.43 616.305 3279.22 617.353 3278.61 618.514 3278.61 619.789 3278.61 621.375 3279.06 622.734 3279.97 623.867 3280.84 625.028 3282.63 626.26 3285.32 627.563L3291.52 630.579C3297.27 633.383 3300.15 637.078 3300.15 641.666 3300.15 645.206 3298.81 648.06 3296.13 650.226 3293.45 652.393 3290.46 653.476 3287.15 653.476 3284.77 653.476 3282.05 653.051 3278.99 652.201 3278.06 651.918 3277.29 651.777 3276.7 651.777 3276.04 651.777 3275.53 652.145 3275.17 652.881L3273.76 652.881 3273.76 638.99 3275.17 638.99C3275.96 642.955 3277.47 645.943 3279.71 647.953 3281.95 649.964 3284.46 650.97 3287.23 650.97 3289.19 650.97 3290.78 650.396 3292.01 649.249 3293.24 648.102 3293.86 646.721 3293.86 645.107 3293.86 643.153 3293.17 641.511 3291.8 640.18 3290.42 638.848 3287.68 637.163 3283.58 635.124 3279.47 633.085 3276.78 631.244 3275.51 629.602 3274.23 627.988 3273.59 625.949 3273.59 623.485 3273.59 620.284 3274.69 617.608 3276.89 615.456 3279.08 613.304 3281.92 612.227 3285.4 612.227ZM3259.62 612.227 3261.49 612.227 3261.49 643.493C3261.49 645.929 3261.67 647.55 3262.02 648.357 3262.37 649.164 3262.9 649.766 3263.59 650.162 3264.29 650.559 3265.55 650.757 3267.39 650.757L3267.39 652.286 3248.49 652.286 3248.49 650.757C3250.39 650.757 3251.66 650.573 3252.31 650.205 3252.97 649.837 3253.48 649.228 3253.86 648.378 3254.25 647.529 3254.44 645.9 3254.44 643.493L3254.44 628.497C3254.44 624.278 3254.31 621.545 3254.06 620.299 3253.86 619.392 3253.55 618.762 3253.12 618.408 3252.7 618.054 3252.12 617.877 3251.38 617.877 3250.59 617.877 3249.62 618.09 3248.49 618.514L3247.9 616.985ZM3224.1 612.227C3229.99 612.227 3234.72 614.465 3238.29 618.939 3241.32 622.763 3242.83 627.152 3242.83 632.108 3242.83 635.592 3242 639.117 3240.32 642.686 3238.65 646.254 3236.35 648.945 3233.42 650.757 3230.49 652.57 3227.23 653.476 3223.63 653.476 3217.77 653.476 3213.11 651.139 3209.65 646.467 3206.74 642.53 3205.28 638.112 3205.28 633.213 3205.28 629.644 3206.16 626.097 3207.93 622.571 3209.7 619.045 3212.03 616.44 3214.92 614.755 3217.81 613.07 3220.87 612.227 3224.1 612.227ZM3117.1 612.227C3122.99 612.227 3127.72 614.465 3131.29 618.939 3134.32 622.763 3135.83 627.152 3135.83 632.108 3135.83 635.592 3135 639.117 3133.32 642.686 3131.65 646.254 3129.35 648.945 3126.42 650.757 3123.49 652.57 3120.23 653.476 3116.63 653.476 3110.77 653.476 3106.11 651.139 3102.65 646.467 3099.74 642.53 3098.28 638.112 3098.28 633.213 3098.28 629.644 3099.16 626.097 3100.93 622.571 3102.7 619.045 3105.03 616.44 3107.92 614.755 3110.81 613.07 3113.87 612.227 3117.1 612.227ZM2829.19 606.577 2819.17 629.857 2838.96 629.857ZM2945.9 597.911C2944.26 597.911 2942.03 598.18 2939.23 598.719L2939.23 622.678C2939.77 622.678 2940.24 622.685 2940.63 622.699 2941.03 622.713 2941.36 622.72 2941.61 622.72 2947.1 622.72 2951.25 621.531 2954.04 619.152 2956.83 616.773 2958.22 613.742 2958.22 610.061 2958.22 606.464 2957.09 603.54 2954.84 601.289 2952.59 599.037 2949.61 597.911 2945.9 597.911ZM2887.9 597.911C2886.26 597.911 2884.03 598.18 2881.23 598.719L2881.23 622.678C2881.77 622.678 2882.24 622.685 2882.63 622.699 2883.03 622.713 2883.36 622.72 2883.61 622.72 2889.1 622.72 2893.25 621.531 2896.04 619.152 2898.83 616.773 2900.22 613.742 2900.22 610.061 2900.22 606.464 2899.09 603.54 2896.84 601.289 2894.59 599.037 2891.61 597.911 2887.9 597.911ZM3138.2 594.683 3153.83 594.683 3189.05 637.886 3189.05 604.666C3189.05 601.126 3188.65 598.917 3187.86 598.039 3186.81 596.849 3185.16 596.255 3182.89 596.255L3180.89 596.255 3180.89 594.683 3200.94 594.683 3200.94 596.255 3198.9 596.255C3196.47 596.255 3194.74 596.991 3193.72 598.464 3193.1 599.37 3192.79 601.437 3192.79 604.666L3192.79 653.221 3191.26 653.221 3153.28 606.832 3153.28 642.304C3153.28 645.844 3153.66 648.053 3154.43 648.93 3155.5 650.12 3157.16 650.715 3159.4 650.715L3161.44 650.715 3161.44 652.286 3141.39 652.286 3141.39 650.715 3143.38 650.715C3145.85 650.715 3147.59 649.978 3148.61 648.506 3149.23 647.599 3149.54 645.532 3149.54 642.304L3149.54 602.244C3147.87 600.29 3146.6 599.002 3145.74 598.379 3144.88 597.756 3143.61 597.175 3141.94 596.637 3141.12 596.382 3139.87 596.255 3138.2 596.255ZM2982.66 594.683 3029.69 594.683 3030.32 608.192 3028.71 608.192C3028.4 605.813 3027.97 604.114 3027.43 603.094 3026.56 601.451 3025.39 600.241 3023.93 599.462 3022.47 598.683 3020.55 598.294 3018.17 598.294L3010.06 598.294 3010.06 642.304C3010.06 645.844 3010.44 648.053 3011.21 648.93 3012.28 650.12 3013.94 650.715 3016.18 650.715L3018.17 650.715 3018.17 652.286 2993.75 652.286 2993.75 650.715 2995.79 650.715C2998.22 650.715 2999.95 649.978 3000.97 648.506 3001.59 647.599 3001.9 645.532 3001.9 642.304L3001.9 598.294 2994.98 598.294C2992.29 598.294 2990.38 598.492 2989.24 598.888 2987.77 599.427 2986.51 600.46 2985.46 601.99 2984.42 603.519 2983.79 605.586 2983.59 608.192L2981.98 608.192ZM2922.83 594.683 2943.82 594.683C2949.94 594.683 2954.45 595.129 2957.35 596.021 2960.25 596.913 2962.72 598.556 2964.74 600.949 2966.77 603.342 2967.78 606.195 2967.78 609.509 2967.78 613.049 2966.62 616.121 2964.32 618.727 2962.01 621.332 2958.43 623.173 2953.59 624.249L2965.48 640.774C2968.2 644.569 2970.54 647.09 2972.49 648.336 2974.45 649.582 2977 650.375 2980.14 650.715L2980.14 652.286 2964.76 652.286 2945.26 625.354C2943.82 625.41 2942.64 625.439 2941.74 625.439 2941.37 625.439 2940.97 625.432 2940.55 625.418 2940.12 625.403 2939.68 625.382 2939.23 625.354L2939.23 642.091C2939.23 645.716 2939.63 647.968 2940.42 648.846 2941.5 650.092 2943.11 650.715 2945.26 650.715L2947.51 650.715 2947.51 652.286 2922.83 652.286 2922.83 650.715 2925 650.715C2927.44 650.715 2929.18 649.922 2930.23 648.336 2930.82 647.458 2931.12 645.376 2931.12 642.091L2931.12 604.878C2931.12 601.253 2930.72 599.002 2929.93 598.124 2928.82 596.878 2927.18 596.255 2925 596.255L2922.83 596.255ZM2864.83 594.683 2885.82 594.683C2891.94 594.683 2896.45 595.129 2899.35 596.021 2902.25 596.913 2904.72 598.556 2906.74 600.949 2908.77 603.342 2909.78 606.195 2909.78 609.509 2909.78 613.049 2908.62 616.121 2906.32 618.727 2904.01 621.332 2900.43 623.173 2895.59 624.249L2907.48 640.774C2910.2 644.569 2912.54 647.09 2914.49 648.336 2916.45 649.582 2919 650.375 2922.14 650.715L2922.14 652.286 2906.76 652.286 2887.26 625.354C2885.82 625.41 2884.64 625.439 2883.74 625.439 2883.37 625.439 2882.97 625.432 2882.55 625.418 2882.12 625.403 2881.68 625.382 2881.23 625.354L2881.23 642.091C2881.23 645.716 2881.63 647.968 2882.42 648.846 2883.5 650.092 2885.11 650.715 2887.26 650.715L2889.51 650.715 2889.51 652.286 2864.83 652.286 2864.83 650.715 2867 650.715C2869.44 650.715 2871.18 649.922 2872.23 648.336 2872.82 647.458 2873.12 645.376 2873.12 642.091L2873.12 604.878C2873.12 601.253 2872.72 599.002 2871.93 598.124 2870.82 596.878 2869.18 596.255 2867 596.255L2864.83 596.255ZM2830.76 593.366 2832.25 593.366 2852.3 641.284C2853.91 645.136 2855.38 647.635 2856.7 648.782 2858.01 649.929 2859.85 650.573 2862.2 650.715L2862.2 652.286 2839.47 652.286 2839.47 650.715C2841.77 650.601 2843.32 650.219 2844.12 649.568 2844.93 648.916 2845.33 648.123 2845.33 647.189 2845.33 645.943 2844.77 643.974 2843.63 641.284L2840.15 633 2817.85 633 2813.94 642.091C2812.98 644.328 2812.5 645.999 2812.5 647.104 2812.5 647.982 2812.91 648.753 2813.75 649.419 2814.58 650.085 2816.39 650.516 2819.17 650.715L2819.17 652.286 2801.03 652.286 2801.03 650.715C2803.43 650.29 2804.99 649.738 2805.7 649.058 2807.14 647.699 2808.74 644.937 2810.5 640.774ZM3257.96 591.879C3259.15 591.879 3260.17 592.297 3261 593.132 3261.84 593.968 3262.25 594.98 3262.25 596.17 3262.25 597.359 3261.84 598.379 3261 599.228 3260.17 600.078 3259.15 600.503 3257.96 600.503 3256.77 600.503 3255.75 600.078 3254.91 599.228 3254.06 598.379 3253.63 597.359 3253.63 596.17 3253.63 594.98 3254.05 593.968 3254.88 593.132 3255.72 592.297 3256.75 591.879 3257.96 591.879Z" fill-rule="evenodd"/><text fill="#000000" fill-opacity="0" font-family="Arial,Arial_MSFontService,sans-serif" font-size="79.1836" x="2801.03" y="661.165">ARRTwoNoisy</text><path d="M3370.44 597.996C3368.52 597.996 3366.69 598.053 3364.96 598.166L3364.96 648.336C3366.1 648.449 3367.77 648.506 3369.98 648.506 3372.36 648.506 3374.48 648.307 3376.35 647.911 3378.22 647.514 3379.92 646.891 3381.45 646.042 3382.98 645.192 3384.35 644.01 3385.57 642.495 3386.78 640.98 3387.78 639.238 3388.54 637.27 3389.3 635.301 3389.86 633.114 3390.22 630.706 3390.57 628.299 3390.75 625.665 3390.75 622.805 3390.75 617.056 3389.92 612.334 3388.26 608.638 3386.61 604.942 3384.27 602.244 3381.25 600.545 3378.24 598.846 3374.64 597.996 3370.44 597.996ZM3410.05 594.301 3427.93 594.301 3427.93 596.382C3426.69 596.722 3425.8 597.026 3425.28 597.295 3424.75 597.565 3424.32 597.926 3423.98 598.379 3423.64 598.832 3423.39 599.526 3423.22 600.46 3423.05 601.395 3422.96 602.882 3422.96 604.921L3422.96 648.378 3434.09 648.378C3435.31 648.378 3436.33 648.307 3437.15 648.166 3437.97 648.024 3438.67 647.805 3439.25 647.507 3439.84 647.21 3440.36 646.799 3440.83 646.275 3441.29 645.752 3441.74 645.065 3442.16 644.215 3442.59 643.366 3442.99 642.296 3443.38 641.008 3443.76 639.719 3444.23 637.786 3444.8 635.209L3449.09 635.209 3448.24 652.286 3410.05 652.286 3410.05 650.205C3411.81 649.752 3412.98 649.249 3413.58 648.697 3414.17 648.145 3414.56 647.359 3414.74 646.339 3414.93 645.32 3415.02 643.762 3415.02 641.666L3415.02 604.921C3415.02 602.967 3414.95 601.544 3414.81 600.651 3414.67 599.759 3414.43 599.065 3414.11 598.57 3413.78 598.074 3413.35 597.678 3412.81 597.38 3412.27 597.083 3411.35 596.75 3410.05 596.382ZM3352.01 594.301 3370.61 594.301C3375.97 594.301 3380.35 594.888 3383.76 596.064 3387.17 597.239 3390.06 598.973 3392.41 601.267 3394.76 603.561 3396.51 606.415 3397.67 609.827 3398.83 613.24 3399.42 617.311 3399.42 622.04 3399.42 626.826 3398.87 631.039 3397.78 634.678 3396.69 638.317 3395.1 641.369 3393 643.833 3391.19 645.985 3388.97 647.755 3386.33 649.143 3384.15 650.276 3381.63 651.083 3378.77 651.564 3375.91 652.046 3372.11 652.286 3367.39 652.286L3352.01 652.286 3352.01 650.205C3353.31 649.865 3354.24 649.539 3354.81 649.228 3355.38 648.916 3355.82 648.52 3356.13 648.038 3356.44 647.557 3356.67 646.863 3356.81 645.957 3356.95 645.051 3357.02 643.62 3357.02 641.666L3357.02 604.921C3357.02 602.938 3356.95 601.501 3356.81 600.609 3356.67 599.717 3356.43 599.03 3356.11 598.549 3355.78 598.067 3355.35 597.678 3354.81 597.38 3354.27 597.083 3353.34 596.75 3352.01 596.382Z" fill-rule="evenodd"/><text fill="#000000" fill-opacity="0" font-family="Arial,Arial_MSFontService,sans-serif" font-size="57.9858" x="3352.01" y="645.038">DL</text><path d="M3470.78 633.82 3458.88 665.07 3480.63 665.07ZM3469.69 626.914 3474.32 626.914 3487.5 668.07 3487.5 670.07 3453.35 670.07 3453.35 668.07Z" fill-rule="evenodd"/><text fill="#000000" fill-opacity="0" font-family="Arial,Arial_MSFontService,sans-serif" font-size="43.1562" x="3453.35" y="664.675">∆</text><path d="M3545.44 590.902 3546.59 594.173C3539.96 596.354 3535.05 600.609 3531.87 606.939 3528.68 613.268 3527.09 621.219 3527.09 630.791 3527.09 640.703 3528.68 648.874 3531.87 655.303 3535.05 661.731 3539.92 666.036 3546.46 668.217L3545.44 671.488C3537.14 669.307 3530.78 664.613 3526.37 657.405 3521.95 650.198 3519.74 641.468 3519.74 631.216 3519.74 620.992 3521.96 612.263 3526.39 605.027 3530.82 597.791 3537.17 593.083 3545.44 590.902Z" fill-rule="evenodd"/><text fill="#000000" fill-opacity="0" font-family="Arial,Arial_MSFontService,sans-serif" font-size="80.5854" x="3519.74" y="661.414">(</text><path d="M3571.72 597.996C3569.79 597.996 3567.97 598.053 3566.24 598.166L3566.24 648.336C3567.37 648.449 3569.04 648.506 3571.25 648.506 3573.63 648.506 3575.76 648.307 3577.63 647.911 3579.49 647.514 3581.19 646.891 3582.72 646.042 3584.25 645.192 3585.63 644.01 3586.84 642.495 3588.06 640.98 3589.05 639.238 3589.82 637.27 3590.58 635.301 3591.14 633.114 3591.5 630.706 3591.85 628.299 3592.03 625.665 3592.03 622.805 3592.03 617.056 3591.2 612.334 3589.54 608.638 3587.88 604.942 3585.55 602.244 3582.53 600.545 3579.52 598.846 3575.91 597.996 3571.72 597.996ZM3553.28 594.301 3571.89 594.301C3577.24 594.301 3581.63 594.888 3585.04 596.064 3588.45 597.239 3591.33 598.973 3593.68 601.267 3596.03 603.561 3597.79 606.415 3598.95 609.827 3600.11 613.24 3600.69 617.311 3600.69 622.04 3600.69 626.826 3600.15 631.039 3599.06 634.678 3597.97 638.317 3596.37 641.369 3594.28 643.833 3592.47 645.985 3590.24 647.755 3587.61 649.143 3585.43 650.276 3582.91 651.083 3580.05 651.564 3577.19 652.046 3573.39 652.286 3568.66 652.286L3553.28 652.286 3553.28 650.205C3554.59 649.865 3555.52 649.539 3556.09 649.228 3556.65 648.916 3557.09 648.52 3557.4 648.038 3557.72 647.557 3557.94 646.863 3558.08 645.957 3558.23 645.051 3558.3 643.62 3558.3 641.666L3558.3 604.921C3558.3 602.938 3558.23 601.501 3558.08 600.609 3557.94 599.717 3557.71 599.03 3557.38 598.549 3557.06 598.067 3556.63 597.678 3556.09 597.38 3555.55 597.083 3554.62 596.75 3553.28 596.382ZM3635.84 593.621C3638.42 593.621 3640.79 593.755 3642.97 594.024 3645.16 594.294 3647.65 594.796 3650.45 595.533L3650.45 607.3 3646.25 607.3C3645.57 604.836 3644.7 602.875 3643.65 601.416 3642.61 599.958 3641.39 598.917 3640 598.294 3638.61 597.671 3636.94 597.359 3634.99 597.359 3632.07 597.359 3629.47 598.329 3627.19 600.269 3624.91 602.209 3623.12 605.126 3621.82 609.02 3620.52 612.914 3619.87 617.622 3619.87 623.145 3619.87 628.696 3620.4 633.432 3621.48 637.355 3622.56 641.277 3624.14 644.236 3626.24 646.233 3628.33 648.23 3630.91 649.228 3633.97 649.228 3636.29 649.228 3638.19 648.895 3639.66 648.23 3641.13 647.564 3642.37 646.509 3643.38 645.065 3644.38 643.62 3645.34 641.496 3646.25 638.693L3650.45 638.693 3650.45 650.842C3647.79 651.55 3645.06 652.081 3642.27 652.435 3639.48 652.789 3636.42 652.966 3633.08 652.966 3625.88 652.966 3620.45 650.531 3616.76 645.659 3613.08 640.788 3611.24 633.524 3611.24 623.867 3611.24 617.806 3612.2 612.496 3614.11 607.937 3616.02 603.377 3618.83 599.851 3622.54 597.359 3626.25 594.867 3630.68 593.621 3635.84 593.621Z" fill-rule="evenodd"/><text fill="#000000" fill-opacity="0" font-family="Arial,Arial_MSFontService,sans-serif" font-size="59.3452" x="3553.28" y="645.548">DC</text><path d="M3658.08 590.902C3666.35 593.083 3672.7 597.791 3677.14 605.027 3681.57 612.263 3683.78 620.992 3683.78 631.216 3683.78 641.468 3681.57 650.198 3677.16 657.405 3672.74 664.613 3666.38 669.307 3658.08 671.488L3657.06 668.217C3663.61 666.036 3668.47 661.731 3671.66 655.303 3674.84 648.874 3676.43 640.703 3676.43 630.791 3676.43 621.219 3674.85 613.268 3671.68 606.939 3668.51 600.609 3663.59 596.354 3656.94 594.173Z" fill-rule="evenodd"/><text fill="#000000" fill-opacity="0" font-family="Arial,Arial_MSFontService,sans-serif" font-size="80.5854" x="3656.94" y="661.414">)</text><g clip-path="url(#clip13)"><path d="M1201.5 1643.5 1664.5 1643.5M1201.5 1423.55 1664.5 1423.55M1201.5 1202.54 1664.5 1202.54M1201.5 981.532 1664.5 981.532M1201.5 761.5 1664.5 761.5" stroke="#D9D9D9" stroke-width="3.4375" stroke-linejoin="round" stroke-miterlimit="10" fill="none"/></g><g clip-path="url(#clip14)"><rect x="1240.5" y="788.5" width="77" height="855" stroke="#FF0000" stroke-width="3.4375" stroke-linejoin="round" stroke-miterlimit="10" fill="#FF0000"/></g><g clip-path="url(#clip15)"><rect x="1394.5" y="1356.5" width="77" height="287" stroke="#0070C0" stroke-width="3.4375" stroke-linejoin="round" stroke-miterlimit="10" fill="#4472C4"/></g><g clip-path="url(#clip16)"><rect x="1548.5" y="1365.5" width="77" height="278" stroke="#006600" stroke-width="3.4375" stroke-linejoin="round" stroke-miterlimit="10" fill="#006600"/></g><text font-family="Times New Roman,Times New Roman_MSFontService,sans-serif" font-weight="400" font-size="92" transform="matrix(-1.83697e-16 -1 1 -1.83697e-16 1010.11 1463)">Relative Error</text><text font-family="Times New Roman,Times New Roman_MSFontService,sans-serif" font-weight="400" font-size="83" transform="matrix(1 0 0 1 1040.62 789)">0.08<tspan font-weight="700" font-size="92" x="126.293" y="960">Gplus</tspan><tspan font-weight="700" font-size="92" x="382.959" y="960">(</tspan></text><path d="M1480.9 1705.07C1485.21 1705.07 1489.73 1705.79 1494.46 1707.23L1492.76 1715.41 1488.53 1715.41C1488 1710.88 1485.34 1708.62 1480.58 1708.62 1477.86 1708.62 1475.63 1709.39 1473.89 1710.94 1472.15 1712.48 1471.28 1714.6 1471.28 1717.29 1471.28 1719.24 1472.06 1720.8 1473.6 1721.96 1475.14 1723.13 1477.26 1723.72 1479.95 1723.72L1486.33 1723.72 1485.3 1728.34 1480.81 1728.34C1478.53 1728.34 1476.66 1728.49 1475.19 1728.79 1473.73 1729.09 1472.35 1729.58 1471.06 1730.25 1469.77 1730.93 1468.76 1731.65 1468.03 1732.41 1467.29 1733.17 1466.75 1734.03 1466.39 1734.99 1466.03 1735.95 1465.85 1737.04 1465.85 1738.27 1465.85 1740.37 1466.57 1741.97 1468.01 1743.08 1469.44 1744.19 1471.51 1744.74 1474.2 1744.74 1476.57 1744.74 1478.85 1744.4 1481.05 1743.73 1483.26 1743.06 1485.75 1741.78 1488.53 1739.89L1490.74 1743.39C1487.62 1745.55 1484.56 1747.11 1481.55 1748.06 1478.54 1749.02 1475.39 1749.5 1472.09 1749.5 1469.1 1749.5 1466.53 1749 1464.39 1748 1462.25 1746.99 1460.65 1745.66 1459.58 1744 1458.52 1742.34 1457.99 1740.5 1457.99 1738.5 1457.99 1735.41 1459.19 1732.78 1461.58 1730.59 1463.98 1728.4 1467.42 1726.83 1471.91 1725.87L1472 1725.42C1466.79 1723.69 1464.19 1720.69 1464.19 1716.44 1464.19 1714.52 1464.79 1712.7 1465.98 1710.98 1467.18 1709.26 1469.06 1707.84 1471.62 1706.74 1474.18 1705.63 1477.27 1705.07 1480.9 1705.07Z" fill-rule="evenodd"/><text fill="#000000" fill-opacity="0" font-family="Arial,Arial_MSFontService,sans-serif" font-size="44.4277" x="1457.99" y="1743.95">𝜀</text><path d="M1530.83 1728.84 1586.18 1728.84 1586.18 1734.81 1530.83 1734.81ZM1530.83 1710.2 1586.18 1710.2 1586.18 1716.17 1530.83 1716.17Z" fill-rule="evenodd"/><text fill="#000000" fill-opacity="0" font-family="Arial,Arial_MSFontService,sans-serif" font-size="24.6172" x="1530.83" y="1731.74">=</text><path d="M1647.37 1686.75 1649.84 1686.75C1649.66 1689.62 1649.57 1693.6 1649.57 1698.7L1649.57 1737.06C1649.57 1738.8 1649.67 1740.11 1649.86 1740.99 1650.06 1741.87 1650.4 1742.59 1650.89 1743.15 1651.39 1743.7 1652.1 1744.13 1653.03 1744.45 1653.96 1744.76 1655.12 1745 1656.53 1745.17 1657.94 1745.33 1659.8 1745.44 1662.1 1745.5L1662.1 1748.78 1628.91 1748.78 1628.91 1745.5C1632.23 1745.35 1634.6 1745.15 1636.03 1744.9 1637.45 1744.64 1638.53 1744.26 1639.28 1743.75 1640.03 1743.24 1640.58 1742.52 1640.92 1741.6 1641.27 1740.67 1641.44 1739.15 1641.44 1737.06L1641.44 1700.63C1641.44 1699.43 1641.23 1698.55 1640.81 1698 1640.39 1697.44 1639.78 1697.17 1638.97 1697.17 1638.01 1697.17 1636.65 1697.66 1634.88 1698.65 1633.11 1699.64 1630.93 1701 1628.32 1702.74L1626.34 1699.28Z" fill-rule="evenodd"/><text fill="#000000" fill-opacity="0" font-family="Arial,Arial_MSFontService,sans-serif" font-size="62.0371" x="1626.34" y="1741.03">1</text><text font-family="Times New Roman,Times New Roman_MSFontService,sans-serif" font-weight="700" font-size="92" transform="matrix(1 0 0 1 1669.34 1749)">)<tspan font-weight="400" font-size="83" x="-628.718" y="-742">0.06</tspan><tspan font-weight="400" font-size="83" x="-628.718" y="-517">0.04</tspan><tspan font-weight="400" font-size="83" x="-628.718" y="-300">0.02</tspan><tspan font-weight="400" font-size="83" x="-567.989" y="-77">0</tspan><tspan font-weight="400" font-size="83" x="40.4501" y="-960">0.05</tspan><tspan font-size="92" x="166.743" y="0">Gplus (</tspan></text><path d="M2150.07 1705.07C2154.38 1705.07 2158.9 1705.79 2163.63 1707.23L2161.92 1715.41 2157.7 1715.41C2157.16 1710.88 2154.51 1708.62 2149.75 1708.62 2147.03 1708.62 2144.79 1709.39 2143.06 1710.94 2141.32 1712.48 2140.45 1714.6 2140.45 1717.29 2140.45 1719.24 2141.22 1720.8 2142.77 1721.96 2144.31 1723.13 2146.43 1723.72 2149.12 1723.72L2155.5 1723.72 2154.47 1728.34 2149.98 1728.34C2147.7 1728.34 2145.83 1728.49 2144.36 1728.79 2142.89 1729.09 2141.52 1729.58 2140.23 1730.25 2138.94 1730.93 2137.93 1731.64 2137.2 1732.41 2136.46 1733.17 2135.92 1734.03 2135.56 1734.99 2135.2 1735.95 2135.02 1737.04 2135.02 1738.27 2135.02 1740.37 2135.74 1741.97 2137.17 1743.08 2138.61 1744.19 2140.68 1744.74 2143.37 1744.74 2145.74 1744.74 2148.02 1744.4 2150.22 1743.73 2152.42 1743.06 2154.92 1741.77 2157.7 1739.89L2159.9 1743.39C2156.79 1745.55 2153.73 1747.11 2150.72 1748.06 2147.71 1749.02 2144.55 1749.5 2141.26 1749.5 2138.27 1749.5 2135.7 1749 2133.56 1748 2131.42 1746.99 2129.81 1745.66 2128.75 1744 2127.69 1742.34 2127.16 1740.5 2127.16 1738.5 2127.16 1735.41 2128.35 1732.78 2130.75 1730.59 2133.14 1728.4 2136.59 1726.83 2141.08 1725.87L2141.17 1725.42C2135.96 1723.69 2133.35 1720.69 2133.35 1716.44 2133.35 1714.52 2133.95 1712.7 2135.15 1710.98 2136.35 1709.26 2138.23 1707.84 2140.79 1706.74 2143.35 1705.63 2146.44 1705.07 2150.07 1705.07Z" fill-rule="evenodd"/><text fill="#000000" fill-opacity="0" font-family="Arial,Arial_MSFontService,sans-serif" font-size="44.4277" x="2127.16" y="1743.95">𝜀</text><path d="M2200 1728.84 2255.34 1728.84 2255.34 1734.81 2200 1734.81ZM2200 1710.19 2255.34 1710.19 2255.34 1716.17 2200 1716.17Z" fill-rule="evenodd"/><text fill="#000000" fill-opacity="0" font-family="Arial,Arial_MSFontService,sans-serif" font-size="24.6172" x="2200" y="1731.73">=</text><path d="M2313.35 1686.75C2318.92 1686.75 2323.12 1687.97 2325.97 1690.41 2328.81 1692.85 2330.24 1696.39 2330.24 1701.03 2330.24 1702.62 2330.08 1704.08 2329.77 1705.41 2329.45 1706.74 2328.96 1708.06 2328.28 1709.36 2327.61 1710.67 2326.7 1712.07 2325.57 1713.56 2324.43 1715.06 2323.17 1716.58 2321.79 1718.12 2320.41 1719.67 2318.03 1722.23 2314.65 1725.83 2308.96 1731.85 2304.78 1737.1 2302.12 1741.6L2319.05 1741.6C2320.52 1741.6 2321.7 1741.51 2322.6 1741.33 2323.5 1741.15 2324.22 1740.85 2324.76 1740.43 2325.3 1740.01 2325.72 1739.46 2326.04 1738.79 2326.35 1738.11 2326.75 1737.07 2327.23 1735.67L2331.05 1735.67 2330.28 1748.78 2293.31 1748.78 2293.31 1746.63C2294.6 1743.48 2296.34 1740.26 2298.52 1736.97 2300.71 1733.67 2303.81 1729.8 2307.82 1725.33 2311.29 1721.5 2313.8 1718.6 2315.32 1716.62 2317 1714.46 2318.25 1712.6 2319.07 1711.03 2319.9 1709.45 2320.49 1707.97 2320.85 1706.58 2321.21 1705.19 2321.39 1703.79 2321.39 1702.38 2321.39 1700.13 2321.03 1698.15 2320.31 1696.43 2319.59 1694.7 2318.49 1693.35 2317.01 1692.36 2315.53 1691.37 2313.66 1690.88 2311.41 1690.88 2305.81 1690.88 2302.04 1693.99 2300.09 1700.22L2294.66 1700.22 2294.66 1691.6C2298.28 1689.89 2301.67 1688.65 2304.83 1687.89 2307.99 1687.13 2310.83 1686.75 2313.35 1686.75Z" fill-rule="evenodd"/><text fill="#000000" fill-opacity="0" font-family="Arial,Arial_MSFontService,sans-serif" font-size="62.0371" x="2293.31" y="1741.03">2</text><text font-family="Times New Roman,Times New Roman_MSFontService,sans-serif" font-weight="700" font-size="92" transform="matrix(1 0 0 1 2338.51 1749)">)<tspan font-weight="400" font-size="83" x="-628.718" y="-780">0.04</tspan><tspan font-weight="400" font-size="83" x="-628.718" y="-603">0.03</tspan><tspan font-weight="400" font-size="83" x="-628.718" y="-428">0.02</tspan><tspan font-weight="400" font-size="83" x="-567.989" y="-77">0</tspan><tspan font-weight="400" font-size="83" x="61.8394" y="-960">0.04</tspan><tspan font-size="92" x="180.111" y="0">IMDB (</tspan></text><path d="M2848.64 1705.07C2852.96 1705.07 2857.48 1705.79 2862.21 1707.23L2860.5 1715.41 2856.28 1715.41C2855.74 1710.88 2853.09 1708.62 2848.33 1708.62 2845.6 1708.62 2843.37 1709.39 2841.64 1710.94 2839.9 1712.48 2839.03 1714.6 2839.03 1717.29 2839.03 1719.24 2839.8 1720.8 2841.34 1721.96 2842.89 1723.13 2845 1723.72 2847.7 1723.72L2854.08 1723.72 2853.05 1728.34 2848.55 1728.34C2846.28 1728.34 2844.41 1728.49 2842.94 1728.79 2841.47 1729.09 2840.09 1729.58 2838.81 1730.25 2837.52 1730.93 2836.51 1731.64 2835.77 1732.41 2835.04 1733.17 2834.49 1734.03 2834.13 1734.99 2833.77 1735.95 2833.59 1737.04 2833.59 1738.27 2833.59 1740.37 2834.31 1741.97 2835.75 1743.08 2837.19 1744.19 2839.25 1744.74 2841.95 1744.74 2844.32 1744.74 2846.6 1744.4 2848.8 1743.73 2851 1743.06 2853.49 1741.77 2856.28 1739.89L2858.48 1743.39C2855.37 1745.55 2852.3 1747.11 2849.29 1748.06 2846.28 1749.02 2843.13 1749.5 2839.84 1749.5 2836.84 1749.5 2834.28 1749 2832.13 1748 2829.99 1746.99 2828.39 1745.66 2827.33 1744 2826.26 1742.34 2825.73 1740.5 2825.73 1738.5 2825.73 1735.41 2826.93 1732.78 2829.33 1730.59 2831.72 1728.4 2835.17 1726.83 2839.66 1725.87L2839.75 1725.42C2834.54 1723.69 2831.93 1720.69 2831.93 1716.44 2831.93 1714.52 2832.53 1712.7 2833.73 1710.98 2834.93 1709.26 2836.81 1707.84 2839.37 1706.74 2841.93 1705.63 2845.02 1705.07 2848.64 1705.07Z" fill-rule="evenodd"/><text fill="#000000" fill-opacity="0" font-family="Arial,Arial_MSFontService,sans-serif" font-size="44.4277" x="2825.73" y="1743.95">𝜀</text><path d="M2898.58 1728.84 2953.92 1728.84 2953.92 1734.81 2898.58 1734.81ZM2898.58 1710.19 2953.92 1710.19 2953.92 1716.17 2898.58 1716.17Z" fill-rule="evenodd"/><text fill="#000000" fill-opacity="0" font-family="Arial,Arial_MSFontService,sans-serif" font-size="24.6172" x="2898.58" y="1731.73">=</text><path d="M3015.11 1686.75 3017.58 1686.75C3017.41 1689.62 3017.32 1693.6 3017.32 1698.69L3017.32 1737.06C3017.32 1738.79 3017.41 1740.11 3017.61 1740.99 3017.8 1741.87 3018.15 1742.59 3018.64 1743.14 3019.13 1743.7 3019.85 1744.13 3020.77 1744.45 3021.7 1744.76 3022.87 1745 3024.28 1745.17 3025.69 1745.33 3027.54 1745.44 3029.85 1745.5L3029.85 1748.78 2996.65 1748.78 2996.65 1745.5C2999.98 1745.35 3002.35 1745.15 3003.77 1744.9 3005.19 1744.64 3006.28 1744.26 3007.03 1743.75 3007.78 1743.24 3008.32 1742.52 3008.67 1741.6 3009.01 1740.67 3009.18 1739.15 3009.18 1737.06L3009.18 1700.63C3009.18 1699.43 3008.97 1698.55 3008.56 1698 3008.14 1697.44 3007.52 1697.17 3006.71 1697.17 3005.76 1697.17 3004.39 1697.66 3002.63 1698.65 3000.86 1699.64 2998.67 1701 2996.07 1702.74L2994.09 1699.28Z" fill-rule="evenodd"/><text fill="#000000" fill-opacity="0" font-family="Arial,Arial_MSFontService,sans-serif" font-size="62.0371" x="2994.09" y="1741.03">1</text><text font-family="Times New Roman,Times New Roman_MSFontService,sans-serif" font-weight="700" font-size="92" transform="matrix(1 0 0 1 3037.08 1749)">)<tspan font-weight="400" font-size="83" x="-636.739" y="-742">0.03</tspan><tspan font-weight="400" font-size="83" x="-636.739" y="-517">0.02</tspan><tspan font-weight="400" font-size="83" x="-636.739" y="-300">0.01</tspan><tspan font-weight="400" font-size="83" x="-576.009" y="-77">0</tspan><tspan font-weight="400" font-size="83" x="37.9292" y="-960">0.02</tspan><tspan font-size="92" x="138.322" y="0">IMDB (</tspan></text><path d="M3505.43 1705.07C3509.74 1705.07 3514.27 1705.79 3519 1707.23L3517.29 1715.41 3513.07 1715.41C3512.53 1710.88 3509.88 1708.62 3505.12 1708.62 3502.39 1708.62 3500.16 1709.39 3498.42 1710.94 3496.69 1712.48 3495.82 1714.6 3495.82 1717.29 3495.82 1719.24 3496.59 1720.8 3498.13 1721.96 3499.67 1723.13 3501.79 1723.72 3504.49 1723.72L3510.87 1723.72 3509.83 1728.34 3505.34 1728.34C3503.07 1728.34 3501.19 1728.49 3499.73 1728.79 3498.26 1729.09 3496.88 1729.58 3495.59 1730.25 3494.31 1730.93 3493.3 1731.64 3492.56 1732.41 3491.83 1733.17 3491.28 1734.03 3490.92 1734.99 3490.56 1735.95 3490.38 1737.04 3490.38 1738.27 3490.38 1740.37 3491.1 1741.97 3492.54 1743.08 3493.98 1744.19 3496.04 1744.74 3498.74 1744.74 3501.1 1744.74 3503.39 1744.4 3505.59 1743.73 3507.79 1743.05 3510.28 1741.77 3513.07 1739.89L3515.27 1743.39C3512.16 1745.55 3509.09 1747.11 3506.08 1748.06 3503.07 1749.02 3499.92 1749.5 3496.63 1749.5 3493.63 1749.5 3491.06 1749 3488.92 1748 3486.78 1746.99 3485.18 1745.66 3484.12 1744 3483.05 1742.34 3482.52 1740.5 3482.52 1738.5 3482.52 1735.41 3483.72 1732.78 3486.12 1730.59 3488.51 1728.4 3491.96 1726.83 3496.45 1725.87L3496.54 1725.42C3491.33 1723.69 3488.72 1720.69 3488.72 1716.44 3488.72 1714.52 3489.32 1712.7 3490.52 1710.98 3491.72 1709.26 3493.6 1707.84 3496.16 1706.74 3498.72 1705.63 3501.81 1705.07 3505.43 1705.07Z" fill-rule="evenodd"/><text fill="#000000" fill-opacity="0" font-family="Arial,Arial_MSFontService,sans-serif" font-size="44.4277" x="3482.52" y="1743.95">𝜀</text><path d="M3555.37 1728.84 3610.71 1728.84 3610.71 1734.81 3555.37 1734.81ZM3555.37 1710.19 3610.71 1710.19 3610.71 1716.17 3555.37 1716.17Z" fill-rule="evenodd"/><text fill="#000000" fill-opacity="0" font-family="Arial,Arial_MSFontService,sans-serif" font-size="24.6172" x="3555.37" y="1731.73">=</text><path d="M3668.71 1686.75C3674.28 1686.75 3678.49 1687.97 3681.34 1690.41 3684.18 1692.85 3685.6 1696.39 3685.6 1701.03 3685.6 1702.62 3685.45 1704.08 3685.13 1705.41 3684.82 1706.74 3684.32 1708.06 3683.65 1709.36 3682.98 1710.67 3682.07 1712.07 3680.93 1713.56 3679.79 1715.06 3678.54 1716.58 3677.16 1718.12 3675.78 1719.67 3673.4 1722.23 3670.02 1725.83 3664.33 1731.85 3660.15 1737.1 3657.48 1741.59L3674.42 1741.59C3675.89 1741.59 3677.07 1741.5 3677.97 1741.33 3678.87 1741.15 3679.58 1740.85 3680.12 1740.43 3680.66 1740.01 3681.09 1739.46 3681.4 1738.79 3681.72 1738.11 3682.11 1737.07 3682.59 1735.67L3686.41 1735.67 3685.65 1748.78 3648.68 1748.78 3648.68 1746.63C3649.97 1743.48 3651.7 1740.26 3653.89 1736.97 3656.08 1733.67 3659.18 1729.8 3663.19 1725.33 3666.66 1721.5 3669.16 1718.59 3670.69 1716.62 3672.37 1714.46 3673.62 1712.6 3674.44 1711.03 3675.26 1709.45 3675.86 1707.97 3676.22 1706.58 3676.57 1705.19 3676.75 1703.79 3676.75 1702.38 3676.75 1700.13 3676.4 1698.15 3675.68 1696.43 3674.96 1694.7 3673.86 1693.35 3672.37 1692.36 3670.89 1691.37 3669.03 1690.88 3666.78 1690.88 3661.18 1690.88 3657.41 1693.99 3655.46 1700.22L3650.03 1700.22 3650.03 1691.6C3653.65 1689.89 3657.04 1688.65 3660.2 1687.89 3663.36 1687.13 3666.2 1686.75 3668.71 1686.75Z" fill-rule="evenodd"/><text fill="#000000" fill-opacity="0" font-family="Arial,Arial_MSFontService,sans-serif" font-size="62.0371" x="3648.68" y="1741.03">2</text><text font-family="Times New Roman,Times New Roman_MSFontService,sans-serif" font-weight="700" font-size="92" transform="matrix(1 0 0 1 3693.87 1749)">)<tspan font-weight="400" font-size="83" x="-640.174" y="-742">0.015</tspan><tspan font-weight="400" font-size="83" x="-618.86" y="-517">0.01</tspan><tspan font-weight="400" font-size="83" x="-640.174" y="-300">0.005</tspan><tspan font-weight="400" font-size="83" x="-558.13" y="-77">0</tspan><tspan font-weight="400" font-size="83" x="-1984.08" y="-251">0.01</tspan></text><rect x="905.5" y="558.5" width="2820" height="130" stroke="#000000" stroke-width="3.4375" stroke-miterlimit="8" fill="none"/></g></svg>