<svg width="2887" height="1088" xmlns="http://www.w3.org/2000/svg" xmlns:xlink="http://www.w3.org/1999/xlink" overflow="hidden"><defs><clipPath id="clip0"><rect x="893" y="555" width="2887" height="1088"/></clipPath><clipPath id="clip1"><rect x="3231" y="754" width="494" height="715"/></clipPath><clipPath id="clip2"><rect x="3249" y="772" width="466" height="677"/></clipPath><clipPath id="clip3"><rect x="3249" y="772" width="466" height="677"/></clipPath><clipPath id="clip4"><rect x="3249" y="772" width="466" height="677"/></clipPath><clipPath id="clip5"><rect x="2544" y="749" width="493" height="714"/></clipPath><clipPath id="clip6"><rect x="2560" y="762" width="467" height="684"/></clipPath><clipPath id="clip7"><rect x="2560" y="762" width="467" height="684"/></clipPath><clipPath id="clip8"><rect x="2560" y="762" width="467" height="684"/></clipPath><clipPath id="clip9"><rect x="1859" y="746" width="494" height="714"/></clipPath><clipPath id="clip10"><rect x="1872" y="760" width="475" height="690"/></clipPath><clipPath id="clip11"><rect x="1872" y="760" width="475" height="690"/></clipPath><clipPath id="clip12"><rect x="1872" y="760" width="475" height="690"/></clipPath><clipPath id="clip13"><rect x="1184" y="747" width="493" height="715"/></clipPath><clipPath id="clip14"><rect x="1201" y="758" width="466" height="697"/></clipPath><clipPath id="clip15"><rect x="1201" y="758" width="466" height="697"/></clipPath><clipPath id="clip16"><rect x="1201" y="758" width="466" height="697"/></clipPath></defs><g clip-path="url(#clip0)" transform="translate(-893 -555)"><g clip-path="url(#clip1)"><path d="M3249.5 1445.5 3711.5 1445.5M3249.5 1277.54 3711.5 1277.54M3249.5 1108.54 3711.5 1108.54M3249.5 940.531 3711.5 940.531M3249.5 772.5 3711.5 772.5" stroke="#D9D9D9" stroke-width="3.4375" stroke-linejoin="round" stroke-miterlimit="10" fill="none"/></g><g clip-path="url(#clip2)"><rect x="3287.5" y="1111.5" width="78" height="334" stroke="#FF0000" stroke-width="3.4375" stroke-linejoin="round" stroke-miterlimit="10" fill="#FF0000"/></g><g clip-path="url(#clip3)"><rect x="3442.5" y="1347.5" width="77" height="98" stroke="#0070C0" stroke-width="3.4375" stroke-linejoin="round" stroke-miterlimit="10" fill="#4472C4"/></g><g clip-path="url(#clip4)"><rect x="3596.5" y="1319.5" width="77" height="126" stroke="#006600" stroke-width="3.4375" stroke-linejoin="round" stroke-miterlimit="10" fill="#006600"/></g><g clip-path="url(#clip5)"><path d="M2560.5 1443.5 3024.5 1443.5M2560.5 1273.54 3024.5 1273.54M2560.5 1102.54 3024.5 1102.54M2560.5 932.531 3024.5 932.531M2560.5 762.5 3024.5 762.5" stroke="#D9D9D9" stroke-width="3.4375" stroke-linejoin="round" stroke-miterlimit="10" fill="none"/></g><g clip-path="url(#clip6)"><rect x="2599.5" y="910.5" width="77" height="533" stroke="#FF0000" stroke-width="3.4375" stroke-linejoin="round" stroke-miterlimit="10" fill="#FF0000"/></g><g clip-path="url(#clip7)"><rect x="2753.5" y="1241.5" width="78" height="202" stroke="#0070C0" stroke-width="3.4375" stroke-linejoin="round" stroke-miterlimit="10" fill="#4472C4"/></g><g clip-path="url(#clip8)"><rect x="2908.5" y="1129.5" width="77" height="314" stroke="#006600" stroke-width="3.4375" stroke-linejoin="round" stroke-miterlimit="10" fill="#006600"/></g><g clip-path="url(#clip9)"><path d="M1872.5 1446.5 2344.5 1446.5M1872.5 1275.54 2344.5 1275.54M1872.5 1103.54 2344.5 1103.54M1872.5 931.531 2344.5 931.531M1872.5 760.5 2344.5 760.5" stroke="#D9D9D9" stroke-width="3.4375" stroke-linejoin="round" stroke-miterlimit="10" fill="none"/></g><g clip-path="url(#clip10)"><rect x="1911.5" y="1101.5" width="79.0001" height="345" stroke="#FF0000" stroke-width="3.4375" stroke-linejoin="round" stroke-miterlimit="10" fill="#FF0000"/></g><g clip-path="url(#clip11)"><rect x="2068.5" y="1361.5" width="79" height="84.9999" stroke="#0070C0" stroke-width="3.4375" stroke-linejoin="round" stroke-miterlimit="10" fill="#4472C4"/></g><g clip-path="url(#clip12)"><rect x="2226.5" y="1371.5" width="78" height="74.9999" stroke="#006600" stroke-width="3.4375" stroke-linejoin="round" stroke-miterlimit="10" fill="#006600"/></g><path d="M1033.82 596.705 1085.82 596.705 1085.82 648.705 1033.82 648.705Z" stroke="#FF0000" stroke-width="8.47303" stroke-linejoin="round" stroke-miterlimit="10" fill="#FF0000" fill-rule="evenodd"/><path d="M1343.03 616.511 1356.66 616.511 1356.66 642.551C1356.66 646.176 1357.29 648.555 1358.55 649.688 1359.81 650.821 1361.33 651.387 1363.12 651.387 1364.34 651.387 1365.72 651.005 1367.26 650.24 1368.8 649.476 1370.64 648.017 1372.76 645.865L1372.76 623.818C1372.76 621.609 1372.36 620.115 1371.55 619.336 1370.74 618.557 1369.07 618.139 1366.52 618.083L1366.52 616.511 1379.77 616.511 1379.77 640.088C1379.77 644.59 1379.88 647.345 1380.09 648.35 1380.3 649.355 1380.64 650.056 1381.11 650.453 1381.58 650.849 1382.12 651.047 1382.74 651.047 1383.62 651.047 1384.61 650.807 1385.72 650.325L1386.31 651.812 1374.67 656.612 1372.76 656.612 1372.76 648.371C1369.42 651.996 1366.87 654.276 1365.11 655.211 1363.36 656.145 1361.5 656.612 1359.55 656.612 1357.37 656.612 1355.48 655.982 1353.88 654.722 1352.28 653.462 1351.17 651.84 1350.54 649.858 1349.92 647.876 1349.61 645.072 1349.61 641.447L1349.61 624.072C1349.61 622.232 1349.41 620.957 1349.01 620.249 1348.62 619.541 1348.03 618.996 1347.25 618.614 1346.47 618.231 1345.06 618.054 1343.03 618.083ZM1144.78 609.714 1134.76 632.993 1154.55 632.993ZM1261.49 601.048C1259.85 601.048 1257.63 601.317 1254.82 601.855L1254.82 625.814C1255.36 625.814 1255.83 625.821 1256.23 625.835 1256.62 625.849 1256.95 625.857 1257.2 625.857 1262.7 625.857 1266.84 624.667 1269.63 622.288 1272.42 619.909 1273.81 616.879 1273.81 613.197 1273.81 609.601 1272.69 606.677 1270.44 604.425 1268.18 602.174 1265.2 601.048 1261.49 601.048ZM1203.49 601.048C1201.85 601.048 1199.63 601.317 1196.82 601.855L1196.82 625.814C1197.36 625.814 1197.83 625.821 1198.23 625.835 1198.62 625.849 1198.95 625.857 1199.2 625.857 1204.7 625.857 1208.84 624.667 1211.63 622.288 1214.42 619.909 1215.81 616.879 1215.81 613.197 1215.81 609.601 1214.69 606.677 1212.44 604.425 1210.18 602.174 1207.2 601.048 1203.49 601.048ZM1296.34 597.819 1339.2 597.819 1339.76 610.479 1338.27 610.479C1337.53 607.788 1336.68 605.813 1335.7 604.553 1334.72 603.292 1333.52 602.379 1332.09 601.813 1330.66 601.246 1328.44 600.963 1325.44 600.963L1312.74 600.963 1312.74 623.605 1323.23 623.605C1325.64 623.605 1327.4 623.074 1328.52 622.012 1329.64 620.95 1330.38 618.847 1330.75 615.704L1332.32 615.704 1332.32 635.202 1330.75 635.202C1330.72 632.965 1330.43 631.322 1329.88 630.275 1329.33 629.227 1328.56 628.441 1327.59 627.917 1326.61 627.393 1325.16 627.131 1323.23 627.131L1312.74 627.131 1312.74 645.228C1312.74 648.145 1312.92 650.07 1313.29 651.005 1313.57 651.713 1314.17 652.322 1315.08 652.832 1316.32 653.511 1317.62 653.851 1318.98 653.851L1321.07 653.851 1321.07 655.423 1296.34 655.423 1296.34 653.851 1298.38 653.851C1300.76 653.851 1302.49 653.157 1303.56 651.77 1304.24 650.863 1304.58 648.683 1304.58 645.228L1304.58 608.015C1304.58 605.098 1304.4 603.172 1304.03 602.237 1303.75 601.529 1303.17 600.921 1302.29 600.411 1301.07 599.731 1299.77 599.391 1298.38 599.391L1296.34 599.391ZM1238.43 597.819 1259.41 597.819C1265.53 597.819 1270.04 598.266 1272.94 599.158 1275.85 600.05 1278.31 601.692 1280.33 604.085 1282.36 606.478 1283.37 609.332 1283.37 612.645 1283.37 616.185 1282.22 619.258 1279.91 621.863 1277.6 624.469 1274.03 626.31 1269.18 627.386L1281.08 643.911C1283.8 647.706 1286.13 650.226 1288.09 651.472 1290.04 652.718 1292.59 653.511 1295.73 653.851L1295.73 655.423 1280.36 655.423 1260.86 628.49C1259.41 628.547 1258.24 628.575 1257.33 628.575 1256.96 628.575 1256.57 628.568 1256.14 628.554 1255.72 628.54 1255.28 628.519 1254.82 628.49L1254.82 645.228C1254.82 648.853 1255.22 651.104 1256.01 651.982 1257.09 653.228 1258.7 653.851 1260.86 653.851L1263.11 653.851 1263.11 655.423 1238.43 655.423 1238.43 653.851 1240.59 653.851C1243.03 653.851 1244.77 653.058 1245.82 651.472 1246.41 650.594 1246.71 648.513 1246.71 645.228L1246.71 608.015C1246.71 604.39 1246.31 602.138 1245.52 601.26 1244.42 600.014 1242.77 599.391 1240.59 599.391L1238.43 599.391ZM1180.43 597.819 1201.41 597.819C1207.53 597.819 1212.04 598.266 1214.94 599.158 1217.85 600.05 1220.31 601.692 1222.33 604.085 1224.36 606.478 1225.37 609.332 1225.37 612.645 1225.37 616.185 1224.22 619.258 1221.91 621.863 1219.6 624.469 1216.03 626.31 1211.18 627.386L1223.08 643.911C1225.8 647.706 1228.13 650.226 1230.09 651.472 1232.04 652.718 1234.59 653.511 1237.73 653.851L1237.73 655.423 1222.36 655.423 1202.86 628.49C1201.41 628.547 1200.24 628.575 1199.33 628.575 1198.96 628.575 1198.57 628.568 1198.14 628.554 1197.72 628.54 1197.28 628.519 1196.82 628.49L1196.82 645.228C1196.82 648.853 1197.22 651.104 1198.01 651.982 1199.09 653.228 1200.7 653.851 1202.86 653.851L1205.11 653.851 1205.11 655.423 1180.43 655.423 1180.43 653.851 1182.59 653.851C1185.03 653.851 1186.77 653.058 1187.82 651.472 1188.41 650.594 1188.71 648.513 1188.71 645.228L1188.71 608.015C1188.71 604.39 1188.31 602.138 1187.52 601.26 1186.42 600.014 1184.77 599.391 1182.59 599.391L1180.43 599.391ZM1146.36 596.503 1147.84 596.503 1167.89 644.421C1169.51 648.272 1170.97 650.771 1172.29 651.918 1173.61 653.065 1175.44 653.71 1177.79 653.851L1177.79 655.423 1155.06 655.423 1155.06 653.851C1157.36 653.738 1158.91 653.356 1159.72 652.704 1160.52 652.053 1160.93 651.26 1160.93 650.325 1160.93 649.079 1160.36 647.111 1159.23 644.421L1155.74 636.137 1133.44 636.137 1129.53 645.228C1128.57 647.465 1128.09 649.136 1128.09 650.24 1128.09 651.118 1128.51 651.89 1129.34 652.556 1130.18 653.221 1131.98 653.653 1134.76 653.851L1134.76 655.423 1116.62 655.423 1116.62 653.851C1119.03 653.426 1120.58 652.874 1121.29 652.194 1122.74 650.835 1124.34 648.074 1126.09 643.911ZM1425.13 595.016 1427.04 595.016 1427.04 646.63C1427.04 649.065 1427.22 650.679 1427.57 651.472 1427.93 652.265 1428.47 652.867 1429.21 653.278 1429.94 653.688 1431.32 653.894 1433.33 653.894L1433.33 655.423 1414.25 655.423 1414.25 653.894C1416.04 653.894 1417.26 653.71 1417.91 653.341 1418.56 652.973 1419.07 652.364 1419.44 651.515 1419.8 650.665 1419.99 649.037 1419.99 646.63L1419.99 611.286C1419.99 606.896 1419.89 604.199 1419.69 603.193 1419.49 602.188 1419.17 601.501 1418.74 601.133 1418.3 600.765 1417.74 600.581 1417.06 600.581 1416.32 600.581 1415.39 600.807 1414.25 601.26L1413.53 599.774ZM1401.13 595.016 1403.04 595.016 1403.04 646.63C1403.04 649.065 1403.22 650.679 1403.57 651.472 1403.93 652.265 1404.47 652.867 1405.21 653.278 1405.94 653.688 1407.32 653.894 1409.33 653.894L1409.33 655.423 1390.25 655.423 1390.25 653.894C1392.04 653.894 1393.26 653.71 1393.91 653.341 1394.56 652.973 1395.07 652.364 1395.44 651.515 1395.8 650.665 1395.99 649.037 1395.99 646.63L1395.99 611.286C1395.99 606.896 1395.89 604.199 1395.69 603.193 1395.49 602.188 1395.17 601.501 1394.74 601.133 1394.3 600.765 1393.74 600.581 1393.06 600.581 1392.32 600.581 1391.39 600.807 1390.25 601.26L1389.53 599.774Z" fill-rule="evenodd"/><text fill="#000000" fill-opacity="0" font-family="Arial,Arial_MSFontService,sans-serif" font-size="61.5967" x="1116.62" y="648.913">ARRFull</text><path d="M1454.09 636.956 1442.18 668.206 1463.93 668.206ZM1452.99 630.05 1457.62 630.05 1470.8 671.206 1470.8 673.206 1436.65 673.206 1436.65 671.206Z" fill-rule="evenodd"/><text fill="#000000" fill-opacity="0" font-family="Arial,Arial_MSFontService,sans-serif" font-size="43.1562" x="1436.65" y="667.812">∆</text><path d="M1528.74 594.039 1529.89 597.31C1523.26 599.49 1518.35 603.745 1515.17 610.075 1511.98 616.405 1510.39 624.356 1510.39 633.928 1510.39 643.84 1511.98 652.01 1515.17 658.439 1518.35 664.868 1523.22 669.172 1529.76 671.353L1528.74 674.624C1520.44 672.443 1514.09 667.749 1509.67 660.542 1505.25 653.334 1503.04 644.605 1503.04 634.353 1503.04 624.129 1505.26 615.399 1509.69 608.163 1514.12 600.928 1520.47 596.219 1528.74 594.039Z" fill-rule="evenodd"/><text fill="#000000" fill-opacity="0" font-family="Arial,Arial_MSFontService,sans-serif" font-size="80.5854" x="1503.04" y="664.551">(</text><path d="M1555.02 601.133C1553.1 601.133 1551.27 601.19 1549.54 601.303L1549.54 651.472C1550.68 651.586 1552.35 651.642 1554.55 651.642 1556.93 651.642 1559.06 651.444 1560.93 651.047 1562.8 650.651 1564.5 650.028 1566.02 649.178 1567.55 648.329 1568.93 647.146 1570.15 645.631 1571.36 644.116 1572.35 642.374 1573.12 640.406 1573.88 638.438 1574.44 636.25 1574.8 633.843 1575.15 631.436 1575.33 628.802 1575.33 625.942 1575.33 620.193 1574.5 615.47 1572.84 611.774 1571.19 608.078 1568.85 605.381 1565.83 603.682 1562.82 601.983 1559.21 601.133 1555.02 601.133ZM1536.59 597.437 1555.19 597.437C1560.54 597.437 1564.93 598.025 1568.34 599.2 1571.75 600.375 1574.63 602.11 1576.98 604.404 1579.34 606.698 1581.09 609.551 1582.25 612.964 1583.41 616.376 1583.99 620.447 1583.99 625.177 1583.99 629.963 1583.45 634.176 1582.36 637.815 1581.27 641.454 1579.68 644.505 1577.58 646.969 1575.77 649.122 1573.54 650.892 1570.91 652.279 1568.73 653.412 1566.21 654.219 1563.35 654.701 1560.49 655.182 1556.69 655.423 1551.96 655.423L1536.59 655.423 1536.59 653.341C1537.89 653.002 1538.82 652.676 1539.39 652.364 1539.96 652.053 1540.39 651.656 1540.71 651.175 1541.02 650.693 1541.24 650 1541.39 649.093 1541.53 648.187 1541.6 646.757 1541.6 644.803L1541.6 608.057C1541.6 606.075 1541.53 604.638 1541.39 603.745 1541.24 602.853 1541.01 602.167 1540.69 601.685 1540.36 601.204 1539.93 600.814 1539.39 600.517 1538.85 600.22 1537.92 599.887 1536.59 599.519ZM1619.14 596.757C1621.72 596.757 1624.1 596.892 1626.28 597.161 1628.46 597.43 1630.95 597.933 1633.75 598.669L1633.75 610.436 1629.55 610.436C1628.87 607.972 1628 606.011 1626.96 604.553 1625.91 603.094 1624.69 602.053 1623.3 601.43 1621.91 600.807 1620.24 600.496 1618.29 600.496 1615.37 600.496 1612.77 601.466 1610.49 603.406 1608.21 605.346 1606.42 608.263 1605.12 612.157 1603.82 616.051 1603.17 620.759 1603.17 626.281 1603.17 631.832 1603.7 636.569 1604.78 640.491 1605.86 644.413 1607.44 647.373 1609.54 649.37 1611.63 651.366 1614.21 652.364 1617.27 652.364 1619.59 652.364 1621.49 652.032 1622.96 651.366 1624.44 650.701 1625.67 649.646 1626.68 648.201 1627.69 646.757 1628.64 644.633 1629.55 641.829L1633.75 641.829 1633.75 653.979C1631.09 654.687 1628.36 655.218 1625.58 655.572 1622.79 655.926 1619.72 656.103 1616.38 656.103 1609.18 656.103 1603.75 653.667 1600.07 648.796 1596.38 643.925 1594.54 636.661 1594.54 627.004 1594.54 620.943 1595.5 615.633 1597.41 611.073 1599.32 606.514 1602.13 602.988 1605.84 600.496 1609.55 598.004 1613.99 596.757 1619.14 596.757Z" fill-rule="evenodd"/><text fill="#000000" fill-opacity="0" font-family="Arial,Arial_MSFontService,sans-serif" font-size="59.3452" x="1536.59" y="648.685">DC</text><path d="M1641.38 594.039C1649.65 596.219 1656.01 600.928 1660.44 608.163 1664.87 615.399 1667.09 624.129 1667.09 634.353 1667.09 644.605 1664.88 653.334 1660.46 660.542 1656.04 667.749 1649.68 672.443 1641.38 674.624L1640.37 671.353C1646.91 669.172 1651.77 664.868 1654.96 658.439 1658.14 652.01 1659.74 643.84 1659.74 633.928 1659.74 624.356 1658.15 616.405 1654.98 610.075 1651.81 603.745 1646.89 599.49 1640.24 597.31Z" fill-rule="evenodd"/><text fill="#000000" fill-opacity="0" font-family="Arial,Arial_MSFontService,sans-serif" font-size="80.5854" x="1640.24" y="664.551">)</text><path d="M1876.82 596.708 1928.82 596.708 1928.82 645.708 1876.82 645.708Z" stroke="#0070C0" stroke-width="8.47303" stroke-linejoin="round" stroke-miterlimit="10" fill="#4472C4" fill-rule="evenodd"/><path d="M2266.01 615.069C2263.66 615.069 2261.56 615.983 2259.71 617.809 2257.85 619.636 2256.77 622.178 2256.46 625.435L2274.47 625.435C2274.33 622.942 2274.03 621.186 2273.58 620.167 2272.87 618.581 2271.81 617.335 2270.41 616.429 2269.01 615.522 2267.54 615.069 2266.01 615.069ZM2216.43 612.096 2218.26 612.096 2218.26 620.337C2222.82 614.843 2227.16 612.096 2231.3 612.096 2233.42 612.096 2235.25 612.627 2236.78 613.689 2238.31 614.751 2239.53 616.499 2240.43 618.935 2241.05 620.634 2241.37 623.24 2241.37 626.751L2241.37 643.361C2241.37 645.825 2241.56 647.496 2241.96 648.374 2242.27 649.082 2242.77 649.634 2243.47 650.031 2244.16 650.427 2245.44 650.625 2247.31 650.625L2247.31 652.155 2228.07 652.155 2228.07 650.625 2228.88 650.625C2230.69 650.625 2231.96 650.349 2232.68 649.797 2233.4 649.245 2233.9 648.431 2234.19 647.354 2234.3 646.93 2234.36 645.599 2234.36 643.361L2234.36 627.431C2234.36 623.891 2233.9 621.321 2232.98 619.721 2232.06 618.121 2230.51 617.321 2228.32 617.321 2224.95 617.321 2221.6 619.162 2218.26 622.843L2218.26 643.361C2218.26 645.995 2218.41 647.623 2218.72 648.247 2219.12 649.068 2219.67 649.67 2220.36 650.052 2221.05 650.434 2222.46 650.625 2224.59 650.625L2224.59 652.155 2205.34 652.155 2205.34 650.625 2206.19 650.625C2208.17 650.625 2209.51 650.123 2210.21 649.117 2210.9 648.112 2211.25 646.193 2211.25 643.361L2211.25 628.918C2211.25 624.245 2211.14 621.399 2210.93 620.379 2210.72 619.36 2210.39 618.666 2209.95 618.298 2209.51 617.93 2208.93 617.746 2208.19 617.746 2207.4 617.746 2206.45 617.958 2205.34 618.383L2204.71 616.853ZM2268.39 612.053C2272.75 612.053 2276.34 613.49 2279.14 616.365 2281.94 619.239 2283.35 623.084 2283.35 627.898L2256.46 627.898C2256.43 633.676 2257.83 638.207 2260.66 641.492 2263.49 644.777 2266.82 646.42 2270.64 646.42 2273.19 646.42 2275.41 645.719 2277.29 644.317 2279.18 642.915 2280.76 640.515 2282.03 637.117L2283.35 637.966C2282.75 641.846 2281.02 645.379 2278.16 648.565 2275.3 651.751 2271.72 653.344 2267.42 653.344 2262.74 653.344 2258.74 651.525 2255.42 647.885 2252.09 644.246 2250.42 639.354 2250.42 633.208 2250.42 626.553 2252.13 621.363 2255.54 617.639 2258.96 613.915 2263.24 612.053 2268.39 612.053ZM1991.04 606.446 1981.01 629.725 2000.81 629.725ZM2107.75 597.78C2106.11 597.78 2103.88 598.049 2101.08 598.587L2101.08 622.546C2101.62 622.546 2102.09 622.553 2102.48 622.567 2102.88 622.581 2103.2 622.588 2103.46 622.588 2108.95 622.588 2113.09 621.399 2115.88 619.02 2118.67 616.641 2120.07 613.611 2120.07 609.929 2120.07 606.332 2118.94 603.408 2116.69 601.157 2114.44 598.905 2111.46 597.78 2107.75 597.78ZM2049.75 597.78C2048.11 597.78 2045.88 598.049 2043.08 598.587L2043.08 622.546C2043.62 622.546 2044.09 622.553 2044.48 622.567 2044.88 622.581 2045.2 622.588 2045.46 622.588 2050.95 622.588 2055.09 621.399 2057.88 619.02 2060.67 616.641 2062.07 613.611 2062.07 609.929 2062.07 606.332 2060.94 603.408 2058.69 601.157 2056.44 598.905 2053.46 597.78 2049.75 597.78ZM2172.21 596.335C2167.05 596.335 2162.92 598.247 2159.8 602.07 2155.92 606.828 2153.98 613.795 2153.98 622.971 2153.98 632.373 2155.99 639.609 2160.01 644.678 2163.1 648.53 2167.18 650.456 2172.25 650.456 2177.66 650.456 2182.13 648.346 2185.65 644.126 2189.18 639.906 2190.94 633.251 2190.94 624.16 2190.94 614.305 2189 606.956 2185.12 602.113 2182.01 598.261 2177.7 596.335 2172.21 596.335ZM2285.05 594.551 2300.68 594.551 2335.9 637.754 2335.9 604.534C2335.9 600.994 2335.5 598.785 2334.71 597.907 2333.66 596.718 2332 596.123 2329.74 596.123L2327.74 596.123 2327.74 594.551 2347.79 594.551 2347.79 596.123 2345.75 596.123C2343.32 596.123 2341.59 596.859 2340.57 598.332 2339.95 599.238 2339.64 601.306 2339.64 604.534L2339.64 653.089 2338.11 653.089 2300.13 606.701 2300.13 642.172C2300.13 645.712 2300.51 647.921 2301.28 648.799 2302.35 649.988 2304.01 650.583 2306.25 650.583L2308.29 650.583 2308.29 652.155 2288.23 652.155 2288.23 650.583 2290.23 650.583C2292.7 650.583 2294.44 649.847 2295.46 648.374 2296.08 647.468 2296.39 645.4 2296.39 642.172L2296.39 602.113C2294.72 600.159 2293.45 598.87 2292.59 598.247 2291.73 597.624 2290.46 597.043 2288.79 596.505 2287.97 596.25 2286.72 596.123 2285.05 596.123ZM2084.68 594.551 2105.67 594.551C2111.78 594.551 2116.29 594.997 2119.2 595.889 2122.1 596.781 2124.56 598.424 2126.59 600.817 2128.61 603.21 2129.63 606.063 2129.63 609.377 2129.63 612.917 2128.47 615.99 2126.16 618.595 2123.86 621.201 2120.28 623.041 2115.44 624.118L2127.33 640.643C2130.05 644.437 2132.39 646.958 2134.34 648.204 2136.3 649.45 2138.84 650.243 2141.99 650.583L2141.99 652.155 2126.61 652.155 2107.11 625.222C2105.67 625.279 2104.49 625.307 2103.59 625.307 2103.22 625.307 2102.82 625.3 2102.4 625.286 2101.97 625.272 2101.53 625.25 2101.08 625.222L2101.08 641.959C2101.08 645.584 2101.48 647.836 2102.27 648.714 2103.35 649.96 2104.96 650.583 2107.11 650.583L2109.36 650.583 2109.36 652.155 2084.68 652.155 2084.68 650.583 2086.85 650.583C2089.28 650.583 2091.03 649.79 2092.07 648.204 2092.67 647.326 2092.97 645.245 2092.97 641.959L2092.97 604.747C2092.97 601.122 2092.57 598.87 2091.78 597.992 2090.67 596.746 2089.03 596.123 2086.85 596.123L2084.68 596.123ZM2026.68 594.551 2047.67 594.551C2053.79 594.551 2058.29 594.997 2061.2 595.889 2064.1 596.781 2066.56 598.424 2068.59 600.817 2070.61 603.21 2071.63 606.063 2071.63 609.377 2071.63 612.917 2070.47 615.99 2068.16 618.595 2065.86 621.201 2062.28 623.041 2057.44 624.118L2069.33 640.643C2072.05 644.437 2074.39 646.958 2076.34 648.204 2078.3 649.45 2080.85 650.243 2083.99 650.583L2083.99 652.155 2068.61 652.155 2049.11 625.222C2047.67 625.279 2046.49 625.307 2045.59 625.307 2045.22 625.307 2044.82 625.3 2044.4 625.286 2043.97 625.272 2043.53 625.25 2043.08 625.222L2043.08 641.959C2043.08 645.584 2043.48 647.836 2044.27 648.714 2045.35 649.96 2046.96 650.583 2049.11 650.583L2051.36 650.583 2051.36 652.155 2026.68 652.155 2026.68 650.583 2028.85 650.583C2031.28 650.583 2033.03 649.79 2034.07 648.204 2034.67 647.326 2034.97 645.245 2034.97 641.959L2034.97 604.747C2034.97 601.122 2034.57 598.87 2033.78 597.992 2032.67 596.746 2031.03 596.123 2028.85 596.123L2026.68 596.123ZM2371.5 593.234C2374.56 593.234 2377.8 593.985 2381.23 595.486 2382.81 596.194 2383.93 596.548 2384.58 596.548 2385.32 596.548 2385.92 596.328 2386.39 595.889 2386.85 595.45 2387.23 594.565 2387.51 593.234L2389.08 593.234 2389.08 613.158 2387.51 613.158C2387 609.334 2386.09 606.29 2384.77 604.024 2383.46 601.759 2381.58 599.96 2379.14 598.629 2376.71 597.298 2374.19 596.633 2371.58 596.633 2368.64 596.633 2366.2 597.532 2364.28 599.33 2362.35 601.129 2361.39 603.175 2361.39 605.469 2361.39 607.225 2362 608.825 2363.21 610.269 2364.97 612.393 2369.15 615.225 2375.75 618.765 2381.13 621.654 2384.8 623.87 2386.77 625.413 2388.74 626.957 2390.25 628.776 2391.31 630.872 2392.38 632.968 2392.91 635.163 2392.91 637.456 2392.91 641.818 2391.22 645.577 2387.83 648.735 2384.45 651.893 2380.09 653.472 2374.77 653.472 2373.1 653.472 2371.53 653.344 2370.05 653.089 2369.18 652.948 2367.36 652.431 2364.59 651.539 2361.83 650.647 2360.08 650.201 2359.35 650.201 2358.64 650.201 2358.08 650.413 2357.67 650.838 2357.26 651.263 2356.96 652.141 2356.76 653.472L2355.19 653.472 2355.19 633.718 2356.76 633.718C2357.49 637.853 2358.48 640.947 2359.73 643 2360.98 645.053 2362.88 646.76 2365.44 648.119 2368.01 649.478 2370.82 650.158 2373.88 650.158 2377.42 650.158 2380.21 649.224 2382.27 647.354 2384.32 645.485 2385.35 643.276 2385.35 640.727 2385.35 639.311 2384.96 637.881 2384.18 636.437 2383.4 634.993 2382.19 633.647 2380.55 632.401 2379.44 631.552 2376.43 629.746 2371.5 626.985 2366.57 624.224 2363.07 622.022 2360.98 620.379 2358.9 618.737 2357.32 616.924 2356.25 614.942 2355.17 612.959 2354.63 610.779 2354.63 608.4 2354.63 604.265 2356.22 600.704 2359.39 597.716 2362.56 594.728 2366.6 593.234 2371.5 593.234ZM2173.01 593.234C2180.49 593.234 2186.97 596.073 2192.45 601.752 2197.93 607.43 2200.67 614.517 2200.67 623.013 2200.67 631.764 2197.91 639.028 2192.38 644.806 2186.86 650.583 2180.18 653.472 2172.33 653.472 2164.4 653.472 2157.74 650.654 2152.35 645.018 2146.95 639.382 2144.25 632.09 2144.25 623.141 2144.25 613.993 2147.37 606.531 2153.6 600.753 2159.01 595.741 2165.48 593.234 2173.01 593.234ZM1992.61 593.234 1994.1 593.234 2014.15 641.152C2015.76 645.004 2017.23 647.503 2018.55 648.65 2019.86 649.797 2021.7 650.441 2024.05 650.583L2024.05 652.155 2001.32 652.155 2001.32 650.583C2003.61 650.47 2005.16 650.087 2005.97 649.436 2006.78 648.785 2007.18 647.992 2007.18 647.057 2007.18 645.811 2006.62 643.843 2005.48 641.152L2002 632.869 1979.7 632.869 1975.79 641.959C1974.83 644.197 1974.35 645.868 1974.35 646.972 1974.35 647.85 1974.76 648.622 1975.6 649.287 1976.43 649.953 1978.24 650.385 1981.01 650.583L1981.01 652.155 1962.88 652.155 1962.88 650.583C1965.28 650.158 1966.84 649.606 1967.55 648.926 1968.99 647.567 1970.59 644.806 1972.35 640.643Z" fill-rule="evenodd"/><text fill="#000000" fill-opacity="0" font-family="Arial,Arial_MSFontService,sans-serif" font-size="60.2373" x="1962.88" y="645.942">ARROneNS</text><path d="M2416.64 633.688 2404.74 664.938 2426.49 664.938ZM2415.55 626.782 2420.17 626.782 2433.36 667.938 2433.36 669.938 2399.21 669.938 2399.21 667.938Z" fill-rule="evenodd"/><text fill="#000000" fill-opacity="0" font-family="Arial,Arial_MSFontService,sans-serif" font-size="43.1562" x="2399.21" y="664.544">∆</text><path d="M2491.3 590.77 2492.45 594.041C2485.82 596.222 2480.91 600.477 2477.73 606.807 2474.54 613.136 2472.95 621.087 2472.95 630.66 2472.95 640.572 2474.54 648.742 2477.73 655.171 2480.91 661.6 2485.78 665.904 2492.32 668.085L2491.3 671.356C2483 669.175 2476.64 664.481 2472.23 657.274 2467.81 650.066 2465.6 641.336 2465.6 631.084 2465.6 620.861 2467.81 612.131 2472.25 604.895 2476.68 597.659 2483.03 592.951 2491.3 590.77Z" fill-rule="evenodd"/><text fill="#000000" fill-opacity="0" font-family="Arial,Arial_MSFontService,sans-serif" font-size="80.5854" x="2465.6" y="661.283">(</text><path d="M2517.58 597.865C2515.65 597.865 2513.83 597.921 2512.1 598.035L2512.1 648.204C2513.23 648.317 2514.9 648.374 2517.11 648.374 2519.49 648.374 2521.62 648.176 2523.48 647.779 2525.35 647.383 2527.05 646.76 2528.58 645.91 2530.11 645.06 2531.49 643.878 2532.7 642.363 2533.92 640.848 2534.91 639.106 2535.68 637.138 2536.44 635.17 2537 632.982 2537.35 630.575 2537.71 628.167 2537.89 625.534 2537.89 622.673 2537.89 616.924 2537.06 612.202 2535.4 608.506 2533.74 604.81 2531.41 602.113 2528.39 600.414 2525.38 598.714 2521.77 597.865 2517.58 597.865ZM2499.14 594.169 2517.75 594.169C2523.1 594.169 2527.48 594.757 2530.9 595.932 2534.31 597.107 2537.19 598.842 2539.54 601.136 2541.89 603.43 2543.65 606.283 2544.81 609.695 2545.97 613.108 2546.55 617.179 2546.55 621.909 2546.55 626.695 2546.01 630.907 2544.92 634.547 2543.83 638.186 2542.23 641.237 2540.14 643.701 2538.32 645.853 2536.1 647.623 2533.47 649.011 2531.29 650.144 2528.77 650.951 2525.91 651.433 2523.05 651.914 2519.25 652.155 2514.52 652.155L2499.14 652.155 2499.14 650.073C2500.45 649.733 2501.38 649.408 2501.95 649.096 2502.51 648.785 2502.95 648.388 2503.26 647.907 2503.58 647.425 2503.8 646.731 2503.94 645.825 2504.09 644.919 2504.16 643.489 2504.16 641.535L2504.16 604.789C2504.16 602.807 2504.09 601.369 2503.94 600.477 2503.8 599.585 2503.57 598.898 2503.24 598.417 2502.92 597.935 2502.49 597.546 2501.95 597.249 2501.41 596.951 2500.47 596.619 2499.14 596.25ZM2581.7 593.489C2584.27 593.489 2586.65 593.624 2588.83 593.893 2591.01 594.162 2593.51 594.664 2596.31 595.401L2596.31 607.168 2592.1 607.168C2591.43 604.704 2590.56 602.743 2589.51 601.284 2588.47 599.826 2587.25 598.785 2585.86 598.162 2584.47 597.539 2582.8 597.227 2580.85 597.227 2577.93 597.227 2575.33 598.197 2573.05 600.137 2570.77 602.077 2568.98 604.994 2567.68 608.888 2566.38 612.782 2565.72 617.491 2565.72 623.013 2565.72 628.564 2566.26 633.3 2567.34 637.223 2568.41 641.145 2570 644.105 2572.1 646.101 2574.19 648.098 2576.77 649.096 2579.83 649.096 2582.15 649.096 2584.05 648.763 2585.52 648.098 2586.99 647.432 2588.23 646.377 2589.24 644.933 2590.24 643.489 2591.2 641.365 2592.1 638.561L2596.31 638.561 2596.31 650.71C2593.65 651.418 2590.92 651.949 2588.13 652.303 2585.34 652.657 2582.28 652.834 2578.94 652.834 2571.74 652.834 2566.3 650.399 2562.62 645.528 2558.94 640.657 2557.1 633.393 2557.1 623.735 2557.1 617.675 2558.06 612.365 2559.97 607.805 2561.88 603.246 2564.69 599.72 2568.4 597.227 2572.11 594.735 2576.54 593.489 2581.7 593.489Z" fill-rule="evenodd"/><text fill="#000000" fill-opacity="0" font-family="Arial,Arial_MSFontService,sans-serif" font-size="59.3452" x="2499.14" y="645.416">DC</text><path d="M2603.94 590.77C2612.21 592.951 2618.56 597.659 2622.99 604.895 2627.43 612.131 2629.64 620.861 2629.64 631.084 2629.64 641.336 2627.43 650.066 2623.02 657.274 2618.6 664.481 2612.24 669.175 2603.94 671.356L2602.92 668.085C2609.46 665.904 2614.33 661.6 2617.51 655.171 2620.7 648.742 2622.29 640.572 2622.29 630.66 2622.29 621.087 2620.71 613.136 2617.54 606.807 2614.36 600.477 2609.45 596.222 2602.8 594.041Z" fill-rule="evenodd"/><text fill="#000000" fill-opacity="0" font-family="Arial,Arial_MSFontService,sans-serif" font-size="80.5854" x="2602.8" y="661.283">)</text><path d="M2839.82 596.705 2891.82 596.705 2891.82 648.705 2839.82 648.705Z" stroke="#006600" stroke-width="8.47303" stroke-linejoin="round" stroke-miterlimit="10" fill="#006600" fill-rule="evenodd"/><path d="M3233.59 614.989C3232.09 614.989 3230.58 615.435 3229.07 616.327 3227.55 617.219 3226.33 618.784 3225.39 621.021 3224.46 623.258 3223.99 626.133 3223.99 629.644 3223.99 635.308 3225.12 640.194 3227.37 644.3 3229.62 648.407 3232.59 650.46 3236.27 650.46 3239.01 650.46 3241.28 649.327 3243.06 647.061 3244.85 644.796 3245.74 640.902 3245.74 635.379 3245.74 628.469 3244.25 623.032 3241.28 619.067 3239.27 616.348 3236.71 614.989 3233.59 614.989ZM3150.71 613.374 3167.02 613.374 3167.02 614.946C3165.52 615.059 3164.54 615.328 3164.07 615.753 3163.6 616.178 3163.37 616.787 3163.37 617.58 3163.37 618.458 3163.61 619.52 3164.09 620.766L3172.42 643.153 3180.79 624.929 3178.58 619.194C3177.9 617.495 3177.01 616.32 3175.9 615.668 3175.28 615.272 3174.12 615.031 3172.42 614.946L3172.42 613.374 3190.94 613.374 3190.94 614.946C3188.9 615.031 3187.46 615.399 3186.61 616.051 3186.04 616.504 3185.76 617.226 3185.76 618.217 3185.76 618.784 3185.87 619.364 3186.1 619.959L3194.93 642.304 3203.13 620.766C3203.7 619.237 3203.98 618.019 3203.98 617.113 3203.98 616.575 3203.7 616.093 3203.15 615.668 3202.6 615.243 3201.52 615.003 3199.9 614.946L3199.9 613.374 3212.18 613.374 3212.18 614.946C3209.72 615.314 3207.9 616.985 3206.74 619.959L3193.74 653.476 3192 653.476 3182.27 628.625 3170.93 653.476 3169.36 653.476 3156.87 620.766C3156.05 618.699 3155.24 617.304 3154.45 616.582 3153.66 615.859 3152.41 615.314 3150.71 614.946ZM3234.91 612.227C3240.8 612.227 3245.53 614.465 3249.1 618.939 3252.13 622.763 3253.64 627.152 3253.64 632.108 3253.64 635.592 3252.81 639.117 3251.14 642.686 3249.46 646.254 3247.16 648.945 3244.23 650.757 3241.3 652.57 3238.04 653.476 3234.44 653.476 3228.58 653.476 3223.92 651.139 3220.46 646.467 3217.55 642.53 3216.09 638.112 3216.09 633.213 3216.09 629.644 3216.97 626.097 3218.74 622.571 3220.51 619.045 3222.84 616.44 3225.73 614.755 3228.62 613.07 3231.68 612.227 3234.91 612.227ZM2947 606.577 2936.98 629.857 2956.77 629.857ZM3063.71 597.911C3062.07 597.911 3059.85 598.18 3057.04 598.719L3057.04 622.678C3057.58 622.678 3058.05 622.685 3058.44 622.699 3058.84 622.713 3059.17 622.72 3059.42 622.72 3064.92 622.72 3069.06 621.531 3071.85 619.152 3074.64 616.773 3076.03 613.742 3076.03 610.061 3076.03 606.464 3074.91 603.54 3072.65 601.289 3070.4 599.037 3067.42 597.911 3063.71 597.911ZM3005.71 597.911C3004.07 597.911 3001.85 598.18 2999.04 598.719L2999.04 622.678C2999.58 622.678 3000.05 622.685 3000.44 622.699 3000.84 622.713 3001.17 622.72 3001.42 622.72 3006.92 622.72 3011.06 621.531 3013.85 619.152 3016.64 616.773 3018.03 613.742 3018.03 610.061 3018.03 606.464 3016.91 603.54 3014.65 601.289 3012.4 599.037 3009.42 597.911 3005.71 597.911ZM3256.01 594.683 3271.64 594.683 3306.86 637.886 3306.86 604.666C3306.86 601.126 3306.46 598.917 3305.67 598.039 3304.62 596.849 3302.97 596.255 3300.7 596.255L3298.7 596.255 3298.7 594.683 3318.75 594.683 3318.75 596.255 3316.72 596.255C3314.28 596.255 3312.55 596.991 3311.53 598.464 3310.91 599.37 3310.6 601.437 3310.6 604.666L3310.6 653.221 3309.07 653.221 3271.09 606.832 3271.09 642.304C3271.09 645.844 3271.47 648.053 3272.24 648.93 3273.31 650.12 3274.97 650.715 3277.21 650.715L3279.25 650.715 3279.25 652.286 3259.2 652.286 3259.2 650.715 3261.19 650.715C3263.66 650.715 3265.4 649.978 3266.42 648.506 3267.04 647.599 3267.35 645.532 3267.35 642.304L3267.35 602.244C3265.68 600.29 3264.41 599.002 3263.55 598.379 3262.69 597.756 3261.42 597.175 3259.75 596.637 3258.93 596.382 3257.68 596.255 3256.01 596.255ZM3100.47 594.683 3147.5 594.683 3148.13 608.192 3146.52 608.192C3146.21 605.813 3145.78 604.114 3145.25 603.094 3144.37 601.451 3143.2 600.241 3141.74 599.462 3140.28 598.683 3138.36 598.294 3135.98 598.294L3127.87 598.294 3127.87 642.304C3127.87 645.844 3128.25 648.053 3129.02 648.93 3130.09 650.12 3131.75 650.715 3133.99 650.715L3135.98 650.715 3135.98 652.286 3111.56 652.286 3111.56 650.715 3113.6 650.715C3116.03 650.715 3117.76 649.978 3118.78 648.506 3119.4 647.599 3119.71 645.532 3119.71 642.304L3119.71 598.294 3112.79 598.294C3110.1 598.294 3108.19 598.492 3107.06 598.888 3105.58 599.427 3104.32 600.46 3103.27 601.99 3102.23 603.519 3101.6 605.586 3101.41 608.192L3099.79 608.192ZM3040.64 594.683 3061.63 594.683C3067.75 594.683 3072.26 595.129 3075.16 596.021 3078.06 596.913 3080.53 598.556 3082.55 600.949 3084.58 603.342 3085.59 606.195 3085.59 609.509 3085.59 613.049 3084.43 616.121 3082.13 618.727 3079.82 621.332 3076.24 623.173 3071.4 624.249L3083.29 640.774C3086.01 644.569 3088.35 647.09 3090.3 648.336 3092.26 649.582 3094.81 650.375 3097.95 650.715L3097.95 652.286 3082.57 652.286 3063.07 625.354C3061.63 625.41 3060.45 625.439 3059.55 625.439 3059.18 625.439 3058.78 625.432 3058.36 625.418 3057.93 625.403 3057.5 625.382 3057.04 625.354L3057.04 642.091C3057.04 645.716 3057.44 647.968 3058.23 648.846 3059.31 650.092 3060.92 650.715 3063.07 650.715L3065.33 650.715 3065.33 652.286 3040.64 652.286 3040.64 650.715 3042.81 650.715C3045.25 650.715 3046.99 649.922 3048.04 648.336 3048.63 647.458 3048.93 645.376 3048.93 642.091L3048.93 604.878C3048.93 601.253 3048.53 599.002 3047.74 598.124 3046.63 596.878 3044.99 596.255 3042.81 596.255L3040.64 596.255ZM2982.64 594.683 3003.63 594.683C3009.75 594.683 3014.26 595.129 3017.16 596.021 3020.06 596.913 3022.53 598.556 3024.55 600.949 3026.58 603.342 3027.59 606.195 3027.59 609.509 3027.59 613.049 3026.43 616.121 3024.13 618.727 3021.82 621.332 3018.24 623.173 3013.4 624.249L3025.29 640.774C3028.01 644.569 3030.35 647.09 3032.3 648.336 3034.26 649.582 3036.81 650.375 3039.95 650.715L3039.95 652.286 3024.57 652.286 3005.07 625.354C3003.63 625.41 3002.45 625.439 3001.55 625.439 3001.18 625.439 3000.78 625.432 3000.36 625.418 2999.93 625.403 2999.5 625.382 2999.04 625.354L2999.04 642.091C2999.04 645.716 2999.44 647.968 3000.23 648.846 3001.31 650.092 3002.92 650.715 3005.07 650.715L3007.33 650.715 3007.33 652.286 2982.64 652.286 2982.64 650.715 2984.81 650.715C2987.25 650.715 2988.99 649.922 2990.04 648.336 2990.63 647.458 2990.93 645.376 2990.93 642.091L2990.93 604.878C2990.93 601.253 2990.53 599.002 2989.74 598.124 2988.63 596.878 2986.99 596.255 2984.81 596.255L2982.64 596.255ZM3342.46 593.366C3345.52 593.366 3348.76 594.117 3352.19 595.617 3353.77 596.326 3354.89 596.68 3355.54 596.68 3356.28 596.68 3356.88 596.46 3357.35 596.021 3357.82 595.582 3358.19 594.697 3358.48 593.366L3360.05 593.366 3360.05 613.289 3358.48 613.289C3357.97 609.466 3357.05 606.422 3355.74 604.156 3354.42 601.89 3352.54 600.092 3350.11 598.761 3347.67 597.43 3345.15 596.764 3342.54 596.764 3339.6 596.764 3337.16 597.664 3335.24 599.462 3333.31 601.26 3332.35 603.306 3332.35 605.6 3332.35 607.356 3332.96 608.956 3334.18 610.401 3335.93 612.525 3340.11 615.357 3346.71 618.897 3352.09 621.785 3355.76 624.002 3357.73 625.545 3359.7 627.088 3361.22 628.908 3362.28 631.004 3363.34 633.099 3363.87 635.294 3363.87 637.588 3363.87 641.95 3362.18 645.709 3358.79 648.867 3355.41 652.024 3351.06 653.603 3345.73 653.603 3344.06 653.603 3342.49 653.476 3341.02 653.221 3340.14 653.079 3338.32 652.563 3335.56 651.67 3332.8 650.778 3331.05 650.332 3330.31 650.332 3329.6 650.332 3329.04 650.545 3328.63 650.97 3328.22 651.394 3327.92 652.272 3327.72 653.603L3326.15 653.603 3326.15 633.85 3327.72 633.85C3328.46 637.985 3329.45 641.079 3330.69 643.132 3331.94 645.185 3333.84 646.891 3336.41 648.251 3338.97 649.61 3341.78 650.29 3344.84 650.29 3348.38 650.29 3351.18 649.355 3353.23 647.486 3355.28 645.617 3356.31 643.408 3356.31 640.859 3356.31 639.443 3355.92 638.013 3355.14 636.569 3354.36 635.124 3353.15 633.779 3351.51 632.533 3350.4 631.683 3347.39 629.878 3342.46 627.117 3337.53 624.356 3334.03 622.154 3331.95 620.511 3329.86 618.868 3328.29 617.056 3327.21 615.074 3326.13 613.091 3325.6 610.91 3325.6 608.532 3325.6 604.397 3327.18 600.836 3330.35 597.848 3333.52 594.86 3337.56 593.366 3342.46 593.366ZM2948.57 593.366 2950.06 593.366 2970.11 641.284C2971.73 645.136 2973.19 647.635 2974.51 648.782 2975.82 649.929 2977.66 650.573 2980.01 650.715L2980.01 652.286 2957.28 652.286 2957.28 650.715C2959.58 650.601 2961.13 650.219 2961.93 649.568 2962.74 648.916 2963.14 648.123 2963.14 647.189 2963.14 645.943 2962.58 643.974 2961.45 641.284L2957.96 633 2935.66 633 2931.75 642.091C2930.79 644.328 2930.31 645.999 2930.31 647.104 2930.31 647.982 2930.72 648.753 2931.56 649.419 2932.4 650.085 2934.2 650.516 2936.98 650.715L2936.98 652.286 2918.84 652.286 2918.84 650.715C2921.24 650.29 2922.8 649.738 2923.51 649.058 2924.95 647.699 2926.55 644.937 2928.31 640.774Z" fill-rule="evenodd"/><text fill="#000000" fill-opacity="0" font-family="Arial,Arial_MSFontService,sans-serif" font-size="60.2373" x="2918.84" y="646.074">ARRTwoNS</text><path d="M3387.5 633.82 3375.6 665.07 3397.35 665.07ZM3386.41 626.914 3391.03 626.914 3404.22 668.07 3404.22 670.07 3370.06 670.07 3370.06 668.07Z" fill-rule="evenodd"/><text fill="#000000" fill-opacity="0" font-family="Arial,Arial_MSFontService,sans-serif" font-size="43.1562" x="3370.06" y="664.675">∆</text><path d="M3462.16 590.902 3463.3 594.173C3456.68 596.354 3451.77 600.609 3448.58 606.939 3445.4 613.268 3443.81 621.219 3443.81 630.791 3443.81 640.703 3445.4 648.874 3448.58 655.303 3451.77 661.731 3456.63 666.036 3463.18 668.217L3462.16 671.488C3453.86 669.307 3447.5 664.613 3443.08 657.405 3438.67 650.198 3436.46 641.468 3436.46 631.216 3436.46 620.992 3438.67 612.263 3443.1 605.027 3447.54 597.791 3453.89 593.083 3462.16 590.902Z" fill-rule="evenodd"/><text fill="#000000" fill-opacity="0" font-family="Arial,Arial_MSFontService,sans-serif" font-size="80.5854" x="3436.46" y="661.414">(</text><path d="M3488.44 597.996C3486.51 597.996 3484.69 598.053 3482.96 598.166L3482.96 648.336C3484.09 648.449 3485.76 648.506 3487.97 648.506 3490.35 648.506 3492.47 648.307 3494.34 647.911 3496.21 647.514 3497.91 646.891 3499.44 646.042 3500.97 645.192 3502.34 644.01 3503.56 642.495 3504.78 640.98 3505.77 639.238 3506.53 637.27 3507.3 635.301 3507.86 633.114 3508.21 630.706 3508.57 628.299 3508.74 625.665 3508.74 622.805 3508.74 617.056 3507.92 612.334 3506.26 608.638 3504.6 604.942 3502.27 602.244 3499.25 600.545 3496.23 598.846 3492.63 597.996 3488.44 597.996ZM3470 594.301 3488.61 594.301C3493.96 594.301 3498.34 594.888 3501.76 596.064 3505.17 597.239 3508.05 598.973 3510.4 601.267 3512.75 603.561 3514.51 606.415 3515.67 609.827 3516.83 613.24 3517.41 617.311 3517.41 622.04 3517.41 626.826 3516.86 631.039 3515.77 634.678 3514.68 638.317 3513.09 641.369 3510.99 643.833 3509.18 645.985 3506.96 647.755 3504.33 649.143 3502.14 650.276 3499.62 651.083 3496.76 651.564 3493.9 652.046 3490.11 652.286 3485.38 652.286L3470 652.286 3470 650.205C3471.3 649.865 3472.24 649.539 3472.8 649.228 3473.37 648.916 3473.81 648.52 3474.12 648.038 3474.43 647.557 3474.66 646.863 3474.8 645.957 3474.94 645.051 3475.01 643.62 3475.01 641.666L3475.01 604.921C3475.01 602.938 3474.94 601.501 3474.8 600.609 3474.66 599.717 3474.43 599.03 3474.1 598.549 3473.77 598.067 3473.34 597.678 3472.8 597.38 3472.27 597.083 3471.33 596.75 3470 596.382ZM3552.55 593.621C3555.13 593.621 3557.51 593.755 3559.69 594.024 3561.87 594.294 3564.36 594.796 3567.17 595.533L3567.17 607.3 3562.96 607.3C3562.28 604.836 3561.42 602.875 3560.37 601.416 3559.32 599.958 3558.11 598.917 3556.72 598.294 3555.33 597.671 3553.66 597.359 3551.71 597.359 3548.79 597.359 3546.19 598.329 3543.91 600.269 3541.63 602.209 3539.84 605.126 3538.54 609.02 3537.23 612.914 3536.58 617.622 3536.58 623.145 3536.58 628.696 3537.12 633.432 3538.2 637.355 3539.27 641.277 3540.86 644.236 3542.95 646.233 3545.05 648.23 3547.63 649.228 3550.69 649.228 3553.01 649.228 3554.91 648.895 3556.38 648.23 3557.85 647.564 3559.09 646.509 3560.1 645.065 3561.1 643.62 3562.06 641.496 3562.96 638.693L3567.17 638.693 3567.17 650.842C3564.51 651.55 3561.78 652.081 3558.99 652.435 3556.2 652.789 3553.14 652.966 3549.79 652.966 3542.6 652.966 3537.16 650.531 3533.48 645.659 3529.8 640.788 3527.96 633.524 3527.96 623.867 3527.96 617.806 3528.91 612.496 3530.83 607.937 3532.74 603.377 3535.55 599.851 3539.26 597.359 3542.97 594.867 3547.4 593.621 3552.55 593.621Z" fill-rule="evenodd"/><text fill="#000000" fill-opacity="0" font-family="Arial,Arial_MSFontService,sans-serif" font-size="59.3452" x="3470" y="645.548">DC</text><path d="M3574.8 590.902C3583.07 593.083 3589.42 597.791 3593.85 605.027 3598.28 612.263 3600.5 620.992 3600.5 631.216 3600.5 641.468 3598.29 650.198 3593.87 657.405 3589.46 664.613 3583.1 669.307 3574.8 671.488L3573.78 668.217C3580.32 666.036 3585.19 661.731 3588.37 655.303 3591.56 648.874 3593.15 640.703 3593.15 630.791 3593.15 621.219 3591.57 613.268 3588.39 606.939 3585.22 600.609 3580.31 596.354 3573.65 594.173Z" fill-rule="evenodd"/><text fill="#000000" fill-opacity="0" font-family="Arial,Arial_MSFontService,sans-serif" font-size="80.5854" x="3573.65" y="661.414">)</text><g clip-path="url(#clip13)"><path d="M1201.5 1451.5 1664.5 1451.5M1201.5 1278.54 1664.5 1278.54M1201.5 1104.54 1664.5 1104.54M1201.5 931.531 1664.5 931.531M1201.5 758.5 1664.5 758.5" stroke="#D9D9D9" stroke-width="3.4375" stroke-linejoin="round" stroke-miterlimit="10" fill="none"/></g><g clip-path="url(#clip14)"><rect x="1240.5" y="779.5" width="77" height="672" stroke="#FF0000" stroke-width="3.4375" stroke-linejoin="round" stroke-miterlimit="10" fill="#FF0000"/></g><g clip-path="url(#clip15)"><rect x="1394.5" y="1225.5" width="77" height="226" stroke="#0070C0" stroke-width="3.4375" stroke-linejoin="round" stroke-miterlimit="10" fill="#4472C4"/></g><g clip-path="url(#clip16)"><rect x="1548.5" y="1233.5" width="77" height="218" stroke="#006600" stroke-width="3.4375" stroke-linejoin="round" stroke-miterlimit="10" fill="#006600"/></g><text font-family="Times New Roman,Times New Roman_MSFontService,sans-serif" font-weight="400" font-size="92" transform="matrix(-1.83697e-16 -1 1 -1.83697e-16 1010.11 1366)">Relative Error</text><text font-family="Times New Roman,Times New Roman_MSFontService,sans-serif" font-weight="400" font-size="83" transform="matrix(1 0 0 1 1040.62 785)">0.08<tspan font-weight="700" font-size="92" x="126.293" y="768">Gplus</tspan><tspan font-weight="700" font-size="92" x="382.959" y="768">(</tspan></text><path d="M1480.9 1509.52C1485.21 1509.52 1489.73 1510.24 1494.46 1511.67L1492.76 1519.85 1488.53 1519.85C1488 1515.33 1485.34 1513.07 1480.58 1513.07 1477.86 1513.07 1475.63 1513.84 1473.89 1515.38 1472.15 1516.92 1471.28 1519.04 1471.28 1521.74 1471.28 1523.68 1472.06 1525.24 1473.6 1526.41 1475.14 1527.58 1477.26 1528.16 1479.95 1528.16L1486.33 1528.16 1485.3 1532.79 1480.81 1532.79C1478.53 1532.79 1476.66 1532.94 1475.19 1533.24 1473.73 1533.54 1472.35 1534.02 1471.06 1534.7 1469.77 1535.37 1468.76 1536.09 1468.03 1536.85 1467.29 1537.62 1466.75 1538.48 1466.39 1539.44 1466.03 1540.39 1465.85 1541.49 1465.85 1542.72 1465.85 1544.81 1466.57 1546.41 1468.01 1547.52 1469.44 1548.63 1471.51 1549.18 1474.2 1549.18 1476.57 1549.18 1478.85 1548.85 1481.05 1548.17 1483.26 1547.5 1485.75 1546.22 1488.53 1544.33L1490.74 1547.84C1487.62 1549.99 1484.56 1551.55 1481.55 1552.51 1478.54 1553.47 1475.39 1553.95 1472.09 1553.95 1469.1 1553.95 1466.53 1553.44 1464.39 1552.44 1462.25 1551.44 1460.65 1550.11 1459.58 1548.44 1458.52 1546.78 1457.99 1544.95 1457.99 1542.94 1457.99 1539.86 1459.19 1537.22 1461.58 1535.03 1463.98 1532.85 1467.42 1531.28 1471.91 1530.32L1472 1529.87C1466.79 1528.13 1464.19 1525.14 1464.19 1520.88 1464.19 1518.97 1464.79 1517.15 1465.98 1515.43 1467.18 1513.7 1469.06 1512.29 1471.62 1511.18 1474.18 1510.07 1477.27 1509.52 1480.9 1509.52Z" fill-rule="evenodd"/><text fill="#000000" fill-opacity="0" font-family="Arial,Arial_MSFontService,sans-serif" font-size="44.4277" x="1457.99" y="1548.39">𝜀</text><path d="M1530.83 1533.28 1586.18 1533.28 1586.18 1539.26 1530.83 1539.26ZM1530.83 1514.64 1586.18 1514.64 1586.18 1520.61 1530.83 1520.61Z" fill-rule="evenodd"/><text fill="#000000" fill-opacity="0" font-family="Arial,Arial_MSFontService,sans-serif" font-size="24.6172" x="1530.83" y="1536.18">=</text><path d="M1647.37 1491.19 1649.84 1491.19C1649.66 1494.07 1649.57 1498.05 1649.57 1503.14L1649.57 1541.5C1649.57 1543.24 1649.67 1544.55 1649.86 1545.43 1650.06 1546.32 1650.4 1547.04 1650.89 1547.59 1651.39 1548.14 1652.1 1548.58 1653.03 1548.89 1653.96 1549.21 1655.12 1549.45 1656.53 1549.61 1657.94 1549.78 1659.8 1549.89 1662.1 1549.95L1662.1 1553.23 1628.91 1553.23 1628.91 1549.95C1632.23 1549.8 1634.6 1549.6 1636.03 1549.34 1637.45 1549.09 1638.53 1548.71 1639.28 1548.2 1640.03 1547.69 1640.58 1546.97 1640.92 1546.04 1641.27 1545.11 1641.44 1543.6 1641.44 1541.5L1641.44 1505.07C1641.44 1503.87 1641.23 1503 1640.81 1502.44 1640.39 1501.89 1639.78 1501.61 1638.97 1501.61 1638.01 1501.61 1636.65 1502.11 1634.88 1503.09 1633.11 1504.08 1630.93 1505.45 1628.32 1507.18L1626.34 1503.72Z" fill-rule="evenodd"/><text fill="#000000" fill-opacity="0" font-family="Arial,Arial_MSFontService,sans-serif" font-size="62.0371" x="1626.34" y="1545.47">1</text><text font-family="Times New Roman,Times New Roman_MSFontService,sans-serif" font-weight="700" font-size="92" transform="matrix(1 0 0 1 1669.34 1553)">)<tspan font-weight="400" font-size="83" x="-628.718" y="-590">0.06</tspan><tspan font-weight="400" font-size="83" x="-628.718" y="-418">0.04</tspan><tspan font-weight="400" font-size="83" x="-628.718" y="-241">0.02</tspan><tspan font-weight="400" font-size="83" x="-567.989" y="-69">0</tspan><tspan font-size="92" x="166.743" y="0">Gplus (</tspan></text><path d="M2150.07 1509.52C2154.38 1509.52 2158.9 1510.24 2163.63 1511.67L2161.92 1519.85 2157.7 1519.85C2157.16 1515.33 2154.51 1513.07 2149.75 1513.07 2147.03 1513.07 2144.79 1513.84 2143.06 1515.38 2141.32 1516.92 2140.45 1519.04 2140.45 1521.74 2140.45 1523.68 2141.22 1525.24 2142.77 1526.41 2144.31 1527.58 2146.43 1528.16 2149.12 1528.16L2155.5 1528.16 2154.47 1532.79 2149.98 1532.79C2147.7 1532.79 2145.83 1532.94 2144.36 1533.24 2142.89 1533.54 2141.52 1534.02 2140.23 1534.7 2138.94 1535.37 2137.93 1536.09 2137.2 1536.85 2136.46 1537.62 2135.92 1538.48 2135.56 1539.44 2135.2 1540.39 2135.02 1541.49 2135.02 1542.72 2135.02 1544.81 2135.74 1546.41 2137.17 1547.52 2138.61 1548.63 2140.68 1549.18 2143.37 1549.18 2145.74 1549.18 2148.02 1548.85 2150.22 1548.17 2152.42 1547.5 2154.92 1546.22 2157.7 1544.33L2159.9 1547.84C2156.79 1549.99 2153.73 1551.55 2150.72 1552.51 2147.71 1553.47 2144.55 1553.95 2141.26 1553.95 2138.27 1553.95 2135.7 1553.44 2133.56 1552.44 2131.42 1551.44 2129.81 1550.1 2128.75 1548.44 2127.69 1546.78 2127.16 1544.95 2127.16 1542.94 2127.16 1539.86 2128.35 1537.22 2130.75 1535.03 2133.14 1532.85 2136.59 1531.28 2141.08 1530.32L2141.17 1529.87C2135.96 1528.13 2133.35 1525.14 2133.35 1520.88 2133.35 1518.97 2133.95 1517.15 2135.15 1515.43 2136.35 1513.7 2138.23 1512.29 2140.79 1511.18 2143.35 1510.07 2146.44 1509.52 2150.07 1509.52Z" fill-rule="evenodd"/><text fill="#000000" fill-opacity="0" font-family="Arial,Arial_MSFontService,sans-serif" font-size="44.4277" x="2127.16" y="1548.39">𝜀</text><path d="M2200 1533.28 2255.34 1533.28 2255.34 1539.26 2200 1539.26ZM2200 1514.64 2255.34 1514.64 2255.34 1520.61 2200 1520.61Z" fill-rule="evenodd"/><text fill="#000000" fill-opacity="0" font-family="Arial,Arial_MSFontService,sans-serif" font-size="24.6172" x="2200" y="1536.18">=</text><path d="M2313.35 1491.19C2318.92 1491.19 2323.12 1492.41 2325.97 1494.85 2328.81 1497.29 2330.24 1500.83 2330.24 1505.47 2330.24 1507.06 2330.08 1508.52 2329.77 1509.85 2329.45 1511.19 2328.96 1512.51 2328.28 1513.81 2327.61 1515.11 2326.7 1516.51 2325.57 1518.01 2324.43 1519.51 2323.17 1521.03 2321.79 1522.57 2320.41 1524.11 2318.03 1526.68 2314.65 1530.27 2308.96 1536.29 2304.78 1541.55 2302.12 1546.04L2319.05 1546.04C2320.52 1546.04 2321.7 1545.95 2322.6 1545.77 2323.5 1545.59 2324.22 1545.29 2324.76 1544.87 2325.3 1544.45 2325.72 1543.91 2326.04 1543.23 2326.35 1542.56 2326.75 1541.52 2327.23 1540.11L2331.05 1540.11 2330.28 1553.23 2293.31 1553.23 2293.31 1551.07C2294.6 1547.93 2296.34 1544.71 2298.52 1541.41 2300.71 1538.12 2303.81 1534.24 2307.82 1529.78 2311.29 1525.94 2313.8 1523.04 2315.32 1521.06 2317 1518.91 2318.25 1517.04 2319.07 1515.47 2319.9 1513.9 2320.49 1512.42 2320.85 1511.02 2321.21 1509.63 2321.39 1508.23 2321.39 1506.82 2321.39 1504.58 2321.03 1502.59 2320.31 1500.87 2319.59 1499.15 2318.49 1497.79 2317.01 1496.81 2315.53 1495.82 2313.66 1495.32 2311.41 1495.32 2305.81 1495.32 2302.04 1498.44 2300.09 1504.67L2294.66 1504.67 2294.66 1496.04C2298.28 1494.33 2301.67 1493.1 2304.83 1492.34 2307.99 1491.57 2310.83 1491.19 2313.35 1491.19Z" fill-rule="evenodd"/><text fill="#000000" fill-opacity="0" font-family="Arial,Arial_MSFontService,sans-serif" font-size="62.0371" x="2293.31" y="1545.47">2</text><text font-family="Times New Roman,Times New Roman_MSFontService,sans-serif" font-weight="700" font-size="92" transform="matrix(1 0 0 1 2338.51 1553)">)<tspan font-weight="400" font-size="83" x="61.8394" y="-764">0.04</tspan><tspan font-size="92" x="180.111" y="3">IMDB (</tspan></text><path d="M2848.64 1511.81C2852.96 1511.81 2857.48 1512.53 2862.21 1513.97L2860.5 1522.14 2856.28 1522.14C2855.74 1517.62 2853.09 1515.36 2848.33 1515.36 2845.6 1515.36 2843.37 1516.13 2841.64 1517.67 2839.9 1519.21 2839.03 1521.33 2839.03 1524.03 2839.03 1525.98 2839.8 1527.53 2841.34 1528.7 2842.89 1529.87 2845 1530.45 2847.7 1530.45L2854.08 1530.45 2853.05 1535.08 2848.55 1535.08C2846.28 1535.08 2844.41 1535.23 2842.94 1535.53 2841.47 1535.83 2840.09 1536.31 2838.81 1536.99 2837.52 1537.66 2836.51 1538.38 2835.77 1539.14 2835.04 1539.91 2834.49 1540.77 2834.13 1541.73 2833.77 1542.69 2833.59 1543.78 2833.59 1545.01 2833.59 1547.1 2834.31 1548.71 2835.75 1549.81 2837.19 1550.92 2839.25 1551.48 2841.95 1551.48 2844.32 1551.48 2846.6 1551.14 2848.8 1550.46 2851 1549.79 2853.49 1548.51 2856.28 1546.62L2858.48 1550.13C2855.37 1552.28 2852.3 1553.84 2849.29 1554.8 2846.28 1555.76 2843.13 1556.24 2839.84 1556.24 2836.84 1556.24 2834.28 1555.74 2832.13 1554.73 2829.99 1553.73 2828.39 1552.4 2827.33 1550.73 2826.26 1549.07 2825.73 1547.24 2825.73 1545.23 2825.73 1542.15 2826.93 1539.51 2829.33 1537.33 2831.72 1535.14 2835.17 1533.57 2839.66 1532.61L2839.75 1532.16C2834.54 1530.42 2831.93 1527.43 2831.93 1523.17 2831.93 1521.26 2832.53 1519.44 2833.73 1517.72 2834.93 1515.99 2836.81 1514.58 2839.37 1513.47 2841.93 1512.36 2845.02 1511.81 2848.64 1511.81Z" fill-rule="evenodd"/><text fill="#000000" fill-opacity="0" font-family="Arial,Arial_MSFontService,sans-serif" font-size="44.4277" x="2825.73" y="1550.68">𝜀</text><path d="M2898.58 1535.57 2953.92 1535.57 2953.92 1541.55 2898.58 1541.55ZM2898.58 1516.93 2953.92 1516.93 2953.92 1522.91 2898.58 1522.91Z" fill-rule="evenodd"/><text fill="#000000" fill-opacity="0" font-family="Arial,Arial_MSFontService,sans-serif" font-size="24.6172" x="2898.58" y="1538.47">=</text><path d="M3015.11 1493.48 3017.58 1493.48C3017.41 1496.36 3017.32 1500.34 3017.32 1505.43L3017.32 1543.79C3017.32 1545.53 3017.41 1546.84 3017.61 1547.72 3017.8 1548.61 3018.15 1549.33 3018.64 1549.88 3019.13 1550.44 3019.85 1550.87 3020.77 1551.18 3021.7 1551.5 3022.87 1551.74 3024.28 1551.9 3025.69 1552.07 3027.54 1552.18 3029.85 1552.24L3029.85 1555.52 2996.65 1555.52 2996.65 1552.24C2999.98 1552.09 3002.35 1551.89 3003.77 1551.63 3005.19 1551.38 3006.28 1551 3007.03 1550.49 3007.78 1549.98 3008.32 1549.26 3008.67 1548.33 3009.01 1547.4 3009.18 1545.89 3009.18 1543.79L3009.18 1507.36C3009.18 1506.16 3008.97 1505.29 3008.56 1504.73 3008.14 1504.18 3007.52 1503.9 3006.71 1503.9 3005.76 1503.9 3004.39 1504.4 3002.63 1505.39 3000.86 1506.37 2998.67 1507.74 2996.07 1509.47L2994.09 1506.01Z" fill-rule="evenodd"/><text fill="#000000" fill-opacity="0" font-family="Arial,Arial_MSFontService,sans-serif" font-size="62.0371" x="2994.09" y="1547.76">1</text><text font-family="Times New Roman,Times New Roman_MSFontService,sans-serif" font-weight="700" font-size="92" transform="matrix(1 0 0 1 3037.08 1556)">)<tspan font-weight="400" font-size="83" x="-636.739" y="-595">0.03</tspan><tspan font-weight="400" font-size="83" x="-636.739" y="-423">0.02</tspan><tspan font-weight="400" font-size="83" x="-636.739" y="-251">0.01</tspan><tspan font-weight="400" font-size="83" x="-576.009" y="-84">0</tspan><tspan font-size="92" x="138.322" y="11">IMDB (</tspan></text><path d="M3505.43 1523.27C3509.74 1523.27 3514.27 1523.99 3519 1525.42L3517.29 1533.6 3513.07 1533.6C3512.53 1529.08 3509.88 1526.82 3505.12 1526.82 3502.39 1526.82 3500.16 1527.59 3498.42 1529.13 3496.69 1530.67 3495.82 1532.79 3495.82 1535.49 3495.82 1537.43 3496.59 1538.99 3498.13 1540.16 3499.67 1541.33 3501.79 1541.91 3504.49 1541.91L3510.87 1541.91 3509.83 1546.54 3505.34 1546.54C3503.07 1546.54 3501.19 1546.69 3499.73 1546.99 3498.26 1547.29 3496.88 1547.77 3495.59 1548.45 3494.31 1549.12 3493.3 1549.84 3492.56 1550.6 3491.83 1551.37 3491.28 1552.23 3490.92 1553.19 3490.56 1554.14 3490.38 1555.24 3490.38 1556.46 3490.38 1558.56 3491.1 1560.16 3492.54 1561.27 3493.98 1562.38 3496.04 1562.93 3498.74 1562.93 3501.1 1562.93 3503.39 1562.6 3505.59 1561.92 3507.79 1561.25 3510.28 1559.97 3513.07 1558.08L3515.27 1561.59C3512.16 1563.74 3509.09 1565.3 3506.08 1566.26 3503.07 1567.22 3499.92 1567.7 3496.63 1567.7 3493.63 1567.7 3491.06 1567.19 3488.92 1566.19 3486.78 1565.19 3485.18 1563.85 3484.12 1562.19 3483.05 1560.53 3482.52 1558.7 3482.52 1556.69 3482.52 1553.6 3483.72 1550.97 3486.12 1548.78 3488.51 1546.6 3491.96 1545.02 3496.45 1544.07L3496.54 1543.62C3491.33 1541.88 3488.72 1538.89 3488.72 1534.63 3488.72 1532.72 3489.32 1530.9 3490.52 1529.17 3491.72 1527.45 3493.6 1526.04 3496.16 1524.93 3498.72 1523.82 3501.81 1523.27 3505.43 1523.27Z" fill-rule="evenodd"/><text fill="#000000" fill-opacity="0" font-family="Arial,Arial_MSFontService,sans-serif" font-size="44.4277" x="3482.52" y="1562.14">𝜀</text><path d="M3555.37 1547.03 3610.71 1547.03 3610.71 1553.01 3555.37 1553.01ZM3555.37 1528.39 3610.71 1528.39 3610.71 1534.36 3555.37 1534.36Z" fill-rule="evenodd"/><text fill="#000000" fill-opacity="0" font-family="Arial,Arial_MSFontService,sans-serif" font-size="24.6172" x="3555.37" y="1549.93">=</text><path d="M3668.71 1504.94C3674.28 1504.94 3678.49 1506.16 3681.34 1508.6 3684.18 1511.04 3685.6 1514.58 3685.6 1519.22 3685.6 1520.81 3685.45 1522.27 3685.13 1523.6 3684.82 1524.94 3684.32 1526.25 3683.65 1527.56 3682.98 1528.86 3682.07 1530.26 3680.93 1531.76 3679.79 1533.26 3678.54 1534.78 3677.16 1536.32 3675.78 1537.86 3673.4 1540.43 3670.02 1544.02 3664.33 1550.04 3660.15 1555.3 3657.48 1559.79L3674.42 1559.79C3675.89 1559.79 3677.07 1559.7 3677.97 1559.52 3678.87 1559.34 3679.58 1559.04 3680.12 1558.62 3680.66 1558.2 3681.09 1557.66 3681.4 1556.98 3681.72 1556.31 3682.11 1555.27 3682.59 1553.86L3686.41 1553.86 3685.65 1566.98 3648.68 1566.98 3648.68 1564.82C3649.97 1561.68 3651.7 1558.46 3653.89 1555.16 3656.08 1551.87 3659.18 1547.99 3663.19 1543.53 3666.66 1539.69 3669.16 1536.79 3670.69 1534.81 3672.37 1532.66 3673.62 1530.79 3674.44 1529.22 3675.26 1527.65 3675.86 1526.17 3676.22 1524.77 3676.57 1523.38 3676.75 1521.98 3676.75 1520.57 3676.75 1518.33 3676.4 1516.34 3675.68 1514.62 3674.96 1512.9 3673.86 1511.54 3672.37 1510.55 3670.89 1509.57 3669.03 1509.07 3666.78 1509.07 3661.18 1509.07 3657.41 1512.19 3655.46 1518.42L3650.03 1518.42 3650.03 1509.79C3653.65 1508.08 3657.04 1506.85 3660.2 1506.08 3663.36 1505.32 3666.2 1504.94 3668.71 1504.94Z" fill-rule="evenodd"/><text fill="#000000" fill-opacity="0" font-family="Arial,Arial_MSFontService,sans-serif" font-size="62.0371" x="3648.68" y="1559.22">2</text><text font-family="Times New Roman,Times New Roman_MSFontService,sans-serif" font-weight="700" font-size="92" transform="matrix(1 0 0 1 3693.87 1567)">)</text><rect x="905.5" y="558.5" width="2820" height="130" stroke="#000000" stroke-width="3.4375" stroke-miterlimit="8" fill="none"/><text font-family="Times New Roman,Times New Roman_MSFontService,sans-serif" font-weight="400" font-size="83" transform="matrix(1 0 0 1 1717.41 784)">0.08<tspan font-size="83" x="0" y="179">0.06</tspan><tspan font-size="83" x="0" y="351">0.04</tspan><tspan font-size="83" x="0" y="527">0.02</tspan><tspan font-size="83" x="60.7291" y="699">0</tspan><tspan font-size="83" x="1359.73" y="8">0.04</tspan><tspan font-size="83" x="1359.73" y="180">0.03</tspan><tspan font-size="83" x="1359.73" y="352">0.02</tspan><tspan font-size="83" x="1359.73" y="524">0.01</tspan><tspan font-size="83" x="1420.46" y="691">0</tspan></text></g></svg>