<svg width="2860" height="1209" xmlns="http://www.w3.org/2000/svg" xmlns:xlink="http://www.w3.org/1999/xlink" overflow="hidden"><defs><clipPath id="clip0"><rect x="893" y="204" width="2860" height="1209"/></clipPath><clipPath id="clip1"><rect x="2541" y="347" width="1170" height="857"/></clipPath><clipPath id="clip2"><rect x="2541" y="347" width="1170" height="857"/></clipPath><clipPath id="clip3"><rect x="2571" y="387" width="1115" height="791"/></clipPath><clipPath id="clip4"><rect x="2541" y="347" width="1170" height="857"/></clipPath><clipPath id="clip5"><rect x="2571" y="387" width="1115" height="791"/></clipPath><clipPath id="clip6"><rect x="2541" y="347" width="1170" height="857"/></clipPath><clipPath id="clip7"><rect x="2571" y="387" width="1115" height="791"/></clipPath><clipPath id="clip8"><rect x="2541" y="347" width="1170" height="857"/></clipPath><clipPath id="clip9"><rect x="1138" y="346" width="1185" height="857"/></clipPath><clipPath id="clip10"><rect x="1138" y="346" width="1185" height="857"/></clipPath><clipPath id="clip11"><rect x="1178" y="386" width="1121" height="792"/></clipPath><clipPath id="clip12"><rect x="1138" y="346" width="1185" height="857"/></clipPath><clipPath id="clip13"><rect x="1178" y="386" width="1121" height="792"/></clipPath><clipPath id="clip14"><rect x="1138" y="346" width="1185" height="857"/></clipPath><clipPath id="clip15"><rect x="1178" y="386" width="1121" height="792"/></clipPath><clipPath id="clip16"><rect x="1138" y="346" width="1185" height="857"/></clipPath></defs><g clip-path="url(#clip0)" transform="translate(-893 -204)"><g clip-path="url(#clip1)"><path d="M2571.5 1175.5 3683.5 1175.5M2571.5 912.53 3683.5 912.53M2571.5 650.521 3683.5 650.521M2571.5 387.5 3683.5 387.5" stroke="#D9D9D9" stroke-width="3.4375" stroke-linejoin="round" stroke-miterlimit="10" fill="none"/></g><g clip-path="url(#clip2)"><path d="M2571.5 387.5 2571.5 1175.5M2694.59 387.5 2694.59 1175.5M2818.59 387.5 2818.59 1175.5M2942.6 387.5 2942.6 1175.5M3065.6 387.5 3065.6 1175.5M3189.6 387.5 3189.6 1175.5M3312.61 387.5 3312.61 1175.5M3436.61 387.5 3436.61 1175.5M3559.62 387.5 3559.62 1175.5M3683.5 387.5 3683.5 1175.5" stroke="#D9D9D9" stroke-width="3.4375" stroke-linejoin="round" stroke-miterlimit="10" fill="none"/></g><g clip-path="url(#clip3)"><path d="M2694.5 516.5 2818.59 788.526 3065.6 939.531 3312.61 1030.53 3559.62 1030.53 3678.5 1045.5" stroke="#FF0000" stroke-width="3.4375" stroke-linecap="round" stroke-linejoin="round" stroke-miterlimit="10" fill="none"/></g><g clip-path="url(#clip4)"><path d="M2712.37 516.785C2712.37 526.725 2704.31 534.784 2694.37 534.784 2684.43 534.784 2676.37 526.725 2676.37 516.785 2676.37 506.844 2684.43 498.785 2694.37 498.785 2704.31 498.785 2712.37 506.844 2712.37 516.785Z" stroke="#C00000" stroke-width="3.4375" stroke-linejoin="round" stroke-miterlimit="10" fill="none"/><path d="M2836.37 788.784C2836.37 798.725 2828.31 806.784 2818.37 806.784 2808.43 806.784 2800.37 798.725 2800.37 788.784 2800.37 778.844 2808.43 770.785 2818.37 770.785 2828.31 770.785 2836.37 778.844 2836.37 788.784Z" stroke="#C00000" stroke-width="3.4375" stroke-linejoin="round" stroke-miterlimit="10" fill="none"/><path d="M3083.37 939.784C3083.37 949.725 3075.31 957.784 3065.37 957.784 3055.43 957.784 3047.37 949.725 3047.37 939.784 3047.37 929.844 3055.43 921.785 3065.37 921.785 3075.31 921.785 3083.37 929.844 3083.37 939.784Z" stroke="#C00000" stroke-width="3.4375" stroke-linejoin="round" stroke-miterlimit="10" fill="none"/><path d="M3330.37 1030.78C3330.37 1040.73 3322.31 1048.78 3312.37 1048.78 3302.43 1048.78 3294.37 1040.73 3294.37 1030.78 3294.37 1020.84 3302.43 1012.78 3312.37 1012.78 3322.31 1012.78 3330.37 1020.84 3330.37 1030.78Z" stroke="#C00000" stroke-width="3.4375" stroke-linejoin="round" stroke-miterlimit="10" fill="none"/><path d="M3577.37 1030.78C3577.37 1040.73 3569.31 1048.78 3559.37 1048.78 3549.43 1048.78 3541.37 1040.73 3541.37 1030.78 3541.37 1020.84 3549.43 1012.78 3559.37 1012.78 3569.31 1012.78 3577.37 1020.84 3577.37 1030.78Z" stroke="#C00000" stroke-width="3.4375" stroke-linejoin="round" stroke-miterlimit="10" fill="none"/><path d="M3696.37 1045.78C3696.37 1055.73 3688.31 1063.78 3678.37 1063.78 3668.43 1063.78 3660.37 1055.73 3660.37 1045.78 3660.37 1035.84 3668.43 1027.79 3678.37 1027.79 3688.31 1027.79 3696.37 1035.84 3696.37 1045.78Z" stroke="#C00000" stroke-width="3.4375" stroke-linejoin="round" stroke-miterlimit="10" fill="none"/></g><g clip-path="url(#clip5)"><path d="M2694.5 516.5 2818.59 786.526 3065.6 947.531 3312.61 1047.53 3559.62 1136.54 3678.5 1156.5" stroke="#0070C0" stroke-width="3.4375" stroke-linecap="round" stroke-linejoin="round" stroke-miterlimit="10" fill="none"/></g><g clip-path="url(#clip6)"><path d="M2676.37 498.785 2712.37 498.785 2712.37 534.784 2676.37 534.784Z" stroke="#0070C0" stroke-width="3.4375" stroke-linejoin="round" stroke-miterlimit="10" fill="none"/><path d="M2800.37 768.785 2836.37 768.785 2836.37 804.784 2800.37 804.784Z" stroke="#0070C0" stroke-width="3.4375" stroke-linejoin="round" stroke-miterlimit="10" fill="none"/><path d="M3047.37 929.785 3083.37 929.785 3083.37 965.784 3047.37 965.784Z" stroke="#0070C0" stroke-width="3.4375" stroke-linejoin="round" stroke-miterlimit="10" fill="none"/><path d="M3294.37 1029.78 3330.37 1029.78 3330.37 1065.78 3294.37 1065.78Z" stroke="#0070C0" stroke-width="3.4375" stroke-linejoin="round" stroke-miterlimit="10" fill="none"/><path d="M3541.37 1118.78 3577.37 1118.78 3577.37 1154.78 3541.37 1154.78Z" stroke="#0070C0" stroke-width="3.4375" stroke-linejoin="round" stroke-miterlimit="10" fill="none"/><path d="M3660.37 1138.78 3696.37 1138.78 3696.37 1174.78 3660.37 1174.78Z" stroke="#0070C0" stroke-width="3.4375" stroke-linejoin="round" stroke-miterlimit="10" fill="none"/></g><g clip-path="url(#clip7)"><path d="M2694.5 442.5 2818.59 693.523 3065.6 864.529 3312.61 981.532 3559.62 1087.54 3678.5 1105.5" stroke="#006600" stroke-width="3.4375" stroke-linecap="round" stroke-linejoin="round" stroke-miterlimit="10" fill="none"/></g><g clip-path="url(#clip8)"><path d="M2694.37 422.784 2714.37 462.784 2674.37 462.784Z" stroke="#006600" stroke-width="3.4375" stroke-linejoin="round" stroke-miterlimit="10" fill="none"/><path d="M2818.37 673.785 2838.37 713.784 2798.37 713.784Z" stroke="#006600" stroke-width="3.4375" stroke-linejoin="round" stroke-miterlimit="10" fill="none"/><path d="M3065.37 844.784 3085.37 884.784 3045.37 884.784Z" stroke="#006600" stroke-width="3.4375" stroke-linejoin="round" stroke-miterlimit="10" fill="none"/><path d="M3312.37 961.784 3332.37 1001.78 3292.37 1001.78Z" stroke="#006600" stroke-width="3.4375" stroke-linejoin="round" stroke-miterlimit="10" fill="none"/><path d="M3559.37 1067.78 3579.37 1107.78 3539.37 1107.78Z" stroke="#006600" stroke-width="3.4375" stroke-linejoin="round" stroke-miterlimit="10" fill="none"/><path d="M3678.37 1085.78 3698.37 1125.78 3658.37 1125.78Z" stroke="#006600" stroke-width="3.4375" stroke-linejoin="round" stroke-miterlimit="10" fill="none"/></g><g clip-path="url(#clip9)"><path d="M1178.5 1174.5 2295.5 1174.5M1178.5 977.532 2295.5 977.532M1178.5 780.526 2295.5 780.526M1178.5 583.519 2295.5 583.519M1178.5 386.5 2295.5 386.5" stroke="#D9D9D9" stroke-width="3.4375" stroke-linejoin="round" stroke-miterlimit="10" fill="none"/></g><g clip-path="url(#clip10)"><path d="M1178.5 386.5 1178.5 1174.5M1364.54 386.5 1364.54 1174.5M1550.55 386.5 1550.55 1174.5M1736.56 386.5 1736.56 1174.5M1923.56 386.5 1923.56 1174.5M2109.57 386.5 2109.57 1174.5M2295.5 386.5 2295.5 1174.5" stroke="#D9D9D9" stroke-width="3.4375" stroke-linejoin="round" stroke-miterlimit="10" fill="none"/></g><g clip-path="url(#clip11)"><path d="M1271.5 639.5 1364.54 782.526 1550.55 902.53 1736.56 977.532 1923.56 999.533 2180.5 999.5" stroke="#FF0000" stroke-width="3.4375" stroke-linecap="round" stroke-linejoin="round" stroke-miterlimit="10" fill="none"/></g><g clip-path="url(#clip12)"><path d="M1289.9 639.989C1289.9 649.93 1281.84 657.988 1271.9 657.988 1261.96 657.988 1253.9 649.93 1253.9 639.989 1253.9 630.048 1261.96 621.989 1271.9 621.989 1281.84 621.989 1289.9 630.048 1289.9 639.989Z" stroke="#C00000" stroke-width="3.4375" stroke-linejoin="round" stroke-miterlimit="10" fill="none"/><path d="M1382.9 782.989C1382.9 792.93 1374.84 800.988 1364.9 800.988 1354.96 800.988 1346.9 792.93 1346.9 782.989 1346.9 773.048 1354.96 764.989 1364.9 764.989 1374.84 764.989 1382.9 773.048 1382.9 782.989Z" stroke="#C00000" stroke-width="3.4375" stroke-linejoin="round" stroke-miterlimit="10" fill="none"/><path d="M1568.9 902.989C1568.9 912.93 1560.84 920.989 1550.9 920.989 1540.96 920.989 1532.9 912.93 1532.9 902.989 1532.9 893.048 1540.96 884.99 1550.9 884.99 1560.84 884.99 1568.9 893.048 1568.9 902.989Z" stroke="#C00000" stroke-width="3.4375" stroke-linejoin="round" stroke-miterlimit="10" fill="none"/><path d="M1754.9 977.989C1754.9 987.93 1746.84 995.989 1736.9 995.989 1726.96 995.989 1718.9 987.93 1718.9 977.989 1718.9 968.048 1726.96 959.99 1736.9 959.99 1746.84 959.99 1754.9 968.048 1754.9 977.989Z" stroke="#C00000" stroke-width="3.4375" stroke-linejoin="round" stroke-miterlimit="10" fill="none"/><path d="M1941.9 999.989C1941.9 1009.93 1933.84 1017.99 1923.9 1017.99 1913.96 1017.99 1905.9 1009.93 1905.9 999.989 1905.9 990.048 1913.96 981.99 1923.9 981.99 1933.84 981.99 1941.9 990.048 1941.9 999.989Z" stroke="#C00000" stroke-width="3.4375" stroke-linejoin="round" stroke-miterlimit="10" fill="none"/><path d="M2198.9 999.989C2198.9 1009.93 2190.84 1017.99 2180.9 1017.99 2170.96 1017.99 2162.9 1009.93 2162.9 999.989 2162.9 990.048 2170.96 981.99 2180.9 981.99 2190.84 981.99 2198.9 990.048 2198.9 999.989Z" stroke="#C00000" stroke-width="3.4375" stroke-linejoin="round" stroke-miterlimit="10" fill="none"/></g><g clip-path="url(#clip13)"><path d="M1271.5 638.5 1364.54 781.526 1550.55 937.531 1736.56 1002.53 1923.56 1023.53 2180.5 1092.5" stroke="#0070C0" stroke-width="3.4375" stroke-linecap="round" stroke-linejoin="round" stroke-miterlimit="10" fill="none"/></g><g clip-path="url(#clip14)"><path d="M1253.9 620.99 1289.9 620.99 1289.9 656.989 1253.9 656.989Z" stroke="#0070C0" stroke-width="3.4375" stroke-linejoin="round" stroke-miterlimit="10" fill="none"/><path d="M1346.9 763.99 1382.9 763.99 1382.9 799.989 1346.9 799.989Z" stroke="#0070C0" stroke-width="3.4375" stroke-linejoin="round" stroke-miterlimit="10" fill="none"/><path d="M1532.9 919.989 1568.9 919.989 1568.9 955.989 1532.9 955.989Z" stroke="#0070C0" stroke-width="3.4375" stroke-linejoin="round" stroke-miterlimit="10" fill="none"/><path d="M1718.9 984.989 1754.9 984.989 1754.9 1020.99 1718.9 1020.99Z" stroke="#0070C0" stroke-width="3.4375" stroke-linejoin="round" stroke-miterlimit="10" fill="none"/><path d="M1905.9 1005.99 1941.9 1005.99 1941.9 1041.99 1905.9 1041.99Z" stroke="#0070C0" stroke-width="3.4375" stroke-linejoin="round" stroke-miterlimit="10" fill="none"/><path d="M2162.9 1074.99 2198.9 1074.99 2198.9 1110.99 2162.9 1110.99Z" stroke="#0070C0" stroke-width="3.4375" stroke-linejoin="round" stroke-miterlimit="10" fill="none"/></g><g clip-path="url(#clip15)"><path d="M1271.5 576.5 1364.54 725.524 1550.55 891.529 1736.56 939.531 1923.56 997.533 2180.5 1095.5" stroke="#006600" stroke-width="3.4375" stroke-linecap="round" stroke-linejoin="round" stroke-miterlimit="10" fill="none"/></g><g clip-path="url(#clip16)"><path d="M1271.9 556.989 1291.9 596.989 1251.9 596.989Z" stroke="#006600" stroke-width="3.4375" stroke-linejoin="round" stroke-miterlimit="10" fill="none"/><path d="M1364.9 705.989 1384.9 745.989 1344.9 745.989Z" stroke="#006600" stroke-width="3.4375" stroke-linejoin="round" stroke-miterlimit="10" fill="none"/><path d="M1550.9 871.989 1570.9 911.989 1530.9 911.989Z" stroke="#006600" stroke-width="3.4375" stroke-linejoin="round" stroke-miterlimit="10" fill="none"/><path d="M1736.9 919.989 1756.9 959.989 1716.9 959.989Z" stroke="#006600" stroke-width="3.4375" stroke-linejoin="round" stroke-miterlimit="10" fill="none"/><path d="M1923.9 977.989 1943.9 1017.99 1903.9 1017.99Z" stroke="#006600" stroke-width="3.4375" stroke-linejoin="round" stroke-miterlimit="10" fill="none"/><path d="M2180.9 1075.99 2200.9 1115.99 2160.9 1115.99Z" stroke="#006600" stroke-width="3.4375" stroke-linejoin="round" stroke-miterlimit="10" fill="none"/></g><path d="M1613.26 402.371 2277.26 402.371 2277.26 688.371 1613.26 688.371Z" stroke="#000000" stroke-width="3.4375" stroke-linejoin="round" stroke-miterlimit="10" fill="#FFFFFF" fill-rule="evenodd"/><path d="M1636.2 447.287 1772.2 447.287" stroke="#FF0000" stroke-width="4.58333" stroke-linecap="round" stroke-linejoin="round" stroke-miterlimit="10" fill="none" fill-rule="evenodd"/><path d="M1722.2 445.337C1722.2 456.382 1713.46 465.336 1702.7 465.336 1691.93 465.336 1683.2 456.382 1683.2 445.337 1683.2 434.29 1691.93 425.336 1702.7 425.336 1713.46 425.336 1722.2 434.29 1722.2 445.337Z" stroke="#FF0000" stroke-width="4.58333" stroke-linejoin="round" stroke-miterlimit="10" fill="none" fill-rule="evenodd"/><path d="M2014.91 439.146 2027.92 439.146 2027.92 463.989C2027.92 467.447 2028.52 469.717 2029.72 470.798 2030.92 471.878 2032.38 472.419 2034.08 472.419 2035.24 472.419 2036.56 472.054 2038.03 471.324 2039.5 470.595 2041.25 469.203 2043.28 467.15L2043.28 446.116C2043.28 444.009 2042.89 442.584 2042.12 441.841 2041.35 441.098 2039.75 440.699 2037.32 440.645L2037.32 439.146 2049.97 439.146 2049.97 461.638C2049.97 465.934 2050.07 468.562 2050.27 469.521 2050.47 470.48 2050.8 471.149 2051.24 471.527 2051.69 471.905 2052.21 472.094 2052.8 472.094 2053.64 472.094 2054.59 471.865 2055.64 471.405L2056.21 472.824 2045.1 477.404 2043.28 477.404 2043.28 469.541C2040.09 473 2037.66 475.175 2035.98 476.066 2034.31 476.958 2032.54 477.404 2030.67 477.404 2028.59 477.404 2026.79 476.802 2025.26 475.6 2023.74 474.398 2022.68 472.851 2022.08 470.96 2021.49 469.068 2021.19 466.394 2021.19 462.935L2021.19 446.36C2021.19 444.603 2021 443.388 2020.62 442.712 2020.25 442.037 2019.68 441.517 2018.94 441.152 2018.2 440.787 2016.85 440.618 2014.91 440.645ZM1827.35 432.661 1817.78 454.87 1836.67 454.87ZM1938.25 424.394C1936.69 424.394 1934.56 424.65 1931.89 425.164L1931.89 448.021C1932.4 448.021 1932.85 448.028 1933.23 448.041 1933.61 448.055 1933.92 448.062 1934.16 448.062 1939.4 448.062 1943.35 446.927 1946.01 444.657 1948.68 442.388 1950.01 439.497 1950.01 435.985 1950.01 432.553 1948.93 429.764 1946.78 427.616 1944.64 425.468 1941.79 424.394 1938.25 424.394ZM1883.25 424.394C1881.69 424.394 1879.56 424.65 1876.89 425.164L1876.89 448.021C1877.4 448.021 1877.85 448.028 1878.23 448.041 1878.61 448.055 1878.92 448.062 1879.16 448.062 1884.4 448.062 1888.35 446.927 1891.01 444.657 1893.68 442.388 1895.01 439.497 1895.01 435.985 1895.01 432.553 1893.93 429.764 1891.78 427.616 1889.64 425.468 1886.79 424.394 1883.25 424.394ZM1971.17 421.314 2012.06 421.314 2012.58 433.391 2011.17 433.391C2010.46 430.824 2009.65 428.94 2008.71 427.737 2007.78 426.535 2006.63 425.664 2005.27 425.123 2003.9 424.583 2001.79 424.313 1998.93 424.313L1986.81 424.313 1986.81 445.914 1996.82 445.914C1999.12 445.914 2000.8 445.407 2001.86 444.394 2002.93 443.381 2003.64 441.375 2003.99 438.376L2005.49 438.376 2005.49 456.978 2003.99 456.978C2003.97 454.843 2003.69 453.276 2003.16 452.277 2002.64 451.277 2001.91 450.527 2000.97 450.027 2000.04 449.527 1998.66 449.278 1996.82 449.278L1986.81 449.278 1986.81 466.542C1986.81 469.325 1986.98 471.162 1987.34 472.054 1987.61 472.729 1988.17 473.31 1989.04 473.797 1990.23 474.445 1991.47 474.769 1992.77 474.769L1994.75 474.769 1994.75 476.269 1971.17 476.269 1971.17 474.769 1973.11 474.769C1975.38 474.769 1977.03 474.107 1978.06 472.783 1978.7 471.919 1979.03 469.838 1979.03 466.542L1979.03 431.04C1979.03 428.257 1978.85 426.42 1978.5 425.529 1978.23 424.853 1977.68 424.272 1976.84 423.786 1975.68 423.137 1974.43 422.813 1973.11 422.813L1971.17 422.813ZM1916.25 421.314 1936.27 421.314C1942.1 421.314 1946.41 421.739 1949.18 422.59 1951.94 423.441 1954.29 425.008 1956.23 427.291 1958.16 429.575 1959.12 432.297 1959.12 435.458 1959.12 438.835 1958.02 441.766 1955.82 444.252 1953.62 446.738 1950.21 448.494 1945.59 449.521L1956.94 465.286C1959.53 468.906 1961.76 471.311 1963.62 472.5 1965.49 473.689 1967.92 474.445 1970.92 474.769L1970.92 476.269 1956.25 476.269 1937.65 450.574C1936.27 450.628 1935.15 450.655 1934.28 450.655 1933.93 450.655 1933.55 450.649 1933.15 450.635 1932.74 450.622 1932.32 450.601 1931.89 450.574L1931.89 466.542C1931.89 470.001 1932.27 472.148 1933.02 472.986 1934.05 474.175 1935.59 474.769 1937.65 474.769L1939.79 474.769 1939.79 476.269 1916.25 476.269 1916.25 474.769 1918.31 474.769C1920.64 474.769 1922.3 474.013 1923.3 472.5 1923.87 471.662 1924.15 469.676 1924.15 466.542L1924.15 431.04C1924.15 427.582 1923.77 425.434 1923.01 424.596 1921.96 423.408 1920.39 422.813 1918.31 422.813L1916.25 422.813ZM1861.25 421.314 1881.27 421.314C1887.1 421.314 1891.41 421.739 1894.18 422.59 1896.94 423.441 1899.3 425.008 1901.23 427.291 1903.16 429.575 1904.12 432.297 1904.12 435.458 1904.12 438.835 1903.02 441.766 1900.82 444.252 1898.62 446.738 1895.21 448.494 1890.59 449.521L1901.94 465.286C1904.53 468.906 1906.76 471.311 1908.62 472.5 1910.49 473.689 1912.92 474.445 1915.92 474.769L1915.92 476.269 1901.25 476.269 1882.65 450.574C1881.27 450.628 1880.15 450.655 1879.28 450.655 1878.93 450.655 1878.55 450.649 1878.15 450.635 1877.74 450.622 1877.32 450.601 1876.89 450.574L1876.89 466.542C1876.89 470.001 1877.27 472.148 1878.02 472.986 1879.05 474.175 1880.59 474.769 1882.65 474.769L1884.79 474.769 1884.79 476.269 1861.25 476.269 1861.25 474.769 1863.31 474.769C1865.64 474.769 1867.3 474.013 1868.3 472.5 1868.87 471.662 1869.15 469.676 1869.15 466.542L1869.15 431.04C1869.15 427.582 1868.77 425.434 1868.01 424.596 1866.96 423.408 1865.39 422.813 1863.31 422.813L1861.25 422.813ZM1828.85 420.057 1830.26 420.057 1849.39 465.772C1850.93 469.447 1852.33 471.831 1853.59 472.925 1854.84 474.02 1856.59 474.634 1858.84 474.769L1858.84 476.269 1837.15 476.269 1837.15 474.769C1839.34 474.661 1840.82 474.296 1841.59 473.675 1842.36 473.054 1842.75 472.297 1842.75 471.405 1842.75 470.217 1842.21 468.339 1841.13 465.772L1837.8 457.869 1816.53 457.869 1812.8 466.542C1811.88 468.677 1811.42 470.271 1811.42 471.324 1811.42 472.162 1811.82 472.898 1812.61 473.533 1813.41 474.168 1815.13 474.58 1817.78 474.769L1817.78 476.269 1800.48 476.269 1800.48 474.769C1802.77 474.364 1804.26 473.837 1804.93 473.189 1806.31 471.892 1807.84 469.258 1809.51 465.286ZM2093.36 418.639 2095.19 418.639 2095.19 467.88C2095.19 470.203 2095.36 471.743 2095.69 472.5 2096.03 473.256 2096.55 473.83 2097.25 474.222 2097.96 474.614 2099.27 474.81 2101.19 474.81L2101.19 476.269 2082.99 476.269 2082.99 474.81C2084.69 474.81 2085.85 474.634 2086.47 474.283 2087.1 473.932 2087.58 473.351 2087.93 472.54 2088.28 471.73 2088.46 470.176 2088.46 467.88L2088.46 434.161C2088.46 429.973 2088.37 427.4 2088.18 426.44 2087.99 425.481 2087.68 424.826 2087.26 424.475 2086.85 424.124 2086.31 423.948 2085.66 423.948 2084.96 423.948 2084.07 424.164 2082.99 424.596L2082.3 423.178ZM2070.36 418.639 2072.19 418.639 2072.19 467.88C2072.19 470.203 2072.36 471.743 2072.69 472.5 2073.03 473.256 2073.55 473.83 2074.25 474.222 2074.96 474.614 2076.27 474.81 2078.19 474.81L2078.19 476.269 2059.99 476.269 2059.99 474.81C2061.69 474.81 2062.85 474.634 2063.47 474.283 2064.1 473.932 2064.58 473.351 2064.93 472.54 2065.28 471.73 2065.46 470.176 2065.46 467.88L2065.46 434.161C2065.46 429.973 2065.37 427.4 2065.18 426.44 2064.99 425.481 2064.68 424.826 2064.26 424.475 2063.85 424.124 2063.31 423.948 2062.66 423.948 2061.96 423.948 2061.07 424.164 2059.99 424.596L2059.3 423.178Z" fill-rule="evenodd"/><text fill="#000000" fill-opacity="0" font-family="Arial,Arial_MSFontService,sans-serif" font-size="58.7646" x="1800.48" y="470.058">ARRFull</text><path d="M2120.47 458.562 2109.12 488.347 2129.85 488.347ZM2119.42 451.979 2123.83 451.979 2136.4 491.206 2136.4 493.113 2103.85 493.113 2103.85 491.206Z" fill-rule="evenodd"/><text fill="#000000" fill-opacity="0" font-family="Arial,Arial_MSFontService,sans-serif" font-size="41.1333" x="2103.85" y="487.971">∆</text><path d="M1636.2 537.287 1772.2 537.287" stroke="#0070C0" stroke-width="4.58333" stroke-linecap="round" stroke-linejoin="round" stroke-miterlimit="10" fill="none" fill-rule="evenodd"/><path d="M1682.2 515.332 1722.2 515.332 1722.2 556.332 1682.2 556.332Z" stroke="#0070C0" stroke-width="4.58333" stroke-linejoin="round" stroke-miterlimit="10" fill="none" fill-rule="evenodd"/><path d="M2088.8 526.091C2086.56 526.091 2084.55 526.962 2082.78 528.705 2081.01 530.447 2079.98 532.872 2079.68 535.979L2096.86 535.979C2096.73 533.602 2096.45 531.927 2096.01 530.954 2095.34 529.441 2094.33 528.252 2092.99 527.388 2091.66 526.523 2090.26 526.091 2088.8 526.091ZM2041.52 523.254 2043.26 523.254 2043.26 531.116C2047.61 525.875 2051.76 523.254 2055.7 523.254 2057.73 523.254 2059.47 523.76 2060.93 524.774 2062.39 525.787 2063.55 527.455 2064.42 529.779 2065.01 531.4 2065.31 533.885 2065.31 537.236L2065.31 553.082C2065.31 555.433 2065.5 557.027 2065.87 557.864 2066.17 558.54 2066.65 559.067 2067.31 559.445 2067.97 559.823 2069.2 560.012 2070.98 560.012L2070.98 561.471 2052.62 561.471 2052.62 560.012 2053.39 560.012C2055.12 560.012 2056.33 559.749 2057.02 559.222 2057.71 558.695 2058.19 557.918 2058.46 556.892 2058.57 556.486 2058.62 555.216 2058.62 553.082L2058.62 537.884C2058.62 534.507 2058.18 532.055 2057.3 530.529 2056.42 529.002 2054.95 528.239 2052.86 528.239 2049.65 528.239 2046.45 529.995 2043.26 533.507L2043.26 553.082C2043.26 555.595 2043.41 557.148 2043.71 557.743 2044.08 558.526 2044.6 559.1 2045.27 559.465 2045.93 559.83 2047.27 560.012 2049.3 560.012L2049.3 561.471 2030.94 561.471 2030.94 560.012 2031.75 560.012C2033.64 560.012 2034.92 559.533 2035.58 558.573 2036.24 557.614 2036.57 555.784 2036.57 553.082L2036.57 539.303C2036.57 534.845 2036.47 532.129 2036.27 531.157 2036.07 530.184 2035.76 529.522 2035.34 529.171 2034.92 528.82 2034.36 528.644 2033.65 528.644 2032.9 528.644 2031.99 528.847 2030.94 529.252L2030.33 527.793ZM2091.07 523.213C2095.23 523.213 2098.65 524.584 2101.32 527.327 2104 530.069 2105.33 533.737 2105.33 538.33L2079.68 538.33C2079.65 543.842 2080.99 548.165 2083.69 551.299 2086.39 554.433 2089.57 556 2093.22 556 2095.65 556 2097.76 555.331 2099.56 553.994 2101.36 552.656 2102.86 550.367 2104.08 547.124L2105.33 547.935C2104.77 551.636 2103.12 555.007 2100.39 558.047 2097.66 561.086 2094.24 562.606 2090.14 562.606 2085.68 562.606 2081.86 560.87 2078.69 557.398 2075.51 553.926 2073.93 549.259 2073.93 543.396 2073.93 537.047 2075.55 532.096 2078.81 528.543 2082.06 524.99 2086.15 523.213 2091.07 523.213ZM1828.36 517.864 1818.8 540.073 1837.68 540.073ZM1939.27 509.596C1937.7 509.596 1935.58 509.853 1932.91 510.366L1932.91 533.224C1933.42 533.224 1933.87 533.23 1934.24 533.244 1934.62 533.257 1934.93 533.264 1935.18 533.264 1940.42 533.264 1944.37 532.129 1947.03 529.86 1949.69 527.59 1951.02 524.699 1951.02 521.187 1951.02 517.756 1949.95 514.966 1947.8 512.818 1945.65 510.67 1942.81 509.596 1939.27 509.596ZM1884.27 509.596C1882.7 509.596 1880.58 509.853 1877.91 510.366L1877.91 533.224C1878.42 533.224 1878.87 533.23 1879.24 533.244 1879.62 533.257 1879.93 533.264 1880.18 533.264 1885.42 533.264 1889.37 532.129 1892.03 529.86 1894.69 527.59 1896.02 524.699 1896.02 521.187 1896.02 517.756 1894.95 514.966 1892.8 512.818 1890.65 510.67 1887.81 509.596 1884.27 509.596ZM2000.43 508.218C1995.51 508.218 1991.57 510.042 1988.6 513.689 1984.89 518.228 1983.04 524.875 1983.04 533.629 1983.04 542.599 1984.96 549.502 1988.8 554.338 1991.74 558.013 1995.63 559.85 2000.47 559.85 2005.63 559.85 2009.89 557.837 2013.26 553.811 2016.62 549.786 2018.3 543.436 2018.3 534.764 2018.3 525.361 2016.45 518.35 2012.75 513.73 2009.78 510.055 2005.67 508.218 2000.43 508.218ZM2106.75 506.516 2121.67 506.516 2155.26 547.732 2155.26 516.04C2155.26 512.663 2154.88 510.555 2154.13 509.718 2153.13 508.583 2151.55 508.016 2149.39 508.016L2147.48 508.016 2147.48 506.516 2166.61 506.516 2166.61 508.016 2164.66 508.016C2162.34 508.016 2160.69 508.718 2159.72 510.123 2159.13 510.988 2158.83 512.96 2158.83 516.04L2158.83 562.363 2157.37 562.363 2121.14 518.107 2121.14 551.947C2121.14 555.324 2121.5 557.432 2122.23 558.269 2123.26 559.404 2124.84 559.972 2126.97 559.972L2128.92 559.972 2128.92 561.471 2109.79 561.471 2109.79 559.972 2111.7 559.972C2114.05 559.972 2115.71 559.269 2116.68 557.864 2117.27 557 2117.57 555.027 2117.57 551.947L2117.57 513.73C2115.98 511.866 2114.77 510.636 2113.94 510.042 2113.12 509.448 2111.91 508.894 2110.32 508.38 2109.53 508.137 2108.35 508.016 2106.75 508.016ZM1917.26 506.516 1937.28 506.516C1943.12 506.516 1947.42 506.942 1950.19 507.793 1952.96 508.644 1955.31 510.211 1957.24 512.494 1959.18 514.777 1960.14 517.499 1960.14 520.66 1960.14 524.037 1959.04 526.969 1956.84 529.455 1954.64 531.94 1951.23 533.696 1946.61 534.723L1957.95 550.488C1960.55 554.109 1962.78 556.513 1964.64 557.702 1966.5 558.891 1968.94 559.647 1971.94 559.972L1971.94 561.471 1957.26 561.471 1938.66 535.777C1937.28 535.831 1936.16 535.858 1935.3 535.858 1934.95 535.858 1934.57 535.851 1934.16 535.838 1933.76 535.824 1933.34 535.804 1932.91 535.777L1932.91 551.745C1932.91 555.203 1933.29 557.351 1934.04 558.188 1935.07 559.377 1936.61 559.972 1938.66 559.972L1940.81 559.972 1940.81 561.471 1917.26 561.471 1917.26 559.972 1919.33 559.972C1921.65 559.972 1923.32 559.215 1924.32 557.702 1924.88 556.865 1925.17 554.879 1925.17 551.745L1925.17 516.243C1925.17 512.784 1924.79 510.636 1924.03 509.799 1922.98 508.61 1921.41 508.016 1919.33 508.016L1917.26 508.016ZM1862.26 506.516 1882.28 506.516C1888.12 506.516 1892.42 506.942 1895.19 507.793 1897.96 508.644 1900.31 510.211 1902.24 512.494 1904.18 514.777 1905.14 517.499 1905.14 520.66 1905.14 524.037 1904.04 526.969 1901.84 529.455 1899.64 531.94 1896.23 533.696 1891.61 534.723L1902.95 550.488C1905.55 554.109 1907.78 556.513 1909.64 557.702 1911.5 558.891 1913.94 559.647 1916.94 559.972L1916.94 561.471 1902.26 561.471 1883.66 535.777C1882.28 535.831 1881.16 535.858 1880.3 535.858 1879.95 535.858 1879.57 535.851 1879.16 535.838 1878.76 535.824 1878.34 535.804 1877.91 535.777L1877.91 551.745C1877.91 555.203 1878.29 557.351 1879.04 558.188 1880.07 559.377 1881.61 559.972 1883.66 559.972L1885.81 559.972 1885.81 561.471 1862.26 561.471 1862.26 559.972 1864.33 559.972C1866.65 559.972 1868.32 559.215 1869.32 557.702 1869.88 556.865 1870.17 554.879 1870.17 551.745L1870.17 516.243C1870.17 512.784 1869.79 510.636 1869.03 509.799 1867.98 508.61 1866.41 508.016 1864.33 508.016L1862.26 508.016ZM2189.12 505.26C2192.04 505.26 2195.13 505.976 2198.4 507.408 2199.92 508.083 2200.98 508.421 2201.6 508.421 2202.31 508.421 2202.88 508.211 2203.33 507.793 2203.77 507.374 2204.13 506.53 2204.4 505.26L2205.9 505.26 2205.9 524.267 2204.4 524.267C2203.91 520.62 2203.04 517.715 2201.79 515.554 2200.53 513.392 2198.74 511.677 2196.42 510.407 2194.09 509.137 2191.69 508.502 2189.2 508.502 2186.39 508.502 2184.07 509.36 2182.23 511.075 2180.4 512.791 2179.48 514.743 2179.48 516.932 2179.48 518.607 2180.06 520.133 2181.22 521.511 2182.89 523.538 2186.88 526.239 2193.17 529.617 2198.31 532.372 2201.81 534.487 2203.69 535.959 2205.57 537.432 2207.01 539.168 2208.03 541.167 2209.04 543.166 2209.55 545.26 2209.55 547.449 2209.55 551.609 2207.93 555.196 2204.7 558.209 2201.48 561.221 2197.32 562.727 2192.24 562.727 2190.65 562.727 2189.15 562.606 2187.74 562.363 2186.91 562.228 2185.17 561.735 2182.54 560.883 2179.9 560.032 2178.23 559.607 2177.53 559.607 2176.86 559.607 2176.32 559.81 2175.93 560.215 2175.54 560.62 2175.25 561.458 2175.06 562.727L2173.56 562.727 2173.56 543.882 2175.06 543.882C2175.76 547.827 2176.71 550.779 2177.9 552.737 2179.08 554.696 2180.9 556.324 2183.35 557.621 2185.79 558.918 2188.47 559.566 2191.39 559.566 2194.77 559.566 2197.44 558.675 2199.4 556.892 2201.35 555.108 2202.33 553.001 2202.33 550.569 2202.33 549.218 2201.96 547.854 2201.22 546.476 2200.48 545.098 2199.32 543.815 2197.75 542.626 2196.7 541.815 2193.82 540.093 2189.12 537.459 2184.42 534.824 2181.08 532.724 2179.09 531.157 2177.11 529.59 2175.6 527.86 2174.57 525.969 2173.55 524.078 2173.03 521.997 2173.03 519.728 2173.03 515.783 2174.55 512.386 2177.57 509.535 2180.6 506.685 2184.45 505.26 2189.12 505.26ZM2001.2 505.26C2008.33 505.26 2014.51 507.968 2019.74 513.385 2024.97 518.803 2027.58 525.564 2027.58 533.669 2027.58 542.018 2024.95 548.948 2019.68 554.46 2014.41 559.972 2008.04 562.727 2000.55 562.727 1992.99 562.727 1986.63 560.039 1981.48 554.663 1976.34 549.286 1973.76 542.329 1973.76 533.791 1973.76 525.064 1976.74 517.945 1982.68 512.433 1987.84 507.651 1994.01 505.26 2001.2 505.26ZM1829.86 505.26 1831.28 505.26 1850.41 550.975C1851.95 554.649 1853.35 557.033 1854.6 558.128 1855.86 559.222 1857.61 559.837 1859.85 559.972L1859.85 561.471 1838.17 561.471 1838.17 559.972C1840.36 559.864 1841.84 559.499 1842.61 558.877 1843.38 558.256 1843.76 557.499 1843.76 556.608 1843.76 555.419 1843.22 553.541 1842.14 550.975L1838.82 543.072 1817.54 543.072 1813.81 551.745C1812.9 553.879 1812.44 555.473 1812.44 556.527 1812.44 557.364 1812.83 558.101 1813.63 558.736 1814.43 559.37 1816.15 559.782 1818.8 559.972L1818.8 561.471 1801.49 561.471 1801.49 559.972C1803.79 559.566 1805.28 559.039 1805.95 558.391 1807.33 557.094 1808.86 554.46 1810.53 550.488Z" fill-rule="evenodd"/><text fill="#000000" fill-opacity="0" font-family="Arial,Arial_MSFontService,sans-serif" font-size="57.4678" x="1801.49" y="555.544">ARROneNS</text><path d="M2231.48 543.764 2220.14 573.549 2240.87 573.549ZM2230.44 537.182 2234.85 537.182 2247.42 576.409 2247.42 578.315 2214.86 578.315 2214.86 576.409Z" fill-rule="evenodd"/><text fill="#000000" fill-opacity="0" font-family="Arial,Arial_MSFontService,sans-serif" font-size="41.1333" x="2214.86" y="573.173">∆</text><path d="M1636.2 634.287 1772.2 634.287" stroke="#006600" stroke-width="4.58333" stroke-linecap="round" stroke-linejoin="round" stroke-miterlimit="10" fill="none" fill-rule="evenodd"/><path d="M1704.2 614.336 1724.2 654.336 1684.2 654.336Z" stroke="#006600" stroke-width="4.58333" stroke-linejoin="round" stroke-miterlimit="10" fill="none" fill-rule="evenodd"/><path d="M2098.82 624.746C2097.39 624.746 2095.95 625.171 2094.51 626.022 2093.06 626.873 2091.89 628.366 2091 630.5 2090.11 632.635 2089.66 635.377 2089.66 638.727 2089.66 644.131 2090.74 648.792 2092.88 652.709 2095.03 656.627 2097.86 658.586 2101.38 658.586 2104 658.586 2106.16 657.505 2107.86 655.344 2109.56 653.182 2110.41 649.467 2110.41 644.199 2110.41 637.606 2108.99 632.419 2106.16 628.636 2104.24 626.042 2101.79 624.746 2098.82 624.746ZM2019.86 623.206 2035.42 623.206 2035.42 624.705C2033.99 624.813 2033.05 625.07 2032.6 625.475 2032.16 625.88 2031.93 626.461 2031.93 627.218 2031.93 628.055 2032.16 629.068 2032.62 630.257L2040.56 651.615 2048.55 634.229 2046.44 628.758C2045.79 627.137 2044.94 626.015 2043.89 625.394 2043.29 625.016 2042.19 624.786 2040.56 624.705L2040.56 623.206 2058.23 623.206 2058.23 624.705C2056.29 624.786 2054.91 625.137 2054.1 625.759 2053.56 626.191 2053.29 626.88 2053.29 627.826 2053.29 628.366 2053.4 628.92 2053.61 629.487L2062.04 650.805 2069.87 630.257C2070.41 628.798 2070.68 627.636 2070.68 626.772 2070.68 626.259 2070.41 625.799 2069.89 625.394 2069.36 624.989 2068.33 624.759 2066.79 624.705L2066.79 623.206 2078.5 623.206 2078.5 624.705C2076.15 625.056 2074.42 626.65 2073.31 629.487L2060.91 661.463 2059.25 661.463 2049.97 637.755 2039.15 661.463 2037.65 661.463 2025.73 630.257C2024.95 628.285 2024.18 626.954 2023.42 626.265 2022.67 625.576 2021.48 625.056 2019.86 624.705ZM2100.08 622.111C2105.7 622.111 2110.21 624.246 2113.61 628.515 2116.51 632.162 2117.95 636.35 2117.95 641.078 2117.95 644.401 2117.15 647.765 2115.56 651.169 2113.97 654.574 2111.77 657.14 2108.97 658.87 2106.18 660.599 2103.06 661.463 2099.63 661.463 2094.04 661.463 2089.6 659.234 2086.3 654.776 2083.52 651.021 2082.12 646.806 2082.12 642.132 2082.12 638.727 2082.97 635.343 2084.66 631.98 2086.35 628.616 2088.57 626.13 2091.32 624.523 2094.08 622.915 2097 622.111 2100.08 622.111ZM1826.85 616.721 1817.28 638.93 1836.17 638.93ZM1937.75 608.454C1936.19 608.454 1934.07 608.71 1931.39 609.224L1931.39 632.081C1931.9 632.081 1932.35 632.088 1932.73 632.101 1933.11 632.115 1933.42 632.122 1933.66 632.122 1938.9 632.122 1942.85 630.987 1945.51 628.717 1948.18 626.448 1949.51 623.557 1949.51 620.044 1949.51 616.613 1948.43 613.823 1946.28 611.675 1944.14 609.528 1941.29 608.454 1937.75 608.454ZM1882.75 608.454C1881.19 608.454 1879.07 608.71 1876.39 609.224L1876.39 632.081C1876.9 632.081 1877.35 632.088 1877.73 632.101 1878.11 632.115 1878.42 632.122 1878.66 632.122 1883.9 632.122 1887.85 630.987 1890.51 628.717 1893.18 626.448 1894.51 623.557 1894.51 620.044 1894.51 616.613 1893.43 613.823 1891.28 611.675 1889.14 609.528 1886.29 608.454 1882.75 608.454ZM2119.23 605.373 2134.15 605.373 2167.75 646.59 2167.75 614.897C2167.75 611.52 2167.37 609.413 2166.61 608.575 2165.61 607.44 2164.03 606.873 2161.87 606.873L2159.96 606.873 2159.96 605.373 2179.09 605.373 2179.09 606.873 2177.15 606.873C2174.82 606.873 2173.18 607.575 2172.2 608.98 2171.61 609.845 2171.31 611.817 2171.31 614.897L2171.31 661.22 2169.85 661.22 2133.62 616.964 2133.62 650.805C2133.62 654.182 2133.99 656.289 2134.72 657.127 2135.74 658.262 2137.32 658.829 2139.46 658.829L2141.4 658.829 2141.4 660.329 2122.27 660.329 2122.27 658.829 2124.18 658.829C2126.53 658.829 2128.19 658.127 2129.16 656.722 2129.76 655.857 2130.05 653.885 2130.05 650.805L2130.05 612.587C2128.46 610.723 2127.25 609.494 2126.43 608.899 2125.6 608.305 2124.39 607.751 2122.8 607.238 2122.02 606.995 2120.83 606.873 2119.23 606.873ZM1972.49 605.373 2017.35 605.373 2017.96 618.261 2016.42 618.261C2016.12 615.992 2015.72 614.371 2015.21 613.398 2014.37 611.831 2013.25 610.676 2011.86 609.933 2010.47 609.19 2008.64 608.818 2006.37 608.818L1998.63 608.818 1998.63 650.805C1998.63 654.182 1998.99 656.289 1999.72 657.127 2000.75 658.262 2002.33 658.829 2004.47 658.829L2006.37 658.829 2006.37 660.329 1983.07 660.329 1983.07 658.829 1985.01 658.829C1987.34 658.829 1988.98 658.127 1989.96 656.722 1990.55 655.857 1990.85 653.885 1990.85 650.805L1990.85 608.818 1984.24 608.818C1981.68 608.818 1979.85 609.007 1978.77 609.386 1977.37 609.899 1976.16 610.885 1975.16 612.344 1974.16 613.803 1973.57 615.776 1973.38 618.261L1971.84 618.261ZM1915.75 605.373 1935.77 605.373C1941.6 605.373 1945.91 605.799 1948.68 606.65 1951.44 607.501 1953.8 609.068 1955.73 611.351 1957.66 613.634 1958.62 616.356 1958.62 619.518 1958.62 622.895 1957.52 625.826 1955.32 628.312 1953.12 630.798 1949.71 632.554 1945.09 633.581L1956.44 649.346C1959.03 652.966 1961.26 655.371 1963.12 656.56 1964.99 657.748 1967.42 658.505 1970.42 658.829L1970.42 660.329 1955.75 660.329 1937.15 634.634C1935.77 634.688 1934.65 634.715 1933.78 634.715 1933.43 634.715 1933.05 634.708 1932.65 634.695 1932.24 634.682 1931.82 634.661 1931.39 634.634L1931.39 650.602C1931.39 654.06 1931.77 656.208 1932.53 657.046 1933.55 658.235 1935.09 658.829 1937.15 658.829L1939.29 658.829 1939.29 660.329 1915.75 660.329 1915.75 658.829 1917.81 658.829C1920.14 658.829 1921.8 658.073 1922.8 656.56 1923.37 655.722 1923.65 653.736 1923.65 650.602L1923.65 615.1C1923.65 611.642 1923.27 609.494 1922.52 608.656 1921.46 607.467 1919.89 606.873 1917.81 606.873L1915.75 606.873ZM1860.75 605.373 1880.77 605.373C1886.6 605.373 1890.91 605.799 1893.68 606.65 1896.44 607.501 1898.8 609.068 1900.73 611.351 1902.66 613.634 1903.62 616.356 1903.62 619.518 1903.62 622.895 1902.52 625.826 1900.32 628.312 1898.12 630.798 1894.71 632.554 1890.09 633.581L1901.44 649.346C1904.03 652.966 1906.26 655.371 1908.12 656.56 1909.99 657.748 1912.42 658.505 1915.42 658.829L1915.42 660.329 1900.75 660.329 1882.15 634.634C1880.77 634.688 1879.65 634.715 1878.78 634.715 1878.43 634.715 1878.05 634.708 1877.65 634.695 1877.24 634.682 1876.82 634.661 1876.39 634.634L1876.39 650.602C1876.39 654.06 1876.77 656.208 1877.53 657.046 1878.55 658.235 1880.09 658.829 1882.15 658.829L1884.29 658.829 1884.29 660.329 1860.75 660.329 1860.75 658.829 1862.81 658.829C1865.14 658.829 1866.8 658.073 1867.8 656.56 1868.37 655.722 1868.65 653.736 1868.65 650.602L1868.65 615.1C1868.65 611.642 1868.27 609.494 1867.52 608.656 1866.46 607.467 1864.89 606.873 1862.81 606.873L1860.75 606.873ZM2200.61 604.117C2203.52 604.117 2206.62 604.833 2209.89 606.265 2211.4 606.941 2212.47 607.278 2213.09 607.278 2213.79 607.278 2214.36 607.069 2214.81 606.65 2215.26 606.231 2215.61 605.387 2215.88 604.117L2217.38 604.117 2217.38 623.124 2215.88 623.124C2215.4 619.477 2214.53 616.573 2213.27 614.411 2212.01 612.25 2210.22 610.534 2207.9 609.264 2205.58 607.994 2203.17 607.359 2200.69 607.359 2197.88 607.359 2195.55 608.217 2193.72 609.933 2191.88 611.648 2190.96 613.601 2190.96 615.789 2190.96 617.464 2191.54 618.991 2192.7 620.369 2194.38 622.395 2198.36 625.097 2204.66 628.474 2209.79 631.23 2213.3 633.344 2215.17 634.817 2217.05 636.289 2218.5 638.025 2219.51 640.024 2220.52 642.024 2221.03 644.118 2221.03 646.306 2221.03 650.467 2219.42 654.054 2216.19 657.066 2212.96 660.079 2208.81 661.585 2203.73 661.585 2202.13 661.585 2200.63 661.463 2199.23 661.22 2198.39 661.085 2196.65 660.592 2194.02 659.741 2191.39 658.89 2189.72 658.464 2189.01 658.464 2188.34 658.464 2187.81 658.667 2187.41 659.072 2187.02 659.477 2186.73 660.315 2186.54 661.585L2185.04 661.585 2185.04 642.74 2186.54 642.74C2187.24 646.684 2188.19 649.636 2189.38 651.595 2190.57 653.554 2192.39 655.182 2194.83 656.478 2197.28 657.775 2199.96 658.424 2202.87 658.424 2206.25 658.424 2208.92 657.532 2210.88 655.749 2212.84 653.966 2213.82 651.858 2213.82 649.427 2213.82 648.076 2213.45 646.711 2212.7 645.333 2211.96 643.956 2210.8 642.672 2209.24 641.483 2208.18 640.673 2205.31 638.95 2200.61 636.316 2195.9 633.682 2192.56 631.581 2190.57 630.014 2188.59 628.447 2187.08 626.718 2186.06 624.827 2185.03 622.935 2184.52 620.855 2184.52 618.585 2184.52 614.641 2186.03 611.243 2189.05 608.393 2192.08 605.542 2195.93 604.117 2200.61 604.117ZM1828.35 604.117 1829.76 604.117 1848.89 649.832C1850.43 653.506 1851.83 655.891 1853.09 656.985 1854.34 658.079 1856.09 658.694 1858.34 658.829L1858.34 660.329 1836.65 660.329 1836.65 658.829C1838.84 658.721 1840.32 658.356 1841.09 657.735 1841.86 657.113 1842.25 656.357 1842.25 655.465 1842.25 654.276 1841.71 652.399 1840.63 649.832L1837.3 641.929 1816.03 641.929 1812.3 650.602C1811.38 652.736 1810.92 654.331 1810.92 655.384 1810.92 656.222 1811.32 656.958 1812.11 657.593 1812.91 658.228 1814.63 658.64 1817.28 658.829L1817.28 660.329 1799.98 660.329 1799.98 658.829C1802.27 658.424 1803.76 657.897 1804.43 657.248 1805.81 655.952 1807.34 653.317 1809.01 649.346Z" fill-rule="evenodd"/><text fill="#000000" fill-opacity="0" font-family="Arial,Arial_MSFontService,sans-serif" font-size="57.4678" x="1799.98" y="654.401">ARRTwoNS</text><path d="M2243.72 642.622 2232.37 672.407 2253.1 672.407ZM2242.68 636.039 2247.08 636.039 2259.65 675.266 2259.65 677.172 2227.1 677.172 2227.1 675.266Z" fill-rule="evenodd"/><text fill="#000000" fill-opacity="0" font-family="Arial,Arial_MSFontService,sans-serif" font-size="41.1333" x="2227.1" y="672.031">∆</text><text font-family="Times New Roman,Times New Roman_MSFontService,sans-serif" font-weight="400" font-size="83" transform="matrix(1 0 0 1 1161.42 1271)">0<tspan font-size="83" x="182.868" y="6">2</tspan><tspan font-size="83" x="1093.29" y="6">12</tspan></text><path d="M1543.27 1326.28C1545.16 1326.28 1546.65 1326.9 1547.74 1328.14 1548.83 1329.39 1549.38 1331.01 1549.38 1333.02 1549.38 1334.6 1549.02 1336.37 1548.3 1338.32L1548.84 1338.5C1551.78 1334.36 1554.57 1331.3 1557.22 1329.31 1559.87 1327.32 1562.6 1326.32 1565.42 1326.32 1568.2 1326.32 1570.34 1327.12 1571.84 1328.73 1573.34 1330.33 1574.09 1332.55 1574.09 1335.4 1574.09 1337.28 1573.65 1339.96 1572.78 1343.44L1569.86 1355.21C1569.06 1358.47 1568.65 1360.78 1568.65 1362.13 1568.65 1363.32 1568.85 1364.19 1569.23 1364.73 1569.62 1365.27 1570.24 1365.54 1571.08 1365.54 1571.97 1365.54 1572.93 1365.17 1573.95 1364.44 1574.97 1363.71 1576.41 1362.31 1578.26 1360.24L1580.82 1362.75C1578.25 1365.51 1576 1367.52 1574.09 1368.8 1572.17 1370.07 1569.98 1370.71 1567.53 1370.71 1565.58 1370.71 1564.02 1370.01 1562.86 1368.62 1561.69 1367.22 1561.1 1365.45 1561.1 1363.29 1561.1 1361.35 1561.6 1358.49 1562.59 1354.71L1564.56 1346.94C1565.28 1344.13 1565.75 1342.05 1565.98 1340.7 1566.2 1339.35 1566.31 1338.26 1566.31 1337.42 1566.31 1335.35 1565.97 1333.86 1565.28 1332.95 1564.59 1332.04 1563.47 1331.58 1561.91 1331.58 1560.65 1331.58 1559.3 1332.08 1557.85 1333.08 1556.39 1334.09 1554.85 1335.6 1553.22 1337.62 1551.59 1339.64 1550.28 1341.6 1549.29 1343.51 1548.3 1345.41 1547.49 1347.75 1546.86 1350.54L1542.6 1369.99 1534.82 1369.99 1541.38 1341.51C1542.04 1338.63 1542.37 1336.42 1542.37 1334.86 1542.37 1333.66 1542.18 1332.79 1541.79 1332.25 1541.4 1331.71 1540.78 1331.44 1539.95 1331.44 1539.02 1331.44 1538.04 1331.83 1537 1332.59 1535.97 1333.35 1534.56 1334.74 1532.76 1336.74L1530.2 1334.23C1532.95 1331.35 1535.24 1329.31 1537.07 1328.1 1538.9 1326.88 1540.96 1326.28 1543.27 1326.28Z" fill-rule="evenodd"/><text fill="#000000" fill-opacity="0" font-family="Arial,Arial_MSFontService,sans-serif" font-size="44.4277" x="1530.2" y="1365.15">𝑛</text><path d="M1638.7 1305.07 1639.91 1308.53C1632.91 1310.84 1627.72 1315.34 1624.35 1322.03 1620.98 1328.73 1619.3 1337.13 1619.3 1347.26 1619.3 1357.74 1620.98 1366.38 1624.35 1373.18 1627.72 1379.97 1632.86 1384.53 1639.78 1386.83L1638.7 1390.29C1629.93 1387.99 1623.2 1383.02 1618.53 1375.4 1613.86 1367.78 1611.52 1358.55 1611.52 1347.71 1611.52 1336.89 1613.87 1327.66 1618.55 1320.01 1623.24 1312.36 1629.96 1307.38 1638.7 1305.07Z" fill-rule="evenodd"/><text fill="#000000" fill-opacity="0" font-family="Arial,Arial_MSFontService,sans-serif" font-size="85.2168" x="1611.52" y="1379.64">(</text><path d="M1653.92 1319.09 1674.27 1339.4 1694.62 1319.09 1698.84 1323.27 1678.72 1343.75 1698.89 1364.15 1694.39 1368.64 1674.27 1348.11 1653.51 1368.46 1649.34 1364.24 1669.87 1343.75 1649.43 1323.58Z" fill-rule="evenodd"/><text fill="#000000" fill-opacity="0" font-family="Arial,Arial_MSFontService,sans-serif" font-size="49.5488" x="1649.34" y="1362.45">×</text><path d="M1803.41 1311.77C1801.34 1311.77 1799.61 1312.38 1798.22 1313.61 1796.83 1314.84 1795.7 1316.6 1794.85 1318.91 1794 1321.22 1793.39 1324.02 1793.03 1327.33 1792.67 1330.64 1792.49 1334.38 1792.49 1338.54 1792.49 1348.3 1793.4 1355.47 1795.21 1360.04 1797.02 1364.6 1799.83 1366.89 1803.63 1366.89 1807.26 1366.89 1809.94 1364.74 1811.69 1360.44 1813.45 1356.14 1814.32 1349.49 1814.32 1340.47 1814.32 1333.59 1813.87 1328.01 1812.98 1323.74 1812.08 1319.47 1810.83 1316.41 1809.22 1314.55 1807.62 1312.7 1805.68 1311.77 1803.41 1311.77ZM1803.63 1307.95C1810.19 1307.95 1815.07 1310.48 1818.28 1315.54 1821.48 1320.6 1823.08 1328.25 1823.08 1338.5 1823.08 1349.1 1821.37 1357.12 1817.94 1362.55 1814.51 1367.99 1809.5 1370.71 1802.91 1370.71 1796.44 1370.71 1791.63 1368.16 1788.47 1363.07 1785.31 1357.98 1783.73 1350.25 1783.73 1339.89 1783.73 1334.38 1784.22 1329.62 1785.19 1325.6 1786.16 1321.59 1787.53 1318.27 1789.28 1315.65 1791.03 1313.03 1793.13 1311.09 1795.59 1309.84 1798.05 1308.58 1800.73 1307.95 1803.63 1307.95ZM1755.96 1307.95 1758.43 1307.95C1758.25 1310.82 1758.16 1314.81 1758.16 1319.9L1758.16 1358.26C1758.16 1360 1758.25 1361.31 1758.45 1362.19 1758.64 1363.08 1758.99 1363.8 1759.48 1364.35 1759.98 1364.9 1760.69 1365.34 1761.62 1365.65 1762.54 1365.97 1763.71 1366.21 1765.12 1366.37 1766.53 1366.54 1768.38 1366.65 1770.69 1366.71L1770.69 1369.99 1737.49 1369.99 1737.49 1366.71C1740.82 1366.56 1743.19 1366.36 1744.61 1366.1 1746.04 1365.85 1747.12 1365.46 1747.87 1364.96 1748.62 1364.45 1749.17 1363.73 1749.51 1362.8 1749.85 1361.87 1750.03 1360.36 1750.03 1358.26L1750.03 1321.83C1750.03 1320.63 1749.82 1319.76 1749.4 1319.2 1748.98 1318.65 1748.36 1318.37 1747.56 1318.37 1746.6 1318.37 1745.23 1318.87 1743.47 1319.85 1741.7 1320.84 1739.51 1322.21 1736.91 1323.94L1734.93 1320.48Z" fill-rule="evenodd"/><text fill="#000000" fill-opacity="0" font-family="Arial,Arial_MSFontService,sans-serif" font-size="62.7559" x="1734.93" y="1362.86">10</text><path d="M1849.98 1302.16C1847.89 1305.19 1845.8 1308.2 1843.72 1311.19 1841.64 1314.18 1839.54 1317.18 1837.42 1320.19L1837.42 1320.58 1849.98 1320.58 1849.98 1314C1849.98 1313.26 1849.99 1312.35 1850.02 1311.26 1850.04 1310.17 1850.07 1309.06 1850.1 1307.94 1850.13 1306.81 1850.17 1305.74 1850.21 1304.73 1850.26 1303.72 1850.3 1302.86 1850.34 1302.16ZM1850.93 1294.51 1856.13 1294.51 1856.13 1320.58 1856.72 1320.58C1857.62 1320.58 1858.34 1320.54 1858.9 1320.45 1859.45 1320.36 1859.9 1320.18 1860.24 1319.91 1860.58 1319.64 1860.86 1319.26 1861.09 1318.76 1861.32 1318.27 1861.56 1317.64 1861.83 1316.85L1864.61 1316.85C1864.54 1318.05 1864.47 1319.24 1864.39 1320.42 1864.32 1321.59 1864.25 1322.79 1864.18 1324.02L1856.13 1324.02 1856.13 1328.3C1856.13 1329.57 1856.16 1330.55 1856.22 1331.25 1856.27 1331.94 1856.43 1332.49 1856.71 1332.88 1856.98 1333.27 1857.38 1333.57 1857.92 1333.76 1858.45 1333.96 1859.2 1334.19 1860.16 1334.45L1860.16 1336.41 1846.03 1336.41 1846.03 1334.45C1846.68 1334.28 1847.24 1334.12 1847.69 1333.98 1848.15 1333.84 1848.53 1333.67 1848.84 1333.49 1849.14 1333.3 1849.37 1333.08 1849.51 1332.83 1849.65 1332.58 1849.76 1332.26 1849.84 1331.88 1849.91 1331.5 1849.96 1331.02 1849.97 1330.44 1849.98 1329.87 1849.98 1329.15 1849.98 1328.3L1849.98 1324.02 1831.57 1324.02 1831.57 1321.43C1834.81 1316.92 1838.04 1312.43 1841.25 1307.97 1844.45 1303.51 1847.68 1299.02 1850.93 1294.51Z" fill-rule="evenodd"/><text fill="#000000" fill-opacity="0" font-family="Arial,Arial_MSFontService,sans-serif" font-size="41.9077" x="1831.57" y="1331.18">4</text><path d="M1874.6 1305.07C1883.34 1307.38 1890.06 1312.36 1894.75 1320.01 1899.43 1327.66 1901.78 1336.89 1901.78 1347.71 1901.78 1358.55 1899.44 1367.78 1894.77 1375.4 1890.1 1383.02 1883.37 1387.99 1874.6 1390.29L1873.52 1386.83C1880.44 1384.53 1885.58 1379.97 1888.95 1373.18 1892.32 1366.38 1894 1357.74 1894 1347.26 1894 1337.13 1892.33 1328.73 1888.97 1322.03 1885.62 1315.34 1880.42 1310.84 1873.38 1308.53Z" fill-rule="evenodd"/><text fill="#000000" fill-opacity="0" font-family="Arial,Arial_MSFontService,sans-serif" font-size="85.2168" x="1873.38" y="1379.64">)</text><text font-family="Times New Roman,Times New Roman_MSFontService,sans-serif" font-weight="400" font-size="92" transform="matrix(-1.83697e-16 -1 1 -1.83697e-16 1010.11 1042)">Relative Error</text><text font-family="Times New Roman,Times New Roman_MSFontService,sans-serif" font-weight="700" font-size="101" transform="matrix(1 0 0 1 1536.17 334)">(a) <tspan font-size="101" x="143.229" y="0">Gplus</tspan></text><path d="M1536.14 343.964 1736.64 343.964 1937.14 343.964 1937.14 348.964 1736.64 348.964 1536.14 348.964Z" fill-rule="evenodd"/><text font-family="Times New Roman,Times New Roman_MSFontService,sans-serif" font-weight="400" font-size="83" transform="matrix(1 0 0 1 2550.62 1270)">0<tspan font-size="83" x="122.28" y="6">1</tspan><tspan font-size="83" x="247.429" y="5">2</tspan></text><text font-family="Times New Roman,Times New Roman_MSFontService,sans-serif" font-weight="400" font-size="92" transform="matrix(-1.83697e-16 -1 1 -1.83697e-16 2399.31 1040)">Relative Error</text><text font-family="Times New Roman,Times New Roman_MSFontService,sans-serif" font-weight="700" font-size="101" transform="matrix(1 0 0 1 2914.48 332)">(b) IMDB</text><path d="M2914.34 342.19 3125.84 342.19 3337.34 342.19 3337.34 347.19 3125.84 347.19 2914.34 347.19Z" fill-rule="evenodd"/><text font-family="Times New Roman,Times New Roman_MSFontService,sans-serif" font-weight="400" font-size="83" transform="matrix(1 0 0 1 1529.46 1277)">4<tspan font-size="83" x="187" y="0">6</tspan><tspan font-size="83" x="372.167" y="0">8</tspan><tspan font-size="83" x="538.542" y="0">10</tspan><tspan font-size="83" x="-491.926" y="-76">10</tspan><tspan font-size="55" x="-409.426" y="-101">-</tspan><tspan font-size="55" x="-391.092" y="-101">2</tspan><tspan font-size="83" x="-491.926" y="-271">10</tspan><tspan font-size="55" x="-409.426" y="-296">-</tspan><tspan font-size="55" x="-391.092" y="-296">1</tspan><tspan font-size="83" x="-447.888" y="-467">1</tspan><tspan font-size="83" x="-481.197" y="-854">10</tspan><tspan font-size="55" x="-398.697" y="-879">2</tspan><tspan font-size="83" x="-468.669" y="-667">10</tspan><tspan font-size="83" x="1390.94" y="-1">3</tspan><tspan font-size="83" x="1516.09" y="-2">4</tspan><tspan font-size="83" x="1638.44" y="-1">5</tspan><tspan font-size="83" x="1763.59" y="-2">6</tspan><tspan font-size="83" x="1885.94" y="-1">7</tspan><tspan font-size="83" x="2011.09" y="-2">8</tspan><tspan font-size="83" x="2132.09" y="-2">9</tspan></text><path d="M2951.88 1325.22C2953.77 1325.22 2955.26 1325.84 2956.35 1327.08 2957.44 1328.32 2957.99 1329.95 2957.99 1331.95 2957.99 1333.54 2957.63 1335.31 2956.91 1337.26L2957.45 1337.43C2960.39 1333.3 2963.18 1330.24 2965.83 1328.25 2968.48 1326.26 2971.21 1325.26 2974.03 1325.26 2976.81 1325.26 2978.95 1326.06 2980.45 1327.66 2981.95 1329.27 2982.7 1331.49 2982.7 1334.34 2982.7 1336.22 2982.26 1338.9 2981.4 1342.38L2978.48 1354.15C2977.67 1357.41 2977.26 1359.72 2977.26 1361.06 2977.26 1362.26 2977.46 1363.13 2977.85 1363.67 2978.24 1364.21 2978.85 1364.48 2979.69 1364.48 2980.59 1364.48 2981.55 1364.11 2982.56 1363.38 2983.58 1362.64 2985.02 1361.24 2986.88 1359.18L2989.44 1361.69C2986.86 1364.45 2984.61 1366.46 2982.7 1367.73 2980.78 1369.01 2978.6 1369.64 2976.14 1369.64 2974.19 1369.64 2972.64 1368.95 2971.47 1367.55 2970.3 1366.16 2969.72 1364.39 2969.72 1362.23 2969.72 1360.29 2970.21 1357.43 2971.2 1353.65L2973.17 1345.88C2973.89 1343.07 2974.37 1340.98 2974.59 1339.64 2974.81 1338.29 2974.93 1337.2 2974.93 1336.36 2974.93 1334.29 2974.58 1332.8 2973.89 1331.89 2973.2 1330.97 2972.08 1330.52 2970.52 1330.52 2969.27 1330.52 2967.91 1331.02 2966.46 1332.02 2965.01 1333.03 2963.46 1334.54 2961.83 1336.56 2960.2 1338.58 2958.89 1340.54 2957.9 1342.44 2956.91 1344.35 2956.1 1346.69 2955.48 1349.47L2951.21 1368.93 2943.44 1368.93 2950 1340.44C2950.65 1337.57 2950.98 1335.35 2950.98 1333.8 2950.98 1332.6 2950.79 1331.73 2950.4 1331.19 2950.01 1330.65 2949.4 1330.38 2948.56 1330.38 2947.63 1330.38 2946.65 1330.76 2945.62 1331.53 2944.58 1332.29 2943.17 1333.68 2941.37 1335.68L2938.81 1333.17C2941.56 1330.29 2943.86 1328.25 2945.68 1327.04 2947.51 1325.82 2949.58 1325.22 2951.88 1325.22Z" fill-rule="evenodd"/><text fill="#000000" fill-opacity="0" font-family="Arial,Arial_MSFontService,sans-serif" font-size="44.4277" x="2938.81" y="1364.09">𝑛</text><path d="M3047.31 1304.01 3048.53 1307.47C3041.52 1309.78 3036.33 1314.28 3032.96 1320.97 3029.59 1327.66 3027.91 1336.07 3027.91 1346.19 3027.91 1356.68 3029.59 1365.32 3032.96 1372.11 3036.33 1378.91 3041.47 1383.46 3048.39 1385.77L3047.31 1389.23C3038.54 1386.92 3031.82 1381.96 3027.14 1374.34 3022.47 1366.72 3020.14 1357.48 3020.14 1346.64 3020.14 1335.83 3022.48 1326.6 3027.17 1318.95 3031.85 1311.3 3038.57 1306.32 3047.31 1304.01Z" fill-rule="evenodd"/><text fill="#000000" fill-opacity="0" font-family="Arial,Arial_MSFontService,sans-serif" font-size="85.2168" x="3020.14" y="1378.58">(</text><path d="M3062.53 1318.03 3082.88 1338.33 3103.23 1318.03 3107.45 1322.21 3087.33 1342.69 3107.5 1363.09 3103.01 1367.58 3082.88 1347.05 3062.13 1367.4 3057.95 1363.18 3078.48 1342.69 3058.04 1322.52Z" fill-rule="evenodd"/><text fill="#000000" fill-opacity="0" font-family="Arial,Arial_MSFontService,sans-serif" font-size="49.5488" x="3057.95" y="1361.38">×</text><path d="M3212.02 1310.71C3209.95 1310.71 3208.22 1311.32 3206.83 1312.55 3205.44 1313.78 3204.31 1315.54 3203.46 1317.85 3202.61 1320.15 3202 1322.96 3201.64 1326.27 3201.28 1329.58 3201.1 1333.32 3201.1 1337.48 3201.1 1347.24 3202.01 1354.41 3203.82 1358.97 3205.63 1363.54 3208.44 1365.83 3212.24 1365.83 3215.87 1365.83 3218.55 1363.68 3220.31 1359.38 3222.06 1355.08 3222.93 1348.43 3222.93 1339.41 3222.93 1332.52 3222.49 1326.95 3221.59 1322.68 3220.69 1318.41 3219.44 1315.35 3217.84 1313.49 3216.23 1311.63 3214.29 1310.71 3212.02 1310.71ZM3212.24 1306.89C3218.8 1306.89 3223.68 1309.42 3226.89 1314.48 3230.09 1319.54 3231.69 1327.19 3231.69 1337.43 3231.69 1348.04 3229.98 1356.05 3226.55 1361.49 3223.12 1366.93 3218.11 1369.64 3211.52 1369.64 3205.06 1369.64 3200.24 1367.1 3197.08 1362.01 3193.92 1356.92 3192.34 1349.19 3192.34 1338.83 3192.34 1333.32 3192.83 1328.56 3193.8 1324.54 3194.78 1320.53 3196.14 1317.21 3197.89 1314.59 3199.64 1311.97 3201.75 1310.03 3204.2 1308.77 3206.66 1307.52 3209.34 1306.89 3212.24 1306.89ZM3164.57 1306.89 3167.04 1306.89C3166.86 1309.76 3166.77 1313.75 3166.77 1318.84L3166.77 1357.2C3166.77 1358.94 3166.87 1360.25 3167.06 1361.13 3167.26 1362.01 3167.6 1362.73 3168.09 1363.29 3168.59 1363.84 3169.3 1364.28 3170.23 1364.59 3171.16 1364.9 3172.32 1365.14 3173.73 1365.31 3175.14 1365.47 3177 1365.59 3179.3 1365.65L3179.3 1368.93 3146.1 1368.93 3146.1 1365.65C3149.43 1365.5 3151.8 1365.29 3153.22 1365.04 3154.65 1364.78 3155.73 1364.4 3156.48 1363.89 3157.23 1363.38 3157.78 1362.67 3158.12 1361.74 3158.47 1360.81 3158.64 1359.3 3158.64 1357.2L3158.64 1320.77C3158.64 1319.57 3158.43 1318.69 3158.01 1318.14 3157.59 1317.59 3156.98 1317.31 3156.17 1317.31 3155.21 1317.31 3153.85 1317.8 3152.08 1318.79 3150.31 1319.78 3148.13 1321.14 3145.52 1322.88L3143.54 1319.42Z" fill-rule="evenodd"/><text fill="#000000" fill-opacity="0" font-family="Arial,Arial_MSFontService,sans-serif" font-size="62.7559" x="3143.54" y="1361.8">10</text><path d="M3266.41 1291.42 3269.36 1291.42 3268.9 1299.33 3249.73 1299.33 3249.73 1312.12C3250.89 1311.73 3252.15 1311.42 3253.52 1311.18 3254.9 1310.94 3256.28 1310.82 3257.68 1310.82 3259.69 1310.82 3261.5 1311.09 3263.13 1311.65 3264.75 1312.21 3266.15 1313 3267.31 1314.04 3268.48 1315.07 3269.39 1316.33 3270.03 1317.8 3270.67 1319.27 3270.99 1320.92 3270.99 1322.76 3270.99 1324.85 3270.63 1326.72 3269.92 1328.35 3269.2 1329.99 3268.16 1331.38 3266.82 1332.52 3265.48 1333.67 3263.85 1334.54 3261.92 1335.14 3259.99 1335.74 3257.81 1336.04 3255.39 1336.04 3253.47 1336.04 3251.51 1335.85 3249.5 1335.48 3247.49 1335.11 3245.41 1334.57 3243.25 1333.85L3243.25 1326.58 3247.44 1326.58C3248.09 1328.79 3249.08 1330.36 3250.38 1331.31 3251.69 1332.26 3253.42 1332.73 3255.55 1332.73 3258.41 1332.73 3260.57 1331.99 3262.03 1330.51 3263.49 1329.03 3264.22 1326.7 3264.22 1323.54 3264.22 1320.51 3263.45 1318.26 3261.9 1316.79 3260.35 1315.31 3258.18 1314.58 3255.39 1314.58 3254.65 1314.58 3253.98 1314.59 3253.38 1314.61 3252.78 1314.63 3252.18 1314.69 3251.59 1314.77 3251.01 1314.86 3250.42 1314.98 3249.84 1315.13 3249.27 1315.29 3248.62 1315.46 3247.9 1315.66L3245.22 1314.19 3245.22 1293.61 3263.34 1293.61C3263.86 1293.59 3264.28 1293.55 3264.6 1293.51 3264.92 1293.47 3265.17 1293.37 3265.37 1293.22 3265.56 1293.06 3265.74 1292.85 3265.89 1292.58 3266.04 1292.3 3266.22 1291.92 3266.41 1291.42Z" fill-rule="evenodd"/><text fill="#000000" fill-opacity="0" font-family="Arial,Arial_MSFontService,sans-serif" font-size="44.623" x="3243.25" y="1330.46">5</text><path d="M3283.21 1304.01C3291.95 1306.32 3298.67 1311.3 3303.36 1318.95 3308.04 1326.6 3310.39 1335.83 3310.39 1346.64 3310.39 1357.48 3308.05 1366.72 3303.38 1374.34 3298.71 1381.96 3291.98 1386.92 3283.21 1389.23L3282.13 1385.77C3289.05 1383.46 3294.19 1378.91 3297.56 1372.11 3300.93 1365.32 3302.62 1356.68 3302.62 1346.19 3302.62 1336.07 3300.94 1327.66 3297.58 1320.97 3294.23 1314.28 3289.03 1309.78 3282 1307.47Z" fill-rule="evenodd"/><text fill="#000000" fill-opacity="0" font-family="Arial,Arial_MSFontService,sans-serif" font-size="85.2168" x="3282" y="1378.58">)</text><text font-family="Times New Roman,Times New Roman_MSFontService,sans-serif" font-weight="400" font-size="83" transform="matrix(1 0 0 1 2433.92 1201)">10<tspan font-size="55" x="82.5" y="-25">-</tspan><tspan font-size="55" x="100.833" y="-25">2</tspan><tspan font-size="83" x="0" y="-260">10</tspan><tspan font-size="55" x="82.5" y="-285">-</tspan><tspan font-size="55" x="100.833" y="-285">1</tspan><tspan font-size="83" x="44.0378" y="-521">1</tspan><tspan font-size="83" x="23.2563" y="-778">10</tspan></text><path d="M3000.26 402.371 3665.26 402.371 3665.26 688.371 3000.26 688.371Z" stroke="#000000" stroke-width="3.4375" stroke-linejoin="round" stroke-miterlimit="10" fill="#FFFFFF" fill-rule="evenodd"/><path d="M3023.2 447.287 3159.2 447.287" stroke="#FF0000" stroke-width="4.58333" stroke-linecap="round" stroke-linejoin="round" stroke-miterlimit="10" fill="none" fill-rule="evenodd"/><path d="M3109.2 445.337C3109.2 456.382 3100.46 465.336 3089.7 465.336 3078.93 465.336 3070.2 456.382 3070.2 445.337 3070.2 434.29 3078.93 425.336 3089.7 425.336 3100.46 425.336 3109.2 434.29 3109.2 445.337Z" stroke="#FF0000" stroke-width="4.58333" stroke-linejoin="round" stroke-miterlimit="10" fill="none" fill-rule="evenodd"/><path d="M3402.14 439.145 3415.14 439.145 3415.14 463.988C3415.14 467.446 3415.75 469.716 3416.95 470.796 3418.15 471.877 3419.6 472.418 3421.3 472.418 3422.47 472.418 3423.78 472.053 3425.26 471.323 3426.73 470.594 3428.48 469.202 3430.5 467.149L3430.5 446.115C3430.5 444.008 3430.12 442.583 3429.35 441.84 3428.58 441.097 3426.98 440.698 3424.55 440.644L3424.55 439.145 3437.19 439.145 3437.19 461.637C3437.19 465.933 3437.29 468.561 3437.5 469.52 3437.7 470.479 3438.02 471.148 3438.47 471.526 3438.91 471.904 3439.43 472.093 3440.03 472.093 3440.87 472.093 3441.81 471.864 3442.86 471.404L3443.43 472.823 3432.33 477.402 3430.5 477.402 3430.5 469.54C3427.32 472.998 3424.88 475.173 3423.21 476.065 3421.53 476.957 3419.76 477.402 3417.9 477.402 3415.82 477.402 3414.02 476.801 3412.49 475.599 3410.96 474.397 3409.9 472.85 3409.31 470.959 3408.71 469.067 3408.42 466.393 3408.42 462.934L3408.42 446.358C3408.42 444.602 3408.23 443.386 3407.85 442.711 3407.47 442.036 3406.91 441.515 3406.17 441.151 3405.42 440.786 3404.08 440.617 3402.14 440.644ZM3214.57 432.66 3205.01 454.869 3223.89 454.869ZM3325.48 424.393C3323.91 424.393 3321.79 424.649 3319.12 425.163L3319.12 448.02C3319.63 448.02 3320.08 448.027 3320.45 448.04 3320.83 448.054 3321.14 448.061 3321.39 448.061 3326.63 448.061 3330.58 446.926 3333.24 444.656 3335.9 442.387 3337.23 439.496 3337.23 435.983 3337.23 432.552 3336.16 429.763 3334.01 427.615 3331.86 425.467 3329.02 424.393 3325.48 424.393ZM3270.48 424.393C3268.91 424.393 3266.79 424.649 3264.12 425.163L3264.12 448.02C3264.63 448.02 3265.08 448.027 3265.45 448.04 3265.83 448.054 3266.14 448.061 3266.39 448.061 3271.63 448.061 3275.58 446.926 3278.24 444.656 3280.9 442.387 3282.23 439.496 3282.23 435.983 3282.23 432.552 3281.16 429.763 3279.01 427.615 3276.86 425.467 3274.02 424.393 3270.48 424.393ZM3358.39 421.313 3399.28 421.313 3399.81 433.39 3398.39 433.39C3397.69 430.823 3396.87 428.938 3395.94 427.736 3395.01 426.534 3393.86 425.663 3392.5 425.122 3391.13 424.582 3389.02 424.312 3386.15 424.312L3374.03 424.312 3374.03 445.913 3384.05 445.913C3386.34 445.913 3388.02 445.406 3389.09 444.393 3390.16 443.38 3390.87 441.374 3391.22 438.375L3392.72 438.375 3392.72 456.977 3391.22 456.977C3391.19 454.842 3390.91 453.275 3390.39 452.275 3389.86 451.276 3389.13 450.526 3388.2 450.026 3387.27 449.526 3385.88 449.276 3384.05 449.276L3374.03 449.276 3374.03 466.541C3374.03 469.324 3374.21 471.161 3374.56 472.053 3374.83 472.728 3375.4 473.309 3376.26 473.796 3377.45 474.444 3378.7 474.768 3379.99 474.768L3381.98 474.768 3381.98 476.268 3358.39 476.268 3358.39 474.768 3360.34 474.768C3362.61 474.768 3364.25 474.106 3365.28 472.782 3365.93 471.918 3366.25 469.837 3366.25 466.541L3366.25 431.039C3366.25 428.256 3366.08 426.419 3365.73 425.527 3365.46 424.852 3364.9 424.271 3364.07 423.785 3362.9 423.136 3361.66 422.812 3360.34 422.812L3358.39 422.812ZM3303.47 421.313 3323.49 421.313C3329.33 421.313 3333.63 421.738 3336.4 422.589 3339.17 423.44 3341.52 425.007 3343.45 427.29 3345.38 429.573 3346.35 432.296 3346.35 435.457 3346.35 438.834 3345.25 441.765 3343.05 444.251 3340.85 446.737 3337.43 448.493 3332.81 449.52L3344.16 465.285C3346.76 468.905 3348.98 471.31 3350.85 472.499 3352.71 473.687 3355.14 474.444 3358.14 474.768L3358.14 476.268 3343.47 476.268 3324.87 450.573C3323.49 450.627 3322.37 450.654 3321.51 450.654 3321.16 450.654 3320.78 450.648 3320.37 450.634 3319.97 450.621 3319.55 450.6 3319.12 450.573L3319.12 466.541C3319.12 469.999 3319.49 472.147 3320.25 472.985 3321.28 474.174 3322.82 474.768 3324.87 474.768L3327.02 474.768 3327.02 476.268 3303.47 476.268 3303.47 474.768 3305.54 474.768C3307.86 474.768 3309.52 474.012 3310.52 472.499 3311.09 471.661 3311.38 469.675 3311.38 466.541L3311.38 431.039C3311.38 427.581 3311 425.433 3310.24 424.595 3309.19 423.406 3307.62 422.812 3305.54 422.812L3303.47 422.812ZM3248.47 421.313 3268.49 421.313C3274.33 421.313 3278.63 421.738 3281.4 422.589 3284.17 423.44 3286.52 425.007 3288.45 427.29 3290.38 429.573 3291.35 432.296 3291.35 435.457 3291.35 438.834 3290.25 441.765 3288.05 444.251 3285.85 446.737 3282.43 448.493 3277.81 449.52L3289.16 465.285C3291.76 468.905 3293.98 471.31 3295.85 472.499 3297.71 473.687 3300.14 474.444 3303.14 474.768L3303.14 476.268 3288.47 476.268 3269.87 450.573C3268.49 450.627 3267.37 450.654 3266.51 450.654 3266.16 450.654 3265.78 450.648 3265.37 450.634 3264.97 450.621 3264.55 450.6 3264.12 450.573L3264.12 466.541C3264.12 469.999 3264.49 472.147 3265.25 472.985 3266.28 474.174 3267.82 474.768 3269.87 474.768L3272.02 474.768 3272.02 476.268 3248.47 476.268 3248.47 474.768 3250.54 474.768C3252.86 474.768 3254.52 474.012 3255.52 472.499 3256.09 471.661 3256.38 469.675 3256.38 466.541L3256.38 431.039C3256.38 427.581 3256 425.433 3255.24 424.595 3254.19 423.406 3252.62 422.812 3250.54 422.812L3248.47 422.812ZM3216.07 420.056 3217.49 420.056 3236.62 465.771C3238.16 469.446 3239.56 471.83 3240.81 472.924 3242.07 474.018 3243.82 474.633 3246.06 474.768L3246.06 476.268 3224.38 476.268 3224.38 474.768C3226.57 474.66 3228.05 474.295 3228.82 473.674 3229.59 473.052 3229.97 472.296 3229.97 471.404 3229.97 470.216 3229.43 468.338 3228.35 465.771L3225.03 457.868 3203.75 457.868 3200.02 466.541C3199.1 468.676 3198.64 470.27 3198.64 471.323 3198.64 472.161 3199.04 472.897 3199.84 473.532 3200.64 474.167 3202.36 474.579 3205.01 474.768L3205.01 476.268 3187.7 476.268 3187.7 474.768C3190 474.363 3191.48 473.836 3192.16 473.188 3193.54 471.891 3195.06 469.256 3196.74 465.285ZM3480.59 418.638 3482.41 418.638 3482.41 467.879C3482.41 470.202 3482.58 471.742 3482.92 472.499 3483.26 473.255 3483.78 473.829 3484.48 474.221 3485.18 474.613 3486.49 474.809 3488.41 474.809L3488.41 476.268 3470.22 476.268 3470.22 474.809C3471.92 474.809 3473.08 474.633 3473.7 474.282 3474.32 473.931 3474.81 473.35 3475.16 472.539 3475.51 471.729 3475.69 470.175 3475.69 467.879L3475.69 434.16C3475.69 429.972 3475.59 427.398 3475.4 426.439 3475.21 425.48 3474.91 424.825 3474.49 424.474 3474.07 424.122 3473.54 423.947 3472.89 423.947 3472.19 423.947 3471.3 424.163 3470.22 424.595L3469.53 423.177ZM3457.59 418.638 3459.41 418.638 3459.41 467.879C3459.41 470.202 3459.58 471.742 3459.92 472.499 3460.26 473.255 3460.78 473.829 3461.48 474.221 3462.18 474.613 3463.49 474.809 3465.41 474.809L3465.41 476.268 3447.22 476.268 3447.22 474.809C3448.92 474.809 3450.08 474.633 3450.7 474.282 3451.32 473.931 3451.81 473.35 3452.16 472.539 3452.51 471.729 3452.69 470.175 3452.69 467.879L3452.69 434.16C3452.69 429.972 3452.59 427.398 3452.4 426.439 3452.21 425.48 3451.91 424.825 3451.49 424.474 3451.07 424.122 3450.54 423.947 3449.89 423.947 3449.19 423.947 3448.3 424.163 3447.22 424.595L3446.53 423.177Z" fill-rule="evenodd"/><text fill="#000000" fill-opacity="0" font-family="Arial,Arial_MSFontService,sans-serif" font-size="58.7646" x="3187.7" y="470.057">ARRFull</text><path d="M3507.69 458.561 3496.34 488.346 3517.08 488.346ZM3506.65 451.978 3511.06 451.978 3523.63 491.205 3523.63 493.111 3491.07 493.111 3491.07 491.205Z" fill-rule="evenodd"/><text fill="#000000" fill-opacity="0" font-family="Arial,Arial_MSFontService,sans-serif" font-size="41.1333" x="3491.07" y="487.97">∆</text><path d="M3023.2 537.287 3159.2 537.287" stroke="#0070C0" stroke-width="4.58333" stroke-linecap="round" stroke-linejoin="round" stroke-miterlimit="10" fill="none" fill-rule="evenodd"/><path d="M3070.2 515.332 3110.2 515.332 3110.2 556.332 3070.2 556.332Z" stroke="#0070C0" stroke-width="4.58333" stroke-linejoin="round" stroke-miterlimit="10" fill="none" fill-rule="evenodd"/><path d="M3476.02 526.09C3473.78 526.09 3471.78 526.961 3470.01 528.704 3468.24 530.446 3467.2 532.871 3466.91 535.978L3484.09 535.978C3483.95 533.601 3483.67 531.926 3483.24 530.953 3482.56 529.44 3481.56 528.251 3480.22 527.387 3478.88 526.522 3477.48 526.09 3476.02 526.09ZM3428.74 523.253 3430.49 523.253 3430.49 531.115C3434.84 525.874 3438.98 523.253 3442.93 523.253 3444.95 523.253 3446.7 523.759 3448.16 524.773 3449.61 525.786 3450.78 527.454 3451.64 529.778 3452.24 531.399 3452.53 533.884 3452.53 537.235L3452.53 553.081C3452.53 555.431 3452.72 557.026 3453.1 557.863 3453.4 558.539 3453.88 559.065 3454.54 559.444 3455.2 559.822 3456.42 560.011 3458.21 560.011L3458.21 561.47 3439.85 561.47 3439.85 560.011 3440.62 560.011C3442.35 560.011 3443.56 559.748 3444.24 559.221 3444.93 558.694 3445.41 557.917 3445.68 556.89 3445.79 556.485 3445.85 555.215 3445.85 553.081L3445.85 537.883C3445.85 534.506 3445.41 532.054 3444.53 530.527 3443.65 529.001 3442.17 528.238 3440.09 528.238 3436.88 528.238 3433.67 529.994 3430.49 533.506L3430.49 553.081C3430.49 555.594 3430.63 557.147 3430.93 557.742 3431.31 558.525 3431.83 559.099 3432.49 559.464 3433.15 559.829 3434.5 560.011 3436.52 560.011L3436.52 561.47 3418.17 561.47 3418.17 560.011 3418.98 560.011C3420.87 560.011 3422.14 559.531 3422.81 558.572 3423.47 557.613 3423.8 555.783 3423.8 553.081L3423.8 539.302C3423.8 534.844 3423.7 532.128 3423.49 531.156 3423.29 530.183 3422.98 529.521 3422.56 529.17 3422.14 528.818 3421.58 528.643 3420.88 528.643 3420.12 528.643 3419.22 528.846 3418.17 529.251L3417.56 527.792ZM3478.29 523.212C3482.46 523.212 3485.87 524.583 3488.55 527.326 3491.22 530.068 3492.56 533.736 3492.56 538.329L3466.91 538.329C3466.88 543.841 3468.22 548.164 3470.92 551.298 3473.62 554.432 3476.79 555.999 3480.44 555.999 3482.87 555.999 3484.99 555.33 3486.78 553.993 3488.58 552.655 3490.09 550.366 3491.3 547.123L3492.56 547.934C3491.99 551.635 3490.34 555.006 3487.62 558.045 3484.89 561.085 3481.47 562.605 3477.36 562.605 3472.9 562.605 3469.09 560.869 3465.91 557.397 3462.74 553.925 3461.15 549.258 3461.15 543.395 3461.15 537.046 3462.78 532.094 3466.03 528.542 3469.29 524.989 3473.38 523.212 3478.29 523.212ZM3215.59 517.863 3206.02 540.072 3224.91 540.072ZM3326.5 509.595C3324.93 509.595 3322.81 509.852 3320.13 510.365L3320.13 533.222C3320.65 533.222 3321.09 533.229 3321.47 533.243 3321.85 533.256 3322.16 533.263 3322.4 533.263 3327.64 533.263 3331.6 532.128 3334.26 529.859 3336.92 527.589 3338.25 524.698 3338.25 521.186 3338.25 517.755 3337.18 514.965 3335.03 512.817 3332.88 510.669 3330.04 509.595 3326.5 509.595ZM3271.5 509.595C3269.93 509.595 3267.81 509.852 3265.13 510.365L3265.13 533.222C3265.65 533.222 3266.09 533.229 3266.47 533.243 3266.85 533.256 3267.16 533.263 3267.4 533.263 3272.64 533.263 3276.6 532.128 3279.26 529.859 3281.92 527.589 3283.25 524.698 3283.25 521.186 3283.25 517.755 3282.18 514.965 3280.03 512.817 3277.88 510.669 3275.04 509.595 3271.5 509.595ZM3387.66 508.217C3382.74 508.217 3378.79 510.041 3375.82 513.688 3372.12 518.227 3370.27 524.874 3370.27 533.628 3370.27 542.598 3372.19 549.501 3376.02 554.337 3378.97 558.012 3382.86 559.849 3387.7 559.849 3392.86 559.849 3397.12 557.836 3400.48 553.81 3403.85 549.785 3405.53 543.435 3405.53 534.763 3405.53 525.36 3403.68 518.349 3399.98 513.729 3397 510.054 3392.9 508.217 3387.66 508.217ZM3493.98 506.515 3508.89 506.515 3542.49 547.731 3542.49 516.039C3542.49 512.662 3542.11 510.554 3541.35 509.717 3540.35 508.582 3538.77 508.014 3536.61 508.014L3534.71 508.014 3534.71 506.515 3553.84 506.515 3553.84 508.014 3551.89 508.014C3549.57 508.014 3547.92 508.717 3546.95 510.122 3546.35 510.986 3546.05 512.959 3546.05 516.039L3546.05 562.362 3544.6 562.362 3508.36 518.106 3508.36 551.946C3508.36 555.323 3508.73 557.431 3509.46 558.268 3510.49 559.403 3512.07 559.971 3514.2 559.971L3516.15 559.971 3516.15 561.47 3497.02 561.47 3497.02 559.971 3498.92 559.971C3501.27 559.971 3502.93 559.268 3503.91 557.863 3504.5 556.999 3504.8 555.026 3504.8 551.946L3504.8 513.729C3503.2 511.865 3501.99 510.635 3501.17 510.041 3500.35 509.446 3499.14 508.893 3497.54 508.379 3496.76 508.136 3495.57 508.014 3493.98 508.014ZM3304.49 506.515 3324.51 506.515C3330.35 506.515 3334.65 506.94 3337.42 507.792 3340.19 508.643 3342.54 510.21 3344.47 512.493 3346.4 514.776 3347.37 517.498 3347.37 520.659 3347.37 524.036 3346.27 526.968 3344.06 529.453 3341.86 531.939 3338.45 533.695 3333.83 534.722L3345.18 550.487C3347.77 554.108 3350 556.512 3351.87 557.701 3353.73 558.89 3356.16 559.646 3359.16 559.971L3359.16 561.47 3344.49 561.47 3325.89 535.776C3324.51 535.83 3323.39 535.857 3322.52 535.857 3322.17 535.857 3321.79 535.85 3321.39 535.836 3320.98 535.823 3320.57 535.803 3320.13 535.776L3320.13 551.743C3320.13 555.202 3320.51 557.35 3321.27 558.187 3322.29 559.376 3323.83 559.971 3325.89 559.971L3328.04 559.971 3328.04 561.47 3304.49 561.47 3304.49 559.971 3306.56 559.971C3308.88 559.971 3310.54 559.214 3311.54 557.701 3312.11 556.863 3312.39 554.878 3312.39 551.743L3312.39 516.242C3312.39 512.783 3312.01 510.635 3311.26 509.798 3310.2 508.609 3308.64 508.014 3306.56 508.014L3304.49 508.014ZM3249.49 506.515 3269.51 506.515C3275.35 506.515 3279.65 506.94 3282.42 507.792 3285.19 508.643 3287.54 510.21 3289.47 512.493 3291.4 514.776 3292.37 517.498 3292.37 520.659 3292.37 524.036 3291.27 526.968 3289.06 529.453 3286.86 531.939 3283.45 533.695 3278.83 534.722L3290.18 550.487C3292.77 554.108 3295 556.512 3296.87 557.701 3298.73 558.89 3301.16 559.646 3304.16 559.971L3304.16 561.47 3289.49 561.47 3270.89 535.776C3269.51 535.83 3268.39 535.857 3267.52 535.857 3267.17 535.857 3266.79 535.85 3266.39 535.836 3265.98 535.823 3265.57 535.803 3265.13 535.776L3265.13 551.743C3265.13 555.202 3265.51 557.35 3266.27 558.187 3267.29 559.376 3268.83 559.971 3270.89 559.971L3273.04 559.971 3273.04 561.47 3249.49 561.47 3249.49 559.971 3251.56 559.971C3253.88 559.971 3255.54 559.214 3256.54 557.701 3257.11 556.863 3257.39 554.878 3257.39 551.743L3257.39 516.242C3257.39 512.783 3257.01 510.635 3256.26 509.798 3255.2 508.609 3253.64 508.014 3251.56 508.014L3249.49 508.014ZM3576.35 505.259C3579.27 505.259 3582.36 505.975 3585.63 507.407 3587.14 508.082 3588.21 508.42 3588.83 508.42 3589.53 508.42 3590.11 508.21 3590.55 507.792 3591 507.373 3591.36 506.528 3591.63 505.259L3593.13 505.259 3593.13 524.266 3591.63 524.266C3591.14 520.618 3590.27 517.714 3589.01 515.553 3587.76 513.391 3585.97 511.675 3583.64 510.406 3581.32 509.136 3578.91 508.501 3576.43 508.501 3573.62 508.501 3571.3 509.359 3569.46 511.074 3567.62 512.79 3566.7 514.742 3566.7 516.93 3566.7 518.606 3567.28 520.132 3568.45 521.51 3570.12 523.536 3574.11 526.238 3580.4 529.616 3585.53 532.371 3589.04 534.486 3590.92 535.958 3592.8 537.431 3594.24 539.167 3595.25 541.166 3596.27 543.165 3596.77 545.259 3596.77 547.448 3596.77 551.608 3595.16 555.195 3591.93 558.208 3588.7 561.22 3584.55 562.726 3579.47 562.726 3577.87 562.726 3576.38 562.605 3574.97 562.362 3574.13 562.227 3572.4 561.733 3569.76 560.882 3567.13 560.031 3565.46 559.606 3564.76 559.606 3564.08 559.606 3563.55 559.808 3563.16 560.214 3562.76 560.619 3562.47 561.457 3562.29 562.726L3560.79 562.726 3560.79 543.881 3562.29 543.881C3562.99 547.826 3563.93 550.778 3565.12 552.736 3566.31 554.695 3568.13 556.323 3570.57 557.62 3573.02 558.917 3575.7 559.565 3578.62 559.565 3581.99 559.565 3584.66 558.674 3586.62 556.89 3588.58 555.107 3589.56 553 3589.56 550.568 3589.56 549.217 3589.19 547.853 3588.45 546.475 3587.7 545.097 3586.55 543.814 3584.98 542.625 3583.93 541.814 3581.05 540.092 3576.35 537.458 3571.65 534.823 3568.3 532.723 3566.32 531.156 3564.33 529.589 3562.83 527.859 3561.8 525.968 3560.77 524.077 3560.26 521.996 3560.26 519.727 3560.26 515.782 3561.77 512.385 3564.8 509.534 3567.82 506.684 3571.67 505.259 3576.35 505.259ZM3388.43 505.259C3395.56 505.259 3401.74 507.967 3406.97 513.384 3412.2 518.802 3414.81 525.563 3414.81 533.668 3414.81 542.017 3412.18 548.947 3406.91 554.459 3401.64 559.971 3395.26 562.726 3387.78 562.726 3380.21 562.726 3373.86 560.038 3368.71 554.661 3363.56 549.285 3360.99 542.328 3360.99 533.79 3360.99 525.063 3363.96 517.944 3369.91 512.432 3375.07 507.65 3381.24 505.259 3388.43 505.259ZM3217.09 505.259 3218.51 505.259 3237.64 550.973C3239.18 554.648 3240.57 557.032 3241.83 558.127 3243.09 559.221 3244.84 559.835 3247.08 559.971L3247.08 561.47 3225.4 561.47 3225.4 559.971C3227.59 559.862 3229.06 559.498 3229.83 558.876 3230.6 558.255 3230.99 557.498 3230.99 556.607 3230.99 555.418 3230.45 553.54 3229.37 550.973L3226.05 543.071 3204.77 543.071 3201.04 551.743C3200.12 553.878 3199.66 555.472 3199.66 556.526 3199.66 557.363 3200.06 558.099 3200.86 558.734 3201.65 559.369 3203.38 559.781 3206.02 559.971L3206.02 561.47 3188.72 561.47 3188.72 559.971C3191.02 559.565 3192.5 559.038 3193.18 558.39 3194.56 557.093 3196.08 554.459 3197.76 550.487Z" fill-rule="evenodd"/><text fill="#000000" fill-opacity="0" font-family="Arial,Arial_MSFontService,sans-serif" font-size="57.4678" x="3188.72" y="555.543">ARROneNS</text><path d="M3618.71 543.763 3607.36 573.548 3628.09 573.548ZM3617.67 537.18 3622.08 537.18 3634.65 576.408 3634.65 578.314 3602.09 578.314 3602.09 576.408Z" fill-rule="evenodd"/><text fill="#000000" fill-opacity="0" font-family="Arial,Arial_MSFontService,sans-serif" font-size="41.1333" x="3602.09" y="573.172">∆</text><path d="M3023.2 634.287 3159.2 634.287" stroke="#006600" stroke-width="4.58333" stroke-linecap="round" stroke-linejoin="round" stroke-miterlimit="10" fill="none" fill-rule="evenodd"/><path d="M3091.2 614.336 3111.2 654.336 3071.2 654.336Z" stroke="#006600" stroke-width="4.58333" stroke-linejoin="round" stroke-miterlimit="10" fill="none" fill-rule="evenodd"/><path d="M3486.05 624.744C3484.62 624.744 3483.18 625.17 3481.73 626.021 3480.29 626.872 3479.12 628.365 3478.23 630.499 3477.33 632.634 3476.89 635.376 3476.89 638.726 3476.89 644.13 3477.96 648.791 3480.11 652.708 3482.26 656.626 3485.09 658.585 3488.6 658.585 3491.22 658.585 3493.38 657.504 3495.09 655.343 3496.79 653.181 3497.64 649.466 3497.64 644.198 3497.64 637.605 3496.22 632.418 3493.38 628.635 3491.47 626.041 3489.02 624.744 3486.05 624.744ZM3407.08 623.204 3422.64 623.204 3422.64 624.704C3421.21 624.812 3420.27 625.069 3419.83 625.474 3419.38 625.879 3419.16 626.46 3419.16 627.217 3419.16 628.054 3419.39 629.067 3419.85 630.256L3427.79 651.614 3435.77 634.228 3433.67 628.757C3433.02 627.136 3432.17 626.014 3431.11 625.393 3430.52 625.015 3429.41 624.785 3427.79 624.704L3427.79 623.204 3445.46 623.204 3445.46 624.704C3443.52 624.785 3442.14 625.136 3441.33 625.758 3440.79 626.19 3440.52 626.879 3440.52 627.825 3440.52 628.365 3440.62 628.919 3440.84 629.486L3449.27 650.804 3457.09 630.256C3457.63 628.797 3457.9 627.635 3457.9 626.771 3457.9 626.257 3457.64 625.798 3457.11 625.393 3456.59 624.988 3455.55 624.758 3454.01 624.704L3454.01 623.204 3465.72 623.204 3465.72 624.704C3463.37 625.055 3461.64 626.649 3460.54 629.486L3448.14 661.462 3446.47 661.462 3437.19 637.754 3426.37 661.462 3424.87 661.462 3412.96 630.256C3412.17 628.284 3411.4 626.953 3410.65 626.264 3409.89 625.575 3408.7 625.055 3407.08 624.704ZM3487.3 622.11C3492.92 622.11 3497.44 624.245 3500.84 628.513 3503.73 632.161 3505.18 636.349 3505.18 641.077 3505.18 644.4 3504.38 647.764 3502.79 651.168 3501.19 654.573 3499 657.139 3496.2 658.868 3493.4 660.598 3490.29 661.462 3486.86 661.462 3481.27 661.462 3476.82 659.233 3473.53 654.775 3470.74 651.02 3469.35 646.805 3469.35 642.131 3469.35 638.726 3470.2 635.342 3471.88 631.979 3473.57 628.615 3475.79 626.129 3478.55 624.522 3481.31 622.914 3484.22 622.11 3487.3 622.11ZM3214.07 616.72 3204.51 638.929 3223.39 638.929ZM3324.98 608.452C3323.41 608.452 3321.29 608.709 3318.62 609.222L3318.62 632.08C3319.13 632.08 3319.58 632.087 3319.95 632.1 3320.33 632.114 3320.64 632.12 3320.89 632.12 3326.13 632.12 3330.08 630.986 3332.74 628.716 3335.4 626.447 3336.73 623.556 3336.73 620.043 3336.73 616.612 3335.66 613.822 3333.51 611.674 3331.36 609.526 3328.52 608.452 3324.98 608.452ZM3269.98 608.452C3268.41 608.452 3266.29 608.709 3263.62 609.222L3263.62 632.08C3264.13 632.08 3264.58 632.087 3264.95 632.1 3265.33 632.114 3265.64 632.12 3265.89 632.12 3271.13 632.12 3275.08 630.986 3277.74 628.716 3280.4 626.447 3281.73 623.556 3281.73 620.043 3281.73 616.612 3280.66 613.822 3278.51 611.674 3276.36 609.526 3273.52 608.452 3269.98 608.452ZM3506.46 605.372 3521.37 605.372 3554.97 646.589 3554.97 614.896C3554.97 611.519 3554.59 609.412 3553.84 608.574 3552.84 607.439 3551.26 606.872 3549.09 606.872L3547.19 606.872 3547.19 605.372 3566.32 605.372 3566.32 606.872 3564.37 606.872C3562.05 606.872 3560.4 607.574 3559.43 608.979 3558.83 609.844 3558.54 611.816 3558.54 614.896L3558.54 661.219 3557.08 661.219 3520.85 616.963 3520.85 650.804C3520.85 654.181 3521.21 656.288 3521.94 657.126 3522.97 658.261 3524.55 658.828 3526.68 658.828L3528.63 658.828 3528.63 660.327 3509.5 660.327 3509.5 658.828 3511.4 658.828C3513.76 658.828 3515.42 658.125 3516.39 656.721 3516.98 655.856 3517.28 653.884 3517.28 650.804L3517.28 612.586C3515.69 610.722 3514.48 609.493 3513.65 608.898 3512.83 608.304 3511.62 607.75 3510.03 607.237 3509.24 606.993 3508.05 606.872 3506.46 606.872ZM3359.72 605.372 3404.58 605.372 3405.19 618.26 3403.65 618.26C3403.35 615.991 3402.94 614.369 3402.43 613.397 3401.59 611.83 3400.48 610.675 3399.09 609.932 3397.7 609.189 3395.87 608.817 3393.6 608.817L3385.86 608.817 3385.86 650.804C3385.86 654.181 3386.22 656.288 3386.95 657.126 3387.98 658.261 3389.56 658.828 3391.69 658.828L3393.6 658.828 3393.6 660.327 3370.29 660.327 3370.29 658.828 3372.24 658.828C3374.56 658.828 3376.21 658.125 3377.18 656.721 3377.78 655.856 3378.07 653.884 3378.07 650.804L3378.07 608.817 3371.47 608.817C3368.9 608.817 3367.08 609.006 3366 609.385 3364.59 609.898 3363.39 610.884 3362.39 612.343 3361.39 613.802 3360.8 615.774 3360.61 618.26L3359.07 618.26ZM3302.97 605.372 3322.99 605.372C3328.83 605.372 3333.13 605.798 3335.9 606.649 3338.67 607.5 3341.02 609.067 3342.95 611.35 3344.89 613.633 3345.85 616.355 3345.85 619.516 3345.85 622.894 3344.75 625.825 3342.55 628.311 3340.35 630.797 3336.93 632.553 3332.31 633.579L3343.66 649.345C3346.26 652.965 3348.49 655.37 3350.35 656.558 3352.21 657.747 3354.65 658.504 3357.64 658.828L3357.64 660.327 3342.97 660.327 3324.37 634.633C3322.99 634.687 3321.87 634.714 3321.01 634.714 3320.66 634.714 3320.28 634.707 3319.87 634.694 3319.47 634.68 3319.05 634.66 3318.62 634.633L3318.62 650.601C3318.62 654.059 3318.99 656.207 3319.75 657.045 3320.78 658.234 3322.32 658.828 3324.37 658.828L3326.52 658.828 3326.52 660.327 3302.97 660.327 3302.97 658.828 3305.04 658.828C3307.36 658.828 3309.02 658.071 3310.02 656.558 3310.59 655.721 3310.88 653.735 3310.88 650.601L3310.88 615.099C3310.88 611.641 3310.5 609.493 3309.74 608.655 3308.69 607.466 3307.12 606.872 3305.04 606.872L3302.97 606.872ZM3247.97 605.372 3267.99 605.372C3273.83 605.372 3278.13 605.798 3280.9 606.649 3283.67 607.5 3286.02 609.067 3287.95 611.35 3289.89 613.633 3290.85 616.355 3290.85 619.516 3290.85 622.894 3289.75 625.825 3287.55 628.311 3285.35 630.797 3281.93 632.553 3277.31 633.579L3288.66 649.345C3291.26 652.965 3293.49 655.37 3295.35 656.558 3297.21 657.747 3299.65 658.504 3302.64 658.828L3302.64 660.327 3287.97 660.327 3269.37 634.633C3267.99 634.687 3266.87 634.714 3266.01 634.714 3265.66 634.714 3265.28 634.707 3264.87 634.694 3264.47 634.68 3264.05 634.66 3263.62 634.633L3263.62 650.601C3263.62 654.059 3263.99 656.207 3264.75 657.045 3265.78 658.234 3267.32 658.828 3269.37 658.828L3271.52 658.828 3271.52 660.327 3247.97 660.327 3247.97 658.828 3250.04 658.828C3252.36 658.828 3254.02 658.071 3255.02 656.558 3255.59 655.721 3255.88 653.735 3255.88 650.601L3255.88 615.099C3255.88 611.641 3255.5 609.493 3254.74 608.655 3253.69 607.466 3252.12 606.872 3250.04 606.872L3247.97 606.872ZM3587.83 604.116C3590.75 604.116 3593.84 604.832 3597.11 606.264 3598.62 606.939 3599.69 607.277 3600.31 607.277 3601.02 607.277 3601.59 607.068 3602.04 606.649 3602.48 606.23 3602.84 605.386 3603.11 604.116L3604.61 604.116 3604.61 623.123 3603.11 623.123C3602.62 619.476 3601.75 616.571 3600.5 614.41 3599.24 612.249 3597.45 610.533 3595.13 609.263 3592.8 607.993 3590.4 607.358 3587.91 607.358 3585.1 607.358 3582.78 608.216 3580.94 609.932 3579.1 611.647 3578.19 613.599 3578.19 615.788 3578.19 617.463 3578.77 618.99 3579.93 620.367 3581.6 622.394 3585.59 625.096 3591.88 628.473 3597.02 631.229 3600.52 633.343 3602.4 634.815 3604.28 636.288 3605.72 638.024 3606.74 640.023 3607.75 642.023 3608.26 644.117 3608.26 646.305 3608.26 650.466 3606.64 654.052 3603.41 657.065 3600.19 660.078 3596.03 661.584 3590.95 661.584 3589.36 661.584 3587.86 661.462 3586.45 661.219 3585.62 661.084 3583.88 660.591 3581.25 659.74 3578.61 658.889 3576.94 658.463 3576.24 658.463 3575.56 658.463 3575.03 658.666 3574.64 659.071 3574.25 659.476 3573.96 660.314 3573.77 661.584L3572.27 661.584 3572.27 642.739 3573.77 642.739C3574.47 646.683 3575.42 649.635 3576.61 651.594 3577.79 653.553 3579.61 655.18 3582.06 656.477 3584.5 657.774 3587.18 658.423 3590.1 658.423 3593.48 658.423 3596.15 657.531 3598.1 655.748 3600.06 653.965 3601.04 651.857 3601.04 649.426 3601.04 648.075 3600.67 646.71 3599.93 645.332 3599.19 643.954 3598.03 642.671 3596.46 641.482 3595.41 640.672 3592.53 638.949 3587.83 636.315 3583.13 633.681 3579.79 631.58 3577.8 630.013 3575.81 628.446 3574.31 626.717 3573.28 624.826 3572.26 622.934 3571.74 620.854 3571.74 618.584 3571.74 614.64 3573.25 611.242 3576.28 608.392 3579.31 605.541 3583.16 604.116 3587.83 604.116ZM3215.57 604.116 3216.99 604.116 3236.12 649.831C3237.66 653.505 3239.06 655.89 3240.31 656.984 3241.57 658.078 3243.32 658.693 3245.56 658.828L3245.56 660.327 3223.88 660.327 3223.88 658.828C3226.07 658.72 3227.55 658.355 3228.32 657.734 3229.09 657.112 3229.47 656.356 3229.47 655.464 3229.47 654.275 3228.93 652.398 3227.85 649.831L3224.53 641.928 3203.25 641.928 3199.52 650.601C3198.6 652.735 3198.15 654.329 3198.15 655.383 3198.15 656.221 3198.54 656.957 3199.34 657.592 3200.14 658.227 3201.86 658.639 3204.51 658.828L3204.51 660.327 3187.2 660.327 3187.2 658.828C3189.5 658.423 3190.99 657.896 3191.66 657.247 3193.04 655.951 3194.57 653.316 3196.24 649.345Z" fill-rule="evenodd"/><text fill="#000000" fill-opacity="0" font-family="Arial,Arial_MSFontService,sans-serif" font-size="57.4678" x="3187.2" y="654.4">ARRTwoNS</text><path d="M3630.94 642.62 3619.6 672.406 3640.33 672.406ZM3629.9 636.038 3634.31 636.038 3646.88 675.265 3646.88 677.171 3614.32 677.171 3614.32 675.265Z" fill-rule="evenodd"/><text fill="#000000" fill-opacity="0" font-family="Arial,Arial_MSFontService,sans-serif" font-size="41.1333" x="3614.32" y="672.03">∆</text></g></svg>