<svg width="2858" height="756" xmlns="http://www.w3.org/2000/svg" xmlns:xlink="http://www.w3.org/1999/xlink" overflow="hidden"><defs><clipPath id="clip0"><rect x="860" y="690" width="2858" height="756"/></clipPath><clipPath id="clip1"><rect x="1131" y="734" width="1159" height="481"/></clipPath><clipPath id="clip2"><rect x="1131" y="734" width="1159" height="481"/></clipPath><clipPath id="clip3"><rect x="1157" y="759" width="1112" height="439"/></clipPath><clipPath id="clip4"><rect x="1131" y="734" width="1159" height="481"/></clipPath><clipPath id="clip5"><rect x="2496" y="769" width="1208" height="480"/></clipPath><clipPath id="clip6"><rect x="2496" y="769" width="1208" height="480"/></clipPath><clipPath id="clip7"><rect x="2540" y="793" width="1112" height="440"/></clipPath><clipPath id="clip8"><rect x="2496" y="769" width="1208" height="480"/></clipPath></defs><g clip-path="url(#clip0)" transform="translate(-860 -690)"><g clip-path="url(#clip1)"><path d="M1157.5 1195.5 2265.5 1195.5M1157.5 1108.54 2265.5 1108.54M1157.5 1020.53 2265.5 1020.53M1157.5 933.531 2265.5 933.531M1157.5 846.528 2265.5 846.528M1157.5 759.5 2265.5 759.5" stroke="#D9D9D9" stroke-width="3.4375" stroke-linejoin="round" stroke-miterlimit="10" fill="none"/></g><g clip-path="url(#clip2)"><path d="M1157.5 759.5 1157.5 1195.5M1342.54 759.5 1342.54 1195.5M1527.55 759.5 1527.55 1195.5M1711.56 759.5 1711.56 1195.5M1896.56 759.5 1896.56 1195.5M2081.57 759.5 2081.57 1195.5M2265.5 759.5 2265.5 1195.5" stroke="#D9D9D9" stroke-width="3.4375" stroke-linejoin="round" stroke-miterlimit="10" fill="none"/></g><g clip-path="url(#clip3)"><path d="M1250 1173 1342.04 1067.04 1527.05 959.031 1712.06 897.029 1896.06 855.028 2151 807" stroke="#000000" stroke-width="5.72917" stroke-linecap="round" stroke-linejoin="round" stroke-miterlimit="10" fill="none"/></g><g clip-path="url(#clip4)"><path d="M1268.16 1173.39C1268.16 1183.33 1260.1 1191.39 1250.16 1191.39 1240.22 1191.39 1232.16 1183.33 1232.16 1173.39 1232.16 1163.45 1240.22 1155.39 1250.16 1155.39 1260.1 1155.39 1268.16 1163.45 1268.16 1173.39Z" stroke="#000000" stroke-width="3.4375" stroke-linejoin="round" stroke-miterlimit="10" fill="#FFFFFF" fill-opacity="0.921569"/><path d="M1360.16 1066.39C1360.16 1076.33 1352.1 1084.39 1342.16 1084.39 1332.22 1084.39 1324.16 1076.33 1324.16 1066.39 1324.16 1056.45 1332.22 1048.39 1342.16 1048.39 1352.1 1048.39 1360.16 1056.45 1360.16 1066.39Z" stroke="#000000" stroke-width="3.4375" stroke-linejoin="round" stroke-miterlimit="10" fill="#FFFFFF" fill-opacity="0.921569"/><path d="M1545.16 959.387C1545.16 969.328 1537.1 977.387 1527.16 977.387 1517.22 977.387 1509.16 969.328 1509.16 959.387 1509.16 949.446 1517.22 941.388 1527.16 941.388 1537.1 941.388 1545.16 949.446 1545.16 959.387Z" stroke="#000000" stroke-width="3.4375" stroke-linejoin="round" stroke-miterlimit="10" fill="#FFFFFF" fill-opacity="0.921569"/><path d="M1729.16 896.387C1729.16 906.328 1721.1 914.387 1711.16 914.387 1701.22 914.387 1693.16 906.328 1693.16 896.387 1693.16 886.447 1701.22 878.388 1711.16 878.388 1721.1 878.388 1729.16 886.447 1729.16 896.387Z" stroke="#000000" stroke-width="3.4375" stroke-linejoin="round" stroke-miterlimit="10" fill="#FFFFFF" fill-opacity="0.921569"/><path d="M1914.16 855.388C1914.16 865.328 1906.1 873.387 1896.16 873.387 1886.22 873.387 1878.16 865.328 1878.16 855.388 1878.16 845.447 1886.22 837.388 1896.16 837.388 1906.1 837.388 1914.16 845.447 1914.16 855.388Z" stroke="#000000" stroke-width="3.4375" stroke-linejoin="round" stroke-miterlimit="10" fill="#FFFFFF" fill-opacity="0.921569"/><path d="M2169.16 807.387C2169.16 817.328 2161.1 825.387 2151.16 825.387 2141.22 825.387 2133.16 817.328 2133.16 807.387 2133.16 797.446 2141.22 789.388 2151.16 789.388 2161.1 789.388 2169.16 797.446 2169.16 807.387Z" stroke="#000000" stroke-width="3.4375" stroke-linejoin="round" stroke-miterlimit="10" fill="#FFFFFF" fill-opacity="0.921569"/></g><path d="M903.185 999.259C903.185 996.533 903.349 994.01 903.679 991.689 904.008 989.368 904.607 986.785 905.476 983.94L917.649 986.635 917.649 990.948C913.966 991.188 911.308 991.989 909.676 993.351 908.044 994.714 907.227 996.908 907.227 999.932 907.227 1004.07 909.294 1007.91 913.427 1011.45 917.56 1015 923.018 1017.81 929.801 1019.88 936.584 1021.94 942.88 1022.98 948.69 1022.98 953.242 1022.98 956.597 1022.17 958.753 1020.55 960.909 1018.93 961.987 1016.45 961.987 1013.09 961.987 1010.85 961.65 1008.89 960.977 1007.21 960.303 1005.53 959.165 1003.96 957.562 1002.49 955.96 1001.03 953.722 999.573 950.847 998.135L950.847 993.823 963.604 996.563C965.162 1002.16 965.94 1008.03 965.94 1014.17 965.94 1019.8 964.323 1024.09 961.089 1027.02 957.854 1029.96 953.123 1031.42 946.893 1031.42 942.491 1031.42 937.415 1030.64 931.665 1029.06 925.915 1027.49 920.869 1025.27 916.526 1022.39 912.184 1019.52 908.875 1016.12 906.599 1012.2 904.323 1008.27 903.185 1003.96 903.185 999.259Z" fill-rule="evenodd"/><text fill="#000000" fill-opacity="0" font-family="Arial,Arial_MSFontService,sans-serif" font-size="47.4824" x="903.185" y="1025.49">ğ¶</text><path d="M949.669 967.354C952.701 969.448 955.711 971.536 958.698 973.619 961.686 975.702 964.685 977.801 967.695 979.917L968.088 979.917 968.088 967.354 961.512 967.354C960.77 967.354 959.854 967.343 958.764 967.321 957.673 967.3 956.567 967.272 955.443 967.24 954.32 967.207 953.251 967.169 952.237 967.125 951.223 967.081 950.367 967.038 949.669 966.994ZM942.014 966.405 942.014 961.204 968.088 961.204 968.088 960.615C968.088 959.721 968.044 958.995 967.957 958.439 967.87 957.883 967.69 957.436 967.417 957.098 967.144 956.76 966.763 956.476 966.272 956.247 965.781 956.018 965.143 955.773 964.358 955.511L964.358 952.731C965.558 952.796 966.746 952.867 967.924 952.943 969.102 953.02 970.301 953.09 971.523 953.156L971.523 961.204 975.808 961.204C977.073 961.204 978.055 961.176 978.753 961.122 979.451 961.067 979.996 960.904 980.388 960.631 980.781 960.359 981.075 959.955 981.272 959.421 981.468 958.886 981.697 958.139 981.959 957.18L983.922 957.18 983.922 971.313 981.959 971.313C981.784 970.658 981.626 970.102 981.484 969.644 981.343 969.186 981.179 968.805 980.994 968.499 980.808 968.194 980.59 967.97 980.339 967.828 980.089 967.687 979.772 967.578 979.391 967.501 979.009 967.425 978.529 967.381 977.951 967.37 977.373 967.36 976.659 967.354 975.808 967.354L971.523 967.354 971.523 985.773 968.938 985.773C964.424 982.523 959.936 979.295 955.476 976.089 951.016 972.883 946.529 969.655 942.014 966.405Z" fill-rule="evenodd"/><text fill="#000000" fill-opacity="0" font-family="Arial,Arial_MSFontService,sans-serif" font-size="33.042" x="942.014" y="981.642">4</text><text font-family="Times New Roman,Times New Roman_MSFontService,sans-serif" font-weight="400" font-size="83" transform="matrix(1 0 0 1 1134.08 1272)">0<tspan font-size="83" x="186.929" y="6">2</tspan><tspan font-size="83" x="372.095" y="6">4</tspan><tspan font-size="83" x="559.096" y="6">6</tspan><tspan font-size="83" x="742.429" y="6">8</tspan></text><path d="M1535.34 1325.4C1537.23 1325.4 1538.72 1326.02 1539.81 1327.26 1540.9 1328.51 1541.45 1330.13 1541.45 1332.14 1541.45 1333.73 1541.09 1335.49 1540.37 1337.44L1540.91 1337.62C1543.85 1333.49 1546.64 1330.42 1549.29 1328.43 1551.94 1326.44 1554.67 1325.45 1557.49 1325.45 1560.27 1325.45 1562.41 1326.25 1563.91 1327.85 1565.41 1329.45 1566.16 1331.67 1566.16 1334.52 1566.16 1336.41 1565.72 1339.09 1564.85 1342.56L1561.93 1354.33C1561.13 1357.59 1560.72 1359.9 1560.72 1361.25 1560.72 1362.45 1560.92 1363.31 1561.3 1363.85 1561.69 1364.39 1562.31 1364.66 1563.15 1364.66 1564.05 1364.66 1565 1364.3 1566.02 1363.56 1567.04 1362.83 1568.48 1361.43 1570.33 1359.36L1572.89 1361.88C1570.32 1364.63 1568.07 1366.65 1566.16 1367.92 1564.24 1369.19 1562.05 1369.83 1559.6 1369.83 1557.65 1369.83 1556.09 1369.13 1554.93 1367.74 1553.76 1366.35 1553.17 1364.57 1553.17 1362.42 1553.17 1360.47 1553.67 1357.61 1554.66 1353.84L1556.63 1346.06C1557.35 1343.25 1557.82 1341.17 1558.05 1339.82 1558.27 1338.47 1558.39 1337.38 1558.39 1336.54 1558.39 1334.47 1558.04 1332.98 1557.35 1332.07 1556.66 1331.16 1555.54 1330.7 1553.98 1330.7 1552.72 1330.7 1551.37 1331.2 1549.92 1332.21 1548.46 1333.21 1546.92 1334.72 1545.29 1336.74 1543.66 1338.76 1542.35 1340.73 1541.36 1342.63 1540.37 1344.53 1539.56 1346.87 1538.93 1349.66L1534.67 1369.11 1526.89 1369.11 1533.45 1340.63C1534.11 1337.75 1534.44 1335.54 1534.44 1333.98 1534.44 1332.78 1534.25 1331.91 1533.86 1331.37 1533.47 1330.84 1532.85 1330.57 1532.02 1330.57 1531.09 1330.57 1530.11 1330.95 1529.07 1331.71 1528.04 1332.48 1526.63 1333.86 1524.83 1335.87L1522.27 1333.35C1525.02 1330.48 1527.31 1328.43 1529.14 1327.22 1530.97 1326.01 1533.03 1325.4 1535.34 1325.4Z" fill-rule="evenodd"/><text fill="#000000" fill-opacity="0" font-family="Arial,Arial_MSFontService,sans-serif" font-size="44.4277" x="1522.27" y="1364.27">ğ‘›</text><path d="M1630.77 1304.2 1631.98 1307.66C1624.98 1309.96 1619.79 1314.46 1616.42 1321.16 1613.05 1327.85 1611.37 1336.26 1611.37 1346.38 1611.37 1356.86 1613.05 1365.5 1616.42 1372.3 1619.79 1379.1 1624.93 1383.65 1631.85 1385.95L1630.77 1389.41C1622 1387.11 1615.27 1382.14 1610.6 1374.52 1605.93 1366.9 1603.59 1357.67 1603.59 1346.83 1603.59 1336.02 1605.94 1326.79 1610.62 1319.13 1615.31 1311.48 1622.03 1306.5 1630.77 1304.2Z" fill-rule="evenodd"/><text fill="#000000" fill-opacity="0" font-family="Arial,Arial_MSFontService,sans-serif" font-size="85.2168" x="1603.59" y="1378.76">(</text><path d="M1645.99 1318.21 1666.34 1338.52 1686.69 1318.21 1690.91 1322.39 1670.79 1342.87 1690.96 1363.27 1686.46 1367.76 1666.34 1347.23 1645.58 1367.58 1641.41 1363.36 1661.94 1342.87 1641.5 1322.7Z" fill-rule="evenodd"/><text fill="#000000" fill-opacity="0" font-family="Arial,Arial_MSFontService,sans-serif" font-size="49.5488" x="1641.41" y="1361.57">Ã—</text><path d="M1795.48 1310.89C1793.41 1310.89 1791.68 1311.5 1790.29 1312.73 1788.9 1313.96 1787.77 1315.73 1786.92 1318.03 1786.07 1320.34 1785.46 1323.15 1785.1 1326.46 1784.74 1329.77 1784.56 1333.5 1784.56 1337.66 1784.56 1347.43 1785.47 1354.59 1787.28 1359.16 1789.09 1363.73 1791.9 1366.01 1795.7 1366.01 1799.33 1366.01 1802.01 1363.86 1803.77 1359.56 1805.52 1355.27 1806.39 1348.61 1806.39 1339.6 1806.39 1332.71 1805.94 1327.13 1805.05 1322.86 1804.15 1318.59 1802.9 1315.53 1801.29 1313.68 1799.69 1311.82 1797.75 1310.89 1795.48 1310.89ZM1795.7 1307.07C1802.26 1307.07 1807.14 1309.6 1810.35 1314.66 1813.55 1319.73 1815.15 1327.38 1815.15 1337.62 1815.15 1348.22 1813.44 1356.24 1810.01 1361.67 1806.58 1367.11 1801.57 1369.83 1794.98 1369.83 1788.51 1369.83 1783.7 1367.28 1780.54 1362.19 1777.38 1357.1 1775.8 1349.37 1775.8 1339.01 1775.8 1333.5 1776.29 1328.74 1777.26 1324.73 1778.23 1320.71 1779.6 1317.4 1781.35 1314.78 1783.1 1312.16 1785.2 1310.22 1787.66 1308.96 1790.12 1307.7 1792.8 1307.07 1795.7 1307.07ZM1748.03 1307.07 1750.5 1307.07C1750.32 1309.95 1750.23 1313.93 1750.23 1319.02L1750.23 1357.38C1750.23 1359.12 1750.32 1360.43 1750.52 1361.32 1750.71 1362.2 1751.06 1362.92 1751.55 1363.47 1752.05 1364.03 1752.76 1364.46 1753.69 1364.77 1754.61 1365.09 1755.78 1365.33 1757.19 1365.49 1758.6 1365.66 1760.45 1365.77 1762.76 1365.83L1762.76 1369.11 1729.56 1369.11 1729.56 1365.83C1732.89 1365.68 1735.26 1365.48 1736.68 1365.22 1738.11 1364.97 1739.19 1364.59 1739.94 1364.08 1740.69 1363.57 1741.24 1362.85 1741.58 1361.92 1741.92 1360.99 1742.1 1359.48 1742.1 1357.38L1742.1 1320.95C1742.1 1319.76 1741.89 1318.88 1741.47 1318.33 1741.05 1317.77 1740.43 1317.49 1739.63 1317.49 1738.67 1317.49 1737.3 1317.99 1735.54 1318.98 1733.77 1319.96 1731.58 1321.33 1728.98 1323.06L1727 1319.61Z" fill-rule="evenodd"/><text fill="#000000" fill-opacity="0" font-family="Arial,Arial_MSFontService,sans-serif" font-size="62.7559" x="1727" y="1361.98">10</text><path d="M1842.05 1301.28C1839.96 1304.32 1837.87 1307.33 1835.79 1310.31 1833.71 1313.3 1831.61 1316.3 1829.49 1319.31L1829.49 1319.7 1842.05 1319.7 1842.05 1313.13C1842.05 1312.39 1842.06 1311.47 1842.09 1310.38 1842.11 1309.29 1842.14 1308.18 1842.17 1307.06 1842.2 1305.93 1842.24 1304.87 1842.28 1303.85 1842.33 1302.84 1842.37 1301.98 1842.41 1301.28ZM1843 1293.63 1848.2 1293.63 1848.2 1319.7 1848.79 1319.7C1849.69 1319.7 1850.41 1319.66 1850.97 1319.57 1851.52 1319.48 1851.97 1319.3 1852.31 1319.03 1852.65 1318.76 1852.93 1318.38 1853.16 1317.89 1853.39 1317.4 1853.63 1316.76 1853.9 1315.97L1856.68 1315.97C1856.61 1317.17 1856.54 1318.36 1856.46 1319.54 1856.39 1320.72 1856.32 1321.92 1856.25 1323.14L1848.2 1323.14 1848.2 1327.42C1848.2 1328.69 1848.23 1329.67 1848.29 1330.37 1848.34 1331.07 1848.5 1331.61 1848.78 1332 1849.05 1332.4 1849.45 1332.69 1849.99 1332.89 1850.52 1333.08 1851.27 1333.31 1852.23 1333.57L1852.23 1335.54 1838.1 1335.54 1838.1 1333.57C1838.75 1333.4 1839.31 1333.24 1839.76 1333.1 1840.22 1332.96 1840.6 1332.79 1840.91 1332.61 1841.21 1332.42 1841.44 1332.2 1841.58 1331.95 1841.72 1331.7 1841.83 1331.39 1841.91 1331.01 1841.98 1330.62 1842.03 1330.14 1842.04 1329.57 1842.05 1328.99 1842.05 1328.27 1842.05 1327.42L1842.05 1323.14 1823.64 1323.14 1823.64 1320.55C1826.89 1316.04 1830.11 1311.55 1833.32 1307.09 1836.53 1302.63 1839.75 1298.14 1843 1293.63Z" fill-rule="evenodd"/><text fill="#000000" fill-opacity="0" font-family="Arial,Arial_MSFontService,sans-serif" font-size="41.9077" x="1823.64" y="1330.3">4</text><path d="M1866.67 1304.2C1875.41 1306.5 1882.13 1311.48 1886.82 1319.13 1891.5 1326.79 1893.85 1336.02 1893.85 1346.83 1893.85 1357.67 1891.51 1366.9 1886.84 1374.52 1882.17 1382.14 1875.44 1387.11 1866.67 1389.41L1865.59 1385.95C1872.51 1383.65 1877.65 1379.1 1881.02 1372.3 1884.39 1365.5 1886.07 1356.86 1886.07 1346.38 1886.07 1336.26 1884.4 1327.85 1881.04 1321.16 1877.69 1314.46 1872.49 1309.96 1865.45 1307.66Z" fill-rule="evenodd"/><text fill="#000000" fill-opacity="0" font-family="Arial,Arial_MSFontService,sans-serif" font-size="85.2168" x="1865.45" y="1378.76">)</text><path d="M1079.69 1174.18C1077.82 1174.18 1076.26 1174.73 1075.01 1175.84 1073.75 1176.95 1072.74 1178.54 1071.97 1180.62 1071.2 1182.7 1070.65 1185.24 1070.33 1188.22 1070 1191.21 1069.84 1194.58 1069.84 1198.33 1069.84 1207.14 1070.66 1213.61 1072.29 1217.73 1073.93 1221.85 1076.46 1223.91 1079.89 1223.91 1083.16 1223.91 1085.59 1221.97 1087.17 1218.09 1088.75 1214.21 1089.54 1208.21 1089.54 1200.08 1089.54 1193.86 1089.13 1188.83 1088.32 1184.98 1087.51 1181.13 1086.38 1178.37 1084.94 1176.69 1083.49 1175.02 1081.74 1174.18 1079.69 1174.18ZM1079.89 1170.73C1085.81 1170.73 1090.21 1173.02 1093.1 1177.58 1095.99 1182.15 1097.44 1189.05 1097.44 1198.29 1097.44 1207.86 1095.89 1215.09 1092.8 1219.99 1089.71 1224.9 1085.19 1227.35 1079.24 1227.35 1073.41 1227.35 1069.06 1225.05 1066.21 1220.46 1063.36 1215.87 1061.94 1208.9 1061.94 1199.55 1061.94 1194.58 1062.38 1190.28 1063.26 1186.66 1064.13 1183.04 1065.36 1180.05 1066.94 1177.68 1068.52 1175.32 1070.42 1173.57 1072.64 1172.44 1074.85 1171.3 1077.27 1170.73 1079.89 1170.73ZM1036.89 1170.73 1039.12 1170.73C1038.96 1173.33 1038.88 1176.92 1038.88 1181.51L1038.88 1216.12C1038.88 1217.69 1038.96 1218.87 1039.14 1219.67 1039.32 1220.47 1039.63 1221.12 1040.07 1221.62 1040.52 1222.12 1041.16 1222.51 1042 1222.79 1042.83 1223.08 1043.89 1223.29 1045.16 1223.44 1046.43 1223.59 1048.1 1223.69 1050.18 1223.74L1050.18 1226.7 1020.23 1226.7 1020.23 1223.74C1023.23 1223.61 1025.37 1223.43 1026.66 1223.2 1027.94 1222.97 1028.92 1222.62 1029.6 1222.16 1030.27 1221.7 1030.76 1221.06 1031.08 1220.22 1031.39 1219.38 1031.54 1218.02 1031.54 1216.12L1031.54 1183.26C1031.54 1182.18 1031.35 1181.39 1030.97 1180.89 1030.6 1180.39 1030.04 1180.14 1029.31 1180.14 1028.45 1180.14 1027.22 1180.58 1025.62 1181.47 1024.03 1182.37 1022.06 1183.59 1019.71 1185.16L1017.92 1182.04Z" fill-rule="evenodd"/><text fill="#000000" fill-opacity="0" font-family="Arial,Arial_MSFontService,sans-serif" font-size="56.6167" x="1017.92" y="1220.27">10</text><path d="M1120.04 1178.3C1118.69 1178.3 1117.52 1178.48 1116.54 1178.85 1115.56 1179.22 1114.75 1179.73 1114.11 1180.4 1113.48 1181.06 1113.02 1181.87 1112.73 1182.81 1112.44 1183.76 1112.3 1184.8 1112.3 1185.95 1112.3 1187.19 1112.45 1188.3 1112.77 1189.3 1113.09 1190.31 1113.58 1191.17 1114.25 1191.88 1114.91 1192.6 1115.74 1193.15 1116.72 1193.53 1117.7 1193.92 1118.85 1194.12 1120.16 1194.12 1121.53 1194.12 1122.69 1193.91 1123.63 1193.5 1124.57 1193.1 1125.35 1192.55 1125.95 1191.85 1126.56 1191.16 1127 1190.34 1127.28 1189.41 1127.56 1188.48 1127.69 1187.5 1127.69 1186.49 1127.69 1185.2 1127.52 1184.04 1127.16 1183.02 1126.8 1182 1126.29 1181.14 1125.62 1180.46 1124.96 1179.77 1124.15 1179.24 1123.2 1178.87 1122.24 1178.49 1121.19 1178.3 1120.04 1178.3ZM1120.1 1160.82C1117.72 1160.82 1115.9 1161.43 1114.65 1162.65 1113.4 1163.87 1112.77 1165.6 1112.77 1167.84 1112.77 1169 1112.92 1170.03 1113.2 1170.96 1113.49 1171.88 1113.94 1172.67 1114.56 1173.34 1115.17 1174.01 1115.95 1174.51 1116.88 1174.84 1117.82 1175.18 1118.92 1175.35 1120.19 1175.35 1121.56 1175.35 1122.71 1175.16 1123.63 1174.78 1124.55 1174.41 1125.3 1173.89 1125.86 1173.24 1126.43 1172.58 1126.84 1171.82 1127.1 1170.96 1127.36 1170.09 1127.49 1169.18 1127.49 1168.2 1127.49 1167.01 1127.3 1165.96 1126.93 1165.04 1126.57 1164.13 1126.06 1163.35 1125.42 1162.71 1124.77 1162.06 1124 1161.58 1123.09 1161.28 1122.19 1160.97 1121.19 1160.82 1120.1 1160.82ZM1120.19 1157.93C1122.51 1157.93 1124.51 1158.16 1126.19 1158.64 1127.87 1159.12 1129.25 1159.78 1130.33 1160.62 1131.41 1161.47 1132.22 1162.47 1132.74 1163.65 1133.27 1164.82 1133.53 1166.12 1133.53 1167.55 1133.53 1169.57 1132.98 1171.3 1131.86 1172.73 1130.75 1174.16 1129.06 1175.39 1126.8 1176.42 1126.8 1176.48 1126.81 1176.56 1126.82 1176.66 1126.83 1176.76 1126.83 1176.84 1126.83 1176.9 1129.17 1177.73 1130.92 1178.95 1132.07 1180.56 1133.22 1182.17 1133.8 1184.02 1133.8 1186.1 1133.8 1187.75 1133.47 1189.26 1132.82 1190.62 1132.16 1191.98 1131.22 1193.15 1129.99 1194.13 1128.76 1195.11 1127.28 1195.87 1125.55 1196.39 1123.82 1196.92 1121.88 1197.18 1119.71 1197.18 1117.69 1197.18 1115.84 1196.94 1114.19 1196.47 1112.53 1195.99 1111.11 1195.3 1109.93 1194.38 1108.75 1193.47 1107.83 1192.35 1107.19 1191.03 1106.54 1189.71 1106.22 1188.23 1106.22 1186.58 1106.22 1185.39 1106.38 1184.33 1106.71 1183.41 1107.04 1182.48 1107.5 1181.66 1108.1 1180.92 1108.69 1180.19 1109.42 1179.53 1110.28 1178.95 1111.15 1178.38 1112.12 1177.82 1113.19 1177.29L1113.19 1176.9C1110.96 1175.95 1109.33 1174.73 1108.29 1173.25 1107.25 1171.77 1106.73 1170.01 1106.73 1167.96 1106.69 1166.47 1107.01 1165.11 1107.71 1163.87 1108.4 1162.63 1109.36 1161.57 1110.58 1160.7 1111.8 1159.82 1113.25 1159.14 1114.92 1158.66 1116.58 1158.17 1118.34 1157.93 1120.19 1157.93Z" fill-rule="evenodd"/><text fill="#000000" fill-opacity="0" font-family="Arial,Arial_MSFontService,sans-serif" font-size="39.2568" x="1106.22" y="1192.28">8</text><path d="M1080.55 1084.35C1078.68 1084.35 1077.12 1084.9 1075.87 1086.01 1074.61 1087.11 1073.6 1088.71 1072.83 1090.79 1072.06 1092.87 1071.51 1095.4 1071.19 1098.39 1070.86 1101.37 1070.7 1104.74 1070.7 1108.5 1070.7 1117.31 1071.52 1123.77 1073.15 1127.89 1074.79 1132.01 1077.32 1134.07 1080.75 1134.07 1084.02 1134.07 1086.45 1132.13 1088.03 1128.26 1089.61 1124.38 1090.4 1118.37 1090.4 1110.24 1090.4 1104.03 1089.99 1099 1089.18 1095.15 1088.37 1091.3 1087.24 1088.53 1085.8 1086.86 1084.35 1085.18 1082.6 1084.35 1080.55 1084.35ZM1080.75 1080.9C1086.67 1080.9 1091.07 1083.18 1093.96 1087.75 1096.85 1092.32 1098.3 1099.22 1098.3 1108.46 1098.3 1118.02 1096.75 1125.26 1093.66 1130.16 1090.57 1135.07 1086.05 1137.52 1080.1 1137.52 1074.27 1137.52 1069.92 1135.22 1067.07 1130.63 1064.22 1126.03 1062.8 1119.06 1062.8 1109.72 1062.8 1104.74 1063.24 1100.45 1064.11 1096.83 1064.99 1093.21 1066.22 1090.22 1067.8 1087.85 1069.38 1085.49 1071.28 1083.74 1073.5 1082.6 1075.71 1081.47 1078.13 1080.9 1080.75 1080.9ZM1037.75 1080.9 1039.98 1080.9C1039.82 1083.49 1039.74 1087.09 1039.74 1091.68L1039.74 1126.29C1039.74 1127.86 1039.82 1129.04 1040 1129.84 1040.18 1130.63 1040.49 1131.28 1040.93 1131.78 1041.38 1132.28 1042.02 1132.67 1042.86 1132.96 1043.69 1133.24 1044.75 1133.46 1046.02 1133.61 1047.29 1133.76 1048.96 1133.86 1051.04 1133.91L1051.04 1136.87 1021.09 1136.87 1021.09 1133.91C1024.09 1133.78 1026.23 1133.59 1027.52 1133.36 1028.8 1133.13 1029.78 1132.79 1030.46 1132.33 1031.13 1131.87 1031.62 1131.22 1031.93 1130.38 1032.25 1129.55 1032.4 1128.18 1032.4 1126.29L1032.4 1093.42C1032.4 1092.34 1032.21 1091.55 1031.83 1091.05 1031.45 1090.55 1030.9 1090.3 1030.17 1090.3 1029.31 1090.3 1028.08 1090.75 1026.48 1091.64 1024.89 1092.53 1022.92 1093.76 1020.57 1095.33L1018.78 1092.21Z" fill-rule="evenodd"/><text fill="#000000" fill-opacity="0" font-family="Arial,Arial_MSFontService,sans-serif" font-size="56.6167" x="1018.78" y="1130.44">10</text><path d="M1120.48 1070.98C1119.11 1070.98 1117.93 1071.2 1116.92 1071.64 1115.92 1072.07 1115.09 1072.69 1114.42 1073.48 1113.76 1074.28 1113.26 1075.25 1112.93 1076.39 1112.6 1077.53 1112.44 1078.81 1112.44 1080.22 1112.44 1082.82 1113.02 1084.83 1114.17 1086.25 1115.32 1087.67 1117.06 1088.38 1119.38 1088.38 1120.71 1088.38 1121.96 1088.2 1123.12 1087.86 1124.28 1087.51 1125.33 1087.04 1126.26 1086.44 1126.66 1086.18 1126.97 1085.94 1127.18 1085.71 1127.4 1085.48 1127.58 1085.23 1127.72 1084.97 1127.86 1084.7 1127.94 1084.36 1127.97 1083.94 1128 1083.52 1128.02 1082.97 1128.02 1082.27 1128.02 1080.68 1127.88 1079.2 1127.62 1077.82 1127.35 1076.44 1126.91 1075.25 1126.3 1074.24 1125.7 1073.24 1124.91 1072.45 1123.95 1071.86 1122.99 1071.27 1121.83 1070.98 1120.48 1070.98ZM1120.87 1068.09C1123.01 1068.09 1124.9 1068.45 1126.53 1069.15 1128.16 1069.86 1129.53 1070.88 1130.64 1072.22 1131.75 1073.56 1132.59 1075.22 1133.17 1077.19 1133.75 1079.17 1134.03 1081.44 1134.03 1084 1134.03 1087.39 1133.57 1090.48 1132.65 1093.26 1131.73 1096.04 1130.41 1098.43 1128.69 1100.42 1126.97 1102.42 1124.9 1104 1122.49 1105.18 1120.08 1106.35 1117.4 1107.02 1114.47 1107.2L1113.12 1105.68 1113.12 1103.86C1115.41 1103.86 1117.41 1103.49 1119.13 1102.73 1120.84 1101.98 1122.31 1100.94 1123.53 1099.61 1124.76 1098.28 1125.71 1096.7 1126.41 1094.87 1127.1 1093.04 1127.54 1091.04 1127.72 1088.85L1127.45 1088.7C1125.76 1089.76 1124.12 1090.55 1122.52 1091.07 1120.92 1091.6 1119.17 1091.86 1117.27 1091.86 1115.52 1091.86 1113.97 1091.6 1112.63 1091.09 1111.29 1090.57 1110.17 1089.83 1109.25 1088.87 1108.34 1087.91 1107.65 1086.74 1107.18 1085.37 1106.72 1084 1106.48 1082.43 1106.48 1080.66 1106.48 1078.95 1106.79 1077.34 1107.39 1075.82 1108 1074.3 1108.91 1072.97 1110.12 1071.83 1111.33 1070.69 1112.84 1069.78 1114.64 1069.11 1116.45 1068.43 1118.53 1068.09 1120.87 1068.09Z" fill-rule="evenodd"/><text fill="#000000" fill-opacity="0" font-family="Arial,Arial_MSFontService,sans-serif" font-size="39.1079" x="1106.48" y="1102.31">9</text><path d="M1063.1 998.179C1061.23 998.179 1059.67 998.733 1058.42 999.84 1057.16 1000.95 1056.15 1002.54 1055.38 1004.62 1054.61 1006.7 1054.06 1009.24 1053.74 1012.22 1053.41 1015.21 1053.25 1018.58 1053.25 1022.33 1053.25 1031.14 1054.07 1037.61 1055.7 1041.73 1057.34 1045.85 1059.87 1047.91 1063.3 1047.91 1066.57 1047.91 1068.99 1045.97 1070.57 1042.09 1072.16 1038.21 1072.95 1032.21 1072.95 1024.08 1072.95 1017.86 1072.54 1012.83 1071.73 1008.98 1070.92 1005.13 1069.79 1002.37 1068.35 1000.69 1066.9 999.016 1065.15 998.179 1063.1 998.179ZM1063.3 994.734C1069.22 994.734 1073.62 997.017 1076.51 1001.58 1079.4 1006.15 1080.85 1013.05 1080.85 1022.29 1080.85 1031.86 1079.3 1039.09 1076.21 1043.99 1073.11 1048.9 1068.6 1051.35 1062.65 1051.35 1056.82 1051.35 1052.47 1049.05 1049.62 1044.46 1046.77 1039.87 1045.35 1032.9 1045.35 1023.55 1045.35 1018.58 1045.79 1014.28 1046.66 1010.66 1047.54 1007.04 1048.77 1004.05 1050.35 1001.68 1051.93 999.32 1053.83 997.571 1056.05 996.436 1058.26 995.301 1060.68 994.734 1063.3 994.734ZM1020.3 994.734 1022.53 994.734C1022.37 997.328 1022.29 1000.92 1022.29 1005.51L1022.29 1040.12C1022.29 1041.69 1022.37 1042.87 1022.55 1043.67 1022.72 1044.47 1023.03 1045.12 1023.48 1045.62 1023.93 1046.12 1024.57 1046.51 1025.41 1046.79 1026.24 1047.08 1027.3 1047.29 1028.57 1047.44 1029.84 1047.59 1031.51 1047.69 1033.59 1047.74L1033.59 1050.7 1003.64 1050.7 1003.64 1047.74C1006.64 1047.61 1008.78 1047.43 1010.07 1047.2 1011.35 1046.97 1012.33 1046.62 1013 1046.16 1013.68 1045.7 1014.17 1045.06 1014.48 1044.22 1014.79 1043.38 1014.95 1042.02 1014.95 1040.12L1014.95 1007.26C1014.95 1006.18 1014.76 1005.39 1014.38 1004.89 1014 1004.39 1013.45 1004.14 1012.72 1004.14 1011.86 1004.14 1010.63 1004.58 1009.03 1005.47 1007.44 1006.37 1005.47 1007.59 1003.12 1009.16L1001.33 1006.04Z" fill-rule="evenodd"/><text fill="#000000" fill-opacity="0" font-family="Arial,Arial_MSFontService,sans-serif" font-size="56.6167" x="1001.33" y="1044.27">10</text><path d="M1136.68 984.815C1135.29 984.815 1134.13 985.178 1133.2 985.903 1132.27 986.627 1131.53 987.69 1130.98 989.09 1130.43 990.49 1130.05 992.197 1129.82 994.213 1129.59 996.228 1129.48 998.517 1129.48 1001.08 1129.48 1004.04 1129.62 1006.59 1129.91 1008.75 1130.2 1010.9 1130.64 1012.67 1131.25 1014.06 1131.85 1015.45 1132.61 1016.48 1133.53 1017.13 1134.44 1017.79 1135.53 1018.12 1136.8 1018.12 1137.99 1018.12 1139.04 1017.81 1139.93 1017.19 1140.82 1016.58 1141.56 1015.62 1142.15 1014.32 1142.73 1013.02 1143.18 1011.37 1143.47 1009.37 1143.77 1007.38 1143.92 1005.02 1143.92 1002.3 1143.92 999.241 1143.76 996.61 1143.43 994.406 1143.1 992.202 1142.64 990.39 1142.04 988.97 1141.45 987.551 1140.7 986.503 1139.8 985.828 1138.89 985.153 1137.85 984.815 1136.68 984.815ZM1104.13 982.135 1105.94 982.135C1105.9 983.227 1105.87 984.205 1105.85 985.069 1105.83 985.932 1105.82 986.771 1105.81 987.585 1105.8 988.4 1105.79 989.204 1105.79 989.998L1105.79 1012.63C1105.79 1013.25 1105.81 1013.78 1105.85 1014.23 1105.89 1014.68 1105.96 1015.05 1106.05 1015.36 1106.14 1015.67 1106.26 1015.93 1106.4 1016.15 1106.55 1016.37 1106.73 1016.56 1106.93 1016.72 1107.16 1016.95 1107.48 1017.14 1107.88 1017.27 1108.28 1017.4 1108.78 1017.5 1109.4 1017.59 1110.01 1017.68 1110.75 1017.75 1111.62 1017.8 1112.48 1017.85 1113.52 1017.89 1114.73 1017.91L1114.73 1020.5 1091.11 1020.5 1091.11 1017.91C1092.28 1017.87 1093.27 1017.82 1094.09 1017.77 1094.9 1017.72 1095.6 1017.65 1096.17 1017.56 1096.75 1017.47 1097.21 1017.38 1097.56 1017.27 1097.91 1017.16 1098.21 1017.02 1098.47 1016.86 1098.74 1016.69 1098.98 1016.49 1099.18 1016.28 1099.38 1016.07 1099.54 1015.81 1099.66 1015.49 1099.78 1015.18 1099.87 1014.79 1099.94 1014.33 1100.01 1013.88 1100.05 1013.31 1100.05 1012.63L1100.05 991.279C1100.05 990.504 1099.9 989.958 1099.6 989.641 1099.3 989.323 1098.87 989.164 1098.32 989.164 1097.7 989.164 1096.79 989.482 1095.58 990.117 1094.37 990.753 1092.8 991.696 1090.87 992.947 1090.61 992.49 1090.37 992.033 1090.16 991.577 1089.94 991.12 1089.71 990.653 1089.47 990.177 1091.93 988.826 1094.37 987.481 1096.78 986.141 1099.2 984.801 1101.64 983.465 1104.13 982.135ZM1136.8 981.926C1139.17 981.926 1141.19 982.368 1142.86 983.252 1144.54 984.135 1145.91 985.396 1146.97 987.034 1148.04 988.673 1148.82 990.673 1149.31 993.036 1149.81 995.399 1150.06 998.07 1150.06 1001.05 1150.06 1007.66 1148.89 1012.66 1146.54 1016.05 1144.2 1019.43 1140.8 1021.12 1136.36 1021.12 1131.95 1021.12 1128.67 1019.53 1126.53 1016.33 1124.38 1013.13 1123.31 1008.29 1123.31 1001.79 1123.31 998.397 1123.64 995.459 1124.31 992.977 1124.97 990.494 1125.91 988.434 1127.11 986.796 1128.31 985.158 1129.73 983.937 1131.38 983.133 1133.03 982.328 1134.84 981.926 1136.8 981.926Z" fill-rule="evenodd"/><text fill="#000000" fill-opacity="0" font-family="Arial,Arial_MSFontService,sans-serif" font-size="39.1973" x="1089.47" y="1016.22">10</text><path d="M1063.1 908.345C1061.23 908.345 1059.67 908.899 1058.42 910.007 1057.16 911.115 1056.15 912.709 1055.38 914.789 1054.61 916.87 1054.06 919.403 1053.74 922.388 1053.41 925.374 1053.25 928.744 1053.25 932.5 1053.25 941.308 1054.07 947.772 1055.7 951.892 1057.34 956.012 1059.87 958.073 1063.3 958.073 1066.57 958.073 1068.99 956.134 1070.57 952.257 1072.16 948.38 1072.95 942.375 1072.95 934.242 1072.95 928.028 1072.54 922.996 1071.73 919.146 1070.92 915.296 1069.79 912.533 1068.35 910.858 1066.9 909.183 1065.15 908.345 1063.1 908.345ZM1063.3 904.901C1069.22 904.901 1073.62 907.184 1076.51 911.75 1079.4 916.316 1080.85 923.219 1080.85 932.459 1080.85 942.024 1079.3 949.258 1076.21 954.162 1073.11 959.065 1068.6 961.517 1062.65 961.517 1056.82 961.517 1052.47 959.221 1049.62 954.628 1046.77 950.035 1045.35 943.064 1045.35 933.716 1045.35 928.744 1045.79 924.448 1046.66 920.828 1047.54 917.207 1048.77 914.215 1050.35 911.851 1051.93 909.487 1053.83 907.738 1056.05 906.603 1058.26 905.468 1060.68 904.901 1063.3 904.901ZM1020.3 904.901 1022.53 904.901C1022.37 907.494 1022.29 911.088 1022.29 915.681L1022.29 950.291C1022.29 951.858 1022.37 953.04 1022.55 953.837 1022.72 954.634 1023.03 955.283 1023.48 955.783 1023.93 956.283 1024.57 956.674 1025.41 956.958 1026.24 957.242 1027.3 957.458 1028.57 957.606 1029.84 957.755 1031.51 957.856 1033.59 957.91L1033.59 960.869 1003.64 960.869 1003.64 957.91C1006.64 957.775 1008.78 957.593 1010.07 957.363 1011.35 957.134 1012.33 956.789 1013 956.33 1013.68 955.871 1014.17 955.222 1014.48 954.385 1014.79 953.547 1014.95 952.183 1014.95 950.291L1014.95 917.424C1014.95 916.343 1014.76 915.553 1014.38 915.053 1014 914.553 1013.45 914.303 1012.72 914.303 1011.86 914.303 1010.63 914.749 1009.03 915.64 1007.44 916.532 1005.47 917.761 1003.12 919.328L1001.33 916.208Z" fill-rule="evenodd"/><text fill="#000000" fill-opacity="0" font-family="Arial,Arial_MSFontService,sans-serif" font-size="56.6167" x="1001.33" y="954.44">10</text><path d="M1139.13 892.301 1140.94 892.301C1140.9 893.394 1140.87 894.372 1140.85 895.235 1140.83 896.099 1140.82 896.938 1140.81 897.752 1140.8 898.566 1140.79 899.37 1140.79 900.165L1140.79 922.801C1140.79 923.417 1140.81 923.948 1140.85 924.395 1140.89 924.842 1140.96 925.219 1141.05 925.527 1141.14 925.835 1141.26 926.098 1141.4 926.316 1141.55 926.535 1141.73 926.723 1141.93 926.882 1142.16 927.12 1142.48 927.304 1142.88 927.433 1143.28 927.562 1143.78 927.671 1144.4 927.761 1145.01 927.85 1145.75 927.92 1146.62 927.969 1147.48 928.019 1148.52 928.054 1149.73 928.073L1149.73 930.665 1126.11 930.665 1126.11 928.073C1127.28 928.034 1128.27 927.989 1129.09 927.939 1129.9 927.89 1130.6 927.82 1131.17 927.731 1131.75 927.642 1132.21 927.542 1132.56 927.433 1132.91 927.324 1133.21 927.19 1133.47 927.031 1133.74 926.852 1133.98 926.659 1134.18 926.45 1134.38 926.242 1134.54 925.979 1134.66 925.661 1134.78 925.343 1134.87 924.956 1134.94 924.499 1135.01 924.042 1135.05 923.477 1135.05 922.801L1135.05 901.445C1135.05 900.671 1134.9 900.125 1134.6 899.807 1134.3 899.49 1133.87 899.331 1133.32 899.331 1132.7 899.331 1131.79 899.648 1130.58 900.284 1129.37 900.919 1127.8 901.862 1125.87 903.113 1125.61 902.657 1125.37 902.2 1125.16 901.743 1124.94 901.287 1124.71 900.82 1124.47 900.343 1126.93 898.993 1129.37 897.648 1131.78 896.308 1134.2 894.967 1136.64 893.632 1139.13 892.301ZM1104.13 892.301 1105.94 892.301C1105.9 893.394 1105.87 894.372 1105.85 895.235 1105.83 896.099 1105.82 896.938 1105.81 897.752 1105.8 898.566 1105.79 899.37 1105.79 900.165L1105.79 922.801C1105.79 923.417 1105.81 923.948 1105.85 924.395 1105.89 924.842 1105.96 925.219 1106.05 925.527 1106.14 925.835 1106.26 926.098 1106.4 926.316 1106.55 926.535 1106.73 926.723 1106.93 926.882 1107.16 927.12 1107.48 927.304 1107.88 927.433 1108.28 927.562 1108.78 927.671 1109.4 927.761 1110.01 927.85 1110.75 927.92 1111.62 927.969 1112.48 928.019 1113.52 928.054 1114.73 928.073L1114.73 930.665 1091.11 930.665 1091.11 928.073C1092.28 928.034 1093.27 927.989 1094.09 927.939 1094.9 927.89 1095.6 927.82 1096.17 927.731 1096.75 927.642 1097.21 927.542 1097.56 927.433 1097.91 927.324 1098.21 927.19 1098.47 927.031 1098.74 926.852 1098.98 926.659 1099.18 926.45 1099.38 926.242 1099.54 925.979 1099.66 925.661 1099.78 925.343 1099.87 924.956 1099.94 924.499 1100.01 924.042 1100.05 923.477 1100.05 922.801L1100.05 901.445C1100.05 900.671 1099.9 900.125 1099.6 899.807 1099.3 899.49 1098.87 899.331 1098.32 899.331 1097.7 899.331 1096.79 899.648 1095.58 900.284 1094.37 900.919 1092.8 901.862 1090.87 903.113 1090.61 902.657 1090.37 902.2 1090.16 901.743 1089.94 901.287 1089.71 900.82 1089.47 900.343 1091.93 898.993 1094.37 897.648 1096.78 896.308 1099.2 894.967 1101.64 893.632 1104.13 892.301Z" fill-rule="evenodd"/><text fill="#000000" fill-opacity="0" font-family="Arial,Arial_MSFontService,sans-serif" font-size="38.3633" x="1089.47" y="925.869">11</text><path d="M1063.1 824.012C1061.23 824.012 1059.67 824.566 1058.42 825.674 1057.16 826.781 1056.15 828.376 1055.38 830.456 1054.61 832.536 1054.06 835.069 1053.74 838.055 1053.41 841.04 1053.25 844.411 1053.25 848.166 1053.25 856.974 1054.07 863.438 1055.7 867.559 1057.34 871.679 1059.87 873.739 1063.3 873.739 1066.57 873.739 1068.99 871.801 1070.57 867.924 1072.16 864.046 1072.95 858.042 1072.95 849.909 1072.95 843.695 1072.54 838.663 1071.73 834.813 1070.92 830.963 1069.79 828.2 1068.35 826.525 1066.9 824.85 1065.15 824.012 1063.1 824.012ZM1063.3 820.567C1069.22 820.567 1073.62 822.85 1076.51 827.416 1079.4 831.983 1080.85 838.886 1080.85 848.126 1080.85 857.69 1079.3 864.924 1076.21 869.828 1073.11 874.732 1068.6 877.184 1062.65 877.184 1056.82 877.184 1052.47 874.887 1049.62 870.294 1046.77 865.701 1045.35 858.731 1045.35 849.382 1045.35 844.411 1045.79 840.115 1046.66 836.495 1047.54 832.874 1048.77 829.882 1050.35 827.518 1051.93 825.154 1053.83 823.404 1056.05 822.269 1058.26 821.135 1060.68 820.567 1063.3 820.567ZM1020.3 820.567 1022.53 820.567C1022.37 823.161 1022.29 826.755 1022.29 831.348L1022.29 865.958C1022.29 867.525 1022.37 868.707 1022.55 869.504 1022.72 870.301 1023.03 870.95 1023.48 871.449 1023.93 871.949 1024.57 872.341 1025.41 872.625 1026.24 872.908 1027.3 873.125 1028.57 873.273 1029.84 873.422 1031.51 873.523 1033.59 873.577L1033.59 876.536 1003.64 876.536 1003.64 873.577C1006.64 873.442 1008.78 873.26 1010.07 873.03 1011.35 872.8 1012.33 872.456 1013 871.997 1013.68 871.537 1014.17 870.889 1014.48 870.051 1014.79 869.214 1014.95 867.849 1014.95 865.958L1014.95 833.09C1014.95 832.01 1014.76 831.219 1014.38 830.719 1014 830.22 1013.45 829.97 1012.72 829.97 1011.86 829.97 1010.63 830.415 1009.03 831.307 1007.44 832.199 1005.47 833.428 1003.12 834.995L1001.33 831.874Z" fill-rule="evenodd"/><text fill="#000000" fill-opacity="0" font-family="Arial,Arial_MSFontService,sans-serif" font-size="56.6167" x="1001.33" y="870.107">10</text><path d="M1104.13 807.968 1105.94 807.968C1105.9 809.06 1105.87 810.038 1105.85 810.902 1105.83 811.766 1105.82 812.605 1105.81 813.419 1105.8 814.233 1105.79 815.037 1105.79 815.831L1105.79 838.468C1105.79 839.084 1105.81 839.615 1105.85 840.062 1105.89 840.508 1105.96 840.886 1106.05 841.193 1106.14 841.501 1106.26 841.764 1106.4 841.983 1106.55 842.201 1106.73 842.39 1106.93 842.549 1107.16 842.787 1107.48 842.971 1107.88 843.1 1108.28 843.229 1108.78 843.338 1109.4 843.427 1110.01 843.517 1110.75 843.586 1111.62 843.636 1112.48 843.685 1113.52 843.72 1114.73 843.74L1114.73 846.331 1091.11 846.331 1091.11 843.74C1092.28 843.7 1093.27 843.656 1094.09 843.606 1094.9 843.556 1095.6 843.487 1096.17 843.398 1096.75 843.308 1097.21 843.209 1097.56 843.1 1097.91 842.991 1098.21 842.857 1098.47 842.698 1098.74 842.519 1098.98 842.325 1099.18 842.117 1099.38 841.908 1099.54 841.645 1099.66 841.328 1099.78 841.01 1099.87 840.623 1099.94 840.166 1100.01 839.709 1100.05 839.143 1100.05 838.468L1100.05 817.112C1100.05 816.338 1099.9 815.792 1099.6 815.474 1099.3 815.156 1098.87 814.997 1098.32 814.997 1097.7 814.997 1096.79 815.315 1095.58 815.951 1094.37 816.586 1092.8 817.529 1090.87 818.78 1090.61 818.323 1090.37 817.867 1090.16 817.41 1089.94 816.953 1089.71 816.487 1089.47 816.01 1091.93 814.66 1094.37 813.315 1096.78 811.974 1099.2 810.634 1101.64 809.299 1104.13 807.968ZM1136.8 807.76C1138.87 807.76 1140.63 807.993 1142.09 808.46 1143.55 808.926 1144.74 809.557 1145.65 810.351 1146.56 811.145 1147.22 812.098 1147.63 813.21 1148.04 814.322 1148.24 815.524 1148.24 816.814 1148.24 817.589 1148.19 818.309 1148.08 818.974 1147.97 819.639 1147.78 820.294 1147.51 820.94 1147.24 821.585 1146.89 822.235 1146.45 822.891 1146.02 823.546 1145.47 824.241 1144.81 824.975 1144.32 825.611 1143.67 826.346 1142.88 827.18 1142.08 828.014 1141.22 828.907 1140.27 829.86 1139.33 830.813 1138.34 831.806 1137.31 832.839 1136.28 833.871 1135.27 834.894 1134.3 835.907 1133.33 836.919 1132.43 837.902 1131.62 838.855 1130.81 839.808 1130.14 840.682 1129.62 841.476L1140.64 841.476C1141.58 841.476 1142.32 841.442 1142.88 841.372 1143.43 841.303 1143.9 841.149 1144.26 840.911 1144.63 840.672 1144.94 840.31 1145.2 839.823 1145.46 839.337 1145.76 838.667 1146.1 837.813L1148.87 837.813C1148.77 839.223 1148.67 840.642 1148.58 842.072 1148.49 843.502 1148.4 844.922 1148.3 846.331L1123.07 846.331 1123.07 844.783C1123.55 843.71 1124.1 842.653 1124.74 841.61 1125.37 840.568 1126.09 839.511 1126.88 838.438 1127.68 837.366 1128.58 836.259 1129.59 835.117 1130.61 833.976 1131.73 832.789 1132.96 831.558 1134.83 829.691 1136.35 828.098 1137.52 826.777 1138.69 825.457 1139.61 824.28 1140.29 823.248 1140.96 822.215 1141.42 821.262 1141.67 820.389 1141.92 819.515 1142.04 818.582 1142.04 817.589 1142.04 816.576 1141.9 815.643 1141.61 814.789 1141.32 813.935 1140.91 813.21 1140.38 812.615 1139.84 812.019 1139.16 811.552 1138.34 811.215 1137.51 810.877 1136.56 810.708 1135.49 810.708 1133.65 810.708 1132.1 811.21 1130.85 812.213 1129.59 813.215 1128.62 814.67 1127.93 816.576L1124.02 816.576 1124.02 810.768C1126.57 809.716 1128.9 808.951 1131.04 808.474 1133.17 807.998 1135.09 807.76 1136.8 807.76Z" fill-rule="evenodd"/><text fill="#000000" fill-opacity="0" font-family="Arial,Arial_MSFontService,sans-serif" font-size="38.5718" x="1089.47" y="841.51">12</text><path d="M1063.1 734.179C1061.23 734.179 1059.67 734.733 1058.42 735.84 1057.16 736.948 1056.15 738.542 1055.38 740.623 1054.61 742.703 1054.06 745.236 1053.74 748.221 1053.41 751.207 1053.25 754.578 1053.25 758.333 1053.25 767.141 1054.07 773.605 1055.7 777.725 1057.34 781.846 1059.87 783.906 1063.3 783.906 1066.57 783.906 1068.99 781.967 1070.57 778.09 1072.16 774.213 1072.95 768.208 1072.95 760.076 1072.95 753.862 1072.54 748.829 1071.73 744.979 1070.92 741.129 1069.79 738.367 1068.35 736.691 1066.9 735.016 1065.15 734.179 1063.1 734.179ZM1063.3 730.734C1069.22 730.734 1073.62 733.017 1076.51 737.583 1079.4 742.149 1080.85 749.052 1080.85 758.293 1080.85 767.857 1079.3 775.091 1076.21 779.995 1073.11 784.899 1068.6 787.351 1062.65 787.351 1056.82 787.351 1052.47 785.054 1049.62 780.461 1046.77 775.868 1045.35 768.897 1045.35 759.549 1045.35 754.578 1045.79 750.282 1046.66 746.661 1047.54 743.041 1048.77 740.048 1050.35 737.684 1051.93 735.32 1053.83 733.571 1056.05 732.436 1058.26 731.301 1060.68 730.734 1063.3 730.734ZM1020.3 730.734 1022.53 730.734C1022.37 733.328 1022.29 736.921 1022.29 741.514L1022.29 776.125C1022.29 777.692 1022.37 778.874 1022.55 779.671 1022.72 780.468 1023.03 781.116 1023.48 781.616 1023.93 782.116 1024.57 782.508 1025.41 782.791 1026.24 783.075 1027.3 783.291 1028.57 783.44 1029.84 783.588 1031.51 783.69 1033.59 783.744L1033.59 786.702 1003.64 786.702 1003.64 783.744C1006.64 783.609 1008.78 783.426 1010.07 783.197 1011.35 782.967 1012.33 782.622 1013 782.163 1013.68 781.704 1014.17 781.055 1014.48 780.218 1014.79 779.38 1014.95 778.016 1014.95 776.125L1014.95 743.257C1014.95 742.176 1014.76 741.386 1014.38 740.886 1014 740.386 1013.45 740.136 1012.72 740.136 1011.86 740.136 1010.63 740.582 1009.03 741.474 1007.44 742.365 1005.47 743.595 1003.12 745.162L1001.33 742.041Z" fill-rule="evenodd"/><text fill="#000000" fill-opacity="0" font-family="Arial,Arial_MSFontService,sans-serif" font-size="56.6167" x="1001.33" y="780.274">10</text><path d="M1104.13 718.135 1105.94 718.135C1105.9 719.227 1105.87 720.205 1105.85 721.069 1105.83 721.932 1105.82 722.771 1105.81 723.585 1105.8 724.4 1105.79 725.204 1105.79 725.998L1105.79 748.635C1105.79 749.25 1105.81 749.781 1105.85 750.228 1105.89 750.675 1105.96 751.052 1106.05 751.36 1106.14 751.668 1106.26 751.931 1106.4 752.149 1106.55 752.368 1106.73 752.556 1106.93 752.715 1107.16 752.954 1107.48 753.137 1107.88 753.266 1108.28 753.395 1108.78 753.505 1109.4 753.594 1110.01 753.683 1110.75 753.753 1111.62 753.802 1112.48 753.852 1113.52 753.887 1114.73 753.907L1114.73 756.498 1091.11 756.498 1091.11 753.907C1092.28 753.867 1093.27 753.822 1094.09 753.773 1094.9 753.723 1095.6 753.654 1096.17 753.564 1096.75 753.475 1097.21 753.376 1097.56 753.266 1097.91 753.157 1098.21 753.023 1098.47 752.864 1098.74 752.686 1098.98 752.492 1099.18 752.283 1099.38 752.075 1099.54 751.812 1099.66 751.494 1099.78 751.176 1099.87 750.789 1099.94 750.333 1100.01 749.876 1100.05 749.31 1100.05 748.635L1100.05 727.279C1100.05 726.504 1099.9 725.958 1099.6 725.641 1099.3 725.323 1098.87 725.164 1098.32 725.164 1097.7 725.164 1096.79 725.482 1095.58 726.117 1094.37 726.753 1092.8 727.696 1090.87 728.947 1090.61 728.49 1090.37 728.033 1090.16 727.577 1089.94 727.12 1089.71 726.653 1089.47 726.177 1091.93 724.826 1094.37 723.481 1096.78 722.141 1099.2 720.801 1101.64 719.465 1104.13 718.135ZM1136.74 717.926C1138.33 717.926 1139.82 718.095 1141.2 718.433 1142.58 718.77 1143.77 719.281 1144.78 719.967 1145.8 720.652 1146.59 721.505 1147.15 722.528 1147.72 723.551 1148 724.737 1148 726.087 1148 727.358 1147.82 728.48 1147.47 729.453 1147.11 730.426 1146.56 731.31 1145.81 732.104 1145.07 732.898 1144.15 733.618 1143.07 734.263 1141.99 734.909 1140.74 735.529 1139.33 736.125L1139.33 736.482C1140.66 736.721 1141.91 737.103 1143.06 737.629 1144.21 738.155 1145.22 738.821 1146.08 739.625 1146.94 740.429 1147.62 741.357 1148.12 742.41 1148.62 743.462 1148.87 744.624 1148.87 745.895 1148.87 747.483 1148.57 748.957 1147.97 750.318 1147.38 751.678 1146.48 752.854 1145.29 753.847 1144.1 754.84 1142.63 755.614 1140.88 756.17 1139.14 756.726 1137.09 757.004 1134.75 757.004 1132.9 757.004 1131.02 756.821 1129.12 756.453 1127.21 756.086 1125.4 755.604 1123.7 755.009L1123.7 748.575 1127.54 748.575C1127.86 749.568 1128.23 750.417 1128.67 751.122 1129.11 751.827 1129.62 752.403 1130.21 752.849 1130.79 753.296 1131.47 753.619 1132.23 753.817 1132.99 754.016 1133.86 754.115 1134.84 754.115 1137.4 754.115 1139.34 753.505 1140.66 752.283 1141.98 751.062 1142.64 749.211 1142.64 746.729 1142.64 744.088 1141.77 742.087 1140.03 740.727 1138.3 739.367 1135.72 738.687 1132.3 738.687L1129.68 738.687 1129.68 735.827C1131.77 735.728 1133.57 735.435 1135.09 734.948 1136.61 734.462 1137.87 733.832 1138.89 733.057 1139.9 732.283 1140.65 731.379 1141.15 730.347 1141.65 729.314 1141.9 728.212 1141.9 727.041 1141.9 725.134 1141.33 723.63 1140.2 722.528 1139.07 721.426 1137.43 720.875 1135.28 720.875 1133.48 720.875 1131.96 721.371 1130.74 722.364 1129.52 723.357 1128.58 724.836 1127.93 726.802L1124.14 726.802 1124.14 720.935C1126.49 719.942 1128.7 719.192 1130.77 718.686 1132.85 718.179 1134.84 717.926 1136.74 717.926Z" fill-rule="evenodd"/><text fill="#000000" fill-opacity="0" font-family="Arial,Arial_MSFontService,sans-serif" font-size="39.0781" x="1089.47" y="752.12">13</text><rect x="1179.5" y="777.5" width="320" height="145" stroke="#000000" stroke-width="3.4375" stroke-linejoin="round" stroke-miterlimit="10" fill="#FFFFFF"/><text font-family="Times New Roman,Times New Roman_MSFontService,sans-serif" font-weight="700" font-size="92" transform="matrix(1 0 0 1 1222.21 883)">Gplus</text><g clip-path="url(#clip5)"><path d="M2540.5 1230.5 3648.5 1230.5M2540.5 1142.54 3648.5 1142.54M2540.5 1055.53 3648.5 1055.53M2540.5 968.532 3648.5 968.532M2540.5 880.529 3648.5 880.529M2540.5 793.5 3648.5 793.5" stroke="#D9D9D9" stroke-width="3.4375" stroke-linejoin="round" stroke-miterlimit="10" fill="none"/></g><g clip-path="url(#clip6)"><path d="M2540.5 793.5 2540.5 1230.5M2663.59 793.5 2663.59 1230.5M2786.59 793.5 2786.59 1230.5M2909.6 793.5 2909.6 1230.5M3032.6 793.5 3032.6 1230.5M3155.6 793.5 3155.6 1230.5M3279.61 793.5 3279.61 1230.5M3402.61 793.5 3402.61 1230.5M3525.62 793.5 3525.62 1230.5M3648.5 793.5 3648.5 1230.5" stroke="#D9D9D9" stroke-width="3.4375" stroke-linejoin="round" stroke-miterlimit="10" fill="none"/></g><g clip-path="url(#clip7)"><path d="M2663 1158 2786.09 1051.03 3033.1 942.031 3279.11 882.029 3525.12 839.028 3644 822" stroke="#000000" stroke-width="5.72917" stroke-linecap="round" stroke-linejoin="round" stroke-miterlimit="10" fill="none"/></g><g clip-path="url(#clip8)"><path d="M2681.78 1157.68C2681.78 1167.62 2673.72 1175.68 2663.78 1175.68 2653.83 1175.68 2645.78 1167.62 2645.78 1157.68 2645.78 1147.74 2653.83 1139.68 2663.78 1139.68 2673.72 1139.68 2681.78 1147.74 2681.78 1157.68Z" stroke="#000000" stroke-width="3.4375" stroke-linejoin="round" stroke-miterlimit="10" fill="#FFFFFF" fill-opacity="0.921569"/><path d="M2804.78 1050.68C2804.78 1060.62 2796.72 1068.68 2786.78 1068.68 2776.83 1068.68 2768.78 1060.62 2768.78 1050.68 2768.78 1040.74 2776.83 1032.68 2786.78 1032.68 2796.72 1032.68 2804.78 1040.74 2804.78 1050.68Z" stroke="#000000" stroke-width="3.4375" stroke-linejoin="round" stroke-miterlimit="10" fill="#FFFFFF" fill-opacity="0.921569"/><path d="M3050.78 941.678C3050.78 951.619 3042.72 959.678 3032.78 959.678 3022.83 959.678 3014.78 951.619 3014.78 941.678 3014.78 931.737 3022.83 923.679 3032.78 923.679 3042.72 923.679 3050.78 931.737 3050.78 941.678Z" stroke="#000000" stroke-width="3.4375" stroke-linejoin="round" stroke-miterlimit="10" fill="#FFFFFF" fill-opacity="0.921569"/><path d="M3297.78 882.678C3297.78 892.619 3289.72 900.678 3279.78 900.678 3269.83 900.678 3261.78 892.619 3261.78 882.678 3261.78 872.737 3269.83 864.679 3279.78 864.679 3289.72 864.679 3297.78 872.737 3297.78 882.678Z" stroke="#000000" stroke-width="3.4375" stroke-linejoin="round" stroke-miterlimit="10" fill="#FFFFFF" fill-opacity="0.921569"/><path d="M3543.78 839.678C3543.78 849.619 3535.72 857.678 3525.78 857.678 3515.83 857.678 3507.78 849.619 3507.78 839.678 3507.78 829.737 3515.83 821.679 3525.78 821.679 3535.72 821.679 3543.78 829.737 3543.78 839.678Z" stroke="#000000" stroke-width="3.4375" stroke-linejoin="round" stroke-miterlimit="10" fill="#FFFFFF" fill-opacity="0.921569"/><path d="M3662.78 822.678C3662.78 832.619 3654.72 840.678 3644.78 840.678 3634.83 840.678 3626.78 832.619 3626.78 822.678 3626.78 812.737 3634.83 804.679 3644.78 804.679 3654.72 804.679 3662.78 812.737 3662.78 822.678Z" stroke="#000000" stroke-width="3.4375" stroke-linejoin="round" stroke-miterlimit="10" fill="#FFFFFF" fill-opacity="0.921569"/></g><path d="M2284.55 1033.64C2284.55 1030.92 2284.72 1028.4 2285.05 1026.07 2285.38 1023.75 2285.98 1021.17 2286.85 1018.33L2299.02 1021.02 2299.02 1025.33C2295.34 1025.57 2292.68 1026.37 2291.05 1027.74 2289.41 1029.1 2288.6 1031.29 2288.6 1034.32 2288.6 1038.45 2290.66 1042.29 2294.8 1045.84 2298.93 1049.39 2304.39 1052.2 2311.17 1054.26 2317.95 1056.33 2324.25 1057.36 2330.06 1057.36 2334.61 1057.36 2337.97 1056.55 2340.12 1054.94 2342.28 1053.32 2343.36 1050.83 2343.36 1047.48 2343.36 1045.23 2343.02 1043.27 2342.35 1041.6 2341.67 1039.92 2340.53 1038.35 2338.93 1036.88 2337.33 1035.41 2335.09 1033.96 2332.22 1032.52L2332.22 1028.21 2344.97 1030.95C2346.53 1036.55 2347.31 1042.42 2347.31 1048.56 2347.31 1054.19 2345.69 1058.47 2342.46 1061.41 2339.22 1064.34 2334.49 1065.81 2328.26 1065.81 2323.86 1065.81 2318.78 1065.02 2313.03 1063.45 2307.28 1061.88 2302.24 1059.65 2297.9 1056.78 2293.55 1053.9 2290.24 1050.5 2287.97 1046.58 2285.69 1042.66 2284.55 1038.35 2284.55 1033.64Z" fill-rule="evenodd"/><text fill="#000000" fill-opacity="0" font-family="Arial,Arial_MSFontService,sans-serif" font-size="47.4824" x="2284.55" y="1059.87">ğ¶</text><path d="M2331.04 1001.74C2334.07 1003.83 2337.08 1005.92 2340.07 1008 2343.06 1010.09 2346.06 1012.19 2349.07 1014.3L2349.46 1014.3 2349.46 1001.74 2342.88 1001.74C2342.14 1001.74 2341.22 1001.73 2340.13 1001.71 2339.04 1001.69 2337.94 1001.66 2336.81 1001.63 2335.69 1001.59 2334.62 1001.55 2333.61 1001.51 2332.59 1001.47 2331.74 1001.42 2331.04 1001.38ZM2323.38 1000.79 2323.38 995.589 2349.46 995.589 2349.46 995C2349.46 994.106 2349.41 993.381 2349.33 992.825 2349.24 992.269 2349.06 991.822 2348.79 991.483 2348.51 991.145 2348.13 990.862 2347.64 990.633 2347.15 990.404 2346.51 990.159 2345.73 989.897L2345.73 987.116C2346.93 987.181 2348.12 987.252 2349.29 987.329 2350.47 987.405 2351.67 987.476 2352.89 987.541L2352.89 995.589 2357.18 995.589C2358.44 995.589 2359.42 995.562 2360.12 995.507 2360.82 995.453 2361.37 995.289 2361.76 995.017 2362.15 994.744 2362.45 994.341 2362.64 993.806 2362.84 993.272 2363.07 992.525 2363.33 991.565L2365.29 991.565 2365.29 1005.7 2363.33 1005.7C2363.15 1005.04 2363 1004.49 2362.85 1004.03 2362.71 1003.57 2362.55 1003.19 2362.36 1002.88 2362.18 1002.58 2361.96 1002.36 2361.71 1002.21 2361.46 1002.07 2361.14 1001.96 2360.76 1001.89 2360.38 1001.81 2359.9 1001.77 2359.32 1001.76 2358.74 1001.74 2358.03 1001.74 2357.18 1001.74L2352.89 1001.74 2352.89 1020.16 2350.31 1020.16C2345.79 1016.91 2341.31 1013.68 2336.85 1010.47 2332.39 1007.27 2327.9 1004.04 2323.38 1000.79Z" fill-rule="evenodd"/><text fill="#000000" fill-opacity="0" font-family="Arial,Arial_MSFontService,sans-serif" font-size="33.042" x="2323.38" y="1016.03">4</text><text font-family="Times New Roman,Times New Roman_MSFontService,sans-serif" font-weight="400" font-size="83" transform="matrix(1 0 0 1 2515.45 1306)">0<tspan font-size="83" x="122.28" y="7">1</tspan><tspan font-size="83" x="247.429" y="6">2</tspan><tspan font-size="83" x="369.78" y="7">3</tspan><tspan font-size="83" x="494.929" y="6">4</tspan><tspan font-size="83" x="617.28" y="7">5</tspan><tspan font-size="83" x="742.429" y="6">6</tspan><tspan font-size="83" x="864.78" y="7">7</tspan><tspan font-size="83" x="989.929" y="6">8</tspan><tspan font-size="83" x="1110.93" y="6">9</tspan></text><path d="M2916.71 1361.78C2918.6 1361.78 2920.09 1362.4 2921.18 1363.64 2922.27 1364.89 2922.82 1366.51 2922.82 1368.52 2922.82 1370.11 2922.46 1371.87 2921.74 1373.82L2922.28 1374C2925.22 1369.87 2928.01 1366.8 2930.66 1364.81 2933.31 1362.82 2936.04 1361.82 2938.86 1361.82 2941.64 1361.82 2943.78 1362.63 2945.28 1364.23 2946.78 1365.83 2947.53 1368.05 2947.53 1370.9 2947.53 1372.79 2947.09 1375.47 2946.22 1378.94L2943.3 1390.71C2942.5 1393.97 2942.09 1396.28 2942.09 1397.63 2942.09 1398.83 2942.29 1399.69 2942.68 1400.23 2943.06 1400.77 2943.68 1401.04 2944.52 1401.04 2945.42 1401.04 2946.37 1400.67 2947.39 1399.94 2948.41 1399.21 2949.85 1397.81 2951.7 1395.74L2954.26 1398.26C2951.69 1401.01 2949.44 1403.03 2947.53 1404.3 2945.61 1405.57 2943.42 1406.21 2940.97 1406.21 2939.02 1406.21 2937.46 1405.51 2936.3 1404.12 2935.13 1402.73 2934.54 1400.95 2934.54 1398.8 2934.54 1396.85 2935.04 1393.99 2936.03 1390.22L2938 1382.44C2938.72 1379.63 2939.19 1377.55 2939.42 1376.2 2939.64 1374.85 2939.76 1373.76 2939.76 1372.92 2939.76 1370.85 2939.41 1369.36 2938.72 1368.45 2938.03 1367.54 2936.91 1367.08 2935.35 1367.08 2934.09 1367.08 2932.74 1367.58 2931.29 1368.59 2929.83 1369.59 2928.29 1371.1 2926.66 1373.12 2925.03 1375.14 2923.72 1377.11 2922.73 1379.01 2921.74 1380.91 2920.93 1383.25 2920.3 1386.04L2916.04 1405.49 2908.26 1405.49 2914.82 1377.01C2915.48 1374.13 2915.81 1371.92 2915.81 1370.36 2915.81 1369.16 2915.62 1368.29 2915.23 1367.75 2914.84 1367.22 2914.22 1366.95 2913.39 1366.95 2912.46 1366.95 2911.48 1367.33 2910.44 1368.09 2909.41 1368.85 2908 1370.24 2906.2 1372.25L2903.64 1369.73C2906.39 1366.86 2908.68 1364.81 2910.51 1363.6 2912.34 1362.39 2914.4 1361.78 2916.71 1361.78Z" fill-rule="evenodd"/><text fill="#000000" fill-opacity="0" font-family="Arial,Arial_MSFontService,sans-serif" font-size="44.4277" x="2903.64" y="1400.65">ğ‘›</text><path d="M3012.14 1340.58 3013.35 1344.04C3006.35 1346.34 3001.16 1350.84 2997.79 1357.53 2994.42 1364.23 2992.74 1372.64 2992.74 1382.76 2992.74 1393.24 2994.42 1401.88 2997.79 1408.68 3001.16 1415.48 3006.3 1420.03 3013.22 1422.33L3012.14 1425.79C3003.37 1423.49 2996.64 1418.52 2991.97 1410.9 2987.3 1403.28 2984.96 1394.05 2984.96 1383.21 2984.96 1372.4 2987.31 1363.16 2991.99 1355.51 2996.68 1347.86 3003.4 1342.88 3012.14 1340.58Z" fill-rule="evenodd"/><text fill="#000000" fill-opacity="0" font-family="Arial,Arial_MSFontService,sans-serif" font-size="85.2168" x="2984.96" y="1415.14">(</text><path d="M3027.36 1354.59 3047.71 1374.9 3068.06 1354.59 3072.28 1358.77 3052.16 1379.25 3072.33 1399.65 3067.83 1404.14 3047.71 1383.61 3026.95 1403.96 3022.78 1399.74 3043.31 1379.25 3022.87 1359.08Z" fill-rule="evenodd"/><text fill="#000000" fill-opacity="0" font-family="Arial,Arial_MSFontService,sans-serif" font-size="49.5488" x="3022.78" y="1397.95">Ã—</text><path d="M3176.85 1347.27C3174.78 1347.27 3173.05 1347.88 3171.66 1349.11 3170.27 1350.34 3169.14 1352.11 3168.29 1354.41 3167.44 1356.72 3166.83 1359.53 3166.47 1362.84 3166.11 1366.14 3165.93 1369.88 3165.93 1374.04 3165.93 1383.81 3166.84 1390.97 3168.65 1395.54 3170.46 1400.11 3173.27 1402.39 3177.07 1402.39 3180.7 1402.39 3183.38 1400.24 3185.14 1395.94 3186.89 1391.65 3187.76 1384.99 3187.76 1375.97 3187.76 1369.09 3187.31 1363.51 3186.42 1359.24 3185.52 1354.97 3184.27 1351.91 3182.66 1350.05 3181.06 1348.2 3179.12 1347.27 3176.85 1347.27ZM3177.07 1343.45C3183.63 1343.45 3188.51 1345.98 3191.72 1351.04 3194.92 1356.1 3196.52 1363.76 3196.52 1374 3196.52 1384.6 3194.81 1392.62 3191.38 1398.05 3187.95 1403.49 3182.94 1406.21 3176.35 1406.21 3169.88 1406.21 3165.07 1403.66 3161.91 1398.57 3158.75 1393.48 3157.17 1385.75 3157.17 1375.39 3157.17 1369.88 3157.66 1365.12 3158.63 1361.11 3159.6 1357.09 3160.97 1353.78 3162.72 1351.16 3164.47 1348.54 3166.57 1346.6 3169.03 1345.34 3171.49 1344.08 3174.17 1343.45 3177.07 1343.45ZM3129.4 1343.45 3131.87 1343.45C3131.69 1346.33 3131.6 1350.31 3131.6 1355.4L3131.6 1393.76C3131.6 1395.5 3131.69 1396.81 3131.89 1397.69 3132.08 1398.58 3132.43 1399.3 3132.92 1399.85 3133.42 1400.4 3134.13 1400.84 3135.06 1401.15 3135.98 1401.47 3137.15 1401.71 3138.56 1401.87 3139.97 1402.04 3141.82 1402.15 3144.13 1402.21L3144.13 1405.49 3110.93 1405.49 3110.93 1402.21C3114.26 1402.06 3116.63 1401.86 3118.05 1401.6 3119.48 1401.35 3120.56 1400.97 3121.31 1400.46 3122.06 1399.95 3122.61 1399.23 3122.95 1398.3 3123.29 1397.37 3123.47 1395.86 3123.47 1393.76L3123.47 1357.33C3123.47 1356.13 3123.26 1355.26 3122.84 1354.7 3122.42 1354.15 3121.8 1353.87 3121 1353.87 3120.04 1353.87 3118.67 1354.37 3116.91 1355.36 3115.14 1356.34 3112.95 1357.71 3110.35 1359.44L3108.37 1355.98Z" fill-rule="evenodd"/><text fill="#000000" fill-opacity="0" font-family="Arial,Arial_MSFontService,sans-serif" font-size="62.7559" x="3108.37" y="1398.36">10</text><path d="M3231.24 1327.98 3234.19 1327.98 3233.73 1335.9 3214.56 1335.9 3214.56 1348.69C3215.71 1348.3 3216.98 1347.98 3218.35 1347.74 3219.73 1347.5 3221.11 1347.38 3222.51 1347.38 3224.51 1347.38 3226.33 1347.66 3227.95 1348.21 3229.58 1348.77 3230.98 1349.57 3232.14 1350.6 3233.31 1351.64 3234.21 1352.89 3234.86 1354.36 3235.5 1355.84 3235.82 1357.49 3235.82 1359.32 3235.82 1361.41 3235.46 1363.28 3234.74 1364.91 3234.02 1366.55 3232.99 1367.94 3231.65 1369.09 3230.31 1370.23 3228.67 1371.1 3226.74 1371.7 3224.81 1372.3 3222.64 1372.6 3220.22 1372.6 3218.3 1372.6 3216.34 1372.42 3214.33 1372.05 3212.32 1371.68 3210.24 1371.13 3208.08 1370.41L3208.08 1363.15 3212.27 1363.15C3212.92 1365.35 3213.9 1366.93 3215.21 1367.88 3216.52 1368.82 3218.24 1369.3 3220.38 1369.3 3223.24 1369.3 3225.4 1368.56 3226.86 1367.07 3228.32 1365.59 3229.05 1363.27 3229.05 1360.11 3229.05 1357.07 3228.28 1354.82 3226.73 1353.35 3225.18 1351.88 3223.01 1351.14 3220.22 1351.14 3219.48 1351.14 3218.81 1351.15 3218.21 1351.17 3217.61 1351.2 3217.01 1351.25 3216.42 1351.34 3215.83 1351.43 3215.25 1351.55 3214.67 1351.7 3214.09 1351.85 3213.45 1352.02 3212.73 1352.22L3210.04 1350.75 3210.04 1330.17 3228.17 1330.17C3228.69 1330.15 3229.11 1330.12 3229.43 1330.07 3229.74 1330.03 3230 1329.93 3230.2 1329.78 3230.39 1329.63 3230.57 1329.41 3230.72 1329.14 3230.87 1328.87 3231.05 1328.48 3231.24 1327.98Z" fill-rule="evenodd"/><text fill="#000000" fill-opacity="0" font-family="Arial,Arial_MSFontService,sans-serif" font-size="44.623" x="3208.08" y="1367.02">5</text><path d="M3248.04 1340.58C3256.78 1342.88 3263.5 1347.86 3268.19 1355.51 3272.87 1363.16 3275.22 1372.4 3275.22 1383.21 3275.22 1394.05 3272.88 1403.28 3268.21 1410.9 3263.54 1418.52 3256.81 1423.49 3248.04 1425.79L3246.96 1422.33C3253.88 1420.03 3259.02 1415.48 3262.39 1408.68 3265.76 1401.88 3267.44 1393.24 3267.44 1382.76 3267.44 1372.64 3265.77 1364.23 3262.41 1357.53 3259.06 1350.84 3253.86 1346.34 3246.82 1344.04Z" fill-rule="evenodd"/><text fill="#000000" fill-opacity="0" font-family="Arial,Arial_MSFontService,sans-serif" font-size="85.2168" x="3246.82" y="1415.14">)</text><path d="M2461.06 1208.56C2459.2 1208.56 2457.63 1209.12 2456.38 1210.23 2455.12 1211.33 2454.11 1212.93 2453.34 1215.01 2452.57 1217.09 2452.02 1219.62 2451.7 1222.61 2451.37 1225.59 2451.21 1228.96 2451.21 1232.72 2451.21 1241.53 2452.03 1247.99 2453.66 1252.11 2455.3 1256.23 2457.83 1258.29 2461.26 1258.29 2464.53 1258.29 2466.96 1256.35 2468.54 1252.48 2470.12 1248.6 2470.91 1242.59 2470.91 1234.46 2470.91 1228.25 2470.5 1223.21 2469.69 1219.36 2468.88 1215.51 2467.75 1212.75 2466.31 1211.08 2464.86 1209.4 2463.11 1208.56 2461.06 1208.56ZM2461.26 1205.12C2467.18 1205.12 2471.58 1207.4 2474.47 1211.97 2477.36 1216.53 2478.81 1223.44 2478.81 1232.68 2478.81 1242.24 2477.26 1249.48 2474.17 1254.38 2471.08 1259.28 2466.56 1261.74 2460.61 1261.74 2454.78 1261.74 2450.43 1259.44 2447.58 1254.85 2444.73 1250.25 2443.31 1243.28 2443.31 1233.93 2443.31 1228.96 2443.75 1224.67 2444.63 1221.05 2445.5 1217.43 2446.73 1214.43 2448.31 1212.07 2449.89 1209.71 2451.79 1207.96 2454.01 1206.82 2456.22 1205.69 2458.64 1205.12 2461.26 1205.12ZM2418.26 1205.12 2420.49 1205.12C2420.33 1207.71 2420.25 1211.31 2420.25 1215.9L2420.25 1250.51C2420.25 1252.08 2420.33 1253.26 2420.51 1254.06 2420.69 1254.85 2421 1255.5 2421.44 1256 2421.89 1256.5 2422.53 1256.89 2423.37 1257.18 2424.21 1257.46 2425.26 1257.68 2426.53 1257.83 2427.8 1257.97 2429.47 1258.08 2431.55 1258.13L2431.55 1261.09 2401.6 1261.09 2401.6 1258.13C2404.6 1257.99 2406.74 1257.81 2408.03 1257.58 2409.31 1257.35 2410.29 1257.01 2410.97 1256.55 2411.64 1256.09 2412.13 1255.44 2412.45 1254.6 2412.76 1253.77 2412.91 1252.4 2412.91 1250.51L2412.91 1217.64C2412.91 1216.56 2412.72 1215.77 2412.34 1215.27 2411.97 1214.77 2411.41 1214.52 2410.68 1214.52 2409.82 1214.52 2408.59 1214.97 2406.99 1215.86 2405.4 1216.75 2403.43 1217.98 2401.08 1219.55L2399.29 1216.43Z" fill-rule="evenodd"/><text fill="#000000" fill-opacity="0" font-family="Arial,Arial_MSFontService,sans-serif" font-size="56.6167" x="2399.29" y="1254.66">10</text><path d="M2501.41 1212.68C2500.06 1212.68 2498.89 1212.87 2497.91 1213.24 2496.93 1213.6 2496.12 1214.12 2495.48 1214.78 2494.85 1215.45 2494.39 1216.25 2494.1 1217.2 2493.81 1218.14 2493.67 1219.19 2493.67 1220.34 2493.67 1221.57 2493.82 1222.69 2494.14 1223.69 2494.46 1224.69 2494.95 1225.55 2495.62 1226.27 2496.28 1226.98 2497.11 1227.53 2498.09 1227.92 2499.07 1228.31 2500.22 1228.5 2501.53 1228.5 2502.9 1228.5 2504.06 1228.3 2505 1227.89 2505.94 1227.48 2506.72 1226.93 2507.32 1226.24 2507.93 1225.54 2508.37 1224.73 2508.65 1223.79 2508.93 1222.86 2509.06 1221.89 2509.06 1220.88 2509.06 1219.59 2508.89 1218.43 2508.53 1217.41 2508.17 1216.38 2507.66 1215.53 2506.99 1214.84 2506.33 1214.16 2505.52 1213.63 2504.57 1213.25 2503.61 1212.87 2502.56 1212.68 2501.41 1212.68ZM2501.47 1195.2C2499.09 1195.2 2497.27 1195.81 2496.02 1197.03 2494.77 1198.25 2494.14 1199.99 2494.14 1202.23 2494.14 1203.38 2494.29 1204.42 2494.57 1205.34 2494.86 1206.27 2495.31 1207.06 2495.93 1207.73 2496.54 1208.39 2497.32 1208.89 2498.25 1209.23 2499.19 1209.57 2500.29 1209.74 2501.56 1209.74 2502.93 1209.74 2504.08 1209.55 2505 1209.17 2505.92 1208.79 2506.67 1208.28 2507.23 1207.62 2507.8 1206.97 2508.21 1206.21 2508.47 1205.34 2508.73 1204.48 2508.86 1203.56 2508.86 1202.59 2508.86 1201.4 2508.67 1200.34 2508.3 1199.43 2507.94 1198.52 2507.43 1197.74 2506.79 1197.09 2506.14 1196.45 2505.37 1195.97 2504.46 1195.66 2503.56 1195.35 2502.56 1195.2 2501.47 1195.2ZM2501.56 1192.31C2503.88 1192.31 2505.88 1192.55 2507.56 1193.03 2509.24 1193.5 2510.62 1194.16 2511.7 1195.01 2512.78 1195.85 2513.59 1196.86 2514.11 1198.03 2514.64 1199.2 2514.9 1200.5 2514.9 1201.93 2514.9 1203.96 2514.35 1205.69 2513.23 1207.11 2512.12 1208.54 2510.43 1209.78 2508.17 1210.81 2508.17 1210.87 2508.18 1210.95 2508.19 1211.05 2508.2 1211.15 2508.2 1211.23 2508.2 1211.28 2510.54 1212.12 2512.29 1213.34 2513.44 1214.95 2514.59 1216.56 2515.17 1218.4 2515.17 1220.49 2515.17 1222.14 2514.84 1223.64 2514.19 1225 2513.53 1226.36 2512.59 1227.53 2511.36 1228.52 2510.13 1229.5 2508.65 1230.25 2506.92 1230.78 2505.19 1231.31 2503.25 1231.57 2501.08 1231.57 2499.06 1231.57 2497.21 1231.33 2495.56 1230.85 2493.9 1230.38 2492.48 1229.68 2491.3 1228.77 2490.12 1227.86 2489.2 1226.74 2488.56 1225.42 2487.91 1224.1 2487.59 1222.61 2487.59 1220.97 2487.59 1219.77 2487.75 1218.72 2488.08 1217.79 2488.41 1216.87 2488.87 1216.04 2489.47 1215.31 2490.06 1214.57 2490.79 1213.92 2491.66 1213.34 2492.52 1212.76 2493.49 1212.21 2494.56 1211.67L2494.56 1211.28C2492.34 1210.33 2490.7 1209.12 2489.66 1207.64 2488.62 1206.16 2488.1 1204.39 2488.1 1202.35 2488.06 1200.86 2488.38 1199.49 2489.08 1198.25 2489.77 1197.01 2490.73 1195.96 2491.95 1195.08 2493.17 1194.21 2494.62 1193.53 2496.29 1193.04 2497.95 1192.56 2499.71 1192.31 2501.56 1192.31Z" fill-rule="evenodd"/><text fill="#000000" fill-opacity="0" font-family="Arial,Arial_MSFontService,sans-serif" font-size="39.2568" x="2487.59" y="1226.66">8</text><path d="M2461.92 1118.73C2460.05 1118.73 2458.49 1119.28 2457.24 1120.39 2455.98 1121.5 2454.97 1123.09 2454.2 1125.17 2453.43 1127.26 2452.88 1129.79 2452.56 1132.77 2452.23 1135.76 2452.07 1139.13 2452.07 1142.89 2452.07 1151.69 2452.89 1158.16 2454.52 1162.28 2456.16 1166.4 2458.69 1168.46 2462.12 1168.46 2465.39 1168.46 2467.82 1166.52 2469.4 1162.64 2470.98 1158.77 2471.77 1152.76 2471.77 1144.63 2471.77 1138.41 2471.36 1133.38 2470.55 1129.53 2469.74 1125.68 2468.61 1122.92 2467.17 1121.24 2465.72 1119.57 2463.97 1118.73 2461.92 1118.73ZM2462.12 1115.29C2468.04 1115.29 2472.44 1117.57 2475.33 1122.14 2478.22 1126.7 2479.67 1133.6 2479.67 1142.84 2479.67 1152.41 2478.12 1159.64 2475.03 1164.55 2471.94 1169.45 2467.42 1171.9 2461.47 1171.9 2455.64 1171.9 2451.29 1169.61 2448.44 1165.01 2445.59 1160.42 2444.17 1153.45 2444.17 1144.1 2444.17 1139.13 2444.61 1134.83 2445.48 1131.21 2446.36 1127.59 2447.59 1124.6 2449.17 1122.24 2450.75 1119.87 2452.65 1118.12 2454.87 1116.99 2457.08 1115.85 2459.5 1115.29 2462.12 1115.29ZM2419.12 1115.29 2421.35 1115.29C2421.19 1117.88 2421.11 1121.47 2421.11 1126.07L2421.11 1160.68C2421.11 1162.24 2421.19 1163.43 2421.37 1164.22 2421.55 1165.02 2421.86 1165.67 2422.3 1166.17 2422.75 1166.67 2423.39 1167.06 2424.23 1167.34 2425.06 1167.63 2426.12 1167.84 2427.39 1167.99 2428.66 1168.14 2430.33 1168.24 2432.41 1168.3L2432.41 1171.25 2402.46 1171.25 2402.46 1168.3C2405.46 1168.16 2407.6 1167.98 2408.89 1167.75 2410.17 1167.52 2411.15 1167.17 2411.83 1166.72 2412.5 1166.26 2412.99 1165.61 2413.3 1164.77 2413.62 1163.93 2413.77 1162.57 2413.77 1160.68L2413.77 1127.81C2413.77 1126.73 2413.58 1125.94 2413.2 1125.44 2412.83 1124.94 2412.27 1124.69 2411.54 1124.69 2410.68 1124.69 2409.45 1125.13 2407.85 1126.03 2406.26 1126.92 2404.29 1128.15 2401.94 1129.71L2400.15 1126.59Z" fill-rule="evenodd"/><text fill="#000000" fill-opacity="0" font-family="Arial,Arial_MSFontService,sans-serif" font-size="56.6167" x="2400.15" y="1164.83">10</text><path d="M2501.85 1105.37C2500.48 1105.37 2499.3 1105.59 2498.29 1106.02 2497.29 1106.46 2496.46 1107.08 2495.79 1107.87 2495.13 1108.66 2494.63 1109.63 2494.3 1110.77 2493.97 1111.92 2493.81 1113.19 2493.81 1114.6 2493.81 1117.2 2494.39 1119.21 2495.54 1120.63 2496.69 1122.05 2498.43 1122.76 2500.75 1122.76 2502.08 1122.76 2503.33 1122.59 2504.49 1122.24 2505.65 1121.89 2506.7 1121.42 2507.63 1120.83 2508.03 1120.57 2508.33 1120.32 2508.55 1120.1 2508.77 1119.87 2508.95 1119.62 2509.09 1119.35 2509.23 1119.08 2509.31 1118.74 2509.34 1118.32 2509.37 1117.91 2509.39 1117.35 2509.39 1116.66 2509.39 1115.07 2509.25 1113.58 2508.99 1112.2 2508.72 1110.82 2508.28 1109.63 2507.67 1108.63 2507.07 1107.63 2506.28 1106.83 2505.32 1106.25 2504.36 1105.66 2503.2 1105.37 2501.85 1105.37ZM2502.24 1102.48C2504.38 1102.48 2506.27 1102.83 2507.9 1103.54 2509.53 1104.24 2510.9 1105.26 2512.01 1106.6 2513.12 1107.94 2513.96 1109.6 2514.54 1111.58 2515.12 1113.55 2515.4 1115.82 2515.4 1118.38 2515.4 1121.78 2514.94 1124.87 2514.02 1127.65 2513.1 1130.43 2511.78 1132.81 2510.06 1134.81 2508.34 1136.81 2506.27 1138.39 2503.86 1139.56 2501.45 1140.73 2498.77 1141.41 2495.84 1141.59L2494.49 1140.07 2494.49 1138.25C2496.78 1138.25 2498.78 1137.87 2500.5 1137.12 2502.21 1136.36 2503.68 1135.32 2504.9 1133.99 2506.13 1132.66 2507.08 1131.08 2507.78 1129.26 2508.47 1127.43 2508.91 1125.42 2509.09 1123.24L2508.82 1123.09C2507.13 1124.14 2505.49 1124.93 2503.89 1125.46 2502.29 1125.98 2500.54 1126.25 2498.64 1126.25 2496.89 1126.25 2495.34 1125.99 2494 1125.47 2492.66 1124.96 2491.54 1124.22 2490.62 1123.25 2489.71 1122.29 2489.02 1121.12 2488.55 1119.75 2488.09 1118.38 2487.85 1116.81 2487.85 1115.05 2487.85 1113.34 2488.16 1111.73 2488.76 1110.21 2489.37 1108.69 2490.28 1107.36 2491.49 1106.22 2492.7 1105.07 2494.21 1104.17 2496.01 1103.49 2497.82 1102.82 2499.9 1102.48 2502.24 1102.48Z" fill-rule="evenodd"/><text fill="#000000" fill-opacity="0" font-family="Arial,Arial_MSFontService,sans-serif" font-size="39.1079" x="2487.85" y="1136.7">9</text><path d="M2444.47 1032.56C2442.6 1032.56 2441.04 1033.12 2439.79 1034.23 2438.53 1035.33 2437.52 1036.93 2436.75 1039.01 2435.98 1041.09 2435.43 1043.62 2435.11 1046.61 2434.78 1049.59 2434.62 1052.96 2434.62 1056.72 2434.62 1065.53 2435.44 1071.99 2437.07 1076.11 2438.71 1080.23 2441.24 1082.29 2444.67 1082.29 2447.94 1082.29 2450.36 1080.35 2451.95 1076.48 2453.53 1072.6 2454.32 1066.59 2454.32 1058.46 2454.32 1052.25 2453.91 1047.21 2453.1 1043.36 2452.29 1039.51 2451.16 1036.75 2449.72 1035.08 2448.27 1033.4 2446.52 1032.56 2444.47 1032.56ZM2444.67 1029.12C2450.59 1029.12 2454.99 1031.4 2457.88 1035.97 2460.77 1040.53 2462.22 1047.44 2462.22 1056.68 2462.22 1066.24 2460.67 1073.48 2457.58 1078.38 2454.48 1083.28 2449.97 1085.74 2444.02 1085.74 2438.19 1085.74 2433.84 1083.44 2430.99 1078.85 2428.14 1074.25 2426.72 1067.28 2426.72 1057.93 2426.72 1052.96 2427.16 1048.67 2428.03 1045.05 2428.91 1041.43 2430.14 1038.43 2431.72 1036.07 2433.3 1033.71 2435.2 1031.96 2437.42 1030.82 2439.63 1029.69 2442.05 1029.12 2444.67 1029.12ZM2401.67 1029.12 2403.9 1029.12C2403.74 1031.71 2403.66 1035.31 2403.66 1039.9L2403.66 1074.51C2403.66 1076.08 2403.74 1077.26 2403.92 1078.06 2404.09 1078.85 2404.41 1079.5 2404.85 1080 2405.3 1080.5 2405.94 1080.89 2406.78 1081.18 2407.61 1081.46 2408.67 1081.68 2409.94 1081.83 2411.21 1081.97 2412.88 1082.08 2414.96 1082.13L2414.96 1085.09 2385.01 1085.09 2385.01 1082.13C2388.01 1081.99 2390.15 1081.81 2391.44 1081.58 2392.72 1081.35 2393.7 1081.01 2394.37 1080.55 2395.05 1080.09 2395.54 1079.44 2395.85 1078.6 2396.16 1077.77 2396.32 1076.4 2396.32 1074.51L2396.32 1041.64C2396.32 1040.56 2396.13 1039.77 2395.75 1039.27 2395.37 1038.77 2394.82 1038.52 2394.09 1038.52 2393.23 1038.52 2392 1038.97 2390.4 1039.86 2388.81 1040.75 2386.84 1041.98 2384.49 1043.55L2382.7 1040.43Z" fill-rule="evenodd"/><text fill="#000000" fill-opacity="0" font-family="Arial,Arial_MSFontService,sans-serif" font-size="56.6167" x="2382.7" y="1078.66">10</text><path d="M2518.05 1019.2C2516.66 1019.2 2515.5 1019.56 2514.57 1020.29 2513.64 1021.01 2512.9 1022.08 2512.35 1023.48 2511.8 1024.88 2511.42 1026.58 2511.19 1028.6 2510.96 1030.61 2510.85 1032.9 2510.85 1035.46 2510.85 1038.42 2510.99 1040.98 2511.28 1043.13 2511.56 1045.29 2512.01 1047.06 2512.62 1048.45 2513.22 1049.84 2513.98 1050.86 2514.9 1051.52 2515.81 1052.17 2516.9 1052.5 2518.17 1052.5 2519.36 1052.5 2520.41 1052.19 2521.3 1051.58 2522.19 1050.96 2522.93 1050 2523.52 1048.7 2524.1 1047.4 2524.55 1045.75 2524.84 1043.76 2525.14 1041.76 2525.29 1039.41 2525.29 1036.68 2525.29 1033.63 2525.13 1031 2524.8 1028.79 2524.47 1026.59 2524.01 1024.78 2523.41 1023.36 2522.82 1021.94 2522.07 1020.89 2521.17 1020.21 2520.26 1019.54 2519.22 1019.2 2518.05 1019.2ZM2485.5 1016.52 2487.31 1016.52C2487.27 1017.61 2487.24 1018.59 2487.22 1019.45 2487.2 1020.32 2487.19 1021.16 2487.18 1021.97 2487.17 1022.79 2487.16 1023.59 2487.16 1024.38L2487.16 1047.02C2487.16 1047.64 2487.18 1048.17 2487.22 1048.61 2487.26 1049.06 2487.33 1049.44 2487.42 1049.75 2487.51 1050.05 2487.63 1050.32 2487.77 1050.53 2487.92 1050.75 2488.1 1050.94 2488.3 1051.1 2488.53 1051.34 2488.85 1051.52 2489.25 1051.65 2489.65 1051.78 2490.15 1051.89 2490.77 1051.98 2491.38 1052.07 2492.12 1052.14 2492.99 1052.19 2493.85 1052.24 2494.89 1052.27 2496.1 1052.29L2496.1 1054.88 2472.48 1054.88 2472.48 1052.29C2473.65 1052.25 2474.64 1052.21 2475.46 1052.16 2476.27 1052.11 2476.97 1052.04 2477.54 1051.95 2478.12 1051.86 2478.58 1051.76 2478.93 1051.65 2479.28 1051.54 2479.58 1051.41 2479.84 1051.25 2480.11 1051.07 2480.35 1050.88 2480.55 1050.67 2480.75 1050.46 2480.91 1050.2 2481.03 1049.88 2481.15 1049.56 2481.24 1049.17 2481.31 1048.72 2481.38 1048.26 2481.42 1047.7 2481.42 1047.02L2481.42 1025.66C2481.42 1024.89 2481.27 1024.34 2480.97 1024.03 2480.67 1023.71 2480.24 1023.55 2479.69 1023.55 2479.07 1023.55 2478.16 1023.87 2476.95 1024.5 2475.74 1025.14 2474.17 1026.08 2472.24 1027.33 2471.98 1026.88 2471.74 1026.42 2471.53 1025.96 2471.31 1025.51 2471.08 1025.04 2470.84 1024.56 2473.3 1023.21 2475.74 1021.87 2478.15 1020.53 2480.57 1019.19 2483.01 1017.85 2485.5 1016.52ZM2518.17 1016.31C2520.54 1016.31 2522.56 1016.75 2524.23 1017.64 2525.91 1018.52 2527.28 1019.78 2528.34 1021.42 2529.41 1023.06 2530.19 1025.06 2530.68 1027.42 2531.18 1029.78 2531.43 1032.46 2531.43 1035.43 2531.43 1042.05 2530.26 1047.05 2527.91 1050.43 2525.57 1053.82 2522.17 1055.51 2517.73 1055.51 2513.32 1055.51 2510.04 1053.91 2507.9 1050.71 2505.75 1047.52 2504.68 1042.67 2504.68 1036.18 2504.68 1032.78 2505.01 1029.84 2505.68 1027.36 2506.34 1024.88 2507.28 1022.82 2508.48 1021.18 2509.68 1019.54 2511.1 1018.32 2512.75 1017.52 2514.4 1016.71 2516.21 1016.31 2518.17 1016.31Z" fill-rule="evenodd"/><text fill="#000000" fill-opacity="0" font-family="Arial,Arial_MSFontService,sans-serif" font-size="39.1973" x="2470.84" y="1050.61">10</text><path d="M2444.47 942.731C2442.6 942.731 2441.04 943.285 2439.79 944.393 2438.53 945.5 2437.52 947.094 2436.75 949.175 2435.98 951.255 2435.43 953.788 2435.11 956.774 2434.78 959.759 2434.62 963.13 2434.62 966.885 2434.62 975.693 2435.44 982.157 2437.07 986.278 2438.71 990.398 2441.24 992.458 2444.67 992.458 2447.94 992.458 2450.36 990.519 2451.95 986.642 2453.53 982.765 2454.32 976.76 2454.32 968.628 2454.32 962.414 2453.91 957.382 2453.1 953.531 2452.29 949.681 2451.16 946.919 2449.72 945.244 2448.27 943.568 2446.52 942.731 2444.47 942.731ZM2444.67 939.286C2450.59 939.286 2454.99 941.569 2457.88 946.135 2460.77 950.701 2462.22 957.604 2462.22 966.845 2462.22 976.409 2460.67 983.643 2457.58 988.547 2454.48 993.451 2449.97 995.903 2444.02 995.903 2438.19 995.903 2433.84 993.606 2430.99 989.013 2428.14 984.42 2426.72 977.449 2426.72 968.101 2426.72 963.13 2427.16 958.834 2428.03 955.213 2428.91 951.593 2430.14 948.601 2431.72 946.237 2433.3 943.872 2435.2 942.123 2437.42 940.988 2439.63 939.853 2442.05 939.286 2444.67 939.286ZM2401.67 939.286 2403.9 939.286C2403.74 941.88 2403.66 945.473 2403.66 950.066L2403.66 984.677C2403.66 986.244 2403.74 987.426 2403.92 988.223 2404.09 989.02 2404.41 989.668 2404.85 990.168 2405.3 990.668 2405.94 991.06 2406.78 991.343 2407.61 991.627 2408.67 991.843 2409.94 991.992 2411.21 992.141 2412.88 992.242 2414.96 992.296L2414.96 995.254 2385.01 995.254 2385.01 992.296C2388.01 992.161 2390.15 991.978 2391.44 991.749 2392.72 991.519 2393.7 991.175 2394.37 990.715 2395.05 990.256 2395.54 989.608 2395.85 988.77 2396.16 987.932 2396.32 986.568 2396.32 984.677L2396.32 951.809C2396.32 950.728 2396.13 949.938 2395.75 949.438 2395.37 948.938 2394.82 948.688 2394.09 948.688 2393.23 948.688 2392 949.134 2390.4 950.026 2388.81 950.917 2386.84 952.147 2384.49 953.714L2382.7 950.593Z" fill-rule="evenodd"/><text fill="#000000" fill-opacity="0" font-family="Arial,Arial_MSFontService,sans-serif" font-size="56.6167" x="2382.7" y="988.826">10</text><path d="M2520.5 926.687 2522.31 926.687C2522.27 927.779 2522.24 928.757 2522.22 929.621 2522.2 930.484 2522.19 931.323 2522.18 932.138 2522.17 932.952 2522.16 933.756 2522.16 934.55L2522.16 957.187C2522.16 957.802 2522.18 958.334 2522.22 958.78 2522.26 959.227 2522.33 959.604 2522.42 959.912 2522.51 960.22 2522.63 960.483 2522.77 960.702 2522.92 960.92 2523.1 961.109 2523.3 961.267 2523.53 961.506 2523.85 961.689 2524.25 961.818 2524.65 961.948 2525.15 962.057 2525.77 962.146 2526.38 962.235 2527.12 962.305 2527.99 962.355 2528.85 962.404 2529.89 962.439 2531.1 962.459L2531.1 965.05 2507.48 965.05 2507.48 962.459C2508.65 962.419 2509.64 962.374 2510.46 962.325 2511.27 962.275 2511.97 962.206 2512.54 962.116 2513.12 962.027 2513.58 961.928 2513.93 961.818 2514.28 961.709 2514.58 961.575 2514.84 961.416 2515.11 961.238 2515.35 961.044 2515.55 960.836 2515.75 960.627 2515.91 960.364 2516.03 960.046 2516.15 959.729 2516.24 959.341 2516.31 958.885 2516.38 958.428 2516.42 957.862 2516.42 957.187L2516.42 935.831C2516.42 935.057 2516.27 934.51 2515.97 934.193 2515.67 933.875 2515.24 933.716 2514.69 933.716 2514.07 933.716 2513.16 934.034 2511.95 934.669 2510.74 935.305 2509.17 936.248 2507.24 937.499 2506.98 937.042 2506.74 936.586 2506.53 936.129 2506.31 935.672 2506.08 935.205 2505.84 934.729 2508.3 933.379 2510.74 932.033 2513.15 930.693 2515.57 929.353 2518.01 928.017 2520.5 926.687ZM2485.5 926.687 2487.31 926.687C2487.27 927.779 2487.24 928.757 2487.22 929.621 2487.2 930.484 2487.19 931.323 2487.18 932.138 2487.17 932.952 2487.16 933.756 2487.16 934.55L2487.16 957.187C2487.16 957.802 2487.18 958.334 2487.22 958.78 2487.26 959.227 2487.33 959.604 2487.42 959.912 2487.51 960.22 2487.63 960.483 2487.77 960.702 2487.92 960.92 2488.1 961.109 2488.3 961.267 2488.53 961.506 2488.85 961.689 2489.25 961.818 2489.65 961.948 2490.15 962.057 2490.77 962.146 2491.38 962.235 2492.12 962.305 2492.99 962.355 2493.85 962.404 2494.89 962.439 2496.1 962.459L2496.1 965.05 2472.48 965.05 2472.48 962.459C2473.65 962.419 2474.64 962.374 2475.46 962.325 2476.27 962.275 2476.97 962.206 2477.54 962.116 2478.12 962.027 2478.58 961.928 2478.93 961.818 2479.28 961.709 2479.58 961.575 2479.84 961.416 2480.11 961.238 2480.35 961.044 2480.55 960.836 2480.75 960.627 2480.91 960.364 2481.03 960.046 2481.15 959.729 2481.24 959.341 2481.31 958.885 2481.38 958.428 2481.42 957.862 2481.42 957.187L2481.42 935.831C2481.42 935.057 2481.27 934.51 2480.97 934.193 2480.67 933.875 2480.24 933.716 2479.69 933.716 2479.07 933.716 2478.16 934.034 2476.95 934.669 2475.74 935.305 2474.17 936.248 2472.24 937.499 2471.98 937.042 2471.74 936.586 2471.53 936.129 2471.31 935.672 2471.08 935.205 2470.84 934.729 2473.3 933.379 2475.74 932.033 2478.15 930.693 2480.57 929.353 2483.01 928.017 2485.5 926.687Z" fill-rule="evenodd"/><text fill="#000000" fill-opacity="0" font-family="Arial,Arial_MSFontService,sans-serif" font-size="38.3633" x="2470.84" y="960.255">11</text><path d="M2444.47 858.398C2442.6 858.398 2441.04 858.951 2439.79 860.059 2438.53 861.167 2437.52 862.761 2436.75 864.841 2435.98 866.922 2435.43 869.455 2435.11 872.44 2434.78 875.426 2434.62 878.796 2434.62 882.552 2434.62 891.36 2435.44 897.824 2437.07 901.944 2438.71 906.065 2441.24 908.125 2444.67 908.125 2447.94 908.125 2450.36 906.186 2451.95 902.309 2453.53 898.432 2454.32 892.427 2454.32 884.295 2454.32 878.08 2453.91 873.048 2453.1 869.198 2452.29 865.348 2451.16 862.585 2449.72 860.91 2448.27 859.235 2446.52 858.398 2444.47 858.398ZM2444.67 854.953C2450.59 854.953 2454.99 857.236 2457.88 861.802 2460.77 866.368 2462.22 873.271 2462.22 882.511 2462.22 892.076 2460.67 899.31 2457.58 904.214 2454.48 909.118 2449.97 911.569 2444.02 911.569 2438.19 911.569 2433.84 909.273 2430.99 904.68 2428.14 900.087 2426.72 893.116 2426.72 883.768 2426.72 878.796 2427.16 874.5 2428.03 870.88 2428.91 867.26 2430.14 864.267 2431.72 861.903 2433.3 859.539 2435.2 857.79 2437.42 856.655 2439.63 855.52 2442.05 854.953 2444.67 854.953ZM2401.67 854.953 2403.9 854.953C2403.74 857.547 2403.66 861.14 2403.66 865.733L2403.66 900.343C2403.66 901.91 2403.74 903.092 2403.92 903.89 2404.09 904.687 2404.41 905.335 2404.85 905.835 2405.3 906.335 2405.94 906.726 2406.78 907.01 2407.61 907.294 2408.67 907.51 2409.94 907.659 2411.21 907.807 2412.88 907.909 2414.96 907.963L2414.96 910.921 2385.01 910.921 2385.01 907.963C2388.01 907.827 2390.15 907.645 2391.44 907.415 2392.72 907.186 2393.7 906.841 2394.37 906.382 2395.05 905.923 2395.54 905.274 2395.85 904.437 2396.16 903.599 2396.32 902.235 2396.32 900.343L2396.32 867.476C2396.32 866.395 2396.13 865.605 2395.75 865.105 2395.37 864.605 2394.82 864.355 2394.09 864.355 2393.23 864.355 2392 864.801 2390.4 865.693 2388.81 866.584 2386.84 867.813 2384.49 869.38L2382.7 866.26Z" fill-rule="evenodd"/><text fill="#000000" fill-opacity="0" font-family="Arial,Arial_MSFontService,sans-serif" font-size="56.6167" x="2382.7" y="904.492">10</text><path d="M2485.5 842.354 2487.31 842.354C2487.27 843.446 2487.24 844.424 2487.22 845.287 2487.2 846.151 2487.19 846.99 2487.18 847.804 2487.17 848.618 2487.16 849.423 2487.16 850.217L2487.16 872.854C2487.16 873.469 2487.18 874 2487.22 874.447 2487.26 874.894 2487.33 875.271 2487.42 875.579 2487.51 875.887 2487.63 876.15 2487.77 876.368 2487.92 876.587 2488.1 876.775 2488.3 876.934 2488.53 877.172 2488.85 877.356 2489.25 877.485 2489.65 877.614 2490.15 877.723 2490.77 877.813 2491.38 877.902 2492.12 877.972 2492.99 878.021 2493.85 878.071 2494.89 878.106 2496.1 878.126L2496.1 880.717 2472.48 880.717 2472.48 878.126C2473.65 878.086 2474.64 878.041 2475.46 877.992 2476.27 877.942 2476.97 877.872 2477.54 877.783 2478.12 877.694 2478.58 877.594 2478.93 877.485 2479.28 877.376 2479.58 877.242 2479.84 877.083 2480.11 876.904 2480.35 876.711 2480.55 876.502 2480.75 876.294 2480.91 876.031 2481.03 875.713 2481.15 875.395 2481.24 875.008 2481.31 874.551 2481.38 874.095 2481.42 873.529 2481.42 872.854L2481.42 851.498C2481.42 850.723 2481.27 850.177 2480.97 849.859 2480.67 849.542 2480.24 849.383 2479.69 849.383 2479.07 849.383 2478.16 849.701 2476.95 850.336 2475.74 850.971 2474.17 851.915 2472.24 853.166 2471.98 852.709 2471.74 852.252 2471.53 851.795 2471.31 851.339 2471.08 850.872 2470.84 850.396 2473.3 849.045 2475.74 847.7 2478.15 846.36 2480.57 845.019 2483.01 843.684 2485.5 842.354ZM2518.17 842.145C2520.24 842.145 2522 842.378 2523.46 842.845 2524.92 843.312 2526.11 843.942 2527.02 844.736 2527.93 845.531 2528.59 846.484 2529 847.596 2529.41 848.708 2529.61 849.909 2529.61 851.2 2529.61 851.974 2529.56 852.694 2529.45 853.359 2529.34 854.024 2529.15 854.68 2528.88 855.325 2528.61 855.97 2528.26 856.621 2527.82 857.276 2527.39 857.931 2526.84 858.626 2526.18 859.361 2525.69 859.996 2525.04 860.731 2524.25 861.565 2523.45 862.399 2522.59 863.293 2521.64 864.246 2520.7 865.199 2519.71 866.192 2518.68 867.224 2517.65 868.257 2516.64 869.279 2515.67 870.292 2514.7 871.305 2513.8 872.288 2512.99 873.241 2512.18 874.194 2511.51 875.068 2510.99 875.862L2522.01 875.862C2522.95 875.862 2523.69 875.827 2524.25 875.758 2524.8 875.688 2525.27 875.534 2525.63 875.296 2526 875.058 2526.31 874.695 2526.57 874.209 2526.83 873.722 2527.13 873.052 2527.47 872.198L2530.24 872.198C2530.14 873.608 2530.04 875.028 2529.95 876.458 2529.86 877.887 2529.77 879.307 2529.67 880.717L2504.44 880.717 2504.44 879.168C2504.92 878.096 2505.47 877.038 2506.11 875.996 2506.74 874.953 2507.46 873.896 2508.25 872.824 2509.05 871.752 2509.95 870.645 2510.96 869.503 2511.98 868.361 2513.1 867.175 2514.33 865.943 2516.2 864.077 2517.72 862.483 2518.89 861.163 2520.06 859.842 2520.98 858.666 2521.66 857.633 2522.33 856.601 2522.79 855.648 2523.04 854.774 2523.29 853.9 2523.41 852.967 2523.41 851.974 2523.41 850.961 2523.27 850.028 2522.98 849.174 2522.69 848.321 2522.28 847.596 2521.75 847 2521.21 846.404 2520.53 845.938 2519.71 845.6 2518.88 845.263 2517.93 845.094 2516.86 845.094 2515.02 845.094 2513.47 845.595 2512.22 846.598 2510.96 847.601 2509.99 849.055 2509.3 850.961L2505.39 850.961 2505.39 845.153C2507.94 844.101 2510.27 843.336 2512.41 842.86 2514.54 842.383 2516.46 842.145 2518.17 842.145Z" fill-rule="evenodd"/><text fill="#000000" fill-opacity="0" font-family="Arial,Arial_MSFontService,sans-serif" font-size="38.5718" x="2470.84" y="875.895">12</text><path d="M2444.47 768.564C2442.6 768.564 2441.04 769.118 2439.79 770.226 2438.53 771.334 2437.52 772.928 2436.75 775.008 2435.98 777.089 2435.43 779.621 2435.11 782.607 2434.78 785.593 2434.62 788.963 2434.62 792.719 2434.62 801.526 2435.44 807.991 2437.07 812.111 2438.71 816.231 2441.24 818.291 2444.67 818.291 2447.94 818.291 2450.36 816.353 2451.95 812.476 2453.53 808.599 2454.32 802.594 2454.32 794.461 2454.32 788.247 2453.91 783.215 2453.1 779.365 2452.29 775.515 2451.16 772.752 2449.72 771.077 2448.27 769.402 2446.52 768.564 2444.47 768.564ZM2444.67 765.119C2450.59 765.119 2454.99 767.402 2457.88 771.969 2460.77 776.535 2462.22 783.438 2462.22 792.678 2462.22 802.242 2460.67 809.477 2457.58 814.38 2454.48 819.284 2449.97 821.736 2444.02 821.736 2438.19 821.736 2433.84 819.44 2430.99 814.846 2428.14 810.253 2426.72 803.283 2426.72 793.934 2426.72 788.963 2427.16 784.667 2428.03 781.047 2428.91 777.426 2430.14 774.434 2431.72 772.07 2433.3 769.706 2435.2 767.956 2437.42 766.822 2439.63 765.687 2442.05 765.119 2444.67 765.119ZM2401.67 765.119 2403.9 765.119C2403.74 767.713 2403.66 771.307 2403.66 775.9L2403.66 810.51C2403.66 812.077 2403.74 813.259 2403.92 814.056 2404.09 814.853 2404.41 815.502 2404.85 816.002 2405.3 816.501 2405.94 816.893 2406.78 817.177 2407.61 817.461 2408.67 817.677 2409.94 817.825 2411.21 817.974 2412.88 818.075 2414.96 818.129L2414.96 821.088 2385.01 821.088 2385.01 818.129C2388.01 817.994 2390.15 817.812 2391.44 817.582 2392.72 817.352 2393.7 817.008 2394.37 816.549 2395.05 816.089 2395.54 815.441 2395.85 814.603 2396.16 813.766 2396.32 812.401 2396.32 810.51L2396.32 777.642C2396.32 776.562 2396.13 775.771 2395.75 775.272 2395.37 774.772 2394.82 774.522 2394.09 774.522 2393.23 774.522 2392 774.968 2390.4 775.859 2388.81 776.751 2386.84 777.98 2384.49 779.547L2382.7 776.427Z" fill-rule="evenodd"/><text fill="#000000" fill-opacity="0" font-family="Arial,Arial_MSFontService,sans-serif" font-size="56.6167" x="2382.7" y="814.659">10</text><path d="M2485.5 752.52 2487.31 752.52C2487.27 753.612 2487.24 754.59 2487.22 755.454 2487.2 756.318 2487.19 757.157 2487.18 757.971 2487.17 758.785 2487.16 759.589 2487.16 760.384L2487.16 783.02C2487.16 783.636 2487.18 784.167 2487.22 784.614 2487.26 785.061 2487.33 785.438 2487.42 785.746 2487.51 786.053 2487.63 786.316 2487.77 786.535 2487.92 786.753 2488.1 786.942 2488.3 787.101 2488.53 787.339 2488.85 787.523 2489.25 787.652 2489.65 787.781 2490.15 787.89 2490.77 787.979 2491.38 788.069 2492.12 788.138 2492.99 788.188 2493.85 788.238 2494.89 788.272 2496.1 788.292L2496.1 790.884 2472.48 790.884 2472.48 788.292C2473.65 788.253 2474.64 788.208 2475.46 788.158 2476.27 788.109 2476.97 788.039 2477.54 787.95 2478.12 787.86 2478.58 787.761 2478.93 787.652 2479.28 787.543 2479.58 787.409 2479.84 787.25 2480.11 787.071 2480.35 786.877 2480.55 786.669 2480.75 786.46 2480.91 786.197 2481.03 785.88 2481.15 785.562 2481.24 785.175 2481.31 784.718 2481.38 784.261 2481.42 783.695 2481.42 783.02L2481.42 761.664C2481.42 760.89 2481.27 760.344 2480.97 760.026 2480.67 759.708 2480.24 759.55 2479.69 759.55 2479.07 759.55 2478.16 759.867 2476.95 760.503 2475.74 761.138 2474.17 762.081 2472.24 763.332 2471.98 762.876 2471.74 762.419 2471.53 761.962 2471.31 761.505 2471.08 761.039 2470.84 760.562 2473.3 759.212 2475.74 757.867 2478.15 756.526 2480.57 755.186 2483.01 753.851 2485.5 752.52ZM2518.11 752.312C2519.7 752.312 2521.19 752.481 2522.57 752.818 2523.95 753.156 2525.14 753.667 2526.15 754.352 2527.17 755.037 2527.96 755.891 2528.52 756.914 2529.09 757.936 2529.37 759.123 2529.37 760.473 2529.37 761.744 2529.19 762.866 2528.84 763.839 2528.48 764.812 2527.93 765.695 2527.18 766.49 2526.44 767.284 2525.52 768.004 2524.44 768.649 2523.36 769.294 2522.11 769.915 2520.7 770.51L2520.7 770.868C2522.03 771.106 2523.28 771.488 2524.43 772.015 2525.58 772.541 2526.59 773.206 2527.45 774.01 2528.31 774.814 2528.99 775.743 2529.49 776.795 2529.99 777.848 2530.24 779.009 2530.24 780.28 2530.24 781.869 2529.94 783.343 2529.34 784.703 2528.75 786.063 2527.85 787.24 2526.66 788.233 2525.47 789.226 2524 790 2522.25 790.556 2520.51 791.112 2518.46 791.39 2516.12 791.39 2514.27 791.39 2512.39 791.206 2510.49 790.839 2508.58 790.471 2506.77 789.99 2505.07 789.394L2505.07 782.961 2508.91 782.961C2509.23 783.954 2509.6 784.802 2510.04 785.507 2510.48 786.212 2510.99 786.788 2511.57 787.235 2512.16 787.682 2512.84 788.004 2513.6 788.203 2514.36 788.401 2515.23 788.501 2516.21 788.501 2518.77 788.501 2520.71 787.89 2522.03 786.669 2523.35 785.448 2524.01 783.596 2524.01 781.114 2524.01 778.473 2523.14 776.472 2521.4 775.112 2519.67 773.752 2517.09 773.072 2513.67 773.072L2511.05 773.072 2511.05 770.213C2513.14 770.113 2514.94 769.82 2516.46 769.334 2517.98 768.847 2519.24 768.217 2520.26 767.443 2521.27 766.668 2522.02 765.765 2522.52 764.732 2523.02 763.7 2523.27 762.598 2523.27 761.426 2523.27 759.52 2522.7 758.016 2521.57 756.914 2520.44 755.812 2518.8 755.26 2516.65 755.26 2514.85 755.26 2513.33 755.757 2512.11 756.75 2510.89 757.743 2509.95 759.222 2509.3 761.188L2505.51 761.188 2505.51 755.32C2507.86 754.327 2510.07 753.578 2512.14 753.071 2514.22 752.565 2516.21 752.312 2518.11 752.312Z" fill-rule="evenodd"/><text fill="#000000" fill-opacity="0" font-family="Arial,Arial_MSFontService,sans-serif" font-size="39.0781" x="2470.84" y="786.505">13</text><rect x="2560.5" y="812.5" width="321" height="144" stroke="#000000" stroke-width="3.4375" stroke-linejoin="round" stroke-miterlimit="10" fill="#FFFFFF"/><text font-family="Times New Roman,Times New Roman_MSFontService,sans-serif" font-weight="700" font-size="92" transform="matrix(1 0 0 1 2595.56 917)">IMDB<tspan font-weight="400" font-size="83" x="-555.429" y="361">1</tspan><tspan font-weight="400" font-size="83" x="-514.179" y="361">0</tspan><tspan font-weight="400" font-size="83" x="-372.095" y="361">12</tspan></text></g></svg>