<svg width="2919" height="2592" xmlns="http://www.w3.org/2000/svg" xmlns:xlink="http://www.w3.org/1999/xlink" overflow="hidden"><defs><clipPath id="clip0"><rect x="893" y="207" width="2919" height="2592"/></clipPath><clipPath id="clip1"><rect x="1132" y="499" width="1190" height="788"/></clipPath><clipPath id="clip2"><rect x="1132" y="499" width="1190" height="788"/></clipPath><clipPath id="clip3"><rect x="1172" y="536" width="1118" height="720"/></clipPath><clipPath id="clip4"><rect x="1132" y="499" width="1190" height="788"/></clipPath><clipPath id="clip5"><rect x="1172" y="536" width="1118" height="720"/></clipPath><clipPath id="clip6"><rect x="1132" y="499" width="1190" height="788"/></clipPath><clipPath id="clip7"><rect x="1172" y="536" width="1118" height="720"/></clipPath><clipPath id="clip8"><rect x="1132" y="499" width="1190" height="788"/></clipPath><clipPath id="clip9"><rect x="2511" y="499" width="1196" height="779"/></clipPath><clipPath id="clip10"><rect x="2511" y="499" width="1196" height="779"/></clipPath><clipPath id="clip11"><rect x="2555" y="535" width="1120" height="724"/></clipPath><clipPath id="clip12"><rect x="2511" y="499" width="1196" height="779"/></clipPath><clipPath id="clip13"><rect x="2555" y="535" width="1120" height="724"/></clipPath><clipPath id="clip14"><rect x="2511" y="499" width="1196" height="779"/></clipPath><clipPath id="clip15"><rect x="2555" y="535" width="1120" height="724"/></clipPath><clipPath id="clip16"><rect x="2511" y="499" width="1196" height="779"/></clipPath><clipPath id="clip17"><rect x="1134" y="1583" width="1190" height="787"/></clipPath><clipPath id="clip18"><rect x="1134" y="1583" width="1190" height="787"/></clipPath><clipPath id="clip19"><rect x="1172" y="1623" width="1124" height="716"/></clipPath><clipPath id="clip20"><rect x="1134" y="1583" width="1190" height="787"/></clipPath><clipPath id="clip21"><rect x="1172" y="1623" width="1124" height="716"/></clipPath><clipPath id="clip22"><rect x="1134" y="1583" width="1190" height="787"/></clipPath><clipPath id="clip23"><rect x="1172" y="1623" width="1124" height="716"/></clipPath><clipPath id="clip24"><rect x="1134" y="1583" width="1190" height="787"/></clipPath><clipPath id="clip25"><rect x="2525" y="1584" width="1190" height="787"/></clipPath><clipPath id="clip26"><rect x="2525" y="1584" width="1190" height="787"/></clipPath><clipPath id="clip27"><rect x="2562" y="1621" width="1125" height="723"/></clipPath><clipPath id="clip28"><rect x="2525" y="1584" width="1190" height="787"/></clipPath><clipPath id="clip29"><rect x="2562" y="1621" width="1125" height="723"/></clipPath><clipPath id="clip30"><rect x="2525" y="1584" width="1190" height="787"/></clipPath><clipPath id="clip31"><rect x="2562" y="1621" width="1125" height="723"/></clipPath><clipPath id="clip32"><rect x="2525" y="1584" width="1190" height="787"/></clipPath></defs><g clip-path="url(#clip0)" transform="translate(-893 -207)"><g clip-path="url(#clip1)"><path d="M1172.5 1252.5 2287.5 1252.5M1172.5 1150.54 2287.5 1150.54M1172.5 1048.53 2287.5 1048.53M1172.5 945.531 2287.5 945.531M1172.5 843.528 2287.5 843.528M1172.5 741.525 2287.5 741.525M1172.5 638.521 2287.5 638.521M1172.5 536.5 2287.5 536.5" stroke="#D9D9D9" stroke-width="3.4375" stroke-linejoin="round" stroke-miterlimit="10" fill="none"/></g><g clip-path="url(#clip2)"><path d="M1172.5 536.5 1172.5 1252.5M1451.55 536.5 1451.55 1252.5M1729.56 536.5 1729.56 1252.5M2008.57 536.5 2008.57 1252.5M2287.5 536.5 2287.5 1252.5" stroke="#D9D9D9" stroke-width="3.4375" stroke-linejoin="round" stroke-miterlimit="10" fill="none"/></g><g clip-path="url(#clip3)"><path d="M1228.5 632.5 1283.54 693.523 1395.55 747.525 1506.55 775.526 1618.55 798.526 1729.56 801.526 1841.56 815.527 1952.56 826.527 2064.57 833.528 2175.57 840.528 2287.5 843.5" stroke="#FF0000" stroke-width="3.4375" stroke-linecap="round" stroke-linejoin="round" stroke-miterlimit="10" fill="none"/></g><g clip-path="url(#clip4)"><path d="M1246.12 632.352C1246.12 642.293 1238.06 650.351 1228.12 650.351 1218.18 650.351 1210.12 642.293 1210.12 632.352 1210.12 622.411 1218.18 614.352 1228.12 614.352 1238.06 614.352 1246.12 622.411 1246.12 632.352Z" stroke="#FF0000" stroke-width="3.4375" stroke-linejoin="round" stroke-miterlimit="10" fill="none"/><path d="M1302.12 693.352C1302.12 703.293 1294.06 711.351 1284.12 711.351 1274.18 711.351 1266.12 703.293 1266.12 693.352 1266.12 683.411 1274.18 675.352 1284.12 675.352 1294.06 675.352 1302.12 683.411 1302.12 693.352Z" stroke="#FF0000" stroke-width="3.4375" stroke-linejoin="round" stroke-miterlimit="10" fill="none"/><path d="M1413.12 747.352C1413.12 757.293 1405.06 765.351 1395.12 765.351 1385.18 765.351 1377.12 757.293 1377.12 747.352 1377.12 737.411 1385.18 729.352 1395.12 729.352 1405.06 729.352 1413.12 737.411 1413.12 747.352Z" stroke="#FF0000" stroke-width="3.4375" stroke-linejoin="round" stroke-miterlimit="10" fill="none"/><path d="M1525.12 775.352C1525.12 785.293 1517.06 793.351 1507.12 793.351 1497.18 793.351 1489.12 785.293 1489.12 775.352 1489.12 765.411 1497.18 757.352 1507.12 757.352 1517.06 757.352 1525.12 765.411 1525.12 775.352Z" stroke="#FF0000" stroke-width="3.4375" stroke-linejoin="round" stroke-miterlimit="10" fill="none"/><path d="M1636.12 798.352C1636.12 808.293 1628.06 816.351 1618.12 816.351 1608.18 816.351 1600.12 808.293 1600.12 798.352 1600.12 788.411 1608.18 780.352 1618.12 780.352 1628.06 780.352 1636.12 788.411 1636.12 798.352Z" stroke="#FF0000" stroke-width="3.4375" stroke-linejoin="round" stroke-miterlimit="10" fill="none"/><path d="M1748.12 801.352C1748.12 811.293 1740.06 819.351 1730.12 819.351 1720.18 819.351 1712.12 811.293 1712.12 801.352 1712.12 791.411 1720.18 783.352 1730.12 783.352 1740.06 783.352 1748.12 791.411 1748.12 801.352Z" stroke="#FF0000" stroke-width="3.4375" stroke-linejoin="round" stroke-miterlimit="10" fill="none"/><path d="M1859.12 815.352C1859.12 825.292 1851.06 833.351 1841.12 833.351 1831.18 833.351 1823.12 825.292 1823.12 815.352 1823.12 805.411 1831.18 797.352 1841.12 797.352 1851.06 797.352 1859.12 805.411 1859.12 815.352Z" stroke="#FF0000" stroke-width="3.4375" stroke-linejoin="round" stroke-miterlimit="10" fill="none"/><path d="M1971.12 826.352C1971.12 836.292 1963.06 844.351 1953.12 844.351 1943.18 844.351 1935.12 836.292 1935.12 826.352 1935.12 816.411 1943.18 808.352 1953.12 808.352 1963.06 808.352 1971.12 816.411 1971.12 826.352Z" stroke="#FF0000" stroke-width="3.4375" stroke-linejoin="round" stroke-miterlimit="10" fill="none"/><path d="M2082.12 833.352C2082.12 843.293 2074.06 851.351 2064.12 851.351 2054.18 851.351 2046.12 843.293 2046.12 833.352 2046.12 823.411 2054.18 815.352 2064.12 815.352 2074.06 815.352 2082.12 823.411 2082.12 833.352Z" stroke="#FF0000" stroke-width="3.4375" stroke-linejoin="round" stroke-miterlimit="10" fill="none"/><path d="M2194.12 840.352C2194.12 850.292 2186.06 858.351 2176.12 858.351 2166.18 858.351 2158.12 850.292 2158.12 840.352 2158.12 830.411 2166.18 822.352 2176.12 822.352 2186.06 822.352 2194.12 830.411 2194.12 840.352Z" stroke="#FF0000" stroke-width="3.4375" stroke-linejoin="round" stroke-miterlimit="10" fill="none"/><path d="M2305.12 843.352C2305.12 853.293 2297.06 861.351 2287.12 861.351 2277.18 861.351 2269.12 853.293 2269.12 843.352 2269.12 833.411 2277.18 825.352 2287.12 825.352 2297.06 825.352 2305.12 833.411 2305.12 843.352Z" stroke="#FF0000" stroke-width="3.4375" stroke-linejoin="round" stroke-miterlimit="10" fill="none"/></g><g clip-path="url(#clip5)"><path d="M1228.5 841.5 1283.54 935.531 1395.55 1093.54 1506.55 1123.54 1618.55 1136.54 1729.56 1146.54 1841.56 1154.54 1952.56 1161.54 2064.57 1167.54 2175.57 1172.54 2287.5 1177.5" stroke="#0070C0" stroke-width="3.4375" stroke-linecap="round" stroke-linejoin="round" stroke-miterlimit="10" fill="none"/></g><g clip-path="url(#clip6)"><path d="M1228.12 821.352 1248.12 861.351 1208.12 861.351Z" stroke="#0070C0" stroke-width="3.4375" stroke-linejoin="round" stroke-miterlimit="10" fill="none"/><path d="M1284.12 915.352 1304.12 955.351 1264.12 955.351Z" stroke="#0070C0" stroke-width="3.4375" stroke-linejoin="round" stroke-miterlimit="10" fill="none"/><path d="M1395.12 1073.35 1415.12 1113.35 1375.12 1113.35Z" stroke="#0070C0" stroke-width="3.4375" stroke-linejoin="round" stroke-miterlimit="10" fill="none"/><path d="M1507.12 1103.35 1527.12 1143.35 1487.12 1143.35Z" stroke="#0070C0" stroke-width="3.4375" stroke-linejoin="round" stroke-miterlimit="10" fill="none"/><path d="M1618.12 1116.35 1638.12 1156.35 1598.12 1156.35Z" stroke="#0070C0" stroke-width="3.4375" stroke-linejoin="round" stroke-miterlimit="10" fill="none"/><path d="M1730.12 1126.35 1750.12 1166.35 1710.12 1166.35Z" stroke="#0070C0" stroke-width="3.4375" stroke-linejoin="round" stroke-miterlimit="10" fill="none"/><path d="M1841.12 1134.35 1861.12 1174.35 1821.12 1174.35Z" stroke="#0070C0" stroke-width="3.4375" stroke-linejoin="round" stroke-miterlimit="10" fill="none"/><path d="M1953.12 1141.35 1973.12 1181.35 1933.12 1181.35Z" stroke="#0070C0" stroke-width="3.4375" stroke-linejoin="round" stroke-miterlimit="10" fill="none"/><path d="M2064.12 1147.35 2084.12 1187.35 2044.12 1187.35Z" stroke="#0070C0" stroke-width="3.4375" stroke-linejoin="round" stroke-miterlimit="10" fill="none"/><path d="M2176.12 1152.35 2196.12 1192.35 2156.12 1192.35Z" stroke="#0070C0" stroke-width="3.4375" stroke-linejoin="round" stroke-miterlimit="10" fill="none"/><path d="M2287.12 1157.35 2307.12 1197.35 2267.12 1197.35Z" stroke="#0070C0" stroke-width="3.4375" stroke-linejoin="round" stroke-miterlimit="10" fill="none"/></g><g clip-path="url(#clip7)"><path d="M1228.5 642.5 1283.54 693.523 1395.55 747.525 1506.55 775.526 1618.55 798.526 1729.56 801.526 1841.56 815.527 1952.56 826.527 2064.57 833.527 2175.57 840.528 2287.5 843.5" stroke="#006600" stroke-width="3.4375" stroke-linecap="round" stroke-linejoin="round" stroke-miterlimit="10" fill="none"/></g><g clip-path="url(#clip8)"><path d="M1248.62 662.851 1207.62 621.852M1207.62 662.851 1248.62 621.852" stroke="#006600" stroke-width="3.4375" stroke-linejoin="round" stroke-miterlimit="10" fill="none"/><path d="M1304.62 713.852 1263.62 672.852M1263.62 713.852 1304.62 672.852" stroke="#006600" stroke-width="3.4375" stroke-linejoin="round" stroke-miterlimit="10" fill="none"/><path d="M1415.62 767.852 1374.62 726.852M1374.62 767.852 1415.62 726.852" stroke="#006600" stroke-width="3.4375" stroke-linejoin="round" stroke-miterlimit="10" fill="none"/><path d="M1527.62 795.851 1486.62 754.852M1486.62 795.851 1527.62 754.852" stroke="#006600" stroke-width="3.4375" stroke-linejoin="round" stroke-miterlimit="10" fill="none"/><path d="M1638.62 818.851 1597.62 777.852M1597.62 818.851 1638.62 777.852" stroke="#006600" stroke-width="3.4375" stroke-linejoin="round" stroke-miterlimit="10" fill="none"/><path d="M1750.62 821.852 1709.62 780.852M1709.62 821.852 1750.62 780.852" stroke="#006600" stroke-width="3.4375" stroke-linejoin="round" stroke-miterlimit="10" fill="none"/><path d="M1861.62 835.851 1820.62 794.851M1820.62 835.851 1861.62 794.851" stroke="#006600" stroke-width="3.4375" stroke-linejoin="round" stroke-miterlimit="10" fill="none"/><path d="M1973.62 846.851 1932.62 805.851M1932.62 846.851 1973.62 805.851" stroke="#006600" stroke-width="3.4375" stroke-linejoin="round" stroke-miterlimit="10" fill="none"/><path d="M2084.62 853.852 2043.62 812.852M2043.62 853.852 2084.62 812.852" stroke="#006600" stroke-width="3.4375" stroke-linejoin="round" stroke-miterlimit="10" fill="none"/><path d="M2196.62 860.851 2155.62 819.852M2155.62 860.851 2196.62 819.852" stroke="#006600" stroke-width="3.4375" stroke-linejoin="round" stroke-miterlimit="10" fill="none"/><path d="M2307.62 863.852 2266.62 822.852M2266.62 863.852 2307.62 822.852" stroke="#006600" stroke-width="3.4375" stroke-linejoin="round" stroke-miterlimit="10" fill="none"/></g><path d="M1017.36 291.447 1167.36 291.447" stroke="#FF0000" stroke-width="3.4375" stroke-linecap="round" stroke-linejoin="round" stroke-miterlimit="10" fill="none" fill-rule="evenodd"/><path d="M1111.36 289.412C1111.36 301.009 1101.95 310.411 1090.36 310.411 1078.77 310.411 1069.36 301.009 1069.36 289.412 1069.36 277.814 1078.77 268.411 1090.36 268.411 1101.95 268.411 1111.36 277.814 1111.36 289.412Z" stroke="#FF0000" stroke-width="3.4375" stroke-linejoin="round" stroke-miterlimit="10" fill="none" fill-rule="evenodd"/><text font-family="Times New Roman,Times New Roman_MSFontService,sans-serif" font-weight="400" font-size="92" transform="matrix(1 0 0 1 1212.58 324)">#<tspan font-size="92" x="45.8334" y="0">triangles</tspan></text><path d="M1911.36 287.394 2062.36 287.394" stroke="#0070C0" stroke-width="3.4375" stroke-linecap="round" stroke-linejoin="round" stroke-miterlimit="10" fill="none" fill-rule="evenodd"/><path d="M1986.85 265.41 2009.35 309.411 1964.35 309.411Z" stroke="#0070C0" stroke-width="3.4375" stroke-linejoin="round" stroke-miterlimit="10" fill="none" fill-rule="evenodd"/><text font-family="Times New Roman,Times New Roman_MSFontService,sans-serif" font-weight="400" font-size="92" transform="matrix(1 0 0 1 2112.38 325)">#<tspan font-size="92" x="45.8333" y="0">2</tspan><tspan font-size="92" x="91.6665" y="0">-</tspan><tspan font-size="92" x="122.031" y="0">stars</tspan></text><path d="M2661.36 291.447 2811.36 291.447" stroke="#006600" stroke-width="3.4375" stroke-linecap="round" stroke-linejoin="round" stroke-miterlimit="10" fill="none" fill-rule="evenodd"/><path d="M2758.36 313.41 2712.36 267.41M2712.36 313.41 2758.36 267.41" stroke="#006600" stroke-width="3.4375" stroke-linejoin="round" stroke-miterlimit="10" fill="none" fill-rule="evenodd"/><text font-family="Times New Roman,Times New Roman_MSFontService,sans-serif" font-weight="400" font-size="92" transform="matrix(1 0 0 1 2823.04 325)">clustering coefficient</text><text font-family="Times New Roman,Times New Roman_MSFontService,sans-serif" font-weight="400" font-size="92" transform="matrix(-1.83697e-16 -1 1 -1.83697e-16 1010.11 1159)">Relative Error</text><text font-family="Times New Roman,Times New Roman_MSFontService,sans-serif" font-weight="400" font-size="83" transform="matrix(1 0 0 1 1037.53 873)">10<tspan font-size="55" x="82.5" y="-25">-</tspan><tspan font-size="55" x="100.833" y="-25">2</tspan><tspan font-size="83" x="0" y="-101">10</tspan><tspan font-size="55" x="82.5" y="-126">-</tspan><tspan font-size="55" x="100.833" y="-126">1</tspan><tspan font-size="83" x="44.038" y="-203">1</tspan><tspan font-size="83" x="0" y="205">10</tspan><tspan font-size="55" x="82.5" y="180">-</tspan><tspan font-size="55" x="100.833" y="180">4</tspan><tspan font-size="83" x="0" y="105">10</tspan><tspan font-size="55" x="82.5" y="80">-</tspan><tspan font-size="55" x="100.833" y="80">3</tspan><tspan font-size="83" x="0" y="410">10</tspan><tspan font-size="55" x="82.5" y="385">-</tspan><tspan font-size="55" x="100.833" y="385">6</tspan><tspan font-size="83" x="0" y="310">10</tspan><tspan font-size="55" x="82.5" y="285">-</tspan><tspan font-size="55" x="100.833" y="285">5</tspan><tspan font-size="83" x="22.9167" y="-304">10</tspan><tspan font-size="83" x="120.61" y="461">0</tspan><tspan font-size="83" x="363.725" y="467">0.5</tspan><tspan font-size="83" x="671.979" y="467">1</tspan><tspan font-size="83" x="918.937" y="467">1.5</tspan><tspan font-size="83" x="1227.19" y="466">2</tspan></text><path d="M1737.34 1388.77C1741.66 1388.77 1746.18 1389.49 1750.91 1390.93L1749.2 1399.1 1744.98 1399.1C1744.44 1394.58 1741.79 1392.32 1737.03 1392.32 1734.3 1392.32 1732.07 1393.09 1730.34 1394.64 1728.6 1396.18 1727.73 1398.3 1727.73 1400.99 1727.73 1402.94 1728.5 1404.5 1730.04 1405.66 1731.59 1406.83 1733.71 1407.42 1736.4 1407.42L1742.78 1407.42 1741.75 1412.04 1737.25 1412.04C1734.98 1412.04 1733.11 1412.19 1731.64 1412.49 1730.17 1412.79 1728.79 1413.28 1727.51 1413.95 1726.22 1414.63 1725.21 1415.34 1724.47 1416.11 1723.74 1416.87 1723.19 1417.73 1722.83 1418.69 1722.48 1419.65 1722.3 1420.74 1722.3 1421.97 1722.3 1424.07 1723.01 1425.67 1724.45 1426.78 1725.89 1427.88 1727.96 1428.44 1730.65 1428.44 1733.02 1428.44 1735.3 1428.1 1737.5 1427.43 1739.7 1426.75 1742.2 1425.47 1744.98 1423.59L1747.18 1427.09C1744.07 1429.25 1741.01 1430.8 1738 1431.76 1734.99 1432.72 1731.83 1433.2 1728.54 1433.2 1725.54 1433.2 1722.98 1432.7 1720.84 1431.7 1718.69 1430.69 1717.09 1429.36 1716.03 1427.7 1714.97 1426.04 1714.43 1424.2 1714.43 1422.19 1714.43 1419.11 1715.63 1416.47 1718.03 1414.29 1720.42 1412.1 1723.87 1410.53 1728.36 1409.57L1728.45 1409.12C1723.24 1407.39 1720.63 1404.39 1720.63 1400.14 1720.63 1398.22 1721.23 1396.4 1722.43 1394.68 1723.63 1392.96 1725.51 1391.54 1728.07 1390.44 1730.63 1389.33 1733.72 1388.77 1737.34 1388.77Z" fill-rule="evenodd"/><text fill="#000000" fill-opacity="0" font-family="Arial,Arial_MSFontService,sans-serif" font-size="44.4277" x="1714.43" y="1427.65">ğœ€</text><text font-family="Times New Roman,Times New Roman_MSFontService,sans-serif" font-weight="700" font-size="101" transform="matrix(1 0 0 1 1269.73 472)">(a) <tspan font-size="101" x="143.229" y="0">Gplus</tspan><tspan font-size="101" x="426.25" y="0">(</tspan></text><path d="M1745.12 425.31 1753.4 425.31 1747.34 452.187C1746.84 454.357 1746.46 456.239 1746.18 457.834 1745.9 459.428 1745.76 460.883 1745.76 462.198 1745.76 463.908 1746.21 465.207 1747.11 466.094 1748.02 466.982 1749.31 467.426 1750.98 467.426 1752.92 467.426 1755.04 466.39 1757.32 464.319 1759.61 462.248 1761.65 459.65 1763.46 456.527 1765.27 453.404 1766.44 450.642 1766.96 448.242L1771.85 425.31 1780.38 425.31 1773.37 456.527C1772.62 459.913 1772.24 462.346 1772.24 463.826 1772.24 465.141 1772.45 466.094 1772.88 466.686 1773.31 467.278 1773.98 467.574 1774.9 467.574 1775.66 467.574 1776.57 467.278 1777.64 466.686 1778.71 466.094 1779.9 465.059 1781.22 463.579L1783.98 466.341C1782.14 468.149 1780.5 469.546 1779.07 470.533 1777.64 471.519 1776.33 472.218 1775.15 472.629 1773.97 473.04 1772.68 473.245 1771.3 473.245 1769.17 473.245 1767.51 472.612 1766.32 471.346 1765.14 470.081 1764.55 468.314 1764.55 466.045 1764.55 464.204 1764.97 462.231 1765.83 460.127L1765.29 459.831C1762.23 464.368 1759.4 467.664 1756.8 469.719 1754.21 471.774 1751.53 472.801 1748.77 472.801 1747.38 472.801 1746.13 472.579 1744.99 472.136 1743.86 471.692 1742.68 470.845 1741.47 469.596 1741.07 471.568 1740.72 474.223 1740.41 477.56 1740.09 480.897 1739.94 483.898 1739.94 486.561 1739.94 487.547 1739.97 488.336 1740.04 488.928L1739.35 492.232 1732.94 492.232 1730.52 489.273C1732 483.815 1733.38 478.21 1734.66 472.456Z" fill-rule="evenodd"/><text fill="#000000" fill-opacity="0" font-family="Arial,Arial_MSFontService,sans-serif" font-size="66.9224" x="1730.52" y="483.867">ğœ‡</text><path d="M1803.56 400.741 1808.33 400.741 1807.28 412.051 1816.56 405.511 1818.91 409.558 1808.62 414.364 1818.91 419.205 1816.56 423.216 1807.28 416.676 1808.33 427.986 1803.56 427.986 1804.64 416.676 1795.32 423.216 1792.93 419.205 1803.27 414.364 1792.93 409.558 1795.32 405.511 1804.64 412.051Z" fill-rule="evenodd"/><text fill="#000000" fill-opacity="0" font-family="Arial,Arial_MSFontService,sans-serif" font-size="27.2441" x="1792.93" y="424.58">âˆ—</text><path d="M1863.12 450.56 1923.88 450.56 1923.88 457.119 1863.12 457.119ZM1863.12 430.093 1923.88 430.093 1923.88 436.652 1863.12 436.652Z" fill-rule="evenodd"/><text fill="#000000" fill-opacity="0" font-family="Arial,Arial_MSFontService,sans-serif" font-size="27.0254" x="1863.12" y="453.741">=</text><path d="M2042.79 408.542C2040.52 408.542 2038.63 409.216 2037.1 410.564 2035.57 411.912 2034.34 413.852 2033.4 416.383 2032.46 418.915 2031.8 421.997 2031.4 425.63 2031.01 429.263 2030.81 433.365 2030.81 437.935 2030.81 448.653 2031.8 456.519 2033.79 461.533 2035.78 466.546 2038.86 469.053 2043.04 469.053 2047.02 469.053 2049.97 466.694 2051.89 461.976 2053.82 457.258 2054.78 449.951 2054.78 440.055 2054.78 432.493 2054.28 426.37 2053.3 421.685 2052.31 417 2050.94 413.638 2049.18 411.6 2047.42 409.561 2045.29 408.542 2042.79 408.542ZM2043.04 404.35C2050.24 404.35 2055.6 407.128 2059.12 412.685 2062.64 418.241 2064.39 426.641 2064.39 437.885 2064.39 449.524 2062.51 458.327 2058.75 464.294 2054.98 470.262 2049.48 473.245 2042.25 473.245 2035.15 473.245 2029.86 470.451 2026.4 464.861 2022.93 459.272 2021.19 450.79 2021.19 439.414 2021.19 433.365 2021.73 428.137 2022.8 423.732 2023.86 419.326 2025.36 415.685 2027.28 412.808 2029.21 409.931 2031.52 407.802 2034.21 406.421 2036.91 405.041 2039.85 404.35 2043.04 404.35ZM1990.69 404.35 1993.4 404.35C1993.2 407.506 1993.11 411.879 1993.11 417.468L1993.11 459.585C1993.11 461.491 1993.21 462.93 1993.43 463.9 1993.64 464.87 1994.02 465.659 1994.56 466.267 1995.1 466.875 1995.88 467.352 1996.9 467.697 1997.92 468.042 1999.2 468.305 2000.75 468.486 2002.3 468.667 2004.33 468.79 2006.87 468.856L2006.87 472.456 1970.42 472.456 1970.42 468.856C1974.07 468.692 1976.68 468.47 1978.24 468.19 1979.8 467.911 1980.99 467.492 1981.81 466.933 1982.63 466.374 1983.23 465.585 1983.61 464.565 1983.99 463.546 1984.18 461.886 1984.18 459.585L1984.18 419.589C1984.18 418.274 1983.95 417.312 1983.49 416.704 1983.03 416.096 1982.35 415.792 1981.47 415.792 1980.42 415.792 1978.92 416.334 1976.98 417.419 1975.04 418.504 1972.64 420 1969.78 421.907L1967.61 418.109Z" fill-rule="evenodd"/><text fill="#000000" fill-opacity="0" font-family="Arial,Arial_MSFontService,sans-serif" font-size="68.895" x="1967.61" y="464.633">10</text><path d="M2076.08 411.617 2117.71 411.617 2117.71 417.146 2076.08 417.146Z" fill-rule="evenodd"/><text fill="#000000" fill-opacity="0" font-family="Arial,Arial_MSFontService,sans-serif" font-size="5.52832" x="2076.08" y="416.455">âˆ’</text><path d="M2144.76 388.745C2146.68 388.745 2148.48 388.95 2150.16 389.36 2151.83 389.769 2153.28 390.389 2154.51 391.22 2155.74 392.052 2156.7 393.087 2157.39 394.328 2158.07 395.568 2158.42 397.008 2158.42 398.646 2158.42 400.187 2158.2 401.548 2157.76 402.729 2157.33 403.909 2156.66 404.981 2155.76 405.945 2154.86 406.908 2153.75 407.781 2152.44 408.564 2151.12 409.347 2149.61 410.1 2147.9 410.823L2147.9 411.256C2149.51 411.545 2151.02 412.009 2152.42 412.647 2153.81 413.286 2155.04 414.093 2156.08 415.068 2157.13 416.044 2157.96 417.17 2158.56 418.447 2159.16 419.723 2159.46 421.132 2159.46 422.674 2159.46 424.601 2159.1 426.39 2158.38 428.04 2157.66 429.69 2156.57 431.117 2155.13 432.322 2153.68 433.526 2151.9 434.465 2149.78 435.14 2147.66 435.814 2145.18 436.152 2142.34 436.152 2140.1 436.152 2137.82 435.929 2135.51 435.483 2133.19 435.038 2131 434.453 2128.93 433.731L2128.93 425.926 2133.59 425.926C2133.98 427.13 2134.44 428.16 2134.97 429.015 2135.5 429.871 2136.12 430.569 2136.83 431.111 2137.54 431.653 2138.36 432.045 2139.28 432.285 2140.21 432.526 2141.26 432.647 2142.44 432.647 2145.55 432.647 2147.91 431.906 2149.51 430.425 2151.11 428.943 2151.91 426.697 2151.91 423.686 2151.91 420.482 2150.86 418.055 2148.75 416.405 2146.64 414.755 2143.52 413.93 2139.37 413.93L2136.19 413.93 2136.19 410.461C2138.72 410.341 2140.91 409.985 2142.75 409.395 2144.59 408.805 2146.13 408.04 2147.36 407.101 2148.59 406.161 2149.5 405.065 2150.1 403.813 2150.71 402.56 2151.01 401.223 2151.01 399.802 2151.01 397.49 2150.32 395.665 2148.95 394.328 2147.58 392.991 2145.59 392.323 2142.99 392.323 2140.79 392.323 2138.96 392.925 2137.48 394.129 2135.99 395.334 2134.86 397.128 2134.06 399.513L2129.47 399.513 2129.47 392.395C2132.32 391.19 2135 390.281 2137.51 389.667 2140.03 389.052 2142.44 388.745 2144.76 388.745Z" fill-rule="evenodd"/><text fill="#000000" fill-opacity="0" font-family="Arial,Arial_MSFontService,sans-serif" font-size="47.4062" x="2128.93" y="430.226">3</text><text font-family="Times New Roman,Times New Roman_MSFontService,sans-serif" font-weight="700" font-size="101" transform="matrix(1 0 0 1 2169.85 472)">)</text><path d="M1270.13 480.464 1503.63 480.464 1737.13 480.464 1970.63 480.464 2204.13 480.464 2204.13 485.464 1970.63 485.464 1737.13 485.464 1503.63 485.464 1270.13 485.464Z" fill-rule="evenodd"/><g clip-path="url(#clip9)"><path d="M2555.5 1255.5 3672.5 1255.5M2555.5 1135.54 3672.5 1135.54M2555.5 1015.53 3672.5 1015.53M2555.5 895.53 3672.5 895.53M2555.5 775.526 3672.5 775.526M2555.5 655.522 3672.5 655.522M2555.5 535.5 3672.5 535.5" stroke="#D9D9D9" stroke-width="3.4375" stroke-linejoin="round" stroke-miterlimit="10" fill="none"/></g><g clip-path="url(#clip10)"><path d="M2555.5 535.5 2555.5 1255.5M2834.59 535.5 2834.59 1255.5M3113.6 535.5 3113.6 1255.5M3392.61 535.5 3392.61 1255.5M3672.5 535.5 3672.5 1255.5" stroke="#D9D9D9" stroke-width="3.4375" stroke-linejoin="round" stroke-miterlimit="10" fill="none"/></g><g clip-path="url(#clip11)"><path d="M2611.5 556.5 2666.59 639.521 2778.59 689.523 2890.59 715.524 3001.6 747.525 3113.6 767.525 3225.61 778.526 3337.61 781.526 3448.61 790.526 3560.62 797.526 3672.5 803.5" stroke="#FF0000" stroke-width="3.4375" stroke-linecap="round" stroke-linejoin="round" stroke-miterlimit="10" fill="none"/></g><g clip-path="url(#clip12)"><path d="M2629.35 556.928C2629.35 566.869 2621.29 574.928 2611.35 574.928 2601.41 574.928 2593.35 566.869 2593.35 556.928 2593.35 546.987 2601.41 538.929 2611.35 538.929 2621.29 538.929 2629.35 546.987 2629.35 556.928Z" stroke="#FF0000" stroke-width="3.4375" stroke-linejoin="round" stroke-miterlimit="10" fill="none"/><path d="M2684.35 639.928C2684.35 649.869 2676.29 657.927 2666.35 657.927 2656.41 657.927 2648.35 649.869 2648.35 639.928 2648.35 629.987 2656.41 621.928 2666.35 621.928 2676.29 621.928 2684.35 629.987 2684.35 639.928Z" stroke="#FF0000" stroke-width="3.4375" stroke-linejoin="round" stroke-miterlimit="10" fill="none"/><path d="M2796.35 689.928C2796.35 699.869 2788.29 707.928 2778.35 707.928 2768.41 707.928 2760.35 699.869 2760.35 689.928 2760.35 679.987 2768.41 671.929 2778.35 671.929 2788.29 671.929 2796.35 679.987 2796.35 689.928Z" stroke="#FF0000" stroke-width="3.4375" stroke-linejoin="round" stroke-miterlimit="10" fill="none"/><path d="M2908.35 715.928C2908.35 725.869 2900.29 733.928 2890.35 733.928 2880.41 733.928 2872.35 725.869 2872.35 715.928 2872.35 705.987 2880.41 697.929 2890.35 697.929 2900.29 697.929 2908.35 705.987 2908.35 715.928Z" stroke="#FF0000" stroke-width="3.4375" stroke-linejoin="round" stroke-miterlimit="10" fill="none"/><path d="M3020.35 747.928C3020.35 757.869 3012.29 765.928 3002.35 765.928 2992.41 765.928 2984.35 757.869 2984.35 747.928 2984.35 737.987 2992.41 729.929 3002.35 729.929 3012.29 729.929 3020.35 737.987 3020.35 747.928Z" stroke="#FF0000" stroke-width="3.4375" stroke-linejoin="round" stroke-miterlimit="10" fill="none"/><path d="M3131.35 767.928C3131.35 777.869 3123.29 785.928 3113.35 785.928 3103.41 785.928 3095.35 777.869 3095.35 767.928 3095.35 757.987 3103.41 749.929 3113.35 749.929 3123.29 749.929 3131.35 757.987 3131.35 767.928Z" stroke="#FF0000" stroke-width="3.4375" stroke-linejoin="round" stroke-miterlimit="10" fill="none"/><path d="M3243.35 778.928C3243.35 788.869 3235.29 796.928 3225.35 796.928 3215.41 796.928 3207.35 788.869 3207.35 778.928 3207.35 768.987 3215.41 760.929 3225.35 760.929 3235.29 760.929 3243.35 768.987 3243.35 778.928Z" stroke="#FF0000" stroke-width="3.4375" stroke-linejoin="round" stroke-miterlimit="10" fill="none"/><path d="M3355.35 781.928C3355.35 791.869 3347.29 799.928 3337.35 799.928 3327.41 799.928 3319.35 791.869 3319.35 781.928 3319.35 771.987 3327.41 763.929 3337.35 763.929 3347.29 763.929 3355.35 771.987 3355.35 781.928Z" stroke="#FF0000" stroke-width="3.4375" stroke-linejoin="round" stroke-miterlimit="10" fill="none"/><path d="M3466.35 791.928C3466.35 801.869 3458.29 809.928 3448.35 809.928 3438.41 809.928 3430.35 801.869 3430.35 791.928 3430.35 781.987 3438.41 773.929 3448.35 773.929 3458.29 773.929 3466.35 781.987 3466.35 791.928Z" stroke="#FF0000" stroke-width="3.4375" stroke-linejoin="round" stroke-miterlimit="10" fill="none"/><path d="M3578.35 797.928C3578.35 807.869 3570.29 815.927 3560.35 815.927 3550.41 815.927 3542.35 807.869 3542.35 797.928 3542.35 787.987 3550.41 779.928 3560.35 779.928 3570.29 779.928 3578.35 787.987 3578.35 797.928Z" stroke="#FF0000" stroke-width="3.4375" stroke-linejoin="round" stroke-miterlimit="10" fill="none"/><path d="M3690.35 803.928C3690.35 813.869 3682.29 821.928 3672.35 821.928 3662.41 821.928 3654.35 813.869 3654.35 803.928 3654.35 793.987 3662.41 785.929 3672.35 785.929 3682.29 785.929 3690.35 793.987 3690.35 803.928Z" stroke="#FF0000" stroke-width="3.4375" stroke-linejoin="round" stroke-miterlimit="10" fill="none"/></g><g clip-path="url(#clip13)"><path d="M2611.5 750.5 2666.59 857.528 2778.59 1039.53 2890.59 1138.54 3001.6 1150.54 3113.6 1161.54 3225.61 1171.54 3337.61 1179.54 3448.61 1186.54 3560.62 1192.54 3672.5 1198.5" stroke="#0070C0" stroke-width="3.4375" stroke-linecap="round" stroke-linejoin="round" stroke-miterlimit="10" fill="none"/></g><g clip-path="url(#clip14)"><path d="M2611.35 730.928 2631.35 770.927 2591.35 770.927Z" stroke="#0070C0" stroke-width="3.4375" stroke-linejoin="round" stroke-miterlimit="10" fill="none"/><path d="M2666.35 837.928 2686.35 877.928 2646.35 877.928Z" stroke="#0070C0" stroke-width="3.4375" stroke-linejoin="round" stroke-miterlimit="10" fill="none"/><path d="M2778.35 1019.93 2798.35 1059.93 2758.35 1059.93Z" stroke="#0070C0" stroke-width="3.4375" stroke-linejoin="round" stroke-miterlimit="10" fill="none"/><path d="M2890.35 1118.93 2910.35 1158.93 2870.35 1158.93Z" stroke="#0070C0" stroke-width="3.4375" stroke-linejoin="round" stroke-miterlimit="10" fill="none"/><path d="M3002.35 1130.93 3022.35 1170.93 2982.35 1170.93Z" stroke="#0070C0" stroke-width="3.4375" stroke-linejoin="round" stroke-miterlimit="10" fill="none"/><path d="M3113.35 1142.93 3133.35 1182.93 3093.35 1182.93Z" stroke="#0070C0" stroke-width="3.4375" stroke-linejoin="round" stroke-miterlimit="10" fill="none"/><path d="M3225.35 1151.93 3245.35 1191.93 3205.35 1191.93Z" stroke="#0070C0" stroke-width="3.4375" stroke-linejoin="round" stroke-miterlimit="10" fill="none"/><path d="M3337.35 1159.93 3357.35 1199.93 3317.35 1199.93Z" stroke="#0070C0" stroke-width="3.4375" stroke-linejoin="round" stroke-miterlimit="10" fill="none"/><path d="M3448.35 1166.93 3468.35 1206.93 3428.35 1206.93Z" stroke="#0070C0" stroke-width="3.4375" stroke-linejoin="round" stroke-miterlimit="10" fill="none"/><path d="M3560.35 1172.93 3580.35 1212.93 3540.35 1212.93Z" stroke="#0070C0" stroke-width="3.4375" stroke-linejoin="round" stroke-miterlimit="10" fill="none"/><path d="M3672.35 1178.93 3692.35 1218.93 3652.35 1218.93Z" stroke="#0070C0" stroke-width="3.4375" stroke-linejoin="round" stroke-miterlimit="10" fill="none"/></g><g clip-path="url(#clip15)"><path d="M2611.5 555.5 2666.59 639.521 2778.59 689.523 2890.59 715.524 3001.6 747.525 3113.6 767.525 3225.61 778.526 3337.61 781.526 3448.61 790.526 3560.62 797.526 3672.5 803.5" stroke="#006600" stroke-width="3.4375" stroke-linecap="round" stroke-linejoin="round" stroke-miterlimit="10" fill="none"/></g><g clip-path="url(#clip16)"><path d="M2631.85 576.428 2590.85 535.428M2590.85 576.428 2631.85 535.428" stroke="#006600" stroke-width="3.4375" stroke-linejoin="round" stroke-miterlimit="10" fill="none"/><path d="M2686.85 660.428 2645.85 619.428M2645.85 660.428 2686.85 619.428" stroke="#006600" stroke-width="3.4375" stroke-linejoin="round" stroke-miterlimit="10" fill="none"/><path d="M2798.85 710.428 2757.85 669.428M2757.85 710.428 2798.85 669.428" stroke="#006600" stroke-width="3.4375" stroke-linejoin="round" stroke-miterlimit="10" fill="none"/><path d="M2910.85 736.428 2869.85 695.428M2869.85 736.428 2910.85 695.428" stroke="#006600" stroke-width="3.4375" stroke-linejoin="round" stroke-miterlimit="10" fill="none"/><path d="M3022.85 768.428 2981.85 727.428M2981.85 768.428 3022.85 727.428" stroke="#006600" stroke-width="3.4375" stroke-linejoin="round" stroke-miterlimit="10" fill="none"/><path d="M3133.85 788.428 3092.85 747.428M3092.85 788.428 3133.85 747.428" stroke="#006600" stroke-width="3.4375" stroke-linejoin="round" stroke-miterlimit="10" fill="none"/><path d="M3245.85 799.428 3204.85 758.428M3204.85 799.428 3245.85 758.428" stroke="#006600" stroke-width="3.4375" stroke-linejoin="round" stroke-miterlimit="10" fill="none"/><path d="M3357.85 802.428 3316.85 761.428M3316.85 802.428 3357.85 761.428" stroke="#006600" stroke-width="3.4375" stroke-linejoin="round" stroke-miterlimit="10" fill="none"/><path d="M3468.85 811.428 3427.85 770.428M3427.85 811.428 3468.85 770.428" stroke="#006600" stroke-width="3.4375" stroke-linejoin="round" stroke-miterlimit="10" fill="none"/><path d="M3580.85 818.428 3539.85 777.428M3539.85 818.428 3580.85 777.428" stroke="#006600" stroke-width="3.4375" stroke-linejoin="round" stroke-miterlimit="10" fill="none"/><path d="M3692.85 824.428 3651.85 783.428M3651.85 824.428 3692.85 783.428" stroke="#006600" stroke-width="3.4375" stroke-linejoin="round" stroke-miterlimit="10" fill="none"/></g><text font-family="Times New Roman,Times New Roman_MSFontService,sans-serif" font-weight="700" font-size="101" transform="matrix(1 0 0 1 2638.87 471)">(b) IMDB (</text><path d="M3136.03 423.535 3144.32 423.535 3138.25 450.413C3137.76 452.583 3137.37 454.465 3137.09 456.06 3136.81 457.654 3136.68 459.109 3136.68 460.424 3136.68 462.134 3137.13 463.432 3138.03 464.32 3138.94 465.208 3140.23 465.652 3141.9 465.652 3143.84 465.652 3145.95 464.616 3148.24 462.545 3150.52 460.473 3152.57 457.876 3154.38 454.753 3156.19 451.629 3157.35 448.868 3157.88 446.468L3162.76 423.535 3171.3 423.535 3164.29 454.753C3163.54 458.139 3163.16 460.572 3163.16 462.052 3163.16 463.367 3163.37 464.32 3163.8 464.912 3164.23 465.504 3164.9 465.8 3165.82 465.8 3166.58 465.8 3167.49 465.504 3168.56 464.912 3169.63 464.32 3170.82 463.285 3172.13 461.805L3174.9 464.567C3173.05 466.375 3171.42 467.772 3169.99 468.759 3168.56 469.745 3167.25 470.444 3166.07 470.855 3164.88 471.266 3163.6 471.471 3162.22 471.471 3160.08 471.471 3158.42 470.838 3157.24 469.572 3156.06 468.307 3155.46 466.539 3155.46 464.271 3155.46 462.43 3155.89 460.457 3156.75 458.353L3156.2 458.057C3153.15 462.594 3150.32 465.89 3147.72 467.945 3145.12 470 3142.45 471.027 3139.68 471.027 3138.3 471.027 3137.04 470.805 3135.91 470.361 3134.78 469.918 3133.6 469.071 3132.38 467.822 3131.99 469.794 3131.64 472.449 3131.32 475.786 3131.01 479.123 3130.86 482.123 3130.86 484.786 3130.86 485.773 3130.89 486.562 3130.95 487.154L3130.26 490.458 3123.85 490.458 3121.44 487.499C3122.92 482.041 3124.3 476.436 3125.58 470.682Z" fill-rule="evenodd"/><text fill="#000000" fill-opacity="0" font-family="Arial,Arial_MSFontService,sans-serif" font-size="66.9224" x="3121.44" y="482.093">ğœ‡</text><path d="M3194.47 398.967 3199.24 398.967 3198.2 410.277 3207.48 403.737 3209.83 407.784 3199.53 412.589 3209.83 417.431 3207.48 421.442 3198.2 414.902 3199.24 426.211 3194.47 426.211 3195.56 414.902 3186.24 421.442 3183.85 417.431 3194.19 412.589 3183.85 407.784 3186.24 403.737 3195.56 410.277Z" fill-rule="evenodd"/><text fill="#000000" fill-opacity="0" font-family="Arial,Arial_MSFontService,sans-serif" font-size="27.2441" x="3183.85" y="422.806">âˆ—</text><path d="M3254.04 448.785 3314.8 448.785 3314.8 455.345 3254.04 455.345ZM3254.04 428.319 3314.8 428.319 3314.8 434.878 3254.04 434.878Z" fill-rule="evenodd"/><text fill="#000000" fill-opacity="0" font-family="Arial,Arial_MSFontService,sans-serif" font-size="27.0254" x="3254.04" y="451.966">=</text><path d="M3433.71 406.768C3431.44 406.768 3429.54 407.442 3428.02 408.79 3426.49 410.138 3425.25 412.078 3424.32 414.609 3423.38 417.141 3422.71 420.223 3422.32 423.856 3421.92 427.489 3421.73 431.591 3421.73 436.16 3421.73 446.879 3422.72 454.745 3424.71 459.758 3426.7 464.772 3429.78 467.279 3433.96 467.279 3437.94 467.279 3440.89 464.92 3442.81 460.202 3444.73 455.484 3445.7 448.177 3445.7 438.281 3445.7 430.719 3445.2 424.596 3444.22 419.911 3443.23 415.226 3441.86 411.864 3440.1 409.826 3438.34 407.787 3436.21 406.768 3433.71 406.768ZM3433.96 402.576C3441.16 402.576 3446.52 405.354 3450.03 410.91 3453.55 416.467 3455.31 424.867 3455.31 436.111 3455.31 447.75 3453.43 456.553 3449.67 462.52 3445.9 468.487 3440.4 471.471 3433.17 471.471 3426.07 471.471 3420.78 468.676 3417.31 463.087 3413.84 457.498 3412.11 449.016 3412.11 437.64 3412.11 431.591 3412.64 426.363 3413.71 421.957 3414.78 417.552 3416.28 413.911 3418.2 411.034 3420.12 408.157 3422.43 406.028 3425.13 404.647 3427.83 403.266 3430.77 402.576 3433.96 402.576ZM3381.61 402.576 3384.32 402.576C3384.12 405.732 3384.02 410.105 3384.02 415.694L3384.02 457.81C3384.02 459.717 3384.13 461.156 3384.34 462.126 3384.56 463.095 3384.94 463.885 3385.48 464.493 3386.02 465.101 3386.8 465.578 3387.82 465.923 3388.84 466.268 3390.12 466.531 3391.67 466.712 3393.21 466.893 3395.25 467.016 3397.78 467.082L3397.78 470.682 3361.34 470.682 3361.34 467.082C3364.99 466.917 3367.59 466.696 3369.15 466.416 3370.72 466.137 3371.91 465.717 3372.73 465.159 3373.55 464.6 3374.15 463.811 3374.53 462.791 3374.91 461.772 3375.1 460.112 3375.1 457.81L3375.1 417.815C3375.1 416.5 3374.87 415.538 3374.41 414.93 3373.95 414.322 3373.27 414.017 3372.39 414.017 3371.33 414.017 3369.84 414.56 3367.9 415.645 3365.96 416.73 3363.56 418.226 3360.7 420.133L3358.53 416.335Z" fill-rule="evenodd"/><text fill="#000000" fill-opacity="0" font-family="Arial,Arial_MSFontService,sans-serif" font-size="68.895" x="3358.53" y="462.859">10</text><path d="M3467 409.843 3508.63 409.843 3508.63 415.372 3467 415.372Z" fill-rule="evenodd"/><text fill="#000000" fill-opacity="0" font-family="Arial,Arial_MSFontService,sans-serif" font-size="5.52832" x="3467" y="414.681">âˆ’</text><path d="M3535.67 386.971C3537.6 386.971 3539.4 387.176 3541.08 387.585 3542.75 387.995 3544.2 388.615 3545.43 389.446 3546.66 390.277 3547.62 391.313 3548.3 392.554 3548.99 393.794 3549.33 395.234 3549.33 396.872 3549.33 398.413 3549.12 399.774 3548.68 400.955 3548.25 402.135 3547.58 403.207 3546.68 404.17 3545.77 405.134 3544.67 406.007 3543.35 406.79 3542.04 407.573 3540.53 408.326 3538.82 409.048L3538.82 409.482C3540.43 409.771 3541.94 410.235 3543.33 410.873 3544.73 411.511 3545.95 412.318 3547 413.294 3548.05 414.27 3548.88 415.396 3549.48 416.672 3550.08 417.949 3550.38 419.358 3550.38 420.9 3550.38 422.827 3550.02 424.616 3549.3 426.266 3548.57 427.916 3547.49 429.343 3546.04 430.547 3544.6 431.752 3542.82 432.691 3540.7 433.366 3538.58 434.04 3536.1 434.377 3533.25 434.377 3531.01 434.377 3528.74 434.155 3526.42 433.709 3524.11 433.263 3521.92 432.679 3519.85 431.957L3519.85 424.152 3524.51 424.152C3524.9 425.356 3525.35 426.386 3525.88 427.241 3526.41 428.096 3527.03 428.795 3527.74 429.337 3528.45 429.879 3529.27 430.27 3530.2 430.511 3531.13 430.752 3532.18 430.873 3533.36 430.873 3536.47 430.873 3538.82 430.132 3540.43 428.65 3542.03 427.169 3542.83 424.923 3542.83 421.912 3542.83 418.708 3541.78 416.281 3539.67 414.631 3537.56 412.981 3534.43 412.156 3530.29 412.156L3527.11 412.156 3527.11 408.687C3529.64 408.567 3531.83 408.211 3533.67 407.621 3535.51 407.031 3537.05 406.266 3538.28 405.327 3539.5 404.387 3540.42 403.291 3541.02 402.039 3541.62 400.786 3541.93 399.449 3541.93 398.028 3541.93 395.715 3541.24 393.891 3539.87 392.554 3538.49 391.217 3536.51 390.548 3533.9 390.548 3531.71 390.548 3529.88 391.151 3528.39 392.355 3526.91 393.559 3525.77 395.354 3524.98 397.739L3520.39 397.739 3520.39 390.621C3523.23 389.416 3525.91 388.507 3528.43 387.893 3530.95 387.278 3533.36 386.971 3535.67 386.971Z" fill-rule="evenodd"/><text fill="#000000" fill-opacity="0" font-family="Arial,Arial_MSFontService,sans-serif" font-size="47.4062" x="3519.85" y="428.452">3</text><text font-family="Times New Roman,Times New Roman_MSFontService,sans-serif" font-weight="700" font-size="101" transform="matrix(1 0 0 1 3560.77 471)">)</text><path d="M2639.16 478.69 2877.91 478.69 3116.66 478.69 3355.41 478.69 3594.16 478.69 3594.16 483.69 3355.41 483.69 3116.66 483.69 2877.91 483.69 2639.16 483.69Z" fill-rule="evenodd"/><text font-family="Times New Roman,Times New Roman_MSFontService,sans-serif" font-weight="400" font-size="83" transform="matrix(1 0 0 1 2542.22 1336)">0<tspan font-size="83" x="243.115" y="6">0.5</tspan><tspan font-size="83" x="551.368" y="6">1</tspan><tspan font-size="83" x="798.327" y="6">1.5</tspan><tspan font-size="83" x="1106.58" y="5">2</tspan></text><path d="M3121.42 1390.96C3125.73 1390.96 3130.26 1391.68 3134.99 1393.12L3133.28 1401.3 3129.06 1401.3C3128.52 1396.77 3125.87 1394.51 3121.11 1394.51 3118.38 1394.51 3116.15 1395.28 3114.41 1396.83 3112.68 1398.37 3111.81 1400.49 3111.81 1403.18 3111.81 1405.13 3112.58 1406.69 3114.12 1407.85 3115.66 1409.02 3117.78 1409.61 3120.48 1409.61L3126.86 1409.61 3125.82 1414.23 3121.33 1414.23C3119.06 1414.23 3117.18 1414.38 3115.72 1414.68 3114.25 1414.98 3112.87 1415.47 3111.58 1416.14 3110.3 1416.82 3109.28 1417.54 3108.55 1418.3 3107.82 1419.06 3107.27 1419.92 3106.91 1420.88 3106.55 1421.84 3106.37 1422.93 3106.37 1424.16 3106.37 1426.26 3107.09 1427.86 3108.53 1428.97 3109.97 1430.08 3112.03 1430.63 3114.73 1430.63 3117.09 1430.63 3119.38 1430.29 3121.58 1429.62 3123.78 1428.95 3126.27 1427.67 3129.06 1425.78L3131.26 1429.28C3128.14 1431.44 3125.08 1433 3122.07 1433.95 3119.06 1434.91 3115.91 1435.39 3112.62 1435.39 3109.62 1435.39 3107.05 1434.89 3104.91 1433.89 3102.77 1432.88 3101.17 1431.55 3100.11 1429.89 3099.04 1428.23 3098.51 1426.39 3098.51 1424.39 3098.51 1421.3 3099.71 1418.67 3102.1 1416.48 3104.5 1414.29 3107.94 1412.72 3112.44 1411.76L3112.53 1411.31C3107.32 1409.58 3104.71 1406.58 3104.71 1402.33 3104.71 1400.41 3105.31 1398.59 3106.51 1396.87 3107.71 1395.15 3109.58 1393.73 3112.14 1392.63 3114.71 1391.52 3117.8 1390.96 3121.42 1390.96Z" fill-rule="evenodd"/><text fill="#000000" fill-opacity="0" font-family="Arial,Arial_MSFontService,sans-serif" font-size="44.4277" x="3098.51" y="1429.84">ğœ€</text><text font-family="Times New Roman,Times New Roman_MSFontService,sans-serif" font-weight="400" font-size="92" transform="matrix(-1.83697e-16 -1 1 -1.83697e-16 2391.23 1159)">Relative Error</text><text font-family="Times New Roman,Times New Roman_MSFontService,sans-serif" font-weight="400" font-size="83" transform="matrix(1 0 0 1 2418.65 807)">10<tspan font-size="55" x="82.5" y="-25">-</tspan><tspan font-size="55" x="100.833" y="-25">2</tspan><tspan font-size="83" x="0" y="-121">10</tspan><tspan font-size="55" x="82.5" y="-146">-</tspan><tspan font-size="55" x="100.833" y="-146">1</tspan><tspan font-size="83" x="44.0378" y="-241">1</tspan><tspan font-size="83" x="0" y="238">10</tspan><tspan font-size="55" x="82.5" y="213">-</tspan><tspan font-size="55" x="100.833" y="213">4</tspan><tspan font-size="83" x="0" y="119">10</tspan><tspan font-size="55" x="82.5" y="94">-</tspan><tspan font-size="55" x="100.833" y="94">3</tspan><tspan font-size="83" x="0" y="476">10</tspan><tspan font-size="55" x="82.5" y="451">-</tspan><tspan font-size="55" x="100.833" y="451">6</tspan><tspan font-size="83" x="0" y="360">10</tspan><tspan font-size="55" x="82.5" y="335">-</tspan><tspan font-size="55" x="100.833" y="335">5</tspan></text><rect x="909.5" y="229.5" width="2785" height="125" stroke="#000000" stroke-width="4.58333" stroke-miterlimit="8" fill="none"/><g clip-path="url(#clip17)"><path d="M1172.5 2336.5 2293.5 2336.5M1172.5 2217.57 2293.5 2217.57M1172.5 2098.57 2293.5 2098.57M1172.5 1980.57 2293.5 1980.57M1172.5 1861.56 2293.5 1861.56M1172.5 1742.56 2293.5 1742.56M1172.5 1623.5 2293.5 1623.5" stroke="#D9D9D9" stroke-width="3.4375" stroke-linejoin="round" stroke-miterlimit="10" fill="none"/></g><g clip-path="url(#clip18)"><path d="M1172.5 1623.5 1172.5 2336.5M1359.54 1623.5 1359.54 2336.5M1545.55 1623.5 1545.55 2336.5M1732.56 1623.5 1732.56 2336.5M1919.56 1623.5 1919.56 2336.5M2106.57 1623.5 2106.57 2336.5M2293.5 1623.5 2293.5 2336.5" stroke="#D9D9D9" stroke-width="3.4375" stroke-linejoin="round" stroke-miterlimit="10" fill="none"/></g><g clip-path="url(#clip19)"><path d="M1172.5 1678.5 1359.54 1785.56 1545.55 1873.56 1732.56 1930.56 1919.56 1979.57 2106.57 2016.57 2253.5 2065.5" stroke="#FF0000" stroke-width="3.4375" stroke-linecap="round" stroke-linejoin="round" stroke-miterlimit="10" fill="none"/></g><g clip-path="url(#clip20)"><path d="M1190.19 1678.9C1190.19 1688.84 1182.13 1696.9 1172.19 1696.9 1162.25 1696.9 1154.19 1688.84 1154.19 1678.9 1154.19 1668.95 1162.25 1660.9 1172.19 1660.9 1182.13 1660.9 1190.19 1668.95 1190.19 1678.9Z" stroke="#FF0000" stroke-width="3.4375" stroke-linejoin="round" stroke-miterlimit="10" fill="none"/><path d="M1377.19 1785.9C1377.19 1795.84 1369.13 1803.9 1359.19 1803.9 1349.25 1803.9 1341.19 1795.84 1341.19 1785.9 1341.19 1775.95 1349.25 1767.9 1359.19 1767.9 1369.13 1767.9 1377.19 1775.95 1377.19 1785.9Z" stroke="#FF0000" stroke-width="3.4375" stroke-linejoin="round" stroke-miterlimit="10" fill="none"/><path d="M1564.19 1874.9C1564.19 1884.84 1556.13 1892.9 1546.19 1892.9 1536.25 1892.9 1528.19 1884.84 1528.19 1874.9 1528.19 1864.95 1536.25 1856.9 1546.19 1856.9 1556.13 1856.9 1564.19 1864.95 1564.19 1874.9Z" stroke="#FF0000" stroke-width="3.4375" stroke-linejoin="round" stroke-miterlimit="10" fill="none"/><path d="M1750.19 1930.9C1750.19 1940.84 1742.13 1948.9 1732.19 1948.9 1722.25 1948.9 1714.19 1940.84 1714.19 1930.9 1714.19 1920.95 1722.25 1912.9 1732.19 1912.9 1742.13 1912.9 1750.19 1920.95 1750.19 1930.9Z" stroke="#FF0000" stroke-width="3.4375" stroke-linejoin="round" stroke-miterlimit="10" fill="none"/><path d="M1937.19 1979.9C1937.19 1989.84 1929.13 1997.9 1919.19 1997.9 1909.25 1997.9 1901.19 1989.84 1901.19 1979.9 1901.19 1969.95 1909.25 1961.9 1919.19 1961.9 1929.13 1961.9 1937.19 1969.95 1937.19 1979.9Z" stroke="#FF0000" stroke-width="3.4375" stroke-linejoin="round" stroke-miterlimit="10" fill="none"/><path d="M2124.19 2016.9C2124.19 2026.84 2116.13 2034.9 2106.19 2034.9 2096.25 2034.9 2088.19 2026.84 2088.19 2016.9 2088.19 2006.95 2096.25 1998.9 2106.19 1998.9 2116.13 1998.9 2124.19 2006.95 2124.19 2016.9Z" stroke="#FF0000" stroke-width="3.4375" stroke-linejoin="round" stroke-miterlimit="10" fill="none"/><path d="M2271.19 2065.9C2271.19 2075.84 2263.13 2083.9 2253.19 2083.9 2243.25 2083.9 2235.19 2075.84 2235.19 2065.9 2235.19 2055.95 2243.25 2047.9 2253.19 2047.9 2263.13 2047.9 2271.19 2055.95 2271.19 2065.9Z" stroke="#FF0000" stroke-width="3.4375" stroke-linejoin="round" stroke-miterlimit="10" fill="none"/></g><g clip-path="url(#clip21)"><path d="M1172.5 2331.5 1359.54 2331.5 1545.55 2331.5 1732.56 2331.5 1919.56 2331.5 2106.57 2331.5 2253.5 2331.5" stroke="#0070C0" stroke-width="3.4375" stroke-linecap="round" stroke-linejoin="round" stroke-miterlimit="10" fill="none"/></g><g clip-path="url(#clip22)"><path d="M1172.19 2311.9 1192.19 2351.9 1152.19 2351.9Z" stroke="#0070C0" stroke-width="3.4375" stroke-linejoin="round" stroke-miterlimit="10" fill="none"/><path d="M1359.19 2311.9 1379.19 2351.9 1339.19 2351.9Z" stroke="#0070C0" stroke-width="3.4375" stroke-linejoin="round" stroke-miterlimit="10" fill="none"/><path d="M1546.19 2311.9 1566.19 2351.9 1526.19 2351.9Z" stroke="#0070C0" stroke-width="3.4375" stroke-linejoin="round" stroke-miterlimit="10" fill="none"/><path d="M1732.19 2311.9 1752.19 2351.9 1712.19 2351.9Z" stroke="#0070C0" stroke-width="3.4375" stroke-linejoin="round" stroke-miterlimit="10" fill="none"/><path d="M1919.19 2311.9 1939.19 2351.9 1899.19 2351.9Z" stroke="#0070C0" stroke-width="3.4375" stroke-linejoin="round" stroke-miterlimit="10" fill="none"/><path d="M2106.19 2311.9 2126.19 2351.9 2086.19 2351.9Z" stroke="#0070C0" stroke-width="3.4375" stroke-linejoin="round" stroke-miterlimit="10" fill="none"/><path d="M2253.19 2311.9 2273.19 2351.9 2233.19 2351.9Z" stroke="#0070C0" stroke-width="3.4375" stroke-linejoin="round" stroke-miterlimit="10" fill="none"/></g><g clip-path="url(#clip23)"><path d="M1172.5 1704.5 1359.54 1786.56 1545.55 1873.56 1732.56 1930.56 1919.56 1979.57 2106.57 2016.57 2253.5 2065.5" stroke="#006600" stroke-width="3.4375" stroke-linecap="round" stroke-linejoin="round" stroke-miterlimit="10" fill="none"/></g><g clip-path="url(#clip24)"><path d="M1192.69 1725.4 1151.69 1684.4M1151.69 1725.4 1192.69 1684.4" stroke="#003300" stroke-width="3.4375" stroke-linejoin="round" stroke-miterlimit="10" fill="none"/><path d="M1379.69 1807.4 1338.69 1766.4M1338.69 1807.4 1379.69 1766.4" stroke="#003300" stroke-width="3.4375" stroke-linejoin="round" stroke-miterlimit="10" fill="none"/><path d="M1566.69 1895.4 1525.69 1854.4M1525.69 1895.4 1566.69 1854.4" stroke="#003300" stroke-width="3.4375" stroke-linejoin="round" stroke-miterlimit="10" fill="none"/><path d="M1752.69 1951.4 1711.69 1910.4M1711.69 1951.4 1752.69 1910.4" stroke="#003300" stroke-width="3.4375" stroke-linejoin="round" stroke-miterlimit="10" fill="none"/><path d="M1939.69 2000.4 1898.69 1959.4M1898.69 2000.4 1939.69 1959.4" stroke="#003300" stroke-width="3.4375" stroke-linejoin="round" stroke-miterlimit="10" fill="none"/><path d="M2126.69 2037.4 2085.69 1996.4M2085.69 2037.4 2126.69 1996.4" stroke="#003300" stroke-width="3.4375" stroke-linejoin="round" stroke-miterlimit="10" fill="none"/><path d="M2273.69 2086.4 2232.69 2045.4M2232.69 2086.4 2273.69 2045.4" stroke="#003300" stroke-width="3.4375" stroke-linejoin="round" stroke-miterlimit="10" fill="none"/></g><text font-family="Times New Roman,Times New Roman_MSFontService,sans-serif" font-weight="700" font-size="101" transform="matrix(1 0 0 1 1374.21 1561)">(c) <tspan font-size="101" x="137.5" y="0">Gplus</tspan><tspan font-size="101" x="420.521" y="0">(</tspan></text><path d="M1858.12 1512.59C1862.86 1512.59 1867.82 1513.37 1873.02 1514.95L1871.14 1523.93 1866.51 1523.93C1865.91 1518.96 1863 1516.48 1857.78 1516.48 1854.78 1516.48 1852.34 1517.33 1850.43 1519.02 1848.52 1520.71 1847.57 1523.04 1847.57 1526 1847.57 1528.14 1848.41 1529.85 1850.11 1531.13 1851.8 1532.41 1854.13 1533.05 1857.09 1533.05L1864.09 1533.05 1862.95 1538.13 1858.02 1538.13C1855.52 1538.13 1853.47 1538.3 1851.86 1538.62 1850.25 1538.95 1848.74 1539.49 1847.32 1540.23 1845.91 1540.97 1844.8 1541.76 1843.99 1542.59 1843.19 1543.43 1842.59 1544.38 1842.19 1545.43 1841.8 1546.48 1841.6 1547.68 1841.6 1549.03 1841.6 1551.33 1842.39 1553.09 1843.97 1554.31 1845.55 1555.52 1847.81 1556.13 1850.77 1556.13 1853.37 1556.13 1855.88 1555.76 1858.29 1555.02 1860.71 1554.28 1863.45 1552.88 1866.51 1550.81L1868.92 1554.65C1865.5 1557.02 1862.14 1558.73 1858.84 1559.78 1855.53 1560.83 1852.07 1561.36 1848.46 1561.36 1845.17 1561.36 1842.35 1560.81 1840 1559.71 1837.65 1558.61 1835.89 1557.14 1834.72 1555.32 1833.55 1553.49 1832.97 1551.48 1832.97 1549.28 1832.97 1545.89 1834.29 1543 1836.92 1540.6 1839.55 1538.2 1843.33 1536.47 1848.26 1535.42L1848.36 1534.93C1842.64 1533.02 1839.78 1529.73 1839.78 1525.06 1839.78 1522.96 1840.43 1520.96 1841.75 1519.07 1843.06 1517.18 1845.13 1515.63 1847.94 1514.41 1850.75 1513.19 1854.14 1512.59 1858.12 1512.59Z" fill-rule="evenodd"/><text fill="#000000" fill-opacity="0" font-family="Arial,Arial_MSFontService,sans-serif" font-size="48.7739" x="1832.97" y="1555.26">ğœ€</text><path d="M1912.93 1538.67 1973.68 1538.67 1973.68 1545.23 1912.93 1545.23ZM1912.93 1518.21 1973.68 1518.21 1973.68 1524.77 1912.93 1524.77Z" fill-rule="evenodd"/><text fill="#000000" fill-opacity="0" font-family="Arial,Arial_MSFontService,sans-serif" font-size="27.0254" x="1912.93" y="1541.85">=</text><path d="M2040.49 1492.46 2043.2 1492.46C2043.01 1495.62 2042.91 1499.99 2042.91 1505.58L2042.91 1547.7C2042.91 1549.61 2043.02 1551.04 2043.23 1552.01 2043.44 1552.98 2043.82 1553.77 2044.36 1554.38 2044.91 1554.99 2045.69 1555.47 2046.71 1555.81 2047.73 1556.16 2049.01 1556.42 2050.55 1556.6 2052.1 1556.78 2054.14 1556.9 2056.67 1556.97L2056.67 1560.57 2020.22 1560.57 2020.22 1556.97C2023.87 1556.81 2026.48 1556.58 2028.04 1556.3 2029.6 1556.02 2030.79 1555.61 2031.62 1555.05 2032.44 1554.49 2033.04 1553.7 2033.42 1552.68 2033.79 1551.66 2033.98 1550 2033.98 1547.7L2033.98 1507.7C2033.98 1506.39 2033.75 1505.43 2033.29 1504.82 2032.83 1504.21 2032.16 1503.91 2031.27 1503.91 2030.22 1503.91 2028.72 1504.45 2026.78 1505.53 2024.84 1506.62 2022.44 1508.11 2019.58 1510.02L2017.41 1506.22Z" fill-rule="evenodd"/><text fill="#000000" fill-opacity="0" font-family="Arial,Arial_MSFontService,sans-serif" font-size="68.106" x="2017.41" y="1552.06">1</text><text font-family="Times New Roman,Times New Roman_MSFontService,sans-serif" font-weight="700" font-size="101" transform="matrix(1 0 0 1 2064.21 1561)">)</text><path d="M1374.56 1569.56 1615.56 1569.56 1856.56 1569.56 2097.56 1569.56 2097.56 1574.56 1856.56 1574.56 1615.56 1574.56 1374.56 1574.56Z" fill-rule="evenodd"/><text font-family="Times New Roman,Times New Roman_MSFontService,sans-serif" font-weight="700" font-size="101" transform="matrix(1 0 0 1 2749.66 1559)">(d) IMDB (</text><path d="M3261.07 1510.81C3265.8 1510.81 3270.77 1511.6 3275.96 1513.18L3274.09 1522.15 3269.45 1522.15C3268.86 1517.19 3265.95 1514.71 3260.72 1514.71 3257.73 1514.71 3255.28 1515.55 3253.38 1517.25 3251.47 1518.94 3250.52 1521.27 3250.52 1524.23 3250.52 1526.36 3251.36 1528.07 3253.06 1529.35 3254.75 1530.64 3257.07 1531.28 3260.03 1531.28L3267.04 1531.28 3265.9 1536.36 3260.97 1536.36C3258.47 1536.36 3256.42 1536.52 3254.81 1536.85 3253.19 1537.18 3251.68 1537.71 3250.27 1538.45 3248.85 1539.19 3247.75 1539.98 3246.94 1540.82 3246.13 1541.66 3245.53 1542.6 3245.14 1543.66 3244.75 1544.71 3244.55 1545.91 3244.55 1547.26 3244.55 1549.56 3245.34 1551.32 3246.92 1552.53 3248.49 1553.75 3250.76 1554.36 3253.72 1554.36 3256.32 1554.36 3258.83 1553.99 3261.24 1553.25 3263.66 1552.51 3266.4 1551.1 3269.45 1549.03L3271.87 1552.88C3268.45 1555.25 3265.09 1556.95 3261.78 1558.01 3258.48 1559.06 3255.02 1559.59 3251.4 1559.59 3248.12 1559.59 3245.3 1559.03 3242.95 1557.93 3240.59 1556.83 3238.84 1555.37 3237.67 1553.54 3236.5 1551.72 3235.92 1549.71 3235.92 1547.5 3235.92 1544.12 3237.23 1541.22 3239.86 1538.82 3242.49 1536.42 3246.27 1534.7 3251.21 1533.64L3251.3 1533.15C3245.58 1531.24 3242.72 1527.96 3242.72 1523.29 3242.72 1521.18 3243.38 1519.19 3244.7 1517.3 3246.01 1515.41 3248.07 1513.85 3250.89 1512.64 3253.7 1511.42 3257.09 1510.81 3261.07 1510.81Z" fill-rule="evenodd"/><text fill="#000000" fill-opacity="0" font-family="Arial,Arial_MSFontService,sans-serif" font-size="48.7739" x="3235.92" y="1553.49">ğœ€</text><path d="M3315.87 1536.9 3376.63 1536.9 3376.63 1543.46 3315.87 1543.46ZM3315.87 1516.43 3376.63 1516.43 3376.63 1522.99 3315.87 1522.99Z" fill-rule="evenodd"/><text fill="#000000" fill-opacity="0" font-family="Arial,Arial_MSFontService,sans-serif" font-size="27.0254" x="3315.87" y="1540.08">=</text><path d="M3443.44 1490.69 3446.15 1490.69C3445.95 1493.85 3445.86 1498.22 3445.86 1503.81L3445.86 1545.92C3445.86 1547.83 3445.96 1549.27 3446.18 1550.24 3446.39 1551.21 3446.77 1552 3447.31 1552.61 3447.85 1553.22 3448.63 1553.69 3449.65 1554.04 3450.67 1554.38 3451.96 1554.65 3453.5 1554.83 3455.05 1555.01 3457.08 1555.13 3459.62 1555.2L3459.62 1558.8 3423.17 1558.8 3423.17 1555.2C3426.82 1555.03 3429.43 1554.81 3430.99 1554.53 3432.55 1554.25 3433.74 1553.83 3434.56 1553.27 3435.38 1552.71 3435.98 1551.92 3436.36 1550.91 3436.74 1549.89 3436.93 1548.23 3436.93 1545.92L3436.93 1505.93C3436.93 1504.61 3436.7 1503.65 3436.24 1503.04 3435.78 1502.44 3435.11 1502.13 3434.22 1502.13 3433.17 1502.13 3431.67 1502.67 3429.73 1503.76 3427.79 1504.84 3425.39 1506.34 3422.53 1508.25L3420.36 1504.45Z" fill-rule="evenodd"/><text fill="#000000" fill-opacity="0" font-family="Arial,Arial_MSFontService,sans-serif" font-size="68.106" x="3420.36" y="1550.28">1</text><text font-family="Times New Roman,Times New Roman_MSFontService,sans-serif" font-weight="700" font-size="101" transform="matrix(1 0 0 1 3467.15 1559)">)</text><path d="M2749.76 1567.79 3000.09 1567.79 3250.43 1567.79 3500.76 1567.79 3500.76 1572.79 3250.43 1572.79 3000.09 1572.79 2749.76 1572.79Z" fill-rule="evenodd"/><text font-family="Times New Roman,Times New Roman_MSFontService,sans-serif" font-weight="400" font-size="92" transform="matrix(-1.83697e-16 -1 1 -1.83697e-16 1010.11 2245)">Relative Error</text><text font-family="Times New Roman,Times New Roman_MSFontService,sans-serif" font-weight="400" font-size="83" transform="matrix(1 0 0 1 1028.36 2009)">10<tspan font-size="55" x="82.5" y="-25">-</tspan><tspan font-size="55" x="100.833" y="-25">2</tspan><tspan font-size="83" x="0" y="-117">10</tspan><tspan font-size="55" x="82.5" y="-142">-</tspan><tspan font-size="55" x="100.833" y="-142">1</tspan><tspan font-size="83" x="44.0378" y="-235">1</tspan><tspan font-size="83" x="0" y="237">10</tspan><tspan font-size="55" x="82.5" y="212">-</tspan><tspan font-size="55" x="100.833" y="212">4</tspan><tspan font-size="83" x="0" y="121">10</tspan><tspan font-size="55" x="82.5" y="96">-</tspan><tspan font-size="55" x="100.833" y="96">3</tspan><tspan font-size="83" x="0" y="354">10</tspan><tspan font-size="55" x="82.5" y="329">-</tspan><tspan font-size="55" x="100.833" y="329">5</tspan><tspan font-size="83" x="22.9166" y="-354">10</tspan><tspan font-size="83" x="82.1592" y="415">10</tspan><tspan font-size="55" x="164.659" y="390">-</tspan><tspan font-size="55" x="182.992" y="390">6</tspan><tspan font-size="83" x="265.492" y="415">10</tspan><tspan font-size="55" x="347.992" y="390">-</tspan><tspan font-size="55" x="366.326" y="390">5</tspan><tspan font-size="83" x="455.701" y="415">10</tspan><tspan font-size="55" x="538.201" y="390">-</tspan><tspan font-size="55" x="556.534" y="390">4</tspan><tspan font-size="83" x="639.034" y="415">10</tspan><tspan font-size="55" x="721.534" y="390">-</tspan><tspan font-size="55" x="739.867" y="390">3</tspan><tspan font-size="83" x="829.243" y="415">10</tspan><tspan font-size="55" x="911.743" y="390">-</tspan><tspan font-size="55" x="930.076" y="390">2</tspan><tspan font-size="83" x="1019.45" y="415">10</tspan><tspan font-size="55" x="1101.95" y="390">-</tspan><tspan font-size="55" x="1120.28" y="390">1</tspan><tspan font-size="83" x="1244.25" y="415">1</tspan></text><path d="M1704.77 2472.9 1712.32 2472.9 1706.79 2497.38C1706.34 2499.36 1705.99 2501.07 1705.74 2502.52 1705.48 2503.97 1705.36 2505.3 1705.36 2506.5 1705.36 2508.06 1705.77 2509.24 1706.59 2510.05 1707.41 2510.86 1708.59 2511.26 1710.12 2511.26 1711.88 2511.26 1713.81 2510.32 1715.89 2508.43 1717.97 2506.54 1719.84 2504.18 1721.48 2501.33 1723.13 2498.49 1724.19 2495.97 1724.67 2493.78L1729.12 2472.9 1736.89 2472.9 1730.51 2501.33C1729.82 2504.42 1729.48 2506.63 1729.48 2507.98 1729.48 2509.18 1729.67 2510.05 1730.06 2510.59 1730.45 2511.12 1731.07 2511.39 1731.9 2511.39 1732.59 2511.39 1733.42 2511.12 1734.4 2510.59 1735.37 2510.05 1736.46 2509.1 1737.65 2507.76L1740.17 2510.27C1738.49 2511.92 1737 2513.19 1735.7 2514.09 1734.4 2514.99 1733.21 2515.62 1732.13 2516 1731.05 2516.37 1729.88 2516.56 1728.63 2516.56 1726.68 2516.56 1725.17 2515.98 1724.09 2514.83 1723.01 2513.68 1722.47 2512.07 1722.47 2510 1722.47 2508.32 1722.86 2506.53 1723.64 2504.61L1723.14 2504.34C1720.36 2508.47 1717.78 2511.48 1715.42 2513.35 1713.05 2515.22 1710.61 2516.16 1708.1 2516.16 1706.84 2516.16 1705.69 2515.95 1704.66 2515.55 1703.63 2515.15 1702.56 2514.37 1701.45 2513.24 1701.09 2515.03 1700.77 2517.45 1700.48 2520.49 1700.2 2523.53 1700.05 2526.26 1700.05 2528.69 1700.05 2529.59 1700.08 2530.31 1700.14 2530.85L1699.52 2533.86 1693.68 2533.86 1691.47 2531.16C1692.82 2526.19 1694.08 2521.08 1695.25 2515.84Z" fill-rule="evenodd"/><text fill="#000000" fill-opacity="0" font-family="Arial,Arial_MSFontService,sans-serif" font-size="60.959" x="1691.47" y="2526.24">ğœ‡</text><path d="M1757.7 2450.76 1762.02 2450.76 1761.07 2461 1769.48 2455.08 1771.61 2458.75 1762.28 2463.1 1771.61 2467.48 1769.48 2471.11 1761.07 2465.19 1762.02 2475.43 1757.7 2475.43 1758.69 2465.19 1750.25 2471.11 1748.09 2467.48 1757.44 2463.1 1748.09 2458.75 1750.25 2455.08 1758.69 2461Z" fill-rule="evenodd"/><text fill="#000000" fill-opacity="0" font-family="Arial,Arial_MSFontService,sans-serif" font-size="24.667" x="1748.09" y="2472.35">âˆ—</text><g clip-path="url(#clip25)"><path d="M2562.5 2341.5 3684.5 2341.5M2562.5 2238.57 3684.5 2238.57M2562.5 2135.57 3684.5 2135.57M2562.5 2032.57 3684.5 2032.57M2562.5 1929.56 3684.5 1929.56M2562.5 1827.56 3684.5 1827.56M2562.5 1724.56 3684.5 1724.56M2562.5 1621.5 3684.5 1621.5" stroke="#D9D9D9" stroke-width="3.4375" stroke-linejoin="round" stroke-miterlimit="10" fill="none"/></g><g clip-path="url(#clip26)"><path d="M2562.5 1621.5 2562.5 2341.5M2748.59 1621.5 2748.59 2341.5M2935.6 1621.5 2935.6 2341.5M3122.6 1621.5 3122.6 2341.5M3309.61 1621.5 3309.61 2341.5M3496.61 1621.5 3496.61 2341.5M3684.5 1621.5 3684.5 2341.5" stroke="#D9D9D9" stroke-width="3.4375" stroke-linejoin="round" stroke-miterlimit="10" fill="none"/></g><g clip-path="url(#clip27)"><path d="M2562.5 1697.5 2748.59 1794.56 2935.6 1867.56 3122.6 1922.56 3309.61 1955.56 3496.61 1990.57 3644.5 2040.5" stroke="#FF0000" stroke-width="3.4375" stroke-linecap="round" stroke-linejoin="round" stroke-miterlimit="10" fill="none"/></g><g clip-path="url(#clip28)"><path d="M2580.89 1697.08C2580.89 1707.02 2572.83 1715.08 2562.89 1715.08 2552.95 1715.08 2544.89 1707.02 2544.89 1697.08 2544.89 1687.14 2552.95 1679.08 2562.89 1679.08 2572.83 1679.08 2580.89 1687.14 2580.89 1697.08Z" stroke="#FF0000" stroke-width="3.4375" stroke-linejoin="round" stroke-miterlimit="10" fill="none"/><path d="M2767.89 1794.08C2767.89 1804.02 2759.83 1812.08 2749.89 1812.08 2739.95 1812.08 2731.89 1804.02 2731.89 1794.08 2731.89 1784.14 2739.95 1776.08 2749.89 1776.08 2759.83 1776.08 2767.89 1784.14 2767.89 1794.08Z" stroke="#FF0000" stroke-width="3.4375" stroke-linejoin="round" stroke-miterlimit="10" fill="none"/><path d="M2954.89 1868.08C2954.89 1878.02 2946.83 1886.08 2936.89 1886.08 2926.95 1886.08 2918.89 1878.02 2918.89 1868.08 2918.89 1858.14 2926.95 1850.08 2936.89 1850.08 2946.83 1850.08 2954.89 1858.14 2954.89 1868.08Z" stroke="#FF0000" stroke-width="3.4375" stroke-linejoin="round" stroke-miterlimit="10" fill="none"/><path d="M3141.89 1922.08C3141.89 1932.02 3133.83 1940.08 3123.89 1940.08 3113.95 1940.08 3105.89 1932.02 3105.89 1922.08 3105.89 1912.14 3113.95 1904.08 3123.89 1904.08 3133.83 1904.08 3141.89 1912.14 3141.89 1922.08Z" stroke="#FF0000" stroke-width="3.4375" stroke-linejoin="round" stroke-miterlimit="10" fill="none"/><path d="M3328.89 1955.08C3328.89 1965.02 3320.83 1973.08 3310.89 1973.08 3300.95 1973.08 3292.89 1965.02 3292.89 1955.08 3292.89 1945.14 3300.95 1937.08 3310.89 1937.08 3320.83 1937.08 3328.89 1945.14 3328.89 1955.08Z" stroke="#FF0000" stroke-width="3.4375" stroke-linejoin="round" stroke-miterlimit="10" fill="none"/><path d="M3515.89 1990.08C3515.89 2000.02 3507.83 2008.08 3497.89 2008.08 3487.95 2008.08 3479.89 2000.02 3479.89 1990.08 3479.89 1980.14 3487.95 1972.08 3497.89 1972.08 3507.83 1972.08 3515.89 1980.14 3515.89 1990.08Z" stroke="#FF0000" stroke-width="3.4375" stroke-linejoin="round" stroke-miterlimit="10" fill="none"/><path d="M3662.89 2040.08C3662.89 2050.02 3654.83 2058.08 3644.89 2058.08 3634.95 2058.08 3626.89 2050.02 3626.89 2040.08 3626.89 2030.14 3634.95 2022.08 3644.89 2022.08 3654.83 2022.08 3662.89 2030.14 3662.89 2040.08Z" stroke="#FF0000" stroke-width="3.4375" stroke-linejoin="round" stroke-miterlimit="10" fill="none"/></g><g clip-path="url(#clip29)"><path d="M2562.5 2260.5 2748.59 2260.5 2935.6 2260.5 3122.6 2260.5 3309.61 2260.5 3496.61 2260.5 3644.5 2260.5" stroke="#0070C0" stroke-width="3.4375" stroke-linecap="round" stroke-linejoin="round" stroke-miterlimit="10" fill="none"/></g><g clip-path="url(#clip30)"><path d="M2562.89 2240.08 2582.89 2280.08 2542.89 2280.08Z" stroke="#0070C0" stroke-width="3.4375" stroke-linejoin="round" stroke-miterlimit="10" fill="none"/><path d="M2749.89 2240.08 2769.89 2280.08 2729.89 2280.08Z" stroke="#0070C0" stroke-width="3.4375" stroke-linejoin="round" stroke-miterlimit="10" fill="none"/><path d="M2936.89 2240.08 2956.89 2280.08 2916.89 2280.08Z" stroke="#0070C0" stroke-width="3.4375" stroke-linejoin="round" stroke-miterlimit="10" fill="none"/><path d="M3123.89 2240.08 3143.89 2280.08 3103.89 2280.08Z" stroke="#0070C0" stroke-width="3.4375" stroke-linejoin="round" stroke-miterlimit="10" fill="none"/><path d="M3310.89 2240.08 3330.89 2280.08 3290.89 2280.08Z" stroke="#0070C0" stroke-width="3.4375" stroke-linejoin="round" stroke-miterlimit="10" fill="none"/><path d="M3497.89 2240.08 3517.89 2280.08 3477.89 2280.08Z" stroke="#0070C0" stroke-width="3.4375" stroke-linejoin="round" stroke-miterlimit="10" fill="none"/><path d="M3644.89 2240.08 3664.89 2280.08 3624.89 2280.08Z" stroke="#0070C0" stroke-width="3.4375" stroke-linejoin="round" stroke-miterlimit="10" fill="none"/></g><g clip-path="url(#clip31)"><path d="M2562.5 1715.5 2748.59 1794.56 2935.6 1867.56 3122.6 1922.56 3309.61 1955.56 3496.61 1990.57 3644.5 2040.5" stroke="#006600" stroke-width="3.4375" stroke-linecap="round" stroke-linejoin="round" stroke-miterlimit="10" fill="none"/></g><g clip-path="url(#clip32)"><path d="M2583.39 1735.58 2542.39 1694.58M2542.39 1735.58 2583.39 1694.58" stroke="#006600" stroke-width="3.4375" stroke-linejoin="round" stroke-miterlimit="10" fill="none"/><path d="M2770.39 1814.58 2729.39 1773.58M2729.39 1814.58 2770.39 1773.58" stroke="#006600" stroke-width="3.4375" stroke-linejoin="round" stroke-miterlimit="10" fill="none"/><path d="M2957.39 1888.58 2916.39 1847.58M2916.39 1888.58 2957.39 1847.58" stroke="#006600" stroke-width="3.4375" stroke-linejoin="round" stroke-miterlimit="10" fill="none"/><path d="M3144.39 1942.58 3103.39 1901.58M3103.39 1942.58 3144.39 1901.58" stroke="#006600" stroke-width="3.4375" stroke-linejoin="round" stroke-miterlimit="10" fill="none"/><path d="M3331.39 1975.58 3290.39 1934.58M3290.39 1975.58 3331.39 1934.58" stroke="#006600" stroke-width="3.4375" stroke-linejoin="round" stroke-miterlimit="10" fill="none"/><path d="M3518.39 2010.58 3477.39 1969.58M3477.39 2010.58 3518.39 1969.58" stroke="#006600" stroke-width="3.4375" stroke-linejoin="round" stroke-miterlimit="10" fill="none"/><path d="M3665.39 2060.58 3624.39 2019.58M3624.39 2060.58 3665.39 2019.58" stroke="#006600" stroke-width="3.4375" stroke-linejoin="round" stroke-miterlimit="10" fill="none"/></g><text font-family="Times New Roman,Times New Roman_MSFontService,sans-serif" font-weight="400" font-size="92" transform="matrix(-1.83697e-16 -1 1 -1.83697e-16 2397.34 2245)">Relative Error</text><text font-family="Times New Roman,Times New Roman_MSFontService,sans-serif" font-weight="400" font-size="83" transform="matrix(1 0 0 1 2415.59 1961)">10<tspan font-size="55" x="82.5" y="-25">-</tspan><tspan font-size="55" x="100.833" y="-25">2</tspan><tspan font-size="83" x="0" y="-105">10</tspan><tspan font-size="55" x="82.5" y="-130">-</tspan><tspan font-size="55" x="100.833" y="-130">1</tspan><tspan font-size="83" x="44.0378" y="-203">1</tspan><tspan font-size="83" x="0" y="204">10</tspan><tspan font-size="55" x="82.5" y="179">-</tspan><tspan font-size="55" x="100.833" y="179">4</tspan><tspan font-size="83" x="0" y="103">10</tspan><tspan font-size="55" x="82.5" y="78">-</tspan><tspan font-size="55" x="100.833" y="78">3</tspan><tspan font-size="83" x="0" y="310">10</tspan><tspan font-size="55" x="82.5" y="285">-</tspan><tspan font-size="55" x="100.833" y="285">5</tspan><tspan font-size="83" x="22.9167" y="-306">10</tspan><tspan font-size="83" x="82.1592" y="463">10</tspan><tspan font-size="55" x="164.659" y="438">-</tspan><tspan font-size="55" x="182.992" y="438">6</tspan><tspan font-size="83" x="265.492" y="463">10</tspan><tspan font-size="55" x="347.992" y="438">-</tspan><tspan font-size="55" x="366.326" y="438">5</tspan><tspan font-size="83" x="455.701" y="463">10</tspan><tspan font-size="55" x="538.201" y="438">-</tspan><tspan font-size="55" x="556.534" y="438">4</tspan><tspan font-size="83" x="639.034" y="463">10</tspan><tspan font-size="55" x="721.534" y="438">-</tspan><tspan font-size="55" x="739.867" y="438">3</tspan><tspan font-size="83" x="829.243" y="463">10</tspan><tspan font-size="55" x="911.743" y="438">-</tspan><tspan font-size="55" x="930.076" y="438">2</tspan><tspan font-size="83" x="1019.45" y="463">10</tspan><tspan font-size="55" x="1101.95" y="438">-</tspan><tspan font-size="55" x="1120.28" y="438">1</tspan><tspan font-size="83" x="1244.25" y="463">1</tspan></text><path d="M3092 2472.9 3099.55 2472.9 3094.02 2497.38C3093.57 2499.36 3093.22 2501.07 3092.96 2502.52 3092.71 2503.97 3092.58 2505.3 3092.58 2506.5 3092.58 2508.06 3092.99 2509.24 3093.82 2510.05 3094.64 2510.86 3095.82 2511.26 3097.34 2511.26 3099.11 2511.26 3101.04 2510.32 3103.12 2508.43 3105.2 2506.54 3107.06 2504.18 3108.71 2501.33 3110.36 2498.49 3111.42 2495.97 3111.9 2493.79L3116.35 2472.9 3124.12 2472.9 3117.74 2501.33C3117.05 2504.42 3116.71 2506.63 3116.71 2507.98 3116.71 2509.18 3116.9 2510.05 3117.29 2510.59 3117.68 2511.12 3118.29 2511.39 3119.13 2511.39 3119.82 2511.39 3120.65 2511.12 3121.62 2510.59 3122.6 2510.05 3123.68 2509.1 3124.88 2507.76L3127.4 2510.27C3125.72 2511.92 3124.23 2513.19 3122.93 2514.09 3121.62 2514.99 3120.43 2515.62 3119.36 2516 3118.28 2516.37 3117.11 2516.56 3115.85 2516.56 3113.91 2516.56 3112.39 2515.98 3111.32 2514.83 3110.24 2513.68 3109.7 2512.07 3109.7 2510 3109.7 2508.32 3110.09 2506.53 3110.87 2504.61L3110.37 2504.34C3107.59 2508.47 3105.01 2511.48 3102.65 2513.35 3100.28 2515.22 3097.84 2516.16 3095.32 2516.16 3094.07 2516.16 3092.92 2515.95 3091.89 2515.55 3090.85 2515.15 3089.78 2514.37 3088.67 2513.24 3088.32 2515.03 3087.99 2517.45 3087.71 2520.49 3087.42 2523.53 3087.28 2526.26 3087.28 2528.69 3087.28 2529.59 3087.31 2530.31 3087.37 2530.85L3086.74 2533.86 3080.9 2533.86 3078.7 2531.16C3080.05 2526.19 3081.31 2521.08 3082.48 2515.84Z" fill-rule="evenodd"/><text fill="#000000" fill-opacity="0" font-family="Arial,Arial_MSFontService,sans-serif" font-size="60.959" x="3078.7" y="2526.24">ğœ‡</text><path d="M3144.93 2450.76 3149.25 2450.76 3148.3 2461 3156.71 2455.08 3158.84 2458.75 3149.51 2463.1 3158.84 2467.48 3156.71 2471.11 3148.3 2465.19 3149.25 2475.43 3144.93 2475.43 3145.91 2465.19 3137.47 2471.11 3135.31 2467.48 3144.67 2463.1 3135.31 2458.75 3137.47 2455.08 3145.91 2461Z" fill-rule="evenodd"/><text fill="#000000" fill-opacity="0" font-family="Arial,Arial_MSFontService,sans-serif" font-size="24.667" x="3135.31" y="2472.35">âˆ—</text><text font-family="Times New Roman,Times New Roman_MSFontService,sans-serif" font-weight="400" font-size="83" transform="matrix(1 0 0 1 2415.59 2370)">10<tspan font-size="55" x="82.5" y="-25">-</tspan><tspan font-size="55" x="100.833" y="-25">6</tspan><tspan font-size="83" x="51.8408" y="271">16M</tspan></text><path d="M2950.39 2685.15C2946.77 2685.15 2943.99 2686.72 2942.06 2689.86 2940.12 2693.01 2939.16 2697.49 2939.16 2703.3 2939.16 2709.46 2940.14 2714.2 2942.1 2717.51 2944.06 2720.82 2946.87 2722.48 2950.52 2722.48 2952.53 2722.48 2954.24 2721.99 2955.65 2721.02 2957.05 2720.04 2958.2 2718.73 2959.08 2717.09 2959.97 2715.44 2960.6 2713.53 2960.99 2711.36 2961.38 2709.19 2961.57 2706.92 2961.57 2704.55 2961.57 2700.15 2961.09 2696.5 2960.11 2693.59 2959.14 2690.69 2957.82 2688.55 2956.14 2687.19 2954.46 2685.83 2952.55 2685.15 2950.39 2685.15ZM2995.74 2681.6C2997.72 2681.6 2999.62 2681.7 3001.47 2681.89 3003.31 2682.08 3005.62 2682.47 3008.41 2683.04L3008.41 2692.2 3004.09 2692.2C3003.44 2690.4 3002.66 2688.99 3001.76 2687.95 3000.86 2686.92 2999.84 2686.2 2998.7 2685.78 2997.57 2685.36 2996.17 2685.15 2994.53 2685.15 2992.13 2685.15 2990.22 2685.71 2988.8 2686.83 2987.38 2687.95 2986.66 2689.49 2986.66 2691.44 2986.66 2692.81 2986.95 2693.95 2987.52 2694.85 2988.09 2695.75 2988.97 2696.59 2990.17 2697.37 2991.37 2698.14 2993.48 2699.18 2996.5 2700.47 2999.56 2701.78 3001.92 2703 3003.58 2704.1 3005.24 2705.21 3006.54 2706.5 3007.49 2707.97 3008.43 2709.43 3008.9 2711.19 3008.9 2713.22 3008.9 2715.59 3008.5 2717.58 3007.69 2719.2 3006.88 2720.81 3005.74 2722.13 3004.27 2723.15 3002.81 2724.17 3001.06 2724.9 2999.04 2725.35 2997.02 2725.8 2994.81 2726.03 2992.41 2726.03 2989.9 2726.03 2987.46 2725.84 2985.09 2725.46 2982.73 2725.09 2980.42 2724.6 2978.17 2724L2978.17 2714.62 2982.58 2714.62C2983.39 2717.37 2984.58 2719.37 2986.17 2720.61 2987.76 2721.86 2989.94 2722.48 2992.73 2722.48 2993.81 2722.48 2994.86 2722.36 2995.9 2722.14 2996.93 2721.92 2997.85 2721.54 2998.66 2721.02 2999.47 2720.49 3000.11 2719.78 3000.59 2718.88 3001.07 2717.98 3001.31 2716.86 3001.31 2715.51 3001.31 2713.99 3001.01 2712.74 3000.41 2711.79 2999.81 2710.83 2998.88 2709.95 2997.63 2709.16 2996.37 2708.36 2994.15 2707.29 2990.98 2705.95 2988.25 2704.81 2986.07 2703.7 2984.42 2702.62 2982.77 2701.54 2981.48 2700.27 2980.53 2698.8 2979.59 2697.34 2979.12 2695.6 2979.12 2693.59 2979.12 2691.14 2979.78 2689 2981.12 2687.19 2982.45 2685.38 2984.37 2683.99 2986.89 2683.04 2989.4 2682.08 2992.35 2681.6 2995.74 2681.6ZM2950.57 2681.6C2956.98 2681.6 2961.83 2683.46 2965.12 2687.19 2968.42 2690.92 2970.06 2696.27 2970.06 2703.25 2970.06 2708.22 2969.24 2712.41 2967.59 2715.83 2965.95 2719.24 2963.61 2721.8 2960.59 2723.49 2957.56 2725.18 2953.98 2726.03 2949.85 2726.03 2943.62 2726.03 2938.87 2724.19 2935.59 2720.52 2932.31 2716.85 2930.67 2711.43 2930.67 2704.24 2930.67 2699.3 2931.53 2695.12 2933.25 2691.71 2934.97 2688.29 2937.33 2685.75 2940.33 2684.09 2943.32 2682.43 2946.74 2681.6 2950.57 2681.6ZM3023.61 2671.27 3029.99 2671.27 3029.99 2682.36 3044.5 2682.36 3044.5 2686.9 3029.99 2686.9 3029.99 2706.89C3029.99 2709.79 3030.11 2712.11 3030.35 2713.83 3030.59 2715.55 3031.04 2716.9 3031.7 2717.87 3032.35 2718.85 3033.1 2719.54 3033.94 2719.96 3034.78 2720.38 3035.86 2720.59 3037.18 2720.59 3038.37 2720.59 3039.5 2720.34 3040.55 2719.85 3041.59 2719.35 3042.63 2718.64 3043.65 2717.72L3045.67 2720.14C3043.54 2722.21 3041.53 2723.7 3039.62 2724.63 3037.72 2725.56 3035.75 2726.03 3033.72 2726.03 3029.85 2726.03 3026.98 2724.88 3025.09 2722.59 3023.21 2720.3 3022.26 2716.71 3022.26 2711.83L3022.26 2686.9 3015.61 2686.9 3015.61 2684.61C3017.11 2684.37 3018.32 2683.95 3019.25 2683.35 3020.18 2682.75 3020.91 2681.98 3021.43 2681.04 3021.96 2680.09 3022.37 2678.91 3022.67 2677.49 3022.97 2676.07 3023.28 2673.99 3023.61 2671.27ZM2905.31 2663.27C2908.03 2663.27 2910.55 2663.41 2912.85 2663.7 2915.16 2663.98 2917.8 2664.51 2920.76 2665.29L2920.76 2677.73 2916.31 2677.73C2915.59 2675.13 2914.68 2673.06 2913.57 2671.51 2912.46 2669.97 2911.18 2668.87 2909.71 2668.21 2908.24 2667.55 2906.48 2667.22 2904.41 2667.22 2901.32 2667.22 2898.58 2668.25 2896.17 2670.3 2893.75 2672.35 2891.86 2675.44 2890.48 2679.55 2889.11 2683.67 2888.42 2688.65 2888.42 2694.49 2888.42 2700.36 2888.99 2705.37 2890.12 2709.52 2891.26 2713.66 2892.94 2716.79 2895.15 2718.91 2897.37 2721.02 2900.1 2722.07 2903.33 2722.07 2905.79 2722.07 2907.79 2721.72 2909.35 2721.02 2910.91 2720.31 2912.22 2719.2 2913.28 2717.67 2914.34 2716.14 2915.35 2713.9 2916.31 2710.93L2920.76 2710.93 2920.76 2723.78C2917.95 2724.53 2915.06 2725.09 2912.11 2725.46 2909.16 2725.84 2905.92 2726.03 2902.39 2726.03 2894.78 2726.03 2889.03 2723.45 2885.14 2718.3 2881.24 2713.15 2879.3 2705.47 2879.3 2695.25 2879.3 2688.85 2880.31 2683.23 2882.33 2678.41 2884.35 2673.59 2887.32 2669.86 2891.25 2667.22 2895.17 2664.59 2899.86 2663.27 2905.31 2663.27Z" fill-rule="evenodd"/><text fill="#000000" fill-opacity="0" font-family="Arial,Arial_MSFontService,sans-serif" font-size="62.7559" x="2879.3" y="2718.18">Cost</text><path d="M3072.07 2704.98C3071.31 2704.98 3070.64 2704.99 3070.06 2705.01 3069.48 2705.03 3068.95 2705.07 3068.47 2705.11L3060.52 2740.54C3060.61 2740.54 3060.81 2740.54 3061.11 2740.56 3061.42 2740.57 3061.76 2740.58 3062.13 2740.59 3062.5 2740.6 3062.87 2740.61 3063.26 2740.62 3063.64 2740.63 3063.95 2740.64 3064.19 2740.64 3067.76 2740.64 3070.79 2740.09 3073.27 2738.99 3075.74 2737.88 3077.86 2736.17 3079.63 2733.83 3081.4 2731.41 3082.69 2728.88 3083.52 2726.23 3084.35 2723.58 3084.77 2720.7 3084.77 2717.61 3084.77 2715.6 3084.49 2713.81 3083.93 2712.24 3083.38 2710.67 3082.56 2709.35 3081.48 2708.27 3080.4 2707.19 3079.07 2706.37 3077.49 2705.81 3075.91 2705.26 3074.1 2704.98 3072.07 2704.98ZM3106.5 2701.58 3120.3 2701.58 3119.94 2703.54C3119.18 2703.74 3118.57 2703.9 3118.13 2704.05 3117.68 2704.19 3117.3 2704.49 3116.98 2704.95 3116.66 2705.4 3116.38 2706.09 3116.13 2706.99 3115.88 2707.9 3115.56 2709.22 3115.17 2710.97L3108.52 2740.54 3117.06 2740.54C3118.26 2740.54 3119.3 2740.44 3120.17 2740.23 3121.04 2740.02 3121.85 2739.59 3122.59 2738.92 3123.33 2738.25 3124.05 2737.31 3124.73 2736.09 3125.42 2734.87 3126.18 2733.24 3127.01 2731.22L3130.61 2731.22 3127.24 2744.01 3098.42 2744.01 3098.77 2742.01C3099.45 2741.9 3100.01 2741.77 3100.44 2741.6 3100.88 2741.44 3101.27 2741.12 3101.6 2740.65 3101.94 2740.18 3102.25 2739.48 3102.52 2738.54 3102.79 2737.61 3103.11 2736.3 3103.49 2734.62L3108.85 2710.77C3109.07 2709.81 3109.23 2708.96 3109.34 2708.22 3109.45 2707.48 3109.51 2706.84 3109.51 2706.32 3109.51 2705.36 3109.25 2704.68 3108.75 2704.27 3108.25 2703.87 3107.34 2703.66 3106 2703.64ZM3058.5 2701.58 3071.45 2701.58C3073.57 2701.58 3075.4 2701.67 3076.96 2701.87 3078.52 2702.07 3079.87 2702.36 3081 2702.75 3082.55 2703.19 3083.97 2703.82 3085.26 2704.65 3086.54 2705.48 3087.66 2706.51 3088.59 2707.74 3089.53 2708.97 3090.26 2710.41 3090.79 2712.06 3091.31 2713.71 3091.57 2715.56 3091.57 2717.61 3091.57 2721.51 3090.97 2725.08 3089.77 2728.3 3088.57 2731.53 3086.82 2734.31 3084.5 2736.63 3082.19 2738.95 3079.35 2740.76 3075.97 2742.06 3072.58 2743.36 3068.7 2744.01 3064.32 2744.01L3050.42 2744.01 3050.77 2742.01C3051.45 2741.9 3052 2741.78 3052.43 2741.64 3052.85 2741.49 3053.23 2741.19 3053.57 2740.72 3053.91 2740.25 3054.22 2739.55 3054.5 2738.61 3054.79 2737.67 3055.11 2736.34 3055.49 2734.62L3060.85 2710.77C3061.07 2709.81 3061.23 2708.96 3061.34 2708.22 3061.45 2707.48 3061.51 2706.84 3061.51 2706.32 3061.51 2705.36 3061.25 2704.68 3060.75 2704.27 3060.25 2703.87 3059.34 2703.66 3058 2703.64Z" fill-rule="evenodd"/><text fill="#000000" fill-opacity="0" font-family="Arial,Arial_MSFontService,sans-serif" font-size="42.4312" x="3050.42" y="2738.7">ğ·ğ¿</text><path d="M3193.96 2660.4 3195.17 2663.85C3188.16 2666.16 3182.97 2670.66 3179.6 2677.35 3176.23 2684.05 3174.55 2692.45 3174.55 2702.58 3174.55 2713.06 3176.23 2721.7 3179.6 2728.5 3182.97 2735.29 3188.12 2739.85 3195.03 2742.15L3193.96 2745.61C3185.18 2743.31 3178.46 2738.34 3173.79 2730.72 3169.11 2723.1 3166.78 2713.87 3166.78 2703.03 3166.78 2692.21 3169.12 2682.98 3173.81 2675.33 3178.49 2667.68 3185.21 2662.7 3193.96 2660.4Z" fill-rule="evenodd"/><text fill="#000000" fill-opacity="0" font-family="Arial,Arial_MSFontService,sans-serif" font-size="85.2168" x="3166.78" y="2734.96">(</text><path d="M3223.55 2687.03C3221.84 2687.03 3220.39 2687.3 3219.19 2687.82 3217.99 2688.34 3216.8 2689.16 3215.62 2690.27 3214.44 2691.38 3213.57 2692.47 3213.01 2693.55 3212.46 2694.63 3212.18 2695.85 3212.18 2697.23L3212.18 2709.14C3212.18 2711.44 3212.29 2713.28 3212.5 2714.64 3212.71 2716 3213.06 2717.13 3213.55 2718.03 3214.05 2718.93 3214.76 2719.75 3215.71 2720.5 3216.65 2721.25 3217.71 2721.77 3218.88 2722.05 3220.04 2722.33 3221.35 2722.48 3222.78 2722.48 3226.38 2722.48 3229.1 2721.01 3230.96 2718.07 3232.82 2715.14 3233.74 2710.74 3233.74 2704.87 3233.74 2698.94 3232.9 2694.48 3231.21 2691.5 3229.51 2688.52 3226.96 2687.03 3223.55 2687.03ZM3260.7 2681.96 3263.44 2681.96 3263.44 2714.08C3263.44 2716.65 3263.56 2718.44 3263.8 2719.44 3264.04 2720.45 3264.5 2721.21 3265.17 2721.74 3265.84 2722.26 3266.94 2722.72 3268.47 2723.11L3268.47 2725.31 3250.86 2725.31 3250.86 2723.11C3252.03 2722.75 3252.86 2722.43 3253.35 2722.16 3253.85 2721.89 3254.27 2721.52 3254.61 2721.04 3254.96 2720.56 3255.23 2719.83 3255.42 2718.84 3255.62 2717.85 3255.71 2716.31 3255.71 2714.21L3255.71 2694.63C3255.71 2692.71 3255.68 2691.17 3255.62 2690 3255.56 2688.83 3255.35 2687.89 3254.99 2687.19 3254.63 2686.49 3254.09 2685.96 3253.35 2685.62 3252.62 2685.27 3251.58 2684.98 3250.23 2684.74L3250.23 2682.36ZM3325.29 2681.6C3327.27 2681.6 3329.18 2681.7 3331.02 2681.89 3332.86 2682.08 3335.17 2682.47 3337.96 2683.04L3337.96 2692.2 3333.65 2692.2C3332.99 2690.4 3332.21 2688.99 3331.31 2687.95 3330.41 2686.92 3329.39 2686.2 3328.26 2685.78 3327.12 2685.36 3325.73 2685.15 3324.08 2685.15 3321.68 2685.15 3319.77 2685.71 3318.35 2686.83 3316.93 2687.95 3316.22 2689.49 3316.22 2691.44 3316.22 2692.81 3316.5 2693.95 3317.07 2694.85 3317.64 2695.75 3318.52 2696.59 3319.72 2697.37 3320.92 2698.14 3323.03 2699.18 3326.05 2700.47 3329.11 2701.78 3331.47 2703 3333.13 2704.1 3334.79 2705.21 3336.09 2706.5 3337.04 2707.97 3337.98 2709.43 3338.45 2711.19 3338.45 2713.22 3338.45 2715.59 3338.05 2717.58 3337.24 2719.2 3336.43 2720.81 3335.29 2722.13 3333.83 2723.15 3332.36 2724.17 3330.61 2724.9 3328.59 2725.35 3326.57 2725.8 3324.36 2726.03 3321.97 2726.03 3319.45 2726.03 3317.01 2725.84 3314.64 2725.46 3312.28 2725.09 3309.97 2724.6 3307.73 2724L3307.73 2714.62 3312.13 2714.62C3312.94 2717.37 3314.14 2719.37 3315.72 2720.61 3317.31 2721.86 3319.5 2722.48 3322.28 2722.48 3323.36 2722.48 3324.42 2722.36 3325.45 2722.14 3326.48 2721.92 3327.4 2721.54 3328.21 2721.02 3329.02 2720.49 3329.66 2719.78 3330.14 2718.88 3330.62 2717.98 3330.86 2716.86 3330.86 2715.51 3330.86 2713.99 3330.56 2712.74 3329.96 2711.79 3329.36 2710.83 3328.44 2709.95 3327.18 2709.16 3325.92 2708.36 3323.7 2707.29 3320.53 2705.95 3317.8 2704.81 3315.62 2703.7 3313.97 2702.62 3312.32 2701.54 3311.03 2700.27 3310.08 2698.8 3309.14 2697.34 3308.67 2695.6 3308.67 2693.59 3308.67 2691.14 3309.34 2689 3310.67 2687.19 3312 2685.38 3313.93 2683.99 3316.44 2683.04 3318.96 2682.08 3321.91 2681.6 3325.29 2681.6ZM3282.16 2671.27 3288.54 2671.27 3288.54 2682.36 3303.05 2682.36 3303.05 2686.9 3288.54 2686.9 3288.54 2706.89C3288.54 2709.79 3288.66 2712.11 3288.9 2713.83 3289.14 2715.55 3289.59 2716.9 3290.25 2717.87 3290.91 2718.85 3291.66 2719.54 3292.49 2719.96 3293.33 2720.38 3294.41 2720.59 3295.73 2720.59 3296.93 2720.59 3298.05 2720.34 3299.1 2719.85 3300.15 2719.35 3301.18 2718.64 3302.2 2717.72L3304.22 2720.14C3302.09 2722.21 3300.08 2723.7 3298.18 2724.63 3296.28 2725.56 3294.31 2726.03 3292.27 2726.03 3288.41 2726.03 3285.53 2724.88 3283.64 2722.59 3281.76 2720.3 3280.81 2716.71 3280.81 2711.83L3280.81 2686.9 3274.17 2686.9 3274.17 2684.61C3275.66 2684.37 3276.88 2683.95 3277.8 2683.35 3278.73 2682.75 3279.46 2681.98 3279.98 2681.04 3280.51 2680.09 3280.92 2678.91 3281.22 2677.49 3281.52 2676.07 3281.83 2673.99 3282.16 2671.27ZM3255.44 2664.75 3263.71 2664.75 3263.71 2673.47 3255.44 2673.47ZM3209.53 2661.02 3212.18 2661.02 3212.18 2689.41 3212.36 2689.46C3214.46 2687.27 3216.2 2685.69 3217.59 2684.7 3218.99 2683.71 3220.42 2682.95 3221.91 2682.43 3223.39 2681.91 3225.01 2681.64 3226.78 2681.64 3229.99 2681.64 3232.73 2682.46 3235.02 2684.09 3237.32 2685.72 3239.08 2688.17 3240.33 2691.44 3241.57 2694.7 3242.19 2698.7 3242.19 2703.43 3242.19 2708.31 3241.45 2712.44 3239.97 2715.81 3238.48 2719.18 3236.3 2721.72 3233.41 2723.44 3230.52 2725.16 3227.1 2726.03 3223.14 2726.03 3220.93 2726.03 3218.84 2725.82 3216.88 2725.42 3214.91 2725.02 3212.86 2724.3 3210.7 2723.29L3207.55 2726.03 3204.46 2725.31 3204.46 2676.48C3204.46 2673.6 3204.43 2671.6 3204.39 2670.46 3204.34 2669.32 3204.22 2668.35 3204.03 2667.56 3203.83 2666.77 3203.56 2666.15 3203.22 2665.7 3202.88 2665.25 3202.41 2664.89 3201.83 2664.62 3201.24 2664.35 3200.19 2664.08 3198.66 2663.81L3198.66 2661.47Z" fill-rule="evenodd"/><text fill="#000000" fill-opacity="0" font-family="Arial,Arial_MSFontService,sans-serif" font-size="65.002" x="3198.66" y="2717.9">bits</text><path d="M3345.52 2660.4C3354.26 2662.7 3360.98 2667.68 3365.67 2675.33 3370.35 2682.98 3372.7 2692.21 3372.7 2703.03 3372.7 2713.87 3370.36 2723.1 3365.69 2730.72 3361.02 2738.34 3354.29 2743.31 3345.52 2745.61L3344.44 2742.15C3351.36 2739.85 3356.5 2735.29 3359.87 2728.5 3363.24 2721.7 3364.92 2713.06 3364.92 2702.58 3364.92 2692.45 3363.25 2684.05 3359.89 2677.35 3356.54 2670.66 3351.34 2666.16 3344.3 2663.85Z" fill-rule="evenodd"/><text fill="#000000" fill-opacity="0" font-family="Arial,Arial_MSFontService,sans-serif" font-size="85.2168" x="3344.3" y="2734.96">)</text><text font-family="Times New Roman,Times New Roman_MSFontService,sans-serif" font-weight="400" font-size="83" transform="matrix(1 0 0 1 2648.94 2641)">160M<tspan font-size="83" x="212.665" y="0">1.6G</tspan><tspan font-size="83" x="404.754" y="0">16G</tspan><tspan font-size="83" x="576.286" y="0">160G</tspan><tspan font-size="83" x="786.428" y="0">1.6T</tspan><tspan font-size="83" x="969.429" y="0">16T</tspan><tspan font-size="83" x="-1578.3" y="1">190K</tspan></text><path d="M1561.63 2686.81C1558.01 2686.81 1555.23 2688.39 1553.3 2691.53 1551.36 2694.68 1550.4 2699.15 1550.4 2704.96 1550.4 2711.13 1551.38 2715.87 1553.34 2719.18 1555.3 2722.49 1558.11 2724.14 1561.76 2724.14 1563.77 2724.14 1565.48 2723.66 1566.89 2722.68 1568.29 2721.71 1569.44 2720.4 1570.32 2718.75 1571.21 2717.11 1571.84 2715.2 1572.23 2713.03 1572.62 2710.85 1572.81 2708.59 1572.81 2706.22 1572.81 2701.82 1572.33 2698.16 1571.35 2695.26 1570.38 2692.35 1569.06 2690.22 1567.38 2688.86 1565.7 2687.5 1563.79 2686.81 1561.63 2686.81ZM1606.98 2683.27C1608.96 2683.27 1610.86 2683.36 1612.71 2683.56 1614.55 2683.75 1616.86 2684.13 1619.65 2684.7L1619.65 2693.87 1615.33 2693.87C1614.68 2692.07 1613.9 2690.65 1613 2689.62 1612.1 2688.59 1611.08 2687.86 1609.94 2687.44 1608.81 2687.02 1607.41 2686.81 1605.77 2686.81 1603.37 2686.81 1601.46 2687.38 1600.04 2688.5 1598.62 2689.62 1597.9 2691.16 1597.9 2693.1 1597.9 2694.48 1598.19 2695.62 1598.76 2696.52 1599.33 2697.42 1600.21 2698.25 1601.41 2699.03 1602.61 2699.81 1604.72 2700.84 1607.74 2702.13 1610.8 2703.45 1613.16 2704.66 1614.82 2705.77 1616.48 2706.88 1617.78 2708.17 1618.73 2709.63 1619.67 2711.1 1620.14 2712.85 1620.14 2714.89 1620.14 2717.26 1619.74 2719.25 1618.93 2720.86 1618.12 2722.48 1616.98 2723.8 1615.51 2724.82 1614.05 2725.84 1612.3 2726.57 1610.28 2727.02 1608.26 2727.47 1606.05 2727.69 1603.65 2727.69 1601.14 2727.69 1598.7 2727.51 1596.33 2727.13 1593.97 2726.76 1591.66 2726.27 1589.41 2725.67L1589.41 2716.28 1593.82 2716.28C1594.63 2719.04 1595.82 2721.04 1597.41 2722.28 1599 2723.52 1601.18 2724.14 1603.97 2724.14 1605.05 2724.14 1606.1 2724.03 1607.14 2723.81 1608.17 2723.58 1609.09 2723.21 1609.9 2722.68 1610.71 2722.16 1611.35 2721.45 1611.83 2720.55 1612.31 2719.65 1612.55 2718.53 1612.55 2717.18 1612.55 2715.65 1612.25 2714.41 1611.65 2713.45 1611.05 2712.49 1610.12 2711.62 1608.87 2710.82 1607.61 2710.03 1605.39 2708.96 1602.22 2707.61 1599.49 2706.47 1597.31 2705.37 1595.66 2704.29 1594.01 2703.21 1592.72 2701.94 1591.77 2700.47 1590.83 2699 1590.36 2697.27 1590.36 2695.26 1590.36 2692.8 1591.02 2690.67 1592.36 2688.86 1593.69 2687.05 1595.61 2685.66 1598.13 2684.7 1600.64 2683.74 1603.59 2683.27 1606.98 2683.27ZM1561.81 2683.27C1568.22 2683.27 1573.07 2685.13 1576.36 2688.86 1579.66 2692.59 1581.31 2697.94 1581.31 2704.92 1581.31 2709.89 1580.48 2714.08 1578.83 2717.5 1577.19 2720.91 1574.85 2723.46 1571.83 2725.15 1568.8 2726.85 1565.22 2727.69 1561.09 2727.69 1554.86 2727.69 1550.11 2725.86 1546.83 2722.19 1543.55 2718.52 1541.91 2713.09 1541.91 2705.91 1541.91 2700.96 1542.77 2696.79 1544.49 2693.37 1546.21 2689.96 1548.57 2687.42 1551.57 2685.76 1554.56 2684.1 1557.98 2683.27 1561.81 2683.27ZM1634.85 2672.93 1641.23 2672.93 1641.23 2684.03 1655.74 2684.03 1655.74 2688.57 1641.23 2688.57 1641.23 2708.56C1641.23 2711.46 1641.35 2713.77 1641.59 2715.5 1641.83 2717.22 1642.28 2718.57 1642.94 2719.54 1643.59 2720.51 1644.34 2721.21 1645.18 2721.63 1646.02 2722.05 1647.1 2722.26 1648.42 2722.26 1649.61 2722.26 1650.74 2722.01 1651.79 2721.52 1652.83 2721.02 1653.87 2720.31 1654.89 2719.38L1656.91 2721.81C1654.78 2723.87 1652.77 2725.37 1650.86 2726.3 1648.96 2727.23 1646.99 2727.69 1644.96 2727.69 1641.09 2727.69 1638.22 2726.55 1636.33 2724.26 1634.45 2721.97 1633.5 2718.38 1633.5 2713.5L1633.5 2688.57 1626.85 2688.57 1626.85 2686.27C1628.35 2686.04 1629.56 2685.62 1630.49 2685.02 1631.42 2684.42 1632.15 2683.65 1632.67 2682.7 1633.2 2681.76 1633.61 2680.58 1633.91 2679.15 1634.21 2677.73 1634.52 2675.66 1634.85 2672.93ZM1516.55 2664.94C1519.27 2664.94 1521.79 2665.08 1524.09 2665.36 1526.4 2665.65 1529.04 2666.18 1532 2666.96L1532 2679.4 1527.55 2679.4C1526.83 2676.8 1525.92 2674.72 1524.81 2673.18 1523.7 2671.64 1522.42 2670.54 1520.95 2669.88 1519.48 2669.22 1517.72 2668.89 1515.65 2668.89 1512.56 2668.89 1509.82 2669.92 1507.41 2671.97 1504.99 2674.02 1503.1 2677.1 1501.72 2681.22 1500.35 2685.34 1499.66 2690.32 1499.66 2696.16 1499.66 2702.03 1500.23 2707.04 1501.36 2711.18 1502.5 2715.33 1504.18 2718.46 1506.39 2720.57 1508.61 2722.68 1511.34 2723.74 1514.57 2723.74 1517.03 2723.74 1519.03 2723.39 1520.59 2722.68 1522.15 2721.98 1523.46 2720.86 1524.52 2719.34 1525.58 2717.81 1526.59 2715.56 1527.55 2712.6L1532 2712.6 1532 2725.45C1529.19 2726.2 1526.3 2726.76 1523.35 2727.13 1520.4 2727.51 1517.16 2727.69 1513.63 2727.69 1506.02 2727.69 1500.27 2725.12 1496.38 2719.97 1492.48 2714.82 1490.54 2707.13 1490.54 2696.92 1490.54 2690.51 1491.55 2684.9 1493.57 2680.08 1495.59 2675.25 1498.56 2671.53 1502.49 2668.89 1506.41 2666.25 1511.1 2664.94 1516.55 2664.94Z" fill-rule="evenodd"/><text fill="#000000" fill-opacity="0" font-family="Arial,Arial_MSFontService,sans-serif" font-size="62.7559" x="1490.54" y="2719.85">Cost</text><path d="M1683.31 2706.65C1682.55 2706.65 1681.88 2706.66 1681.3 2706.68 1680.72 2706.7 1680.19 2706.73 1679.71 2706.78L1671.76 2742.21C1671.85 2742.21 1672.05 2742.21 1672.35 2742.22 1672.66 2742.23 1673 2742.24 1673.37 2742.26 1673.74 2742.27 1674.11 2742.28 1674.5 2742.29 1674.88 2742.3 1675.19 2742.3 1675.43 2742.3 1679 2742.3 1682.03 2741.75 1684.51 2740.65 1686.98 2739.55 1689.1 2737.83 1690.87 2735.5 1692.64 2733.08 1693.93 2730.54 1694.76 2727.89 1695.59 2725.24 1696.01 2722.37 1696.01 2719.27 1696.01 2717.27 1695.73 2715.48 1695.17 2713.91 1694.62 2712.34 1693.8 2711.01 1692.72 2709.93 1691.64 2708.85 1690.31 2708.04 1688.73 2707.48 1687.15 2706.92 1685.34 2706.65 1683.31 2706.65ZM1717.74 2703.24 1731.54 2703.24 1731.18 2705.21C1730.42 2705.4 1729.81 2705.57 1729.37 2705.71 1728.92 2705.85 1728.54 2706.15 1728.22 2706.61 1727.9 2707.07 1727.62 2707.75 1727.37 2708.66 1727.12 2709.56 1726.8 2710.89 1726.41 2712.63L1719.76 2742.21 1728.3 2742.21C1729.5 2742.21 1730.54 2742.1 1731.41 2741.9 1732.28 2741.69 1733.09 2741.25 1733.83 2740.59 1734.57 2739.92 1735.29 2738.98 1735.97 2737.76 1736.66 2736.54 1737.42 2734.91 1738.25 2732.88L1741.85 2732.88 1738.48 2745.67 1709.66 2745.67 1710.01 2743.68C1710.69 2743.57 1711.25 2743.43 1711.68 2743.27 1712.12 2743.11 1712.51 2742.79 1712.84 2742.32 1713.18 2741.85 1713.49 2741.15 1713.76 2740.21 1714.03 2739.27 1714.36 2737.96 1714.73 2736.28L1720.09 2712.44C1720.31 2711.48 1720.47 2710.63 1720.58 2709.88 1720.69 2709.14 1720.75 2708.51 1720.75 2707.99 1720.75 2707.03 1720.49 2706.35 1719.99 2705.94 1719.49 2705.54 1718.58 2705.33 1717.24 2705.3ZM1669.74 2703.24 1682.69 2703.24C1684.81 2703.24 1686.64 2703.34 1688.2 2703.54 1689.76 2703.73 1691.11 2704.03 1692.24 2704.42 1693.79 2704.86 1695.21 2705.49 1696.5 2706.32 1697.78 2707.15 1698.9 2708.18 1699.83 2709.41 1700.77 2710.64 1701.5 2712.08 1702.03 2713.73 1702.55 2715.37 1702.81 2717.22 1702.81 2719.27 1702.81 2723.18 1702.21 2726.74 1701.01 2729.97 1699.81 2733.2 1698.06 2735.97 1695.74 2738.3 1693.43 2740.62 1690.59 2742.43 1687.21 2743.73 1683.82 2745.03 1679.94 2745.67 1675.56 2745.67L1661.66 2745.67 1662.01 2743.68C1662.69 2743.57 1663.24 2743.44 1663.67 2743.3 1664.09 2743.16 1664.47 2742.86 1664.81 2742.39 1665.15 2741.92 1665.46 2741.21 1665.74 2740.28 1666.03 2739.34 1666.36 2738.01 1666.73 2736.28L1672.09 2712.44C1672.31 2711.48 1672.47 2710.63 1672.58 2709.88 1672.69 2709.14 1672.75 2708.51 1672.75 2707.99 1672.75 2707.03 1672.49 2706.35 1671.99 2705.94 1671.49 2705.54 1670.58 2705.33 1669.24 2705.3Z" fill-rule="evenodd"/><text fill="#000000" fill-opacity="0" font-family="Arial,Arial_MSFontService,sans-serif" font-size="42.4312" x="1661.66" y="2740.37">ğ·ğ¿</text><path d="M1805.19 2662.06 1806.41 2665.52C1799.4 2667.83 1794.21 2672.33 1790.84 2679.02 1787.47 2685.71 1785.79 2694.12 1785.79 2704.24 1785.79 2714.73 1787.47 2723.37 1790.84 2730.16 1794.21 2736.96 1799.36 2741.51 1806.27 2743.82L1805.19 2747.28C1796.42 2744.97 1789.7 2740.01 1785.03 2732.39 1780.35 2724.77 1778.02 2715.53 1778.02 2704.69 1778.02 2693.88 1780.36 2684.65 1785.05 2677 1789.73 2669.35 1796.45 2664.37 1805.19 2662.06Z" fill-rule="evenodd"/><text fill="#000000" fill-opacity="0" font-family="Arial,Arial_MSFontService,sans-serif" font-size="85.2168" x="1778.02" y="2736.63">(</text><path d="M1834.79 2688.7C1833.08 2688.7 1831.63 2688.96 1830.43 2689.49 1829.23 2690.01 1828.04 2690.83 1826.86 2691.94 1825.68 2693.04 1824.81 2694.14 1824.25 2695.21 1823.7 2696.29 1823.42 2697.52 1823.42 2698.9L1823.42 2710.8C1823.42 2713.11 1823.53 2714.94 1823.74 2716.31 1823.95 2717.67 1824.3 2718.8 1824.79 2719.7 1825.29 2720.6 1826 2721.42 1826.95 2722.17 1827.89 2722.92 1828.95 2723.43 1830.11 2723.72 1831.28 2724 1832.59 2724.14 1834.02 2724.14 1837.62 2724.14 1840.34 2722.68 1842.2 2719.74 1844.06 2716.81 1844.98 2712.4 1844.98 2706.53 1844.98 2700.6 1844.14 2696.15 1842.45 2693.17 1840.75 2690.19 1838.2 2688.7 1834.79 2688.7ZM1871.94 2683.62 1874.68 2683.62 1874.68 2715.74C1874.68 2718.32 1874.8 2720.11 1875.04 2721.11 1875.28 2722.11 1875.73 2722.88 1876.41 2723.4 1877.08 2723.93 1878.18 2724.38 1879.71 2724.77L1879.71 2726.97 1862.1 2726.97 1862.1 2724.77C1863.27 2724.41 1864.1 2724.1 1864.59 2723.83 1865.09 2723.56 1865.51 2723.19 1865.85 2722.71 1866.2 2722.23 1866.47 2721.49 1866.66 2720.51 1866.86 2719.52 1866.95 2717.97 1866.95 2715.88L1866.95 2696.29C1866.95 2694.38 1866.92 2692.83 1866.86 2691.67 1866.8 2690.5 1866.59 2689.56 1866.23 2688.86 1865.87 2688.15 1865.33 2687.63 1864.59 2687.29 1863.86 2686.94 1862.82 2686.65 1861.47 2686.41L1861.47 2684.03ZM1936.53 2683.27C1938.51 2683.27 1940.42 2683.36 1942.26 2683.56 1944.1 2683.75 1946.41 2684.13 1949.2 2684.7L1949.2 2693.87 1944.89 2693.87C1944.23 2692.07 1943.45 2690.65 1942.55 2689.62 1941.65 2688.59 1940.63 2687.86 1939.5 2687.44 1938.36 2687.02 1936.97 2686.81 1935.32 2686.81 1932.92 2686.81 1931.01 2687.38 1929.59 2688.5 1928.17 2689.62 1927.46 2691.16 1927.46 2693.1 1927.46 2694.48 1927.74 2695.62 1928.31 2696.52 1928.88 2697.42 1929.76 2698.25 1930.96 2699.03 1932.16 2699.81 1934.27 2700.84 1937.29 2702.13 1940.35 2703.45 1942.71 2704.66 1944.37 2705.77 1946.03 2706.88 1947.33 2708.17 1948.28 2709.63 1949.22 2711.1 1949.69 2712.85 1949.69 2714.89 1949.69 2717.26 1949.29 2719.25 1948.48 2720.86 1947.67 2722.48 1946.53 2723.8 1945.07 2724.82 1943.6 2725.84 1941.85 2726.57 1939.83 2727.02 1937.81 2727.47 1935.6 2727.69 1933.21 2727.69 1930.69 2727.69 1928.25 2727.51 1925.88 2727.13 1923.52 2726.76 1921.21 2726.27 1918.97 2725.67L1918.97 2716.28 1923.37 2716.28C1924.18 2719.04 1925.38 2721.04 1926.96 2722.28 1928.55 2723.52 1930.74 2724.14 1933.52 2724.14 1934.6 2724.14 1935.65 2724.03 1936.69 2723.81 1937.72 2723.58 1938.64 2723.21 1939.45 2722.68 1940.26 2722.16 1940.9 2721.45 1941.38 2720.55 1941.86 2719.65 1942.1 2718.53 1942.1 2717.18 1942.1 2715.65 1941.8 2714.41 1941.2 2713.45 1940.6 2712.49 1939.68 2711.62 1938.42 2710.82 1937.16 2710.03 1934.94 2708.96 1931.77 2707.61 1929.04 2706.47 1926.86 2705.37 1925.21 2704.29 1923.56 2703.21 1922.27 2701.94 1921.32 2700.47 1920.38 2699 1919.91 2697.27 1919.91 2695.26 1919.91 2692.8 1920.58 2690.67 1921.91 2688.86 1923.24 2687.05 1925.17 2685.66 1927.68 2684.7 1930.2 2683.74 1933.15 2683.27 1936.53 2683.27ZM1893.4 2672.93 1899.78 2672.93 1899.78 2684.03 1914.29 2684.03 1914.29 2688.57 1899.78 2688.57 1899.78 2708.56C1899.78 2711.46 1899.9 2713.77 1900.14 2715.5 1900.38 2717.22 1900.83 2718.57 1901.49 2719.54 1902.15 2720.51 1902.9 2721.21 1903.73 2721.63 1904.57 2722.05 1905.65 2722.26 1906.97 2722.26 1908.17 2722.26 1909.29 2722.01 1910.34 2721.52 1911.39 2721.02 1912.42 2720.31 1913.44 2719.38L1915.46 2721.81C1913.33 2723.87 1911.32 2725.37 1909.42 2726.3 1907.51 2727.23 1905.55 2727.69 1903.51 2727.69 1899.65 2727.69 1896.77 2726.55 1894.88 2724.26 1893 2721.97 1892.05 2718.38 1892.05 2713.5L1892.05 2688.57 1885.41 2688.57 1885.41 2686.27C1886.9 2686.04 1888.12 2685.62 1889.04 2685.02 1889.97 2684.42 1890.7 2683.65 1891.22 2682.7 1891.75 2681.76 1892.16 2680.58 1892.46 2679.15 1892.76 2677.73 1893.07 2675.66 1893.4 2672.93ZM1866.68 2666.42 1874.95 2666.42 1874.95 2675.13 1866.68 2675.13ZM1820.77 2662.69 1823.42 2662.69 1823.42 2691.08 1823.6 2691.13C1825.7 2688.94 1827.44 2687.35 1828.83 2686.36 1830.23 2685.38 1831.66 2684.62 1833.15 2684.1 1834.63 2683.57 1836.25 2683.31 1838.02 2683.31 1841.23 2683.31 1843.97 2684.13 1846.26 2685.76 1848.56 2687.39 1850.32 2689.84 1851.57 2693.1 1852.81 2696.37 1853.43 2700.37 1853.43 2705.1 1853.43 2709.98 1852.69 2714.1 1851.21 2717.47 1849.72 2720.84 1847.54 2723.39 1844.65 2725.11 1841.76 2726.83 1838.34 2727.69 1834.38 2727.69 1832.17 2727.69 1830.08 2727.49 1828.12 2727.09 1826.15 2726.68 1824.1 2725.97 1821.94 2724.95L1818.79 2727.69 1815.69 2726.97 1815.69 2678.14C1815.69 2675.27 1815.67 2673.26 1815.63 2672.12 1815.58 2670.99 1815.46 2670.02 1815.27 2669.23 1815.07 2668.43 1814.8 2667.81 1814.46 2667.36 1814.12 2666.91 1813.65 2666.55 1813.07 2666.28 1812.48 2666.02 1811.43 2665.75 1809.9 2665.48L1809.9 2663.14Z" fill-rule="evenodd"/><text fill="#000000" fill-opacity="0" font-family="Arial,Arial_MSFontService,sans-serif" font-size="65.002" x="1809.9" y="2719.57">bits</text><path d="M1956.76 2662.06C1965.5 2664.37 1972.22 2669.35 1976.9 2677 1981.59 2684.65 1983.94 2693.88 1983.94 2704.69 1983.94 2715.53 1981.6 2724.77 1976.93 2732.39 1972.26 2740.01 1965.53 2744.97 1956.76 2747.28L1955.68 2743.82C1962.6 2741.51 1967.74 2736.96 1971.11 2730.16 1974.48 2723.37 1976.16 2714.73 1976.16 2704.24 1976.16 2694.12 1974.49 2685.71 1971.13 2679.02 1967.78 2672.33 1962.58 2667.83 1955.54 2665.52Z" fill-rule="evenodd"/><text fill="#000000" fill-opacity="0" font-family="Arial,Arial_MSFontService,sans-serif" font-size="85.2168" x="1955.54" y="2736.63">)</text><text font-family="Times New Roman,Times New Roman_MSFontService,sans-serif" font-weight="400" font-size="83" transform="matrix(1 0 0 1 1268.96 2642)">1.9M<tspan font-size="83" x="192.796" y="0">19M</tspan><tspan font-size="83" x="366.999" y="0">190M</tspan><tspan font-size="83" x="580.869" y="0">1.9G</tspan><tspan font-size="83" x="763.947" y="0">19G</tspan><tspan font-size="83" x="932.566" y="0">190G</tspan><tspan font-size="83" x="2213.61" y="88">(400G)</tspan></text><rect x="3436.5" y="2566.5" width="331" height="91" stroke="#000000" stroke-width="3.4375" stroke-miterlimit="8" fill="none"/><text font-family="Times New Roman,Times New Roman_MSFontService,sans-serif" font-weight="400" font-size="83" transform="matrix(1 0 0 1 2128.54 2730)">(6G)</text><rect x="2027.5" y="2566.5" width="364" height="91" stroke="#000000" stroke-width="3.4375" stroke-miterlimit="8" fill="none"/></g></svg>