<svg width="2833" height="1233" xmlns="http://www.w3.org/2000/svg" xmlns:xlink="http://www.w3.org/1999/xlink" overflow="hidden"><defs><clipPath id="clip0"><rect x="894" y="555" width="2833" height="1233"/></clipPath><clipPath id="clip1"><rect x="1150" y="699" width="701" height="962"/></clipPath><clipPath id="clip2"><rect x="1184" y="749" width="652" height="879"/></clipPath><clipPath id="clip3"><rect x="1184" y="749" width="652" height="879"/></clipPath><clipPath id="clip4"><rect x="1184" y="749" width="652" height="879"/></clipPath><clipPath id="clip5"><rect x="2060" y="723" width="695" height="935"/></clipPath><clipPath id="clip6"><rect x="2079" y="749" width="661" height="877"/></clipPath><clipPath id="clip7"><rect x="2079" y="749" width="661" height="877"/></clipPath><clipPath id="clip8"><rect x="2079" y="749" width="661" height="877"/></clipPath><clipPath id="clip9"><rect x="2986" y="715" width="715" height="935"/></clipPath><clipPath id="clip10"><rect x="3021" y="750" width="664" height="877"/></clipPath><clipPath id="clip11"><rect x="3021" y="750" width="664" height="877"/></clipPath><clipPath id="clip12"><rect x="3021" y="750" width="664" height="877"/></clipPath></defs><g clip-path="url(#clip0)" transform="translate(-894 -555)"><g clip-path="url(#clip1)"><path d="M1184.5 1624.5 1832.5 1624.5M1184.5 1405.55 1832.5 1405.55M1184.5 1186.54 1832.5 1186.54M1184.5 968.532 1832.5 968.532M1184.5 749.5 1832.5 749.5" stroke="#D9D9D9" stroke-width="3.4375" stroke-linejoin="round" stroke-miterlimit="10" fill="none"/></g><g clip-path="url(#clip2)"><rect x="1238.5" y="1226.5" width="108" height="398" stroke="#FF0000" stroke-width="3.4375" stroke-linejoin="round" stroke-miterlimit="10" fill="#FF0000"/></g><g clip-path="url(#clip3)"><rect x="1454.5" y="1227.5" width="108" height="397" stroke="#0070C0" stroke-width="3.4375" stroke-linejoin="round" stroke-miterlimit="10" fill="#4472C4"/></g><g clip-path="url(#clip4)"><rect x="1670.5" y="819.5" width="108" height="805" stroke="#006600" stroke-width="3.4375" stroke-linejoin="round" stroke-miterlimit="10" fill="#006600"/></g><path d="M1069.82 596.705 1121.82 596.705 1121.82 648.705 1069.82 648.705Z" stroke="#FF0000" stroke-width="8.47303" stroke-linejoin="round" stroke-miterlimit="10" fill="#FF0000" fill-rule="evenodd"/><path d="M1385.36 616.511 1399 616.511 1399 642.551C1399 646.176 1399.63 648.555 1400.89 649.688 1402.15 650.821 1403.67 651.387 1405.45 651.387 1406.67 651.387 1408.05 651.005 1409.6 650.24 1411.14 649.476 1412.97 648.017 1415.1 645.865L1415.1 623.818C1415.1 621.609 1414.69 620.115 1413.89 619.336 1413.08 618.557 1411.4 618.139 1408.85 618.083L1408.85 616.511 1422.11 616.511 1422.11 640.088C1422.11 644.59 1422.21 647.345 1422.43 648.35 1422.64 649.355 1422.98 650.056 1423.45 650.453 1423.91 650.849 1424.46 651.047 1425.08 651.047 1425.96 651.047 1426.95 650.807 1428.05 650.325L1428.65 651.812 1417.01 656.612 1415.1 656.612 1415.1 648.371C1411.76 651.996 1409.21 654.276 1407.45 655.211 1405.7 656.145 1403.84 656.612 1401.89 656.612 1399.71 656.612 1397.82 655.982 1396.22 654.722 1394.62 653.462 1393.5 651.84 1392.88 649.858 1392.26 647.876 1391.95 645.072 1391.95 641.447L1391.95 624.072C1391.95 622.232 1391.75 620.957 1391.35 620.249 1390.95 619.541 1390.37 618.996 1389.59 618.614 1388.81 618.231 1387.4 618.054 1385.36 618.083ZM1187.12 609.714 1177.1 632.993 1196.89 632.993ZM1303.83 601.048C1302.19 601.048 1299.96 601.317 1297.16 601.855L1297.16 625.814C1297.7 625.814 1298.17 625.821 1298.56 625.835 1298.96 625.849 1299.28 625.857 1299.54 625.857 1305.03 625.857 1309.18 624.667 1311.97 622.288 1314.75 619.909 1316.15 616.879 1316.15 613.197 1316.15 609.601 1315.02 606.677 1312.77 604.425 1310.52 602.174 1307.54 601.048 1303.83 601.048ZM1245.83 601.048C1244.19 601.048 1241.96 601.317 1239.16 601.855L1239.16 625.814C1239.7 625.814 1240.17 625.821 1240.56 625.835 1240.96 625.849 1241.28 625.857 1241.54 625.857 1247.03 625.857 1251.18 624.667 1253.97 622.288 1256.75 619.909 1258.15 616.879 1258.15 613.197 1258.15 609.601 1257.02 606.677 1254.77 604.425 1252.52 602.174 1249.54 601.048 1245.83 601.048ZM1338.68 597.819 1381.54 597.819 1382.09 610.479 1380.61 610.479C1379.87 607.788 1379.01 605.813 1378.04 604.553 1377.06 603.292 1375.86 602.379 1374.43 601.813 1373 601.246 1370.78 600.963 1367.78 600.963L1355.08 600.963 1355.08 623.605 1365.57 623.605C1367.98 623.605 1369.74 623.074 1370.86 622.012 1371.98 620.95 1372.72 618.847 1373.09 615.704L1374.66 615.704 1374.66 635.202 1373.09 635.202C1373.06 632.965 1372.77 631.322 1372.22 630.275 1371.66 629.227 1370.9 628.441 1369.92 627.917 1368.95 627.393 1367.49 627.131 1365.57 627.131L1355.08 627.131 1355.08 645.228C1355.08 648.145 1355.26 650.07 1355.63 651.005 1355.91 651.713 1356.51 652.322 1357.41 652.832 1358.66 653.511 1359.96 653.851 1361.32 653.851L1363.4 653.851 1363.4 655.423 1338.68 655.423 1338.68 653.851 1340.72 653.851C1343.1 653.851 1344.82 653.157 1345.9 651.77 1346.58 650.863 1346.92 648.683 1346.92 645.228L1346.92 608.015C1346.92 605.098 1346.74 603.172 1346.37 602.237 1346.08 601.529 1345.5 600.921 1344.63 600.411 1343.41 599.731 1342.11 599.391 1340.72 599.391L1338.68 599.391ZM1280.76 597.819 1301.75 597.819C1307.87 597.819 1312.38 598.266 1315.28 599.158 1318.18 600.05 1320.65 601.692 1322.67 604.085 1324.7 606.478 1325.71 609.332 1325.71 612.645 1325.71 616.185 1324.55 619.258 1322.25 621.863 1319.94 624.469 1316.36 626.31 1311.52 627.386L1323.41 643.911C1326.13 647.706 1328.47 650.226 1330.42 651.472 1332.38 652.718 1334.93 653.511 1338.07 653.851L1338.07 655.423 1322.69 655.423 1303.19 628.49C1301.75 628.547 1300.57 628.575 1299.67 628.575 1299.3 628.575 1298.9 628.568 1298.48 628.554 1298.05 628.54 1297.61 628.519 1297.16 628.49L1297.16 645.228C1297.16 648.853 1297.56 651.104 1298.35 651.982 1299.43 653.228 1301.04 653.851 1303.19 653.851L1305.44 653.851 1305.44 655.423 1280.76 655.423 1280.76 653.851 1282.93 653.851C1285.37 653.851 1287.11 653.058 1288.15 651.472 1288.75 650.594 1289.05 648.513 1289.05 645.228L1289.05 608.015C1289.05 604.39 1288.65 602.138 1287.86 601.26 1286.75 600.014 1285.11 599.391 1282.93 599.391L1280.76 599.391ZM1222.76 597.819 1243.75 597.819C1249.87 597.819 1254.38 598.266 1257.28 599.158 1260.18 600.05 1262.65 601.692 1264.67 604.085 1266.7 606.478 1267.71 609.332 1267.71 612.645 1267.71 616.185 1266.55 619.258 1264.25 621.863 1261.94 624.469 1258.36 626.31 1253.52 627.386L1265.41 643.911C1268.13 647.706 1270.47 650.226 1272.42 651.472 1274.38 652.718 1276.93 653.511 1280.07 653.851L1280.07 655.423 1264.69 655.423 1245.19 628.49C1243.75 628.547 1242.57 628.575 1241.67 628.575 1241.3 628.575 1240.9 628.568 1240.48 628.554 1240.05 628.54 1239.61 628.519 1239.16 628.49L1239.16 645.228C1239.16 648.853 1239.56 651.104 1240.35 651.982 1241.43 653.228 1243.04 653.851 1245.19 653.851L1247.44 653.851 1247.44 655.423 1222.76 655.423 1222.76 653.851 1224.93 653.851C1227.37 653.851 1229.11 653.058 1230.15 651.472 1230.75 650.594 1231.05 648.513 1231.05 645.228L1231.05 608.015C1231.05 604.39 1230.65 602.138 1229.86 601.26 1228.75 600.014 1227.11 599.391 1224.93 599.391L1222.76 599.391ZM1188.69 596.503 1190.18 596.503 1210.23 644.421C1211.84 648.272 1213.31 650.771 1214.63 651.918 1215.94 653.065 1217.78 653.71 1220.13 653.851L1220.13 655.423 1197.4 655.423 1197.4 653.851C1199.69 653.738 1201.25 653.356 1202.05 652.704 1202.86 652.053 1203.26 651.26 1203.26 650.325 1203.26 649.079 1202.7 647.111 1201.56 644.421L1198.08 636.137 1175.78 636.137 1171.87 645.228C1170.91 647.465 1170.43 649.136 1170.43 650.24 1170.43 651.118 1170.84 651.89 1171.68 652.556 1172.51 653.221 1174.32 653.653 1177.1 653.851L1177.1 655.423 1158.96 655.423 1158.96 653.851C1161.36 653.426 1162.92 652.874 1163.63 652.194 1165.07 650.835 1166.67 648.074 1168.43 643.911Z" fill-rule="evenodd"/><text fill="#000000" fill-opacity="0" font-family="Arial,Arial_MSFontService,sans-serif" font-size="60.1099" x="1158.96" y="649.099">ARRFu</text><path d="M1465.18 594.633 1467.73 594.633 1467.73 644.803C1467.73 647.238 1467.84 648.931 1468.07 649.879 1468.3 650.828 1468.73 651.55 1469.36 652.046 1470 652.541 1471.04 652.973 1472.49 653.341L1472.49 655.423 1455.62 655.423 1455.62 653.341C1457.04 652.973 1458.02 652.591 1458.57 652.194 1459.13 651.798 1459.52 651.324 1459.76 650.771 1460 650.219 1460.17 649.469 1460.27 648.52 1460.37 647.571 1460.42 646.332 1460.42 644.803L1460.42 609.247C1460.42 606.528 1460.4 604.63 1460.36 603.554 1460.32 602.478 1460.2 601.565 1460.02 600.814 1459.83 600.064 1459.58 599.476 1459.25 599.051 1458.93 598.627 1458.49 598.287 1457.94 598.032 1457.38 597.777 1456.39 597.522 1454.94 597.267L1454.94 595.058ZM1442.18 594.633 1444.73 594.633 1444.73 644.803C1444.73 647.238 1444.84 648.931 1445.07 649.879 1445.3 650.828 1445.73 651.55 1446.36 652.046 1447 652.541 1448.04 652.973 1449.49 653.341L1449.49 655.423 1432.62 655.423 1432.62 653.341C1434.04 652.973 1435.02 652.591 1435.57 652.194 1436.13 651.798 1436.52 651.324 1436.76 650.771 1437 650.219 1437.17 649.469 1437.27 648.52 1437.37 647.571 1437.42 646.332 1437.42 644.803L1437.42 609.247C1437.42 606.528 1437.4 604.63 1437.36 603.554 1437.32 602.478 1437.2 601.565 1437.02 600.814 1436.83 600.064 1436.58 599.476 1436.25 599.051 1435.93 598.627 1435.49 598.287 1434.94 598.032 1434.38 597.777 1433.39 597.522 1431.94 597.267L1431.94 595.058Z" fill-rule="evenodd"/><text fill="#000000" fill-opacity="0" font-family="Arial,Arial_MSFontService,sans-serif" font-size="60.7896" x="1431.94" y="647.824">ll</text><path d="M1495.28 636.956 1483.37 668.206 1505.12 668.206ZM1494.18 630.05 1498.81 630.05 1512 671.206 1512 673.206 1477.84 673.206 1477.84 671.206Z" fill-rule="evenodd"/><text fill="#000000" fill-opacity="0" font-family="Arial,Arial_MSFontService,sans-serif" font-size="43.1562" x="1477.84" y="667.812">∆</text><path d="M1569.93 594.039 1571.08 597.31C1564.45 599.49 1559.55 603.745 1556.36 610.075 1553.17 616.405 1551.58 624.356 1551.58 633.928 1551.58 643.84 1553.17 652.01 1556.36 658.439 1559.55 664.868 1564.41 669.172 1570.95 671.353L1569.93 674.624C1561.63 672.443 1555.28 667.749 1550.86 660.542 1546.44 653.334 1544.23 644.605 1544.23 634.353 1544.23 624.129 1546.45 615.399 1550.88 608.163 1555.31 600.928 1561.66 596.219 1569.93 594.039Z" fill-rule="evenodd"/><text fill="#000000" fill-opacity="0" font-family="Arial,Arial_MSFontService,sans-serif" font-size="80.5854" x="1544.23" y="664.551">(</text><path d="M1596.21 601.133C1594.29 601.133 1592.46 601.19 1590.73 601.303L1590.73 651.472C1591.87 651.586 1593.54 651.642 1595.75 651.642 1598.12 651.642 1600.25 651.444 1602.12 651.047 1603.99 650.651 1605.69 650.028 1607.22 649.178 1608.74 648.329 1610.12 647.146 1611.34 645.631 1612.55 644.116 1613.54 642.374 1614.31 640.406 1615.07 638.438 1615.63 636.25 1615.99 633.843 1616.34 631.436 1616.52 628.802 1616.52 625.942 1616.52 620.193 1615.69 615.47 1614.03 611.774 1612.38 608.078 1610.04 605.381 1607.02 603.682 1604.01 601.983 1600.4 601.133 1596.21 601.133ZM1577.78 597.437 1596.38 597.437C1601.74 597.437 1606.12 598.025 1609.53 599.2 1612.94 600.375 1615.82 602.11 1618.18 604.404 1620.53 606.698 1622.28 609.551 1623.44 612.964 1624.6 616.376 1625.18 620.447 1625.18 625.177 1625.18 629.963 1624.64 634.176 1623.55 637.815 1622.46 641.454 1620.87 644.505 1618.77 646.969 1616.96 649.122 1614.73 650.892 1612.1 652.279 1609.92 653.412 1607.4 654.219 1604.54 654.701 1601.68 655.182 1597.88 655.423 1593.15 655.423L1577.78 655.423 1577.78 653.341C1579.08 653.002 1580.01 652.676 1580.58 652.364 1581.15 652.053 1581.59 651.656 1581.9 651.175 1582.21 650.693 1582.43 650 1582.58 649.093 1582.72 648.187 1582.79 646.757 1582.79 644.803L1582.79 608.057C1582.79 606.075 1582.72 604.638 1582.58 603.745 1582.43 602.853 1582.2 602.167 1581.88 601.685 1581.55 601.204 1581.12 600.814 1580.58 600.517 1580.04 600.22 1579.11 599.887 1577.78 599.519ZM1660.33 596.757C1662.91 596.757 1665.29 596.892 1667.47 597.161 1669.65 597.43 1672.14 597.933 1674.94 598.669L1674.94 610.436 1670.74 610.436C1670.06 607.972 1669.19 606.011 1668.15 604.553 1667.1 603.094 1665.88 602.053 1664.49 601.43 1663.11 600.807 1661.43 600.496 1659.48 600.496 1656.56 600.496 1653.96 601.466 1651.69 603.406 1649.41 605.346 1647.61 608.263 1646.31 612.157 1645.01 616.051 1644.36 620.759 1644.36 626.281 1644.36 631.832 1644.9 636.569 1645.97 640.491 1647.05 644.413 1648.63 647.373 1650.73 649.37 1652.83 651.366 1655.4 652.364 1658.46 652.364 1660.78 652.364 1662.68 652.032 1664.15 651.366 1665.63 650.701 1666.86 649.646 1667.87 648.201 1668.88 646.757 1669.83 644.633 1670.74 641.829L1674.94 641.829 1674.94 653.979C1672.28 654.687 1669.56 655.218 1666.77 655.572 1663.98 655.926 1660.91 656.103 1657.57 656.103 1650.38 656.103 1644.94 653.667 1641.26 648.796 1637.57 643.925 1635.73 636.661 1635.73 627.004 1635.73 620.943 1636.69 615.633 1638.6 611.073 1640.51 606.514 1643.32 602.988 1647.03 600.496 1650.74 598.004 1655.18 596.757 1660.33 596.757Z" fill-rule="evenodd"/><text fill="#000000" fill-opacity="0" font-family="Arial,Arial_MSFontService,sans-serif" font-size="59.3452" x="1577.78" y="648.685">DC</text><path d="M1682.58 594.039C1690.84 596.219 1697.2 600.928 1701.63 608.163 1706.06 615.399 1708.28 624.129 1708.28 634.353 1708.28 644.605 1706.07 653.334 1701.65 660.542 1697.23 667.749 1690.87 672.443 1682.58 674.624L1681.56 671.353C1688.1 669.172 1692.96 664.868 1696.15 658.439 1699.33 652.01 1700.93 643.84 1700.93 633.928 1700.93 624.356 1699.34 616.405 1696.17 610.075 1693 603.745 1688.08 599.49 1681.43 597.31Z" fill-rule="evenodd"/><text fill="#000000" fill-opacity="0" font-family="Arial,Arial_MSFontService,sans-serif" font-size="80.5854" x="1681.43" y="664.551">)</text><path d="M1861.82 596.708 1913.82 596.708 1913.82 645.708 1861.82 645.708Z" stroke="#0070C0" stroke-width="8.47303" stroke-linejoin="round" stroke-miterlimit="10" fill="#4472C4" fill-rule="evenodd"/><path d="M2250.34 615.069C2247.99 615.069 2245.88 615.983 2244.03 617.809 2242.17 619.636 2241.09 622.178 2240.78 625.435L2258.79 625.435C2258.65 622.942 2258.35 621.186 2257.9 620.167 2257.19 618.581 2256.14 617.335 2254.73 616.429 2253.33 615.522 2251.87 615.069 2250.34 615.069ZM2200.75 612.096 2202.58 612.096 2202.58 620.337C2207.14 614.843 2211.49 612.096 2215.62 612.096 2217.74 612.096 2219.57 612.627 2221.1 613.689 2222.63 614.751 2223.85 616.499 2224.75 618.935 2225.38 620.634 2225.69 623.24 2225.69 626.751L2225.69 643.361C2225.69 645.825 2225.89 647.496 2226.28 648.374 2226.59 649.082 2227.1 649.634 2227.79 650.031 2228.49 650.427 2229.77 650.625 2231.64 650.625L2231.64 652.155 2212.39 652.155 2212.39 650.625 2213.2 650.625C2215.01 650.625 2216.28 650.349 2217 649.797 2217.72 649.245 2218.23 648.431 2218.51 647.354 2218.62 646.93 2218.68 645.599 2218.68 643.361L2218.68 627.431C2218.68 623.891 2218.22 621.321 2217.3 619.721 2216.38 618.121 2214.83 617.321 2212.65 617.321 2209.28 617.321 2205.92 619.162 2202.58 622.843L2202.58 643.361C2202.58 645.995 2202.73 647.623 2203.05 648.247 2203.44 649.068 2203.99 649.67 2204.68 650.052 2205.38 650.434 2206.78 650.625 2208.91 650.625L2208.91 652.155 2189.67 652.155 2189.67 650.625 2190.51 650.625C2192.5 650.625 2193.84 650.123 2194.53 649.117 2195.22 648.112 2195.57 646.193 2195.57 643.361L2195.57 628.918C2195.57 624.245 2195.46 621.399 2195.25 620.379 2195.04 619.36 2194.71 618.666 2194.27 618.298 2193.84 617.93 2193.25 617.746 2192.51 617.746 2191.72 617.746 2190.77 617.958 2189.67 618.383L2189.03 616.853ZM2252.72 612.053C2257.08 612.053 2260.66 613.49 2263.46 616.365 2266.27 619.239 2267.67 623.084 2267.67 627.898L2240.78 627.898C2240.75 633.676 2242.15 638.207 2244.98 641.492 2247.82 644.777 2251.14 646.42 2254.97 646.42 2257.52 646.42 2259.73 645.719 2261.62 644.317 2263.5 642.915 2265.08 640.515 2266.35 637.117L2267.67 637.966C2267.07 641.846 2265.35 645.379 2262.49 648.565 2259.63 651.751 2256.04 653.344 2251.74 653.344 2247.07 653.344 2243.07 651.525 2239.74 647.885 2236.41 644.246 2234.75 639.354 2234.75 633.208 2234.75 626.553 2236.45 621.363 2239.87 617.639 2243.28 613.915 2247.56 612.053 2252.72 612.053ZM1975.36 606.446 1965.34 629.725 1985.13 629.725ZM2092.07 597.78C2090.43 597.78 2088.21 598.049 2085.4 598.587L2085.4 622.546C2085.94 622.546 2086.41 622.553 2086.8 622.567 2087.2 622.581 2087.53 622.588 2087.78 622.588 2093.28 622.588 2097.42 621.399 2100.21 619.02 2103 616.641 2104.39 613.611 2104.39 609.929 2104.39 606.332 2103.27 603.408 2101.01 601.157 2098.76 598.905 2095.78 597.78 2092.07 597.78ZM2034.07 597.78C2032.43 597.78 2030.21 598.049 2027.4 598.587L2027.4 622.546C2027.94 622.546 2028.41 622.553 2028.8 622.567 2029.2 622.581 2029.53 622.588 2029.78 622.588 2035.28 622.588 2039.42 621.399 2042.21 619.02 2045 616.641 2046.39 613.611 2046.39 609.929 2046.39 606.332 2045.27 603.408 2043.01 601.157 2040.76 598.905 2037.78 597.78 2034.07 597.78ZM2156.53 596.335C2151.37 596.335 2147.24 598.247 2144.12 602.07 2140.24 606.828 2138.3 613.795 2138.3 622.971 2138.3 632.373 2140.32 639.609 2144.34 644.678 2147.42 648.53 2151.5 650.456 2156.57 650.456 2161.98 650.456 2166.45 648.346 2169.97 644.126 2173.5 639.906 2175.26 633.251 2175.26 624.16 2175.26 614.305 2173.32 606.956 2169.44 602.113 2166.33 598.261 2162.02 596.335 2156.53 596.335ZM2269.37 594.551 2285 594.551 2320.22 637.754 2320.22 604.534C2320.22 600.994 2319.82 598.785 2319.03 597.907 2317.98 596.718 2316.33 596.123 2314.06 596.123L2312.06 596.123 2312.06 594.551 2332.11 594.551 2332.11 596.123 2330.08 596.123C2327.64 596.123 2325.91 596.859 2324.89 598.332 2324.27 599.238 2323.96 601.306 2323.96 604.534L2323.96 653.089 2322.43 653.089 2284.45 606.701 2284.45 642.172C2284.45 645.712 2284.83 647.921 2285.6 648.799 2286.67 649.988 2288.33 650.583 2290.57 650.583L2292.61 650.583 2292.61 652.155 2272.56 652.155 2272.56 650.583 2274.55 650.583C2277.02 650.583 2278.76 649.847 2279.78 648.374 2280.4 647.468 2280.71 645.4 2280.71 642.172L2280.71 602.113C2279.04 600.159 2277.78 598.87 2276.91 598.247 2276.05 597.624 2274.78 597.043 2273.11 596.505 2272.29 596.25 2271.04 596.123 2269.37 596.123ZM2069 594.551 2089.99 594.551C2096.11 594.551 2100.62 594.997 2103.52 595.889 2106.42 596.781 2108.89 598.424 2110.91 600.817 2112.94 603.21 2113.95 606.063 2113.95 609.377 2113.95 612.917 2112.8 615.99 2110.49 618.595 2108.18 621.201 2104.6 623.041 2099.76 624.118L2111.66 640.643C2114.37 644.437 2116.71 646.958 2118.66 648.204 2120.62 649.45 2123.17 650.243 2126.31 650.583L2126.31 652.155 2110.93 652.155 2091.43 625.222C2089.99 625.279 2088.81 625.307 2087.91 625.307 2087.54 625.307 2087.14 625.3 2086.72 625.286 2086.29 625.272 2085.86 625.25 2085.4 625.222L2085.4 641.959C2085.4 645.584 2085.8 647.836 2086.59 648.714 2087.67 649.96 2089.28 650.583 2091.43 650.583L2093.69 650.583 2093.69 652.155 2069 652.155 2069 650.583 2071.17 650.583C2073.61 650.583 2075.35 649.79 2076.4 648.204 2076.99 647.326 2077.29 645.245 2077.29 641.959L2077.29 604.747C2077.29 601.122 2076.89 598.87 2076.1 597.992 2074.99 596.746 2073.35 596.123 2071.17 596.123L2069 596.123ZM2011 594.551 2031.99 594.551C2038.11 594.551 2042.62 594.997 2045.52 595.889 2048.42 596.781 2050.89 598.424 2052.91 600.817 2054.94 603.21 2055.95 606.063 2055.95 609.377 2055.95 612.917 2054.8 615.99 2052.49 618.595 2050.18 621.201 2046.6 623.041 2041.76 624.118L2053.66 640.643C2056.37 644.437 2058.71 646.958 2060.66 648.204 2062.62 649.45 2065.17 650.243 2068.31 650.583L2068.31 652.155 2052.93 652.155 2033.43 625.222C2031.99 625.279 2030.81 625.307 2029.91 625.307 2029.54 625.307 2029.14 625.3 2028.72 625.286 2028.29 625.272 2027.86 625.25 2027.4 625.222L2027.4 641.959C2027.4 645.584 2027.8 647.836 2028.59 648.714 2029.67 649.96 2031.28 650.583 2033.43 650.583L2035.69 650.583 2035.69 652.155 2011 652.155 2011 650.583 2013.17 650.583C2015.61 650.583 2017.35 649.79 2018.4 648.204 2018.99 647.326 2019.29 645.245 2019.29 641.959L2019.29 604.747C2019.29 601.122 2018.89 598.87 2018.1 597.992 2016.99 596.746 2015.35 596.123 2013.17 596.123L2011 596.123ZM2355.82 593.234C2358.88 593.234 2362.12 593.985 2365.55 595.486 2367.13 596.194 2368.25 596.548 2368.9 596.548 2369.64 596.548 2370.24 596.328 2370.71 595.889 2371.18 595.45 2371.55 594.565 2371.84 593.234L2373.41 593.234 2373.41 613.158 2371.84 613.158C2371.33 609.334 2370.41 606.29 2369.1 604.024 2367.78 601.759 2365.9 599.96 2363.47 598.629 2361.03 597.298 2358.51 596.633 2355.91 596.633 2352.96 596.633 2350.52 597.532 2348.6 599.33 2346.67 601.129 2345.71 603.175 2345.71 605.469 2345.71 607.225 2346.32 608.825 2347.54 610.269 2349.29 612.393 2353.47 615.225 2360.07 618.765 2365.45 621.654 2369.12 623.87 2371.09 625.413 2373.06 626.957 2374.58 628.776 2375.64 630.872 2376.7 632.968 2377.23 635.163 2377.23 637.456 2377.23 641.818 2375.54 645.577 2372.15 648.735 2368.77 651.893 2364.42 653.472 2359.09 653.472 2357.42 653.472 2355.85 653.344 2354.38 653.089 2353.5 652.948 2351.68 652.431 2348.92 651.539 2346.16 650.647 2344.41 650.201 2343.67 650.201 2342.96 650.201 2342.4 650.413 2341.99 650.838 2341.58 651.263 2341.28 652.141 2341.08 653.472L2339.51 653.472 2339.51 633.718 2341.08 633.718C2341.82 637.853 2342.81 640.947 2344.05 643 2345.3 645.053 2347.2 646.76 2349.77 648.119 2352.33 649.478 2355.14 650.158 2358.2 650.158 2361.74 650.158 2364.54 649.224 2366.59 647.354 2368.64 645.485 2369.67 643.276 2369.67 640.727 2369.67 639.311 2369.28 637.881 2368.5 636.437 2367.72 634.993 2366.51 633.647 2364.87 632.401 2363.76 631.552 2360.75 629.746 2355.82 626.985 2350.89 624.224 2347.39 622.022 2345.31 620.379 2343.22 618.737 2341.65 616.924 2340.57 614.942 2339.49 612.959 2338.96 610.779 2338.96 608.4 2338.96 604.265 2340.54 600.704 2343.71 597.716 2346.89 594.728 2350.92 593.234 2355.82 593.234ZM2157.34 593.234C2164.81 593.234 2171.29 596.073 2176.77 601.752 2182.25 607.43 2184.99 614.517 2184.99 623.013 2184.99 631.764 2182.23 639.028 2176.71 644.806 2171.18 650.583 2164.5 653.472 2156.66 653.472 2148.73 653.472 2142.06 650.654 2136.67 645.018 2131.27 639.382 2128.58 632.09 2128.58 623.141 2128.58 613.993 2131.69 606.531 2137.92 600.753 2143.33 595.741 2149.8 593.234 2157.34 593.234ZM1976.93 593.234 1978.42 593.234 1998.47 641.152C2000.09 645.004 2001.55 647.503 2002.87 648.65 2004.19 649.797 2006.02 650.441 2008.37 650.583L2008.37 652.155 1985.64 652.155 1985.64 650.583C1987.94 650.47 1989.49 650.087 1990.29 649.436 1991.1 648.785 1991.5 647.992 1991.5 647.057 1991.5 645.811 1990.94 643.843 1989.81 641.152L1986.32 632.869 1964.02 632.869 1960.11 641.959C1959.15 644.197 1958.67 645.868 1958.67 646.972 1958.67 647.85 1959.09 648.622 1959.92 649.287 1960.76 649.953 1962.56 650.385 1965.34 650.583L1965.34 652.155 1947.2 652.155 1947.2 650.583C1949.6 650.158 1951.16 649.606 1951.87 648.926 1953.31 647.567 1954.92 644.806 1956.67 640.643Z" fill-rule="evenodd"/><text fill="#000000" fill-opacity="0" font-family="Arial,Arial_MSFontService,sans-serif" font-size="60.2373" x="1947.2" y="645.942">ARROneNS</text><path d="M2400.97 633.688 2389.06 664.938 2410.81 664.938ZM2399.87 626.782 2404.5 626.782 2417.68 667.938 2417.68 669.938 2383.53 669.938 2383.53 667.938Z" fill-rule="evenodd"/><text fill="#000000" fill-opacity="0" font-family="Arial,Arial_MSFontService,sans-serif" font-size="43.1562" x="2383.53" y="664.544">∆</text><path d="M2475.62 590.77 2476.77 594.041C2470.14 596.222 2465.24 600.477 2462.05 606.807 2458.86 613.136 2457.27 621.087 2457.27 630.66 2457.27 640.572 2458.86 648.742 2462.05 655.171 2465.24 661.6 2470.1 665.904 2476.64 668.085L2475.62 671.356C2467.32 669.175 2460.97 664.481 2456.55 657.274 2452.13 650.066 2449.92 641.336 2449.92 631.084 2449.92 620.861 2452.14 612.131 2456.57 604.895 2461 597.659 2467.35 592.951 2475.62 590.77Z" fill-rule="evenodd"/><text fill="#000000" fill-opacity="0" font-family="Arial,Arial_MSFontService,sans-serif" font-size="80.5854" x="2449.92" y="661.283">(</text><path d="M2501.9 597.865C2499.98 597.865 2498.15 597.921 2496.42 598.035L2496.42 648.204C2497.56 648.317 2499.23 648.374 2501.44 648.374 2503.81 648.374 2505.94 648.176 2507.81 647.779 2509.68 647.383 2511.38 646.76 2512.9 645.91 2514.43 645.06 2515.81 643.878 2517.03 642.363 2518.24 640.848 2519.23 639.106 2520 637.138 2520.76 635.17 2521.32 632.982 2521.68 630.575 2522.03 628.167 2522.21 625.534 2522.21 622.673 2522.21 616.924 2521.38 612.202 2519.72 608.506 2518.07 604.81 2515.73 602.113 2512.71 600.414 2509.7 598.714 2506.09 597.865 2501.9 597.865ZM2483.47 594.169 2502.07 594.169C2507.42 594.169 2511.81 594.757 2515.22 595.932 2518.63 597.107 2521.51 598.842 2523.86 601.136 2526.22 603.43 2527.97 606.283 2529.13 609.695 2530.29 613.108 2530.87 617.179 2530.87 621.909 2530.87 626.695 2530.33 630.907 2529.24 634.547 2528.15 638.186 2526.56 641.237 2524.46 643.701 2522.65 645.853 2520.42 647.623 2517.79 649.011 2515.61 650.144 2513.09 650.951 2510.23 651.433 2507.37 651.914 2503.57 652.155 2498.84 652.155L2483.47 652.155 2483.47 650.073C2484.77 649.733 2485.7 649.408 2486.27 649.096 2486.84 648.785 2487.27 648.388 2487.59 647.907 2487.9 647.425 2488.12 646.731 2488.27 645.825 2488.41 644.919 2488.48 643.489 2488.48 641.535L2488.48 604.789C2488.48 602.807 2488.41 601.369 2488.27 600.477 2488.12 599.585 2487.89 598.898 2487.57 598.417 2487.24 597.935 2486.81 597.546 2486.27 597.249 2485.73 596.951 2484.8 596.619 2483.47 596.25ZM2566.02 593.489C2568.6 593.489 2570.98 593.624 2573.16 593.893 2575.34 594.162 2577.83 594.664 2580.63 595.401L2580.63 607.168 2576.43 607.168C2575.75 604.704 2574.88 602.743 2573.84 601.284 2572.79 599.826 2571.57 598.785 2570.18 598.162 2568.79 597.539 2567.12 597.227 2565.17 597.227 2562.25 597.227 2559.65 598.197 2557.37 600.137 2555.09 602.077 2553.3 604.994 2552 608.888 2550.7 612.782 2550.05 617.491 2550.05 623.013 2550.05 628.564 2550.58 633.3 2551.66 637.223 2552.74 641.145 2554.32 644.105 2556.42 646.101 2558.51 648.098 2561.09 649.096 2564.15 649.096 2566.47 649.096 2568.37 648.763 2569.84 648.098 2571.32 647.432 2572.55 646.377 2573.56 644.933 2574.57 643.489 2575.52 641.365 2576.43 638.561L2580.63 638.561 2580.63 650.71C2577.97 651.418 2575.24 651.949 2572.46 652.303 2569.67 652.657 2566.6 652.834 2563.26 652.834 2556.06 652.834 2550.63 650.399 2546.95 645.528 2543.26 640.657 2541.42 633.393 2541.42 623.735 2541.42 617.675 2542.38 612.365 2544.29 607.805 2546.2 603.246 2549.01 599.72 2552.72 597.227 2556.43 594.735 2560.87 593.489 2566.02 593.489Z" fill-rule="evenodd"/><text fill="#000000" fill-opacity="0" font-family="Arial,Arial_MSFontService,sans-serif" font-size="59.3452" x="2483.47" y="645.416">DC</text><path d="M2588.26 590.77C2596.53 592.951 2602.89 597.659 2607.32 604.895 2611.75 612.131 2613.97 620.861 2613.97 631.084 2613.97 641.336 2611.76 650.066 2607.34 657.274 2602.92 664.481 2596.56 669.175 2588.26 671.356L2587.25 668.085C2593.79 665.904 2598.65 661.6 2601.84 655.171 2605.02 648.742 2606.62 640.572 2606.62 630.66 2606.62 621.087 2605.03 613.136 2601.86 606.807 2598.69 600.477 2593.77 596.222 2587.12 594.041Z" fill-rule="evenodd"/><text fill="#000000" fill-opacity="0" font-family="Arial,Arial_MSFontService,sans-serif" font-size="80.5854" x="2587.12" y="661.283">)</text><path d="M2773.82 596.705 2825.82 596.705 2825.82 648.705 2773.82 648.705Z" stroke="#006600" stroke-width="8.47303" stroke-linejoin="round" stroke-miterlimit="10" fill="#006600" fill-rule="evenodd"/><path d="M3173.02 614.989C3171.52 614.989 3170.02 615.435 3168.5 616.327 3166.99 617.219 3165.76 618.784 3164.83 621.021 3163.89 623.258 3163.42 626.133 3163.42 629.644 3163.42 635.308 3164.55 640.194 3166.8 644.3 3169.05 648.407 3172.02 650.46 3175.7 650.46 3178.45 650.46 3180.71 649.327 3182.5 647.061 3184.28 644.796 3185.17 640.902 3185.17 635.379 3185.17 628.469 3183.69 623.032 3180.71 619.067 3178.7 616.348 3176.14 614.989 3173.02 614.989ZM3090.14 613.374 3106.46 613.374 3106.46 614.946C3104.96 615.059 3103.97 615.328 3103.5 615.753 3103.04 616.178 3102.8 616.787 3102.8 617.58 3102.8 618.458 3103.04 619.52 3103.52 620.766L3111.85 643.153 3120.22 624.929 3118.01 619.194C3117.33 617.495 3116.44 616.32 3115.33 615.668 3114.71 615.272 3113.55 615.031 3111.85 614.946L3111.85 613.374 3130.37 613.374 3130.37 614.946C3128.33 615.031 3126.89 615.399 3126.04 616.051 3125.47 616.504 3125.19 617.226 3125.19 618.217 3125.19 618.784 3125.3 619.364 3125.53 619.959L3134.37 642.304 3142.56 620.766C3143.13 619.237 3143.41 618.019 3143.41 617.113 3143.41 616.575 3143.14 616.093 3142.59 615.668 3142.03 615.243 3140.95 615.003 3139.34 614.946L3139.34 613.374 3151.61 613.374 3151.61 614.946C3149.15 615.314 3147.34 616.985 3146.18 619.959L3133.18 653.476 3131.43 653.476 3121.71 628.625 3110.36 653.476 3108.79 653.476 3096.3 620.766C3095.48 618.699 3094.67 617.304 3093.88 616.582 3093.09 615.859 3091.84 615.314 3090.14 614.946ZM3174.34 612.227C3180.23 612.227 3184.96 614.465 3188.53 618.939 3191.56 622.763 3193.08 627.152 3193.08 632.108 3193.08 635.592 3192.24 639.117 3190.57 642.686 3188.9 646.254 3186.6 648.945 3183.67 650.757 3180.73 652.57 3177.47 653.476 3173.87 653.476 3168.01 653.476 3163.35 651.139 3159.9 646.467 3156.98 642.53 3155.52 638.112 3155.52 633.213 3155.52 629.644 3156.41 626.097 3158.18 622.571 3159.95 619.045 3162.28 616.44 3165.17 614.755 3168.05 613.07 3171.11 612.227 3174.34 612.227ZM2886.44 606.577 2876.41 629.857 2896.21 629.857ZM3003.15 597.911C3001.5 597.911 2999.28 598.18 2996.48 598.719L2996.48 622.678C2997.01 622.678 2997.48 622.685 2997.88 622.699 2998.27 622.713 2998.6 622.72 2998.85 622.72 3004.35 622.72 3008.49 621.531 3011.28 619.152 3014.07 616.773 3015.46 613.742 3015.46 610.061 3015.46 606.464 3014.34 603.54 3012.09 601.289 3009.84 599.037 3006.85 597.911 3003.15 597.911ZM2945.15 597.911C2943.5 597.911 2941.28 598.18 2938.48 598.719L2938.48 622.678C2939.01 622.678 2939.48 622.685 2939.88 622.699 2940.27 622.713 2940.6 622.72 2940.85 622.72 2946.35 622.72 2950.49 621.531 2953.28 619.152 2956.07 616.773 2957.46 613.742 2957.46 610.061 2957.46 606.464 2956.34 603.54 2954.09 601.289 2951.84 599.037 2948.85 597.911 2945.15 597.911ZM3195.44 594.683 3211.08 594.683 3246.29 637.886 3246.29 604.666C3246.29 601.126 3245.9 598.917 3245.1 598.039 3244.06 596.849 3242.4 596.255 3240.13 596.255L3238.14 596.255 3238.14 594.683 3258.19 594.683 3258.19 596.255 3256.15 596.255C3253.71 596.255 3251.99 596.991 3250.97 598.464 3250.34 599.37 3250.03 601.437 3250.03 604.666L3250.03 653.221 3248.5 653.221 3210.52 606.832 3210.52 642.304C3210.52 645.844 3210.91 648.053 3211.67 648.93 3212.75 650.12 3214.4 650.715 3216.64 650.715L3218.68 650.715 3218.68 652.286 3198.63 652.286 3198.63 650.715 3200.63 650.715C3203.09 650.715 3204.83 649.978 3205.85 648.506 3206.48 647.599 3206.79 645.532 3206.79 642.304L3206.79 602.244C3205.12 600.29 3203.85 599.002 3202.98 598.379 3202.12 597.756 3200.85 597.175 3199.18 596.637 3198.36 596.382 3197.12 596.255 3195.44 596.255ZM3039.9 594.683 3086.93 594.683 3087.57 608.192 3085.95 608.192C3085.64 605.813 3085.22 604.114 3084.68 603.094 3083.8 601.451 3082.63 600.241 3081.17 599.462 3079.72 598.683 3077.8 598.294 3075.42 598.294L3067.3 598.294 3067.3 642.304C3067.3 645.844 3067.69 648.053 3068.45 648.93 3069.53 650.12 3071.18 650.715 3073.42 650.715L3075.42 650.715 3075.42 652.286 3050.99 652.286 3050.99 650.715 3053.03 650.715C3055.47 650.715 3057.19 649.978 3058.21 648.506 3058.84 647.599 3059.15 645.532 3059.15 642.304L3059.15 598.294 3052.22 598.294C3049.53 598.294 3047.62 598.492 3046.49 598.888 3045.02 599.427 3043.76 600.46 3042.71 601.99 3041.66 603.519 3041.04 605.586 3040.84 608.192L3039.23 608.192ZM2980.08 594.683 3001.06 594.683C3007.18 594.683 3011.69 595.129 3014.59 596.021 3017.5 596.913 3019.96 598.556 3021.99 600.949 3024.01 603.342 3025.02 606.195 3025.02 609.509 3025.02 613.049 3023.87 616.121 3021.56 618.727 3019.25 621.332 3015.68 623.173 3010.83 624.249L3022.73 640.774C3025.45 644.569 3027.78 647.09 3029.74 648.336 3031.69 649.582 3034.24 650.375 3037.38 650.715L3037.38 652.286 3022.01 652.286 3002.51 625.354C3001.06 625.41 2999.89 625.439 2998.98 625.439 2998.61 625.439 2998.22 625.432 2997.79 625.418 2997.37 625.403 2996.93 625.382 2996.48 625.354L2996.48 642.091C2996.48 645.716 2996.87 647.968 2997.67 648.846 2998.74 650.092 3000.36 650.715 3002.51 650.715L3004.76 650.715 3004.76 652.286 2980.08 652.286 2980.08 650.715 2982.24 650.715C2984.68 650.715 2986.42 649.922 2987.47 648.336 2988.06 647.458 2988.36 645.376 2988.36 642.091L2988.36 604.878C2988.36 601.253 2987.97 599.002 2987.17 598.124 2986.07 596.878 2984.43 596.255 2982.24 596.255L2980.08 596.255ZM2922.08 594.683 2943.06 594.683C2949.18 594.683 2953.69 595.129 2956.59 596.021 2959.5 596.913 2961.96 598.556 2963.99 600.949 2966.01 603.342 2967.02 606.195 2967.02 609.509 2967.02 613.049 2965.87 616.121 2963.56 618.727 2961.25 621.332 2957.68 623.173 2952.83 624.249L2964.73 640.774C2967.45 644.569 2969.78 647.09 2971.74 648.336 2973.69 649.582 2976.24 650.375 2979.38 650.715L2979.38 652.286 2964.01 652.286 2944.51 625.354C2943.06 625.41 2941.89 625.439 2940.98 625.439 2940.61 625.439 2940.22 625.432 2939.79 625.418 2939.37 625.403 2938.93 625.382 2938.48 625.354L2938.48 642.091C2938.48 645.716 2938.87 647.968 2939.67 648.846 2940.74 650.092 2942.36 650.715 2944.51 650.715L2946.76 650.715 2946.76 652.286 2922.08 652.286 2922.08 650.715 2924.24 650.715C2926.68 650.715 2928.42 649.922 2929.47 648.336 2930.06 647.458 2930.36 645.376 2930.36 642.091L2930.36 604.878C2930.36 601.253 2929.97 599.002 2929.17 598.124 2928.07 596.878 2926.43 596.255 2924.24 596.255L2922.08 596.255ZM3281.89 593.366C3284.95 593.366 3288.19 594.117 3291.62 595.617 3293.21 596.326 3294.33 596.68 3294.98 596.68 3295.71 596.68 3296.32 596.46 3296.78 596.021 3297.25 595.582 3297.63 594.697 3297.91 593.366L3299.48 593.366 3299.48 613.289 3297.91 613.289C3297.4 609.466 3296.49 606.422 3295.17 604.156 3293.85 601.89 3291.98 600.092 3289.54 598.761 3287.1 597.43 3284.58 596.764 3281.98 596.764 3279.03 596.764 3276.6 597.664 3274.67 599.462 3272.75 601.26 3271.78 603.306 3271.78 605.6 3271.78 607.356 3272.39 608.956 3273.61 610.401 3275.37 612.525 3279.54 615.357 3286.14 618.897 3291.52 621.785 3295.2 624.002 3297.17 625.545 3299.13 627.088 3300.65 628.908 3301.71 631.004 3302.77 633.099 3303.3 635.294 3303.3 637.588 3303.3 641.95 3301.61 645.709 3298.23 648.867 3294.84 652.024 3290.49 653.603 3285.16 653.603 3283.49 653.603 3281.92 653.476 3280.45 653.221 3279.57 653.079 3277.75 652.563 3274.99 651.67 3272.23 650.778 3270.48 650.332 3269.74 650.332 3269.04 650.332 3268.48 650.545 3268.07 650.97 3267.66 651.394 3267.35 652.272 3267.15 653.603L3265.58 653.603 3265.58 633.85 3267.15 633.85C3267.89 637.985 3268.88 641.079 3270.13 643.132 3271.37 645.185 3273.28 646.891 3275.84 648.251 3278.4 649.61 3281.21 650.29 3284.27 650.29 3287.81 650.29 3290.61 649.355 3292.66 647.486 3294.72 645.617 3295.74 643.408 3295.74 640.859 3295.74 639.443 3295.35 638.013 3294.57 636.569 3293.8 635.124 3292.58 633.779 3290.94 632.533 3289.84 631.683 3286.82 629.878 3281.89 627.117 3276.97 624.356 3273.46 622.154 3271.38 620.511 3269.3 618.868 3267.72 617.056 3266.64 615.074 3265.57 613.091 3265.03 610.91 3265.03 608.532 3265.03 604.397 3266.61 600.836 3269.79 597.848 3272.96 594.86 3276.99 593.366 3281.89 593.366ZM2888.01 593.366 2889.49 593.366 2909.54 641.284C2911.16 645.136 2912.62 647.635 2913.94 648.782 2915.26 649.929 2917.09 650.573 2919.44 650.715L2919.44 652.286 2896.72 652.286 2896.72 650.715C2899.01 650.601 2900.56 650.219 2901.37 649.568 2902.17 648.916 2902.58 648.123 2902.58 647.189 2902.58 645.943 2902.01 643.974 2900.88 641.284L2897.4 633 2875.09 633 2871.19 642.091C2870.22 644.328 2869.74 645.999 2869.74 647.104 2869.74 647.982 2870.16 648.753 2870.99 649.419 2871.83 650.085 2873.63 650.516 2876.41 650.715L2876.41 652.286 2858.27 652.286 2858.27 650.715C2860.68 650.29 2862.24 649.738 2862.94 649.058 2864.39 647.699 2865.99 644.937 2867.74 640.774Z" fill-rule="evenodd"/><text fill="#000000" fill-opacity="0" font-family="Arial,Arial_MSFontService,sans-serif" font-size="60.2373" x="2858.27" y="646.074">ARRTwoNS</text><path d="M3326.94 633.82 3315.03 665.07 3336.78 665.07ZM3325.84 626.914 3330.47 626.914 3343.65 668.07 3343.65 670.07 3309.5 670.07 3309.5 668.07Z" fill-rule="evenodd"/><text fill="#000000" fill-opacity="0" font-family="Arial,Arial_MSFontService,sans-serif" font-size="43.1562" x="3309.5" y="664.675">∆</text><path d="M3401.59 590.902 3402.74 594.173C3396.11 596.354 3391.2 600.609 3388.02 606.939 3384.83 613.268 3383.24 621.219 3383.24 630.791 3383.24 640.703 3384.83 648.874 3388.02 655.303 3391.2 661.731 3396.07 666.036 3402.61 668.217L3401.59 671.488C3393.29 669.307 3386.93 664.613 3382.52 657.405 3378.1 650.198 3375.89 641.468 3375.89 631.216 3375.89 620.992 3378.11 612.263 3382.54 605.027 3386.97 597.791 3393.32 593.083 3401.59 590.902Z" fill-rule="evenodd"/><text fill="#000000" fill-opacity="0" font-family="Arial,Arial_MSFontService,sans-serif" font-size="80.5854" x="3375.89" y="661.414">(</text><path d="M3427.87 597.996C3425.95 597.996 3424.12 598.053 3422.39 598.166L3422.39 648.336C3423.52 648.449 3425.2 648.506 3427.4 648.506 3429.78 648.506 3431.91 648.307 3433.78 647.911 3435.65 647.514 3437.34 646.891 3438.87 646.042 3440.4 645.192 3441.78 644.01 3442.99 642.495 3444.21 640.98 3445.2 639.238 3445.97 637.27 3446.73 635.301 3447.29 633.114 3447.65 630.706 3448 628.299 3448.18 625.665 3448.18 622.805 3448.18 617.056 3447.35 612.334 3445.69 608.638 3444.04 604.942 3441.7 602.244 3438.68 600.545 3435.67 598.846 3432.06 597.996 3427.87 597.996ZM3409.43 594.301 3428.04 594.301C3433.39 594.301 3437.78 594.888 3441.19 596.064 3444.6 597.239 3447.48 598.973 3449.83 601.267 3452.18 603.561 3453.94 606.415 3455.1 609.827 3456.26 613.24 3456.84 617.311 3456.84 622.04 3456.84 626.826 3456.3 631.039 3455.21 634.678 3454.12 638.317 3452.52 641.369 3450.43 643.833 3448.62 645.985 3446.39 647.755 3443.76 649.143 3441.58 650.276 3439.06 651.083 3436.2 651.564 3433.34 652.046 3429.54 652.286 3424.81 652.286L3409.43 652.286 3409.43 650.205C3410.74 649.865 3411.67 649.539 3412.24 649.228 3412.8 648.916 3413.24 648.52 3413.56 648.038 3413.87 647.557 3414.09 646.863 3414.24 645.957 3414.38 645.051 3414.45 643.62 3414.45 641.666L3414.45 604.921C3414.45 602.938 3414.38 601.501 3414.24 600.609 3414.09 599.717 3413.86 599.03 3413.53 598.549 3413.21 598.067 3412.78 597.678 3412.24 597.38 3411.7 597.083 3410.77 596.75 3409.43 596.382ZM3491.99 593.621C3494.57 593.621 3496.94 593.755 3499.13 594.024 3501.31 594.294 3503.8 594.796 3506.6 595.533L3506.6 607.3 3502.4 607.3C3501.72 604.836 3500.85 602.875 3499.8 601.416 3498.76 599.958 3497.54 598.917 3496.15 598.294 3494.76 597.671 3493.09 597.359 3491.14 597.359 3488.22 597.359 3485.62 598.329 3483.34 600.269 3481.06 602.209 3479.27 605.126 3477.97 609.02 3476.67 612.914 3476.02 617.622 3476.02 623.145 3476.02 628.696 3476.55 633.432 3477.63 637.355 3478.71 641.277 3480.29 644.236 3482.39 646.233 3484.48 648.23 3487.06 649.228 3490.12 649.228 3492.44 649.228 3494.34 648.895 3495.81 648.23 3497.28 647.564 3498.52 646.509 3499.53 645.065 3500.53 643.62 3501.49 641.496 3502.4 638.693L3506.6 638.693 3506.6 650.842C3503.94 651.55 3501.21 652.081 3498.42 652.435 3495.63 652.789 3492.57 652.966 3489.23 652.966 3482.03 652.966 3476.6 650.531 3472.91 645.659 3469.23 640.788 3467.39 633.524 3467.39 623.867 3467.39 617.806 3468.35 612.496 3470.26 607.937 3472.17 603.377 3474.98 599.851 3478.69 597.359 3482.4 594.867 3486.83 593.621 3491.99 593.621Z" fill-rule="evenodd"/><text fill="#000000" fill-opacity="0" font-family="Arial,Arial_MSFontService,sans-serif" font-size="59.3452" x="3409.43" y="645.548">DC</text><path d="M3514.23 590.902C3522.5 593.083 3528.85 597.791 3533.29 605.027 3537.72 612.263 3539.93 620.992 3539.93 631.216 3539.93 641.468 3537.73 650.198 3533.31 657.405 3528.89 664.613 3522.53 669.307 3514.23 671.488L3513.21 668.217C3519.76 666.036 3524.62 661.731 3527.81 655.303 3530.99 648.874 3532.59 640.703 3532.59 630.791 3532.59 621.219 3531 613.268 3527.83 606.939 3524.66 600.609 3519.74 596.354 3513.09 594.173Z" fill-rule="evenodd"/><text fill="#000000" fill-opacity="0" font-family="Arial,Arial_MSFontService,sans-serif" font-size="80.5854" x="3513.09" y="661.414">)</text><text font-family="Times New Roman,Times New Roman_MSFontService,sans-serif" font-weight="400" font-size="92" transform="matrix(-1.83697e-16 -1 1 -1.83697e-16 1010.72 1457)">Relative Error</text><text font-family="Times New Roman,Times New Roman_MSFontService,sans-serif" font-weight="400" font-size="83" transform="matrix(1 0 0 1 1070.34 776)">12</text><path d="M1359.34 1705.07C1361.23 1705.07 1362.72 1705.7 1363.81 1706.94 1364.91 1708.18 1365.45 1709.81 1365.45 1711.81 1365.45 1713.46 1365.11 1715.21 1364.42 1717.07L1364.96 1717.25C1367.71 1713.14 1370.46 1710.1 1373.18 1708.11 1375.91 1706.11 1378.66 1705.12 1381.45 1705.12 1384.32 1705.12 1386.51 1705.93 1388 1707.57 1389.5 1709.2 1390.25 1711.56 1390.25 1714.64L1390.25 1715.27C1390.25 1715.48 1390.24 1715.71 1390.21 1715.95 1392.78 1712.29 1395.35 1709.57 1397.91 1707.79 1400.47 1706.01 1403.13 1705.12 1405.88 1705.12 1408.64 1705.12 1410.76 1705.91 1412.26 1707.5 1413.76 1709.09 1414.51 1711.32 1414.51 1714.19 1414.51 1716.08 1414.07 1718.76 1413.21 1722.23L1410.29 1734C1409.48 1737.27 1409.07 1739.57 1409.07 1740.92 1409.07 1742.12 1409.27 1742.99 1409.66 1743.53 1410.05 1744.07 1410.66 1744.34 1411.5 1744.34 1412.4 1744.34 1413.36 1743.97 1414.37 1743.24 1415.39 1742.5 1416.83 1741.1 1418.69 1739.03L1421.25 1741.55C1418.67 1744.28 1416.43 1746.28 1414.51 1747.57 1412.59 1748.86 1410.41 1749.5 1407.95 1749.5 1406 1749.5 1404.45 1748.81 1403.28 1747.41 1402.11 1746.02 1401.53 1744.25 1401.53 1742.09 1401.53 1740.14 1402.02 1737.28 1403.01 1733.51L1404.98 1725.74C1405.7 1722.92 1406.18 1720.84 1406.4 1719.49 1406.62 1718.15 1406.74 1717.05 1406.74 1716.21 1406.74 1714.15 1406.39 1712.66 1405.7 1711.74 1405.01 1710.83 1403.89 1710.37 1402.33 1710.37 1401.08 1710.37 1399.73 1710.85 1398.29 1711.79 1396.85 1712.73 1395.34 1714.2 1393.75 1716.19 1392.17 1718.18 1390.87 1720.15 1389.87 1722.08 1388.87 1724.01 1388.06 1726.37 1387.47 1729.15L1383.38 1748.78 1375.61 1748.78 1380.77 1725.96C1381.4 1723.18 1381.83 1721.12 1382.05 1719.79 1382.28 1718.45 1382.39 1717.31 1382.39 1716.35 1382.39 1714.19 1382.01 1712.66 1381.24 1711.74 1380.48 1710.83 1379.29 1710.37 1377.67 1710.37 1376.53 1710.37 1375.24 1710.85 1373.79 1711.79 1372.33 1712.73 1370.78 1714.25 1369.14 1716.33 1367.49 1718.41 1366.2 1720.41 1365.27 1722.32 1364.35 1724.24 1363.57 1726.58 1362.94 1729.33L1358.67 1748.78 1350.9 1748.78 1357.46 1720.3C1358.12 1717.43 1358.45 1715.21 1358.45 1713.65 1358.45 1712.46 1358.25 1711.59 1357.86 1711.05 1357.47 1710.51 1356.86 1710.24 1356.02 1710.24 1355.09 1710.24 1354.11 1710.62 1353.08 1711.39 1352.04 1712.15 1350.63 1713.53 1348.83 1715.54L1346.27 1713.03C1348.91 1710.27 1351.18 1708.26 1353.08 1706.98 1354.98 1705.71 1357.07 1705.07 1359.34 1705.07Z" fill-rule="evenodd"/><text fill="#000000" fill-opacity="0" font-family="Arial,Arial_MSFontService,sans-serif" font-size="44.4277" x="1346.27" y="1743.95">𝑚</text><path d="M1455.68 1728.84 1511.02 1728.84 1511.02 1734.81 1455.68 1734.81ZM1455.68 1710.2 1511.02 1710.2 1511.02 1716.17 1455.68 1716.17Z" fill-rule="evenodd"/><text fill="#000000" fill-opacity="0" font-family="Arial,Arial_MSFontService,sans-serif" font-size="24.6172" x="1455.68" y="1731.74">=</text><path d="M1619.66 1690.56C1617.6 1690.56 1615.87 1691.18 1614.48 1692.41 1613.08 1693.63 1611.96 1695.4 1611.11 1697.71 1610.25 1700.01 1609.65 1702.82 1609.29 1706.13 1608.93 1709.44 1608.75 1713.17 1608.75 1717.34 1608.75 1727.1 1609.65 1734.27 1611.47 1738.83 1613.28 1743.4 1616.09 1745.68 1619.89 1745.68 1623.51 1745.68 1626.2 1743.53 1627.95 1739.24 1629.7 1734.94 1630.58 1728.28 1630.58 1719.27 1630.58 1712.38 1630.13 1706.8 1629.23 1702.54 1628.33 1698.27 1627.08 1695.21 1625.48 1693.35 1623.88 1691.49 1621.94 1690.56 1619.66 1690.56ZM1619.89 1686.75C1626.45 1686.75 1631.33 1689.28 1634.53 1694.34 1637.74 1699.4 1639.34 1707.05 1639.34 1717.29 1639.34 1727.89 1637.63 1735.91 1634.2 1741.35 1630.77 1746.78 1625.76 1749.5 1619.17 1749.5 1612.7 1749.5 1607.89 1746.96 1604.73 1741.86 1601.57 1736.77 1599.99 1729.05 1599.99 1718.69 1599.99 1713.17 1600.48 1708.41 1601.45 1704.4 1602.42 1700.39 1603.78 1697.07 1605.54 1694.45 1607.29 1691.83 1609.39 1689.89 1611.85 1688.63 1614.3 1687.37 1616.98 1686.75 1619.89 1686.75ZM1581.6 1684.5 1585.11 1684.5 1584.43 1694.92 1558.6 1694.92 1558.6 1714.64C1560.16 1713.98 1561.85 1713.49 1563.68 1713.16 1565.51 1712.83 1567.33 1712.67 1569.16 1712.67 1572.72 1712.67 1575.88 1713.39 1578.64 1714.84 1581.39 1716.3 1583.52 1718.36 1585.02 1721.04 1586.51 1723.72 1587.26 1726.83 1587.26 1730.36 1587.26 1734.38 1586.42 1737.82 1584.75 1740.7 1583.07 1743.57 1580.64 1745.76 1577.47 1747.26 1574.29 1748.75 1570.54 1749.5 1566.19 1749.5 1561.01 1749.5 1555.59 1748.44 1549.93 1746.31L1549.93 1736.79 1555.37 1736.79C1556.27 1739.84 1557.62 1742.09 1559.43 1743.53 1561.25 1744.96 1563.59 1745.68 1566.46 1745.68 1570.45 1745.68 1573.46 1744.49 1575.49 1742.09 1577.53 1739.69 1578.55 1736.11 1578.55 1731.35 1578.55 1728.18 1578.01 1725.55 1576.93 1723.47 1575.85 1721.39 1574.4 1719.88 1572.57 1718.95 1570.75 1718.03 1568.62 1717.56 1566.19 1717.56 1564.16 1717.56 1562.41 1717.69 1560.94 1717.94 1559.47 1718.2 1557.9 1718.6 1556.22 1719.13L1552.63 1717.02 1552.63 1687.46 1577.38 1687.46C1578.4 1687.46 1579.13 1687.38 1579.58 1687.22 1580.03 1687.05 1580.39 1686.8 1580.66 1686.45 1580.93 1686.11 1581.24 1685.46 1581.6 1684.5Z" fill-rule="evenodd"/><text fill="#000000" fill-opacity="0" font-family="Arial,Arial_MSFontService,sans-serif" font-size="65.002" x="1549.93" y="1741.38">50</text><text font-family="Times New Roman,Times New Roman_MSFontService,sans-serif" font-weight="400" font-size="83" transform="matrix(1 0 0 1 1090.96 994)">9<tspan font-size="83" x="0" y="225">6</tspan><tspan font-size="83" x="0" y="442">3</tspan><tspan font-size="83" x="9.16675" y="665">0</tspan></text><rect x="905.5" y="558.5" width="2820" height="130" stroke="#000000" stroke-width="3.4375" stroke-miterlimit="8" fill="none"/><text font-family="Times New Roman,Times New Roman_MSFontService,sans-serif" font-weight="400" font-size="83" transform="matrix(1 0 0 1 1953.65 773)">1.4</text><path d="M2235.11 1701.53C2237 1701.53 2238.49 1702.15 2239.58 1703.39 2240.67 1704.64 2241.22 1706.26 2241.22 1708.27 2241.22 1709.91 2240.88 1711.67 2240.19 1713.52L2240.73 1713.7C2243.48 1709.6 2246.22 1706.55 2248.95 1704.56 2251.67 1702.57 2254.43 1701.57 2257.21 1701.57 2260.09 1701.57 2262.27 1702.39 2263.77 1704.02 2265.27 1705.65 2266.02 1708.01 2266.02 1711.1L2266.02 1711.73C2266.02 1711.94 2266 1712.16 2265.97 1712.4 2268.55 1708.75 2271.12 1706.03 2273.68 1704.25 2276.24 1702.46 2278.9 1701.57 2281.65 1701.57 2284.41 1701.57 2286.53 1702.37 2288.03 1703.95 2289.53 1705.54 2290.28 1707.77 2290.28 1710.65 2290.28 1712.53 2289.84 1715.21 2288.97 1718.69L2286.05 1730.46C2285.24 1733.72 2284.84 1736.03 2284.84 1737.38 2284.84 1738.57 2285.03 1739.44 2285.42 1739.98 2285.81 1740.52 2286.43 1740.79 2287.27 1740.79 2288.16 1740.79 2289.12 1740.42 2290.14 1739.69 2291.16 1738.96 2292.6 1737.56 2294.45 1735.49L2297.01 1738.01C2294.44 1740.73 2292.19 1742.74 2290.28 1744.02 2288.36 1745.31 2286.17 1745.96 2283.72 1745.96 2281.77 1745.96 2280.21 1745.26 2279.05 1743.87 2277.88 1742.47 2277.29 1740.7 2277.29 1738.54 2277.29 1736.6 2277.79 1733.74 2278.78 1729.96L2280.75 1722.19C2281.47 1719.38 2281.94 1717.3 2282.17 1715.95 2282.39 1714.6 2282.5 1713.51 2282.5 1712.67 2282.5 1710.6 2282.16 1709.11 2281.47 1708.2 2280.78 1707.29 2279.66 1706.83 2278.1 1706.83 2276.84 1706.83 2275.5 1707.3 2274.06 1708.24 2272.62 1709.19 2271.11 1710.66 2269.52 1712.65 2267.93 1714.64 2266.64 1716.6 2265.64 1718.53 2264.63 1720.46 2263.83 1722.82 2263.23 1725.61L2259.15 1745.24 2251.37 1745.24 2256.54 1722.42C2257.17 1719.63 2257.6 1717.57 2257.82 1716.24 2258.04 1714.91 2258.16 1713.76 2258.16 1712.8 2258.16 1710.65 2257.77 1709.11 2257.01 1708.2 2256.25 1707.29 2255.06 1706.83 2253.44 1706.83 2252.3 1706.83 2251.01 1707.3 2249.55 1708.24 2248.1 1709.19 2246.55 1710.7 2244.9 1712.78 2243.26 1714.86 2241.97 1716.86 2241.04 1718.78 2240.11 1720.7 2239.33 1723.03 2238.71 1725.79L2234.44 1745.24 2226.67 1745.24 2233.23 1716.76C2233.88 1713.88 2234.21 1711.67 2234.21 1710.11 2234.21 1708.91 2234.02 1708.04 2233.63 1707.5 2233.24 1706.96 2232.63 1706.69 2231.79 1706.69 2230.86 1706.69 2229.88 1707.08 2228.85 1707.84 2227.81 1708.6 2226.4 1709.99 2224.6 1712L2222.04 1709.48C2224.68 1706.72 2226.94 1704.71 2228.85 1703.44 2230.75 1702.16 2232.84 1701.53 2235.11 1701.53Z" fill-rule="evenodd"/><text fill="#000000" fill-opacity="0" font-family="Arial,Arial_MSFontService,sans-serif" font-size="44.4277" x="2222.04" y="1740.4">𝑚</text><path d="M2331.44 1725.29 2386.79 1725.29 2386.79 1731.27 2331.44 1731.27ZM2331.44 1706.65 2386.79 1706.65 2386.79 1712.62 2331.44 1712.62Z" fill-rule="evenodd"/><text fill="#000000" fill-opacity="0" font-family="Arial,Arial_MSFontService,sans-serif" font-size="24.6172" x="2331.44" y="1728.19">=</text><path d="M2549.4 1693.76 2531.83 1721.65 2531.83 1722.28 2549.4 1722.28 2549.4 1711.1C2549.4 1708.28 2549.44 1705.13 2549.53 1701.64 2549.62 1698.15 2549.73 1695.52 2549.85 1693.76ZM2550.7 1683.6 2557.12 1683.6 2557.12 1722.28 2558.07 1722.28C2559.8 1722.28 2561.05 1722.16 2561.8 1721.9 2562.54 1721.65 2563.17 1721.2 2563.66 1720.55 2564.15 1719.91 2564.61 1718.85 2565.03 1717.39L2568.44 1717.39 2567.9 1726.64 2557.12 1726.64 2557.12 1734.01C2557.12 1736.01 2557.19 1737.48 2557.33 1738.41 2557.46 1739.34 2557.69 1740.07 2558 1740.61 2558.31 1741.15 2558.78 1741.6 2559.39 1741.96 2560.01 1742.32 2561 1742.68 2562.38 1743.04L2562.38 1745.24 2544.14 1745.24 2544.14 1743.04C2546 1742.56 2547.24 1742.03 2547.87 1741.44 2548.5 1740.86 2548.91 1740.03 2549.1 1738.95 2549.3 1737.87 2549.4 1736.22 2549.4 1734.01L2549.4 1726.64 2524.42 1726.64 2524.42 1723.27ZM2498.98 1683.2 2501.45 1683.2C2501.27 1686.08 2501.18 1690.06 2501.18 1695.15L2501.18 1733.51C2501.18 1735.25 2501.28 1736.56 2501.47 1737.44 2501.67 1738.33 2502.01 1739.05 2502.51 1739.6 2503 1740.15 2503.71 1740.59 2504.64 1740.9 2505.57 1741.22 2506.74 1741.46 2508.15 1741.62 2509.55 1741.79 2511.41 1741.9 2513.72 1741.96L2513.72 1745.24 2480.52 1745.24 2480.52 1741.96C2483.84 1741.81 2486.22 1741.61 2487.64 1741.35 2489.06 1741.1 2490.15 1740.72 2490.9 1740.21 2491.64 1739.7 2492.19 1738.98 2492.53 1738.05 2492.88 1737.12 2493.05 1735.61 2493.05 1733.51L2493.05 1697.08C2493.05 1695.88 2492.84 1695.01 2492.42 1694.45 2492 1693.9 2491.39 1693.62 2490.58 1693.62 2489.62 1693.62 2488.26 1694.12 2486.49 1695.1 2484.73 1696.09 2482.54 1697.46 2479.93 1699.19L2477.96 1695.73ZM2447.98 1683.2 2450.45 1683.2C2450.27 1686.08 2450.18 1690.06 2450.18 1695.15L2450.18 1733.51C2450.18 1735.25 2450.28 1736.56 2450.47 1737.44 2450.67 1738.33 2451.01 1739.05 2451.51 1739.6 2452 1740.15 2452.71 1740.59 2453.64 1740.9 2454.57 1741.22 2455.74 1741.46 2457.15 1741.62 2458.55 1741.79 2460.41 1741.9 2462.72 1741.96L2462.72 1745.24 2429.52 1745.24 2429.52 1741.96C2432.84 1741.81 2435.22 1741.61 2436.64 1741.35 2438.06 1741.1 2439.15 1740.72 2439.9 1740.21 2440.64 1739.7 2441.19 1738.98 2441.53 1738.05 2441.88 1737.12 2442.05 1735.61 2442.05 1733.51L2442.05 1697.08C2442.05 1695.88 2441.84 1695.01 2441.42 1694.45 2441 1693.9 2440.39 1693.62 2439.58 1693.62 2438.62 1693.62 2437.26 1694.12 2435.49 1695.1 2433.73 1696.09 2431.54 1697.46 2428.93 1699.19L2426.96 1695.73Z" fill-rule="evenodd"/><text fill="#000000" fill-opacity="0" font-family="Arial,Arial_MSFontService,sans-serif" font-size="62.0371" x="2426.96" y="1737.48">114</text><text font-family="Times New Roman,Times New Roman_MSFontService,sans-serif" font-weight="400" font-size="83" transform="matrix(1 0 0 1 1953.65 904)">1.2<tspan font-size="83" x="30.9375" y="126">1</tspan><tspan font-size="83" x="0" y="250">0.8</tspan><tspan font-size="83" x="40.1043" y="751">0</tspan><tspan font-size="83" x="908.657" y="-131">0.06</tspan></text><path d="M3179.67 1692.9C3181.56 1692.9 3183.05 1693.52 3184.14 1694.76 3185.23 1696 3185.78 1697.63 3185.78 1699.63 3185.78 1701.28 3185.44 1703.03 3184.75 1704.89L3185.29 1705.07C3188.04 1700.97 3190.78 1697.92 3193.51 1695.93 3196.23 1693.94 3198.99 1692.94 3201.77 1692.94 3204.65 1692.94 3206.83 1693.76 3208.33 1695.39 3209.83 1697.02 3210.58 1699.38 3210.58 1702.46L3210.58 1703.09C3210.58 1703.3 3210.56 1703.53 3210.53 1703.77 3213.11 1700.11 3215.68 1697.4 3218.24 1695.61 3220.8 1693.83 3223.46 1692.94 3226.21 1692.94 3228.97 1692.94 3231.09 1693.73 3232.59 1695.32 3234.09 1696.91 3234.84 1699.14 3234.84 1702.02 3234.84 1703.9 3234.4 1706.58 3233.53 1710.06L3230.61 1721.83C3229.8 1725.09 3229.4 1727.4 3229.4 1728.74 3229.4 1729.94 3229.59 1730.81 3229.98 1731.35 3230.37 1731.89 3230.99 1732.16 3231.83 1732.16 3232.72 1732.16 3233.68 1731.79 3234.7 1731.06 3235.72 1730.32 3237.16 1728.92 3239.01 1726.86L3241.57 1729.37C3239 1732.1 3236.75 1734.1 3234.84 1735.39 3232.92 1736.68 3230.73 1737.32 3228.28 1737.32 3226.33 1737.32 3224.77 1736.63 3223.6 1735.23 3222.44 1733.84 3221.85 1732.07 3221.85 1729.91 3221.85 1727.97 3222.35 1725.11 3223.34 1721.33L3225.31 1713.56C3226.03 1710.75 3226.5 1708.66 3226.73 1707.32 3226.95 1705.97 3227.06 1704.88 3227.06 1704.04 3227.06 1701.97 3226.72 1700.48 3226.03 1699.57 3225.34 1698.65 3224.22 1698.2 3222.66 1698.2 3221.4 1698.2 3220.06 1698.67 3218.62 1699.61 3217.18 1700.56 3215.67 1702.02 3214.08 1704.01 3212.49 1706.01 3211.2 1707.97 3210.2 1709.9 3209.19 1711.83 3208.39 1714.19 3207.79 1716.97L3203.7 1736.61 3195.93 1736.61 3201.1 1713.78C3201.73 1711 3202.15 1708.94 3202.38 1707.61 3202.6 1706.28 3202.72 1705.13 3202.72 1704.17 3202.72 1702.02 3202.33 1700.48 3201.57 1699.57 3200.81 1698.65 3199.62 1698.2 3198 1698.2 3196.86 1698.2 3195.57 1698.67 3194.11 1699.61 3192.66 1700.56 3191.11 1702.07 3189.46 1704.15 3187.82 1706.23 3186.53 1708.23 3185.6 1710.15 3184.67 1712.06 3183.89 1714.4 3183.26 1717.15L3179 1736.61 3171.23 1736.61 3177.78 1708.12C3178.44 1705.25 3178.77 1703.03 3178.77 1701.48 3178.77 1700.28 3178.58 1699.41 3178.19 1698.87 3177.8 1698.33 3177.19 1698.06 3176.35 1698.06 3175.42 1698.06 3174.44 1698.44 3173.4 1699.21 3172.37 1699.97 3170.96 1701.36 3169.16 1703.36L3166.6 1700.85C3169.23 1698.09 3171.5 1696.08 3173.4 1694.81 3175.31 1693.53 3177.4 1692.9 3179.67 1692.9Z" fill-rule="evenodd"/><text fill="#000000" fill-opacity="0" font-family="Arial,Arial_MSFontService,sans-serif" font-size="44.4277" x="3166.6" y="1731.77">𝑚</text><path d="M3276 1716.66 3331.35 1716.66 3331.35 1722.63 3276 1722.63ZM3276 1698.02 3331.35 1698.02 3331.35 1703.99 3276 1703.99Z" fill-rule="evenodd"/><text fill="#000000" fill-opacity="0" font-family="Arial,Arial_MSFontService,sans-serif" font-size="24.6172" x="3276" y="1719.56">=</text><path d="M3490.99 1678.39C3488.93 1678.39 3487.2 1679 3485.8 1680.23 3484.41 1681.46 3483.29 1683.22 3482.43 1685.53 3481.58 1687.83 3480.97 1690.64 3480.61 1693.95 3480.26 1697.26 3480.08 1701 3480.08 1705.16 3480.08 1714.92 3480.98 1722.09 3482.79 1726.65 3484.6 1731.22 3487.41 1733.51 3491.22 1733.51 3494.84 1733.51 3497.53 1731.36 3499.28 1727.06 3501.03 1722.76 3501.91 1716.11 3501.91 1707.09 3501.91 1700.2 3501.46 1694.63 3500.56 1690.36 3499.66 1686.09 3498.41 1683.03 3496.81 1681.17 3495.21 1679.31 3493.27 1678.39 3490.99 1678.39ZM3439.99 1678.39C3437.93 1678.39 3436.2 1679 3434.8 1680.23 3433.41 1681.46 3432.29 1683.22 3431.43 1685.53 3430.58 1687.83 3429.97 1690.64 3429.61 1693.95 3429.26 1697.26 3429.08 1701 3429.08 1705.16 3429.08 1714.92 3429.98 1722.09 3431.79 1726.65 3433.6 1731.22 3436.41 1733.51 3440.22 1733.51 3443.84 1733.51 3446.53 1731.36 3448.28 1727.06 3450.03 1722.76 3450.91 1716.11 3450.91 1707.09 3450.91 1700.2 3450.46 1694.63 3449.56 1690.36 3448.66 1686.09 3447.41 1683.03 3445.81 1681.17 3444.21 1679.31 3442.27 1678.39 3439.99 1678.39ZM3491.22 1674.57C3497.77 1674.57 3502.66 1677.1 3505.86 1682.16 3509.06 1687.22 3510.67 1694.87 3510.67 1705.11 3510.67 1715.72 3508.95 1723.73 3505.52 1729.17 3502.09 1734.61 3497.09 1737.32 3490.5 1737.32 3484.03 1737.32 3479.21 1734.78 3476.05 1729.69 3472.9 1724.6 3471.32 1716.87 3471.32 1706.51 3471.32 1701 3471.8 1696.24 3472.78 1692.22 3473.75 1688.21 3475.11 1684.89 3476.86 1682.27 3478.62 1679.65 3480.72 1677.71 3483.18 1676.45 3485.63 1675.2 3488.31 1674.57 3491.22 1674.57ZM3440.22 1674.57C3446.77 1674.57 3451.66 1677.1 3454.86 1682.16 3458.06 1687.22 3459.67 1694.87 3459.67 1705.11 3459.67 1715.72 3457.95 1723.73 3454.52 1729.17 3451.09 1734.61 3446.09 1737.32 3439.5 1737.32 3433.03 1737.32 3428.21 1734.78 3425.05 1729.69 3421.9 1724.6 3420.32 1716.87 3420.32 1706.51 3420.32 1701 3420.8 1696.24 3421.78 1692.22 3422.75 1688.21 3424.11 1684.89 3425.86 1682.27 3427.62 1679.65 3429.72 1677.71 3432.18 1676.45 3434.63 1675.2 3437.31 1674.57 3440.22 1674.57ZM3401.93 1672.32 3405.43 1672.32 3404.76 1682.74 3378.93 1682.74 3378.93 1702.46C3380.49 1701.81 3382.18 1701.31 3384.01 1700.98 3385.83 1700.65 3387.66 1700.49 3389.49 1700.49 3393.05 1700.49 3396.21 1701.21 3398.96 1702.67 3401.72 1704.12 3403.85 1706.19 3405.34 1708.87 3406.84 1711.55 3407.59 1714.65 3407.59 1718.19 3407.59 1722.2 3406.75 1725.64 3405.07 1728.52 3403.4 1731.39 3400.97 1733.58 3397.8 1735.08 3394.62 1736.58 3390.86 1737.32 3386.52 1737.32 3381.34 1737.32 3375.92 1736.26 3370.26 1734.13L3370.26 1724.61 3375.69 1724.61C3376.59 1727.67 3377.95 1729.91 3379.76 1731.35 3381.57 1732.79 3383.92 1733.51 3386.79 1733.51 3390.77 1733.51 3393.78 1732.31 3395.82 1729.91 3397.86 1727.52 3398.87 1723.94 3398.87 1719.18 3398.87 1716 3398.34 1713.37 3397.26 1711.29 3396.18 1709.21 3394.73 1707.71 3392.9 1706.78 3391.07 1705.85 3388.95 1705.38 3386.52 1705.38 3384.48 1705.38 3382.73 1705.51 3381.26 1705.77 3379.8 1706.02 3378.23 1706.42 3376.55 1706.96L3372.95 1704.85 3372.95 1675.29 3397.71 1675.29C3398.72 1675.29 3399.46 1675.2 3399.91 1675.04 3400.36 1674.88 3400.72 1674.62 3400.99 1674.28 3401.26 1673.93 3401.57 1673.28 3401.93 1672.32Z" fill-rule="evenodd"/><text fill="#000000" fill-opacity="0" font-family="Arial,Arial_MSFontService,sans-serif" font-size="65.002" x="3370.26" y="1729.2">500</text><g clip-path="url(#clip5)"><path d="M2079.5 1623.5 2736.5 1623.5M2079.5 1498.55 2736.5 1498.55M2079.5 1373.55 2736.5 1373.55M2079.5 1248.54 2736.5 1248.54M2079.5 1124.54 2736.5 1124.54M2079.5 999.533 2736.5 999.533M2079.5 874.529 2736.5 874.529M2079.5 749.5 2736.5 749.5" stroke="#D9D9D9" stroke-width="3.4375" stroke-linejoin="round" stroke-miterlimit="10" fill="none"/></g><g clip-path="url(#clip6)"><rect x="2134.5" y="1210.5" width="109" height="413" stroke="#FF0000" stroke-width="3.4375" stroke-linejoin="round" stroke-miterlimit="10" fill="#FF0000"/></g><g clip-path="url(#clip7)"><rect x="2353.5" y="1249.5" width="109" height="374" stroke="#0070C0" stroke-width="3.4375" stroke-linejoin="round" stroke-miterlimit="10" fill="#4472C4"/></g><g clip-path="url(#clip8)"><rect x="2572.5" y="787.5" width="110" height="836" stroke="#006600" stroke-width="3.4375" stroke-linejoin="round" stroke-miterlimit="10" fill="#006600"/></g><text font-family="Times New Roman,Times New Roman_MSFontService,sans-serif" font-weight="400" font-size="83" transform="matrix(1 0 0 1 1951.81 1278)">0.6<tspan font-size="83" x="0" y="126">0.4</tspan><tspan font-size="83" x="0" y="250">0.2</tspan></text><g clip-path="url(#clip9)"><path d="M3021.5 1624.5 3682.5 1624.5M3021.5 1478.55 3682.5 1478.55M3021.5 1332.54 3682.5 1332.54M3021.5 1187.54 3682.5 1187.54M3021.5 1041.53 3682.5 1041.53M3021.5 896.53 3682.5 896.53M3021.5 750.5 3682.5 750.5" stroke="#D9D9D9" stroke-width="3.4375" stroke-linejoin="round" stroke-miterlimit="10" fill="none"/></g><g clip-path="url(#clip10)"><rect x="3076.5" y="833.5" width="110" height="791" stroke="#FF0000" stroke-width="3.4375" stroke-linejoin="round" stroke-miterlimit="10" fill="#FF0000"/></g><g clip-path="url(#clip11)"><rect x="3297.5" y="1267.5" width="110" height="357" stroke="#0070C0" stroke-width="3.4375" stroke-linejoin="round" stroke-miterlimit="10" fill="#4472C4"/></g><g clip-path="url(#clip12)"><rect x="3517.5" y="828.5" width="110" height="796" stroke="#006600" stroke-width="3.4375" stroke-linejoin="round" stroke-miterlimit="10" fill="#006600"/></g><text font-family="Times New Roman,Times New Roman_MSFontService,sans-serif" font-weight="400" font-size="83" transform="matrix(1 0 0 1 2862.3 923)">0.05<tspan font-size="83" x="0" y="144">0.04</tspan><tspan font-size="83" x="0" y="293">0.03</tspan><tspan font-size="83" x="0" y="437">0.02</tspan><tspan font-size="83" x="0" y="587">0.01</tspan><tspan font-size="83" x="51.5625" y="730">0</tspan></text></g></svg>