<svg width="2869" height="1233" xmlns="http://www.w3.org/2000/svg" xmlns:xlink="http://www.w3.org/1999/xlink" overflow="hidden"><defs><clipPath id="clip0"><rect x="894" y="555" width="2869" height="1233"/></clipPath><clipPath id="clip1"><rect x="1150" y="699" width="701" height="962"/></clipPath><clipPath id="clip2"><rect x="1184" y="749" width="652" height="879"/></clipPath><clipPath id="clip3"><rect x="1184" y="749" width="652" height="879"/></clipPath><clipPath id="clip4"><rect x="1184" y="749" width="652" height="879"/></clipPath><clipPath id="clip5"><rect x="2060" y="723" width="695" height="935"/></clipPath><clipPath id="clip6"><rect x="2079" y="749" width="661" height="877"/></clipPath><clipPath id="clip7"><rect x="2079" y="749" width="661" height="877"/></clipPath><clipPath id="clip8"><rect x="2079" y="749" width="661" height="877"/></clipPath><clipPath id="clip9"><rect x="2986" y="715" width="715" height="935"/></clipPath><clipPath id="clip10"><rect x="3021" y="750" width="664" height="877"/></clipPath><clipPath id="clip11"><rect x="3021" y="750" width="664" height="877"/></clipPath><clipPath id="clip12"><rect x="3021" y="750" width="664" height="877"/></clipPath></defs><g clip-path="url(#clip0)" transform="translate(-894 -555)"><g clip-path="url(#clip1)"><path d="M1184.5 1624.5 1832.5 1624.5M1184.5 1405.55 1832.5 1405.55M1184.5 1186.54 1832.5 1186.54M1184.5 968.532 1832.5 968.532M1184.5 749.5 1832.5 749.5" stroke="#D9D9D9" stroke-width="3.4375" stroke-linejoin="round" stroke-miterlimit="10" fill="none"/></g><g clip-path="url(#clip2)"><rect x="1238.5" y="1226.5" width="108" height="398" stroke="#FF0000" stroke-width="3.4375" stroke-linejoin="round" stroke-miterlimit="10" fill="#FF0000"/></g><g clip-path="url(#clip3)"><rect x="1454.5" y="1227.5" width="108" height="397" stroke="#0070C0" stroke-width="3.4375" stroke-linejoin="round" stroke-miterlimit="10" fill="#4472C4"/></g><g clip-path="url(#clip4)"><rect x="1670.5" y="819.5" width="108" height="805" stroke="#006600" stroke-width="3.4375" stroke-linejoin="round" stroke-miterlimit="10" fill="#006600"/></g><path d="M934.821 596.705 986.821 596.705 986.821 648.705 934.821 648.705Z" stroke="#FF0000" stroke-width="8.47303" stroke-linejoin="round" stroke-miterlimit="10" fill="#FF0000" fill-rule="evenodd"/><path d="M1238.93 616.511 1252.57 616.511 1252.57 642.551C1252.57 646.176 1253.2 648.555 1254.46 649.688 1255.72 650.821 1257.24 651.387 1259.02 651.387 1260.24 651.387 1261.62 651.005 1263.17 650.24 1264.71 649.476 1266.54 648.017 1268.67 645.865L1268.67 623.818C1268.67 621.609 1268.26 620.115 1267.46 619.336 1266.65 618.557 1264.97 618.139 1262.42 618.083L1262.42 616.511 1275.68 616.511 1275.68 640.088C1275.68 644.59 1275.78 647.345 1276 648.35 1276.21 649.355 1276.55 650.056 1277.01 650.453 1277.48 650.849 1278.03 651.047 1278.65 651.047 1279.53 651.047 1280.52 650.807 1281.62 650.325L1282.22 651.812 1270.58 656.612 1268.67 656.612 1268.67 648.371C1265.33 651.996 1262.78 654.276 1261.02 655.211 1259.26 656.145 1257.41 656.612 1255.46 656.612 1253.28 656.612 1251.38 655.982 1249.78 654.722 1248.18 653.462 1247.07 651.84 1246.45 649.858 1245.83 647.876 1245.52 645.072 1245.52 641.447L1245.52 624.072C1245.52 622.232 1245.32 620.957 1244.92 620.249 1244.52 619.541 1243.94 618.996 1243.16 618.614 1242.38 618.231 1240.97 618.054 1238.93 618.083ZM1040.69 609.714 1030.66 632.993 1050.46 632.993ZM1157.4 601.048C1155.76 601.048 1153.53 601.317 1150.73 601.855L1150.73 625.814C1151.27 625.814 1151.74 625.821 1152.13 625.835 1152.53 625.849 1152.85 625.857 1153.11 625.857 1158.6 625.857 1162.75 624.667 1165.53 622.288 1168.32 619.909 1169.72 616.879 1169.72 613.197 1169.72 609.601 1168.59 606.677 1166.34 604.425 1164.09 602.174 1161.11 601.048 1157.4 601.048ZM1099.4 601.048C1097.76 601.048 1095.53 601.317 1092.73 601.855L1092.73 625.814C1093.27 625.814 1093.74 625.821 1094.13 625.835 1094.53 625.849 1094.85 625.857 1095.11 625.857 1100.6 625.857 1104.75 624.667 1107.53 622.288 1110.32 619.909 1111.72 616.879 1111.72 613.197 1111.72 609.601 1110.59 606.677 1108.34 604.425 1106.09 602.174 1103.11 601.048 1099.4 601.048ZM1192.25 597.819 1235.11 597.819 1235.66 610.479 1234.18 610.479C1233.44 607.788 1232.58 605.813 1231.61 604.553 1230.63 603.292 1229.43 602.379 1228 601.813 1226.56 601.246 1224.35 600.963 1221.35 600.963L1208.65 600.963 1208.65 623.605 1219.14 623.605C1221.55 623.605 1223.31 623.074 1224.43 622.012 1225.55 620.95 1226.29 618.847 1226.66 615.704L1228.23 615.704 1228.23 635.202 1226.66 635.202C1226.63 632.965 1226.34 631.322 1225.79 630.275 1225.23 629.227 1224.47 628.441 1223.49 627.917 1222.52 627.393 1221.06 627.131 1219.14 627.131L1208.65 627.131 1208.65 645.228C1208.65 648.145 1208.83 650.07 1209.2 651.005 1209.48 651.713 1210.08 652.322 1210.98 652.832 1212.23 653.511 1213.53 653.851 1214.89 653.851L1216.97 653.851 1216.97 655.423 1192.25 655.423 1192.25 653.851 1194.29 653.851C1196.67 653.851 1198.39 653.157 1199.47 651.77 1200.15 650.863 1200.49 648.683 1200.49 645.228L1200.49 608.015C1200.49 605.098 1200.3 603.172 1199.94 602.237 1199.65 601.529 1199.07 600.921 1198.2 600.411 1196.98 599.731 1195.67 599.391 1194.29 599.391L1192.25 599.391ZM1134.33 597.819 1155.32 597.819C1161.44 597.819 1165.95 598.266 1168.85 599.158 1171.75 600.05 1174.21 601.692 1176.24 604.085 1178.26 606.478 1179.28 609.332 1179.28 612.645 1179.28 616.185 1178.12 619.258 1175.81 621.863 1173.51 624.469 1169.93 626.31 1165.09 627.386L1176.98 643.911C1179.7 647.706 1182.04 650.226 1183.99 651.472 1185.95 652.718 1188.5 653.511 1191.64 653.851L1191.64 655.423 1176.26 655.423 1156.76 628.49C1155.32 628.547 1154.14 628.575 1153.24 628.575 1152.87 628.575 1152.47 628.568 1152.05 628.554 1151.62 628.54 1151.18 628.519 1150.73 628.49L1150.73 645.228C1150.73 648.853 1151.13 651.104 1151.92 651.982 1153 653.228 1154.61 653.851 1156.76 653.851L1159.01 653.851 1159.01 655.423 1134.33 655.423 1134.33 653.851 1136.5 653.851C1138.93 653.851 1140.68 653.058 1141.72 651.472 1142.32 650.594 1142.62 648.513 1142.62 645.228L1142.62 608.015C1142.62 604.39 1142.22 602.138 1141.43 601.26 1140.32 600.014 1138.68 599.391 1136.5 599.391L1134.33 599.391ZM1076.33 597.819 1097.32 597.819C1103.44 597.819 1107.95 598.266 1110.85 599.158 1113.75 600.05 1116.21 601.692 1118.24 604.085 1120.26 606.478 1121.28 609.332 1121.28 612.645 1121.28 616.185 1120.12 619.258 1117.81 621.863 1115.51 624.469 1111.93 626.31 1107.09 627.386L1118.98 643.911C1121.7 647.706 1124.04 650.226 1125.99 651.472 1127.95 652.718 1130.5 653.511 1133.64 653.851L1133.64 655.423 1118.26 655.423 1098.76 628.49C1097.32 628.547 1096.14 628.575 1095.24 628.575 1094.87 628.575 1094.47 628.568 1094.05 628.554 1093.62 628.54 1093.18 628.519 1092.73 628.49L1092.73 645.228C1092.73 648.853 1093.13 651.104 1093.92 651.982 1095 653.228 1096.61 653.851 1098.76 653.851L1101.01 653.851 1101.01 655.423 1076.33 655.423 1076.33 653.851 1078.5 653.851C1080.93 653.851 1082.68 653.058 1083.72 651.472 1084.32 650.594 1084.62 648.513 1084.62 645.228L1084.62 608.015C1084.62 604.39 1084.22 602.138 1083.43 601.26 1082.32 600.014 1080.68 599.391 1078.5 599.391L1076.33 599.391ZM1042.26 596.503 1043.75 596.503 1063.8 644.421C1065.41 648.272 1066.88 650.771 1068.2 651.918 1069.51 653.065 1071.35 653.71 1073.7 653.851L1073.7 655.423 1050.97 655.423 1050.97 653.851C1053.26 653.738 1054.81 653.356 1055.62 652.704 1056.43 652.053 1056.83 651.26 1056.83 650.325 1056.83 649.079 1056.27 647.111 1055.13 644.421L1051.65 636.137 1029.35 636.137 1025.44 645.228C1024.48 647.465 1024 649.136 1024 650.24 1024 651.118 1024.41 651.89 1025.25 652.556 1026.08 653.221 1027.89 653.653 1030.66 653.851L1030.66 655.423 1012.53 655.423 1012.53 653.851C1014.93 653.426 1016.49 652.874 1017.2 652.194 1018.64 650.835 1020.24 648.074 1022 643.911ZM1321.03 595.016 1322.95 595.016 1322.95 646.63C1322.95 649.065 1323.12 650.679 1323.48 651.472 1323.83 652.265 1324.38 652.867 1325.11 653.278 1325.85 653.688 1327.22 653.894 1329.23 653.894L1329.23 655.423 1310.16 655.423 1310.16 653.894C1311.94 653.894 1313.16 653.71 1313.81 653.341 1314.46 652.973 1314.97 652.364 1315.34 651.515 1315.71 650.665 1315.89 649.037 1315.89 646.63L1315.89 611.286C1315.89 606.896 1315.8 604.199 1315.6 603.193 1315.4 602.188 1315.08 601.501 1314.64 601.133 1314.2 600.765 1313.64 600.581 1312.96 600.581 1312.23 600.581 1311.29 600.807 1310.16 601.26L1309.44 599.774ZM1297.03 595.016 1298.95 595.016 1298.95 646.63C1298.95 649.065 1299.12 650.679 1299.48 651.472 1299.83 652.265 1300.38 652.867 1301.11 653.278 1301.85 653.688 1303.22 653.894 1305.23 653.894L1305.23 655.423 1286.16 655.423 1286.16 653.894C1287.94 653.894 1289.16 653.71 1289.81 653.341 1290.46 652.973 1290.97 652.364 1291.34 651.515 1291.71 650.665 1291.89 649.037 1291.89 646.63L1291.89 611.286C1291.89 606.896 1291.8 604.199 1291.6 603.193 1291.4 602.188 1291.08 601.501 1290.64 601.133 1290.2 600.765 1289.64 600.581 1288.96 600.581 1288.23 600.581 1287.29 600.807 1286.16 601.26L1285.44 599.774Z" fill-rule="evenodd"/><text fill="#000000" fill-opacity="0" font-family="Arial,Arial_MSFontService,sans-serif" font-size="61.5967" x="1012.53" y="648.913">ARRFull</text><path d="M1354.49 601.133C1352.57 601.133 1350.74 601.19 1349.01 601.303L1349.01 651.472C1350.15 651.586 1351.82 651.642 1354.03 651.642 1356.41 651.642 1358.53 651.444 1360.4 651.047 1362.27 650.651 1363.97 650.028 1365.5 649.178 1367.03 648.329 1368.4 647.146 1369.62 645.631 1370.84 644.116 1371.83 642.374 1372.59 640.406 1373.36 638.438 1373.92 636.25 1374.27 633.843 1374.62 631.436 1374.8 628.802 1374.8 625.942 1374.8 620.193 1373.97 615.47 1372.32 611.774 1370.66 608.078 1368.32 605.381 1365.31 603.682 1362.29 601.983 1358.69 601.133 1354.49 601.133ZM1394.1 597.437 1411.98 597.437 1411.98 599.519C1410.74 599.859 1409.85 600.163 1409.33 600.432 1408.81 600.701 1408.37 601.062 1408.03 601.515 1407.69 601.968 1407.44 602.662 1407.27 603.597 1407.1 604.531 1407.01 606.018 1407.01 608.057L1407.01 651.515 1418.14 651.515C1419.36 651.515 1420.38 651.444 1421.2 651.302 1422.02 651.161 1422.73 650.941 1423.31 650.644 1423.89 650.347 1424.41 649.936 1424.88 649.412 1425.35 648.888 1425.79 648.201 1426.22 647.352 1426.64 646.502 1427.04 645.433 1427.43 644.144 1427.81 642.856 1428.28 640.923 1428.85 638.346L1433.14 638.346 1432.29 655.423 1394.1 655.423 1394.1 653.341C1395.86 652.888 1397.03 652.386 1397.63 651.833 1398.22 651.281 1398.61 650.495 1398.79 649.476 1398.98 648.456 1399.07 646.899 1399.07 644.803L1399.07 608.057C1399.07 606.103 1399 604.68 1398.86 603.788 1398.72 602.896 1398.48 602.202 1398.16 601.706 1397.83 601.211 1397.4 600.814 1396.86 600.517 1396.32 600.22 1395.4 599.887 1394.1 599.519ZM1336.06 597.437 1354.66 597.437C1360.02 597.437 1364.4 598.025 1367.81 599.2 1371.22 600.375 1374.11 602.11 1376.46 604.404 1378.81 606.698 1380.56 609.551 1381.72 612.964 1382.89 616.376 1383.47 620.447 1383.47 625.177 1383.47 629.963 1382.92 634.176 1381.83 637.815 1380.74 641.454 1379.15 644.505 1377.05 646.969 1375.24 649.122 1373.02 650.892 1370.38 652.279 1368.2 653.412 1365.68 654.219 1362.82 654.701 1359.96 655.182 1356.17 655.423 1351.44 655.423L1336.06 655.423 1336.06 653.341C1337.36 653.002 1338.3 652.676 1338.86 652.364 1339.43 652.053 1339.87 651.656 1340.18 651.175 1340.49 650.693 1340.72 650 1340.86 649.093 1341 648.187 1341.07 646.757 1341.07 644.803L1341.07 608.057C1341.07 606.075 1341 604.638 1340.86 603.745 1340.72 602.853 1340.48 602.167 1340.16 601.685 1339.83 601.204 1339.4 600.814 1338.86 600.517 1338.32 600.22 1337.39 599.887 1336.06 599.519Z" fill-rule="evenodd"/><text fill="#000000" fill-opacity="0" font-family="Arial,Arial_MSFontService,sans-serif" font-size="57.9858" x="1336.06" y="648.175">DL</text><path d="M1454.84 636.956 1442.93 668.206 1464.68 668.206ZM1453.74 630.05 1458.37 630.05 1471.55 671.206 1471.55 673.206 1437.4 673.206 1437.4 671.206Z" fill-rule="evenodd"/><text fill="#000000" fill-opacity="0" font-family="Arial,Arial_MSFontService,sans-serif" font-size="43.1562" x="1437.4" y="667.812">∆</text><path d="M1529.49 594.039 1530.64 597.31C1524.01 599.49 1519.1 603.745 1515.92 610.075 1512.73 616.405 1511.14 624.356 1511.14 633.928 1511.14 643.84 1512.73 652.01 1515.92 658.439 1519.1 664.868 1523.97 669.172 1530.51 671.353L1529.49 674.624C1521.19 672.443 1514.84 667.749 1510.42 660.542 1506 653.334 1503.79 644.605 1503.79 634.353 1503.79 624.129 1506.01 615.399 1510.44 608.163 1514.87 600.928 1521.22 596.219 1529.49 594.039Z" fill-rule="evenodd"/><text fill="#000000" fill-opacity="0" font-family="Arial,Arial_MSFontService,sans-serif" font-size="80.5854" x="1503.79" y="664.551">(</text><path d="M1555.77 601.133C1553.85 601.133 1552.02 601.19 1550.29 601.303L1550.29 651.472C1551.42 651.586 1553.1 651.642 1555.3 651.642 1557.68 651.642 1559.81 651.444 1561.68 651.047 1563.55 650.651 1565.24 650.028 1566.77 649.178 1568.3 648.329 1569.68 647.146 1570.89 645.631 1572.11 644.116 1573.1 642.374 1573.87 640.406 1574.63 638.438 1575.19 636.25 1575.55 633.843 1575.9 631.436 1576.08 628.802 1576.08 625.942 1576.08 620.193 1575.25 615.47 1573.59 611.774 1571.94 608.078 1569.6 605.381 1566.58 603.682 1563.57 601.983 1559.96 601.133 1555.77 601.133ZM1537.34 597.437 1555.94 597.437C1561.29 597.437 1565.68 598.025 1569.09 599.2 1572.5 600.375 1575.38 602.11 1577.73 604.404 1580.08 606.698 1581.84 609.551 1583 612.964 1584.16 616.376 1584.74 620.447 1584.74 625.177 1584.74 629.963 1584.2 634.176 1583.11 637.815 1582.02 641.454 1580.42 644.505 1578.33 646.969 1576.52 649.122 1574.29 650.892 1571.66 652.279 1569.48 653.412 1566.96 654.219 1564.1 654.701 1561.24 655.182 1557.44 655.423 1552.71 655.423L1537.34 655.423 1537.34 653.341C1538.64 653.002 1539.57 652.676 1540.14 652.364 1540.71 652.053 1541.14 651.656 1541.46 651.175 1541.77 650.693 1541.99 650 1542.14 649.093 1542.28 648.187 1542.35 646.757 1542.35 644.803L1542.35 608.057C1542.35 606.075 1542.28 604.638 1542.14 603.745 1541.99 602.853 1541.76 602.167 1541.43 601.685 1541.11 601.204 1540.68 600.814 1540.14 600.517 1539.6 600.22 1538.67 599.887 1537.34 599.519ZM1619.89 596.757C1622.47 596.757 1624.85 596.892 1627.03 597.161 1629.21 597.43 1631.7 597.933 1634.5 598.669L1634.5 610.436 1630.3 610.436C1629.62 607.972 1628.75 606.011 1627.71 604.553 1626.66 603.094 1625.44 602.053 1624.05 601.43 1622.66 600.807 1620.99 600.496 1619.04 600.496 1616.12 600.496 1613.52 601.466 1611.24 603.406 1608.96 605.346 1607.17 608.263 1605.87 612.157 1604.57 616.051 1603.92 620.759 1603.92 626.281 1603.92 631.832 1604.45 636.569 1605.53 640.491 1606.61 644.413 1608.19 647.373 1610.29 649.37 1612.38 651.366 1614.96 652.364 1618.02 652.364 1620.34 652.364 1622.24 652.032 1623.71 651.366 1625.18 650.701 1626.42 649.646 1627.43 648.201 1628.43 646.757 1629.39 644.633 1630.3 641.829L1634.5 641.829 1634.5 653.979C1631.84 654.687 1629.11 655.218 1626.32 655.572 1623.54 655.926 1620.47 656.103 1617.13 656.103 1609.93 656.103 1604.5 653.667 1600.82 648.796 1597.13 643.925 1595.29 636.661 1595.29 627.004 1595.29 620.943 1596.25 615.633 1598.16 611.073 1600.07 606.514 1602.88 602.988 1606.59 600.496 1610.3 598.004 1614.73 596.757 1619.89 596.757Z" fill-rule="evenodd"/><text fill="#000000" fill-opacity="0" font-family="Arial,Arial_MSFontService,sans-serif" font-size="59.3452" x="1537.34" y="648.685">DC</text><path d="M1642.13 594.039C1650.4 596.219 1656.75 600.928 1661.19 608.163 1665.62 615.399 1667.83 624.129 1667.83 634.353 1667.83 644.605 1665.63 653.334 1661.21 660.542 1656.79 667.749 1650.43 672.443 1642.13 674.624L1641.11 671.353C1647.66 669.172 1652.52 664.868 1655.71 658.439 1658.89 652.01 1660.49 643.84 1660.49 633.928 1660.49 624.356 1658.9 616.405 1655.73 610.075 1652.56 603.745 1647.64 599.49 1640.99 597.31Z" fill-rule="evenodd"/><text fill="#000000" fill-opacity="0" font-family="Arial,Arial_MSFontService,sans-serif" font-size="80.5854" x="1640.99" y="664.551">)</text><path d="M1726.82 596.708 1778.82 596.708 1778.82 645.708 1726.82 645.708Z" stroke="#0070C0" stroke-width="8.47303" stroke-linejoin="round" stroke-miterlimit="10" fill="#4472C4" fill-rule="evenodd"/><path d="M2108.58 615.069C2106.23 615.069 2104.12 615.983 2102.27 617.809 2100.41 619.636 2099.33 622.178 2099.02 625.435L2117.03 625.435C2116.89 622.942 2116.59 621.186 2116.14 620.167 2115.43 618.581 2114.38 617.335 2112.97 616.429 2111.57 615.522 2110.11 615.069 2108.58 615.069ZM2212.19 614.857C2210.69 614.857 2209.18 615.303 2207.67 616.195 2206.15 617.087 2204.93 618.652 2203.99 620.889 2203.06 623.126 2202.59 626.001 2202.59 629.513 2202.59 635.177 2203.72 640.062 2205.97 644.168 2208.22 648.275 2211.19 650.328 2214.87 650.328 2217.61 650.328 2219.88 649.195 2221.66 646.93 2223.45 644.664 2224.34 640.77 2224.34 635.247 2224.34 628.337 2222.85 622.9 2219.88 618.935 2217.87 616.216 2215.31 614.857 2212.19 614.857ZM2293.27 613.243 2311.41 613.243 2311.41 614.814 2310.51 614.814C2309.24 614.814 2308.28 615.091 2307.65 615.643 2307.01 616.195 2306.69 616.882 2306.69 617.703 2306.69 618.808 2307.16 620.337 2308.09 622.291L2317.57 641.917 2326.28 620.422C2326.76 619.261 2327 618.114 2327 616.981 2327 616.471 2326.9 616.089 2326.7 615.834 2326.47 615.522 2326.12 615.275 2325.64 615.091 2325.16 614.906 2324.31 614.814 2323.09 614.814L2323.09 613.243 2335.75 613.243 2335.75 614.814C2334.7 614.928 2333.89 615.154 2333.33 615.494 2332.76 615.834 2332.14 616.471 2331.46 617.406 2331.2 617.802 2330.72 618.893 2330.01 620.677L2314.17 659.504C2312.64 663.27 2310.64 666.117 2308.16 668.042 2305.68 669.968 2303.29 670.931 2301 670.931 2299.33 670.931 2297.95 670.45 2296.88 669.487 2295.8 668.524 2295.26 667.419 2295.26 666.173 2295.26 664.984 2295.65 664.028 2296.43 663.306 2297.21 662.584 2298.28 662.223 2299.64 662.223 2300.57 662.223 2301.85 662.534 2303.46 663.157 2304.6 663.582 2305.3 663.794 2305.59 663.794 2306.44 663.794 2307.36 663.355 2308.37 662.477 2309.38 661.6 2310.39 659.9 2311.41 657.38L2314.17 650.625 2300.19 621.271C2299.77 620.393 2299.09 619.303 2298.15 618 2297.45 617.009 2296.86 616.344 2296.41 616.004 2295.76 615.551 2294.71 615.154 2293.27 614.814ZM2274.82 612.096C2276.34 612.096 2278.2 612.421 2280.38 613.073 2281.82 613.497 2282.79 613.71 2283.27 613.71 2283.72 613.71 2284.08 613.611 2284.33 613.413 2284.59 613.214 2284.88 612.775 2285.22 612.096L2286.63 612.096 2286.63 625.35 2285.22 625.35C2284.15 621.186 2282.77 618.354 2281.08 616.853 2279.4 615.352 2277.25 614.602 2274.65 614.602 2272.66 614.602 2271.06 615.126 2269.85 616.174 2268.63 617.222 2268.02 618.383 2268.02 619.657 2268.02 621.243 2268.47 622.602 2269.38 623.735 2270.26 624.896 2272.04 626.128 2274.73 627.431L2280.93 630.447C2286.68 633.251 2289.56 636.947 2289.56 641.535 2289.56 645.075 2288.22 647.928 2285.54 650.094 2282.87 652.261 2279.87 653.344 2276.56 653.344 2274.18 653.344 2271.46 652.919 2268.4 652.07 2267.47 651.787 2266.7 651.645 2266.11 651.645 2265.46 651.645 2264.95 652.013 2264.58 652.749L2263.18 652.749 2263.18 638.858 2264.58 638.858C2265.37 642.823 2266.89 645.811 2269.12 647.822 2271.36 649.832 2273.87 650.838 2276.64 650.838 2278.6 650.838 2280.19 650.264 2281.42 649.117 2282.65 647.97 2283.27 646.59 2283.27 644.976 2283.27 643.021 2282.58 641.379 2281.21 640.048 2279.84 638.717 2277.1 637.032 2272.99 634.993 2268.88 632.954 2266.19 631.113 2264.92 629.47 2263.64 627.856 2263.01 625.817 2263.01 623.353 2263.01 620.153 2264.1 617.477 2266.3 615.324 2268.49 613.172 2271.33 612.096 2274.82 612.096ZM2249.03 612.096 2250.9 612.096 2250.9 643.361C2250.9 645.797 2251.08 647.418 2251.43 648.225 2251.79 649.032 2252.31 649.634 2253 650.031 2253.7 650.427 2254.96 650.625 2256.81 650.625L2256.81 652.155 2237.9 652.155 2237.9 650.625C2239.8 650.625 2241.07 650.441 2241.72 650.073 2242.38 649.705 2242.89 649.096 2243.28 648.247 2243.66 647.397 2243.85 645.768 2243.85 643.361L2243.85 628.366C2243.85 624.146 2243.72 621.413 2243.47 620.167 2243.27 619.261 2242.96 618.631 2242.53 618.277 2242.11 617.923 2241.53 617.746 2240.79 617.746 2240 617.746 2239.03 617.958 2237.9 618.383L2237.31 616.853ZM2213.51 612.096C2219.4 612.096 2224.13 614.333 2227.7 618.808 2230.73 622.631 2232.24 627.02 2232.24 631.977 2232.24 635.46 2231.41 638.986 2229.74 642.554 2228.06 646.122 2225.76 648.813 2222.83 650.625 2219.9 652.438 2216.64 653.344 2213.04 653.344 2207.18 653.344 2202.52 651.008 2199.06 646.335 2196.15 642.398 2194.69 637.98 2194.69 633.081 2194.69 629.513 2195.57 625.966 2197.34 622.44 2199.11 618.914 2201.44 616.308 2204.33 614.623 2207.22 612.938 2210.28 612.096 2213.51 612.096ZM2058.99 612.096 2060.82 612.096 2060.82 620.337C2065.38 614.843 2069.73 612.096 2073.86 612.096 2075.98 612.096 2077.81 612.627 2079.34 613.689 2080.87 614.751 2082.09 616.499 2082.99 618.935 2083.62 620.634 2083.93 623.24 2083.93 626.751L2083.93 643.361C2083.93 645.825 2084.13 647.496 2084.52 648.374 2084.83 649.082 2085.34 649.634 2086.03 650.031 2086.73 650.427 2088.01 650.625 2089.88 650.625L2089.88 652.155 2070.63 652.155 2070.63 650.625 2071.44 650.625C2073.25 650.625 2074.52 650.349 2075.24 649.797 2075.96 649.245 2076.47 648.431 2076.75 647.354 2076.86 646.93 2076.92 645.599 2076.92 643.361L2076.92 627.431C2076.92 623.891 2076.46 621.321 2075.54 619.721 2074.62 618.121 2073.07 617.321 2070.89 617.321 2067.52 617.321 2064.16 619.162 2060.82 622.843L2060.82 643.361C2060.82 645.995 2060.97 647.623 2061.29 648.247 2061.68 649.068 2062.23 649.67 2062.92 650.052 2063.62 650.434 2065.02 650.625 2067.15 650.625L2067.15 652.155 2047.91 652.155 2047.91 650.625 2048.75 650.625C2050.74 650.625 2052.08 650.123 2052.77 649.117 2053.46 648.112 2053.81 646.193 2053.81 643.361L2053.81 628.918C2053.81 624.245 2053.7 621.399 2053.49 620.379 2053.28 619.36 2052.95 618.666 2052.51 618.298 2052.08 617.93 2051.49 617.746 2050.75 617.746 2049.96 617.746 2049.01 617.958 2047.91 618.383L2047.27 616.853ZM2110.96 612.053C2115.32 612.053 2118.9 613.49 2121.7 616.365 2124.51 619.239 2125.91 623.084 2125.91 627.898L2099.02 627.898C2098.99 633.676 2100.39 638.207 2103.22 641.492 2106.06 644.777 2109.38 646.42 2113.21 646.42 2115.76 646.42 2117.97 645.719 2119.86 644.317 2121.74 642.915 2123.32 640.515 2124.59 637.117L2125.91 637.966C2125.31 641.846 2123.59 645.379 2120.73 648.565 2117.87 651.751 2114.28 653.344 2109.98 653.344 2105.31 653.344 2101.31 651.525 2097.98 647.885 2094.65 644.246 2092.99 639.354 2092.99 633.208 2092.99 626.553 2094.69 621.363 2098.11 617.639 2101.52 613.915 2105.8 612.053 2110.96 612.053ZM1833.6 606.446 1823.58 629.725 1843.37 629.725ZM1950.31 597.78C1948.67 597.78 1946.45 598.049 1943.64 598.587L1943.64 622.546C1944.18 622.546 1944.65 622.553 1945.04 622.567 1945.44 622.581 1945.77 622.588 1946.02 622.588 1951.52 622.588 1955.66 621.399 1958.45 619.02 1961.24 616.641 1962.63 613.611 1962.63 609.929 1962.63 606.332 1961.51 603.408 1959.25 601.157 1957 598.905 1954.02 597.78 1950.31 597.78ZM1892.31 597.78C1890.67 597.78 1888.45 598.049 1885.64 598.587L1885.64 622.546C1886.18 622.546 1886.65 622.553 1887.04 622.567 1887.44 622.581 1887.77 622.588 1888.02 622.588 1893.52 622.588 1897.66 621.399 1900.45 619.02 1903.24 616.641 1904.63 613.611 1904.63 609.929 1904.63 606.332 1903.51 603.408 1901.25 601.157 1899 598.905 1896.02 597.78 1892.31 597.78ZM2014.77 596.335C2009.61 596.335 2005.48 598.247 2002.36 602.07 1998.48 606.828 1996.54 613.795 1996.54 622.971 1996.54 632.373 1998.56 639.609 2002.58 644.678 2005.66 648.53 2009.74 650.456 2014.81 650.456 2020.22 650.456 2024.69 648.346 2028.21 644.126 2031.74 639.906 2033.5 633.251 2033.5 624.16 2033.5 614.305 2031.56 606.956 2027.68 602.113 2024.57 598.261 2020.26 596.335 2014.77 596.335ZM2127.61 594.551 2143.24 594.551 2178.46 637.754 2178.46 604.534C2178.46 600.994 2178.06 598.785 2177.27 597.907 2176.22 596.718 2174.57 596.123 2172.3 596.123L2170.3 596.123 2170.3 594.551 2190.35 594.551 2190.35 596.123 2188.32 596.123C2185.88 596.123 2184.15 596.859 2183.13 598.332 2182.51 599.238 2182.2 601.306 2182.2 604.534L2182.2 653.089 2180.67 653.089 2142.69 606.701 2142.69 642.172C2142.69 645.712 2143.07 647.921 2143.84 648.799 2144.91 649.988 2146.57 650.583 2148.81 650.583L2150.85 650.583 2150.85 652.155 2130.8 652.155 2130.8 650.583 2132.79 650.583C2135.26 650.583 2137 649.847 2138.02 648.374 2138.64 647.468 2138.95 645.4 2138.95 642.172L2138.95 602.113C2137.28 600.159 2136.02 598.87 2135.15 598.247 2134.29 597.624 2133.02 597.043 2131.35 596.505 2130.53 596.25 2129.28 596.123 2127.61 596.123ZM1927.24 594.551 1948.23 594.551C1954.35 594.551 1958.86 594.997 1961.76 595.889 1964.66 596.781 1967.13 598.424 1969.15 600.817 1971.18 603.21 1972.19 606.063 1972.19 609.377 1972.19 612.917 1971.04 615.99 1968.73 618.595 1966.42 621.201 1962.84 623.041 1958 624.118L1969.9 640.643C1972.61 644.437 1974.95 646.958 1976.9 648.204 1978.86 649.45 1981.41 650.243 1984.55 650.583L1984.55 652.155 1969.17 652.155 1949.67 625.222C1948.23 625.279 1947.06 625.307 1946.15 625.307 1945.78 625.307 1945.38 625.3 1944.96 625.286 1944.53 625.272 1944.1 625.25 1943.64 625.222L1943.64 641.959C1943.64 645.584 1944.04 647.836 1944.83 648.714 1945.91 649.96 1947.52 650.583 1949.67 650.583L1951.93 650.583 1951.93 652.155 1927.24 652.155 1927.24 650.583 1929.41 650.583C1931.85 650.583 1933.59 649.79 1934.64 648.204 1935.23 647.326 1935.53 645.245 1935.53 641.959L1935.53 604.747C1935.53 601.122 1935.13 598.87 1934.34 597.992 1933.23 596.746 1931.59 596.123 1929.41 596.123L1927.24 596.123ZM1869.24 594.551 1890.23 594.551C1896.35 594.551 1900.86 594.997 1903.76 595.889 1906.66 596.781 1909.13 598.424 1911.15 600.817 1913.18 603.21 1914.19 606.063 1914.19 609.377 1914.19 612.917 1913.04 615.99 1910.73 618.595 1908.42 621.201 1904.84 623.041 1900 624.118L1911.9 640.643C1914.61 644.437 1916.95 646.958 1918.9 648.204 1920.86 649.45 1923.41 650.243 1926.55 650.583L1926.55 652.155 1911.17 652.155 1891.67 625.222C1890.23 625.279 1889.06 625.307 1888.15 625.307 1887.78 625.307 1887.38 625.3 1886.96 625.286 1886.53 625.272 1886.1 625.25 1885.64 625.222L1885.64 641.959C1885.64 645.584 1886.04 647.836 1886.83 648.714 1887.91 649.96 1889.52 650.583 1891.67 650.583L1893.93 650.583 1893.93 652.155 1869.24 652.155 1869.24 650.583 1871.41 650.583C1873.85 650.583 1875.59 649.79 1876.64 648.204 1877.23 647.326 1877.53 645.245 1877.53 641.959L1877.53 604.747C1877.53 601.122 1877.13 598.87 1876.34 597.992 1875.23 596.746 1873.59 596.123 1871.41 596.123L1869.24 596.123ZM2015.58 593.234C2023.05 593.234 2029.53 596.073 2035.01 601.752 2040.49 607.43 2043.23 614.517 2043.23 623.013 2043.23 631.764 2040.47 639.028 2034.95 644.806 2029.42 650.583 2022.74 653.472 2014.9 653.472 2006.97 653.472 2000.3 650.654 1994.91 645.018 1989.51 639.382 1986.82 632.09 1986.82 623.141 1986.82 613.993 1989.93 606.531 1996.16 600.753 2001.57 595.741 2008.04 593.234 2015.58 593.234ZM1835.17 593.234 1836.66 593.234 1856.71 641.152C1858.33 645.004 1859.79 647.503 1861.11 648.65 1862.43 649.797 1864.26 650.441 1866.61 650.583L1866.61 652.155 1843.88 652.155 1843.88 650.583C1846.18 650.47 1847.73 650.087 1848.53 649.436 1849.34 648.785 1849.74 647.992 1849.74 647.057 1849.74 645.811 1849.18 643.843 1848.05 641.152L1844.56 632.869 1822.26 632.869 1818.35 641.959C1817.39 644.197 1816.91 645.868 1816.91 646.972 1816.91 647.85 1817.33 648.622 1818.16 649.287 1819 649.953 1820.8 650.385 1823.58 650.583L1823.58 652.155 1805.44 652.155 1805.44 650.583C1807.85 650.158 1809.4 649.606 1810.11 648.926 1811.56 647.567 1813.16 644.806 1814.91 640.643ZM2247.37 591.747C2248.56 591.747 2249.58 592.165 2250.41 593.001 2251.25 593.836 2251.67 594.849 2251.67 596.038 2251.67 597.227 2251.25 598.247 2250.41 599.097 2249.58 599.946 2248.56 600.371 2247.37 600.371 2246.19 600.371 2245.17 599.946 2244.32 599.097 2243.47 598.247 2243.04 597.227 2243.04 596.038 2243.04 594.849 2243.46 593.836 2244.29 593.001 2245.13 592.165 2246.16 591.747 2247.37 591.747Z" fill-rule="evenodd"/><text fill="#000000" fill-opacity="0" font-family="Arial,Arial_MSFontService,sans-serif" font-size="79.1836" x="1805.44" y="661.033">ARROneNoisy</text><path d="M2359.96 597.865C2358.03 597.865 2356.21 597.921 2354.48 598.035L2354.48 648.204C2355.61 648.317 2357.28 648.374 2359.49 648.374 2361.87 648.374 2363.99 648.176 2365.86 647.779 2367.73 647.383 2369.43 646.76 2370.96 645.91 2372.49 645.06 2373.86 643.878 2375.08 642.363 2376.3 640.848 2377.29 639.106 2378.06 637.138 2378.82 635.17 2379.38 632.982 2379.73 630.575 2380.09 628.167 2380.26 625.534 2380.26 622.673 2380.26 616.924 2379.44 612.202 2377.78 608.506 2376.12 604.81 2373.79 602.113 2370.77 600.414 2367.75 598.714 2364.15 597.865 2359.96 597.865ZM2399.56 594.169 2417.45 594.169 2417.45 596.25C2416.2 596.59 2415.32 596.895 2414.79 597.164 2414.27 597.433 2413.84 597.794 2413.5 598.247 2413.16 598.7 2412.9 599.394 2412.73 600.329 2412.56 601.263 2412.48 602.75 2412.48 604.789L2412.48 648.247 2423.61 648.247C2424.83 648.247 2425.85 648.176 2426.67 648.034 2427.49 647.893 2428.19 647.673 2428.77 647.376 2429.35 647.078 2429.87 646.668 2430.34 646.144 2430.81 645.62 2431.26 644.933 2431.68 644.083 2432.1 643.234 2432.51 642.165 2432.89 640.876 2433.27 639.588 2433.75 637.655 2434.31 635.078L2438.6 635.078 2437.75 652.155 2399.56 652.155 2399.56 650.073C2401.32 649.62 2402.5 649.117 2403.09 648.565 2403.69 648.013 2404.07 647.227 2404.26 646.207 2404.44 645.188 2404.54 643.63 2404.54 641.535L2404.54 604.789C2404.54 602.835 2404.46 601.412 2404.32 600.52 2404.18 599.628 2403.95 598.934 2403.62 598.438 2403.3 597.943 2402.86 597.546 2402.33 597.249 2401.79 596.951 2400.87 596.619 2399.56 596.25ZM2341.52 594.169 2360.13 594.169C2365.48 594.169 2369.86 594.757 2373.28 595.932 2376.69 597.107 2379.57 598.842 2381.92 601.136 2384.27 603.43 2386.03 606.283 2387.19 609.695 2388.35 613.108 2388.93 617.179 2388.93 621.909 2388.93 626.695 2388.39 630.907 2387.3 634.547 2386.2 638.186 2384.61 641.237 2382.52 643.701 2380.7 645.853 2378.48 647.623 2375.85 649.011 2373.67 650.144 2371.15 650.951 2368.29 651.433 2365.42 651.914 2361.63 652.155 2356.9 652.155L2341.52 652.155 2341.52 650.073C2342.83 649.733 2343.76 649.408 2344.33 649.096 2344.89 648.785 2345.33 648.388 2345.64 647.907 2345.95 647.425 2346.18 646.731 2346.32 645.825 2346.46 644.919 2346.54 643.489 2346.54 641.535L2346.54 604.789C2346.54 602.807 2346.46 601.369 2346.32 600.477 2346.18 599.585 2345.95 598.898 2345.62 598.417 2345.3 597.935 2344.86 597.546 2344.33 597.249 2343.79 596.951 2342.85 596.619 2341.52 596.25Z" fill-rule="evenodd"/><text fill="#000000" fill-opacity="0" font-family="Arial,Arial_MSFontService,sans-serif" font-size="57.9858" x="2341.52" y="644.906">DL</text><path d="M2460.3 633.688 2448.39 664.938 2470.14 664.938ZM2459.21 626.782 2463.83 626.782 2477.02 667.938 2477.02 669.938 2442.86 669.938 2442.86 667.938Z" fill-rule="evenodd"/><text fill="#000000" fill-opacity="0" font-family="Arial,Arial_MSFontService,sans-serif" font-size="43.1562" x="2442.86" y="664.544">∆</text><path d="M2534.96 590.77 2536.1 594.041C2529.48 596.222 2524.57 600.477 2521.38 606.807 2518.2 613.136 2516.6 621.087 2516.6 630.66 2516.6 640.572 2518.2 648.742 2521.38 655.171 2524.57 661.6 2529.43 665.904 2535.97 668.085L2534.96 671.356C2526.66 669.175 2520.3 664.481 2515.88 657.274 2511.46 650.066 2509.25 641.336 2509.25 631.084 2509.25 620.861 2511.47 612.131 2515.9 604.895 2520.33 597.659 2526.69 592.951 2534.96 590.77Z" fill-rule="evenodd"/><text fill="#000000" fill-opacity="0" font-family="Arial,Arial_MSFontService,sans-serif" font-size="80.5854" x="2509.25" y="661.283">(</text><path d="M2561.24 597.865C2559.31 597.865 2557.48 597.921 2555.76 598.035L2555.76 648.204C2556.89 648.317 2558.56 648.374 2560.77 648.374 2563.15 648.374 2565.27 648.176 2567.14 647.779 2569.01 647.383 2570.71 646.76 2572.24 645.91 2573.77 645.06 2575.14 643.878 2576.36 642.363 2577.58 640.848 2578.57 639.106 2579.33 637.138 2580.1 635.17 2580.66 632.982 2581.01 630.575 2581.36 628.167 2581.54 625.534 2581.54 622.673 2581.54 616.924 2580.71 612.202 2579.06 608.506 2577.4 604.81 2575.06 602.113 2572.05 600.414 2569.03 598.714 2565.43 597.865 2561.24 597.865ZM2542.8 594.169 2561.41 594.169C2566.76 594.169 2571.14 594.757 2574.55 595.932 2577.97 597.107 2580.85 598.842 2583.2 601.136 2585.55 603.43 2587.3 606.283 2588.47 609.695 2589.63 613.108 2590.21 617.179 2590.21 621.909 2590.21 626.695 2589.66 630.907 2588.57 634.547 2587.48 638.186 2585.89 641.237 2583.79 643.701 2581.98 645.853 2579.76 647.623 2577.12 649.011 2574.94 650.144 2572.42 650.951 2569.56 651.433 2566.7 651.914 2562.91 652.155 2558.18 652.155L2542.8 652.155 2542.8 650.073C2544.1 649.733 2545.04 649.408 2545.6 649.096 2546.17 648.785 2546.61 648.388 2546.92 647.907 2547.23 647.425 2547.46 646.731 2547.6 645.825 2547.74 644.919 2547.81 643.489 2547.81 641.535L2547.81 604.789C2547.81 602.807 2547.74 601.369 2547.6 600.477 2547.46 599.585 2547.22 598.898 2546.9 598.417 2546.57 597.935 2546.14 597.546 2545.6 597.249 2545.07 596.951 2544.13 596.619 2542.8 596.25ZM2625.35 593.489C2627.93 593.489 2630.31 593.624 2632.49 593.893 2634.67 594.162 2637.16 594.664 2639.97 595.401L2639.97 607.168 2635.76 607.168C2635.08 604.704 2634.22 602.743 2633.17 601.284 2632.12 599.826 2630.9 598.785 2629.52 598.162 2628.13 597.539 2626.46 597.227 2624.5 597.227 2621.59 597.227 2618.99 598.197 2616.71 600.137 2614.43 602.077 2612.64 604.994 2611.33 608.888 2610.03 612.782 2609.38 617.491 2609.38 623.013 2609.38 628.564 2609.92 633.3 2610.99 637.223 2612.07 641.145 2613.66 644.105 2615.75 646.101 2617.85 648.098 2620.43 649.096 2623.48 649.096 2625.81 649.096 2627.7 648.763 2629.18 648.098 2630.65 647.432 2631.89 646.377 2632.89 644.933 2633.9 643.489 2634.85 641.365 2635.76 638.561L2639.97 638.561 2639.97 650.71C2637.3 651.418 2634.58 651.949 2631.79 652.303 2629 652.657 2625.93 652.834 2622.59 652.834 2615.4 652.834 2609.96 650.399 2606.28 645.528 2602.6 640.657 2600.76 633.393 2600.76 623.735 2600.76 617.675 2601.71 612.365 2603.62 607.805 2605.54 603.246 2608.35 599.72 2612.06 597.227 2615.77 594.735 2620.2 593.489 2625.35 593.489Z" fill-rule="evenodd"/><text fill="#000000" fill-opacity="0" font-family="Arial,Arial_MSFontService,sans-serif" font-size="59.3452" x="2542.8" y="645.416">DC</text><path d="M2647.6 590.77C2655.87 592.951 2662.22 597.659 2666.65 604.895 2671.08 612.131 2673.3 620.861 2673.3 631.084 2673.3 641.336 2671.09 650.066 2666.67 657.274 2662.25 664.481 2655.9 669.175 2647.6 671.356L2646.58 668.085C2653.12 665.904 2657.98 661.6 2661.17 655.171 2664.36 648.742 2665.95 640.572 2665.95 630.66 2665.95 621.087 2664.36 613.136 2661.19 606.807 2658.02 600.477 2653.11 596.222 2646.45 594.041Z" fill-rule="evenodd"/><text fill="#000000" fill-opacity="0" font-family="Arial,Arial_MSFontService,sans-serif" font-size="80.5854" x="2646.45" y="661.283">)</text><path d="M2734.82 596.705 2786.82 596.705 2786.82 648.705 2734.82 648.705Z" stroke="#006600" stroke-width="8.47303" stroke-linejoin="round" stroke-miterlimit="10" fill="#006600" fill-rule="evenodd"/><path d="M3235 614.989C3233.5 614.989 3231.99 615.435 3230.48 616.327 3228.96 617.219 3227.74 618.784 3226.8 621.021 3225.87 623.258 3225.4 626.133 3225.4 629.644 3225.4 635.308 3226.53 640.194 3228.78 644.3 3231.03 648.407 3234 650.46 3237.68 650.46 3240.43 650.46 3242.69 649.327 3244.48 647.061 3246.26 644.796 3247.15 640.902 3247.15 635.379 3247.15 628.469 3245.67 623.032 3242.69 619.067 3240.68 616.348 3238.12 614.989 3235 614.989ZM3128 614.989C3126.5 614.989 3124.99 615.435 3123.48 616.327 3121.96 617.219 3120.74 618.784 3119.8 621.021 3118.87 623.258 3118.4 626.133 3118.4 629.644 3118.4 635.308 3119.53 640.194 3121.78 644.3 3124.03 648.407 3127 650.46 3130.68 650.46 3133.43 650.46 3135.69 649.327 3137.48 647.061 3139.26 644.796 3140.15 640.902 3140.15 635.379 3140.15 628.469 3138.67 623.032 3135.69 619.067 3133.68 616.348 3131.12 614.989 3128 614.989ZM3316.08 613.374 3334.22 613.374 3334.22 614.946 3333.33 614.946C3332.05 614.946 3331.1 615.222 3330.46 615.774 3329.82 616.327 3329.5 617.013 3329.5 617.835 3329.5 618.939 3329.97 620.469 3330.91 622.423L3340.38 642.049 3349.09 620.554C3349.57 619.392 3349.81 618.245 3349.81 617.113 3349.81 616.603 3349.71 616.221 3349.51 615.966 3349.29 615.654 3348.93 615.406 3348.45 615.222 3347.97 615.038 3347.12 614.946 3345.9 614.946L3345.9 613.374 3358.56 613.374 3358.56 614.946C3357.51 615.059 3356.71 615.286 3356.14 615.626 3355.57 615.966 3354.95 616.603 3354.27 617.537 3354.01 617.934 3353.53 619.024 3352.83 620.808L3336.98 659.636C3335.45 663.402 3333.45 666.248 3330.97 668.174 3328.49 670.1 3326.1 671.063 3323.81 671.063 3322.14 671.063 3320.77 670.581 3319.69 669.618 3318.61 668.656 3318.08 667.551 3318.08 666.305 3318.08 665.116 3318.47 664.16 3319.24 663.438 3320.02 662.715 3321.09 662.354 3322.45 662.354 3323.39 662.354 3324.66 662.666 3326.27 663.289 3327.41 663.714 3328.12 663.926 3328.4 663.926 3329.25 663.926 3330.18 663.487 3331.18 662.609 3332.19 661.731 3333.2 660.032 3334.22 657.512L3336.98 650.757 3323 621.403C3322.58 620.525 3321.9 619.435 3320.96 618.132 3320.26 617.141 3319.68 616.475 3319.22 616.136 3318.57 615.682 3317.52 615.286 3316.08 614.946ZM3045.12 613.374 3061.43 613.374 3061.43 614.946C3059.93 615.059 3058.95 615.328 3058.48 615.753 3058.01 616.178 3057.78 616.787 3057.78 617.58 3057.78 618.458 3058.02 619.52 3058.5 620.766L3066.83 643.153 3075.2 624.929 3072.99 619.194C3072.31 617.495 3071.42 616.32 3070.31 615.668 3069.69 615.272 3068.53 615.031 3066.83 614.946L3066.83 613.374 3085.35 613.374 3085.35 614.946C3083.31 615.031 3081.87 615.399 3081.02 616.051 3080.45 616.504 3080.17 617.226 3080.17 618.217 3080.17 618.784 3080.28 619.364 3080.51 619.959L3089.34 642.304 3097.54 620.766C3098.11 619.237 3098.39 618.019 3098.39 617.113 3098.39 616.575 3098.12 616.093 3097.56 615.668 3097.01 615.243 3095.93 615.003 3094.31 614.946L3094.31 613.374 3106.59 613.374 3106.59 614.946C3104.13 615.314 3102.31 616.985 3101.15 619.959L3088.15 653.476 3086.41 653.476 3076.69 628.625 3065.34 653.476 3063.77 653.476 3051.28 620.766C3050.46 618.699 3049.65 617.304 3048.86 616.582 3048.07 615.859 3046.82 615.314 3045.12 614.946ZM3297.63 612.227C3299.16 612.227 3301.01 612.553 3303.19 613.204 3304.64 613.629 3305.6 613.842 3306.08 613.842 3306.53 613.842 3306.89 613.742 3307.14 613.544 3307.4 613.346 3307.7 612.907 3308.04 612.227L3309.44 612.227 3309.44 625.481 3308.04 625.481C3306.96 621.318 3305.58 618.486 3303.89 616.985 3302.21 615.484 3300.06 614.734 3297.46 614.734 3295.48 614.734 3293.88 615.258 3292.66 616.305 3291.44 617.353 3290.83 618.514 3290.83 619.789 3290.83 621.375 3291.28 622.734 3292.19 623.867 3293.07 625.028 3294.85 626.26 3297.54 627.563L3303.74 630.579C3309.49 633.383 3312.37 637.078 3312.37 641.666 3312.37 645.206 3311.03 648.06 3308.35 650.226 3305.68 652.393 3302.68 653.476 3299.37 653.476 3296.99 653.476 3294.27 653.051 3291.21 652.201 3290.28 651.918 3289.51 651.777 3288.92 651.777 3288.27 651.777 3287.76 652.145 3287.39 652.881L3285.99 652.881 3285.99 638.99 3287.39 638.99C3288.18 642.955 3289.7 645.943 3291.94 647.953 3294.17 649.964 3296.68 650.97 3299.45 650.97 3301.41 650.97 3303 650.396 3304.23 649.249 3305.47 648.102 3306.08 646.721 3306.08 645.107 3306.08 643.153 3305.39 641.511 3304.02 640.18 3302.65 638.848 3299.91 637.163 3295.8 635.124 3291.69 633.085 3289 631.244 3287.73 629.602 3286.46 627.988 3285.82 625.949 3285.82 623.485 3285.82 620.284 3286.92 617.608 3289.11 615.456 3291.3 613.304 3294.14 612.227 3297.63 612.227ZM3271.84 612.227 3273.71 612.227 3273.71 643.493C3273.71 645.929 3273.89 647.55 3274.24 648.357 3274.6 649.164 3275.12 649.766 3275.82 650.162 3276.51 650.559 3277.78 650.757 3279.62 650.757L3279.62 652.286 3260.71 652.286 3260.71 650.757C3262.61 650.757 3263.89 650.573 3264.54 650.205 3265.19 649.837 3265.7 649.228 3266.09 648.378 3266.47 647.529 3266.66 645.9 3266.66 643.493L3266.66 628.497C3266.66 624.278 3266.53 621.545 3266.28 620.299 3266.08 619.392 3265.77 618.762 3265.34 618.408 3264.92 618.054 3264.34 617.877 3263.6 617.877 3262.81 617.877 3261.85 618.09 3260.71 618.514L3260.12 616.985ZM3236.32 612.227C3242.21 612.227 3246.94 614.465 3250.51 618.939 3253.54 622.763 3255.05 627.152 3255.05 632.108 3255.05 635.592 3254.22 639.117 3252.55 642.686 3250.88 646.254 3248.58 648.945 3245.64 650.757 3242.71 652.57 3239.45 653.476 3235.85 653.476 3229.99 653.476 3225.33 651.139 3221.88 646.467 3218.96 642.53 3217.5 638.112 3217.5 633.213 3217.5 629.644 3218.39 626.097 3220.16 622.571 3221.93 619.045 3224.26 616.44 3227.14 614.755 3230.03 613.07 3233.09 612.227 3236.32 612.227ZM3129.32 612.227C3135.21 612.227 3139.94 614.465 3143.51 618.939 3146.54 622.763 3148.05 627.152 3148.05 632.108 3148.05 635.592 3147.22 639.117 3145.55 642.686 3143.88 646.254 3141.58 648.945 3138.64 650.757 3135.71 652.57 3132.45 653.476 3128.85 653.476 3122.99 653.476 3118.33 651.139 3114.88 646.467 3111.96 642.53 3110.5 638.112 3110.5 633.213 3110.5 629.644 3111.39 626.097 3113.16 622.571 3114.93 619.045 3117.26 616.44 3120.14 614.755 3123.03 613.07 3126.09 612.227 3129.32 612.227ZM2841.41 606.577 2831.39 629.857 2851.18 629.857ZM2958.12 597.911C2956.48 597.911 2954.26 598.18 2951.45 598.719L2951.45 622.678C2951.99 622.678 2952.46 622.685 2952.86 622.699 2953.25 622.713 2953.58 622.72 2953.83 622.72 2959.33 622.72 2963.47 621.531 2966.26 619.152 2969.05 616.773 2970.44 613.742 2970.44 610.061 2970.44 606.464 2969.32 603.54 2967.07 601.289 2964.81 599.037 2961.83 597.911 2958.12 597.911ZM2900.12 597.911C2898.48 597.911 2896.26 598.18 2893.45 598.719L2893.45 622.678C2893.99 622.678 2894.46 622.685 2894.86 622.699 2895.25 622.713 2895.58 622.72 2895.83 622.72 2901.33 622.72 2905.47 621.531 2908.26 619.152 2911.05 616.773 2912.44 613.742 2912.44 610.061 2912.44 606.464 2911.32 603.54 2909.07 601.289 2906.81 599.037 2903.83 597.911 2900.12 597.911ZM3150.42 594.683 3166.06 594.683 3201.27 637.886 3201.27 604.666C3201.27 601.126 3200.88 598.917 3200.08 598.039 3199.03 596.849 3197.38 596.255 3195.11 596.255L3193.12 596.255 3193.12 594.683 3213.17 594.683 3213.17 596.255 3211.13 596.255C3208.69 596.255 3206.96 596.991 3205.94 598.464 3205.32 599.37 3205.01 601.437 3205.01 604.666L3205.01 653.221 3203.48 653.221 3165.5 606.832 3165.5 642.304C3165.5 645.844 3165.89 648.053 3166.65 648.93 3167.73 650.12 3169.38 650.715 3171.62 650.715L3173.66 650.715 3173.66 652.286 3153.61 652.286 3153.61 650.715 3155.61 650.715C3158.07 650.715 3159.81 649.978 3160.83 648.506 3161.45 647.599 3161.77 645.532 3161.77 642.304L3161.77 602.244C3160.09 600.29 3158.83 599.002 3157.96 598.379 3157.1 597.756 3155.83 597.175 3154.16 596.637 3153.34 596.382 3152.09 596.255 3150.42 596.255ZM2994.88 594.683 3041.91 594.683 3042.55 608.192 3040.93 608.192C3040.62 605.813 3040.2 604.114 3039.66 603.094 3038.78 601.451 3037.61 600.241 3036.15 599.462 3034.69 598.683 3032.78 598.294 3030.4 598.294L3022.28 598.294 3022.28 642.304C3022.28 645.844 3022.67 648.053 3023.43 648.93 3024.51 650.12 3026.16 650.715 3028.4 650.715L3030.4 650.715 3030.4 652.286 3005.97 652.286 3005.97 650.715 3008.01 650.715C3010.45 650.715 3012.17 649.978 3013.19 648.506 3013.82 647.599 3014.13 645.532 3014.13 642.304L3014.13 598.294 3007.2 598.294C3004.51 598.294 3002.6 598.492 3001.47 598.888 3000 599.427 2998.73 600.46 2997.69 601.99 2996.64 603.519 2996.02 605.586 2995.82 608.192L2994.2 608.192ZM2935.06 594.683 2956.04 594.683C2962.16 594.683 2966.67 595.129 2969.57 596.021 2972.47 596.913 2974.94 598.556 2976.96 600.949 2978.99 603.342 2980 606.195 2980 609.509 2980 613.049 2978.85 616.121 2976.54 618.727 2974.23 621.332 2970.66 623.173 2965.81 624.249L2977.71 640.774C2980.43 644.569 2982.76 647.09 2984.72 648.336 2986.67 649.582 2989.22 650.375 2992.36 650.715L2992.36 652.286 2976.98 652.286 2957.49 625.354C2956.04 625.41 2954.87 625.439 2953.96 625.439 2953.59 625.439 2953.2 625.432 2952.77 625.418 2952.35 625.403 2951.91 625.382 2951.45 625.354L2951.45 642.091C2951.45 645.716 2951.85 647.968 2952.64 648.846 2953.72 650.092 2955.33 650.715 2957.49 650.715L2959.74 650.715 2959.74 652.286 2935.06 652.286 2935.06 650.715 2937.22 650.715C2939.66 650.715 2941.4 649.922 2942.45 648.336 2943.04 647.458 2943.34 645.376 2943.34 642.091L2943.34 604.878C2943.34 601.253 2942.94 599.002 2942.15 598.124 2941.05 596.878 2939.4 596.255 2937.22 596.255L2935.06 596.255ZM2877.06 594.683 2898.04 594.683C2904.16 594.683 2908.67 595.129 2911.57 596.021 2914.47 596.913 2916.94 598.556 2918.96 600.949 2920.99 603.342 2922 606.195 2922 609.509 2922 613.049 2920.85 616.121 2918.54 618.727 2916.23 621.332 2912.66 623.173 2907.81 624.249L2919.71 640.774C2922.43 644.569 2924.76 647.09 2926.72 648.336 2928.67 649.582 2931.22 650.375 2934.36 650.715L2934.36 652.286 2918.98 652.286 2899.49 625.354C2898.04 625.41 2896.87 625.439 2895.96 625.439 2895.59 625.439 2895.2 625.432 2894.77 625.418 2894.35 625.403 2893.91 625.382 2893.45 625.354L2893.45 642.091C2893.45 645.716 2893.85 647.968 2894.64 648.846 2895.72 650.092 2897.33 650.715 2899.49 650.715L2901.74 650.715 2901.74 652.286 2877.06 652.286 2877.06 650.715 2879.22 650.715C2881.66 650.715 2883.4 649.922 2884.45 648.336 2885.04 647.458 2885.34 645.376 2885.34 642.091L2885.34 604.878C2885.34 601.253 2884.94 599.002 2884.15 598.124 2883.05 596.878 2881.4 596.255 2879.22 596.255L2877.06 596.255ZM2842.99 593.366 2844.47 593.366 2864.52 641.284C2866.14 645.136 2867.6 647.635 2868.92 648.782 2870.24 649.929 2872.07 650.573 2874.42 650.715L2874.42 652.286 2851.69 652.286 2851.69 650.715C2853.99 650.601 2855.54 650.219 2856.35 649.568 2857.15 648.916 2857.56 648.123 2857.56 647.189 2857.56 645.943 2856.99 643.974 2855.86 641.284L2852.37 633 2830.07 633 2826.16 642.091C2825.2 644.328 2824.72 645.999 2824.72 647.104 2824.72 647.982 2825.14 648.753 2825.97 649.419 2826.81 650.085 2828.61 650.516 2831.39 650.715L2831.39 652.286 2813.25 652.286 2813.25 650.715C2815.66 650.29 2817.21 649.738 2817.92 649.058 2819.37 647.699 2820.97 644.937 2822.72 640.774ZM3270.19 591.879C3271.38 591.879 3272.39 592.297 3273.22 593.132 3274.06 593.968 3274.48 594.98 3274.48 596.17 3274.48 597.359 3274.06 598.379 3273.22 599.228 3272.39 600.078 3271.38 600.503 3270.19 600.503 3269 600.503 3267.98 600.078 3267.13 599.228 3266.28 598.379 3265.85 597.359 3265.85 596.17 3265.85 594.98 3266.27 593.968 3267.11 593.132 3267.94 592.297 3268.97 591.879 3270.19 591.879Z" fill-rule="evenodd"/><text fill="#000000" fill-opacity="0" font-family="Arial,Arial_MSFontService,sans-serif" font-size="79.1836" x="2813.25" y="661.165">ARRTwoNoisy</text><path d="M3382.67 597.996C3380.74 597.996 3378.91 598.053 3377.19 598.166L3377.19 648.336C3378.32 648.449 3379.99 648.506 3382.2 648.506 3384.58 648.506 3386.7 648.307 3388.57 647.911 3390.44 647.514 3392.14 646.891 3393.67 646.042 3395.2 645.192 3396.57 644.01 3397.79 642.495 3399.01 640.98 3400 639.238 3400.76 637.27 3401.53 635.301 3402.09 633.114 3402.44 630.706 3402.8 628.299 3402.97 625.665 3402.97 622.805 3402.97 617.056 3402.14 612.334 3400.49 608.638 3398.83 604.942 3396.49 602.244 3393.48 600.545 3390.46 598.846 3386.86 597.996 3382.67 597.996ZM3422.27 594.301 3440.16 594.301 3440.16 596.382C3438.91 596.722 3438.03 597.026 3437.5 597.295 3436.98 597.565 3436.55 597.926 3436.21 598.379 3435.87 598.832 3435.61 599.526 3435.44 600.46 3435.27 601.395 3435.19 602.882 3435.19 604.921L3435.19 648.378 3446.32 648.378C3447.53 648.378 3448.55 648.307 3449.38 648.166 3450.2 648.024 3450.9 647.805 3451.48 647.507 3452.06 647.21 3452.58 646.799 3453.05 646.275 3453.52 645.752 3453.96 645.065 3454.39 644.215 3454.81 643.366 3455.22 642.296 3455.6 641.008 3455.98 639.719 3456.46 637.786 3457.02 635.209L3461.31 635.209 3460.46 652.286 3422.27 652.286 3422.27 650.205C3424.03 649.752 3425.2 649.249 3425.8 648.697 3426.39 648.145 3426.78 647.359 3426.97 646.339 3427.15 645.32 3427.24 643.762 3427.24 641.666L3427.24 604.921C3427.24 602.967 3427.17 601.544 3427.03 600.651 3426.89 599.759 3426.66 599.065 3426.33 598.57 3426 598.074 3425.57 597.678 3425.03 597.38 3424.5 597.083 3423.58 596.75 3422.27 596.382ZM3364.23 594.301 3382.84 594.301C3388.19 594.301 3392.57 594.888 3395.98 596.064 3399.4 597.239 3402.28 598.973 3404.63 601.267 3406.98 603.561 3408.74 606.415 3409.9 609.827 3411.06 613.24 3411.64 617.311 3411.64 622.04 3411.64 626.826 3411.09 631.039 3410 634.678 3408.91 638.317 3407.32 641.369 3405.22 643.833 3403.41 645.985 3401.19 647.755 3398.55 649.143 3396.37 650.276 3393.85 651.083 3390.99 651.564 3388.13 652.046 3384.34 652.286 3379.61 652.286L3364.23 652.286 3364.23 650.205C3365.53 649.865 3366.47 649.539 3367.03 649.228 3367.6 648.916 3368.04 648.52 3368.35 648.038 3368.66 647.557 3368.89 646.863 3369.03 645.957 3369.17 645.051 3369.24 643.62 3369.24 641.666L3369.24 604.921C3369.24 602.938 3369.17 601.501 3369.03 600.609 3368.89 599.717 3368.66 599.03 3368.33 598.549 3368 598.067 3367.57 597.678 3367.03 597.38 3366.5 597.083 3365.56 596.75 3364.23 596.382Z" fill-rule="evenodd"/><text fill="#000000" fill-opacity="0" font-family="Arial,Arial_MSFontService,sans-serif" font-size="57.9858" x="3364.23" y="645.038">DL</text><path d="M3483.01 633.82 3471.1 665.07 3492.85 665.07ZM3481.91 626.914 3486.54 626.914 3499.73 668.07 3499.73 670.07 3465.57 670.07 3465.57 668.07Z" fill-rule="evenodd"/><text fill="#000000" fill-opacity="0" font-family="Arial,Arial_MSFontService,sans-serif" font-size="43.1562" x="3465.57" y="664.675">∆</text><path d="M3557.66 590.902 3558.81 594.173C3552.18 596.354 3547.28 600.609 3544.09 606.939 3540.9 613.268 3539.31 621.219 3539.31 630.791 3539.31 640.703 3540.9 648.874 3544.09 655.303 3547.28 661.731 3552.14 666.036 3558.68 668.217L3557.66 671.488C3549.36 669.307 3543.01 664.613 3538.59 657.405 3534.17 650.198 3531.96 641.468 3531.96 631.216 3531.96 620.992 3534.18 612.263 3538.61 605.027 3543.04 597.791 3549.39 593.083 3557.66 590.902Z" fill-rule="evenodd"/><text fill="#000000" fill-opacity="0" font-family="Arial,Arial_MSFontService,sans-serif" font-size="80.5854" x="3531.96" y="661.414">(</text><path d="M3583.94 597.996C3582.02 597.996 3580.19 598.053 3578.46 598.166L3578.46 648.336C3579.6 648.449 3581.27 648.506 3583.48 648.506 3585.85 648.506 3587.98 648.307 3589.85 647.911 3591.72 647.514 3593.42 646.891 3594.95 646.042 3596.48 645.192 3597.85 644.01 3599.07 642.495 3600.28 640.98 3601.28 639.238 3602.04 637.27 3602.8 635.301 3603.36 633.114 3603.72 630.706 3604.07 628.299 3604.25 625.665 3604.25 622.805 3604.25 617.056 3603.42 612.334 3601.76 608.638 3600.11 604.942 3597.77 602.244 3594.75 600.545 3591.74 598.846 3588.13 597.996 3583.94 597.996ZM3565.51 594.301 3584.11 594.301C3589.47 594.301 3593.85 594.888 3597.26 596.064 3600.67 597.239 3603.56 598.973 3605.91 601.267 3608.26 603.561 3610.01 606.415 3611.17 609.827 3612.33 613.24 3612.92 617.311 3612.92 622.04 3612.92 626.826 3612.37 631.039 3611.28 634.678 3610.19 638.317 3608.6 641.369 3606.5 643.833 3604.69 645.985 3602.46 647.755 3599.83 649.143 3597.65 650.276 3595.13 651.083 3592.27 651.564 3589.41 652.046 3585.61 652.286 3580.88 652.286L3565.51 652.286 3565.51 650.205C3566.81 649.865 3567.74 649.539 3568.31 649.228 3568.88 648.916 3569.32 648.52 3569.63 648.038 3569.94 647.557 3570.17 646.863 3570.31 645.957 3570.45 645.051 3570.52 643.62 3570.52 641.666L3570.52 604.921C3570.52 602.938 3570.45 601.501 3570.31 600.609 3570.17 599.717 3569.93 599.03 3569.61 598.549 3569.28 598.067 3568.85 597.678 3568.31 597.38 3567.77 597.083 3566.84 596.75 3565.51 596.382ZM3648.06 593.621C3650.64 593.621 3653.02 593.755 3655.2 594.024 3657.38 594.294 3659.87 594.796 3662.67 595.533L3662.67 607.3 3658.47 607.3C3657.79 604.836 3656.92 602.875 3655.88 601.416 3654.83 599.958 3653.61 598.917 3652.22 598.294 3650.84 597.671 3649.17 597.359 3647.21 597.359 3644.29 597.359 3641.7 598.329 3639.42 600.269 3637.14 602.209 3635.34 605.126 3634.04 609.02 3632.74 612.914 3632.09 617.622 3632.09 623.145 3632.09 628.696 3632.63 633.432 3633.7 637.355 3634.78 641.277 3636.36 644.236 3638.46 646.233 3640.56 648.23 3643.13 649.228 3646.19 649.228 3648.51 649.228 3650.41 648.895 3651.88 648.23 3653.36 647.564 3654.6 646.509 3655.6 645.065 3656.61 643.62 3657.56 641.496 3658.47 638.693L3662.67 638.693 3662.67 650.842C3660.01 651.55 3657.29 652.081 3654.5 652.435 3651.71 652.789 3648.64 652.966 3645.3 652.966 3638.11 652.966 3632.67 650.531 3628.99 645.659 3625.31 640.788 3623.46 633.524 3623.46 623.867 3623.46 617.806 3624.42 612.496 3626.33 607.937 3628.24 603.377 3631.05 599.851 3634.76 597.359 3638.47 594.867 3642.91 593.621 3648.06 593.621Z" fill-rule="evenodd"/><text fill="#000000" fill-opacity="0" font-family="Arial,Arial_MSFontService,sans-serif" font-size="59.3452" x="3565.51" y="645.548">DC</text><path d="M3670.31 590.902C3678.58 593.083 3684.93 597.791 3689.36 605.027 3693.79 612.263 3696.01 620.992 3696.01 631.216 3696.01 641.468 3693.8 650.198 3689.38 657.405 3684.96 664.613 3678.6 669.307 3670.31 671.488L3669.29 668.217C3675.83 666.036 3680.69 661.731 3683.88 655.303 3687.06 648.874 3688.66 640.703 3688.66 630.791 3688.66 621.219 3687.07 613.268 3683.9 606.939 3680.73 600.609 3675.81 596.354 3669.16 594.173Z" fill-rule="evenodd"/><text fill="#000000" fill-opacity="0" font-family="Arial,Arial_MSFontService,sans-serif" font-size="80.5854" x="3669.16" y="661.414">)</text><text font-family="Times New Roman,Times New Roman_MSFontService,sans-serif" font-weight="400" font-size="92" transform="matrix(-1.83697e-16 -1 1 -1.83697e-16 1010.72 1457)">Relative Error</text><text font-family="Times New Roman,Times New Roman_MSFontService,sans-serif" font-weight="400" font-size="83" transform="matrix(1 0 0 1 1070.34 776)">12</text><path d="M1359.34 1705.07C1361.23 1705.07 1362.72 1705.7 1363.81 1706.94 1364.91 1708.18 1365.45 1709.81 1365.45 1711.81 1365.45 1713.46 1365.11 1715.21 1364.42 1717.07L1364.96 1717.25C1367.71 1713.14 1370.46 1710.1 1373.18 1708.11 1375.91 1706.11 1378.66 1705.12 1381.45 1705.12 1384.32 1705.12 1386.51 1705.93 1388 1707.57 1389.5 1709.2 1390.25 1711.56 1390.25 1714.64L1390.25 1715.27C1390.25 1715.48 1390.24 1715.71 1390.21 1715.95 1392.78 1712.29 1395.35 1709.57 1397.91 1707.79 1400.47 1706.01 1403.13 1705.12 1405.88 1705.12 1408.64 1705.12 1410.76 1705.91 1412.26 1707.5 1413.76 1709.09 1414.51 1711.32 1414.51 1714.19 1414.51 1716.08 1414.07 1718.76 1413.21 1722.23L1410.29 1734C1409.48 1737.27 1409.07 1739.57 1409.07 1740.92 1409.07 1742.12 1409.27 1742.99 1409.66 1743.53 1410.05 1744.07 1410.66 1744.34 1411.5 1744.34 1412.4 1744.34 1413.36 1743.97 1414.37 1743.24 1415.39 1742.5 1416.83 1741.1 1418.69 1739.03L1421.25 1741.55C1418.67 1744.28 1416.43 1746.28 1414.51 1747.57 1412.59 1748.86 1410.41 1749.5 1407.95 1749.5 1406 1749.5 1404.45 1748.81 1403.28 1747.41 1402.11 1746.02 1401.53 1744.25 1401.53 1742.09 1401.53 1740.14 1402.02 1737.28 1403.01 1733.51L1404.98 1725.74C1405.7 1722.92 1406.18 1720.84 1406.4 1719.49 1406.62 1718.15 1406.74 1717.05 1406.74 1716.21 1406.74 1714.15 1406.39 1712.66 1405.7 1711.74 1405.01 1710.83 1403.89 1710.37 1402.33 1710.37 1401.08 1710.37 1399.73 1710.85 1398.29 1711.79 1396.85 1712.73 1395.34 1714.2 1393.75 1716.19 1392.17 1718.18 1390.87 1720.15 1389.87 1722.08 1388.87 1724.01 1388.06 1726.37 1387.47 1729.15L1383.38 1748.78 1375.61 1748.78 1380.77 1725.96C1381.4 1723.18 1381.83 1721.12 1382.05 1719.79 1382.28 1718.45 1382.39 1717.31 1382.39 1716.35 1382.39 1714.19 1382.01 1712.66 1381.24 1711.74 1380.48 1710.83 1379.29 1710.37 1377.67 1710.37 1376.53 1710.37 1375.24 1710.85 1373.79 1711.79 1372.33 1712.73 1370.78 1714.25 1369.14 1716.33 1367.49 1718.41 1366.2 1720.41 1365.27 1722.32 1364.35 1724.24 1363.57 1726.58 1362.94 1729.33L1358.67 1748.78 1350.9 1748.78 1357.46 1720.3C1358.12 1717.43 1358.45 1715.21 1358.45 1713.65 1358.45 1712.46 1358.25 1711.59 1357.86 1711.05 1357.47 1710.51 1356.86 1710.24 1356.02 1710.24 1355.09 1710.24 1354.11 1710.62 1353.08 1711.39 1352.04 1712.15 1350.63 1713.53 1348.83 1715.54L1346.27 1713.03C1348.91 1710.27 1351.18 1708.26 1353.08 1706.98 1354.98 1705.71 1357.07 1705.07 1359.34 1705.07Z" fill-rule="evenodd"/><text fill="#000000" fill-opacity="0" font-family="Arial,Arial_MSFontService,sans-serif" font-size="44.4277" x="1346.27" y="1743.95">𝑚</text><path d="M1455.68 1728.84 1511.02 1728.84 1511.02 1734.81 1455.68 1734.81ZM1455.68 1710.2 1511.02 1710.2 1511.02 1716.17 1455.68 1716.17Z" fill-rule="evenodd"/><text fill="#000000" fill-opacity="0" font-family="Arial,Arial_MSFontService,sans-serif" font-size="24.6172" x="1455.68" y="1731.74">=</text><path d="M1619.66 1690.56C1617.6 1690.56 1615.87 1691.18 1614.48 1692.41 1613.08 1693.63 1611.96 1695.4 1611.11 1697.71 1610.25 1700.01 1609.65 1702.82 1609.29 1706.13 1608.93 1709.44 1608.75 1713.17 1608.75 1717.34 1608.75 1727.1 1609.65 1734.27 1611.47 1738.83 1613.28 1743.4 1616.09 1745.68 1619.89 1745.68 1623.51 1745.68 1626.2 1743.53 1627.95 1739.24 1629.7 1734.94 1630.58 1728.28 1630.58 1719.27 1630.58 1712.38 1630.13 1706.8 1629.23 1702.54 1628.33 1698.27 1627.08 1695.21 1625.48 1693.35 1623.88 1691.49 1621.94 1690.56 1619.66 1690.56ZM1619.89 1686.75C1626.45 1686.75 1631.33 1689.28 1634.53 1694.34 1637.74 1699.4 1639.34 1707.05 1639.34 1717.29 1639.34 1727.89 1637.63 1735.91 1634.2 1741.35 1630.77 1746.78 1625.76 1749.5 1619.17 1749.5 1612.7 1749.5 1607.89 1746.96 1604.73 1741.86 1601.57 1736.77 1599.99 1729.05 1599.99 1718.69 1599.99 1713.17 1600.48 1708.41 1601.45 1704.4 1602.42 1700.39 1603.78 1697.07 1605.54 1694.45 1607.29 1691.83 1609.39 1689.89 1611.85 1688.63 1614.3 1687.37 1616.98 1686.75 1619.89 1686.75ZM1581.6 1684.5 1585.11 1684.5 1584.43 1694.92 1558.6 1694.92 1558.6 1714.64C1560.16 1713.98 1561.85 1713.49 1563.68 1713.16 1565.51 1712.83 1567.33 1712.67 1569.16 1712.67 1572.72 1712.67 1575.88 1713.39 1578.64 1714.84 1581.39 1716.3 1583.52 1718.36 1585.02 1721.04 1586.51 1723.72 1587.26 1726.83 1587.26 1730.36 1587.26 1734.38 1586.42 1737.82 1584.75 1740.7 1583.07 1743.57 1580.64 1745.76 1577.47 1747.26 1574.29 1748.75 1570.54 1749.5 1566.19 1749.5 1561.01 1749.5 1555.59 1748.44 1549.93 1746.31L1549.93 1736.79 1555.37 1736.79C1556.27 1739.84 1557.62 1742.09 1559.43 1743.53 1561.25 1744.96 1563.59 1745.68 1566.46 1745.68 1570.45 1745.68 1573.46 1744.49 1575.49 1742.09 1577.53 1739.69 1578.55 1736.11 1578.55 1731.35 1578.55 1728.18 1578.01 1725.55 1576.93 1723.47 1575.85 1721.39 1574.4 1719.88 1572.57 1718.95 1570.75 1718.03 1568.62 1717.56 1566.19 1717.56 1564.16 1717.56 1562.41 1717.69 1560.94 1717.94 1559.47 1718.2 1557.9 1718.6 1556.22 1719.13L1552.63 1717.02 1552.63 1687.46 1577.38 1687.46C1578.4 1687.46 1579.13 1687.38 1579.58 1687.22 1580.03 1687.05 1580.39 1686.8 1580.66 1686.45 1580.93 1686.11 1581.24 1685.46 1581.6 1684.5Z" fill-rule="evenodd"/><text fill="#000000" fill-opacity="0" font-family="Arial,Arial_MSFontService,sans-serif" font-size="65.002" x="1549.93" y="1741.38">50</text><text font-family="Times New Roman,Times New Roman_MSFontService,sans-serif" font-weight="400" font-size="83" transform="matrix(1 0 0 1 1090.96 994)">9<tspan font-size="83" x="0" y="225">6</tspan><tspan font-size="83" x="0" y="442">3</tspan><tspan font-size="83" x="9.16675" y="665">0</tspan></text><rect x="905.5" y="558.5" width="2820" height="130" stroke="#000000" stroke-width="3.4375" stroke-miterlimit="8" fill="none"/><text font-family="Times New Roman,Times New Roman_MSFontService,sans-serif" font-weight="400" font-size="83" transform="matrix(1 0 0 1 1953.65 773)">1.4</text><path d="M2230.53 1701.53C2232.42 1701.53 2233.91 1702.15 2235 1703.39 2236.09 1704.64 2236.64 1706.26 2236.64 1708.27 2236.64 1709.91 2236.29 1711.67 2235.6 1713.52L2236.14 1713.7C2238.9 1709.6 2241.64 1706.55 2244.36 1704.56 2247.09 1702.57 2249.84 1701.57 2252.63 1701.57 2255.51 1701.57 2257.69 1702.39 2259.19 1704.02 2260.69 1705.65 2261.43 1708.01 2261.43 1711.1L2261.43 1711.73C2261.43 1711.94 2261.42 1712.16 2261.39 1712.4 2263.97 1708.75 2266.53 1706.03 2269.09 1704.25 2271.65 1702.46 2274.31 1701.57 2277.07 1701.57 2279.82 1701.57 2281.95 1702.37 2283.45 1703.95 2284.94 1705.54 2285.69 1707.77 2285.69 1710.65 2285.69 1712.53 2285.26 1715.21 2284.39 1718.69L2281.47 1730.46C2280.66 1733.72 2280.26 1736.03 2280.26 1737.38 2280.26 1738.57 2280.45 1739.44 2280.84 1739.98 2281.23 1740.52 2281.84 1740.79 2282.68 1740.79 2283.58 1740.79 2284.54 1740.42 2285.56 1739.69 2286.58 1738.96 2288.01 1737.56 2289.87 1735.49L2292.43 1738.01C2289.86 1740.73 2287.61 1742.74 2285.69 1744.02 2283.78 1745.31 2281.59 1745.96 2279.13 1745.96 2277.19 1745.96 2275.63 1745.26 2274.46 1743.87 2273.29 1742.47 2272.71 1740.7 2272.71 1738.54 2272.71 1736.6 2273.2 1733.74 2274.19 1729.96L2276.17 1722.19C2276.89 1719.38 2277.36 1717.3 2277.58 1715.95 2277.81 1714.6 2277.92 1713.51 2277.92 1712.67 2277.92 1710.6 2277.58 1709.11 2276.89 1708.2 2276.2 1707.29 2275.08 1706.83 2273.52 1706.83 2272.26 1706.83 2270.91 1707.3 2269.48 1708.24 2268.04 1709.19 2266.53 1710.66 2264.94 1712.65 2263.35 1714.64 2262.06 1716.6 2261.05 1718.53 2260.05 1720.46 2259.25 1722.82 2258.65 1725.61L2254.56 1745.24 2246.79 1745.24 2251.96 1722.42C2252.59 1719.63 2253.01 1717.57 2253.24 1716.24 2253.46 1714.91 2253.57 1713.76 2253.57 1712.8 2253.57 1710.65 2253.19 1709.11 2252.43 1708.2 2251.66 1707.29 2250.47 1706.83 2248.86 1706.83 2247.72 1706.83 2246.42 1707.3 2244.97 1708.24 2243.52 1709.19 2241.97 1710.7 2240.32 1712.78 2238.67 1714.86 2237.39 1716.86 2236.46 1718.78 2235.53 1720.7 2234.75 1723.03 2234.12 1725.79L2229.85 1745.24 2222.08 1745.24 2228.64 1716.76C2229.3 1713.88 2229.63 1711.67 2229.63 1710.11 2229.63 1708.91 2229.44 1708.04 2229.05 1707.5 2228.66 1706.96 2228.04 1706.69 2227.2 1706.69 2226.28 1706.69 2225.3 1707.08 2224.26 1707.84 2223.23 1708.6 2221.81 1709.99 2220.02 1712L2217.46 1709.48C2220.09 1706.72 2222.36 1704.71 2224.26 1703.44 2226.16 1702.16 2228.25 1701.53 2230.53 1701.53Z" fill-rule="evenodd"/><text fill="#000000" fill-opacity="0" font-family="Arial,Arial_MSFontService,sans-serif" font-size="44.4277" x="2217.46" y="1740.4">𝑚</text><path d="M2326.86 1725.29 2382.2 1725.29 2382.2 1731.27 2326.86 1731.27ZM2326.86 1706.65 2382.2 1706.65 2382.2 1712.62 2326.86 1712.62Z" fill-rule="evenodd"/><text fill="#000000" fill-opacity="0" font-family="Arial,Arial_MSFontService,sans-serif" font-size="24.6172" x="2326.86" y="1728.19">=</text><path d="M2544.81 1693.76 2527.25 1721.65 2527.25 1722.28 2544.81 1722.28 2544.81 1711.1C2544.81 1708.28 2544.86 1705.13 2544.95 1701.64 2545.04 1698.15 2545.14 1695.52 2545.26 1693.76ZM2546.12 1683.6 2552.54 1683.6 2552.54 1722.28 2553.48 1722.28C2555.22 1722.28 2556.46 1722.16 2557.21 1721.9 2557.96 1721.65 2558.58 1721.2 2559.08 1720.55 2559.57 1719.91 2560.03 1718.85 2560.45 1717.39L2563.86 1717.39 2563.32 1726.64 2552.54 1726.64 2552.54 1734.01C2552.54 1736.01 2552.61 1737.48 2552.74 1738.41 2552.88 1739.34 2553.1 1740.07 2553.42 1740.61 2553.73 1741.15 2554.19 1741.6 2554.81 1741.96 2555.42 1742.32 2556.42 1742.68 2557.8 1743.04L2557.8 1745.24 2539.56 1745.24 2539.56 1743.04C2541.41 1742.56 2542.66 1742.03 2543.29 1741.44 2543.92 1740.86 2544.33 1740.03 2544.52 1738.95 2544.72 1737.87 2544.81 1736.22 2544.81 1734.01L2544.81 1726.64 2519.84 1726.64 2519.84 1723.27ZM2494.4 1683.2 2496.87 1683.2C2496.69 1686.08 2496.6 1690.06 2496.6 1695.15L2496.6 1733.51C2496.6 1735.25 2496.7 1736.56 2496.89 1737.44 2497.09 1738.33 2497.43 1739.05 2497.92 1739.6 2498.42 1740.15 2499.13 1740.59 2500.06 1740.9 2500.99 1741.22 2502.15 1741.46 2503.56 1741.62 2504.97 1741.79 2506.83 1741.9 2509.13 1741.96L2509.13 1745.24 2475.93 1745.24 2475.93 1741.96C2479.26 1741.81 2481.63 1741.61 2483.05 1741.35 2484.48 1741.1 2485.56 1740.72 2486.31 1740.21 2487.06 1739.7 2487.61 1738.98 2487.95 1738.05 2488.3 1737.12 2488.47 1735.61 2488.47 1733.51L2488.47 1697.08C2488.47 1695.88 2488.26 1695.01 2487.84 1694.45 2487.42 1693.9 2486.81 1693.62 2486 1693.62 2485.04 1693.62 2483.68 1694.12 2481.91 1695.1 2480.14 1696.09 2477.96 1697.46 2475.35 1699.19L2473.37 1695.73ZM2443.4 1683.2 2445.87 1683.2C2445.69 1686.08 2445.6 1690.06 2445.6 1695.15L2445.6 1733.51C2445.6 1735.25 2445.7 1736.56 2445.89 1737.44 2446.09 1738.33 2446.43 1739.05 2446.92 1739.6 2447.42 1740.15 2448.13 1740.59 2449.06 1740.9 2449.99 1741.22 2451.15 1741.46 2452.56 1741.62 2453.97 1741.79 2455.83 1741.9 2458.13 1741.96L2458.13 1745.24 2424.93 1745.24 2424.93 1741.96C2428.26 1741.81 2430.63 1741.61 2432.05 1741.35 2433.48 1741.1 2434.56 1740.72 2435.31 1740.21 2436.06 1739.7 2436.61 1738.98 2436.95 1738.05 2437.3 1737.12 2437.47 1735.61 2437.47 1733.51L2437.47 1697.08C2437.47 1695.88 2437.26 1695.01 2436.84 1694.45 2436.42 1693.9 2435.81 1693.62 2435 1693.62 2434.04 1693.62 2432.68 1694.12 2430.91 1695.1 2429.14 1696.09 2426.96 1697.46 2424.35 1699.19L2422.37 1695.73Z" fill-rule="evenodd"/><text fill="#000000" fill-opacity="0" font-family="Arial,Arial_MSFontService,sans-serif" font-size="62.0371" x="2422.37" y="1737.48">114</text><text font-family="Times New Roman,Times New Roman_MSFontService,sans-serif" font-weight="400" font-size="83" transform="matrix(1 0 0 1 1953.65 904)">1.2<tspan font-size="83" x="30.9375" y="126">1</tspan><tspan font-size="83" x="0" y="250">0.8</tspan><tspan font-size="83" x="40.1043" y="751">0</tspan><tspan font-size="83" x="908.657" y="-131">0.06</tspan></text><path d="M3083.42 1692.9C3085.31 1692.9 3086.8 1693.52 3087.89 1694.76 3088.98 1696 3089.53 1697.63 3089.53 1699.63 3089.53 1701.28 3089.19 1703.03 3088.5 1704.89L3089.04 1705.07C3091.79 1700.97 3094.53 1697.92 3097.26 1695.93 3099.98 1693.94 3102.74 1692.94 3105.52 1692.94 3108.4 1692.94 3110.58 1693.76 3112.08 1695.39 3113.58 1697.02 3114.33 1699.38 3114.33 1702.46L3114.33 1703.09C3114.33 1703.3 3114.31 1703.53 3114.28 1703.77 3116.86 1700.11 3119.43 1697.4 3121.99 1695.61 3124.55 1693.83 3127.21 1692.94 3129.96 1692.94 3132.72 1692.94 3134.84 1693.73 3136.34 1695.32 3137.84 1696.91 3138.59 1699.14 3138.59 1702.02 3138.59 1703.9 3138.15 1706.58 3137.28 1710.06L3134.36 1721.83C3133.55 1725.09 3133.15 1727.4 3133.15 1728.74 3133.15 1729.94 3133.34 1730.81 3133.73 1731.35 3134.12 1731.89 3134.74 1732.16 3135.58 1732.16 3136.47 1732.16 3137.43 1731.79 3138.45 1731.06 3139.47 1730.32 3140.91 1728.92 3142.76 1726.86L3145.32 1729.37C3142.75 1732.1 3140.5 1734.1 3138.59 1735.39 3136.67 1736.68 3134.48 1737.32 3132.03 1737.32 3130.08 1737.32 3128.52 1736.63 3127.35 1735.23 3126.19 1733.84 3125.6 1732.07 3125.6 1729.91 3125.6 1727.97 3126.1 1725.11 3127.09 1721.33L3129.06 1713.56C3129.78 1710.75 3130.25 1708.66 3130.48 1707.32 3130.7 1705.97 3130.81 1704.88 3130.81 1704.04 3130.81 1701.97 3130.47 1700.48 3129.78 1699.57 3129.09 1698.65 3127.97 1698.2 3126.41 1698.2 3125.15 1698.2 3123.81 1698.67 3122.37 1699.61 3120.93 1700.56 3119.42 1702.02 3117.83 1704.01 3116.24 1706.01 3114.95 1707.97 3113.95 1709.9 3112.94 1711.83 3112.14 1714.19 3111.54 1716.97L3107.45 1736.61 3099.68 1736.61 3104.85 1713.78C3105.48 1711 3105.9 1708.94 3106.13 1707.61 3106.35 1706.28 3106.47 1705.13 3106.47 1704.17 3106.47 1702.02 3106.08 1700.48 3105.32 1699.57 3104.56 1698.65 3103.37 1698.2 3101.75 1698.2 3100.61 1698.2 3099.32 1698.67 3097.86 1699.61 3096.41 1700.56 3094.86 1702.07 3093.21 1704.15 3091.57 1706.23 3090.28 1708.23 3089.35 1710.15 3088.42 1712.06 3087.64 1714.4 3087.01 1717.15L3082.75 1736.61 3074.98 1736.61 3081.53 1708.12C3082.19 1705.25 3082.52 1703.03 3082.52 1701.48 3082.52 1700.28 3082.33 1699.41 3081.94 1698.87 3081.55 1698.33 3080.94 1698.06 3080.1 1698.06 3079.17 1698.06 3078.19 1698.44 3077.15 1699.21 3076.12 1699.97 3074.71 1701.36 3072.91 1703.36L3070.35 1700.85C3072.98 1698.09 3075.25 1696.08 3077.15 1694.81 3079.06 1693.53 3081.15 1692.9 3083.42 1692.9Z" fill-rule="evenodd"/><text fill="#000000" fill-opacity="0" font-family="Arial,Arial_MSFontService,sans-serif" font-size="44.4277" x="3070.35" y="1731.77">𝑚</text><path d="M3179.75 1716.66 3235.1 1716.66 3235.1 1722.63 3179.75 1722.63ZM3179.75 1698.02 3235.1 1698.02 3235.1 1703.99 3179.75 1703.99Z" fill-rule="evenodd"/><text fill="#000000" fill-opacity="0" font-family="Arial,Arial_MSFontService,sans-serif" font-size="24.6172" x="3179.75" y="1719.56">=</text><path d="M3394.74 1678.39C3392.68 1678.39 3390.95 1679 3389.55 1680.23 3388.16 1681.46 3387.04 1683.22 3386.18 1685.53 3385.33 1687.83 3384.72 1690.64 3384.36 1693.95 3384.01 1697.26 3383.83 1701 3383.83 1705.16 3383.83 1714.92 3384.73 1722.09 3386.54 1726.65 3388.35 1731.22 3391.16 1733.51 3394.97 1733.51 3398.59 1733.51 3401.28 1731.36 3403.03 1727.06 3404.78 1722.76 3405.66 1716.11 3405.66 1707.09 3405.66 1700.2 3405.21 1694.63 3404.31 1690.36 3403.41 1686.09 3402.16 1683.03 3400.56 1681.17 3398.96 1679.31 3397.02 1678.39 3394.74 1678.39ZM3343.74 1678.39C3341.68 1678.39 3339.95 1679 3338.55 1680.23 3337.16 1681.46 3336.04 1683.22 3335.18 1685.53 3334.33 1687.83 3333.72 1690.64 3333.36 1693.95 3333.01 1697.26 3332.83 1701 3332.83 1705.16 3332.83 1714.92 3333.73 1722.09 3335.54 1726.65 3337.35 1731.22 3340.16 1733.51 3343.97 1733.51 3347.59 1733.51 3350.28 1731.36 3352.03 1727.06 3353.78 1722.76 3354.66 1716.11 3354.66 1707.09 3354.66 1700.2 3354.21 1694.63 3353.31 1690.36 3352.41 1686.09 3351.16 1683.03 3349.56 1681.17 3347.96 1679.31 3346.02 1678.39 3343.74 1678.39ZM3394.97 1674.57C3401.52 1674.57 3406.41 1677.1 3409.61 1682.16 3412.81 1687.22 3414.42 1694.87 3414.42 1705.11 3414.42 1715.72 3412.7 1723.73 3409.27 1729.17 3405.84 1734.61 3400.84 1737.32 3394.25 1737.32 3387.78 1737.32 3382.96 1734.78 3379.8 1729.69 3376.65 1724.6 3375.07 1716.87 3375.07 1706.51 3375.07 1701 3375.55 1696.24 3376.53 1692.22 3377.5 1688.21 3378.86 1684.89 3380.61 1682.27 3382.37 1679.65 3384.47 1677.71 3386.93 1676.45 3389.38 1675.2 3392.06 1674.57 3394.97 1674.57ZM3343.97 1674.57C3350.52 1674.57 3355.41 1677.1 3358.61 1682.16 3361.81 1687.22 3363.42 1694.87 3363.42 1705.11 3363.42 1715.72 3361.7 1723.73 3358.27 1729.17 3354.84 1734.61 3349.84 1737.32 3343.25 1737.32 3336.78 1737.32 3331.96 1734.78 3328.8 1729.69 3325.65 1724.6 3324.07 1716.87 3324.07 1706.51 3324.07 1701 3324.55 1696.24 3325.53 1692.22 3326.5 1688.21 3327.86 1684.89 3329.61 1682.27 3331.37 1679.65 3333.47 1677.71 3335.93 1676.45 3338.38 1675.2 3341.06 1674.57 3343.97 1674.57ZM3305.68 1672.32 3309.18 1672.32 3308.51 1682.74 3282.68 1682.74 3282.68 1702.46C3284.24 1701.81 3285.93 1701.31 3287.76 1700.98 3289.58 1700.65 3291.41 1700.49 3293.24 1700.49 3296.8 1700.49 3299.96 1701.21 3302.71 1702.67 3305.47 1704.12 3307.6 1706.19 3309.09 1708.87 3310.59 1711.55 3311.34 1714.65 3311.34 1718.19 3311.34 1722.2 3310.5 1725.64 3308.82 1728.52 3307.15 1731.39 3304.72 1733.58 3301.55 1735.08 3298.37 1736.58 3294.61 1737.32 3290.27 1737.32 3285.09 1737.32 3279.67 1736.26 3274.01 1734.13L3274.01 1724.61 3279.44 1724.61C3280.34 1727.67 3281.7 1729.91 3283.51 1731.35 3285.32 1732.79 3287.67 1733.51 3290.54 1733.51 3294.52 1733.51 3297.53 1732.31 3299.57 1729.91 3301.61 1727.52 3302.62 1723.94 3302.62 1719.18 3302.62 1716 3302.09 1713.37 3301.01 1711.29 3299.93 1709.21 3298.48 1707.71 3296.65 1706.78 3294.82 1705.85 3292.7 1705.38 3290.27 1705.38 3288.23 1705.38 3286.48 1705.51 3285.01 1705.77 3283.55 1706.02 3281.98 1706.42 3280.3 1706.96L3276.7 1704.85 3276.7 1675.29 3301.46 1675.29C3302.47 1675.29 3303.21 1675.2 3303.66 1675.04 3304.11 1674.88 3304.47 1674.62 3304.74 1674.28 3305.01 1673.93 3305.32 1673.28 3305.68 1672.32Z" fill-rule="evenodd"/><text fill="#000000" fill-opacity="0" font-family="Arial,Arial_MSFontService,sans-serif" font-size="65.002" x="3274.01" y="1729.2">500</text><g clip-path="url(#clip5)"><path d="M2079.5 1623.5 2736.5 1623.5M2079.5 1498.55 2736.5 1498.55M2079.5 1373.55 2736.5 1373.55M2079.5 1248.54 2736.5 1248.54M2079.5 1124.54 2736.5 1124.54M2079.5 999.533 2736.5 999.533M2079.5 874.529 2736.5 874.529M2079.5 749.5 2736.5 749.5" stroke="#D9D9D9" stroke-width="3.4375" stroke-linejoin="round" stroke-miterlimit="10" fill="none"/></g><g clip-path="url(#clip6)"><rect x="2134.5" y="1210.5" width="109" height="413" stroke="#FF0000" stroke-width="3.4375" stroke-linejoin="round" stroke-miterlimit="10" fill="#FF0000"/></g><g clip-path="url(#clip7)"><rect x="2353.5" y="1249.5" width="109" height="374" stroke="#0070C0" stroke-width="3.4375" stroke-linejoin="round" stroke-miterlimit="10" fill="#4472C4"/></g><g clip-path="url(#clip8)"><rect x="2572.5" y="787.5" width="110" height="836" stroke="#006600" stroke-width="3.4375" stroke-linejoin="round" stroke-miterlimit="10" fill="#006600"/></g><text font-family="Times New Roman,Times New Roman_MSFontService,sans-serif" font-weight="400" font-size="83" transform="matrix(1 0 0 1 1951.81 1278)">0.6<tspan font-size="83" x="0" y="126">0.4</tspan><tspan font-size="83" x="0" y="250">0.2</tspan></text><g clip-path="url(#clip9)"><path d="M3021.5 1624.5 3682.5 1624.5M3021.5 1478.55 3682.5 1478.55M3021.5 1332.54 3682.5 1332.54M3021.5 1187.54 3682.5 1187.54M3021.5 1041.53 3682.5 1041.53M3021.5 896.53 3682.5 896.53M3021.5 750.5 3682.5 750.5" stroke="#D9D9D9" stroke-width="3.4375" stroke-linejoin="round" stroke-miterlimit="10" fill="none"/></g><g clip-path="url(#clip10)"><rect x="3076.5" y="833.5" width="110" height="791" stroke="#FF0000" stroke-width="3.4375" stroke-linejoin="round" stroke-miterlimit="10" fill="#FF0000"/></g><g clip-path="url(#clip11)"><rect x="3297.5" y="1267.5" width="110" height="357" stroke="#0070C0" stroke-width="3.4375" stroke-linejoin="round" stroke-miterlimit="10" fill="#4472C4"/></g><g clip-path="url(#clip12)"><rect x="3517.5" y="828.5" width="110" height="796" stroke="#006600" stroke-width="3.4375" stroke-linejoin="round" stroke-miterlimit="10" fill="#006600"/></g><text font-family="Times New Roman,Times New Roman_MSFontService,sans-serif" font-weight="400" font-size="83" transform="matrix(1 0 0 1 2862.3 923)">0.05<tspan font-size="83" x="0" y="144">0.04</tspan><tspan font-size="83" x="0" y="293">0.03</tspan><tspan font-size="83" x="0" y="437">0.02</tspan><tspan font-size="83" x="0" y="587">0.01</tspan><tspan font-size="83" x="51.5625" y="730">0</tspan></text></g></svg>