<svg width="2900" height="1434" xmlns="http://www.w3.org/2000/svg" xmlns:xlink="http://www.w3.org/1999/xlink" overflow="hidden"><defs><clipPath id="clip0"><rect x="893" y="230" width="2900" height="1434"/></clipPath><clipPath id="clip1"><rect x="1134" y="506" width="1202" height="968"/></clipPath><clipPath id="clip2"><rect x="1134" y="506" width="1202" height="968"/></clipPath><clipPath id="clip3"><rect x="1174" y="551" width="1125" height="893"/></clipPath><clipPath id="clip4"><rect x="1134" y="506" width="1202" height="968"/></clipPath><clipPath id="clip5"><rect x="1174" y="551" width="1125" height="893"/></clipPath><clipPath id="clip6"><rect x="1134" y="506" width="1202" height="968"/></clipPath><clipPath id="clip7"><rect x="1174" y="551" width="1125" height="893"/></clipPath><clipPath id="clip8"><rect x="1134" y="506" width="1202" height="968"/></clipPath><clipPath id="clip9"><rect x="2538" y="505" width="1189" height="972"/></clipPath><clipPath id="clip10"><rect x="2538" y="505" width="1189" height="972"/></clipPath><clipPath id="clip11"><rect x="2566" y="551" width="1128" height="896"/></clipPath><clipPath id="clip12"><rect x="2538" y="505" width="1189" height="972"/></clipPath><clipPath id="clip13"><rect x="2566" y="551" width="1128" height="896"/></clipPath><clipPath id="clip14"><rect x="2538" y="505" width="1189" height="972"/></clipPath><clipPath id="clip15"><rect x="2566" y="551" width="1128" height="896"/></clipPath><clipPath id="clip16"><rect x="2538" y="505" width="1189" height="972"/></clipPath></defs><g clip-path="url(#clip0)" transform="translate(-893 -230)"><g clip-path="url(#clip1)"><path d="M1174.5 1440.5 2295.5 1440.5M1174.5 1313.54 2295.5 1313.54M1174.5 1186.54 2295.5 1186.54M1174.5 1059.53 2295.5 1059.53M1174.5 932.531 2295.5 932.531M1174.5 805.527 2295.5 805.527M1174.5 678.522 2295.5 678.522M1174.5 551.5 2295.5 551.5" stroke="#D9D9D9" stroke-width="3.4375" stroke-linejoin="round" stroke-miterlimit="10" fill="none"/></g><g clip-path="url(#clip2)"><path d="M1174.5 551.5 1174.5 1440.5M1454.55 551.5 1454.55 1440.5M1734.56 551.5 1734.56 1440.5M2015.57 551.5 2015.57 1440.5M2295.5 551.5 2295.5 1440.5" stroke="#D9D9D9" stroke-width="3.4375" stroke-linejoin="round" stroke-miterlimit="10" fill="none"/></g><g clip-path="url(#clip3)"><path d="M1230.5 634.5 1286.54 642.521 1398.55 661.522 1510.55 682.523 1622.55 704.523 1734.56 727.524 1847.56 752.525 1959.56 778.526 2071.57 804.527 2183.57 832.527 2295.5 860.5" stroke="#000000" stroke-width="3.4375" stroke-linecap="round" stroke-linejoin="round" stroke-miterlimit="10" stroke-dasharray="10.3125 13.75 0 13.75" fill="none"/></g><g clip-path="url(#clip4)"><path d="M1249.3 653.343 1212.3 616.344M1212.3 653.343 1249.3 616.344" stroke="#000000" stroke-width="3.4375" stroke-linejoin="round" stroke-miterlimit="10" fill="none"/><path d="M1305.3 661.343 1268.3 624.343M1268.3 661.343 1305.3 624.343" stroke="#000000" stroke-width="3.4375" stroke-linejoin="round" stroke-miterlimit="10" fill="none"/><path d="M1417.3 680.343 1380.3 643.343M1380.3 680.343 1417.3 643.343" stroke="#000000" stroke-width="3.4375" stroke-linejoin="round" stroke-miterlimit="10" fill="none"/><path d="M1529.3 701.343 1492.3 664.344M1492.3 701.343 1529.3 664.344" stroke="#000000" stroke-width="3.4375" stroke-linejoin="round" stroke-miterlimit="10" fill="none"/><path d="M1641.3 723.343 1604.3 686.344M1604.3 723.343 1641.3 686.344" stroke="#000000" stroke-width="3.4375" stroke-linejoin="round" stroke-miterlimit="10" fill="none"/><path d="M1753.3 746.343 1716.3 709.343M1716.3 746.343 1753.3 709.343" stroke="#000000" stroke-width="3.4375" stroke-linejoin="round" stroke-miterlimit="10" fill="none"/><path d="M1866.3 771.343 1829.3 734.343M1829.3 771.343 1866.3 734.343" stroke="#000000" stroke-width="3.4375" stroke-linejoin="round" stroke-miterlimit="10" fill="none"/><path d="M1978.3 797.343 1941.3 760.344M1941.3 797.343 1978.3 760.344" stroke="#000000" stroke-width="3.4375" stroke-linejoin="round" stroke-miterlimit="10" fill="none"/><path d="M2090.3 823.343 2053.3 786.343M2053.3 823.343 2090.3 786.343" stroke="#000000" stroke-width="3.4375" stroke-linejoin="round" stroke-miterlimit="10" fill="none"/><path d="M2202.3 851.343 2165.3 814.344M2165.3 851.343 2202.3 814.344" stroke="#000000" stroke-width="3.4375" stroke-linejoin="round" stroke-miterlimit="10" fill="none"/><path d="M2314.3 879.343 2277.3 842.343M2277.3 879.343 2314.3 842.343" stroke="#000000" stroke-width="3.4375" stroke-linejoin="round" stroke-miterlimit="10" fill="none"/></g><g clip-path="url(#clip5)"><path d="M1230.5 786.5 1286.54 832.527 1398.55 889.529 1510.55 918.53 1622.55 958.532 1734.56 1012.53 1847.56 1030.53 1959.56 1049.53 2071.57 1086.54 2183.57 1112.54 2295.5 1144.5" stroke="#000000" stroke-width="3.4375" stroke-linecap="round" stroke-linejoin="round" stroke-miterlimit="10" stroke-dasharray="10.3125 13.75" fill="none"/></g><g clip-path="url(#clip6)"><path d="M1212.8 768.844 1248.8 768.844 1248.8 804.843 1212.8 804.843Z" stroke="#000000" stroke-width="3.4375" stroke-linejoin="round" stroke-miterlimit="10" fill="none"/><path d="M1268.8 814.844 1304.8 814.844 1304.8 850.843 1268.8 850.843Z" stroke="#000000" stroke-width="3.4375" stroke-linejoin="round" stroke-miterlimit="10" fill="none"/><path d="M1380.8 871.844 1416.8 871.844 1416.8 907.843 1380.8 907.843Z" stroke="#000000" stroke-width="3.4375" stroke-linejoin="round" stroke-miterlimit="10" fill="none"/><path d="M1492.8 900.844 1528.8 900.844 1528.8 936.843 1492.8 936.843Z" stroke="#000000" stroke-width="3.4375" stroke-linejoin="round" stroke-miterlimit="10" fill="none"/><path d="M1604.8 940.844 1640.8 940.844 1640.8 976.843 1604.8 976.843Z" stroke="#000000" stroke-width="3.4375" stroke-linejoin="round" stroke-miterlimit="10" fill="none"/><path d="M1716.8 995.844 1752.8 995.844 1752.8 1031.84 1716.8 1031.84Z" stroke="#000000" stroke-width="3.4375" stroke-linejoin="round" stroke-miterlimit="10" fill="none"/><path d="M1829.8 1012.84 1865.8 1012.84 1865.8 1048.84 1829.8 1048.84Z" stroke="#000000" stroke-width="3.4375" stroke-linejoin="round" stroke-miterlimit="10" fill="none"/><path d="M1941.8 1031.84 1977.8 1031.84 1977.8 1067.84 1941.8 1067.84Z" stroke="#000000" stroke-width="3.4375" stroke-linejoin="round" stroke-miterlimit="10" fill="none"/><path d="M2053.8 1068.84 2089.8 1068.84 2089.8 1104.84 2053.8 1104.84Z" stroke="#000000" stroke-width="3.4375" stroke-linejoin="round" stroke-miterlimit="10" fill="none"/><path d="M2165.8 1094.84 2201.8 1094.84 2201.8 1130.84 2165.8 1130.84Z" stroke="#000000" stroke-width="3.4375" stroke-linejoin="round" stroke-miterlimit="10" fill="none"/><path d="M2277.8 1126.84 2313.8 1126.84 2313.8 1162.84 2277.8 1162.84Z" stroke="#000000" stroke-width="3.4375" stroke-linejoin="round" stroke-miterlimit="10" fill="none"/></g><g clip-path="url(#clip7)"><path d="M1230.5 872.5 1286.54 988.533 1398.55 1072.54 1510.55 1158.54 1622.55 1201.54 1734.56 1250.54 1847.56 1281.54 1959.56 1306.54 2071.57 1329.54 2183.57 1357.54 2295.5 1382.5" stroke="#000000" stroke-width="3.4375" stroke-linecap="round" stroke-linejoin="round" stroke-miterlimit="10" fill="none"/></g><g clip-path="url(#clip8)"><path d="M1248.8 872.843C1248.8 882.784 1240.74 890.843 1230.8 890.843 1220.86 890.843 1212.8 882.784 1212.8 872.843 1212.8 862.902 1220.86 854.844 1230.8 854.844 1240.74 854.844 1248.8 862.902 1248.8 872.843Z" stroke="#000000" stroke-width="3.4375" stroke-linejoin="round" stroke-miterlimit="10" fill="none"/><path d="M1304.8 988.843C1304.8 998.784 1296.74 1006.84 1286.8 1006.84 1276.86 1006.84 1268.8 998.784 1268.8 988.843 1268.8 978.902 1276.86 970.844 1286.8 970.844 1296.74 970.844 1304.8 978.902 1304.8 988.843Z" stroke="#000000" stroke-width="3.4375" stroke-linejoin="round" stroke-miterlimit="10" fill="none"/><path d="M1416.8 1072.84C1416.8 1082.78 1408.74 1090.84 1398.8 1090.84 1388.86 1090.84 1380.8 1082.78 1380.8 1072.84 1380.8 1062.9 1388.86 1054.84 1398.8 1054.84 1408.74 1054.84 1416.8 1062.9 1416.8 1072.84Z" stroke="#000000" stroke-width="3.4375" stroke-linejoin="round" stroke-miterlimit="10" fill="none"/><path d="M1528.8 1158.84C1528.8 1168.78 1520.74 1176.84 1510.8 1176.84 1500.86 1176.84 1492.8 1168.78 1492.8 1158.84 1492.8 1148.9 1500.86 1140.84 1510.8 1140.84 1520.74 1140.84 1528.8 1148.9 1528.8 1158.84Z" stroke="#000000" stroke-width="3.4375" stroke-linejoin="round" stroke-miterlimit="10" fill="none"/><path d="M1640.8 1201.84C1640.8 1211.78 1632.74 1219.84 1622.8 1219.84 1612.86 1219.84 1604.8 1211.78 1604.8 1201.84 1604.8 1191.9 1612.86 1183.84 1622.8 1183.84 1632.74 1183.84 1640.8 1191.9 1640.8 1201.84Z" stroke="#000000" stroke-width="3.4375" stroke-linejoin="round" stroke-miterlimit="10" fill="none"/><path d="M1752.8 1250.84C1752.8 1260.78 1744.74 1268.84 1734.8 1268.84 1724.86 1268.84 1716.8 1260.78 1716.8 1250.84 1716.8 1240.9 1724.86 1232.84 1734.8 1232.84 1744.74 1232.84 1752.8 1240.9 1752.8 1250.84Z" stroke="#000000" stroke-width="3.4375" stroke-linejoin="round" stroke-miterlimit="10" fill="none"/><path d="M1865.8 1281.84C1865.8 1291.78 1857.74 1299.84 1847.8 1299.84 1837.86 1299.84 1829.8 1291.78 1829.8 1281.84 1829.8 1271.9 1837.86 1263.84 1847.8 1263.84 1857.74 1263.84 1865.8 1271.9 1865.8 1281.84Z" stroke="#000000" stroke-width="3.4375" stroke-linejoin="round" stroke-miterlimit="10" fill="none"/><path d="M1977.8 1306.84C1977.8 1316.78 1969.74 1324.84 1959.8 1324.84 1949.86 1324.84 1941.8 1316.78 1941.8 1306.84 1941.8 1296.9 1949.86 1288.84 1959.8 1288.84 1969.74 1288.84 1977.8 1296.9 1977.8 1306.84Z" stroke="#000000" stroke-width="3.4375" stroke-linejoin="round" stroke-miterlimit="10" fill="none"/><path d="M2089.8 1329.84C2089.8 1339.78 2081.74 1347.84 2071.8 1347.84 2061.86 1347.84 2053.8 1339.78 2053.8 1329.84 2053.8 1319.9 2061.86 1311.84 2071.8 1311.84 2081.74 1311.84 2089.8 1319.9 2089.8 1329.84Z" stroke="#000000" stroke-width="3.4375" stroke-linejoin="round" stroke-miterlimit="10" fill="none"/><path d="M2201.8 1357.84C2201.8 1367.78 2193.74 1375.84 2183.8 1375.84 2173.86 1375.84 2165.8 1367.78 2165.8 1357.84 2165.8 1347.9 2173.86 1339.84 2183.8 1339.84 2193.74 1339.84 2201.8 1347.9 2201.8 1357.84Z" stroke="#000000" stroke-width="3.4375" stroke-linejoin="round" stroke-miterlimit="10" fill="none"/><path d="M2313.8 1382.84C2313.8 1392.78 2305.74 1400.84 2295.8 1400.84 2285.86 1400.84 2277.8 1392.78 2277.8 1382.84 2277.8 1372.9 2285.86 1364.84 2295.8 1364.84 2305.74 1364.84 2313.8 1372.9 2313.8 1382.84Z" stroke="#000000" stroke-width="3.4375" stroke-linejoin="round" stroke-miterlimit="10" fill="none"/></g><text font-family="Times New Roman,Times New Roman_MSFontService,sans-serif" font-weight="400" font-size="83" transform="matrix(1 0 0 1 1161.42 1523)">0<tspan font-size="83" x="243.115" y="6">0.5</tspan><tspan font-size="83" x="551.368" y="6">1</tspan><tspan font-size="83" x="798.326" y="6">1.5</tspan><tspan font-size="83" x="1106.58" y="5">2</tspan></text><path d="M1740.62 1577.74C1744.94 1577.74 1749.46 1578.45 1754.19 1579.89L1752.48 1588.07 1748.26 1588.07C1747.72 1583.55 1745.07 1581.28 1740.31 1581.28 1737.59 1581.28 1735.35 1582.06 1733.62 1583.6 1731.88 1585.14 1731.01 1587.26 1731.01 1589.95 1731.01 1591.9 1731.78 1593.46 1733.33 1594.63 1734.87 1595.79 1736.99 1596.38 1739.68 1596.38L1746.06 1596.38 1745.03 1601.01 1740.54 1601.01C1738.26 1601.01 1736.39 1601.16 1734.92 1601.45 1733.45 1601.75 1732.07 1602.24 1730.79 1602.91 1729.5 1603.59 1728.49 1604.31 1727.75 1605.07 1727.02 1605.83 1726.47 1606.7 1726.12 1607.65 1725.76 1608.61 1725.58 1609.71 1725.58 1610.93 1725.58 1613.03 1726.29 1614.63 1727.73 1615.74 1729.17 1616.85 1731.24 1617.4 1733.93 1617.4 1736.3 1617.4 1738.58 1617.06 1740.78 1616.39 1742.98 1615.72 1745.48 1614.44 1748.26 1612.55L1750.46 1616.05C1747.35 1618.21 1744.29 1619.77 1741.28 1620.73 1738.27 1621.68 1735.11 1622.16 1731.82 1622.16 1728.83 1622.16 1726.26 1621.66 1724.12 1620.66 1721.97 1619.66 1720.37 1618.32 1719.31 1616.66 1718.25 1615 1717.71 1613.16 1717.71 1611.16 1717.71 1608.07 1718.91 1605.44 1721.31 1603.25 1723.7 1601.07 1727.15 1599.49 1731.64 1598.53L1731.73 1598.09C1726.52 1596.35 1723.91 1593.35 1723.91 1589.1 1723.91 1587.18 1724.51 1585.37 1725.71 1583.64 1726.91 1581.92 1728.79 1580.51 1731.35 1579.4 1733.91 1578.29 1737 1577.74 1740.62 1577.74Z" fill-rule="evenodd"/><text fill="#000000" fill-opacity="0" font-family="Arial,Arial_MSFontService,sans-serif" font-size="44.4277" x="1717.71" y="1616.61">ğœ€</text><text font-family="Times New Roman,Times New Roman_MSFontService,sans-serif" font-weight="400" font-size="92" transform="matrix(-1.83697e-16 -1 1 -1.83697e-16 1010.11 1265)">Relative Error</text><text font-family="Times New Roman,Times New Roman_MSFontService,sans-serif" font-weight="400" font-size="83" transform="matrix(1 0 0 1 1035.63 1468)">10<tspan font-size="55" x="82.5" y="-25">-</tspan><tspan font-size="55" x="100.833" y="-25">2</tspan><tspan font-size="83" x="0" y="-127">10</tspan><tspan font-size="55" x="82.5" y="-152">-</tspan><tspan font-size="55" x="100.833" y="-152">1</tspan><tspan font-size="83" x="39.8284" y="-253">1</tspan><tspan font-weight="700" font-size="101" x="279.943" y="-974">(a) </tspan><tspan font-weight="700" font-size="101" x="423.172" y="-974">Gplus</tspan><tspan font-weight="700" font-size="101" x="706.193" y="-974">(</tspan></text><path d="M1791.16 445.775C1793.23 445.775 1794.87 446.457 1796.07 447.822 1797.27 449.186 1797.87 450.97 1797.87 453.173 1797.87 454.915 1797.47 456.855 1796.68 458.992L1797.27 459.189C1800.5 454.652 1803.56 451.29 1806.47 449.104 1809.38 446.918 1812.38 445.825 1815.47 445.825 1818.53 445.825 1820.88 446.704 1822.52 448.463 1824.17 450.222 1824.99 452.663 1824.99 455.786 1824.99 457.858 1824.51 460.8 1823.56 464.614L1820.35 477.535C1819.47 481.119 1819.02 483.65 1819.02 485.13 1819.02 486.445 1819.24 487.398 1819.66 487.99 1820.09 488.582 1820.76 488.878 1821.69 488.878 1822.67 488.878 1823.72 488.475 1824.84 487.67 1825.96 486.864 1827.54 485.327 1829.58 483.058L1832.39 485.82C1829.56 488.845 1827.09 491.056 1824.99 492.453 1822.89 493.851 1820.49 494.549 1817.79 494.549 1815.65 494.549 1813.94 493.785 1812.66 492.256 1811.38 490.727 1810.74 488.779 1810.74 486.412 1810.74 484.275 1811.28 481.135 1812.36 476.993L1814.53 468.461C1815.32 465.37 1815.84 463.085 1816.09 461.606 1816.33 460.126 1816.46 458.926 1816.46 458.006 1816.46 455.737 1816.08 454.102 1815.32 453.099 1814.57 452.096 1813.33 451.595 1811.62 451.595 1810.24 451.595 1808.76 452.145 1807.16 453.247 1805.57 454.348 1803.87 456.008 1802.08 458.228 1800.29 460.447 1798.85 462.6 1797.77 464.688 1796.68 466.776 1795.79 469.349 1795.1 472.406L1790.42 493.76 1781.89 493.76 1789.09 462.494C1789.81 459.337 1790.17 456.904 1790.17 455.195 1790.17 453.88 1789.96 452.926 1789.53 452.334 1789.1 451.743 1788.43 451.447 1787.51 451.447 1786.49 451.447 1785.41 451.866 1784.28 452.704 1783.14 453.543 1781.59 455.063 1779.62 457.266L1776.81 454.504C1779.83 451.348 1782.35 449.104 1784.35 447.773 1786.36 446.441 1788.63 445.775 1791.16 445.775Z" fill-rule="evenodd"/><text fill="#000000" fill-opacity="0" font-family="Arial,Arial_MSFontService,sans-serif" font-size="48.7739" x="1776.81" y="488.452">ğ‘›</text><path d="M1870.56 471.864 1931.32 471.864 1931.32 478.423 1870.56 478.423ZM1870.56 451.397 1931.32 451.397 1931.32 457.956 1870.56 457.956Z" fill-rule="evenodd"/><text fill="#000000" fill-opacity="0" font-family="Arial,Arial_MSFontService,sans-serif" font-size="27.0254" x="1870.56" y="475.045">=</text><path d="M2050.23 429.846C2047.96 429.846 2046.06 430.52 2044.53 431.868 2043.01 433.216 2041.77 435.156 2040.84 437.687 2039.9 440.219 2039.23 443.301 2038.84 446.934 2038.44 450.567 2038.25 454.669 2038.25 459.239 2038.25 469.957 2039.24 477.823 2041.23 482.837 2043.22 487.85 2046.3 490.357 2050.48 490.357 2054.45 490.357 2057.41 487.998 2059.33 483.28 2061.25 478.562 2062.21 471.255 2062.21 461.359 2062.21 453.797 2061.72 447.674 2060.73 442.989 2059.75 438.304 2058.38 434.942 2056.62 432.904 2054.86 430.865 2052.73 429.846 2050.23 429.846ZM2050.48 425.654C2057.68 425.654 2063.04 428.432 2066.55 433.989 2070.07 439.545 2071.83 447.945 2071.83 459.189 2071.83 470.828 2069.95 479.631 2066.18 485.598 2062.42 491.566 2056.92 494.549 2049.69 494.549 2042.59 494.549 2037.3 491.755 2033.83 486.165 2030.36 480.576 2028.63 472.094 2028.63 460.718 2028.63 454.669 2029.16 449.441 2030.23 445.036 2031.3 440.63 2032.8 436.989 2034.72 434.112 2036.64 431.235 2038.95 429.106 2041.65 427.725 2044.34 426.345 2047.29 425.654 2050.48 425.654ZM1998.13 425.654 2000.84 425.654C2000.64 428.81 2000.54 433.183 2000.54 438.772L2000.54 480.889C2000.54 482.795 2000.65 484.234 2000.86 485.204 2001.08 486.174 2001.45 486.963 2002 487.571 2002.54 488.179 2003.32 488.656 2004.34 489.001 2005.36 489.346 2006.64 489.609 2008.19 489.79 2009.73 489.971 2011.77 490.094 2014.3 490.16L2014.3 493.76 1977.86 493.76 1977.86 490.16C1981.51 489.996 1984.11 489.774 1985.67 489.494 1987.24 489.215 1988.43 488.796 1989.25 488.237 1990.07 487.678 1990.67 486.889 1991.05 485.87 1991.43 484.85 1991.62 483.19 1991.62 480.889L1991.62 440.893C1991.62 439.578 1991.39 438.616 1990.93 438.008 1990.47 437.4 1989.79 437.096 1988.9 437.096 1987.85 437.096 1986.36 437.638 1984.42 438.723 1982.48 439.808 1980.08 441.304 1977.22 443.211L1975.05 439.413Z" fill-rule="evenodd"/><text fill="#000000" fill-opacity="0" font-family="Arial,Arial_MSFontService,sans-serif" font-size="68.895" x="1975.05" y="485.937">10</text><path d="M2100.68 419.01C2098.37 422.359 2096.06 425.683 2093.76 428.983 2091.46 432.283 2089.14 435.595 2086.81 438.919L2086.81 439.353 2100.68 439.353 2100.68 432.09C2100.68 431.271 2100.69 430.26 2100.72 429.055 2100.74 427.851 2100.77 426.628 2100.81 425.388 2100.85 424.147 2100.89 422.967 2100.94 421.847 2100.98 420.727 2101.03 419.781 2101.08 419.01ZM2101.73 410.555 2107.48 410.555 2107.48 439.353 2108.13 439.353C2109.11 439.353 2109.91 439.305 2110.53 439.209 2111.14 439.112 2111.64 438.913 2112.01 438.612 2112.38 438.311 2112.7 437.89 2112.95 437.348 2113.2 436.806 2113.47 436.101 2113.76 435.234L2116.83 435.234C2116.76 436.559 2116.68 437.872 2116.6 439.172 2116.52 440.473 2116.44 441.798 2116.36 443.147L2107.48 443.147 2107.48 447.88C2107.48 449.278 2107.51 450.362 2107.57 451.132 2107.63 451.903 2107.81 452.505 2108.11 452.939 2108.41 453.373 2108.85 453.698 2109.45 453.915 2110.04 454.131 2110.86 454.384 2111.92 454.673L2111.92 456.841 2096.31 456.841 2096.31 454.673C2097.03 454.481 2097.65 454.306 2098.15 454.149 2098.66 453.993 2099.08 453.812 2099.42 453.607 2099.76 453.403 2100 453.162 2100.16 452.885 2100.32 452.608 2100.44 452.259 2100.52 451.837 2100.6 451.415 2100.65 450.885 2100.66 450.247 2100.68 449.609 2100.68 448.82 2100.68 447.88L2100.68 443.147 2080.34 443.147 2080.34 440.293C2083.93 435.306 2087.49 430.35 2091.04 425.424 2094.58 420.498 2098.14 415.542 2101.73 410.555Z" fill-rule="evenodd"/><text fill="#000000" fill-opacity="0" font-family="Arial,Arial_MSFontService,sans-serif" font-size="46.2861" x="2080.34" y="451.056">4</text><text font-family="Times New Roman,Times New Roman_MSFontService,sans-serif" font-weight="700" font-size="101" transform="matrix(1 0 0 1 2124 494)">)</text><path d="M1315.14 501.754 1525.89 501.754 1736.64 501.754 1947.39 501.754 2158.14 501.754 2158.14 506.754 1947.39 506.754 1736.64 506.754 1525.89 506.754 1315.14 506.754Z" fill-rule="evenodd"/><text font-family="Times New Roman,Times New Roman_MSFontService,sans-serif" font-weight="400" font-size="83" transform="matrix(1 0 0 1 1054.32 1090)">10<tspan font-size="83" x="-13.75" y="-124">10</tspan><tspan font-size="55" x="68.75" y="-149">2</tspan><tspan font-size="83" x="-13.75" y="-256">10</tspan><tspan font-size="55" x="68.75" y="-281">3</tspan><tspan font-size="83" x="-13.75" y="-377">10</tspan><tspan font-size="55" x="68.75" y="-402">4</tspan><tspan font-size="83" x="-13.75" y="-509">10</tspan><tspan font-size="55" x="68.75" y="-534">5</tspan></text><path d="M903.916 250.917 3701.92 250.917 3701.92 385.917 903.916 385.917Z" stroke="#000000" stroke-width="5.72917" stroke-linejoin="round" stroke-miterlimit="10" fill="#FFFFFF" fill-rule="evenodd"/><text font-family="Times New Roman,Times New Roman_MSFontService,sans-serif" font-weight="400" font-size="92" transform="matrix(1 0 0 1 1233.1 347)">RR (biased)<tspan font-size="92" x="818.271" y="1">RR (bias</tspan>-<tspan font-size="92" x="1171.76" y="1">reduced)</tspan><tspan font-size="92" x="1884.9" y="3">RR (unbiased)</tspan></text><path d="M967.678 320.787 1158.68 320.787" stroke="#000000" stroke-width="5.72917" stroke-linecap="round" stroke-linejoin="round" stroke-miterlimit="10" stroke-dasharray="17.1875 22.9167 0 22.9167" fill="none" fill-rule="evenodd"/><path d="M1084.68 342.822 1040.68 297.822M1040.68 342.822 1084.68 297.822" stroke="#000000" stroke-width="5.72917" stroke-linejoin="round" stroke-miterlimit="10" fill="none" fill-rule="evenodd"/><path d="M1858.68 298.824 1901.68 298.824 1901.68 341.824 1858.68 341.824Z" stroke="#000000" stroke-width="5.72917" stroke-linejoin="round" stroke-miterlimit="10" fill="none" fill-rule="evenodd"/><path d="M2846.68 320.787 3038.68 320.787" stroke="#000000" stroke-width="5.72917" stroke-linecap="round" stroke-linejoin="round" stroke-miterlimit="10" fill="none" fill-rule="evenodd"/><path d="M2961.68 318.324C2961.68 330.198 2952.49 339.824 2941.18 339.824 2929.87 339.824 2920.68 330.198 2920.68 318.324 2920.68 306.449 2929.87 296.824 2941.18 296.824 2952.49 296.824 2961.68 306.449 2961.68 318.324Z" stroke="#000000" stroke-width="5.72917" stroke-linejoin="round" stroke-miterlimit="10" fill="none" fill-rule="evenodd"/><path d="M1784.68 319.893 1975.68 319.893" stroke="#000000" stroke-width="5.72917" stroke-linecap="round" stroke-linejoin="round" stroke-miterlimit="10" stroke-dasharray="17.1875 22.9167" fill="none" fill-rule="evenodd"/><g clip-path="url(#clip9)"><path d="M2566.5 1443.5 3690.5 1443.5M2566.5 1316.54 3690.5 1316.54M2566.5 1188.54 3690.5 1188.54M2566.5 1061.54 3690.5 1061.54M2566.5 933.531 3690.5 933.531M2566.5 806.527 3690.5 806.527M2566.5 678.522 3690.5 678.522M2566.5 551.5 3690.5 551.5" stroke="#D9D9D9" stroke-width="3.4375" stroke-linejoin="round" stroke-miterlimit="10" fill="none"/></g><g clip-path="url(#clip10)"><path d="M2566.5 551.5 2566.5 1443.5M2847.59 551.5 2847.59 1443.5M3128.6 551.5 3128.6 1443.5M3409.61 551.5 3409.61 1443.5M3690.5 551.5 3690.5 1443.5" stroke="#D9D9D9" stroke-width="3.4375" stroke-linejoin="round" stroke-miterlimit="10" fill="none"/></g><g clip-path="url(#clip11)"><path d="M2622.5 606.5 2678.59 614.52 2791.59 634.521 2903.6 654.522 3015.6 676.522 3128.6 700.523 3240.61 725.524 3353.61 751.525 3465.61 778.526 3578.62 806.527 3690.5 835.5" stroke="#000000" stroke-width="3.4375" stroke-linecap="round" stroke-linejoin="round" stroke-miterlimit="10" stroke-dasharray="10.3125 13.75 0 13.75" fill="none"/></g><g clip-path="url(#clip12)"><path d="M2641.24 624.76 2604.24 587.76M2604.24 624.76 2641.24 587.76" stroke="#000000" stroke-width="3.4375" stroke-linejoin="round" stroke-miterlimit="10" fill="none"/><path d="M2697.24 632.76 2660.24 595.76M2660.24 632.76 2697.24 595.76" stroke="#000000" stroke-width="3.4375" stroke-linejoin="round" stroke-miterlimit="10" fill="none"/><path d="M2810.24 652.76 2773.24 615.76M2773.24 652.76 2810.24 615.76" stroke="#000000" stroke-width="3.4375" stroke-linejoin="round" stroke-miterlimit="10" fill="none"/><path d="M2922.24 672.76 2885.24 635.76M2885.24 672.76 2922.24 635.76" stroke="#000000" stroke-width="3.4375" stroke-linejoin="round" stroke-miterlimit="10" fill="none"/><path d="M3035.24 694.76 2998.24 657.76M2998.24 694.76 3035.24 657.76" stroke="#000000" stroke-width="3.4375" stroke-linejoin="round" stroke-miterlimit="10" fill="none"/><path d="M3147.24 718.76 3110.24 681.76M3110.24 718.76 3147.24 681.76" stroke="#000000" stroke-width="3.4375" stroke-linejoin="round" stroke-miterlimit="10" fill="none"/><path d="M3259.24 743.76 3222.24 706.76M3222.24 743.76 3259.24 706.76" stroke="#000000" stroke-width="3.4375" stroke-linejoin="round" stroke-miterlimit="10" fill="none"/><path d="M3372.24 769.76 3335.24 732.76M3335.24 769.76 3372.24 732.76" stroke="#000000" stroke-width="3.4375" stroke-linejoin="round" stroke-miterlimit="10" fill="none"/><path d="M3484.24 796.76 3447.24 759.76M3447.24 796.76 3484.24 759.76" stroke="#000000" stroke-width="3.4375" stroke-linejoin="round" stroke-miterlimit="10" fill="none"/><path d="M3597.24 824.76 3560.24 787.76M3560.24 824.76 3597.24 787.76" stroke="#000000" stroke-width="3.4375" stroke-linejoin="round" stroke-miterlimit="10" fill="none"/><path d="M3709.24 853.76 3672.24 816.76M3672.24 853.76 3709.24 816.76" stroke="#000000" stroke-width="3.4375" stroke-linejoin="round" stroke-miterlimit="10" fill="none"/></g><g clip-path="url(#clip13)"><path d="M2622.5 754.5 2678.59 804.527 2791.59 857.528 2903.6 893.53 3015.6 929.531 3128.6 955.532 3240.61 988.533 3353.61 1014.53 3465.61 1036.53 3578.62 1076.54 3690.5 1108.5" stroke="#000000" stroke-width="3.4375" stroke-linecap="round" stroke-linejoin="round" stroke-miterlimit="10" stroke-dasharray="10.3125 13.75" fill="none"/></g><g clip-path="url(#clip14)"><path d="M2604.74 736.26 2640.74 736.26 2640.74 772.26 2604.74 772.26Z" stroke="#000000" stroke-width="3.4375" stroke-linejoin="round" stroke-miterlimit="10" fill="none"/><path d="M2660.74 786.26 2696.74 786.26 2696.74 822.259 2660.74 822.259Z" stroke="#000000" stroke-width="3.4375" stroke-linejoin="round" stroke-miterlimit="10" fill="none"/><path d="M2773.74 839.26 2809.74 839.26 2809.74 875.26 2773.74 875.26Z" stroke="#000000" stroke-width="3.4375" stroke-linejoin="round" stroke-miterlimit="10" fill="none"/><path d="M2885.74 875.26 2921.74 875.26 2921.74 911.259 2885.74 911.259Z" stroke="#000000" stroke-width="3.4375" stroke-linejoin="round" stroke-miterlimit="10" fill="none"/><path d="M2998.74 911.26 3034.74 911.26 3034.74 947.26 2998.74 947.26Z" stroke="#000000" stroke-width="3.4375" stroke-linejoin="round" stroke-miterlimit="10" fill="none"/><path d="M3110.74 937.26 3146.74 937.26 3146.74 973.26 3110.74 973.26Z" stroke="#000000" stroke-width="3.4375" stroke-linejoin="round" stroke-miterlimit="10" fill="none"/><path d="M3222.74 970.26 3258.74 970.26 3258.74 1006.26 3222.74 1006.26Z" stroke="#000000" stroke-width="3.4375" stroke-linejoin="round" stroke-miterlimit="10" fill="none"/><path d="M3335.74 996.26 3371.74 996.26 3371.74 1032.26 3335.74 1032.26Z" stroke="#000000" stroke-width="3.4375" stroke-linejoin="round" stroke-miterlimit="10" fill="none"/><path d="M3447.74 1018.26 3483.74 1018.26 3483.74 1054.26 3447.74 1054.26Z" stroke="#000000" stroke-width="3.4375" stroke-linejoin="round" stroke-miterlimit="10" fill="none"/><path d="M3560.74 1058.26 3596.74 1058.26 3596.74 1094.26 3560.74 1094.26Z" stroke="#000000" stroke-width="3.4375" stroke-linejoin="round" stroke-miterlimit="10" fill="none"/><path d="M3672.74 1090.26 3708.74 1090.26 3708.74 1126.26 3672.74 1126.26Z" stroke="#000000" stroke-width="3.4375" stroke-linejoin="round" stroke-miterlimit="10" fill="none"/></g><g clip-path="url(#clip15)"><path d="M2622.5 840.5 2678.59 962.532 2791.59 1053.53 2903.6 1131.54 3015.6 1173.54 3128.6 1229.54 3240.61 1260.54 3353.61 1291.54 3465.61 1316.54 3578.62 1335.54 3690.5 1376.5" stroke="#000000" stroke-width="3.4375" stroke-linecap="round" stroke-linejoin="round" stroke-miterlimit="10" fill="none"/></g><g clip-path="url(#clip16)"><path d="M2640.74 840.26C2640.74 850.2 2632.68 858.259 2622.74 858.259 2612.8 858.259 2604.74 850.2 2604.74 840.26 2604.74 830.319 2612.8 822.26 2622.74 822.26 2632.68 822.26 2640.74 830.319 2640.74 840.26Z" stroke="#000000" stroke-width="3.4375" stroke-linejoin="round" stroke-miterlimit="10" fill="none"/><path d="M2696.74 962.26C2696.74 972.201 2688.68 980.259 2678.74 980.259 2668.8 980.259 2660.74 972.201 2660.74 962.26 2660.74 952.319 2668.8 944.26 2678.74 944.26 2688.68 944.26 2696.74 952.319 2696.74 962.26Z" stroke="#000000" stroke-width="3.4375" stroke-linejoin="round" stroke-miterlimit="10" fill="none"/><path d="M2809.74 1053.26C2809.74 1063.2 2801.68 1071.26 2791.74 1071.26 2781.8 1071.26 2773.74 1063.2 2773.74 1053.26 2773.74 1043.32 2781.8 1035.26 2791.74 1035.26 2801.68 1035.26 2809.74 1043.32 2809.74 1053.26Z" stroke="#000000" stroke-width="3.4375" stroke-linejoin="round" stroke-miterlimit="10" fill="none"/><path d="M2921.74 1131.26C2921.74 1141.2 2913.68 1149.26 2903.74 1149.26 2893.8 1149.26 2885.74 1141.2 2885.74 1131.26 2885.74 1121.32 2893.8 1113.26 2903.74 1113.26 2913.68 1113.26 2921.74 1121.32 2921.74 1131.26Z" stroke="#000000" stroke-width="3.4375" stroke-linejoin="round" stroke-miterlimit="10" fill="none"/><path d="M3034.74 1173.26C3034.74 1183.2 3026.68 1191.26 3016.74 1191.26 3006.8 1191.26 2998.74 1183.2 2998.74 1173.26 2998.74 1163.32 3006.8 1155.26 3016.74 1155.26 3026.68 1155.26 3034.74 1163.32 3034.74 1173.26Z" stroke="#000000" stroke-width="3.4375" stroke-linejoin="round" stroke-miterlimit="10" fill="none"/><path d="M3146.74 1229.26C3146.74 1239.2 3138.68 1247.26 3128.74 1247.26 3118.8 1247.26 3110.74 1239.2 3110.74 1229.26 3110.74 1219.32 3118.8 1211.26 3128.74 1211.26 3138.68 1211.26 3146.74 1219.32 3146.74 1229.26Z" stroke="#000000" stroke-width="3.4375" stroke-linejoin="round" stroke-miterlimit="10" fill="none"/><path d="M3258.74 1260.26C3258.74 1270.2 3250.68 1278.26 3240.74 1278.26 3230.8 1278.26 3222.74 1270.2 3222.74 1260.26 3222.74 1250.32 3230.8 1242.26 3240.74 1242.26 3250.68 1242.26 3258.74 1250.32 3258.74 1260.26Z" stroke="#000000" stroke-width="3.4375" stroke-linejoin="round" stroke-miterlimit="10" fill="none"/><path d="M3371.74 1291.26C3371.74 1301.2 3363.68 1309.26 3353.74 1309.26 3343.8 1309.26 3335.74 1301.2 3335.74 1291.26 3335.74 1281.32 3343.8 1273.26 3353.74 1273.26 3363.68 1273.26 3371.74 1281.32 3371.74 1291.26Z" stroke="#000000" stroke-width="3.4375" stroke-linejoin="round" stroke-miterlimit="10" fill="none"/><path d="M3483.74 1316.26C3483.74 1326.2 3475.68 1334.26 3465.74 1334.26 3455.8 1334.26 3447.74 1326.2 3447.74 1316.26 3447.74 1306.32 3455.8 1298.26 3465.74 1298.26 3475.68 1298.26 3483.74 1306.32 3483.74 1316.26Z" stroke="#000000" stroke-width="3.4375" stroke-linejoin="round" stroke-miterlimit="10" fill="none"/><path d="M3596.74 1335.26C3596.74 1345.2 3588.68 1353.26 3578.74 1353.26 3568.8 1353.26 3560.74 1345.2 3560.74 1335.26 3560.74 1325.32 3568.8 1317.26 3578.74 1317.26 3588.68 1317.26 3596.74 1325.32 3596.74 1335.26Z" stroke="#000000" stroke-width="3.4375" stroke-linejoin="round" stroke-miterlimit="10" fill="none"/><path d="M3708.74 1376.26C3708.74 1386.2 3700.68 1394.26 3690.74 1394.26 3680.8 1394.26 3672.74 1386.2 3672.74 1376.26 3672.74 1366.32 3680.8 1358.26 3690.74 1358.26 3700.68 1358.26 3708.74 1366.32 3708.74 1376.26Z" stroke="#000000" stroke-width="3.4375" stroke-linejoin="round" stroke-miterlimit="10" fill="none"/></g><text font-family="Times New Roman,Times New Roman_MSFontService,sans-serif" font-weight="400" font-size="83" transform="matrix(1 0 0 1 2556.56 1523)">0<tspan font-size="83" x="243.115" y="6">0.5</tspan><tspan font-size="83" x="551.368" y="6">1</tspan><tspan font-size="83" x="798.326" y="6">1.5</tspan><tspan font-size="83" x="1106.58" y="5">2</tspan></text><path d="M3135.76 1577.74C3140.08 1577.74 3144.6 1578.45 3149.33 1579.89L3147.62 1588.07 3143.4 1588.07C3142.86 1583.55 3140.21 1581.29 3135.45 1581.29 3132.72 1581.29 3130.49 1582.06 3128.76 1583.6 3127.02 1585.14 3126.15 1587.26 3126.15 1589.95 3126.15 1591.9 3126.92 1593.46 3128.46 1594.63 3130.01 1595.79 3132.13 1596.38 3134.82 1596.38L3141.2 1596.38 3140.17 1601.01 3135.67 1601.01C3133.4 1601.01 3131.53 1601.16 3130.06 1601.45 3128.59 1601.75 3127.21 1602.24 3125.93 1602.91 3124.64 1603.59 3123.63 1604.31 3122.89 1605.07 3122.16 1605.83 3121.61 1606.7 3121.25 1607.65 3120.9 1608.61 3120.72 1609.71 3120.72 1610.93 3120.72 1613.03 3121.43 1614.63 3122.87 1615.74 3124.31 1616.85 3126.38 1617.4 3129.07 1617.4 3131.44 1617.4 3133.72 1617.07 3135.92 1616.39 3138.12 1615.72 3140.62 1614.44 3143.4 1612.55L3145.6 1616.05C3142.49 1618.21 3139.43 1619.77 3136.42 1620.73 3133.41 1621.68 3130.25 1622.16 3126.96 1622.16 3123.96 1622.16 3121.4 1621.66 3119.26 1620.66 3117.11 1619.66 3115.51 1618.32 3114.45 1616.66 3113.39 1615 3112.85 1613.16 3112.85 1611.16 3112.85 1608.07 3114.05 1605.44 3116.45 1603.25 3118.84 1601.07 3122.29 1599.49 3126.78 1598.54L3126.87 1598.09C3121.66 1596.35 3119.05 1593.35 3119.05 1589.1 3119.05 1587.18 3119.65 1585.37 3120.85 1583.64 3122.05 1581.92 3123.93 1580.51 3126.49 1579.4 3129.05 1578.29 3132.14 1577.74 3135.76 1577.74Z" fill-rule="evenodd"/><text fill="#000000" fill-opacity="0" font-family="Arial,Arial_MSFontService,sans-serif" font-size="44.4277" x="3112.85" y="1616.61">ğœ€</text><text font-family="Times New Roman,Times New Roman_MSFontService,sans-serif" font-weight="400" font-size="92" transform="matrix(-1.83697e-16 -1 1 -1.83697e-16 2405.25 1265)">Relative Error</text><text font-family="Times New Roman,Times New Roman_MSFontService,sans-serif" font-weight="400" font-size="83" transform="matrix(1 0 0 1 2470.6 1472)">1<tspan font-size="83" x="-21.1397" y="-125">10</tspan><tspan font-size="83" x="-34.8897" y="-250">10</tspan><tspan font-size="55" x="47.6104" y="-275">2</tspan><tspan font-size="83" x="-34.8897" y="-382">10</tspan><tspan font-size="55" x="47.6104" y="-407">3</tspan><tspan font-size="83" x="-34.8897" y="-503">10</tspan><tspan font-size="55" x="47.6104" y="-528">4</tspan><tspan font-size="83" x="-34.8897" y="-635">10</tspan><tspan font-size="55" x="47.6104" y="-660">5</tspan><tspan font-size="83" x="-34.8897" y="-763">10</tspan><tspan font-size="55" x="47.6104" y="-788">6</tspan><tspan font-size="83" x="-34.8897" y="-895">10</tspan><tspan font-size="55" x="47.6104" y="-920">7</tspan><tspan font-weight="700" font-size="101" x="222.987" y="-979">(b) IMDB (</tspan></text><path d="M3190.94 445.196C3193.01 445.196 3194.65 445.878 3195.85 447.243 3197.05 448.607 3197.65 450.391 3197.65 452.594 3197.65 454.336 3197.25 456.276 3196.47 458.413L3197.06 458.61C3200.28 454.073 3203.34 450.711 3206.25 448.525 3209.16 446.339 3212.16 445.245 3215.25 445.245 3218.31 445.245 3220.66 446.125 3222.31 447.884 3223.95 449.643 3224.77 452.084 3224.77 455.207 3224.77 457.279 3224.3 460.221 3223.34 464.035L3220.14 476.956C3219.25 480.539 3218.81 483.071 3218.81 484.551 3218.81 485.866 3219.02 486.819 3219.45 487.411 3219.87 488.003 3220.55 488.299 3221.47 488.299 3222.45 488.299 3223.51 487.896 3224.62 487.09 3225.74 486.285 3227.32 484.748 3229.36 482.479L3232.17 485.241C3229.34 488.266 3226.88 490.477 3224.77 491.874 3222.67 493.271 3220.27 493.97 3217.57 493.97 3215.44 493.97 3213.73 493.206 3212.44 491.677 3211.16 490.148 3210.52 488.2 3210.52 485.833 3210.52 483.696 3211.06 480.556 3212.15 476.413L3214.32 467.882C3215.11 464.791 3215.62 462.506 3215.87 461.027 3216.12 459.547 3216.24 458.347 3216.24 457.427 3216.24 455.158 3215.86 453.522 3215.11 452.52 3214.35 451.517 3213.12 451.015 3211.41 451.015 3210.03 451.015 3208.54 451.566 3206.94 452.667 3205.35 453.769 3203.66 455.429 3201.87 457.648 3200.07 459.868 3198.64 462.021 3197.55 464.109 3196.47 466.197 3195.58 468.769 3194.89 471.827L3190.2 493.181 3181.67 493.181 3188.87 461.914C3189.59 458.758 3189.96 456.325 3189.96 454.615 3189.96 453.3 3189.74 452.347 3189.31 451.755 3188.89 451.163 3188.21 450.867 3187.29 450.867 3186.27 450.867 3185.2 451.287 3184.06 452.125 3182.93 452.963 3181.37 454.484 3179.4 456.687L3176.59 453.925C3179.62 450.769 3182.13 448.525 3184.14 447.193 3186.14 445.862 3188.41 445.196 3190.94 445.196Z" fill-rule="evenodd"/><text fill="#000000" fill-opacity="0" font-family="Arial,Arial_MSFontService,sans-serif" font-size="48.7739" x="3176.59" y="487.873">ğ‘›</text><path d="M3270.34 471.284 3331.1 471.284 3331.1 477.844 3270.34 477.844ZM3270.34 450.818 3331.1 450.818 3331.1 457.377 3270.34 457.377Z" fill-rule="evenodd"/><text fill="#000000" fill-opacity="0" font-family="Arial,Arial_MSFontService,sans-serif" font-size="27.0254" x="3270.34" y="474.465">=</text><path d="M3450.01 429.267C3447.74 429.267 3445.85 429.941 3444.32 431.289 3442.79 432.637 3441.56 434.577 3440.62 437.108 3439.68 439.64 3439.02 442.722 3438.62 446.355 3438.23 449.988 3438.03 454.089 3438.03 458.659 3438.03 469.378 3439.02 477.243 3441.01 482.257 3443 487.271 3446.08 489.778 3450.26 489.778 3454.24 489.778 3457.19 487.419 3459.11 482.701 3461.04 477.983 3462 470.676 3462 460.78 3462 453.218 3461.5 447.095 3460.52 442.41 3459.53 437.725 3458.16 434.363 3456.4 432.324 3454.64 430.286 3452.51 429.267 3450.01 429.267ZM3450.26 425.075C3457.46 425.075 3462.82 427.853 3466.34 433.409 3469.85 438.966 3471.61 447.366 3471.61 458.61 3471.61 470.249 3469.73 479.052 3465.97 485.019 3462.2 490.986 3456.7 493.97 3449.47 493.97 3442.37 493.97 3437.08 491.175 3433.62 485.586 3430.15 479.997 3428.41 471.515 3428.41 460.139 3428.41 454.089 3428.95 448.862 3430.02 444.456 3431.08 440.051 3432.58 436.41 3434.5 433.533 3436.43 430.656 3438.74 428.527 3441.43 427.146 3444.13 425.765 3447.07 425.075 3450.26 425.075ZM3397.91 425.075 3400.62 425.075C3400.42 428.231 3400.33 432.604 3400.33 438.193L3400.33 480.309C3400.33 482.216 3400.43 483.655 3400.65 484.625 3400.86 485.594 3401.24 486.383 3401.78 486.992 3402.32 487.6 3403.1 488.077 3404.12 488.422 3405.14 488.767 3406.42 489.03 3407.97 489.211 3409.51 489.392 3411.55 489.515 3414.08 489.581L3414.08 493.181 3377.64 493.181 3377.64 489.581C3381.29 489.416 3383.9 489.194 3385.46 488.915 3387.02 488.636 3388.21 488.216 3389.03 487.657 3389.85 487.099 3390.45 486.309 3390.83 485.29 3391.21 484.271 3391.4 482.611 3391.4 480.309L3391.4 440.314C3391.4 438.999 3391.17 438.037 3390.71 437.429 3390.25 436.82 3389.57 436.516 3388.69 436.516 3387.64 436.516 3386.14 437.059 3384.2 438.144 3382.26 439.229 3379.86 440.725 3377 442.632L3374.83 438.834Z" fill-rule="evenodd"/><text fill="#000000" fill-opacity="0" font-family="Arial,Arial_MSFontService,sans-serif" font-size="68.895" x="3374.83" y="485.358">10</text><path d="M3500.47 418.431C3498.15 421.779 3495.85 425.104 3493.55 428.404 3491.25 431.704 3488.93 435.016 3486.59 438.34L3486.59 438.774 3500.47 438.774 3500.47 431.511C3500.47 430.692 3500.48 429.68 3500.5 428.476 3500.53 427.272 3500.56 426.049 3500.59 424.809 3500.63 423.568 3500.67 422.388 3500.72 421.268 3500.77 420.147 3500.82 419.202 3500.86 418.431ZM3501.51 409.976 3507.26 409.976 3507.26 438.774 3507.91 438.774C3508.9 438.774 3509.7 438.726 3510.31 438.629 3510.93 438.533 3511.42 438.334 3511.79 438.033 3512.17 437.732 3512.48 437.31 3512.73 436.768 3512.99 436.227 3513.26 435.522 3513.55 434.655L3516.62 434.655C3516.55 435.98 3516.47 437.292 3516.38 438.593 3516.3 439.894 3516.22 441.219 3516.15 442.568L3507.26 442.568 3507.26 447.301C3507.26 448.698 3507.29 449.782 3507.35 450.553 3507.41 451.324 3507.59 451.926 3507.89 452.36 3508.19 452.793 3508.64 453.119 3509.23 453.335 3509.82 453.552 3510.64 453.805 3511.7 454.094L3511.7 456.262 3496.09 456.262 3496.09 454.094C3496.82 453.901 3497.43 453.727 3497.94 453.57 3498.44 453.414 3498.86 453.233 3499.2 453.028 3499.54 452.824 3499.79 452.583 3499.94 452.306 3500.1 452.029 3500.22 451.679 3500.3 451.258 3500.39 450.836 3500.44 450.306 3500.45 449.668 3500.46 449.03 3500.47 448.241 3500.47 447.301L3500.47 442.568 3480.12 442.568 3480.12 439.713C3483.71 434.727 3487.28 429.771 3490.82 424.845 3494.36 419.919 3497.92 414.962 3501.51 409.976Z" fill-rule="evenodd"/><text fill="#000000" fill-opacity="0" font-family="Arial,Arial_MSFontService,sans-serif" font-size="46.2861" x="3480.12" y="450.476">4</text><text font-family="Times New Roman,Times New Roman_MSFontService,sans-serif" font-weight="700" font-size="101" transform="matrix(1 0 0 1 3523.79 493)">)</text><path d="M2694.04 501.175 2910.04 501.175 3126.04 501.175 3342.04 501.175 3558.04 501.175 3558.04 506.175 3342.04 506.175 3126.04 506.175 2910.04 506.175 2694.04 506.175Z" fill-rule="evenodd"/></g></svg>