<svg width="2820" height="1327" xmlns="http://www.w3.org/2000/svg" xmlns:xlink="http://www.w3.org/1999/xlink" overflow="hidden"><defs><clipPath id="clip0"><rect x="893" y="341" width="2820" height="1327"/></clipPath><clipPath id="clip1"><rect x="1147" y="502" width="1182" height="990"/></clipPath><clipPath id="clip2"><rect x="1178" y="553" width="1118" height="887"/></clipPath><clipPath id="clip3"><rect x="1178" y="553" width="1118" height="887"/></clipPath><clipPath id="clip4"><rect x="1178" y="553" width="1118" height="887"/></clipPath><clipPath id="clip5"><rect x="1178" y="553" width="1118" height="887"/></clipPath><clipPath id="clip6"><rect x="1178" y="553" width="1118" height="887"/></clipPath><clipPath id="clip7"><rect x="1178" y="553" width="1118" height="887"/></clipPath><clipPath id="clip8"><rect x="1178" y="553" width="1118" height="887"/></clipPath><clipPath id="clip9"><rect x="1178" y="553" width="1118" height="887"/></clipPath><clipPath id="clip10"><rect x="2537" y="495" width="1176" height="990"/></clipPath><clipPath id="clip11"><rect x="2559" y="546" width="1121" height="896"/></clipPath><clipPath id="clip12"><rect x="2559" y="546" width="1121" height="896"/></clipPath><clipPath id="clip13"><rect x="2559" y="546" width="1121" height="896"/></clipPath><clipPath id="clip14"><rect x="2559" y="546" width="1121" height="896"/></clipPath><clipPath id="clip15"><rect x="2559" y="546" width="1121" height="896"/></clipPath><clipPath id="clip16"><rect x="2559" y="546" width="1121" height="896"/></clipPath><clipPath id="clip17"><rect x="2559" y="546" width="1121" height="896"/></clipPath></defs><g clip-path="url(#clip0)" transform="translate(-893 -341)"><g clip-path="url(#clip1)"><path d="M1178.5 1436.5 2293.5 1436.5M1178.5 1310.54 2293.5 1310.54M1178.5 1184.54 2293.5 1184.54M1178.5 1057.53 2293.5 1057.53M1178.5 931.531 2293.5 931.531M1178.5 805.527 2293.5 805.527M1178.5 679.522 2293.5 679.522M1178.5 553.5 2293.5 553.5" stroke="#D9D9D9" stroke-width="3.4375" stroke-linejoin="round" stroke-miterlimit="10" fill="none"/></g><g clip-path="url(#clip2)"><rect x="1209.5" y="599.5" width="61.9999" height="837" stroke="#000000" stroke-width="3.4375" stroke-linejoin="round" stroke-miterlimit="10"/></g><g clip-path="url(#clip3)"><rect x="1333.5" y="1114.5" width="62.0002" height="322" stroke="#FF0000" stroke-width="3.4375" stroke-linejoin="round" stroke-miterlimit="10" fill="#FF0000"/></g><g clip-path="url(#clip4)"><rect x="1457.5" y="1115.5" width="61.9999" height="321" stroke="#4472C4" stroke-width="3.4375" stroke-linejoin="round" stroke-miterlimit="10" fill="#4472C4"/></g><g clip-path="url(#clip5)"><rect x="1581.5" y="1096.5" width="61.9999" height="340" stroke="#006600" stroke-width="3.4375" stroke-linejoin="round" stroke-miterlimit="10" fill="#006600"/></g><g clip-path="url(#clip6)"><rect x="1828.5" y="871.5" width="62.0002" height="565" stroke="#000000" stroke-width="3.4375" stroke-linejoin="round" stroke-miterlimit="10"/></g><g clip-path="url(#clip7)"><rect x="1952.5" y="1324.5" width="61.9999" height="112" stroke="#FF0000" stroke-width="3.4375" stroke-linejoin="round" stroke-miterlimit="10" fill="#FF0000"/></g><g clip-path="url(#clip8)"><rect x="2076.5" y="1384.5" width="61.9998" height="51.9999" stroke="#4472C4" stroke-width="3.4375" stroke-linejoin="round" stroke-miterlimit="10" fill="#4472C4"/></g><g clip-path="url(#clip9)"><rect x="2200.5" y="1386.5" width="62.0002" height="50.0002" stroke="#006600" stroke-width="3.4375" stroke-linejoin="round" stroke-miterlimit="10" fill="#006600"/></g><text font-family="Times New Roman,Times New Roman_MSFontService,sans-serif" font-weight="400" font-size="92" transform="matrix(-1.83697e-16 -1 1 -1.83697e-16 1010.11 1265)">Relative Error</text><text font-family="Times New Roman,Times New Roman_MSFontService,sans-serif" font-weight="400" font-size="83" transform="matrix(1 0 0 1 1035.63 1468)">10<tspan font-size="55" x="82.5" y="-25">-</tspan><tspan font-size="55" x="100.833" y="-25">2</tspan><tspan font-size="83" x="0" y="-127">10</tspan><tspan font-size="55" x="82.5" y="-152">-</tspan><tspan font-size="55" x="100.833" y="-152">1</tspan><tspan font-size="83" x="39.8284" y="-253">1</tspan><tspan font-size="83" x="18.6888" y="-378">10</tspan><tspan font-size="83" x="4.93884" y="-502">10</tspan><tspan font-size="55" x="87.4389" y="-527">2</tspan><tspan font-size="83" x="4.93884" y="-634">10</tspan><tspan font-size="55" x="87.4389" y="-659">3</tspan><tspan font-size="83" x="4.93884" y="-755">10</tspan><tspan font-size="55" x="87.4389" y="-780">4</tspan><tspan font-size="83" x="4.93884" y="-887">10</tspan><tspan font-size="55" x="87.4389" y="-912">5</tspan></text><path d="M1452.24 1582 1459.79 1582 1454.27 1606.49C1453.82 1608.46 1453.46 1610.18 1453.21 1611.63 1452.96 1613.08 1452.83 1614.41 1452.83 1615.61 1452.83 1617.16 1453.24 1618.35 1454.06 1619.15 1454.89 1619.96 1456.06 1620.37 1457.59 1620.37 1459.36 1620.37 1461.28 1619.42 1463.36 1617.54 1465.44 1615.65 1467.31 1613.28 1468.96 1610.44 1470.6 1607.59 1471.67 1605.08 1472.14 1602.89L1476.59 1582 1484.36 1582 1477.98 1610.44C1477.3 1613.52 1476.95 1615.74 1476.95 1617.09 1476.95 1618.29 1477.15 1619.15 1477.54 1619.69 1477.92 1620.23 1478.54 1620.5 1479.38 1620.5 1480.07 1620.5 1480.9 1620.23 1481.87 1619.69 1482.84 1619.15 1483.93 1618.21 1485.13 1616.86L1487.64 1619.38C1485.97 1621.03 1484.48 1622.3 1483.17 1623.2 1481.87 1624.1 1480.68 1624.73 1479.6 1625.11 1478.52 1625.48 1477.36 1625.67 1476.1 1625.67 1474.15 1625.67 1472.64 1625.09 1471.56 1623.94 1470.48 1622.79 1469.94 1621.18 1469.94 1619.11 1469.94 1617.43 1470.33 1615.64 1471.11 1613.72L1470.62 1613.45C1467.83 1617.58 1465.26 1620.58 1462.89 1622.46 1460.52 1624.33 1458.08 1625.26 1455.57 1625.26 1454.31 1625.26 1453.17 1625.06 1452.13 1624.66 1451.1 1624.25 1450.03 1623.48 1448.92 1622.34 1448.56 1624.14 1448.24 1626.56 1447.95 1629.6 1447.67 1632.64 1447.53 1635.37 1447.53 1637.8 1447.53 1638.7 1447.56 1639.41 1447.62 1639.95L1446.99 1642.96 1441.15 1642.96 1438.95 1640.27C1440.3 1635.3 1441.55 1630.19 1442.72 1624.95Z" fill-rule="evenodd"/><text fill="#000000" fill-opacity="0" font-family="Arial,Arial_MSFontService,sans-serif" font-size="60.959" x="1438.95" y="1635.34">𝜇</text><path d="M1498.93 1601.22 1529.78 1601.22 1527.46 1611.42 1523.96 1611.42C1523.85 1610.23 1523.74 1609.2 1523.63 1608.35 1523.52 1607.5 1523.32 1606.8 1523.04 1606.26 1522.76 1605.71 1522.35 1605.32 1521.83 1605.08 1521.31 1604.84 1520.59 1604.71 1519.67 1604.69L1508.97 1604.69 1505.37 1620.62 1511.82 1620.62C1512.58 1620.62 1513.22 1620.57 1513.72 1620.47 1514.22 1620.37 1514.68 1620.14 1515.09 1619.78 1515.51 1619.42 1515.91 1618.91 1516.32 1618.25 1516.72 1617.58 1517.22 1616.69 1517.81 1615.58L1521.08 1615.58 1517.94 1629.16 1514.76 1629.16C1514.76 1627.98 1514.73 1627.05 1514.67 1626.36 1514.6 1625.67 1514.46 1625.15 1514.24 1624.81 1514.02 1624.46 1513.7 1624.24 1513.26 1624.15 1512.82 1624.06 1512.23 1624.02 1511.49 1624.02L1504.62 1624.02C1504.34 1625.29 1504.02 1626.66 1503.67 1628.16 1503.32 1629.65 1503 1631.11 1502.69 1632.53 1502.39 1633.94 1502.13 1635.24 1501.92 1636.4 1501.72 1637.57 1501.61 1638.44 1501.61 1639 1501.61 1639.44 1501.67 1639.82 1501.79 1640.13 1501.91 1640.45 1502.11 1640.72 1502.38 1640.93 1502.65 1641.15 1503.04 1641.32 1503.54 1641.42 1504.04 1641.53 1504.69 1641.61 1505.47 1641.65L1505.01 1643.65 1490.85 1643.65 1491.21 1641.65C1491.89 1641.54 1492.44 1641.41 1492.88 1641.24 1493.31 1641.08 1493.7 1640.76 1494.04 1640.3 1494.38 1639.83 1494.68 1639.12 1494.96 1638.19 1495.23 1637.25 1495.55 1635.94 1495.92 1634.26L1501.29 1610.41C1501.5 1609.45 1501.67 1608.6 1501.78 1607.86 1501.89 1607.12 1501.94 1606.51 1501.94 1606.03 1501.94 1605.05 1501.69 1604.35 1501.2 1603.93 1500.71 1603.52 1499.79 1603.3 1498.44 1603.28Z" fill-rule="evenodd"/><text fill="#000000" fill-opacity="0" font-family="Arial,Arial_MSFontService,sans-serif" font-size="42.4312" x="1490.85" y="1638.34">𝐹</text><path d="M1571.87 1560.04 1573.09 1563.5C1566.08 1565.8 1560.89 1570.3 1557.52 1576.99 1554.15 1583.69 1552.47 1592.1 1552.47 1602.22 1552.47 1612.7 1554.15 1621.34 1557.52 1628.14 1560.89 1634.94 1566.03 1639.49 1572.95 1641.79L1571.87 1645.25C1563.1 1642.95 1556.37 1637.98 1551.7 1630.36 1547.03 1622.74 1544.69 1613.51 1544.69 1602.67 1544.69 1591.86 1547.04 1582.63 1551.73 1574.97 1556.41 1567.32 1563.13 1562.34 1571.87 1560.04Z" fill-rule="evenodd"/><text fill="#000000" fill-opacity="0" font-family="Arial,Arial_MSFontService,sans-serif" font-size="85.2168" x="1544.69" y="1634.6">(</text><path d="M1581.11 1605 1636.46 1605 1636.46 1610.98 1581.11 1610.98ZM1581.11 1586.36 1636.46 1586.36 1636.46 1592.34 1581.11 1592.34Z" fill-rule="evenodd"/><text fill="#000000" fill-opacity="0" font-family="Arial,Arial_MSFontService,sans-serif" font-size="24.6172" x="1581.11" y="1607.9">=</text><path d="M1682.6 1582 1690.15 1582 1684.62 1606.49C1684.17 1608.46 1683.82 1610.18 1683.57 1611.63 1683.31 1613.08 1683.19 1614.41 1683.19 1615.61 1683.19 1617.16 1683.6 1618.35 1684.42 1619.15 1685.25 1619.96 1686.42 1620.37 1687.95 1620.37 1689.72 1620.37 1691.64 1619.42 1693.72 1617.54 1695.8 1615.65 1697.67 1613.28 1699.31 1610.44 1700.96 1607.59 1702.02 1605.08 1702.5 1602.89L1706.95 1582 1714.72 1582 1708.34 1610.44C1707.65 1613.52 1707.31 1615.74 1707.31 1617.09 1707.31 1618.29 1707.5 1619.15 1707.89 1619.69 1708.28 1620.23 1708.9 1620.5 1709.74 1620.5 1710.42 1620.5 1711.26 1620.23 1712.23 1619.69 1713.2 1619.15 1714.29 1618.21 1715.49 1616.86L1718 1619.38C1716.32 1621.03 1714.83 1622.3 1713.53 1623.2 1712.23 1624.1 1711.04 1624.73 1709.96 1625.11 1708.88 1625.48 1707.71 1625.67 1706.46 1625.67 1704.51 1625.67 1703 1625.09 1701.92 1623.94 1700.84 1622.79 1700.3 1621.18 1700.3 1619.11 1700.3 1617.43 1700.69 1615.64 1701.47 1613.72L1700.98 1613.45C1698.19 1617.58 1695.61 1620.58 1693.25 1622.46 1690.88 1624.33 1688.44 1625.26 1685.93 1625.26 1684.67 1625.26 1683.52 1625.06 1682.49 1624.66 1681.46 1624.25 1680.39 1623.48 1679.28 1622.34 1678.92 1624.14 1678.6 1626.56 1678.31 1629.6 1678.03 1632.64 1677.89 1635.37 1677.89 1637.8 1677.89 1638.7 1677.92 1639.41 1677.98 1639.95L1677.35 1642.96 1671.51 1642.96 1669.31 1640.27C1670.65 1635.3 1671.91 1630.19 1673.08 1624.95Z" fill-rule="evenodd"/><text fill="#000000" fill-opacity="0" font-family="Arial,Arial_MSFontService,sans-serif" font-size="60.959" x="1669.31" y="1635.34">𝜇</text><path d="M1746.89 1606.02C1744.93 1606.02 1743.15 1606.48 1741.57 1607.39 1739.99 1608.31 1738.59 1609.53 1737.37 1611.06 1736.15 1612.58 1735.1 1614.32 1734.21 1616.27 1733.33 1618.23 1732.6 1620.22 1732.02 1622.26 1731.44 1624.3 1731.02 1626.3 1730.76 1628.26 1730.5 1630.23 1730.37 1632.01 1730.37 1633.6 1730.37 1636.76 1730.99 1639.12 1732.25 1640.68 1733.5 1642.24 1735.42 1643.02 1737.99 1643.02 1739.82 1643.02 1741.5 1642.59 1743.03 1641.73 1744.56 1640.87 1745.93 1639.71 1747.15 1638.26 1748.37 1636.81 1749.44 1635.14 1750.36 1633.25 1751.27 1631.37 1752.04 1629.4 1752.65 1627.36 1753.26 1625.33 1753.72 1623.28 1754.04 1621.23 1754.35 1619.18 1754.51 1617.28 1754.51 1615.54 1754.51 1612.44 1753.88 1610.08 1752.61 1608.46 1751.35 1606.83 1749.44 1606.02 1746.89 1606.02ZM1747.09 1602.68C1749.4 1602.68 1751.44 1603.03 1753.2 1603.71 1754.97 1604.4 1756.44 1605.36 1757.62 1606.61 1758.8 1607.85 1759.69 1609.35 1760.29 1611.11 1760.89 1612.86 1761.19 1614.83 1761.19 1617.01 1761.19 1618.76 1761.01 1620.69 1760.66 1622.82 1760.31 1624.94 1759.76 1627.1 1759.01 1629.28 1758.26 1631.46 1757.27 1633.58 1756.03 1635.64 1754.8 1637.7 1753.32 1639.53 1751.6 1641.14 1749.88 1642.74 1747.87 1644.03 1745.58 1645 1743.29 1645.97 1740.68 1646.45 1737.76 1646.45 1735.56 1646.45 1733.58 1646.14 1731.84 1645.51 1730.1 1644.87 1728.61 1643.95 1727.39 1642.72 1726.17 1641.5 1725.23 1640 1724.58 1638.21 1723.92 1636.42 1723.6 1634.39 1723.6 1632.12 1723.6 1630.23 1723.78 1628.19 1724.15 1626.01 1724.52 1623.83 1725.1 1621.65 1725.89 1619.46 1726.67 1617.28 1727.69 1615.18 1728.93 1613.17 1730.17 1611.15 1731.67 1609.37 1733.41 1607.82 1735.16 1606.27 1737.16 1605.03 1739.43 1604.09 1741.7 1603.15 1744.25 1602.68 1747.09 1602.68Z" fill-rule="evenodd"/><text fill="#000000" fill-opacity="0" font-family="Arial,Arial_MSFontService,sans-serif" font-size="43.7725" x="1723.6" y="1640.98">𝑂</text><path d="M1741.03 1546.95C1743.3 1546.95 1745.24 1547.2 1746.84 1547.72 1748.44 1548.23 1749.74 1548.92 1750.75 1549.79 1751.75 1550.67 1752.48 1551.71 1752.92 1552.93 1753.37 1554.16 1753.59 1555.48 1753.59 1556.89 1753.59 1557.74 1753.53 1558.53 1753.41 1559.26 1753.29 1560 1753.09 1560.72 1752.79 1561.42 1752.5 1562.13 1752.11 1562.85 1751.63 1563.57 1751.15 1564.29 1750.55 1565.05 1749.83 1565.86 1749.29 1566.55 1748.58 1567.36 1747.71 1568.28 1746.83 1569.19 1745.88 1570.18 1744.84 1571.22 1743.81 1572.27 1742.72 1573.36 1741.59 1574.49 1740.45 1575.63 1739.35 1576.75 1738.28 1577.86 1737.21 1578.98 1736.23 1580.06 1735.34 1581.1 1734.44 1582.15 1733.71 1583.11 1733.15 1583.98L1745.25 1583.98C1746.28 1583.98 1747.09 1583.94 1747.71 1583.87 1748.32 1583.79 1748.82 1583.62 1749.23 1583.36 1749.63 1583.1 1749.97 1582.7 1750.26 1582.17 1750.54 1581.63 1750.87 1580.89 1751.24 1579.96L1754.28 1579.96C1754.17 1581.51 1754.07 1583.06 1753.97 1584.64 1753.87 1586.21 1753.77 1587.77 1753.66 1589.31L1725.95 1589.31 1725.95 1587.61C1726.47 1586.43 1727.08 1585.27 1727.78 1584.13 1728.48 1582.98 1729.26 1581.82 1730.14 1580.64 1731.01 1579.47 1732 1578.25 1733.11 1577 1734.23 1575.74 1735.46 1574.44 1736.81 1573.09 1738.86 1571.04 1740.53 1569.29 1741.82 1567.84 1743.1 1566.39 1744.12 1565.09 1744.86 1563.96 1745.6 1562.83 1746.11 1561.78 1746.38 1560.82 1746.65 1559.86 1746.79 1558.83 1746.79 1557.74 1746.79 1556.63 1746.63 1555.61 1746.31 1554.67 1746 1553.73 1745.55 1552.93 1744.96 1552.28 1744.37 1551.63 1743.62 1551.11 1742.72 1550.74 1741.81 1550.37 1740.77 1550.19 1739.59 1550.19 1737.56 1550.19 1735.86 1550.74 1734.49 1551.84 1733.11 1552.94 1732.05 1554.54 1731.28 1556.63L1727 1556.63 1727 1550.25C1729.79 1549.1 1732.36 1548.26 1734.7 1547.73 1737.05 1547.21 1739.16 1546.95 1741.03 1546.95Z" fill-rule="evenodd"/><text fill="#000000" fill-opacity="0" font-family="Arial,Arial_MSFontService,sans-serif" font-size="42.3657" x="1725.95" y="1584.02">2</text><path d="M1803.04 1605 1858.38 1605 1858.38 1610.98 1803.04 1610.98ZM1803.04 1586.36 1858.38 1586.36 1858.38 1592.34 1803.04 1592.34Z" fill-rule="evenodd"/><text fill="#000000" fill-opacity="0" font-family="Arial,Arial_MSFontService,sans-serif" font-size="24.6172" x="1803.04" y="1607.9">=</text><path d="M1904.53 1582 1912.07 1582 1906.55 1606.49C1906.1 1608.46 1905.75 1610.18 1905.49 1611.63 1905.24 1613.08 1905.11 1614.41 1905.11 1615.61 1905.11 1617.16 1905.52 1618.35 1906.35 1619.15 1907.17 1619.96 1908.35 1620.37 1909.87 1620.37 1911.64 1620.37 1913.56 1619.42 1915.65 1617.54 1917.73 1615.65 1919.59 1613.28 1921.24 1610.44 1922.89 1607.59 1923.95 1605.08 1924.43 1602.89L1928.88 1582 1936.65 1582 1930.27 1610.44C1929.58 1613.52 1929.23 1615.74 1929.23 1617.09 1929.23 1618.29 1929.43 1619.15 1929.82 1619.69 1930.21 1620.23 1930.82 1620.5 1931.66 1620.5 1932.35 1620.5 1933.18 1620.23 1934.15 1619.69 1935.13 1619.15 1936.21 1618.21 1937.41 1616.86L1939.93 1619.38C1938.25 1621.03 1936.76 1622.3 1935.46 1623.2 1934.15 1624.1 1932.96 1624.73 1931.89 1625.11 1930.81 1625.48 1929.64 1625.67 1928.38 1625.67 1926.43 1625.67 1924.92 1625.09 1923.84 1623.94 1922.77 1622.79 1922.23 1621.18 1922.23 1619.11 1922.23 1617.43 1922.62 1615.64 1923.39 1613.72L1922.9 1613.45C1920.12 1617.58 1917.54 1620.58 1915.17 1622.46 1912.81 1624.33 1910.37 1625.26 1907.85 1625.26 1906.59 1625.26 1905.45 1625.06 1904.42 1624.66 1903.38 1624.25 1902.31 1623.48 1901.2 1622.34 1900.84 1624.14 1900.52 1626.56 1900.24 1629.6 1899.95 1632.64 1899.81 1635.37 1899.81 1637.8 1899.81 1638.7 1899.84 1639.41 1899.9 1639.95L1899.27 1642.96 1893.43 1642.96 1891.23 1640.27C1892.58 1635.3 1893.84 1630.19 1895 1624.95Z" fill-rule="evenodd"/><text fill="#000000" fill-opacity="0" font-family="Arial,Arial_MSFontService,sans-serif" font-size="60.959" x="1891.23" y="1635.34">𝜇</text><path d="M1948.86 1603.28 1984.56 1603.28 1981.91 1614.83 1978.47 1614.83 1978.47 1612.96C1978.47 1612.61 1978.45 1612.22 1978.42 1611.77 1978.39 1611.32 1978.34 1610.88 1978.27 1610.43 1978.21 1609.98 1978.13 1609.57 1978.05 1609.19 1977.96 1608.8 1977.86 1608.49 1977.75 1608.25 1977.6 1607.95 1977.44 1607.7 1977.28 1607.5 1977.11 1607.3 1976.91 1607.15 1976.65 1607.04 1976.4 1606.93 1976.1 1606.86 1975.76 1606.81 1975.41 1606.77 1974.96 1606.75 1974.41 1606.75L1969.15 1606.75 1962.41 1636.58C1962.17 1637.59 1962 1638.44 1961.9 1639.15 1961.8 1639.86 1961.75 1640.5 1961.75 1641.07 1961.77 1641.5 1961.84 1641.88 1961.95 1642.19 1962.06 1642.51 1962.25 1642.78 1962.54 1643 1962.82 1643.21 1963.2 1643.38 1963.68 1643.49 1964.16 1643.6 1964.78 1643.67 1965.55 1643.72L1965.09 1645.71 1950.63 1645.71 1951.06 1643.72C1951.6 1643.58 1952.07 1643.47 1952.46 1643.37 1952.85 1643.27 1953.19 1643.14 1953.48 1642.98 1953.76 1642.82 1954.01 1642.59 1954.21 1642.31 1954.42 1642.03 1954.62 1641.64 1954.82 1641.15 1955.01 1640.66 1955.21 1640.02 1955.41 1639.23 1955.6 1638.45 1955.83 1637.48 1956.09 1636.32L1962.7 1606.75 1958.19 1606.75C1957.47 1606.75 1956.86 1606.77 1956.36 1606.81 1955.85 1606.86 1955.4 1606.97 1954.98 1607.16 1954.57 1607.34 1954.18 1607.6 1953.82 1607.93 1953.46 1608.25 1953.09 1608.7 1952.71 1609.27 1952.33 1609.83 1951.91 1610.53 1951.46 1611.36 1951.02 1612.19 1950.5 1613.18 1949.91 1614.34L1946.41 1614.34Z" fill-rule="evenodd"/><text fill="#000000" fill-opacity="0" font-family="Arial,Arial_MSFontService,sans-serif" font-size="42.4312" x="1946.41" y="1640.41">𝑇</text><path d="M1962.89 1546.97C1964.64 1546.97 1966.27 1547.16 1967.78 1547.53 1969.3 1547.9 1970.61 1548.46 1971.72 1549.21 1972.84 1549.96 1973.7 1550.9 1974.32 1552.03 1974.95 1553.15 1975.26 1554.45 1975.26 1555.93 1975.26 1557.33 1975.06 1558.56 1974.67 1559.63 1974.28 1560.7 1973.67 1561.67 1972.85 1562.54 1972.03 1563.42 1971.03 1564.21 1969.84 1564.91 1968.65 1565.62 1967.29 1566.31 1965.74 1566.96L1965.74 1567.35C1967.2 1567.61 1968.56 1568.03 1969.83 1568.61 1971.09 1569.19 1972.2 1569.92 1973.15 1570.8 1974.1 1571.69 1974.84 1572.71 1975.39 1573.86 1975.93 1575.02 1976.21 1576.29 1976.21 1577.69 1976.21 1579.43 1975.88 1581.05 1975.22 1582.55 1974.57 1584.04 1973.59 1585.33 1972.28 1586.42 1970.97 1587.52 1969.36 1588.37 1967.44 1588.98 1965.52 1589.59 1963.27 1589.89 1960.7 1589.89 1958.67 1589.89 1956.61 1589.69 1954.52 1589.29 1952.42 1588.88 1950.44 1588.35 1948.56 1587.7L1948.56 1580.63 1952.78 1580.63C1953.13 1581.72 1953.55 1582.66 1954.03 1583.43 1954.51 1584.21 1955.07 1584.84 1955.71 1585.33 1956.35 1585.82 1957.09 1586.17 1957.93 1586.39 1958.77 1586.61 1959.73 1586.72 1960.8 1586.72 1963.61 1586.72 1965.74 1586.05 1967.19 1584.71 1968.64 1583.37 1969.37 1581.33 1969.37 1578.61 1969.37 1575.71 1968.41 1573.51 1966.51 1572.01 1964.6 1570.52 1961.77 1569.77 1958.02 1569.77L1955.14 1569.77 1955.14 1566.63C1957.43 1566.52 1959.41 1566.2 1961.08 1565.67 1962.74 1565.13 1964.13 1564.44 1965.25 1563.59 1966.36 1562.74 1967.19 1561.75 1967.73 1560.61 1968.28 1559.48 1968.55 1558.27 1968.55 1556.98 1968.55 1554.89 1967.93 1553.24 1966.69 1552.03 1965.44 1550.81 1963.64 1550.21 1961.29 1550.21 1959.3 1550.21 1957.64 1550.75 1956.3 1551.85 1954.96 1552.94 1953.93 1554.56 1953.21 1556.72L1949.05 1556.72 1949.05 1550.27C1951.63 1549.18 1954.05 1548.36 1956.33 1547.8 1958.61 1547.25 1960.8 1546.97 1962.89 1546.97Z" fill-rule="evenodd"/><text fill="#000000" fill-opacity="0" font-family="Arial,Arial_MSFontService,sans-serif" font-size="42.9219" x="1948.56" y="1584.53">3</text><path d="M1994.24 1560.04C2002.99 1562.34 2009.7 1567.32 2014.39 1574.97 2019.08 1582.63 2021.42 1591.86 2021.42 1602.67 2021.42 1613.51 2019.08 1622.74 2014.41 1630.36 2009.74 1637.98 2003.02 1642.95 1994.24 1645.25L1993.16 1641.79C2000.08 1639.49 2005.22 1634.94 2008.59 1628.14 2011.96 1621.34 2013.65 1612.7 2013.65 1602.22 2013.65 1592.1 2011.97 1583.69 2008.62 1576.99 2005.26 1570.3 2000.07 1565.8 1993.03 1563.5Z" fill-rule="evenodd"/><text fill="#000000" fill-opacity="0" font-family="Arial,Arial_MSFontService,sans-serif" font-size="85.2168" x="1993.03" y="1634.6">)</text><text font-family="Times New Roman,Times New Roman_MSFontService,sans-serif" font-weight="400" font-size="83" transform="matrix(1 0 0 1 1361.54 1537)">10<tspan font-size="55" x="82.5" y="-25">-</tspan><tspan font-size="55" x="100.833" y="-25">6</tspan><tspan font-size="83" x="620.295" y="-1">10</tspan><tspan font-size="55" x="702.795" y="-26">-</tspan><tspan font-size="55" x="721.128" y="-26">3</tspan></text><g clip-path="url(#clip10)"><path d="M2559.5 1439.5 3677.5 1439.5M2559.5 1340.54 3677.5 1340.54M2559.5 1240.54 3677.5 1240.54M2559.5 1141.54 3677.5 1141.54M2559.5 1042.53 3677.5 1042.53M2559.5 943.531 3677.5 943.531M2559.5 843.528 3677.5 843.528M2559.5 744.525 3677.5 744.525M2559.5 645.521 3677.5 645.521M2559.5 546.5 3677.5 546.5" stroke="#D9D9D9" stroke-width="3.4375" stroke-linejoin="round" stroke-miterlimit="10" fill="none"/></g><g clip-path="url(#clip11)"><rect x="2590.5" y="553.5" width="61.9998" height="886" stroke="#000000" stroke-width="3.4375" stroke-linejoin="round" stroke-miterlimit="10"/></g><g clip-path="url(#clip12)"><rect x="2714.5" y="1227.5" width="61.9998" height="212" stroke="#FF0000" stroke-width="3.4375" stroke-linejoin="round" stroke-miterlimit="10" fill="#FF0000"/></g><g clip-path="url(#clip13)"><rect x="2962.5" y="1199.5" width="63" height="240" stroke="#006600" stroke-width="3.4375" stroke-linejoin="round" stroke-miterlimit="10" fill="#006600"/></g><g clip-path="url(#clip14)"><rect x="3211.5" y="908.5" width="61.9998" height="531" stroke="#000000" stroke-width="3.4375" stroke-linejoin="round" stroke-miterlimit="10"/></g><g clip-path="url(#clip15)"><rect x="3335.5" y="1390.5" width="62.0002" height="49.0001" stroke="#FF0000" stroke-width="3.4375" stroke-linejoin="round" stroke-miterlimit="10" fill="#FF0000"/></g><g clip-path="url(#clip16)"><rect x="3583.5" y="1412.5" width="63" height="27.0001" stroke="#006600" stroke-width="3.4375" stroke-linejoin="round" stroke-miterlimit="10" fill="#006600"/></g><g clip-path="url(#clip17)"><path d="M2839.09 1215.04 2901.09 1215.04 2901.09 1439 2839.09 1439ZM3460.11 1432.05 3522.12 1432.05 3522.12 1439 3460.11 1439Z" fill="#4472C4"/></g><text font-family="Times New Roman,Times New Roman_MSFontService,sans-serif" font-weight="400" font-size="92" transform="matrix(-1.83697e-16 -1 1 -1.83697e-16 2405.25 1265)">Relative Error</text><text font-family="Times New Roman,Times New Roman_MSFontService,sans-serif" font-weight="400" font-size="83" transform="matrix(1 0 0 1 2470.6 1270)">1<tspan font-size="83" x="-21.1397" y="-95">10</tspan><tspan font-size="83" x="-34.8897" y="-196">10</tspan><tspan font-size="55" x="47.6104" y="-221">2</tspan><tspan font-size="83" x="-34.8897" y="-294">10</tspan><tspan font-size="55" x="47.6104" y="-319">3</tspan><tspan font-size="83" x="-34.8897" y="-394">10</tspan><tspan font-size="55" x="47.6104" y="-419">4</tspan><tspan font-size="83" x="-34.8897" y="-494">10</tspan><tspan font-size="55" x="47.6104" y="-519">5</tspan><tspan font-size="83" x="-34.8897" y="-595">10</tspan><tspan font-size="55" x="47.6104" y="-620">6</tspan><tspan font-size="83" x="-34.8897" y="-693">10</tspan><tspan font-size="55" x="47.6104" y="-718">7</tspan><tspan font-size="83" x="-44.0564" y="202">10</tspan><tspan font-size="55" x="38.4436" y="177">-</tspan><tspan font-size="55" x="56.7769" y="177">2</tspan><tspan font-size="83" x="-44.0564" y="105">10</tspan><tspan font-size="55" x="38.4436" y="80">-</tspan><tspan font-size="55" x="56.7769" y="80">1</tspan></text><path d="M2834.88 1582 2842.43 1582 2836.9 1606.49C2836.46 1608.46 2836.1 1610.18 2835.85 1611.63 2835.59 1613.08 2835.47 1614.41 2835.47 1615.61 2835.47 1617.16 2835.88 1618.35 2836.7 1619.15 2837.53 1619.96 2838.7 1620.37 2840.23 1620.37 2842 1620.37 2843.92 1619.42 2846 1617.54 2848.08 1615.65 2849.95 1613.28 2851.59 1610.44 2853.24 1607.59 2854.3 1605.08 2854.78 1602.89L2859.23 1582 2867 1582 2860.62 1610.44C2859.93 1613.52 2859.59 1615.74 2859.59 1617.09 2859.59 1618.29 2859.78 1619.15 2860.17 1619.69 2860.56 1620.23 2861.18 1620.5 2862.02 1620.5 2862.7 1620.5 2863.54 1620.23 2864.51 1619.69 2865.48 1619.15 2866.57 1618.21 2867.77 1616.86L2870.28 1619.38C2868.6 1621.03 2867.11 1622.3 2865.81 1623.2 2864.51 1624.1 2863.32 1624.73 2862.24 1625.11 2861.16 1625.48 2859.99 1625.67 2858.74 1625.67 2856.79 1625.67 2855.28 1625.09 2854.2 1623.94 2853.12 1622.79 2852.58 1621.18 2852.58 1619.11 2852.58 1617.43 2852.97 1615.64 2853.75 1613.72L2853.26 1613.45C2850.47 1617.58 2847.9 1620.58 2845.53 1622.46 2843.16 1624.33 2840.72 1625.26 2838.21 1625.26 2836.95 1625.26 2835.8 1625.06 2834.77 1624.66 2833.74 1624.25 2832.67 1623.48 2831.56 1622.34 2831.2 1624.14 2830.88 1626.56 2830.59 1629.6 2830.31 1632.64 2830.17 1635.37 2830.17 1637.8 2830.17 1638.7 2830.2 1639.41 2830.26 1639.95L2829.63 1642.96 2823.79 1642.96 2821.59 1640.27C2822.93 1635.3 2824.19 1630.19 2825.36 1624.95Z" fill-rule="evenodd"/><text fill="#000000" fill-opacity="0" font-family="Arial,Arial_MSFontService,sans-serif" font-size="60.959" x="2821.59" y="1635.34">𝜇</text><path d="M2881.57 1601.22 2912.42 1601.22 2910.1 1611.42 2906.6 1611.42C2906.49 1610.23 2906.38 1609.2 2906.27 1608.35 2906.16 1607.5 2905.96 1606.8 2905.68 1606.26 2905.4 1605.71 2904.99 1605.32 2904.47 1605.08 2903.95 1604.84 2903.23 1604.71 2902.31 1604.69L2891.61 1604.69 2888.01 1620.62 2894.46 1620.62C2895.22 1620.62 2895.85 1620.57 2896.36 1620.47 2896.86 1620.37 2897.32 1620.14 2897.73 1619.78 2898.14 1619.42 2898.55 1618.91 2898.96 1618.25 2899.36 1617.58 2899.86 1616.69 2900.45 1615.58L2903.72 1615.58 2900.58 1629.16 2897.4 1629.16C2897.4 1627.98 2897.37 1627.05 2897.3 1626.36 2897.24 1625.67 2897.1 1625.15 2896.88 1624.81 2896.66 1624.46 2896.33 1624.24 2895.9 1624.15 2895.46 1624.06 2894.87 1624.02 2894.13 1624.02L2887.26 1624.02C2886.98 1625.29 2886.66 1626.66 2886.31 1628.16 2885.96 1629.65 2885.64 1631.11 2885.33 1632.53 2885.03 1633.94 2884.77 1635.24 2884.56 1636.4 2884.35 1637.57 2884.25 1638.44 2884.25 1639 2884.25 1639.44 2884.31 1639.82 2884.43 1640.13 2884.55 1640.45 2884.75 1640.72 2885.02 1640.93 2885.29 1641.15 2885.68 1641.32 2886.18 1641.42 2886.68 1641.53 2887.33 1641.61 2888.11 1641.65L2887.65 1643.65 2873.49 1643.65 2873.85 1641.65C2874.52 1641.54 2875.08 1641.41 2875.52 1641.24 2875.95 1641.08 2876.34 1640.76 2876.68 1640.3 2877.02 1639.83 2877.32 1639.12 2877.59 1638.19 2877.87 1637.25 2878.19 1635.94 2878.56 1634.26L2883.92 1610.41C2884.14 1609.45 2884.31 1608.6 2884.42 1607.86 2884.52 1607.12 2884.58 1606.51 2884.58 1606.03 2884.58 1605.05 2884.33 1604.35 2883.84 1603.93 2883.35 1603.52 2882.43 1603.3 2881.08 1603.28Z" fill-rule="evenodd"/><text fill="#000000" fill-opacity="0" font-family="Arial,Arial_MSFontService,sans-serif" font-size="42.4312" x="2873.49" y="1638.34">𝐹</text><path d="M2954.51 1560.04 2955.72 1563.5C2948.72 1565.8 2943.53 1570.3 2940.16 1576.99 2936.79 1583.69 2935.11 1592.1 2935.11 1602.22 2935.11 1612.7 2936.79 1621.34 2940.16 1628.14 2943.53 1634.94 2948.67 1639.49 2955.59 1641.79L2954.51 1645.25C2945.74 1642.95 2939.01 1637.98 2934.34 1630.36 2929.67 1622.74 2927.33 1613.51 2927.33 1602.67 2927.33 1591.86 2929.68 1582.63 2934.36 1574.97 2939.05 1567.32 2945.77 1562.34 2954.51 1560.04Z" fill-rule="evenodd"/><text fill="#000000" fill-opacity="0" font-family="Arial,Arial_MSFontService,sans-serif" font-size="85.2168" x="2927.33" y="1634.6">(</text><path d="M2963.75 1605 3019.1 1605 3019.1 1610.98 2963.75 1610.98ZM2963.75 1586.36 3019.1 1586.36 3019.1 1592.34 2963.75 1592.34Z" fill-rule="evenodd"/><text fill="#000000" fill-opacity="0" font-family="Arial,Arial_MSFontService,sans-serif" font-size="24.6172" x="2963.75" y="1607.9">=</text><path d="M3065.24 1582 3072.79 1582 3067.26 1606.49C3066.81 1608.46 3066.46 1610.18 3066.21 1611.63 3065.95 1613.08 3065.83 1614.41 3065.83 1615.61 3065.83 1617.16 3066.24 1618.35 3067.06 1619.15 3067.88 1619.96 3069.06 1620.37 3070.59 1620.37 3072.35 1620.37 3074.28 1619.42 3076.36 1617.54 3078.44 1615.65 3080.31 1613.28 3081.95 1610.44 3083.6 1607.59 3084.66 1605.08 3085.14 1602.89L3089.59 1582 3097.36 1582 3090.98 1610.44C3090.29 1613.52 3089.95 1615.74 3089.95 1617.09 3089.95 1618.29 3090.14 1619.15 3090.53 1619.69 3090.92 1620.23 3091.54 1620.5 3092.37 1620.5 3093.06 1620.5 3093.89 1620.23 3094.87 1619.69 3095.84 1619.15 3096.93 1618.21 3098.12 1616.86L3100.64 1619.38C3098.96 1621.03 3097.47 1622.3 3096.17 1623.2 3094.87 1624.1 3093.68 1624.73 3092.6 1625.11 3091.52 1625.48 3090.35 1625.67 3089.09 1625.67 3087.15 1625.67 3085.64 1625.09 3084.56 1623.94 3083.48 1622.79 3082.94 1621.18 3082.94 1619.11 3082.94 1617.43 3083.33 1615.64 3084.11 1613.72L3083.61 1613.45C3080.83 1617.58 3078.25 1620.58 3075.89 1622.46 3073.52 1624.33 3071.08 1625.26 3068.57 1625.26 3067.31 1625.26 3066.16 1625.06 3065.13 1624.66 3064.1 1624.25 3063.03 1623.48 3061.92 1622.34 3061.56 1624.14 3061.24 1626.56 3060.95 1629.6 3060.67 1632.64 3060.52 1635.37 3060.52 1637.8 3060.52 1638.7 3060.55 1639.41 3060.61 1639.95L3059.99 1642.96 3054.15 1642.96 3051.94 1640.27C3053.29 1635.3 3054.55 1630.19 3055.72 1624.95Z" fill-rule="evenodd"/><text fill="#000000" fill-opacity="0" font-family="Arial,Arial_MSFontService,sans-serif" font-size="60.959" x="3051.94" y="1635.34">𝜇</text><path d="M3129.53 1606.02C3127.56 1606.02 3125.79 1606.48 3124.21 1607.39 3122.63 1608.31 3121.23 1609.53 3120.01 1611.06 3118.79 1612.58 3117.73 1614.32 3116.85 1616.27 3115.97 1618.23 3115.24 1620.22 3114.66 1622.26 3114.08 1624.3 3113.66 1626.3 3113.4 1628.26 3113.14 1630.23 3113.01 1632.01 3113.01 1633.6 3113.01 1636.76 3113.63 1639.12 3114.89 1640.68 3116.14 1642.24 3118.06 1643.02 3120.63 1643.02 3122.46 1643.02 3124.14 1642.59 3125.67 1641.73 3127.19 1640.87 3128.57 1639.71 3129.79 1638.26 3131.01 1636.81 3132.08 1635.14 3133 1633.25 3133.91 1631.37 3134.68 1629.4 3135.29 1627.36 3135.9 1625.33 3136.36 1623.28 3136.68 1621.23 3136.99 1619.18 3137.15 1617.28 3137.15 1615.54 3137.15 1612.44 3136.52 1610.08 3135.25 1608.46 3133.99 1606.83 3132.08 1606.02 3129.53 1606.02ZM3129.72 1602.68C3132.04 1602.68 3134.08 1603.03 3135.84 1603.71 3137.61 1604.4 3139.08 1605.36 3140.26 1606.61 3141.44 1607.85 3142.32 1609.35 3142.92 1611.11 3143.52 1612.86 3143.82 1614.83 3143.82 1617.01 3143.82 1618.76 3143.65 1620.69 3143.3 1622.82 3142.95 1624.94 3142.4 1627.1 3141.65 1629.28 3140.9 1631.46 3139.9 1633.58 3138.67 1635.64 3137.44 1637.7 3135.96 1639.53 3134.24 1641.14 3132.52 1642.74 3130.51 1644.03 3128.22 1645 3125.93 1645.97 3123.32 1646.45 3120.4 1646.45 3118.2 1646.45 3116.22 1646.14 3114.48 1645.51 3112.73 1644.87 3111.25 1643.95 3110.03 1642.72 3108.81 1641.5 3107.87 1640 3107.22 1638.21 3106.56 1636.42 3106.23 1634.39 3106.23 1632.12 3106.23 1630.23 3106.42 1628.19 3106.79 1626.01 3107.16 1623.83 3107.74 1621.65 3108.52 1619.46 3109.31 1617.28 3110.32 1615.18 3111.57 1613.17 3112.81 1611.15 3114.3 1609.37 3116.05 1607.82 3117.79 1606.27 3119.8 1605.03 3122.07 1604.09 3124.34 1603.15 3126.89 1602.68 3129.72 1602.68Z" fill-rule="evenodd"/><text fill="#000000" fill-opacity="0" font-family="Arial,Arial_MSFontService,sans-serif" font-size="43.7725" x="3106.23" y="1640.98">𝑂</text><path d="M3123.67 1546.95C3125.94 1546.95 3127.87 1547.2 3129.48 1547.72 3131.08 1548.23 3132.38 1548.92 3133.39 1549.79 3134.39 1550.67 3135.12 1551.71 3135.56 1552.93 3136.01 1554.16 3136.23 1555.48 3136.23 1556.89 3136.23 1557.74 3136.17 1558.53 3136.05 1559.26 3135.93 1560 3135.73 1560.72 3135.43 1561.42 3135.14 1562.13 3134.75 1562.85 3134.27 1563.57 3133.79 1564.29 3133.19 1565.05 3132.47 1565.86 3131.93 1566.55 3131.22 1567.36 3130.34 1568.28 3129.47 1569.19 3128.52 1570.18 3127.48 1571.22 3126.45 1572.27 3125.36 1573.36 3124.23 1574.49 3123.09 1575.63 3121.99 1576.75 3120.92 1577.86 3119.85 1578.98 3118.87 1580.06 3117.98 1581.1 3117.08 1582.15 3116.35 1583.11 3115.79 1583.98L3127.89 1583.98C3128.92 1583.98 3129.73 1583.94 3130.34 1583.87 3130.95 1583.79 3131.46 1583.62 3131.87 1583.36 3132.27 1583.1 3132.61 1582.7 3132.9 1582.17 3133.18 1581.63 3133.51 1580.89 3133.88 1579.96L3136.92 1579.96C3136.81 1581.51 3136.71 1583.06 3136.61 1584.64 3136.51 1586.21 3136.41 1587.77 3136.3 1589.31L3108.59 1589.31 3108.59 1587.61C3109.11 1586.43 3109.72 1585.27 3110.42 1584.13 3111.12 1582.98 3111.9 1581.82 3112.78 1580.64 3113.65 1579.47 3114.64 1578.25 3115.75 1577 3116.87 1575.74 3118.1 1574.44 3119.45 1573.09 3121.5 1571.04 3123.17 1569.29 3124.46 1567.84 3125.74 1566.39 3126.76 1565.09 3127.5 1563.96 3128.24 1562.83 3128.75 1561.78 3129.02 1560.82 3129.29 1559.86 3129.43 1558.83 3129.43 1557.74 3129.43 1556.63 3129.27 1555.61 3128.95 1554.67 3128.64 1553.73 3128.19 1552.93 3127.6 1552.28 3127.01 1551.63 3126.26 1551.11 3125.36 1550.74 3124.45 1550.37 3123.41 1550.19 3122.23 1550.19 3120.2 1550.19 3118.5 1550.74 3117.13 1551.84 3115.75 1552.94 3114.68 1554.54 3113.92 1556.63L3109.64 1556.63 3109.64 1550.25C3112.43 1549.1 3115 1548.26 3117.34 1547.73 3119.68 1547.21 3121.79 1546.95 3123.67 1546.95Z" fill-rule="evenodd"/><text fill="#000000" fill-opacity="0" font-family="Arial,Arial_MSFontService,sans-serif" font-size="42.3657" x="3108.59" y="1584.02">2</text><path d="M3185.68 1605 3241.02 1605 3241.02 1610.98 3185.68 1610.98ZM3185.68 1586.36 3241.02 1586.36 3241.02 1592.34 3185.68 1592.34Z" fill-rule="evenodd"/><text fill="#000000" fill-opacity="0" font-family="Arial,Arial_MSFontService,sans-serif" font-size="24.6172" x="3185.68" y="1607.9">=</text><path d="M3287.17 1582 3294.71 1582 3289.19 1606.49C3288.74 1608.46 3288.39 1610.18 3288.13 1611.63 3287.88 1613.08 3287.75 1614.41 3287.75 1615.61 3287.75 1617.16 3288.16 1618.35 3288.99 1619.15 3289.81 1619.96 3290.98 1620.37 3292.51 1620.37 3294.28 1620.37 3296.2 1619.42 3298.28 1617.54 3300.37 1615.65 3302.23 1613.28 3303.88 1610.44 3305.52 1607.59 3306.59 1605.08 3307.07 1602.89L3311.51 1582 3319.29 1582 3312.91 1610.44C3312.22 1613.52 3311.87 1615.74 3311.87 1617.09 3311.87 1618.29 3312.07 1619.15 3312.46 1619.69 3312.85 1620.23 3313.46 1620.5 3314.3 1620.5 3314.99 1620.5 3315.82 1620.23 3316.79 1619.69 3317.77 1619.15 3318.85 1618.21 3320.05 1616.86L3322.56 1619.38C3320.89 1621.03 3319.4 1622.3 3318.1 1623.2 3316.79 1624.1 3315.6 1624.73 3314.52 1625.11 3313.45 1625.48 3312.28 1625.67 3311.02 1625.67 3309.07 1625.67 3307.56 1625.09 3306.48 1623.94 3305.4 1622.79 3304.87 1621.18 3304.87 1619.11 3304.87 1617.43 3305.26 1615.64 3306.03 1613.72L3305.54 1613.45C3302.75 1617.58 3300.18 1620.58 3297.81 1622.46 3295.45 1624.33 3293.01 1625.26 3290.49 1625.26 3289.23 1625.26 3288.09 1625.06 3287.05 1624.66 3286.02 1624.25 3284.95 1623.48 3283.84 1622.34 3283.48 1624.14 3283.16 1626.56 3282.88 1629.6 3282.59 1632.64 3282.45 1635.37 3282.45 1637.8 3282.45 1638.7 3282.48 1639.41 3282.54 1639.95L3281.91 1642.96 3276.07 1642.96 3273.87 1640.27C3275.22 1635.3 3276.48 1630.19 3277.64 1624.95Z" fill-rule="evenodd"/><text fill="#000000" fill-opacity="0" font-family="Arial,Arial_MSFontService,sans-serif" font-size="60.959" x="3273.87" y="1635.34">𝜇</text><path d="M3331.5 1603.28 3367.19 1603.28 3364.54 1614.83 3361.11 1614.83 3361.11 1612.96C3361.11 1612.61 3361.09 1612.22 3361.06 1611.77 3361.03 1611.32 3360.98 1610.88 3360.91 1610.43 3360.85 1609.98 3360.77 1609.57 3360.68 1609.19 3360.6 1608.8 3360.5 1608.49 3360.39 1608.25 3360.24 1607.95 3360.08 1607.7 3359.92 1607.5 3359.75 1607.3 3359.54 1607.15 3359.29 1607.04 3359.04 1606.93 3358.74 1606.86 3358.39 1606.81 3358.05 1606.77 3357.6 1606.75 3357.05 1606.75L3351.79 1606.75 3345.05 1636.58C3344.81 1637.59 3344.64 1638.44 3344.54 1639.15 3344.44 1639.86 3344.39 1640.5 3344.39 1641.07 3344.41 1641.5 3344.48 1641.88 3344.59 1642.19 3344.7 1642.51 3344.89 1642.78 3345.18 1643 3345.46 1643.21 3345.84 1643.38 3346.32 1643.49 3346.8 1643.6 3347.42 1643.67 3348.19 1643.72L3347.73 1645.71 3333.27 1645.71 3333.69 1643.72C3334.24 1643.58 3334.71 1643.47 3335.1 1643.37 3335.49 1643.27 3335.83 1643.14 3336.12 1642.98 3336.4 1642.82 3336.64 1642.59 3336.85 1642.31 3337.06 1642.03 3337.26 1641.64 3337.46 1641.15 3337.65 1640.66 3337.85 1640.02 3338.05 1639.23 3338.24 1638.45 3338.47 1637.48 3338.73 1636.32L3345.34 1606.75 3340.83 1606.75C3340.11 1606.75 3339.5 1606.77 3338.99 1606.81 3338.49 1606.86 3338.03 1606.97 3337.62 1607.16 3337.21 1607.34 3336.82 1607.6 3336.46 1607.93 3336.1 1608.25 3335.73 1608.7 3335.35 1609.27 3334.96 1609.83 3334.55 1610.53 3334.1 1611.36 3333.66 1612.19 3333.14 1613.18 3332.55 1614.34L3329.05 1614.34Z" fill-rule="evenodd"/><text fill="#000000" fill-opacity="0" font-family="Arial,Arial_MSFontService,sans-serif" font-size="42.4312" x="3329.05" y="1640.41">𝑇</text><path d="M3345.53 1546.97C3347.27 1546.97 3348.9 1547.16 3350.42 1547.53 3351.94 1547.9 3353.25 1548.46 3354.36 1549.21 3355.48 1549.96 3356.34 1550.9 3356.96 1552.03 3357.59 1553.15 3357.9 1554.45 3357.9 1555.93 3357.9 1557.33 3357.7 1558.56 3357.31 1559.63 3356.91 1560.7 3356.31 1561.67 3355.49 1562.54 3354.67 1563.42 3353.67 1564.21 3352.48 1564.91 3351.29 1565.62 3349.92 1566.31 3348.38 1566.96L3348.38 1567.35C3349.84 1567.61 3351.2 1568.03 3352.47 1568.61 3353.73 1569.19 3354.84 1569.92 3355.79 1570.8 3356.73 1571.69 3357.48 1572.71 3358.03 1573.86 3358.57 1575.02 3358.84 1576.29 3358.84 1577.69 3358.84 1579.43 3358.52 1581.05 3357.86 1582.55 3357.21 1584.04 3356.23 1585.33 3354.92 1586.42 3353.61 1587.52 3352 1588.37 3350.08 1588.98 3348.16 1589.59 3345.91 1589.89 3343.34 1589.89 3341.31 1589.89 3339.25 1589.69 3337.15 1589.29 3335.06 1588.88 3333.08 1588.35 3331.2 1587.7L3331.2 1580.63 3335.42 1580.63C3335.77 1581.72 3336.18 1582.66 3336.66 1583.43 3337.14 1584.21 3337.71 1584.84 3338.35 1585.33 3338.99 1585.82 3339.73 1586.17 3340.57 1586.39 3341.41 1586.61 3342.37 1586.72 3343.44 1586.72 3346.25 1586.72 3348.38 1586.05 3349.83 1584.71 3351.28 1583.37 3352.01 1581.33 3352.01 1578.61 3352.01 1575.71 3351.05 1573.51 3349.14 1572.01 3347.24 1570.52 3344.41 1569.77 3340.66 1569.77L3337.78 1569.77 3337.78 1566.63C3340.07 1566.52 3342.05 1566.2 3343.71 1565.67 3345.38 1565.13 3346.77 1564.44 3347.89 1563.59 3349 1562.74 3349.83 1561.75 3350.37 1560.61 3350.92 1559.48 3351.19 1558.27 3351.19 1556.98 3351.19 1554.89 3350.57 1553.24 3349.32 1552.03 3348.08 1550.81 3346.28 1550.21 3343.93 1550.21 3341.94 1550.21 3340.28 1550.75 3338.94 1551.85 3337.6 1552.94 3336.57 1554.56 3335.85 1556.72L3331.69 1556.72 3331.69 1550.27C3334.26 1549.18 3336.69 1548.36 3338.97 1547.8 3341.25 1547.25 3343.44 1546.97 3345.53 1546.97Z" fill-rule="evenodd"/><text fill="#000000" fill-opacity="0" font-family="Arial,Arial_MSFontService,sans-serif" font-size="42.9219" x="3331.2" y="1584.53">3</text><path d="M3376.88 1560.04C3385.63 1562.34 3392.34 1567.32 3397.03 1574.97 3401.71 1582.63 3404.06 1591.86 3404.06 1602.67 3404.06 1613.51 3401.72 1622.74 3397.05 1630.36 3392.38 1637.98 3385.66 1642.95 3376.88 1645.25L3375.8 1641.79C3382.72 1639.49 3387.86 1634.94 3391.23 1628.14 3394.6 1621.34 3396.29 1612.7 3396.29 1602.22 3396.29 1592.1 3394.61 1583.69 3391.26 1576.99 3387.9 1570.3 3382.71 1565.8 3375.67 1563.5Z" fill-rule="evenodd"/><text fill="#000000" fill-opacity="0" font-family="Arial,Arial_MSFontService,sans-serif" font-size="85.2168" x="3375.67" y="1634.6">)</text><text font-family="Times New Roman,Times New Roman_MSFontService,sans-serif" font-weight="400" font-size="83" transform="matrix(1 0 0 1 2744.18 1537)">10<tspan font-size="55" x="82.5" y="-25">-</tspan><tspan font-size="55" x="100.833" y="-25">6</tspan><tspan font-size="83" x="620.295" y="-1">10</tspan><tspan font-size="55" x="702.795" y="-26">-</tspan><tspan font-size="55" x="721.128" y="-26">3</tspan></text><path d="M1570.82 383.704 1622.82 383.704 1622.82 435.704 1570.82 435.704Z" stroke="#FF0000" stroke-width="8.47303" stroke-linejoin="round" stroke-miterlimit="10" fill="#FF0000" fill-rule="evenodd"/><path d="M1856.77 404.132 1869.78 404.132 1869.78 428.976C1869.78 432.434 1870.38 434.703 1871.58 435.784 1872.78 436.865 1874.24 437.405 1875.94 437.405 1877.1 437.405 1878.42 437.04 1879.89 436.311 1881.36 435.582 1883.11 434.19 1885.14 432.137L1885.14 411.103C1885.14 408.996 1884.75 407.57 1883.98 406.827 1883.21 406.084 1881.61 405.686 1879.18 405.632L1879.18 404.132 1891.82 404.132 1891.82 426.625C1891.82 430.921 1891.93 433.548 1892.13 434.508 1892.33 435.467 1892.65 436.135 1893.1 436.514 1893.55 436.892 1894.07 437.081 1894.66 437.081 1895.5 437.081 1896.44 436.851 1897.5 436.392L1898.07 437.811 1886.96 442.39 1885.14 442.39 1885.14 434.528C1881.95 437.986 1879.52 440.161 1877.84 441.053 1876.17 441.944 1874.4 442.39 1872.53 442.39 1870.45 442.39 1868.65 441.789 1867.12 440.587 1865.6 439.384 1864.54 437.838 1863.94 435.946 1863.35 434.055 1863.05 431.38 1863.05 427.922L1863.05 411.346C1863.05 409.59 1862.86 408.374 1862.48 407.699 1862.1 407.023 1861.54 406.503 1860.8 406.138 1860.06 405.774 1858.71 405.605 1856.77 405.632ZM1669.2 397.648 1659.64 419.857 1678.53 419.857ZM1780.11 389.38C1778.54 389.38 1776.42 389.637 1773.75 390.15L1773.75 413.008C1774.26 413.008 1774.71 413.015 1775.09 413.028 1775.46 413.042 1775.78 413.048 1776.02 413.048 1781.26 413.048 1785.21 411.914 1787.87 409.644 1790.53 407.374 1791.86 404.484 1791.86 400.971 1791.86 397.54 1790.79 394.75 1788.64 392.602 1786.49 390.454 1783.65 389.38 1780.11 389.38ZM1725.11 389.38C1723.54 389.38 1721.42 389.637 1718.75 390.15L1718.75 413.008C1719.26 413.008 1719.71 413.015 1720.09 413.028 1720.46 413.042 1720.78 413.048 1721.02 413.048 1726.26 413.048 1730.21 411.914 1732.87 409.644 1735.53 407.374 1736.86 404.484 1736.86 400.971 1736.86 397.54 1735.79 394.75 1733.64 392.602 1731.49 390.454 1728.65 389.38 1725.11 389.38ZM1813.02 386.3 1853.92 386.3 1854.44 398.377 1853.02 398.377C1852.32 395.811 1851.51 393.926 1850.57 392.724 1849.64 391.522 1848.49 390.65 1847.13 390.11 1845.76 389.569 1843.65 389.299 1840.79 389.299L1828.67 389.299 1828.67 410.9 1838.68 410.9C1840.97 410.9 1842.66 410.394 1843.72 409.381 1844.79 408.367 1845.5 406.361 1845.85 403.362L1847.35 403.362 1847.35 421.964 1845.85 421.964C1845.82 419.83 1845.55 418.263 1845.02 417.263 1844.49 416.263 1843.76 415.514 1842.83 415.014 1841.9 414.514 1840.52 414.264 1838.68 414.264L1828.67 414.264 1828.67 431.529C1828.67 434.312 1828.84 436.149 1829.19 437.04 1829.46 437.716 1830.03 438.297 1830.9 438.783 1832.09 439.432 1833.33 439.756 1834.63 439.756L1836.61 439.756 1836.61 441.255 1813.02 441.255 1813.02 439.756 1814.97 439.756C1817.24 439.756 1818.89 439.094 1819.91 437.77 1820.56 436.905 1820.89 434.825 1820.89 431.529L1820.89 396.027C1820.89 393.244 1820.71 391.407 1820.36 390.515 1820.09 389.84 1819.54 389.259 1818.7 388.772 1817.54 388.124 1816.29 387.8 1814.97 387.8L1813.02 387.8ZM1758.11 386.3 1778.13 386.3C1783.96 386.3 1788.26 386.726 1791.03 387.577 1793.8 388.428 1796.15 389.995 1798.09 392.278 1800.02 394.561 1800.98 397.283 1800.98 400.444 1800.98 403.822 1799.88 406.753 1797.68 409.239 1795.48 411.724 1792.07 413.481 1787.45 414.507L1798.79 430.272C1801.39 433.893 1803.62 436.297 1805.48 437.486 1807.35 438.675 1809.78 439.432 1812.78 439.756L1812.78 441.255 1798.11 441.255 1779.5 415.561C1778.13 415.615 1777 415.642 1776.14 415.642 1775.79 415.642 1775.41 415.635 1775.01 415.622 1774.6 415.608 1774.18 415.588 1773.75 415.561L1773.75 431.529C1773.75 434.987 1774.13 437.135 1774.88 437.973 1775.91 439.161 1777.45 439.756 1779.5 439.756L1781.65 439.756 1781.65 441.255 1758.11 441.255 1758.11 439.756 1760.17 439.756C1762.5 439.756 1764.16 438.999 1765.16 437.486 1765.72 436.649 1766.01 434.663 1766.01 431.529L1766.01 396.027C1766.01 392.568 1765.63 390.421 1764.87 389.583 1763.82 388.394 1762.25 387.8 1760.17 387.8L1758.11 387.8ZM1703.11 386.3 1723.13 386.3C1728.96 386.3 1733.26 386.726 1736.03 387.577 1738.8 388.428 1741.15 389.995 1743.09 392.278 1745.02 394.561 1745.98 397.283 1745.98 400.444 1745.98 403.822 1744.88 406.753 1742.68 409.239 1740.48 411.724 1737.07 413.481 1732.45 414.507L1743.79 430.272C1746.39 433.893 1748.62 436.297 1750.48 437.486 1752.35 438.675 1754.78 439.432 1757.78 439.756L1757.78 441.255 1743.11 441.255 1724.5 415.561C1723.13 415.615 1722 415.642 1721.14 415.642 1720.79 415.642 1720.41 415.635 1720.01 415.622 1719.6 415.608 1719.18 415.588 1718.75 415.561L1718.75 431.529C1718.75 434.987 1719.13 437.135 1719.88 437.973 1720.91 439.161 1722.45 439.756 1724.5 439.756L1726.65 439.756 1726.65 441.255 1703.11 441.255 1703.11 439.756 1705.17 439.756C1707.5 439.756 1709.16 438.999 1710.16 437.486 1710.72 436.649 1711.01 434.663 1711.01 431.529L1711.01 396.027C1711.01 392.568 1710.63 390.421 1709.87 389.583 1708.82 388.394 1707.25 387.8 1705.17 387.8L1703.11 387.8ZM1670.7 385.044 1672.12 385.044 1691.25 430.759C1692.79 434.433 1694.19 436.818 1695.45 437.912 1696.7 439.006 1698.45 439.621 1700.69 439.756L1700.69 441.255 1679.01 441.255 1679.01 439.756C1681.2 439.648 1682.68 439.283 1683.45 438.662 1684.22 438.04 1684.61 437.284 1684.61 436.392 1684.61 435.203 1684.06 433.326 1682.98 430.759L1679.66 422.856 1658.38 422.856 1654.66 431.529C1653.74 433.663 1653.28 435.257 1653.28 436.311 1653.28 437.149 1653.68 437.885 1654.47 438.52 1655.27 439.155 1656.99 439.567 1659.64 439.756L1659.64 441.255 1642.34 441.255 1642.34 439.756C1644.63 439.351 1646.12 438.824 1646.79 438.175 1648.17 436.878 1649.7 434.244 1651.37 430.272ZM1935.22 383.625 1937.05 383.625 1937.05 432.866C1937.05 435.19 1937.22 436.73 1937.55 437.486 1937.89 438.243 1938.41 438.817 1939.11 439.209 1939.82 439.6 1941.13 439.796 1943.04 439.796L1943.04 441.255 1924.85 441.255 1924.85 439.796C1926.55 439.796 1927.71 439.621 1928.33 439.27 1928.95 438.918 1929.44 438.337 1929.79 437.527 1930.14 436.716 1930.32 435.163 1930.32 432.866L1930.32 399.147C1930.32 394.96 1930.22 392.386 1930.04 391.427 1929.85 390.468 1929.54 389.813 1929.12 389.461 1928.7 389.11 1928.17 388.935 1927.52 388.935 1926.82 388.935 1925.93 389.151 1924.85 389.583L1924.16 388.165ZM1912.22 383.625 1914.05 383.625 1914.05 432.866C1914.05 435.19 1914.22 436.73 1914.55 437.486 1914.89 438.243 1915.41 438.817 1916.11 439.209 1916.82 439.6 1918.13 439.796 1920.04 439.796L1920.04 441.255 1901.85 441.255 1901.85 439.796C1903.55 439.796 1904.71 439.621 1905.33 439.27 1905.95 438.918 1906.44 438.337 1906.79 437.527 1907.14 436.716 1907.32 435.163 1907.32 432.866L1907.32 399.147C1907.32 394.96 1907.22 392.386 1907.04 391.427 1906.85 390.468 1906.54 389.813 1906.12 389.461 1905.7 389.11 1905.17 388.935 1904.52 388.935 1903.82 388.935 1902.93 389.151 1901.85 389.583L1901.16 388.165Z" fill-rule="evenodd"/><text fill="#000000" fill-opacity="0" font-family="Arial,Arial_MSFontService,sans-serif" font-size="58.7646" x="1642.34" y="435.045">ARRFull</text><path d="M1962.33 423.548 1950.98 453.333 1971.71 453.333ZM1961.28 416.966 1965.69 416.966 1978.26 456.193 1978.26 458.099 1945.71 458.099 1945.71 456.193Z" fill-rule="evenodd"/><text fill="#000000" fill-opacity="0" font-family="Arial,Arial_MSFontService,sans-serif" font-size="41.1333" x="1945.71" y="452.957">∆</text><path d="M2033.84 382.693 2034.94 385.814C2028.61 387.894 2023.93 391.954 2020.89 397.992 2017.85 404.031 2016.33 411.616 2016.33 420.749 2016.33 430.205 2017.85 438 2020.89 444.133 2023.93 450.266 2028.57 454.373 2034.82 456.453L2033.84 459.574C2025.93 457.493 2019.86 453.015 2015.65 446.139 2011.43 439.263 2009.32 430.934 2009.32 421.154 2009.32 411.4 2011.44 403.072 2015.67 396.169 2019.89 389.266 2025.95 384.774 2033.84 382.693Z" fill-rule="evenodd"/><text fill="#000000" fill-opacity="0" font-family="Arial,Arial_MSFontService,sans-serif" font-size="76.8804" x="2009.32" y="449.964">(</text><path d="M2058.86 389.461C2057.02 389.461 2055.28 389.515 2053.63 389.624L2053.63 437.486C2054.71 437.594 2056.3 437.648 2058.41 437.648 2060.68 437.648 2062.71 437.459 2064.49 437.081 2066.27 436.703 2067.89 436.108 2069.35 435.298 2070.81 434.487 2072.12 433.359 2073.28 431.914 2074.45 430.468 2075.39 428.807 2076.12 426.929 2076.85 425.051 2077.38 422.964 2077.72 420.667 2078.06 418.371 2078.23 415.858 2078.23 413.129 2078.23 407.645 2077.44 403.139 2075.86 399.613 2074.28 396.088 2072.05 393.514 2069.17 391.893 2066.29 390.272 2062.85 389.461 2058.86 389.461ZM2041.27 385.936 2059.02 385.936C2064.12 385.936 2068.31 386.496 2071.56 387.617 2074.82 388.739 2077.57 390.394 2079.81 392.582 2082.05 394.77 2083.73 397.493 2084.83 400.748 2085.94 404.004 2086.5 407.888 2086.5 412.4 2086.5 416.966 2085.98 420.985 2084.94 424.457 2083.89 427.929 2082.38 430.84 2080.38 433.19 2078.65 435.244 2076.53 436.932 2074.01 438.256 2071.93 439.337 2069.53 440.107 2066.8 440.566 2064.07 441.026 2060.45 441.255 2055.94 441.255L2041.27 441.255 2041.27 439.27C2042.51 438.945 2043.4 438.635 2043.94 438.337 2044.48 438.04 2044.9 437.662 2045.2 437.203 2045.5 436.743 2045.71 436.081 2045.85 435.217 2045.98 434.352 2046.05 432.988 2046.05 431.124L2046.05 396.067C2046.05 394.176 2045.98 392.805 2045.85 391.954 2045.71 391.103 2045.49 390.448 2045.18 389.988 2044.87 389.529 2044.45 389.157 2043.94 388.874 2043.43 388.59 2042.54 388.273 2041.27 387.921ZM2118.69 385.287C2121.15 385.287 2123.42 385.415 2125.5 385.672 2127.58 385.929 2129.96 386.408 2132.63 387.111L2132.63 398.337 2128.62 398.337C2127.97 395.986 2127.15 394.115 2126.15 392.724 2125.15 391.332 2123.99 390.339 2122.66 389.745 2121.34 389.151 2119.75 388.853 2117.88 388.853 2115.1 388.853 2112.62 389.779 2110.44 391.63 2108.27 393.48 2106.56 396.263 2105.32 399.978 2104.07 403.693 2103.45 408.185 2103.45 413.454 2103.45 418.749 2103.97 423.268 2104.99 427.01 2106.02 430.752 2107.53 433.575 2109.53 435.48 2111.53 437.385 2113.99 438.337 2116.91 438.337 2119.12 438.337 2120.93 438.02 2122.34 437.385 2123.74 436.75 2124.93 435.744 2125.89 434.366 2126.84 432.988 2127.76 430.961 2128.62 428.287L2132.63 428.287 2132.63 439.877C2130.09 440.553 2127.49 441.059 2124.83 441.397 2122.17 441.735 2119.25 441.904 2116.06 441.904 2109.19 441.904 2104.01 439.58 2100.49 434.933 2096.98 430.286 2095.23 423.356 2095.23 414.143 2095.23 408.361 2096.14 403.295 2097.96 398.945 2099.79 394.595 2102.47 391.231 2106.01 388.853 2109.55 386.476 2113.77 385.287 2118.69 385.287Z" fill-rule="evenodd"/><text fill="#000000" fill-opacity="0" font-family="Arial,Arial_MSFontService,sans-serif" font-size="56.6167" x="2041.27" y="434.827">DC</text><path d="M2139.87 382.693C2147.76 384.774 2153.82 389.266 2158.05 396.169 2162.28 403.072 2164.39 411.4 2164.39 421.154 2164.39 430.934 2162.28 439.263 2158.07 446.139 2153.85 453.015 2147.79 457.493 2139.87 459.574L2138.9 456.453C2145.14 454.373 2149.78 450.266 2152.82 444.133 2155.86 438 2157.38 430.205 2157.38 420.749 2157.38 411.616 2155.87 404.031 2152.84 397.992 2149.81 391.954 2145.13 387.894 2138.78 385.814Z" fill-rule="evenodd"/><text fill="#000000" fill-opacity="0" font-family="Arial,Arial_MSFontService,sans-serif" font-size="76.8804" x="2138.78" y="449.964">)</text><path d="M2190.82 383.708 2242.82 383.708 2242.82 432.708 2190.82 432.708Z" stroke="#0070C0" stroke-width="8.47303" stroke-linejoin="round" stroke-miterlimit="10" fill="#4472C4" fill-rule="evenodd"/><path d="M2552.08 401.575C2549.84 401.575 2547.83 402.447 2546.06 404.189 2544.29 405.932 2543.26 408.357 2542.96 411.464L2560.15 411.464C2560.01 409.087 2559.73 407.411 2559.29 406.439 2558.62 404.926 2557.61 403.737 2556.28 402.872 2554.94 402.008 2553.54 401.575 2552.08 401.575ZM2504.8 398.739 2506.54 398.739 2506.54 406.601C2510.89 401.359 2515.04 398.739 2518.98 398.739 2521.01 398.739 2522.75 399.245 2524.21 400.258 2525.67 401.272 2526.83 402.94 2527.7 405.263 2528.29 406.885 2528.59 409.37 2528.59 412.72L2528.59 428.567C2528.59 430.917 2528.78 432.511 2529.16 433.349 2529.45 434.024 2529.93 434.551 2530.59 434.929 2531.26 435.308 2532.48 435.497 2534.26 435.497L2534.26 436.956 2515.9 436.956 2515.9 435.497 2516.67 435.497C2518.4 435.497 2519.61 435.233 2520.3 434.707 2520.99 434.18 2521.47 433.403 2521.74 432.376 2521.85 431.971 2521.9 430.701 2521.9 428.567L2521.9 413.369C2521.9 409.992 2521.46 407.54 2520.58 406.013 2519.71 404.487 2518.23 403.723 2516.15 403.723 2512.93 403.723 2509.73 405.48 2506.54 408.992L2506.54 428.567C2506.54 431.079 2506.69 432.633 2506.99 433.227 2507.37 434.011 2507.89 434.585 2508.55 434.95 2509.21 435.314 2510.55 435.497 2512.58 435.497L2512.58 436.956 2494.22 436.956 2494.22 435.497 2495.03 435.497C2496.92 435.497 2498.2 435.017 2498.86 434.058 2499.52 433.099 2499.85 431.268 2499.85 428.567L2499.85 414.787C2499.85 410.329 2499.75 407.614 2499.55 406.641 2499.35 405.669 2499.04 405.007 2498.62 404.656 2498.2 404.304 2497.64 404.129 2496.94 404.129 2496.18 404.129 2495.27 404.331 2494.22 404.737L2493.61 403.278ZM2554.35 398.698C2558.51 398.698 2561.93 400.069 2564.6 402.812 2567.28 405.554 2568.62 409.222 2568.62 413.815L2542.96 413.815C2542.93 419.326 2544.27 423.649 2546.97 426.783 2549.68 429.918 2552.85 431.485 2556.5 431.485 2558.93 431.485 2561.04 430.816 2562.84 429.479 2564.64 428.141 2566.14 425.851 2567.36 422.609L2568.62 423.42C2568.05 427.121 2566.4 430.492 2563.67 433.531 2560.94 436.571 2557.52 438.091 2553.42 438.091 2548.96 438.091 2545.14 436.355 2541.97 432.883 2538.79 429.411 2537.21 424.744 2537.21 418.881 2537.21 412.531 2538.83 407.58 2542.09 404.027 2545.35 400.474 2549.43 398.698 2554.35 398.698ZM2291.65 393.348 2282.08 415.557 2300.97 415.557ZM2402.55 385.081C2400.98 385.081 2398.86 385.338 2396.19 385.851L2396.19 408.708C2396.7 408.708 2397.15 408.715 2397.53 408.729 2397.9 408.742 2398.22 408.749 2398.46 408.749 2403.7 408.749 2407.65 407.614 2410.31 405.345 2412.97 403.075 2414.3 400.184 2414.3 396.672 2414.3 393.24 2413.23 390.451 2411.08 388.303 2408.93 386.155 2406.09 385.081 2402.55 385.081ZM2347.55 385.081C2345.98 385.081 2343.86 385.338 2341.19 385.851L2341.19 408.708C2341.7 408.708 2342.15 408.715 2342.53 408.729 2342.9 408.742 2343.22 408.749 2343.46 408.749 2348.7 408.749 2352.65 407.614 2355.31 405.345 2357.97 403.075 2359.3 400.184 2359.3 396.672 2359.3 393.24 2358.23 390.451 2356.08 388.303 2353.93 386.155 2351.09 385.081 2347.55 385.081ZM2463.71 383.703C2458.79 383.703 2454.85 385.527 2451.88 389.174 2448.18 393.713 2446.33 400.36 2446.33 409.114 2446.33 418.084 2448.24 424.987 2452.08 429.823 2455.03 433.497 2458.92 435.335 2463.75 435.335 2468.91 435.335 2473.18 433.322 2476.54 429.296 2479.9 425.27 2481.58 418.921 2481.58 410.248 2481.58 400.846 2479.73 393.835 2476.03 389.215 2473.06 385.54 2468.95 383.703 2463.71 383.703ZM2570.03 382.001 2584.95 382.001 2618.54 423.217 2618.54 391.525C2618.54 388.147 2618.17 386.04 2617.41 385.202 2616.41 384.068 2614.83 383.5 2612.67 383.5L2610.76 383.5 2610.76 382.001 2629.89 382.001 2629.89 383.5 2627.95 383.5C2625.62 383.5 2623.97 384.203 2623 385.608 2622.41 386.472 2622.11 388.445 2622.11 391.525L2622.11 437.847 2620.65 437.847 2584.42 393.592 2584.42 427.432C2584.42 430.809 2584.78 432.917 2585.51 433.754 2586.54 434.889 2588.12 435.456 2590.26 435.456L2592.2 435.456 2592.2 436.956 2573.07 436.956 2573.07 435.456 2574.98 435.456C2577.33 435.456 2578.99 434.754 2579.96 433.349 2580.56 432.484 2580.85 430.512 2580.85 427.432L2580.85 389.215C2579.26 387.35 2578.05 386.121 2577.23 385.527 2576.4 384.932 2575.19 384.378 2573.6 383.865 2572.82 383.622 2571.63 383.5 2570.03 383.5ZM2380.55 382.001 2400.57 382.001C2406.4 382.001 2410.7 382.426 2413.47 383.277 2416.24 384.128 2418.59 385.695 2420.53 387.979 2422.46 390.262 2423.42 392.984 2423.42 396.145 2423.42 399.522 2422.32 402.454 2420.12 404.939 2417.92 407.425 2414.51 409.181 2409.89 410.208L2421.23 425.973C2423.83 429.593 2426.06 431.998 2427.92 433.187 2429.79 434.376 2432.22 435.132 2435.22 435.456L2435.22 436.956 2420.55 436.956 2401.94 411.262C2400.57 411.316 2399.44 411.343 2398.58 411.343 2398.23 411.343 2397.85 411.336 2397.45 411.322 2397.04 411.309 2396.62 411.289 2396.19 411.262L2396.19 427.229C2396.19 430.688 2396.57 432.836 2397.32 433.673 2398.35 434.862 2399.89 435.456 2401.94 435.456L2404.09 435.456 2404.09 436.956 2380.55 436.956 2380.55 435.456 2382.61 435.456C2384.94 435.456 2386.6 434.7 2387.6 433.187 2388.16 432.349 2388.45 430.363 2388.45 427.229L2388.45 391.727C2388.45 388.269 2388.07 386.121 2387.31 385.283 2386.26 384.095 2384.69 383.5 2382.61 383.5L2380.55 383.5ZM2325.55 382.001 2345.57 382.001C2351.4 382.001 2355.7 382.426 2358.47 383.277 2361.24 384.128 2363.59 385.695 2365.53 387.979 2367.46 390.262 2368.42 392.984 2368.42 396.145 2368.42 399.522 2367.32 402.454 2365.12 404.939 2362.92 407.425 2359.51 409.181 2354.89 410.208L2366.23 425.973C2368.83 429.593 2371.06 431.998 2372.92 433.187 2374.79 434.376 2377.22 435.132 2380.22 435.456L2380.22 436.956 2365.55 436.956 2346.94 411.262C2345.57 411.316 2344.44 411.343 2343.58 411.343 2343.23 411.343 2342.85 411.336 2342.45 411.322 2342.04 411.309 2341.62 411.289 2341.19 411.262L2341.19 427.229C2341.19 430.688 2341.57 432.836 2342.32 433.673 2343.35 434.862 2344.89 435.456 2346.94 435.456L2349.09 435.456 2349.09 436.956 2325.55 436.956 2325.55 435.456 2327.61 435.456C2329.94 435.456 2331.6 434.7 2332.6 433.187 2333.16 432.349 2333.45 430.363 2333.45 427.229L2333.45 391.727C2333.45 388.269 2333.07 386.121 2332.31 385.283 2331.26 384.095 2329.69 383.5 2327.61 383.5L2325.55 383.5ZM2652.4 380.744C2655.32 380.744 2658.42 381.46 2661.68 382.892 2663.2 383.568 2664.26 383.906 2664.89 383.906 2665.59 383.906 2666.16 383.696 2666.61 383.277 2667.05 382.859 2667.41 382.014 2667.68 380.744L2669.18 380.744 2669.18 399.752 2667.68 399.752C2667.2 396.104 2666.32 393.2 2665.07 391.038 2663.81 388.877 2662.02 387.161 2659.7 385.891 2657.38 384.622 2654.97 383.987 2652.48 383.987 2649.68 383.987 2647.35 384.844 2645.51 386.56 2643.68 388.276 2642.76 390.228 2642.76 392.416 2642.76 394.091 2643.34 395.618 2644.5 396.996 2646.18 399.022 2650.16 401.724 2656.46 405.101 2661.59 407.857 2665.1 409.971 2666.97 411.444 2668.85 412.916 2670.3 414.652 2671.31 416.652 2672.32 418.651 2672.83 420.745 2672.83 422.933 2672.83 427.094 2671.22 430.681 2667.99 433.693 2664.76 436.706 2660.6 438.212 2655.52 438.212 2653.93 438.212 2652.43 438.091 2651.03 437.847 2650.19 437.712 2648.45 437.219 2645.82 436.368 2643.18 435.517 2641.52 435.092 2640.81 435.092 2640.14 435.092 2639.6 435.294 2639.21 435.699 2638.82 436.105 2638.53 436.942 2638.34 438.212L2636.84 438.212 2636.84 419.367 2638.34 419.367C2639.04 423.312 2639.99 426.263 2641.18 428.222 2642.37 430.181 2644.18 431.809 2646.63 433.106 2649.07 434.403 2651.76 435.051 2654.67 435.051 2658.05 435.051 2660.72 434.159 2662.68 432.376 2664.64 430.593 2665.62 428.486 2665.62 426.054 2665.62 424.703 2665.24 423.339 2664.5 421.961 2663.76 420.583 2662.6 419.299 2661.04 418.111 2659.98 417.3 2657.1 415.578 2652.4 412.943 2647.7 410.309 2644.36 408.208 2642.37 406.641 2640.39 405.074 2638.88 403.345 2637.85 401.454 2636.83 399.563 2636.31 397.482 2636.31 395.213 2636.31 391.268 2637.83 387.87 2640.85 385.02 2643.88 382.17 2647.73 380.744 2652.4 380.744ZM2464.48 380.744C2471.61 380.744 2477.8 383.453 2483.02 388.87 2488.25 394.287 2490.87 401.049 2490.87 409.154 2490.87 417.503 2488.23 424.433 2482.96 429.945 2477.69 435.456 2471.32 438.212 2463.83 438.212 2456.27 438.212 2449.91 435.524 2444.77 430.147 2439.62 424.771 2437.04 417.813 2437.04 409.276 2437.04 400.549 2440.02 393.429 2445.96 387.918 2451.12 383.136 2457.3 380.744 2464.48 380.744ZM2293.14 380.744 2294.56 380.744 2313.69 426.459C2315.23 430.134 2316.63 432.518 2317.89 433.612 2319.14 434.707 2320.89 435.321 2323.13 435.456L2323.13 436.956 2301.45 436.956 2301.45 435.456C2303.64 435.348 2305.12 434.984 2305.89 434.362 2306.66 433.741 2307.05 432.984 2307.05 432.093 2307.05 430.904 2306.51 429.026 2305.42 426.459L2302.1 418.556 2280.82 418.556 2277.1 427.229C2276.18 429.364 2275.72 430.958 2275.72 432.012 2275.72 432.849 2276.12 433.585 2276.91 434.22 2277.71 434.855 2279.43 435.267 2282.08 435.456L2282.08 436.956 2264.78 436.956 2264.78 435.456C2267.07 435.051 2268.56 434.524 2269.23 433.876 2270.61 432.579 2272.14 429.945 2273.81 425.973Z" fill-rule="evenodd"/><text fill="#000000" fill-opacity="0" font-family="Arial,Arial_MSFontService,sans-serif" font-size="57.4678" x="2264.78" y="431.029">ARROneNS</text><path d="M2694.77 419.249 2683.42 449.034 2704.15 449.034ZM2693.72 412.666 2698.13 412.666 2710.7 451.893 2710.7 453.8 2678.15 453.8 2678.15 451.893Z" fill-rule="evenodd"/><text fill="#000000" fill-opacity="0" font-family="Arial,Arial_MSFontService,sans-serif" font-size="41.1333" x="2678.15" y="448.658">∆</text><path d="M2766.28 378.394 2767.38 381.514C2761.05 383.595 2756.37 387.654 2753.33 393.693 2750.29 399.731 2748.77 407.317 2748.77 416.449 2748.77 425.905 2750.29 433.7 2753.33 439.833 2756.37 445.966 2761.01 450.073 2767.26 452.154L2766.28 455.274C2758.37 453.194 2752.3 448.716 2748.09 441.839 2743.87 434.963 2741.76 426.635 2741.76 416.854 2741.76 407.101 2743.88 398.772 2748.11 391.869 2752.33 384.966 2758.39 380.474 2766.28 378.394Z" fill-rule="evenodd"/><text fill="#000000" fill-opacity="0" font-family="Arial,Arial_MSFontService,sans-serif" font-size="76.8804" x="2741.76" y="445.664">(</text><path d="M2791.3 385.162C2789.46 385.162 2787.72 385.216 2786.07 385.324L2786.07 433.187C2787.15 433.295 2788.74 433.349 2790.85 433.349 2793.12 433.349 2795.15 433.16 2796.93 432.782 2798.71 432.403 2800.33 431.809 2801.79 430.998 2803.25 430.188 2804.56 429.06 2805.72 427.614 2806.89 426.169 2807.83 424.507 2808.56 422.629 2809.29 420.752 2809.82 418.664 2810.16 416.368 2810.5 414.071 2810.67 411.559 2810.67 408.83 2810.67 403.345 2809.88 398.84 2808.3 395.314 2806.72 391.788 2804.49 389.215 2801.61 387.594 2798.73 385.972 2795.29 385.162 2791.3 385.162ZM2773.71 381.636 2791.46 381.636C2796.56 381.636 2800.75 382.197 2804 383.318 2807.26 384.439 2810.01 386.094 2812.25 388.283 2814.49 390.471 2816.17 393.193 2817.27 396.449 2818.38 399.704 2818.94 403.588 2818.94 408.1 2818.94 412.666 2818.42 416.685 2817.38 420.157 2816.33 423.629 2814.81 426.54 2812.82 428.891 2811.09 430.944 2808.97 432.633 2806.45 433.957 2804.37 435.038 2801.97 435.808 2799.24 436.267 2796.51 436.726 2792.89 436.956 2788.38 436.956L2773.71 436.956 2773.71 434.97C2774.95 434.646 2775.84 434.335 2776.38 434.038 2776.92 433.741 2777.34 433.362 2777.64 432.903 2777.94 432.444 2778.15 431.782 2778.29 430.917 2778.42 430.053 2778.49 428.688 2778.49 426.824L2778.49 391.768C2778.49 389.877 2778.42 388.505 2778.29 387.654 2778.15 386.803 2777.93 386.148 2777.62 385.689 2777.31 385.229 2776.9 384.858 2776.38 384.574 2775.87 384.291 2774.98 383.973 2773.71 383.622ZM2851.13 380.988C2853.59 380.988 2855.86 381.116 2857.94 381.373 2860.02 381.629 2862.4 382.109 2865.07 382.811L2865.07 394.037 2861.06 394.037C2860.41 391.687 2859.59 389.816 2858.59 388.424 2857.59 387.033 2856.43 386.04 2855.1 385.446 2853.78 384.851 2852.19 384.554 2850.32 384.554 2847.54 384.554 2845.06 385.479 2842.88 387.33 2840.71 389.181 2839 391.964 2837.76 395.679 2836.51 399.394 2835.89 403.886 2835.89 409.154 2835.89 414.45 2836.41 418.968 2837.43 422.71 2838.46 426.453 2839.97 429.276 2841.97 431.181 2843.97 433.085 2846.43 434.038 2849.35 434.038 2851.56 434.038 2853.37 433.72 2854.78 433.085 2856.18 432.451 2857.37 431.444 2858.33 430.066 2859.28 428.688 2860.2 426.662 2861.06 423.987L2865.07 423.987 2865.07 435.578C2862.53 436.253 2859.93 436.76 2857.27 437.098 2854.61 437.435 2851.69 437.604 2848.5 437.604 2841.63 437.604 2836.45 435.281 2832.93 430.634 2829.42 425.986 2827.67 419.056 2827.67 409.843 2827.67 404.061 2828.58 398.995 2830.4 394.645 2832.23 390.295 2834.91 386.932 2838.45 384.554 2841.99 382.176 2846.21 380.988 2851.13 380.988Z" fill-rule="evenodd"/><text fill="#000000" fill-opacity="0" font-family="Arial,Arial_MSFontService,sans-serif" font-size="56.6167" x="2773.71" y="430.527">DC</text><path d="M2872.31 378.394C2880.2 380.474 2886.26 384.966 2890.49 391.869 2894.72 398.772 2896.83 407.101 2896.83 416.854 2896.83 426.635 2894.72 434.963 2890.51 441.839 2886.29 448.716 2880.23 453.194 2872.31 455.274L2871.34 452.154C2877.58 450.073 2882.22 445.966 2885.26 439.833 2888.3 433.7 2889.82 425.905 2889.82 416.449 2889.82 407.317 2888.31 399.731 2885.28 393.693 2882.25 387.654 2877.57 383.595 2871.22 381.514Z" fill-rule="evenodd"/><text fill="#000000" fill-opacity="0" font-family="Arial,Arial_MSFontService,sans-serif" font-size="76.8804" x="2871.22" y="445.664">)</text><path d="M2929.83 383.704 2980.82 383.704 2980.82 435.704 2929.83 435.704Z" stroke="#006600" stroke-width="8.47303" stroke-linejoin="round" stroke-miterlimit="10" fill="#006600" fill-rule="evenodd"/><path d="M3299.42 401.505C3297.99 401.505 3296.55 401.93 3295.11 402.781 3293.66 403.632 3292.49 405.125 3291.6 407.259 3290.71 409.394 3290.26 412.136 3290.26 415.487 3290.26 420.89 3291.34 425.551 3293.49 429.468 3295.63 433.386 3298.46 435.345 3301.98 435.345 3304.6 435.345 3306.76 434.264 3308.46 432.103 3310.16 429.941 3311.01 426.226 3311.01 420.958 3311.01 414.365 3309.59 409.178 3306.76 405.395 3304.84 402.801 3302.39 401.505 3299.42 401.505ZM3220.46 399.965 3236.02 399.965 3236.02 401.464C3234.59 401.572 3233.65 401.829 3233.2 402.234 3232.76 402.639 3232.53 403.22 3232.53 403.977 3232.53 404.814 3232.76 405.827 3233.22 407.016L3241.17 428.374 3249.15 410.988 3247.04 405.517C3246.39 403.896 3245.54 402.774 3244.49 402.153 3243.89 401.775 3242.79 401.545 3241.17 401.464L3241.17 399.965 3258.84 399.965 3258.84 401.464C3256.89 401.545 3255.51 401.896 3254.7 402.518 3254.16 402.95 3253.89 403.639 3253.89 404.585 3253.89 405.125 3254 405.679 3254.22 406.246L3262.64 427.564 3270.47 407.016C3271.01 405.557 3271.28 404.396 3271.28 403.531 3271.28 403.018 3271.01 402.558 3270.49 402.153 3269.96 401.748 3268.93 401.518 3267.39 401.464L3267.39 399.965 3279.1 399.965 3279.1 401.464C3276.75 401.815 3275.02 403.409 3273.91 406.246L3261.51 438.222 3259.85 438.222 3250.57 414.514 3239.75 438.222 3238.25 438.222 3226.33 407.016C3225.55 405.044 3224.78 403.713 3224.02 403.024 3223.27 402.335 3222.08 401.815 3220.46 401.464ZM3300.68 398.87C3306.3 398.87 3310.81 401.005 3314.22 405.274 3317.11 408.921 3318.55 413.109 3318.55 417.837 3318.55 421.16 3317.75 424.524 3316.16 427.928 3314.57 431.333 3312.37 433.899 3309.57 435.629 3306.78 437.358 3303.66 438.222 3300.23 438.222 3294.64 438.222 3290.2 435.993 3286.9 431.535 3284.12 427.78 3282.73 423.565 3282.73 418.891 3282.73 415.487 3283.57 412.102 3285.26 408.739 3286.95 405.375 3289.17 402.889 3291.93 401.282 3294.68 399.674 3297.6 398.87 3300.68 398.87ZM3027.45 393.48 3017.88 415.689 3036.77 415.689ZM3138.35 385.213C3136.79 385.213 3134.67 385.469 3131.99 385.983L3131.99 408.84C3132.5 408.84 3132.95 408.847 3133.33 408.86 3133.71 408.874 3134.02 408.881 3134.26 408.881 3139.5 408.881 3143.45 407.746 3146.11 405.476 3148.78 403.207 3150.11 400.316 3150.11 396.803 3150.11 393.372 3149.03 390.582 3146.88 388.435 3144.74 386.287 3141.89 385.213 3138.35 385.213ZM3083.35 385.213C3081.79 385.213 3079.67 385.469 3076.99 385.983L3076.99 408.84C3077.5 408.84 3077.95 408.847 3078.33 408.86 3078.71 408.874 3079.02 408.881 3079.26 408.881 3084.5 408.881 3088.45 407.746 3091.11 405.476 3093.78 403.207 3095.11 400.316 3095.11 396.803 3095.11 393.372 3094.03 390.582 3091.88 388.435 3089.74 386.287 3086.89 385.213 3083.35 385.213ZM3319.83 382.133 3334.75 382.133 3368.35 423.349 3368.35 391.656C3368.35 388.279 3367.97 386.172 3367.21 385.334 3366.21 384.199 3364.63 383.632 3362.47 383.632L3360.56 383.632 3360.56 382.133 3379.69 382.133 3379.69 383.632 3377.75 383.632C3375.42 383.632 3373.78 384.335 3372.8 385.739 3372.21 386.604 3371.91 388.576 3371.91 391.656L3371.91 437.979 3370.45 437.979 3334.22 393.723 3334.22 427.564C3334.22 430.941 3334.59 433.048 3335.32 433.886 3336.34 435.021 3337.92 435.588 3340.06 435.588L3342 435.588 3342 437.088 3322.87 437.088 3322.87 435.588 3324.78 435.588C3327.13 435.588 3328.79 434.886 3329.76 433.481 3330.36 432.616 3330.66 430.644 3330.66 427.564L3330.66 389.346C3329.06 387.482 3327.85 386.253 3327.03 385.658 3326.2 385.064 3325 384.51 3323.4 383.997 3322.62 383.754 3321.43 383.632 3319.83 383.632ZM3173.09 382.133 3217.95 382.133 3218.56 395.02 3217.02 395.02C3216.72 392.751 3216.32 391.13 3215.81 390.157 3214.97 388.59 3213.85 387.435 3212.46 386.692 3211.07 385.949 3209.24 385.577 3206.97 385.577L3199.23 385.577 3199.23 427.564C3199.23 430.941 3199.59 433.048 3200.32 433.886 3201.35 435.021 3202.93 435.588 3205.07 435.588L3206.97 435.588 3206.97 437.088 3183.67 437.088 3183.67 435.588 3185.61 435.588C3187.94 435.588 3189.58 434.886 3190.56 433.481 3191.15 432.616 3191.45 430.644 3191.45 427.564L3191.45 385.577 3184.84 385.577C3182.28 385.577 3180.45 385.766 3179.37 386.145 3177.97 386.658 3176.76 387.644 3175.76 389.103 3174.77 390.562 3174.17 392.535 3173.98 395.02L3172.44 395.02ZM3116.35 382.133 3136.37 382.133C3142.2 382.133 3146.51 382.558 3149.28 383.409 3152.05 384.26 3154.4 385.827 3156.33 388.11 3158.26 390.393 3159.23 393.115 3159.23 396.277 3159.23 399.654 3158.12 402.585 3155.92 405.071 3153.72 407.557 3150.31 409.313 3145.69 410.34L3157.04 426.105C3159.63 429.725 3161.86 432.13 3163.72 433.319 3165.59 434.507 3168.02 435.264 3171.02 435.588L3171.02 437.088 3156.35 437.088 3137.75 411.393C3136.37 411.447 3135.25 411.474 3134.38 411.474 3134.03 411.474 3133.65 411.468 3133.25 411.454 3132.84 411.441 3132.42 411.42 3131.99 411.393L3131.99 427.361C3131.99 430.819 3132.37 432.967 3133.13 433.805 3134.15 434.994 3135.69 435.588 3137.75 435.588L3139.89 435.588 3139.89 437.088 3116.35 437.088 3116.35 435.588 3118.41 435.588C3120.74 435.588 3122.4 434.832 3123.4 433.319 3123.97 432.481 3124.25 430.495 3124.25 427.361L3124.25 391.859C3124.25 388.401 3123.87 386.253 3123.12 385.415 3122.06 384.226 3120.49 383.632 3118.41 383.632L3116.35 383.632ZM3061.35 382.133 3081.37 382.133C3087.2 382.133 3091.51 382.558 3094.28 383.409 3097.05 384.26 3099.4 385.827 3101.33 388.11 3103.26 390.393 3104.23 393.115 3104.23 396.277 3104.23 399.654 3103.12 402.585 3100.92 405.071 3098.72 407.557 3095.31 409.313 3090.69 410.34L3102.04 426.105C3104.63 429.725 3106.86 432.13 3108.72 433.319 3110.59 434.507 3113.02 435.264 3116.02 435.588L3116.02 437.088 3101.35 437.088 3082.75 411.393C3081.37 411.447 3080.25 411.474 3079.38 411.474 3079.03 411.474 3078.65 411.468 3078.25 411.454 3077.84 411.441 3077.42 411.42 3076.99 411.393L3076.99 427.361C3076.99 430.819 3077.37 432.967 3078.13 433.805 3079.15 434.994 3080.69 435.588 3082.75 435.588L3084.89 435.588 3084.89 437.088 3061.35 437.088 3061.35 435.588 3063.41 435.588C3065.74 435.588 3067.4 434.832 3068.4 433.319 3068.97 432.481 3069.25 430.495 3069.25 427.361L3069.25 391.859C3069.25 388.401 3068.87 386.253 3068.12 385.415 3067.06 384.226 3065.49 383.632 3063.41 383.632L3061.35 383.632ZM3401.21 380.876C3404.12 380.876 3407.22 381.592 3410.49 383.024 3412 383.7 3413.07 384.037 3413.69 384.037 3414.39 384.037 3414.96 383.828 3415.41 383.409 3415.86 382.99 3416.21 382.146 3416.48 380.876L3417.98 380.876 3417.98 399.883 3416.48 399.883C3416 396.236 3415.13 393.332 3413.87 391.17 3412.61 389.009 3410.82 387.293 3408.5 386.023 3406.18 384.753 3403.77 384.118 3401.29 384.118 3398.48 384.118 3396.15 384.976 3394.32 386.692 3392.48 388.408 3391.56 390.36 3391.56 392.548 3391.56 394.223 3392.14 395.75 3393.3 397.128 3394.98 399.154 3398.96 401.856 3405.26 405.233 3410.39 407.989 3413.9 410.103 3415.78 411.576 3417.65 413.048 3419.1 414.784 3420.11 416.783 3421.12 418.783 3421.63 420.877 3421.63 423.065 3421.63 427.226 3420.02 430.813 3416.79 433.825 3413.56 436.838 3409.41 438.344 3404.33 438.344 3402.73 438.344 3401.23 438.222 3399.83 437.979 3398.99 437.844 3397.25 437.351 3394.62 436.5 3391.99 435.649 3390.32 435.223 3389.61 435.223 3388.94 435.223 3388.41 435.426 3388.01 435.831 3387.62 436.237 3387.33 437.074 3387.14 438.344L3385.64 438.344 3385.64 419.499 3387.14 419.499C3387.85 423.443 3388.79 426.395 3389.98 428.354 3391.17 430.313 3392.99 431.941 3395.43 433.237 3397.88 434.534 3400.56 435.183 3403.48 435.183 3406.85 435.183 3409.52 434.291 3411.48 432.508 3413.44 430.725 3414.42 428.617 3414.42 426.186 3414.42 424.835 3414.05 423.47 3413.3 422.092 3412.56 420.715 3411.41 419.431 3409.84 418.242 3408.78 417.432 3405.91 415.709 3401.21 413.075 3396.5 410.441 3393.16 408.34 3391.18 406.773 3389.19 405.206 3387.68 403.477 3386.66 401.586 3385.63 399.694 3385.12 397.614 3385.12 395.344 3385.12 391.4 3386.63 388.002 3389.66 385.152 3392.68 382.301 3396.53 380.876 3401.21 380.876ZM3028.95 380.876 3030.36 380.876 3049.49 426.591C3051.03 430.265 3052.43 432.65 3053.69 433.744 3054.94 434.838 3056.69 435.453 3058.94 435.588L3058.94 437.088 3037.25 437.088 3037.25 435.588C3039.44 435.48 3040.92 435.115 3041.69 434.494 3042.46 433.872 3042.85 433.116 3042.85 432.224 3042.85 431.035 3042.31 429.158 3041.23 426.591L3037.9 418.688 3016.63 418.688 3012.9 427.361C3011.98 429.495 3011.52 431.09 3011.52 432.143 3011.52 432.981 3011.92 433.717 3012.72 434.352 3013.51 434.987 3015.23 435.399 3017.88 435.588L3017.88 437.088 3000.58 437.088 3000.58 435.588C3002.87 435.183 3004.36 434.656 3005.04 434.008 3006.41 432.711 3007.94 430.076 3009.61 426.105Z" fill-rule="evenodd"/><text fill="#000000" fill-opacity="0" font-family="Arial,Arial_MSFontService,sans-serif" font-size="57.4678" x="3000.58" y="431.16">ARRTwoNS</text><path d="M3444.32 419.381 3432.97 449.166 3453.7 449.166ZM3443.28 412.798 3447.68 412.798 3460.25 452.025 3460.25 453.931 3427.7 453.931 3427.7 452.025Z" fill-rule="evenodd"/><text fill="#000000" fill-opacity="0" font-family="Arial,Arial_MSFontService,sans-serif" font-size="41.1333" x="3427.7" y="448.79">∆</text><path d="M3515.83 378.526 3516.93 381.646C3510.61 383.727 3505.93 387.786 3502.89 393.825 3499.85 399.863 3498.33 407.449 3498.33 416.581 3498.33 426.037 3499.85 433.832 3502.89 439.965 3505.93 446.098 3510.57 450.205 3516.81 452.285L3515.83 455.406C3507.92 453.326 3501.85 448.847 3497.64 441.971 3493.42 435.095 3491.32 426.767 3491.32 416.986 3491.32 407.232 3493.43 398.904 3497.66 392.001 3501.89 385.098 3507.95 380.606 3515.83 378.526Z" fill-rule="evenodd"/><text fill="#000000" fill-opacity="0" font-family="Arial,Arial_MSFontService,sans-serif" font-size="76.8804" x="3491.32" y="445.796">(</text><path d="M3540.85 385.294C3539.01 385.294 3537.27 385.348 3535.62 385.456L3535.62 433.319C3536.7 433.427 3538.29 433.481 3540.4 433.481 3542.67 433.481 3544.7 433.292 3546.48 432.913 3548.26 432.535 3549.89 431.941 3551.34 431.13 3552.8 430.32 3554.11 429.191 3555.28 427.746 3556.44 426.301 3557.38 424.639 3558.11 422.761 3558.84 420.883 3559.38 418.796 3559.71 416.5 3560.05 414.203 3560.22 411.69 3560.22 408.962 3560.22 403.477 3559.43 398.972 3557.85 395.446 3556.27 391.92 3554.04 389.346 3551.16 387.725 3548.28 386.104 3544.85 385.294 3540.85 385.294ZM3523.26 381.768 3541.01 381.768C3546.12 381.768 3550.3 382.328 3553.55 383.45 3556.81 384.571 3559.56 386.226 3561.8 388.414 3564.04 390.603 3565.72 393.325 3566.83 396.581 3567.93 399.836 3568.49 403.72 3568.49 408.232 3568.49 412.798 3567.97 416.817 3566.93 420.289 3565.89 423.761 3564.37 426.672 3562.37 429.023 3560.64 431.076 3558.52 432.765 3556.01 434.089 3553.92 435.169 3551.52 435.939 3548.79 436.399 3546.06 436.858 3542.44 437.088 3537.93 437.088L3523.26 437.088 3523.26 435.102C3524.5 434.778 3525.39 434.467 3525.93 434.17 3526.47 433.872 3526.89 433.494 3527.19 433.035 3527.49 432.576 3527.7 431.914 3527.84 431.049 3527.97 430.184 3528.04 428.82 3528.04 426.956L3528.04 391.9C3528.04 390.008 3527.97 388.637 3527.84 387.786 3527.7 386.935 3527.48 386.28 3527.17 385.82 3526.86 385.361 3526.45 384.99 3525.93 384.706 3525.42 384.422 3524.53 384.105 3523.26 383.754ZM3600.68 381.119C3603.14 381.119 3605.41 381.248 3607.49 381.504 3609.57 381.761 3611.95 382.241 3614.63 382.943L3614.63 394.169 3610.61 394.169C3609.96 391.819 3609.14 389.948 3608.14 388.556 3607.14 387.165 3605.98 386.172 3604.66 385.577 3603.33 384.983 3601.74 384.686 3599.87 384.686 3597.09 384.686 3594.61 385.611 3592.44 387.462 3590.26 389.313 3588.55 392.095 3587.31 395.81 3586.07 399.526 3585.45 404.017 3585.45 409.286 3585.45 414.581 3585.96 419.1 3586.99 422.842 3588.01 426.584 3589.53 429.408 3591.52 431.312 3593.52 433.217 3595.98 434.17 3598.9 434.17 3601.12 434.17 3602.93 433.852 3604.33 433.217 3605.74 432.582 3606.92 431.576 3607.88 430.198 3608.84 428.82 3609.75 426.794 3610.61 424.119L3614.63 424.119 3614.63 435.71C3612.09 436.385 3609.49 436.892 3606.82 437.229 3604.16 437.567 3601.24 437.736 3598.05 437.736 3591.19 437.736 3586 435.412 3582.49 430.765 3578.97 426.118 3577.22 419.188 3577.22 409.975 3577.22 404.193 3578.13 399.127 3579.95 394.777 3581.78 390.427 3584.46 387.063 3588 384.686 3591.54 382.308 3595.77 381.119 3600.68 381.119Z" fill-rule="evenodd"/><text fill="#000000" fill-opacity="0" font-family="Arial,Arial_MSFontService,sans-serif" font-size="56.6167" x="3523.26" y="430.659">DC</text><path d="M3621.86 378.526C3629.75 380.606 3635.81 385.098 3640.04 392.001 3644.27 398.904 3646.38 407.232 3646.38 416.986 3646.38 426.767 3644.27 435.095 3640.06 441.971 3635.85 448.847 3629.78 453.326 3621.86 455.406L3620.89 452.285C3627.13 450.205 3631.77 446.098 3634.81 439.965 3637.85 433.832 3639.37 426.037 3639.37 416.581 3639.37 407.449 3637.86 399.863 3634.83 393.825 3631.81 387.786 3627.12 383.727 3620.77 381.646Z" fill-rule="evenodd"/><text fill="#000000" fill-opacity="0" font-family="Arial,Arial_MSFontService,sans-serif" font-size="76.8804" x="3620.77" y="445.796">)</text><rect x="905.5" y="342.5" width="2769" height="133" stroke="#000000" stroke-width="3.4375" stroke-miterlimit="8" fill="none"/><path d="M926.825 385.705 977.825 385.705 977.825 437.704 926.825 437.704Z" stroke="#000000" stroke-width="8.47303" stroke-linejoin="round" stroke-miterlimit="10" fill-rule="evenodd"/><path d="M1025.17 399.422 1015.61 421.631 1034.49 421.631ZM1136.08 391.154C1134.51 391.154 1132.39 391.411 1129.72 391.924L1129.72 414.782C1130.23 414.782 1130.68 414.789 1131.05 414.802 1131.43 414.816 1131.74 414.822 1131.99 414.822 1137.23 414.822 1141.18 413.688 1143.84 411.418 1146.5 409.149 1147.83 406.258 1147.83 402.745 1147.83 399.314 1146.76 396.524 1144.61 394.376 1142.46 392.228 1139.62 391.154 1136.08 391.154ZM1081.08 391.154C1079.51 391.154 1077.39 391.411 1074.72 391.924L1074.72 414.782C1075.23 414.782 1075.68 414.789 1076.05 414.802 1076.43 414.816 1076.74 414.822 1076.99 414.822 1082.23 414.822 1086.18 413.688 1088.84 411.418 1091.5 409.149 1092.83 406.258 1092.83 402.745 1092.83 399.314 1091.76 396.524 1089.61 394.376 1087.46 392.228 1084.62 391.154 1081.08 391.154ZM1114.07 388.074 1134.09 388.074C1139.93 388.074 1144.23 388.5 1147 389.351 1149.77 390.202 1152.12 391.769 1154.05 394.052 1155.98 396.335 1156.95 399.057 1156.95 402.218 1156.95 405.596 1155.85 408.527 1153.65 411.013 1151.45 413.499 1148.03 415.255 1143.41 416.281L1154.76 432.047C1157.36 435.667 1159.58 438.072 1161.45 439.26 1163.31 440.449 1165.75 441.206 1168.74 441.53L1168.74 443.029 1154.07 443.029 1135.47 417.335C1134.09 417.389 1132.97 417.416 1132.11 417.416 1131.76 417.416 1131.38 417.409 1130.97 417.396 1130.57 417.382 1130.15 417.362 1129.72 417.335L1129.72 433.303C1129.72 436.761 1130.09 438.909 1130.85 439.747 1131.88 440.936 1133.42 441.53 1135.47 441.53L1137.62 441.53 1137.62 443.029 1114.07 443.029 1114.07 441.53 1116.14 441.53C1118.46 441.53 1120.12 440.773 1121.12 439.26 1121.69 438.423 1121.98 436.437 1121.98 433.303L1121.98 397.801C1121.98 394.343 1121.6 392.195 1120.84 391.357 1119.79 390.168 1118.22 389.574 1116.14 389.574L1114.07 389.574ZM1059.07 388.074 1079.09 388.074C1084.93 388.074 1089.23 388.5 1092 389.351 1094.77 390.202 1097.12 391.769 1099.05 394.052 1100.98 396.335 1101.95 399.057 1101.95 402.218 1101.95 405.596 1100.85 408.527 1098.65 411.013 1096.45 413.499 1093.03 415.255 1088.41 416.281L1099.76 432.047C1102.36 435.667 1104.58 438.072 1106.45 439.26 1108.31 440.449 1110.75 441.206 1113.74 441.53L1113.74 443.029 1099.07 443.029 1080.47 417.335C1079.09 417.389 1077.97 417.416 1077.11 417.416 1076.76 417.416 1076.38 417.409 1075.97 417.396 1075.57 417.382 1075.15 417.362 1074.72 417.335L1074.72 433.303C1074.72 436.761 1075.09 438.909 1075.85 439.747 1076.88 440.936 1078.42 441.53 1080.47 441.53L1082.62 441.53 1082.62 443.029 1059.07 443.029 1059.07 441.53 1061.14 441.53C1063.46 441.53 1065.12 440.773 1066.12 439.26 1066.69 438.423 1066.98 436.437 1066.98 433.303L1066.98 397.801C1066.98 394.343 1066.6 392.195 1065.84 391.357 1064.79 390.168 1063.22 389.574 1061.14 389.574L1059.07 389.574ZM1026.67 386.818 1028.09 386.818 1047.22 432.533C1048.76 436.207 1050.16 438.592 1051.41 439.686 1052.67 440.78 1054.42 441.395 1056.66 441.53L1056.66 443.029 1034.98 443.029 1034.98 441.53C1037.17 441.422 1038.65 441.057 1039.42 440.436 1040.19 439.814 1040.57 439.058 1040.57 438.166 1040.57 436.977 1040.03 435.1 1038.95 432.533L1035.63 424.63 1014.35 424.63 1010.62 433.303C1009.7 435.437 1009.25 437.031 1009.25 438.085 1009.25 438.923 1009.64 439.659 1010.44 440.294 1011.24 440.929 1012.96 441.341 1015.61 441.53L1015.61 443.029 998.303 443.029 998.303 441.53C1000.6 441.125 1002.09 440.598 1002.76 439.949 1004.14 438.653 1005.67 436.018 1007.34 432.047Z" fill-rule="evenodd"/><text fill="#000000" fill-opacity="0" font-family="Arial,Arial_MSFontService,sans-serif" font-size="56.2114" x="998.303" y="436.003">ARR</text><path d="M1385.49 420.902C1381.41 422.523 1378.78 423.671 1377.59 424.346 1375.45 425.535 1373.93 426.778 1373.01 428.075 1372.09 429.372 1371.63 430.79 1371.63 432.33 1371.63 434.276 1372.21 435.89 1373.37 437.173 1374.53 438.457 1375.87 439.098 1377.38 439.098 1379.44 439.098 1382.14 437.747 1385.49 435.046ZM1319.06 410.567C1317.63 410.567 1316.19 410.932 1314.76 411.661 1313.68 412.202 1312.3 413.282 1310.63 414.904L1310.63 437.112C1312.01 438.463 1313.43 439.483 1314.9 440.172 1316.38 440.861 1317.88 441.206 1319.42 441.206 1321.88 441.206 1324.17 439.855 1326.29 437.153 1328.41 434.451 1329.47 430.52 1329.47 425.36 1329.47 420.604 1328.41 416.95 1326.29 414.397 1324.17 411.844 1321.76 410.567 1319.06 410.567ZM1448.82 407.649C1446.57 407.649 1444.57 408.52 1442.8 410.263 1441.03 412.006 1439.99 414.431 1439.7 417.538L1456.88 417.538C1456.75 415.16 1456.46 413.485 1456.03 412.512 1455.35 410.999 1454.35 409.811 1453.01 408.946 1451.67 408.081 1450.28 407.649 1448.82 407.649ZM1488.09 407.284C1485.71 407.284 1483.59 408.352 1481.72 410.486 1479.26 413.296 1478.04 417.403 1478.04 422.806 1478.04 428.264 1479.22 432.445 1481.6 435.35 1483.98 438.254 1486.63 439.706 1489.54 439.706 1492 439.706 1494.38 438.477 1496.68 436.018L1496.68 416.889C1496.52 415.052 1496.03 413.377 1495.22 411.864 1494.41 410.351 1493.33 409.209 1492 408.439 1490.66 407.669 1489.36 407.284 1488.09 407.284ZM1215.94 405.906 1228.95 405.906 1228.95 430.75C1228.95 434.208 1229.55 436.478 1230.76 437.558 1231.96 438.639 1233.41 439.179 1235.11 439.179 1236.27 439.179 1237.59 438.815 1239.06 438.085 1240.54 437.356 1242.29 435.964 1244.31 433.911L1244.31 412.877C1244.31 410.77 1243.93 409.345 1243.16 408.602 1242.39 407.859 1240.79 407.46 1238.36 407.406L1238.36 405.906 1251 405.906 1251 428.399C1251 432.695 1251.1 435.323 1251.3 436.282 1251.51 437.241 1251.83 437.91 1252.28 438.288 1252.72 438.666 1253.24 438.855 1253.84 438.855 1254.67 438.855 1255.62 438.626 1256.67 438.166L1257.24 439.585 1246.14 444.164 1244.31 444.164 1244.31 436.302C1241.12 439.76 1238.69 441.935 1237.02 442.827 1235.34 443.718 1233.57 444.164 1231.71 444.164 1229.63 444.164 1227.82 443.563 1226.3 442.361 1224.77 441.158 1223.71 439.612 1223.12 437.72 1222.52 435.829 1222.23 433.154 1222.23 429.696L1222.23 413.12C1222.23 411.364 1222.04 410.148 1221.66 409.473 1221.28 408.797 1220.72 408.277 1219.98 407.913 1219.23 407.548 1217.89 407.379 1215.94 407.406ZM1414.18 404.812C1415.64 404.812 1417.41 405.123 1419.49 405.744 1420.87 406.15 1421.79 406.352 1422.25 406.352 1422.68 406.352 1423.02 406.258 1423.26 406.069 1423.5 405.879 1423.79 405.461 1424.11 404.812L1425.45 404.812 1425.45 417.457 1424.11 417.457C1423.08 413.485 1421.77 410.783 1420.16 409.351 1418.55 407.919 1416.51 407.203 1414.02 407.203 1412.13 407.203 1410.6 407.703 1409.44 408.703 1408.28 409.703 1407.7 410.81 1407.7 412.026 1407.7 413.539 1408.13 414.836 1408.99 415.917 1409.83 417.024 1411.53 418.2 1414.1 419.443L1420.02 422.32C1425.5 424.995 1428.24 428.521 1428.24 432.898 1428.24 436.275 1426.97 438.997 1424.42 441.064 1421.86 443.131 1419 444.164 1415.84 444.164 1413.57 444.164 1410.98 443.759 1408.06 442.948 1407.17 442.678 1406.44 442.543 1405.87 442.543 1405.25 442.543 1404.77 442.894 1404.41 443.597L1403.08 443.597 1403.08 430.344 1404.41 430.344C1405.17 434.127 1406.62 436.977 1408.75 438.896 1410.89 440.814 1413.28 441.773 1415.92 441.773 1417.79 441.773 1419.31 441.226 1420.48 440.132 1421.66 439.038 1422.25 437.72 1422.25 436.18 1422.25 434.316 1421.59 432.749 1420.28 431.479 1418.97 430.209 1416.36 428.602 1412.44 426.656 1408.52 424.711 1405.95 422.955 1404.74 421.388 1403.52 419.848 1402.92 417.903 1402.92 415.552 1402.92 412.499 1403.96 409.946 1406.06 407.892 1408.15 405.839 1410.86 404.812 1414.18 404.812ZM1379.82 404.812C1383.11 404.812 1385.81 405.366 1387.92 406.474 1389.52 407.311 1390.69 408.622 1391.45 410.405 1391.93 411.567 1392.18 413.944 1392.18 417.538L1392.18 430.142C1392.18 433.681 1392.24 435.849 1392.38 436.646 1392.51 437.443 1392.74 437.977 1393.05 438.247 1393.36 438.517 1393.72 438.653 1394.12 438.653 1394.55 438.653 1394.93 438.558 1395.26 438.369 1395.82 438.018 1396.92 437.031 1398.54 435.41L1398.54 437.68C1395.51 441.733 1392.62 443.759 1389.87 443.759 1388.54 443.759 1387.49 443.3 1386.71 442.381 1385.92 441.462 1385.52 439.895 1385.49 437.68 1381.68 440.625 1379.29 442.327 1378.32 442.786 1376.86 443.462 1375.3 443.799 1373.66 443.799 1371.09 443.799 1368.98 442.921 1367.31 441.165 1365.65 439.409 1364.82 437.099 1364.82 434.235 1364.82 432.425 1365.23 430.858 1366.04 429.534 1367.14 427.697 1369.07 425.967 1371.81 424.346 1374.55 422.725 1379.11 420.753 1385.49 418.429L1385.49 416.97C1385.49 413.269 1384.9 410.729 1383.73 409.351 1382.55 407.973 1380.84 407.284 1378.6 407.284 1376.9 407.284 1375.55 407.744 1374.55 408.662 1373.52 409.581 1373.01 410.635 1373.01 411.823L1373.09 414.174C1373.09 415.417 1372.77 416.376 1372.14 417.051 1371.5 417.727 1370.67 418.065 1369.64 418.065 1368.64 418.065 1367.83 417.713 1367.19 417.011 1366.56 416.308 1366.24 415.349 1366.24 414.133 1366.24 411.81 1367.43 409.675 1369.81 407.73 1372.18 405.785 1375.52 404.812 1379.82 404.812ZM1352.48 404.812 1354.26 404.812 1354.26 434.64C1354.26 436.964 1354.43 438.511 1354.77 439.281 1355.11 440.051 1355.61 440.625 1356.27 441.003 1356.93 441.381 1358.14 441.57 1359.9 441.57L1359.9 443.029 1341.86 443.029 1341.86 441.57C1343.67 441.57 1344.89 441.395 1345.51 441.044 1346.13 440.692 1346.62 440.112 1346.99 439.301 1347.35 438.49 1347.54 436.937 1347.54 434.64L1347.54 420.334C1347.54 416.308 1347.41 413.701 1347.17 412.512 1346.98 411.648 1346.68 411.047 1346.28 410.709 1345.87 410.371 1345.32 410.202 1344.62 410.202 1343.86 410.202 1342.94 410.405 1341.86 410.81L1341.29 409.351ZM1268.53 404.812 1270.28 404.812 1270.28 412.674C1274.63 407.433 1278.77 404.812 1282.72 404.812 1284.75 404.812 1286.49 405.319 1287.95 406.332 1289.41 407.345 1290.57 409.014 1291.43 411.337 1292.03 412.958 1292.32 415.444 1292.32 418.794L1292.32 434.64C1292.32 436.991 1292.51 438.585 1292.89 439.423 1293.19 440.098 1293.67 440.625 1294.33 441.003 1294.99 441.381 1296.21 441.57 1298 441.57L1298 443.029 1279.64 443.029 1279.64 441.57 1280.41 441.57C1282.14 441.57 1283.35 441.307 1284.04 440.78 1284.73 440.253 1285.2 439.477 1285.47 438.45 1285.58 438.045 1285.64 436.775 1285.64 434.64L1285.64 419.443C1285.64 416.065 1285.2 413.613 1284.32 412.087 1283.44 410.56 1281.96 409.797 1279.88 409.797 1276.67 409.797 1273.47 411.553 1270.28 415.066L1270.28 434.64C1270.28 437.153 1270.43 438.707 1270.72 439.301 1271.1 440.085 1271.62 440.659 1272.28 441.023 1272.95 441.388 1274.29 441.57 1276.32 441.57L1276.32 443.029 1257.96 443.029 1257.96 441.57 1258.77 441.57C1260.66 441.57 1261.94 441.091 1262.6 440.132 1263.26 439.173 1263.59 437.342 1263.59 434.64L1263.59 420.861C1263.59 416.403 1263.49 413.688 1263.29 412.715 1263.08 411.742 1262.77 411.08 1262.35 410.729 1261.94 410.378 1261.37 410.202 1260.67 410.202 1259.92 410.202 1259.01 410.405 1257.96 410.81L1257.35 409.351ZM1451.09 404.772C1455.25 404.772 1458.66 406.143 1461.34 408.885 1464.01 411.628 1465.35 415.295 1465.35 419.888L1439.7 419.888C1439.67 425.4 1441.01 429.723 1443.71 432.857 1446.41 435.991 1449.59 437.558 1453.23 437.558 1455.67 437.558 1457.78 436.89 1459.58 435.552 1461.37 434.215 1462.88 431.925 1464.1 428.683L1465.35 429.493C1464.78 433.195 1463.14 436.565 1460.41 439.605 1457.68 442.644 1454.26 444.164 1450.15 444.164 1445.7 444.164 1441.88 442.428 1438.7 438.956 1435.53 435.485 1433.94 430.817 1433.94 424.954 1433.94 418.605 1435.57 413.654 1438.83 410.101 1442.08 406.548 1446.17 404.772 1451.09 404.772ZM1510.73 385.4C1514.83 387.426 1518.25 389.817 1520.98 392.573 1524.84 396.518 1527.83 401.144 1529.94 406.454 1532.04 411.763 1533.1 417.295 1533.1 423.049 1533.1 431.425 1531.04 439.065 1526.92 445.968 1522.8 452.871 1517.4 457.808 1510.73 460.78L1510.73 459.281C1514.05 457.417 1516.79 454.897 1518.93 451.723 1521.08 448.548 1522.68 444.509 1523.72 439.605 1524.76 434.701 1525.28 429.588 1525.28 424.265 1525.28 418.51 1524.83 413.255 1523.94 408.5 1523.26 404.772 1522.42 401.786 1521.41 399.544 1520.39 397.301 1519.05 395.14 1517.37 393.059 1515.7 390.979 1513.48 388.993 1510.73 387.102ZM1501.54 385.4 1503.36 385.4 1503.36 428.318C1503.36 432.668 1503.47 435.323 1503.67 436.282 1503.87 437.241 1504.2 437.91 1504.64 438.288 1505.09 438.666 1505.61 438.855 1506.2 438.855 1506.93 438.855 1507.9 438.626 1509.12 438.166L1509.57 439.585 1498.54 444.164 1496.68 444.164 1496.68 438.855C1494.87 440.746 1493.1 442.104 1491.37 442.928 1489.64 443.752 1487.78 444.164 1485.78 444.164 1481.72 444.164 1478.18 442.469 1475.16 439.078 1472.13 435.687 1470.62 431.331 1470.62 426.008 1470.62 420.685 1472.29 415.815 1475.64 411.398 1478.99 406.98 1483.3 404.772 1488.57 404.772 1491.84 404.772 1494.54 405.812 1496.68 407.892L1496.68 401.043C1496.68 396.801 1496.58 394.194 1496.37 393.221 1496.17 392.249 1495.85 391.587 1495.42 391.236 1494.99 390.884 1494.45 390.709 1493.8 390.709 1493.1 390.709 1492.17 390.925 1491 391.357L1490.48 389.939ZM1350.9 385.4C1352.03 385.4 1353 385.798 1353.8 386.595 1354.59 387.392 1354.99 388.358 1354.99 389.493 1354.99 390.628 1354.59 391.6 1353.8 392.411 1353 393.221 1352.03 393.627 1350.9 393.627 1349.76 393.627 1348.79 393.221 1347.98 392.411 1347.17 391.6 1346.77 390.628 1346.77 389.493 1346.77 388.358 1347.16 387.392 1347.96 386.595 1348.76 385.798 1349.74 385.4 1350.9 385.4ZM1308.81 385.4 1310.63 385.4 1310.63 412.31C1314.22 407.311 1318.1 404.812 1322.26 404.812 1326.07 404.812 1329.39 406.44 1332.23 409.696 1335.07 412.951 1336.49 417.403 1336.49 423.049 1336.49 429.642 1334.3 434.951 1329.92 438.977 1326.16 442.435 1321.98 444.164 1317.36 444.164 1315.19 444.164 1313 443.772 1310.77 442.989 1308.54 442.205 1306.27 441.03 1303.94 439.463L1303.94 401.003C1303.94 396.788 1303.84 394.194 1303.64 393.221 1303.44 392.249 1303.12 391.587 1302.69 391.236 1302.25 390.884 1301.71 390.709 1301.06 390.709 1300.31 390.709 1299.36 390.925 1298.23 391.357L1297.66 389.939ZM1213.64 385.4 1213.64 387.102C1210.31 388.939 1207.59 391.452 1205.45 394.64 1203.32 397.828 1201.72 401.867 1200.67 406.758 1199.62 411.648 1199.09 416.754 1199.09 422.077 1199.09 427.859 1199.53 433.114 1200.43 437.842 1201.13 441.57 1201.98 444.563 1202.98 446.819 1203.98 449.075 1205.32 451.243 1207.01 453.323 1208.7 455.404 1210.91 457.39 1213.64 459.281L1213.64 460.78C1209.56 458.727 1206.15 456.322 1203.43 453.567 1199.53 449.649 1196.54 445.029 1194.43 439.706 1192.32 434.384 1191.27 428.858 1191.27 423.131 1191.27 414.755 1193.33 407.116 1197.47 400.212 1201.6 393.309 1206.99 388.372 1213.64 385.4Z" fill-rule="evenodd"/><text fill="#000000" fill-opacity="0" font-family="Arial,Arial_MSFontService,sans-serif" font-size="75.3809" x="1191.27" y="451.358">(unbiased)</text></g></svg>