<svg width="2493" height="698" xmlns="http://www.w3.org/2000/svg" xmlns:xlink="http://www.w3.org/1999/xlink" overflow="hidden"><defs><clipPath id="clip0"><rect x="948" y="783" width="2493" height="698"/></clipPath></defs><g clip-path="url(#clip0)" transform="translate(-948 -783)"><text font-family="Times New Roman,Times New Roman_MSFontService,sans-serif" font-weight="400" font-size="92" transform="matrix(1 0 0 1 1075.34 1146)">Shape<tspan font-size="92" x="2.57837" y="-246">Name</tspan></text><path d="M1444.67 792.019 1444.67 1445.6" stroke="#000000" stroke-width="4.58333" stroke-linejoin="round" stroke-miterlimit="10" fill="none" fill-rule="evenodd"/><path d="M1914.5 792.019 1914.5 1445.6" stroke="#000000" stroke-width="4.58333" stroke-linejoin="round" stroke-miterlimit="10" fill="none" fill-rule="evenodd"/><path d="M2429.53 792.019 2429.53 1445.6" stroke="#000000" stroke-width="4.58333" stroke-linejoin="round" stroke-miterlimit="10" fill="none" fill-rule="evenodd"/><path d="M2931.1 792.019 2931.1 1445.6" stroke="#000000" stroke-width="4.58333" stroke-linejoin="round" stroke-miterlimit="10" fill="none" fill-rule="evenodd"/><path d="M965.038 937.311 3434.96 937.311" stroke="#000000" stroke-width="4.58333" stroke-linejoin="round" stroke-miterlimit="10" fill="none" fill-rule="evenodd"/><path d="M965.038 1300.31 3434.96 1300.31" stroke="#000000" stroke-width="4.58333" stroke-linejoin="round" stroke-miterlimit="10" fill="none" fill-rule="evenodd"/><path d="M967.33 792.019 967.33 1445.6" stroke="#000000" stroke-width="4.58333" stroke-linejoin="round" stroke-miterlimit="10" fill="none" fill-rule="evenodd"/><path d="M3432.67 792.019 3432.67 1445.6" stroke="#000000" stroke-width="4.58333" stroke-linejoin="round" stroke-miterlimit="10" fill="none" fill-rule="evenodd"/><path d="M965.038 794.311 3434.96 794.311" stroke="#000000" stroke-width="4.58333" stroke-linejoin="round" stroke-miterlimit="10" fill="none" fill-rule="evenodd"/><path d="M965.038 1443.31 3434.96 1443.31" stroke="#000000" stroke-width="4.58333" stroke-linejoin="round" stroke-miterlimit="10" fill="none" fill-rule="evenodd"/><text font-family="Times New Roman,Times New Roman_MSFontService,sans-serif" font-weight="400" font-size="92" transform="matrix(1 0 0 1 1544.97 901)">4<tspan font-size="92" x="45.8334" y="0">-</tspan><tspan font-size="92" x="76.198" y="0">cycle</tspan></text><path d="M1517.5 1122C1517.5 1106.81 1530.04 1094.5 1545.5 1094.5 1560.96 1094.5 1573.5 1106.81 1573.5 1122 1573.5 1137.19 1560.96 1149.5 1545.5 1149.5 1530.04 1149.5 1517.5 1137.19 1517.5 1122Z" stroke="#000000" stroke-width="4.58333" stroke-miterlimit="8" fill="none" fill-rule="evenodd"/><path d="M1778.5 1121.5C1778.5 1106.04 1791.04 1093.5 1806.5 1093.5 1821.96 1093.5 1834.5 1106.04 1834.5 1121.5 1834.5 1136.96 1821.96 1149.5 1806.5 1149.5 1791.04 1149.5 1778.5 1136.96 1778.5 1121.5Z" stroke="#000000" stroke-width="4.58333" stroke-miterlimit="8" fill="none" fill-rule="evenodd"/><path d="M1647.5 991.5C1647.5 976.036 1660.04 963.5 1675.5 963.5 1690.96 963.5 1703.5 976.036 1703.5 991.5 1703.5 1006.96 1690.96 1019.5 1675.5 1019.5 1660.04 1019.5 1647.5 1006.96 1647.5 991.5Z" stroke="#000000" stroke-width="4.58333" stroke-miterlimit="8" fill="#FFFFFF" fill-rule="evenodd"/><path d="M1647.5 1252C1647.5 1236.81 1660.04 1224.5 1675.5 1224.5 1690.96 1224.5 1703.5 1236.81 1703.5 1252 1703.5 1267.19 1690.96 1279.5 1675.5 1279.5 1660.04 1279.5 1647.5 1267.19 1647.5 1252Z" stroke="#000000" stroke-width="4.58333" stroke-miterlimit="8" fill="#FFFFFF" fill-rule="evenodd"/><path d="M0 0 94.2088 94.8425" stroke="#000000" stroke-width="5.72917" stroke-miterlimit="8" fill="none" fill-rule="evenodd" transform="matrix(-1 0 0 1 1649.21 1000)"/><path d="M0 0 94.2088 94.8425" stroke="#000000" stroke-width="5.72917" stroke-miterlimit="8" fill="none" fill-rule="evenodd" transform="matrix(-1 0 0 1 1794.21 1148)"/><path d="M1796.84 1094.84 1702 1000" stroke="#000000" stroke-width="5.72917" stroke-miterlimit="8" fill="none" fill-rule="evenodd"/><path d="M1648.84 1241.84 1554 1147" stroke="#000000" stroke-width="5.72917" stroke-miterlimit="8" fill="none" fill-rule="evenodd"/><path d="M1942.5 1186C1942.5 1170.81 1955.04 1158.5 1970.5 1158.5 1985.96 1158.5 1998.5 1170.81 1998.5 1186 1998.5 1201.19 1985.96 1213.5 1970.5 1213.5 1955.04 1213.5 1942.5 1201.19 1942.5 1186Z" stroke="#000000" stroke-width="4.58333" stroke-miterlimit="8" fill="none" fill-rule="evenodd"/><path d="M2208.5 1186C2208.5 1170.81 2220.81 1158.5 2236 1158.5 2251.19 1158.5 2263.5 1170.81 2263.5 1186 2263.5 1201.19 2251.19 1213.5 2236 1213.5 2220.81 1213.5 2208.5 1201.19 2208.5 1186Z" stroke="#000000" stroke-width="4.58333" stroke-miterlimit="8" fill="none" fill-rule="evenodd"/><path d="M2076.5 1056C2076.5 1040.81 2089.04 1028.5 2104.5 1028.5 2119.96 1028.5 2132.5 1040.81 2132.5 1056 2132.5 1071.19 2119.96 1083.5 2104.5 1083.5 2089.04 1083.5 2076.5 1071.19 2076.5 1056Z" stroke="#000000" stroke-width="4.58333" stroke-miterlimit="8" fill="#FFFFFF" fill-rule="evenodd"/><path d="M0 0 93.967 91.1387" stroke="#000000" stroke-width="5.72917" stroke-miterlimit="8" fill="none" fill-rule="evenodd" transform="matrix(-1 0 0 1 2083.97 1075)"/><path d="M2215.33 1166.04 2123 1075" stroke="#000000" stroke-width="5.72917" stroke-miterlimit="8" fill="none" fill-rule="evenodd"/><text font-family="Times New Roman,Times New Roman_MSFontService,sans-serif" font-weight="400" font-size="92" transform="matrix(1 0 0 1 2054.67 901)">3<tspan font-size="92" x="45.8335" y="0">-</tspan><tspan font-size="92" x="76.198" y="0">path</tspan></text><path d="M2340.5 1056C2340.5 1040.81 2353.04 1028.5 2368.5 1028.5 2383.96 1028.5 2396.5 1040.81 2396.5 1056 2396.5 1071.19 2383.96 1083.5 2368.5 1083.5 2353.04 1083.5 2340.5 1071.19 2340.5 1056Z" stroke="#000000" stroke-width="4.58333" stroke-miterlimit="8" fill="none" fill-rule="evenodd"/><path d="M0 0 92.8417 91.0322" stroke="#000000" stroke-width="5.72917" stroke-miterlimit="8" fill="none" fill-rule="evenodd" transform="matrix(-1 0 0 1 2347.84 1075)"/><text font-family="Times New Roman,Times New Roman_MSFontService,sans-serif" font-weight="400" font-size="92" transform="matrix(1 0 0 1 2576.31 901)">2<tspan font-size="92" x="45.8333" y="0">-</tspan><tspan font-size="92" x="76.1978" y="0">star</tspan><tspan font-size="92" x="501.876" y="0">3</tspan><tspan font-size="92" x="547.709" y="0">-</tspan><tspan font-size="92" x="578.074" y="0">star</tspan></text><path d="M3044.5 1222C3044.5 1206.81 3057.04 1194.5 3072.5 1194.5 3087.96 1194.5 3100.5 1206.81 3100.5 1222 3100.5 1237.19 3087.96 1249.5 3072.5 1249.5 3057.04 1249.5 3044.5 1237.19 3044.5 1222Z" stroke="#000000" stroke-width="4.58333" stroke-miterlimit="8" fill="none" fill-rule="evenodd"/><path d="M3263.5 1222C3263.5 1206.81 3276.04 1194.5 3291.5 1194.5 3306.96 1194.5 3319.5 1206.81 3319.5 1222 3319.5 1237.19 3306.96 1249.5 3291.5 1249.5 3276.04 1249.5 3263.5 1237.19 3263.5 1222Z" stroke="#000000" stroke-width="4.58333" stroke-miterlimit="8" fill="none" fill-rule="evenodd"/><path d="M3154.5 1133.5C3154.5 1118.04 3167.04 1105.5 3182.5 1105.5 3197.96 1105.5 3210.5 1118.04 3210.5 1133.5 3210.5 1148.96 3197.96 1161.5 3182.5 1161.5 3167.04 1161.5 3154.5 1148.96 3154.5 1133.5Z" stroke="#000000" stroke-width="4.58333" stroke-miterlimit="8" fill="#FFFFFF" fill-rule="evenodd"/><path d="M0 0 70.286 49.8887" stroke="#000000" stroke-width="5.72917" stroke-miterlimit="8" fill="none" fill-rule="evenodd" transform="matrix(-1 0 0 1 3162.29 1153)"/><path d="M3271.18 1202.79 3201 1153" stroke="#000000" stroke-width="5.72917" stroke-miterlimit="8" fill="none" fill-rule="evenodd"/><path d="M3154.5 1018C3154.5 1002.81 3166.81 990.5 3182 990.5 3197.19 990.5 3209.5 1002.81 3209.5 1018 3209.5 1033.19 3197.19 1045.5 3182 1045.5 3166.81 1045.5 3154.5 1033.19 3154.5 1018Z" stroke="#000000" stroke-width="4.58333" stroke-miterlimit="8" fill="none" fill-rule="evenodd"/><path d="M3182 1045 3182.09 1105.16" stroke="#000000" stroke-width="5.72917" stroke-miterlimit="8" fill="none" fill-rule="evenodd"/><path d="M2543.5 1188C2543.5 1172.81 2556.04 1160.5 2571.5 1160.5 2586.96 1160.5 2599.5 1172.81 2599.5 1188 2599.5 1203.19 2586.96 1215.5 2571.5 1215.5 2556.04 1215.5 2543.5 1203.19 2543.5 1188Z" stroke="#000000" stroke-width="4.58333" stroke-miterlimit="8" fill="none" fill-rule="evenodd"/><path d="M2762.5 1188C2762.5 1172.81 2775.04 1160.5 2790.5 1160.5 2805.96 1160.5 2818.5 1172.81 2818.5 1188 2818.5 1203.19 2805.96 1215.5 2790.5 1215.5 2775.04 1215.5 2762.5 1203.19 2762.5 1188Z" stroke="#000000" stroke-width="4.58333" stroke-miterlimit="8" fill="none" fill-rule="evenodd"/><path d="M2653.5 1059C2653.5 1043.81 2665.81 1031.5 2681 1031.5 2696.19 1031.5 2708.5 1043.81 2708.5 1059 2708.5 1074.19 2696.19 1086.5 2681 1086.5 2665.81 1086.5 2653.5 1074.19 2653.5 1059Z" stroke="#000000" stroke-width="4.58333" stroke-miterlimit="8" fill="#FFFFFF" fill-rule="evenodd"/><path d="M0 0 70.286 89.5345" stroke="#000000" stroke-width="5.72917" stroke-miterlimit="8" fill="none" fill-rule="evenodd" transform="matrix(-1 0 0 1 2661.29 1078)"/><path d="M2770.18 1167.44 2700 1078" stroke="#000000" stroke-width="5.72917" stroke-miterlimit="8" fill="none" fill-rule="evenodd"/><text font-family="Times New Roman,Times New Roman_MSFontService,sans-serif" font-weight="400" font-size="92" transform="matrix(1 0 0 1 1003.52 1405)">Count in </text><path d="M1383.08 1342.56C1385.93 1342.56 1388.53 1342.74 1390.9 1343.08 1393.26 1343.42 1395.86 1344.05 1398.67 1344.94L1395.93 1357.03 1391.62 1357.03C1391.35 1353.28 1390.52 1350.6 1389.15 1348.96 1387.77 1347.33 1385.52 1346.52 1382.41 1346.52 1379.89 1346.52 1377.54 1347.16 1375.36 1348.45 1373.17 1349.74 1371.1 1351.66 1369.13 1354.22 1367.17 1356.78 1365.41 1360.01 1363.83 1363.9 1362.26 1367.79 1361.04 1371.85 1360.17 1376.08 1359.3 1380.3 1358.87 1384.27 1358.87 1387.98 1358.87 1392.65 1359.67 1396.06 1361.27 1398.2 1362.88 1400.34 1365.38 1401.41 1368.8 1401.41 1370.03 1401.41 1371.28 1401.27 1372.57 1400.98 1373.86 1400.7 1375.06 1400.21 1376.19 1399.52 1377.31 1398.84 1378.31 1397.91 1379.17 1396.74 1380.04 1395.57 1380.67 1394.1 1381.06 1392.34L1381.56 1390.23C1382.21 1387.41 1382.54 1385 1382.54 1382.99 1382.54 1381.59 1382.19 1380.6 1381.49 1380.05 1380.78 1379.5 1379.67 1379.17 1378.14 1379.09L1378.64 1376.88 1396.6 1376.88 1396.11 1379.09C1394.97 1379.32 1394.15 1379.59 1393.64 1379.89 1393.13 1380.19 1392.67 1380.65 1392.27 1381.26 1391.86 1381.88 1391.47 1382.81 1391.08 1384.07 1390.69 1385.33 1390.18 1387.4 1389.55 1390.27L1386.45 1404.38 1382.9 1405.36 1380.57 1401.82C1377.45 1403.28 1375 1404.23 1373.2 1404.67 1371.4 1405.1 1369.58 1405.32 1367.72 1405.32 1362.09 1405.32 1357.81 1403.7 1354.87 1400.47 1351.94 1397.23 1350.47 1392.5 1350.47 1386.27 1350.47 1381.81 1351.22 1376.8 1352.72 1371.25 1354.21 1365.69 1356.39 1360.73 1359.25 1356.35 1362.11 1351.98 1365.57 1348.59 1369.63 1346.18 1373.69 1343.77 1378.17 1342.56 1383.08 1342.56Z" fill-rule="evenodd"/><text fill="#000000" fill-opacity="0" font-family="Arial,Arial_MSFontService,sans-serif" font-size="62.8008" x="1350.47" y="1397.51">ğº</text><path d="M1608.54 1342.66C1611.27 1342.66 1613.79 1342.82 1616.11 1343.15 1618.43 1343.48 1621.02 1344.08 1623.86 1344.95L1621.16 1357.12 1616.85 1357.12C1616.61 1353.44 1615.81 1350.78 1614.45 1349.15 1613.09 1347.52 1610.89 1346.7 1607.87 1346.7 1603.74 1346.7 1599.89 1348.77 1596.35 1352.9 1592.8 1357.03 1589.99 1362.49 1587.92 1369.28 1585.86 1376.06 1584.82 1382.36 1584.82 1388.17 1584.82 1392.72 1585.63 1396.07 1587.25 1398.23 1588.87 1400.38 1591.35 1401.46 1594.71 1401.46 1596.95 1401.46 1598.91 1401.13 1600.59 1400.45 1602.27 1399.78 1603.84 1398.64 1605.31 1397.04 1606.77 1395.44 1608.23 1393.2 1609.66 1390.32L1613.98 1390.32 1611.24 1403.08C1605.64 1404.64 1599.77 1405.42 1593.63 1405.42 1588 1405.42 1583.71 1403.8 1580.78 1400.56 1577.85 1397.33 1576.38 1392.6 1576.38 1386.37 1576.38 1381.97 1577.16 1376.89 1578.74 1371.14 1580.31 1365.39 1582.53 1360.34 1585.41 1356 1588.28 1351.66 1591.68 1348.35 1595.6 1346.07 1599.53 1343.8 1603.84 1342.66 1608.54 1342.66Z" fill-rule="evenodd"/><text fill="#000000" fill-opacity="0" font-family="Arial,Arial_MSFontService,sans-serif" font-size="62.7559" x="1576.38" y="1397.57">ğ¶</text><path d="M1640.45 1389.14C1638.35 1392.18 1636.26 1395.19 1634.18 1398.17 1632.1 1401.16 1630 1404.16 1627.88 1407.17L1627.88 1407.56 1640.45 1407.56 1640.45 1400.99C1640.45 1400.25 1640.46 1399.33 1640.48 1398.24 1640.5 1397.15 1640.53 1396.04 1640.56 1394.92 1640.59 1393.8 1640.63 1392.73 1640.68 1391.71 1640.72 1390.7 1640.76 1389.84 1640.81 1389.14ZM1641.39 1381.49 1646.6 1381.49 1646.6 1407.56 1647.19 1407.56C1648.08 1407.56 1648.8 1407.52 1649.36 1407.43 1649.92 1407.34 1650.36 1407.16 1650.7 1406.89 1651.04 1406.62 1651.32 1406.24 1651.55 1405.75 1651.78 1405.26 1652.03 1404.62 1652.29 1403.83L1655.07 1403.83C1655 1405.03 1654.93 1406.22 1654.86 1407.4 1654.78 1408.58 1654.71 1409.78 1654.64 1411L1646.6 1411 1646.6 1415.28C1646.6 1416.55 1646.62 1417.53 1646.68 1418.23 1646.73 1418.93 1646.9 1419.47 1647.17 1419.86 1647.44 1420.26 1647.85 1420.55 1648.38 1420.75 1648.91 1420.94 1649.66 1421.17 1650.62 1421.43L1650.62 1423.4 1636.49 1423.4 1636.49 1421.43C1637.14 1421.26 1637.7 1421.1 1638.16 1420.96 1638.61 1420.82 1639 1420.65 1639.3 1420.47 1639.61 1420.28 1639.83 1420.07 1639.97 1419.81 1640.11 1419.56 1640.22 1419.25 1640.3 1418.87 1640.38 1418.48 1640.42 1418 1640.43 1417.43 1640.44 1416.85 1640.45 1416.13 1640.45 1415.28L1640.45 1411 1622.03 1411 1622.03 1408.41C1625.28 1403.9 1628.51 1399.41 1631.71 1394.95 1634.92 1390.49 1638.15 1386 1641.39 1381.49Z" fill-rule="evenodd"/><text fill="#000000" fill-opacity="0" font-family="Arial,Arial_MSFontService,sans-serif" font-size="41.9077" x="1622.03" y="1418.16">4</text><path d="M1697.4 1339.78 1698.62 1343.24C1691.61 1345.55 1686.42 1350.05 1683.05 1356.74 1679.68 1363.44 1678 1371.84 1678 1381.97 1678 1392.45 1679.68 1401.09 1683.05 1407.89 1686.42 1414.68 1691.56 1419.24 1698.48 1421.54L1697.4 1425C1688.63 1422.7 1681.91 1417.73 1677.23 1410.11 1672.56 1402.49 1670.23 1393.26 1670.23 1382.42 1670.23 1371.6 1672.57 1362.37 1677.26 1354.72 1681.94 1347.07 1688.66 1342.09 1697.4 1339.78Z" fill-rule="evenodd"/><text fill="#000000" fill-opacity="0" font-family="Arial,Arial_MSFontService,sans-serif" font-size="85.2168" x="1670.23" y="1414.35">(</text><path d="M1738.63 1342.66C1741.48 1342.66 1744.08 1342.83 1746.45 1343.18 1748.81 1343.52 1751.4 1344.14 1754.22 1345.04L1751.48 1357.12 1747.17 1357.12C1746.9 1353.38 1746.07 1350.69 1744.7 1349.06 1743.32 1347.43 1741.07 1346.61 1737.96 1346.61 1735.44 1346.61 1733.09 1347.26 1730.9 1348.54 1728.72 1349.83 1726.64 1351.76 1724.68 1354.32 1722.72 1356.88 1720.95 1360.1 1719.38 1364 1717.81 1367.89 1716.59 1371.95 1715.72 1376.17 1714.85 1380.39 1714.42 1384.36 1714.42 1388.08 1714.42 1392.75 1715.22 1396.15 1716.82 1398.3 1718.42 1400.44 1720.93 1401.51 1724.35 1401.51 1725.57 1401.51 1726.83 1401.36 1728.12 1401.08 1729.41 1400.8 1730.61 1400.31 1731.74 1399.62 1732.86 1398.93 1733.85 1398 1734.72 1396.84 1735.59 1395.67 1736.22 1394.2 1736.61 1392.43L1737.1 1390.32C1737.76 1387.51 1738.09 1385.1 1738.09 1383.09 1738.09 1381.68 1737.74 1380.7 1737.04 1380.15 1736.33 1379.59 1735.22 1379.27 1733.69 1379.18L1734.18 1376.98 1752.15 1376.98 1751.66 1379.18C1750.52 1379.42 1749.7 1379.69 1749.19 1379.99 1748.68 1380.29 1748.22 1380.75 1747.82 1381.36 1747.41 1381.97 1747.02 1382.91 1746.63 1384.17 1746.24 1385.43 1745.73 1387.49 1745.1 1390.37L1742 1404.47 1738.45 1405.46 1736.11 1401.91C1733 1403.38 1730.54 1404.33 1728.75 1404.76 1726.95 1405.2 1725.12 1405.42 1723.27 1405.42 1717.64 1405.42 1713.35 1403.8 1710.42 1400.56 1707.48 1397.33 1706.02 1392.6 1706.02 1386.37 1706.02 1381.91 1706.77 1376.9 1708.26 1371.34 1709.76 1365.79 1711.94 1360.82 1714.8 1356.45 1717.66 1352.08 1721.12 1348.69 1725.18 1346.28 1729.23 1343.86 1733.72 1342.66 1738.63 1342.66Z" fill-rule="evenodd"/><text fill="#000000" fill-opacity="0" font-family="Arial,Arial_MSFontService,sans-serif" font-size="62.8008" x="1706.02" y="1397.61">ğº</text><path d="M1764.77 1339.78C1773.52 1342.09 1780.23 1347.07 1784.92 1354.72 1789.6 1362.37 1791.95 1371.6 1791.95 1382.42 1791.95 1393.26 1789.61 1402.49 1784.94 1410.11 1780.27 1417.73 1773.55 1422.7 1764.77 1425L1763.69 1421.54C1770.61 1419.24 1775.75 1414.68 1779.12 1407.89 1782.49 1401.09 1784.18 1392.45 1784.18 1381.97 1784.18 1371.84 1782.5 1363.44 1779.15 1356.74 1775.79 1350.05 1770.6 1345.55 1763.56 1343.24Z" fill-rule="evenodd"/><text fill="#000000" fill-opacity="0" font-family="Arial,Arial_MSFontService,sans-serif" font-size="85.2168" x="1763.56" y="1414.35">)</text><path d="M2089.34 1347.33C2087.48 1347.33 2085.53 1347.38 2083.5 1347.47L2077.39 1374.69 2082.06 1374.69C2085.68 1374.69 2088.61 1374.31 2090.84 1373.57 2093.07 1372.82 2094.9 1371.66 2096.32 1370.08 2097.74 1368.51 2098.84 1366.65 2099.62 1364.49 2100.4 1362.34 2100.79 1359.97 2100.79 1357.39 2100.79 1353.92 2099.91 1351.37 2098.14 1349.76 2096.37 1348.14 2093.44 1347.33 2089.34 1347.33ZM2070.51 1343.38 2090.32 1343.38C2093.89 1343.38 2096.82 1343.66 2099.11 1344.21 2101.4 1344.76 2103.28 1345.62 2104.77 1346.77 2106.25 1347.92 2107.36 1349.38 2108.09 1351.15 2108.82 1352.92 2109.19 1354.97 2109.19 1357.3 2109.19 1361.8 2108.13 1365.69 2106 1368.98 2103.88 1372.28 2100.99 1374.7 2097.35 1376.26 2093.72 1377.82 2089.35 1378.6 2084.26 1378.6 2081.21 1378.6 2078.66 1378.54 2076.62 1378.42L2073.75 1391.62C2073.48 1392.85 2073.29 1393.8 2073.19 1394.45 2073.08 1395.11 2072.99 1395.82 2072.92 1396.59 2072.84 1397.35 2072.8 1398.03 2072.8 1398.63 2072.8 1399.56 2072.95 1400.29 2073.25 1400.81 2073.55 1401.33 2074 1401.72 2074.6 1401.96 2075.2 1402.2 2076.23 1402.38 2077.7 1402.5L2077.21 1404.7 2058.74 1404.7 2059.24 1402.5C2060.38 1402.32 2061.23 1402.02 2061.8 1401.62 2062.37 1401.22 2062.85 1400.65 2063.24 1399.93 2063.63 1399.22 2063.99 1398.34 2064.31 1397.31 2064.64 1396.27 2065.14 1394.27 2065.8 1391.31L2073.43 1356.72C2074.09 1353.73 2074.42 1351.36 2074.42 1349.62 2074.42 1348.15 2074.08 1347.14 2073.39 1346.57 2072.7 1346 2071.58 1345.67 2070.02 1345.58Z" fill-rule="evenodd"/><text fill="#000000" fill-opacity="0" font-family="Arial,Arial_MSFontService,sans-serif" font-size="61.3184" x="2058.74" y="1397.03">ğ‘ƒ</text><path d="M2122.51 1381.03C2124.26 1381.03 2125.89 1381.22 2127.4 1381.59 2128.92 1381.96 2130.23 1382.52 2131.35 1383.27 2132.46 1384.02 2133.33 1384.96 2133.95 1386.09 2134.57 1387.21 2134.88 1388.51 2134.88 1389.99 2134.88 1391.39 2134.68 1392.62 2134.29 1393.69 2133.9 1394.76 2133.29 1395.73 2132.48 1396.6 2131.66 1397.48 2130.65 1398.27 2129.47 1398.97 2128.28 1399.68 2126.91 1400.37 2125.36 1401.02L2125.36 1401.41C2126.82 1401.67 2128.18 1402.09 2129.45 1402.67 2130.71 1403.25 2131.82 1403.98 2132.77 1404.86 2133.72 1405.75 2134.47 1406.77 2135.01 1407.92 2135.56 1409.08 2135.83 1410.35 2135.83 1411.75 2135.83 1413.49 2135.5 1415.11 2134.85 1416.61 2134.19 1418.1 2133.21 1419.39 2131.9 1420.48 2130.59 1421.58 2128.98 1422.43 2127.06 1423.04 2125.14 1423.65 2122.9 1423.95 2120.32 1423.95 2118.29 1423.95 2116.23 1423.75 2114.14 1423.35 2112.04 1422.94 2110.06 1422.42 2108.18 1421.76L2108.18 1414.69 2112.4 1414.69C2112.75 1415.78 2113.17 1416.72 2113.65 1417.49 2114.13 1418.27 2114.69 1418.9 2115.33 1419.39 2115.98 1419.88 2116.72 1420.23 2117.56 1420.45 2118.4 1420.67 2119.35 1420.78 2120.42 1420.78 2123.23 1420.78 2125.36 1420.11 2126.82 1418.77 2128.27 1417.43 2128.99 1415.39 2128.99 1412.67 2128.99 1409.77 2128.04 1407.57 2126.13 1406.07 2124.22 1404.58 2121.39 1403.83 2117.64 1403.83L2114.76 1403.83 2114.76 1400.69C2117.05 1400.58 2119.03 1400.26 2120.7 1399.73 2122.37 1399.19 2123.76 1398.5 2124.87 1397.65 2125.98 1396.8 2126.81 1395.81 2127.36 1394.67 2127.9 1393.54 2128.17 1392.33 2128.17 1391.04 2128.17 1388.95 2127.55 1387.3 2126.31 1386.09 2125.07 1384.87 2123.27 1384.27 2120.91 1384.27 2118.93 1384.27 2117.26 1384.81 2115.92 1385.91 2114.58 1387 2113.55 1388.62 2112.83 1390.78L2108.68 1390.78 2108.68 1384.33C2111.25 1383.24 2113.68 1382.42 2115.95 1381.86 2118.23 1381.31 2120.42 1381.03 2122.51 1381.03Z" fill-rule="evenodd"/><text fill="#000000" fill-opacity="0" font-family="Arial,Arial_MSFontService,sans-serif" font-size="42.9219" x="2108.18" y="1418.59">3</text><path d="M2181.07 1339.78 2182.29 1343.24C2175.28 1345.55 2170.09 1350.05 2166.72 1356.74 2163.35 1363.44 2161.67 1371.84 2161.67 1381.97 2161.67 1392.45 2163.35 1401.09 2166.72 1407.89 2170.09 1414.68 2175.23 1419.24 2182.15 1421.54L2181.07 1425C2172.3 1422.7 2165.58 1417.73 2160.9 1410.11 2156.23 1402.49 2153.9 1393.26 2153.9 1382.42 2153.9 1371.6 2156.24 1362.37 2160.93 1354.72 2165.61 1347.07 2172.33 1342.09 2181.07 1339.78Z" fill-rule="evenodd"/><text fill="#000000" fill-opacity="0" font-family="Arial,Arial_MSFontService,sans-serif" font-size="85.2168" x="2153.9" y="1414.35">(</text><path d="M2222.3 1342.66C2225.15 1342.66 2227.75 1342.83 2230.12 1343.18 2232.48 1343.52 2235.07 1344.14 2237.89 1345.04L2235.15 1357.12 2230.84 1357.12C2230.57 1353.38 2229.74 1350.69 2228.37 1349.06 2226.99 1347.43 2224.74 1346.61 2221.63 1346.61 2219.11 1346.61 2216.76 1347.26 2214.57 1348.54 2212.39 1349.83 2210.31 1351.76 2208.35 1354.32 2206.39 1356.88 2204.62 1360.1 2203.05 1364 2201.48 1367.89 2200.26 1371.95 2199.39 1376.17 2198.52 1380.39 2198.09 1384.36 2198.09 1388.08 2198.09 1392.75 2198.89 1396.15 2200.49 1398.3 2202.09 1400.44 2204.6 1401.51 2208.02 1401.51 2209.24 1401.51 2210.5 1401.36 2211.79 1401.08 2213.08 1400.8 2214.28 1400.31 2215.41 1399.62 2216.53 1398.93 2217.52 1398 2218.39 1396.84 2219.26 1395.67 2219.89 1394.2 2220.28 1392.43L2220.77 1390.32C2221.43 1387.51 2221.76 1385.1 2221.76 1383.09 2221.76 1381.68 2221.41 1380.7 2220.71 1380.15 2220 1379.59 2218.89 1379.27 2217.36 1379.18L2217.85 1376.98 2235.82 1376.98 2235.33 1379.18C2234.19 1379.42 2233.37 1379.69 2232.86 1379.99 2232.35 1380.29 2231.89 1380.75 2231.49 1381.36 2231.08 1381.97 2230.69 1382.91 2230.3 1384.17 2229.91 1385.43 2229.4 1387.49 2228.77 1390.37L2225.67 1404.47 2222.12 1405.46 2219.79 1401.91C2216.67 1403.38 2214.21 1404.33 2212.42 1404.76 2210.62 1405.2 2208.79 1405.42 2206.94 1405.42 2201.31 1405.42 2197.02 1403.8 2194.09 1400.56 2191.16 1397.33 2189.69 1392.6 2189.69 1386.37 2189.69 1381.91 2190.44 1376.9 2191.93 1371.34 2193.43 1365.79 2195.61 1360.82 2198.47 1356.45 2201.33 1352.08 2204.79 1348.69 2208.85 1346.28 2212.9 1343.86 2217.39 1342.66 2222.3 1342.66Z" fill-rule="evenodd"/><text fill="#000000" fill-opacity="0" font-family="Arial,Arial_MSFontService,sans-serif" font-size="62.8008" x="2189.69" y="1397.61">ğº</text><path d="M2248.44 1339.78C2257.19 1342.09 2263.9 1347.07 2268.59 1354.72 2273.28 1362.37 2275.62 1371.6 2275.62 1382.42 2275.62 1393.26 2273.28 1402.49 2268.61 1410.11 2263.94 1417.73 2257.22 1422.7 2248.44 1425L2247.36 1421.54C2254.28 1419.24 2259.42 1414.68 2262.79 1407.89 2266.16 1401.09 2267.85 1392.45 2267.85 1381.97 2267.85 1371.84 2266.17 1363.44 2262.82 1356.74 2259.46 1350.05 2254.27 1345.55 2247.23 1343.24Z" fill-rule="evenodd"/><text fill="#000000" fill-opacity="0" font-family="Arial,Arial_MSFontService,sans-serif" font-size="85.2168" x="2247.23" y="1414.35">)</text><path d="M2605.57 1342.66C2608.32 1342.66 2610.88 1342.85 2613.23 1343.22 2615.58 1343.6 2618.18 1344.23 2621.02 1345.13L2618.5 1356.68 2614.19 1356.68C2614.07 1354.13 2613.68 1352.13 2613.02 1350.68 2612.37 1349.23 2611.42 1348.19 2610.19 1347.56 2608.97 1346.93 2607.33 1346.61 2605.3 1346.61 2602.81 1346.61 2600.63 1347.12 2598.74 1348.14 2596.85 1349.16 2595.42 1350.54 2594.43 1352.3 2593.44 1354.05 2592.94 1356 2592.94 1358.16 2592.94 1360.4 2593.54 1362.37 2594.72 1364.07 2595.9 1365.76 2598.17 1367.76 2601.52 1370.06 2604.46 1372.1 2606.7 1373.92 2608.24 1375.52 2609.78 1377.12 2610.92 1378.82 2611.65 1380.62 2612.39 1382.42 2612.75 1384.5 2612.75 1386.86 2612.75 1390.52 2611.88 1393.76 2610.13 1396.59 2608.38 1399.42 2605.9 1401.6 2602.71 1403.15 2599.53 1404.69 2595.89 1405.46 2591.82 1405.46 2589.07 1405.46 2586.09 1405.24 2582.9 1404.79 2579.71 1404.34 2576.86 1403.77 2574.35 1403.08L2577.04 1390.73 2581.35 1390.73C2581.35 1394.38 2582.2 1397.1 2583.89 1398.88 2585.58 1400.66 2588.2 1401.55 2591.73 1401.55 2595.8 1401.55 2599.01 1400.44 2601.34 1398.23 2603.68 1396.01 2604.85 1392.93 2604.85 1388.97 2604.85 1387.15 2604.53 1385.54 2603.88 1384.15 2603.24 1382.75 2602.27 1381.42 2600.96 1380.15 2599.66 1378.87 2597.78 1377.41 2595.33 1375.77 2593.11 1374.27 2591.27 1372.79 2589.8 1371.34 2588.33 1369.89 2587.16 1368.27 2586.3 1366.47 2585.43 1364.67 2584.99 1362.67 2584.99 1360.45 2584.99 1356.92 2585.85 1353.8 2587.55 1351.11 2589.26 1348.41 2591.67 1346.33 2594.79 1344.86 2597.9 1343.39 2601.49 1342.66 2605.57 1342.66Z" fill-rule="evenodd"/><text fill="#000000" fill-opacity="0" font-family="Arial,Arial_MSFontService,sans-serif" font-size="62.8008" x="2574.35" y="1397.61">ğ‘†</text><path d="M2637.87 1381.03C2640.14 1381.03 2642.07 1381.29 2643.68 1381.8 2645.28 1382.31 2646.58 1383 2647.58 1383.88 2648.59 1384.75 2649.31 1385.8 2649.76 1387.02 2650.21 1388.24 2650.43 1389.56 2650.43 1390.98 2650.43 1391.83 2650.37 1392.62 2650.25 1393.35 2650.13 1394.08 2649.92 1394.8 2649.63 1395.51 2649.33 1396.22 2648.95 1396.93 2648.47 1397.65 2647.99 1398.37 2647.39 1399.13 2646.67 1399.94 2646.12 1400.64 2645.41 1401.45 2644.54 1402.36 2643.67 1403.28 2642.72 1404.26 2641.68 1405.31 2640.64 1406.35 2639.56 1407.44 2638.42 1408.58 2637.29 1409.71 2636.19 1410.83 2635.12 1411.95 2634.05 1413.06 2633.07 1414.14 2632.18 1415.19 2631.28 1416.23 2630.55 1417.19 2629.98 1418.06L2642.09 1418.06C2643.11 1418.06 2643.93 1418.03 2644.54 1417.95 2645.15 1417.87 2645.66 1417.7 2646.06 1417.44 2646.47 1417.18 2646.81 1416.78 2647.09 1416.25 2647.38 1415.71 2647.7 1414.98 2648.08 1414.04L2651.12 1414.04C2651.01 1415.59 2650.91 1417.15 2650.81 1418.72 2650.71 1420.29 2650.61 1421.85 2650.5 1423.4L2622.79 1423.4 2622.79 1421.7C2623.31 1420.52 2623.92 1419.36 2624.62 1418.21 2625.32 1417.07 2626.1 1415.91 2626.97 1414.73 2627.85 1413.55 2628.84 1412.33 2629.95 1411.08 2631.06 1409.83 2632.3 1408.52 2633.65 1407.17 2635.7 1405.12 2637.37 1403.37 2638.65 1401.92 2639.94 1400.47 2640.95 1399.18 2641.7 1398.04 2642.44 1396.91 2642.94 1395.86 2643.22 1394.9 2643.49 1393.94 2643.63 1392.92 2643.63 1391.83 2643.63 1390.71 2643.47 1389.69 2643.15 1388.75 2642.84 1387.81 2642.38 1387.02 2641.79 1386.36 2641.21 1385.71 2640.46 1385.2 2639.55 1384.83 2638.65 1384.46 2637.61 1384.27 2636.43 1384.27 2634.4 1384.27 2632.7 1384.82 2631.33 1385.92 2629.95 1387.02 2628.88 1388.62 2628.12 1390.71L2623.83 1390.71 2623.83 1384.34C2626.63 1383.18 2629.19 1382.34 2631.54 1381.82 2633.88 1381.29 2635.99 1381.03 2637.87 1381.03Z" fill-rule="evenodd"/><text fill="#000000" fill-opacity="0" font-family="Arial,Arial_MSFontService,sans-serif" font-size="42.3657" x="2622.79" y="1418.1">2</text><path d="M2696.36 1339.78 2697.58 1343.24C2690.57 1345.55 2685.38 1350.05 2682.01 1356.74 2678.64 1363.44 2676.96 1371.84 2676.96 1381.97 2676.96 1392.45 2678.64 1401.09 2682.01 1407.89 2685.38 1414.68 2690.52 1419.24 2697.44 1421.54L2696.36 1425C2687.59 1422.7 2680.87 1417.73 2676.19 1410.11 2671.52 1402.49 2669.19 1393.26 2669.19 1382.42 2669.19 1371.6 2671.53 1362.37 2676.22 1354.72 2680.9 1347.07 2687.62 1342.09 2696.36 1339.78Z" fill-rule="evenodd"/><text fill="#000000" fill-opacity="0" font-family="Arial,Arial_MSFontService,sans-serif" font-size="85.2168" x="2669.19" y="1414.35">(</text><path d="M2737.59 1342.66C2740.44 1342.66 2743.04 1342.83 2745.41 1343.18 2747.77 1343.52 2750.36 1344.14 2753.18 1345.04L2750.44 1357.12 2746.13 1357.12C2745.86 1353.38 2745.03 1350.69 2743.65 1349.06 2742.28 1347.43 2740.03 1346.61 2736.92 1346.61 2734.4 1346.61 2732.05 1347.26 2729.86 1348.54 2727.68 1349.83 2725.6 1351.76 2723.64 1354.32 2721.68 1356.88 2719.91 1360.1 2718.34 1364 2716.77 1367.89 2715.55 1371.95 2714.68 1376.17 2713.81 1380.39 2713.38 1384.36 2713.38 1388.08 2713.38 1392.75 2714.18 1396.15 2715.78 1398.3 2717.38 1400.44 2719.89 1401.51 2723.3 1401.51 2724.53 1401.51 2725.79 1401.37 2727.08 1401.08 2728.37 1400.8 2729.57 1400.31 2730.69 1399.62 2731.82 1398.93 2732.81 1398 2733.68 1396.84 2734.55 1395.67 2735.18 1394.2 2735.57 1392.43L2736.06 1390.32C2736.72 1387.51 2737.05 1385.1 2737.05 1383.09 2737.05 1381.68 2736.7 1380.7 2736 1380.15 2735.29 1379.59 2734.18 1379.27 2732.65 1379.18L2733.14 1376.98 2751.11 1376.98 2750.62 1379.18C2749.48 1379.42 2748.66 1379.69 2748.15 1379.99 2747.64 1380.29 2747.18 1380.75 2746.78 1381.36 2746.37 1381.97 2745.98 1382.91 2745.59 1384.17 2745.2 1385.43 2744.69 1387.49 2744.06 1390.37L2740.96 1404.47 2737.41 1405.46 2735.07 1401.91C2731.96 1403.38 2729.5 1404.33 2727.71 1404.76 2725.91 1405.2 2724.08 1405.42 2722.23 1405.42 2716.6 1405.42 2712.31 1403.8 2709.38 1400.56 2706.44 1397.33 2704.98 1392.6 2704.98 1386.37 2704.98 1381.91 2705.73 1376.9 2707.22 1371.34 2708.72 1365.79 2710.9 1360.82 2713.76 1356.45 2716.62 1352.08 2720.08 1348.69 2724.14 1346.28 2728.19 1343.87 2732.68 1342.66 2737.59 1342.66Z" fill-rule="evenodd"/><text fill="#000000" fill-opacity="0" font-family="Arial,Arial_MSFontService,sans-serif" font-size="62.8008" x="2704.98" y="1397.61">ğº</text><path d="M2763.73 1339.78C2772.48 1342.09 2779.19 1347.07 2783.88 1354.72 2788.56 1362.37 2790.91 1371.6 2790.91 1382.42 2790.91 1393.26 2788.57 1402.49 2783.9 1410.11 2779.23 1417.73 2772.5 1422.7 2763.73 1425L2762.65 1421.54C2769.57 1419.24 2774.71 1414.68 2778.08 1407.89 2781.45 1401.09 2783.14 1392.45 2783.14 1381.97 2783.14 1371.84 2781.46 1363.44 2778.11 1356.74 2774.75 1350.05 2769.56 1345.55 2762.52 1343.24Z" fill-rule="evenodd"/><text fill="#000000" fill-opacity="0" font-family="Arial,Arial_MSFontService,sans-serif" font-size="85.2168" x="2762.52" y="1414.35">)</text><path d="M3097.51 1342.66C3100.27 1342.66 3102.82 1342.85 3105.17 1343.22 3107.52 1343.6 3110.12 1344.23 3112.96 1345.13L3110.45 1356.68 3106.14 1356.68C3106.02 1354.13 3105.63 1352.13 3104.97 1350.68 3104.31 1349.23 3103.37 1348.18 3102.14 1347.56 3100.91 1346.93 3099.28 1346.61 3097.24 1346.61 3094.76 1346.61 3092.57 1347.12 3090.68 1348.14 3088.8 1349.16 3087.36 1350.54 3086.37 1352.3 3085.38 1354.05 3084.89 1356 3084.89 1358.16 3084.89 1360.4 3085.48 1362.37 3086.66 1364.06 3087.85 1365.76 3090.11 1367.76 3093.47 1370.06 3096.4 1372.1 3098.64 1373.92 3100.18 1375.52 3101.73 1377.12 3102.86 1378.82 3103.6 1380.62 3104.33 1382.42 3104.7 1384.5 3104.7 1386.86 3104.7 1390.52 3103.82 1393.76 3102.07 1396.59 3100.32 1399.42 3097.85 1401.6 3094.66 1403.15 3091.47 1404.69 3087.84 1405.46 3083.77 1405.46 3081.01 1405.46 3078.04 1405.24 3074.85 1404.79 3071.66 1404.34 3068.81 1403.77 3066.29 1403.08L3068.99 1390.73 3073.3 1390.73C3073.3 1394.38 3074.14 1397.1 3075.84 1398.88 3077.53 1400.66 3080.14 1401.55 3083.68 1401.55 3087.75 1401.55 3090.95 1400.44 3093.29 1398.23 3095.62 1396.01 3096.79 1392.93 3096.79 1388.97 3096.79 1387.15 3096.47 1385.54 3095.83 1384.14 3095.18 1382.75 3094.21 1381.42 3092.91 1380.15 3091.6 1378.87 3089.73 1377.41 3087.27 1375.77 3085.05 1374.27 3083.21 1372.79 3081.74 1371.34 3080.28 1369.89 3079.11 1368.26 3078.24 1366.47 3077.37 1364.67 3076.94 1362.66 3076.94 1360.45 3076.94 1356.91 3077.79 1353.8 3079.5 1351.1 3081.21 1348.41 3083.62 1346.33 3086.73 1344.86 3089.84 1343.39 3093.44 1342.66 3097.51 1342.66Z" fill-rule="evenodd"/><text fill="#000000" fill-opacity="0" font-family="Arial,Arial_MSFontService,sans-serif" font-size="62.8008" x="3066.29" y="1397.61">ğ‘†</text><path d="M3129.75 1381.03C3131.49 1381.03 3133.12 1381.22 3134.64 1381.59 3136.15 1381.96 3137.47 1382.52 3138.58 1383.27 3139.69 1384.02 3140.56 1384.96 3141.18 1386.09 3141.8 1387.21 3142.11 1388.51 3142.11 1389.99 3142.11 1391.39 3141.92 1392.62 3141.52 1393.69 3141.13 1394.76 3140.53 1395.73 3139.71 1396.6 3138.89 1397.48 3137.89 1398.27 3136.7 1398.97 3135.51 1399.68 3134.14 1400.37 3132.59 1401.02L3132.59 1401.41C3134.05 1401.67 3135.42 1402.09 3136.68 1402.67 3137.95 1403.25 3139.05 1403.98 3140 1404.86 3140.95 1405.75 3141.7 1406.77 3142.24 1407.92 3142.79 1409.08 3143.06 1410.35 3143.06 1411.75 3143.06 1413.49 3142.73 1415.11 3142.08 1416.61 3141.43 1418.1 3140.44 1419.39 3139.14 1420.48 3137.83 1421.58 3136.21 1422.43 3134.29 1423.04 3132.38 1423.65 3130.13 1423.95 3127.56 1423.95 3125.53 1423.95 3123.47 1423.75 3121.37 1423.35 3119.28 1422.94 3117.29 1422.42 3115.42 1421.76L3115.42 1414.69 3119.64 1414.69C3119.99 1415.78 3120.4 1416.72 3120.88 1417.49 3121.36 1418.27 3121.92 1418.9 3122.57 1419.39 3123.21 1419.88 3123.95 1420.23 3124.79 1420.45 3125.63 1420.67 3126.58 1420.78 3127.65 1420.78 3130.47 1420.78 3132.6 1420.11 3134.05 1418.77 3135.5 1417.43 3136.22 1415.39 3136.22 1412.67 3136.22 1409.77 3135.27 1407.57 3133.36 1406.07 3131.45 1404.58 3128.62 1403.83 3124.87 1403.83L3121.99 1403.83 3121.99 1400.69C3124.28 1400.58 3126.26 1400.26 3127.93 1399.73 3129.6 1399.19 3130.99 1398.5 3132.1 1397.65 3133.21 1396.8 3134.04 1395.81 3134.59 1394.67 3135.13 1393.54 3135.41 1392.33 3135.41 1391.04 3135.41 1388.95 3134.79 1387.3 3133.54 1386.09 3132.3 1384.87 3130.5 1384.27 3128.14 1384.27 3126.16 1384.27 3124.5 1384.81 3123.16 1385.91 3121.81 1387 3120.78 1388.62 3120.06 1390.78L3115.91 1390.78 3115.91 1384.33C3118.48 1383.24 3120.91 1382.42 3123.19 1381.86 3125.47 1381.31 3127.65 1381.03 3129.75 1381.03Z" fill-rule="evenodd"/><text fill="#000000" fill-opacity="0" font-family="Arial,Arial_MSFontService,sans-serif" font-size="42.9219" x="3115.42" y="1418.59">3</text><path d="M3188.31 1339.78 3189.52 1343.24C3182.51 1345.55 3177.32 1350.05 3173.96 1356.74 3170.59 1363.44 3168.9 1371.84 3168.9 1381.97 3168.9 1392.45 3170.59 1401.09 3173.96 1407.89 3177.32 1414.68 3182.47 1419.24 3189.39 1421.54L3188.31 1425C3179.53 1422.7 3172.81 1417.73 3168.14 1410.11 3163.47 1402.49 3161.13 1393.26 3161.13 1382.42 3161.13 1371.6 3163.47 1362.37 3168.16 1354.72 3172.85 1347.07 3179.56 1342.09 3188.31 1339.78Z" fill-rule="evenodd"/><text fill="#000000" fill-opacity="0" font-family="Arial,Arial_MSFontService,sans-serif" font-size="85.2168" x="3161.13" y="1414.35">(</text><path d="M3229.53 1342.66C3232.38 1342.66 3234.98 1342.83 3237.35 1343.18 3239.72 1343.52 3242.31 1344.14 3245.12 1345.04L3242.38 1357.12 3238.07 1357.12C3237.8 1353.38 3236.98 1350.69 3235.6 1349.06 3234.22 1347.43 3231.98 1346.61 3228.86 1346.61 3226.34 1346.61 3223.99 1347.26 3221.81 1348.54 3219.62 1349.83 3217.55 1351.76 3215.59 1354.32 3213.62 1356.88 3211.86 1360.1 3210.29 1364 3208.71 1367.89 3207.49 1371.95 3206.62 1376.17 3205.76 1380.39 3205.32 1384.36 3205.32 1388.08 3205.32 1392.75 3206.12 1396.15 3207.72 1398.3 3209.33 1400.44 3211.84 1401.51 3215.25 1401.51 3216.48 1401.51 3217.73 1401.36 3219.02 1401.08 3220.31 1400.8 3221.52 1400.31 3222.64 1399.62 3223.76 1398.93 3224.76 1398 3225.63 1396.84 3226.49 1395.67 3227.12 1394.2 3227.51 1392.43L3228.01 1390.32C3228.67 1387.51 3229 1385.1 3229 1383.09 3229 1381.68 3228.64 1380.7 3227.94 1380.15 3227.24 1379.59 3226.12 1379.27 3224.59 1379.18L3225.09 1376.98 3243.06 1376.98 3242.56 1379.18C3241.42 1379.42 3240.6 1379.69 3240.09 1379.99 3239.58 1380.29 3239.13 1380.75 3238.72 1381.36 3238.32 1381.97 3237.92 1382.91 3237.53 1384.17 3237.14 1385.43 3236.63 1387.49 3236 1390.37L3232.9 1404.47 3229.35 1405.46 3227.02 1401.91C3223.9 1403.38 3221.45 1404.33 3219.65 1404.76 3217.85 1405.2 3216.03 1405.42 3214.17 1405.42 3208.54 1405.42 3204.26 1403.8 3201.32 1400.56 3198.39 1397.33 3196.92 1392.6 3196.92 1386.37 3196.92 1381.91 3197.67 1376.9 3199.17 1371.34 3200.66 1365.79 3202.84 1360.82 3205.7 1356.45 3208.56 1352.08 3212.02 1348.69 3216.08 1346.28 3220.14 1343.86 3224.62 1342.66 3229.53 1342.66Z" fill-rule="evenodd"/><text fill="#000000" fill-opacity="0" font-family="Arial,Arial_MSFontService,sans-serif" font-size="62.8008" x="3196.92" y="1397.61">ğº</text><path d="M3255.67 1339.78C3264.42 1342.09 3271.14 1347.07 3275.82 1354.72 3280.51 1362.37 3282.85 1371.6 3282.85 1382.42 3282.85 1393.26 3280.52 1402.49 3275.84 1410.11 3271.17 1417.73 3264.45 1422.7 3255.67 1425L3254.6 1421.54C3261.51 1419.24 3266.66 1414.68 3270.03 1407.89 3273.4 1401.09 3275.08 1392.45 3275.08 1381.97 3275.08 1371.84 3273.4 1363.44 3270.05 1356.74 3266.7 1350.05 3261.5 1345.55 3254.46 1343.24Z" fill-rule="evenodd"/><text fill="#000000" fill-opacity="0" font-family="Arial,Arial_MSFontService,sans-serif" font-size="85.2168" x="3254.46" y="1414.35">)</text></g></svg>