<svg width="2126" height="481" xmlns="http://www.w3.org/2000/svg" xmlns:xlink="http://www.w3.org/1999/xlink" overflow="hidden"><defs><clipPath id="clip0"><rect x="905" y="773" width="2126" height="481"/></clipPath></defs><g clip-path="url(#clip0)" transform="translate(-905 -773)"><path d="M1286.84 1029C1288.79 1029 1290.19 1029.51 1291.06 1030.52 1291.92 1031.53 1292.36 1032.89 1292.36 1034.59 1292.36 1035.89 1292.13 1037.38 1291.67 1039.05 1291.21 1040.73 1290.56 1042.5 1289.72 1044.36 1288.88 1046.22 1287.88 1048.14 1286.72 1050.1 1285.56 1052.05 1284.28 1053.96 1282.87 1055.81 1281.47 1057.66 1279.97 1059.4 1278.37 1061.04 1276.78 1062.67 1275.12 1064.1 1273.41 1065.31 1271.69 1066.53 1269.95 1067.49 1268.18 1068.21 1266.41 1068.93 1264.65 1069.28 1262.89 1069.28 1262.11 1069.28 1261.45 1069.09 1260.93 1068.7 1260.4 1068.31 1259.97 1067.75 1259.65 1067.04 1259.33 1066.32 1259.1 1065.48 1258.96 1064.5 1258.83 1063.53 1258.76 1062.46 1258.76 1061.3 1258.76 1059.76 1258.85 1058.11 1259.04 1056.36 1259.23 1054.6 1259.47 1052.83 1259.77 1051.05L1261.47 1039.82C1261.58 1039.17 1261.67 1038.56 1261.74 1037.98 1261.8 1037.4 1261.84 1036.97 1261.84 1036.7 1261.84 1035.86 1261.7 1035.17 1261.43 1034.63 1261.16 1034.09 1260.7 1033.82 1260.06 1033.82 1259.54 1033.82 1258.99 1033.98 1258.39 1034.29 1257.8 1034.6 1257.2 1035 1256.59 1035.48 1255.98 1035.97 1255.39 1036.49 1254.83 1037.05 1254.26 1037.6 1253.73 1038.12 1253.25 1038.61L1251.3 1036.34C1252.14 1035.47 1253.03 1034.61 1253.98 1033.76 1254.92 1032.91 1255.92 1032.14 1256.98 1031.45 1258.03 1030.76 1259.14 1030.21 1260.3 1029.79 1261.46 1029.37 1262.65 1029.16 1263.86 1029.16 1264.89 1029.16 1265.73 1029.33 1266.38 1029.67 1267.03 1030.01 1267.53 1030.45 1267.9 1031.01 1268.26 1031.56 1268.51 1032.17 1268.65 1032.83 1268.78 1033.49 1268.85 1034.15 1268.85 1034.8 1268.85 1035.17 1268.84 1035.54 1268.81 1035.89 1268.78 1036.24 1268.74 1036.57 1268.69 1036.86L1266.42 1051.53C1266.18 1053.07 1265.97 1054.58 1265.81 1056.05 1265.65 1057.53 1265.57 1058.83 1265.57 1059.96 1265.57 1061.1 1265.63 1062.02 1265.77 1062.72 1265.9 1063.42 1266.16 1063.77 1266.54 1063.77 1267.43 1063.77 1268.55 1063.42 1269.9 1062.7 1271.25 1061.98 1272.67 1061 1274.16 1059.74 1275.64 1058.48 1277.13 1057 1278.62 1055.28 1280.1 1053.57 1281.44 1051.71 1282.63 1049.71 1283.82 1047.71 1284.78 1045.6 1285.53 1043.39 1286.27 1041.17 1286.64 1038.94 1286.64 1036.7 1286.64 1035.73 1286.43 1034.98 1286.01 1034.45 1285.59 1033.92 1284.94 1033.66 1284.05 1033.66 1282.91 1033.66 1281.87 1034.1 1280.91 1034.98 1279.95 1035.86 1278.95 1037.01 1277.93 1038.44L1275.62 1036.38C1276.27 1035.4 1277.03 1034.47 1277.91 1033.58 1278.79 1032.69 1279.72 1031.91 1280.7 1031.23 1281.69 1030.55 1282.71 1030.01 1283.76 1029.61 1284.82 1029.2 1285.84 1029 1286.84 1029Z" fill-rule="evenodd"/><text fill="#000000" fill-opacity="0" font-family="Arial,Arial_MSFontService,sans-serif" font-size="40.2842" x="1251.3" y="1064.25">ğ‘£</text><path d="M1311.29 1065.69C1309.96 1065.69 1308.74 1065.87 1307.61 1066.23 1306.49 1066.59 1305.43 1067.07 1304.41 1067.69 1304 1067.97 1303.67 1068.22 1303.44 1068.46 1303.22 1068.7 1303.05 1068.98 1302.94 1069.31 1302.83 1069.64 1302.75 1070.05 1302.72 1070.53 1302.68 1071.02 1302.66 1071.68 1302.66 1072.51 1302.66 1079.54 1305.21 1083.06 1310.31 1083.06 1311.7 1083.06 1312.9 1082.85 1313.9 1082.45 1314.9 1082.04 1315.72 1081.45 1316.36 1080.69 1316.99 1079.92 1317.46 1078.98 1317.76 1077.86 1318.05 1076.74 1318.2 1075.46 1318.2 1074.03 1318.2 1071.37 1317.61 1069.32 1316.42 1067.87 1315.22 1066.42 1313.52 1065.69 1311.29 1065.69ZM1319.19 1046.87C1319.42 1047.15 1319.64 1047.41 1319.84 1047.67 1320.04 1047.93 1320.26 1048.19 1320.5 1048.45L1320.5 1050.2C1318.09 1050.16 1315.93 1050.48 1314 1051.16 1312.08 1051.83 1310.38 1052.82 1308.91 1054.12 1307.44 1055.42 1306.21 1057.02 1305.22 1058.92 1304.22 1060.81 1303.45 1062.95 1302.89 1065.33L1303.22 1065.48C1304.04 1064.93 1304.84 1064.45 1305.63 1064.04 1306.43 1063.63 1307.23 1063.29 1308.05 1063.03 1308.86 1062.76 1309.7 1062.56 1310.58 1062.45 1311.45 1062.33 1312.39 1062.27 1313.38 1062.27 1315.13 1062.27 1316.67 1062.52 1318.01 1063.04 1319.35 1063.56 1320.49 1064.31 1321.42 1065.3 1322.35 1066.3 1323.06 1067.49 1323.54 1068.88 1324.01 1070.27 1324.25 1071.82 1324.25 1073.53 1324.25 1075.33 1323.95 1077.01 1323.36 1078.56 1322.76 1080.11 1321.87 1081.44 1320.68 1082.55 1319.48 1083.66 1318.01 1084.53 1316.25 1085.14 1314.5 1085.76 1312.44 1086.07 1310.07 1086.07 1305.6 1086.07 1302.23 1084.79 1299.96 1082.24 1297.69 1079.69 1296.55 1075.93 1296.55 1070.96 1296.55 1068.74 1296.8 1066.61 1297.29 1064.58 1297.79 1062.54 1298.52 1060.64 1299.48 1058.89 1300.45 1057.13 1301.61 1055.54 1302.98 1054.12 1304.35 1052.7 1305.88 1051.47 1307.57 1050.43 1309.26 1049.38 1311.08 1048.56 1313.05 1047.95 1315.02 1047.35 1317.06 1046.99 1319.19 1046.87Z" fill-rule="evenodd"/><text fill="#000000" fill-opacity="0" font-family="Arial,Arial_MSFontService,sans-serif" font-size="39.1973" x="1296.55" y="1081.17">6</text><path d="M1138.24 851.395C1140.19 851.395 1141.59 851.902 1142.46 852.915 1143.32 853.928 1143.76 855.286 1143.76 856.988 1143.76 858.285 1143.53 859.771 1143.07 861.446 1142.61 863.121 1141.96 864.891 1141.12 866.755 1140.28 868.619 1139.28 870.531 1138.12 872.49 1136.96 874.449 1135.68 876.353 1134.27 878.204 1132.87 880.055 1131.37 881.798 1129.77 883.432 1128.18 885.067 1126.52 886.492 1124.81 887.708 1123.09 888.924 1121.35 889.89 1119.58 890.606 1117.81 891.322 1116.05 891.68 1114.29 891.68 1113.51 891.68 1112.85 891.484 1112.33 891.092 1111.8 890.7 1111.37 890.146 1111.05 889.43 1110.73 888.714 1110.5 887.87 1110.36 886.897 1110.23 885.925 1110.16 884.857 1110.16 883.696 1110.16 882.156 1110.25 880.507 1110.44 878.751 1110.63 876.995 1110.87 875.225 1111.17 873.442L1112.87 862.216C1112.98 861.568 1113.07 860.953 1113.14 860.372 1113.2 859.791 1113.24 859.366 1113.24 859.096 1113.24 858.258 1113.1 857.569 1112.83 857.029 1112.56 856.488 1112.1 856.218 1111.45 856.218 1110.94 856.218 1110.39 856.373 1109.79 856.684 1109.2 856.995 1108.6 857.393 1107.99 857.88 1107.38 858.366 1106.79 858.886 1106.23 859.44 1105.66 859.994 1105.13 860.514 1104.65 861L1102.7 858.731C1103.54 857.866 1104.43 857.008 1105.38 856.157 1106.32 855.306 1107.32 854.536 1108.37 853.847 1109.43 853.158 1110.54 852.604 1111.7 852.186 1112.86 851.767 1114.05 851.557 1115.26 851.557 1116.29 851.557 1117.13 851.726 1117.78 852.064 1118.43 852.402 1118.93 852.848 1119.3 853.401 1119.66 853.955 1119.91 854.563 1120.05 855.225 1120.18 855.887 1120.25 856.542 1120.25 857.191 1120.25 857.569 1120.24 857.934 1120.21 858.285 1120.18 858.636 1120.14 858.96 1120.09 859.258L1117.82 873.929C1117.57 875.469 1117.37 876.975 1117.21 878.447 1117.05 879.92 1116.97 881.223 1116.97 882.358 1116.97 883.493 1117.03 884.412 1117.17 885.114 1117.3 885.817 1117.56 886.168 1117.94 886.168 1118.83 886.168 1119.95 885.81 1121.3 885.094 1122.65 884.378 1124.07 883.392 1125.56 882.135 1127.04 880.879 1128.53 879.393 1130.02 877.677 1131.5 875.962 1132.84 874.104 1134.03 872.105 1135.22 870.105 1136.18 867.998 1136.93 865.783 1137.67 863.567 1138.04 861.338 1138.04 859.096 1138.04 858.123 1137.83 857.373 1137.41 856.846 1136.99 856.319 1136.34 856.056 1135.45 856.056 1134.31 856.056 1133.27 856.495 1132.31 857.373 1131.35 858.251 1130.35 859.406 1129.33 860.838L1127.02 858.771C1127.67 857.799 1128.43 856.867 1129.31 855.975 1130.19 855.083 1131.12 854.3 1132.1 853.624 1133.09 852.949 1134.11 852.409 1135.16 852.003 1136.22 851.598 1137.24 851.395 1138.24 851.395Z" fill-rule="evenodd"/><text fill="#000000" fill-opacity="0" font-family="Arial,Arial_MSFontService,sans-serif" font-size="40.2842" x="1102.7" y="886.644">ğ‘£</text><path d="M1161.95 869.471 1163.77 869.471C1163.73 870.563 1163.7 871.541 1163.68 872.405 1163.66 873.269 1163.64 874.108 1163.64 874.922 1163.63 875.736 1163.62 876.54 1163.62 877.334L1163.62 899.971C1163.62 900.587 1163.64 901.118 1163.68 901.565 1163.72 902.011 1163.78 902.389 1163.87 902.696 1163.96 903.004 1164.08 903.267 1164.23 903.486 1164.38 903.704 1164.55 903.893 1164.75 904.052 1164.99 904.29 1165.31 904.474 1165.71 904.603 1166.1 904.732 1166.61 904.841 1167.22 904.93 1167.84 905.02 1168.58 905.089 1169.44 905.139 1170.31 905.188 1171.34 905.223 1172.56 905.243L1172.56 907.834 1148.94 907.834 1148.94 905.243C1150.11 905.203 1151.1 905.159 1151.91 905.109 1152.73 905.059 1153.42 904.99 1154 904.9 1154.58 904.811 1155.04 904.712 1155.38 904.603 1155.73 904.493 1156.03 904.359 1156.29 904.201 1156.57 904.022 1156.81 903.828 1157.01 903.62 1157.21 903.411 1157.37 903.148 1157.48 902.83 1157.6 902.513 1157.7 902.125 1157.77 901.669 1157.84 901.212 1157.87 900.646 1157.87 899.971L1157.87 878.615C1157.87 877.841 1157.72 877.295 1157.42 876.977 1157.13 876.659 1156.7 876.5 1156.14 876.5 1155.53 876.5 1154.62 876.818 1153.4 877.453 1152.19 878.089 1150.62 879.032 1148.7 880.283 1148.44 879.826 1148.2 879.37 1147.98 878.913 1147.76 878.456 1147.54 877.99 1147.3 877.513 1149.76 876.163 1152.2 874.817 1154.61 873.477 1157.02 872.137 1159.47 870.801 1161.95 869.471Z" fill-rule="evenodd"/><text fill="#000000" fill-opacity="0" font-family="Arial,Arial_MSFontService,sans-serif" font-size="38.3633" x="1147.3" y="903.039">1</text><path d="M976.768 1086.2C978.714 1086.2 980.119 1086.71 980.983 1087.72 981.848 1088.73 982.28 1090.09 982.28 1091.79 982.28 1093.09 982.051 1094.58 981.591 1096.25 981.132 1097.93 980.484 1099.7 979.646 1101.56 978.808 1103.42 977.809 1105.34 976.647 1107.29 975.485 1109.25 974.202 1111.16 972.797 1113.01 971.392 1114.86 969.892 1116.6 968.298 1118.24 966.704 1119.87 965.049 1121.3 963.334 1122.51 961.618 1123.73 959.875 1124.69 958.106 1125.41 956.336 1126.13 954.573 1126.48 952.817 1126.48 952.033 1126.48 951.378 1126.29 950.851 1125.9 950.324 1125.51 949.899 1124.95 949.575 1124.24 949.25 1123.52 949.021 1122.67 948.886 1121.7 948.751 1120.73 948.683 1119.66 948.683 1118.5 948.683 1116.96 948.778 1115.31 948.967 1113.56 949.156 1111.8 949.399 1110.03 949.696 1108.25L951.398 1097.02C951.506 1096.37 951.594 1095.76 951.662 1095.18 951.729 1094.6 951.763 1094.17 951.763 1093.9 951.763 1093.06 951.628 1092.37 951.358 1091.83 951.088 1091.29 950.628 1091.02 949.98 1091.02 949.467 1091.02 948.913 1091.18 948.318 1091.49 947.724 1091.8 947.123 1092.2 946.515 1092.68 945.907 1093.17 945.319 1093.69 944.752 1094.24 944.185 1094.8 943.658 1095.32 943.171 1095.81L941.226 1093.54C942.064 1092.67 942.955 1091.81 943.901 1090.96 944.846 1090.11 945.846 1089.34 946.9 1088.65 947.954 1087.96 949.061 1087.41 950.223 1086.99 951.385 1086.57 952.574 1086.36 953.789 1086.36 954.816 1086.36 955.654 1086.53 956.302 1086.87 956.951 1087.21 957.457 1087.65 957.822 1088.21 958.187 1088.76 958.437 1089.37 958.572 1090.03 958.707 1090.69 958.774 1091.35 958.774 1092 958.774 1092.37 958.761 1092.74 958.734 1093.09 958.707 1093.44 958.666 1093.77 958.612 1094.06L956.343 1108.73C956.1 1110.27 955.897 1111.78 955.735 1113.25 955.573 1114.72 955.492 1116.03 955.492 1117.16 955.492 1118.3 955.559 1119.22 955.694 1119.92 955.829 1120.62 956.086 1120.97 956.464 1120.97 957.356 1120.97 958.477 1120.61 959.828 1119.9 961.179 1119.18 962.597 1118.2 964.083 1116.94 965.569 1115.68 967.055 1114.2 968.541 1112.48 970.027 1110.77 971.365 1108.91 972.554 1106.91 973.742 1104.91 974.708 1102.8 975.451 1100.59 976.194 1098.37 976.566 1096.14 976.566 1093.9 976.566 1092.93 976.356 1092.18 975.938 1091.65 975.519 1091.12 974.864 1090.86 973.972 1090.86 972.837 1090.86 971.79 1091.3 970.831 1092.18 969.872 1093.06 968.879 1094.21 967.852 1095.64L965.542 1093.58C966.191 1092.6 966.954 1091.67 967.832 1090.78 968.71 1089.89 969.642 1089.1 970.629 1088.43 971.615 1087.75 972.635 1087.21 973.688 1086.81 974.742 1086.4 975.769 1086.2 976.768 1086.2Z" fill-rule="evenodd"/><text fill="#000000" fill-opacity="0" font-family="Arial,Arial_MSFontService,sans-serif" font-size="40.2842" x="941.226" y="1121.45">ğ‘£</text><path d="M1000.06 1104.07C1002.12 1104.07 1003.88 1104.3 1005.34 1104.77 1006.8 1105.23 1007.99 1105.86 1008.9 1106.66 1009.82 1107.45 1010.48 1108.41 1010.88 1109.52 1011.29 1110.63 1011.49 1111.83 1011.49 1113.12 1011.49 1113.9 1011.44 1114.62 1011.33 1115.28 1011.22 1115.95 1011.03 1116.6 1010.76 1117.25 1010.5 1117.89 1010.14 1118.54 1009.71 1119.2 1009.27 1119.85 1008.72 1120.55 1008.07 1121.28 1007.57 1121.92 1006.93 1122.65 1006.13 1123.49 1005.34 1124.32 1004.47 1125.21 1003.53 1126.17 1002.58 1127.12 1001.6 1128.11 1000.56 1129.15 999.53 1130.18 998.527 1131.2 997.554 1132.21 996.581 1133.23 995.688 1134.21 994.874 1135.16 994.059 1136.12 993.394 1136.99 992.878 1137.78L1003.9 1137.78C1004.83 1137.78 1005.58 1137.75 1006.13 1137.68 1006.69 1137.61 1007.15 1137.46 1007.52 1137.22 1007.88 1136.98 1008.2 1136.62 1008.46 1136.13 1008.71 1135.64 1009.01 1134.97 1009.35 1134.12L1012.12 1134.12C1012.02 1135.53 1011.93 1136.95 1011.84 1138.38 1011.75 1139.81 1011.65 1141.23 1011.55 1142.64L986.325 1142.64 986.325 1141.09C986.802 1140.02 987.358 1138.96 987.993 1137.92 988.629 1136.88 989.344 1135.82 990.138 1134.75 990.932 1133.67 991.836 1132.57 992.848 1131.43 993.861 1130.28 994.983 1129.1 996.214 1127.87 998.08 1126 999.599 1124.41 1000.77 1123.09 1001.94 1121.76 1002.87 1120.59 1003.54 1119.56 1004.22 1118.52 1004.68 1117.57 1004.93 1116.7 1005.17 1115.82 1005.3 1114.89 1005.3 1113.9 1005.3 1112.88 1005.15 1111.95 1004.87 1111.1 1004.58 1110.24 1004.17 1109.52 1003.63 1108.92 1003.09 1108.33 1002.41 1107.86 1001.59 1107.52 1000.77 1107.18 999.818 1107.02 998.746 1107.02 996.899 1107.02 995.35 1107.52 994.099 1108.52 992.848 1109.52 991.875 1110.98 991.18 1112.88L987.278 1112.88 987.278 1107.08C989.82 1106.02 992.158 1105.26 994.293 1104.78 996.427 1104.31 998.349 1104.07 1000.06 1104.07Z" fill-rule="evenodd"/><text fill="#000000" fill-opacity="0" font-family="Arial,Arial_MSFontService,sans-serif" font-size="38.5718" x="986.325" y="1137.82">2</text><path d="M1100.5 940C1100.5 924.812 1112.81 912.5 1128 912.5 1143.19 912.5 1155.5 924.812 1155.5 940 1155.5 955.188 1143.19 967.5 1128 967.5 1112.81 967.5 1100.5 955.188 1100.5 940Z" stroke="#000000" stroke-width="4.58333" stroke-miterlimit="8" fill="none" fill-rule="evenodd"/><path d="M1003.5 1055C1003.5 1039.81 1015.81 1027.5 1031 1027.5 1046.19 1027.5 1058.5 1039.81 1058.5 1055 1058.5 1070.19 1046.19 1082.5 1031 1082.5 1015.81 1082.5 1003.5 1070.19 1003.5 1055Z" stroke="#000000" stroke-width="4.58333" stroke-miterlimit="8" fill="none" fill-rule="evenodd"/><path d="M1173.5 1083C1173.5 1067.81 1185.81 1055.5 1201 1055.5 1216.19 1055.5 1228.5 1067.81 1228.5 1083 1228.5 1098.19 1216.19 1110.5 1201 1110.5 1185.81 1110.5 1173.5 1098.19 1173.5 1083Z" stroke="#000000" stroke-width="4.58333" stroke-miterlimit="8" fill="none" fill-rule="evenodd"/><path d="M0 0 57.933 75.9029" stroke="#000000" stroke-width="5.72917" stroke-miterlimit="8" fill="none" fill-rule="evenodd" transform="matrix(-1 0 0 1 1107.93 959)"/><path d="M1172.81 1082.59 1058 1055" stroke="#000000" stroke-width="5.72917" stroke-miterlimit="8" fill="none" fill-rule="evenodd"/><path d="M1198.71 1132.78C1200.66 1132.78 1202.06 1133.29 1202.93 1134.3 1203.79 1135.31 1204.23 1136.67 1204.23 1138.37 1204.23 1139.67 1204 1141.16 1203.54 1142.83 1203.08 1144.51 1202.43 1146.28 1201.59 1148.14 1200.75 1150 1199.75 1151.92 1198.59 1153.88 1197.43 1155.83 1196.15 1157.74 1194.74 1159.59 1193.34 1161.44 1191.84 1163.18 1190.24 1164.82 1188.65 1166.45 1187 1167.88 1185.28 1169.09 1183.56 1170.31 1181.82 1171.27 1180.05 1171.99 1178.28 1172.71 1176.52 1173.06 1174.76 1173.06 1173.98 1173.06 1173.32 1172.87 1172.8 1172.48 1172.27 1172.09 1171.84 1171.53 1171.52 1170.82 1171.2 1170.1 1170.97 1169.26 1170.83 1168.28 1170.7 1167.31 1170.63 1166.24 1170.63 1165.08 1170.63 1163.54 1170.72 1161.89 1170.91 1160.14 1171.1 1158.38 1171.34 1156.61 1171.64 1154.83L1173.34 1143.6C1173.45 1142.95 1173.54 1142.34 1173.61 1141.76 1173.68 1141.18 1173.71 1140.75 1173.71 1140.48 1173.71 1139.64 1173.57 1138.95 1173.3 1138.41 1173.03 1137.87 1172.57 1137.6 1171.93 1137.6 1171.41 1137.6 1170.86 1137.76 1170.26 1138.07 1169.67 1138.38 1169.07 1138.78 1168.46 1139.27 1167.85 1139.75 1167.27 1140.27 1166.7 1140.83 1166.13 1141.38 1165.6 1141.9 1165.12 1142.39L1163.17 1140.12C1164.01 1139.25 1164.9 1138.39 1165.85 1137.54 1166.79 1136.69 1167.79 1135.92 1168.85 1135.23 1169.9 1134.54 1171.01 1133.99 1172.17 1133.57 1173.33 1133.15 1174.52 1132.94 1175.74 1132.94 1176.76 1132.94 1177.6 1133.11 1178.25 1133.45 1178.9 1133.79 1179.4 1134.23 1179.77 1134.79 1180.13 1135.34 1180.38 1135.95 1180.52 1136.61 1180.65 1137.27 1180.72 1137.93 1180.72 1138.58 1180.72 1138.95 1180.71 1139.32 1180.68 1139.67 1180.65 1140.02 1180.61 1140.35 1180.56 1140.64L1178.29 1155.31C1178.05 1156.85 1177.84 1158.36 1177.68 1159.83 1177.52 1161.31 1177.44 1162.61 1177.44 1163.74 1177.44 1164.88 1177.51 1165.8 1177.64 1166.5 1177.78 1167.2 1178.03 1167.55 1178.41 1167.55 1179.3 1167.55 1180.42 1167.2 1181.77 1166.48 1183.12 1165.76 1184.54 1164.78 1186.03 1163.52 1187.52 1162.26 1189 1160.78 1190.49 1159.06 1191.97 1157.35 1193.31 1155.49 1194.5 1153.49 1195.69 1151.49 1196.65 1149.38 1197.4 1147.17 1198.14 1144.95 1198.51 1142.72 1198.51 1140.48 1198.51 1139.51 1198.3 1138.76 1197.88 1138.23 1197.46 1137.7 1196.81 1137.44 1195.92 1137.44 1194.78 1137.44 1193.74 1137.88 1192.78 1138.76 1191.82 1139.64 1190.83 1140.79 1189.8 1142.22L1187.49 1140.16C1188.14 1139.18 1188.9 1138.25 1189.78 1137.36 1190.66 1136.47 1191.59 1135.69 1192.57 1135.01 1193.56 1134.33 1194.58 1133.79 1195.63 1133.39 1196.69 1132.98 1197.71 1132.78 1198.71 1132.78Z" fill-rule="evenodd"/><text fill="#000000" fill-opacity="0" font-family="Arial,Arial_MSFontService,sans-serif" font-size="40.2842" x="1163.17" y="1168.03">ğ‘£</text><path d="M1221.94 1150.65C1223.53 1150.65 1225.02 1150.82 1226.4 1151.15 1227.78 1151.49 1228.97 1152 1229.98 1152.69 1231 1153.37 1231.79 1154.23 1232.35 1155.25 1232.92 1156.27 1233.2 1157.46 1233.2 1158.81 1233.2 1160.08 1233.02 1161.2 1232.67 1162.17 1232.31 1163.15 1231.76 1164.03 1231.01 1164.83 1230.27 1165.62 1229.35 1166.34 1228.27 1166.98 1227.19 1167.63 1225.94 1168.25 1224.53 1168.85L1224.53 1169.2C1225.86 1169.44 1227.11 1169.82 1228.26 1170.35 1229.41 1170.88 1230.42 1171.54 1231.28 1172.35 1232.14 1173.15 1232.82 1174.08 1233.32 1175.13 1233.82 1176.18 1234.07 1177.35 1234.07 1178.62 1234.07 1180.2 1233.77 1181.68 1233.17 1183.04 1232.58 1184.4 1231.68 1185.58 1230.49 1186.57 1229.3 1187.56 1227.83 1188.34 1226.08 1188.89 1224.34 1189.45 1222.29 1189.73 1219.95 1189.73 1218.1 1189.73 1216.22 1189.54 1214.32 1189.17 1212.41 1188.81 1210.6 1188.33 1208.9 1187.73L1208.9 1181.3 1212.74 1181.3C1213.06 1182.29 1213.43 1183.14 1213.87 1183.84 1214.31 1184.55 1214.82 1185.12 1215.4 1185.57 1215.99 1186.02 1216.67 1186.34 1217.43 1186.54 1218.19 1186.74 1219.06 1186.84 1220.04 1186.84 1222.6 1186.84 1224.54 1186.23 1225.86 1185.01 1227.18 1183.78 1227.84 1181.93 1227.84 1179.45 1227.84 1176.81 1226.97 1174.81 1225.23 1173.45 1223.5 1172.09 1220.92 1171.41 1217.5 1171.41L1214.88 1171.41 1214.88 1168.55C1216.97 1168.45 1218.77 1168.16 1220.29 1167.67 1221.81 1167.18 1223.07 1166.55 1224.09 1165.78 1225.1 1165 1225.85 1164.1 1226.35 1163.07 1226.85 1162.04 1227.1 1160.93 1227.1 1159.76 1227.1 1157.86 1226.53 1156.35 1225.4 1155.25 1224.27 1154.15 1222.63 1153.6 1220.48 1153.6 1218.68 1153.6 1217.16 1154.09 1215.94 1155.09 1214.72 1156.08 1213.78 1157.56 1213.13 1159.52L1209.34 1159.52 1209.34 1153.66C1211.69 1152.66 1213.9 1151.91 1215.97 1151.41 1218.05 1150.9 1220.04 1150.65 1221.94 1150.65Z" fill-rule="evenodd"/><text fill="#000000" fill-opacity="0" font-family="Arial,Arial_MSFontService,sans-serif" font-size="39.0781" x="1208.9" y="1184.84">3</text><path d="M1243.5 994C1243.5 978.812 1255.81 966.5 1271 966.5 1286.19 966.5 1298.5 978.812 1298.5 994 1298.5 1009.19 1286.19 1021.5 1271 1021.5 1255.81 1021.5 1243.5 1009.19 1243.5 994Z" stroke="#000000" stroke-width="4.58333" stroke-miterlimit="8" fill="none" fill-rule="evenodd"/><path d="M1384.5 1123C1384.5 1107.81 1396.81 1095.5 1412 1095.5 1427.19 1095.5 1439.5 1107.81 1439.5 1123 1439.5 1138.19 1427.19 1150.5 1412 1150.5 1396.81 1150.5 1384.5 1138.19 1384.5 1123Z" stroke="#000000" stroke-width="4.58333" stroke-miterlimit="8" fill="none" fill-rule="evenodd"/><path d="M1341.5 911C1341.5 895.812 1353.81 883.5 1369 883.5 1384.19 883.5 1396.5 895.812 1396.5 911 1396.5 926.188 1384.19 938.5 1369 938.5 1353.81 938.5 1341.5 926.188 1341.5 911Z" stroke="#000000" stroke-width="4.58333" stroke-miterlimit="8" fill="none" fill-rule="evenodd"/><path d="M1436.5 1000.5C1436.5 985.036 1448.81 972.5 1464 972.5 1479.19 972.5 1491.5 985.036 1491.5 1000.5 1491.5 1015.96 1479.19 1028.5 1464 1028.5 1448.81 1028.5 1436.5 1015.96 1436.5 1000.5Z" stroke="#000000" stroke-width="4.58333" stroke-miterlimit="8" fill="none" fill-rule="evenodd"/><path d="M1537.5 1115C1537.5 1099.81 1549.81 1087.5 1565 1087.5 1580.19 1087.5 1592.5 1099.81 1592.5 1115 1592.5 1130.19 1580.19 1142.5 1565 1142.5 1549.81 1142.5 1537.5 1130.19 1537.5 1115Z" stroke="#000000" stroke-width="4.58333" stroke-miterlimit="8" fill="none" fill-rule="evenodd"/><path d="M1155 940 1251.23 974.242" stroke="#000000" stroke-width="5.72917" stroke-miterlimit="8" fill="none" fill-rule="evenodd"/><path d="M0 0 31.2674 49.7418" stroke="#000000" stroke-width="5.72917" stroke-miterlimit="8" fill="none" fill-rule="evenodd" transform="matrix(-1 0 0 1 1251.27 1013)"/><path d="M1181.02 1062.49 1147 959" stroke="#000000" stroke-width="5.72917" stroke-miterlimit="8" fill="none" fill-rule="evenodd"/><path d="M1290 1013 1392.15 1103.49" stroke="#000000" stroke-width="5.72917" stroke-miterlimit="8" fill="none" fill-rule="evenodd"/><path d="M0 0 58.8074 43.7528" stroke="#000000" stroke-width="5.72917" stroke-miterlimit="8" fill="none" fill-rule="evenodd" transform="matrix(-1 0 0 1 1348.81 930)"/><path d="M1435.52 999.731 1298 993" stroke="#000000" stroke-width="5.72917" stroke-miterlimit="8" fill="none" fill-rule="evenodd"/><path d="M0 0 12.5204 83.7606" stroke="#000000" stroke-width="5.72917" stroke-miterlimit="8" fill="none" fill-rule="evenodd" transform="matrix(-1 0 0 1 1443.52 1020)"/><path d="M0 0 97.3128 7.97175" stroke="#000000" stroke-width="5.72917" stroke-miterlimit="8" fill="none" fill-rule="evenodd" transform="matrix(-1 0 0 1 1536.31 1115)"/><path d="M1544.94 1095.79 1483 1020" stroke="#000000" stroke-width="5.72917" stroke-miterlimit="8" fill="none" fill-rule="evenodd"/><path d="M1520.5 912C1520.5 896.812 1532.81 884.5 1548 884.5 1563.19 884.5 1575.5 896.812 1575.5 912 1575.5 927.188 1563.19 939.5 1548 939.5 1532.81 939.5 1520.5 927.188 1520.5 912Z" stroke="#000000" stroke-width="4.58333" stroke-miterlimit="8" fill="none" fill-rule="evenodd"/><path d="M1519.77 911.931 1396 911" stroke="#000000" stroke-width="5.72917" stroke-miterlimit="8" fill="none" fill-rule="evenodd"/><path d="M0 0 45.0556 49.5531" stroke="#000000" stroke-width="5.72917" stroke-miterlimit="8" fill="none" fill-rule="evenodd" transform="matrix(-1 0 0 1 1528.06 931)"/><path d="M1374.27 825.546C1376.22 825.546 1377.62 826.053 1378.49 827.066 1379.35 828.079 1379.79 829.437 1379.79 831.139 1379.79 832.436 1379.56 833.922 1379.1 835.597 1378.64 837.272 1377.99 839.042 1377.15 840.906 1376.31 842.77 1375.31 844.682 1374.15 846.641 1372.99 848.599 1371.71 850.504 1370.3 852.355 1368.9 854.206 1367.4 855.948 1365.8 857.583 1364.21 859.218 1362.55 860.643 1360.84 861.859 1359.12 863.074 1357.38 864.04 1355.61 864.756 1353.84 865.472 1352.08 865.83 1350.32 865.83 1349.54 865.83 1348.88 865.634 1348.36 865.243 1347.83 864.851 1347.4 864.297 1347.08 863.581 1346.76 862.865 1346.53 862.021 1346.39 861.048 1346.26 860.075 1346.19 859.008 1346.19 857.846 1346.19 856.306 1346.28 854.658 1346.47 852.902 1346.66 851.146 1346.9 849.376 1347.2 847.593L1348.9 836.367C1349.01 835.718 1349.1 835.104 1349.17 834.523 1349.23 833.942 1349.27 833.516 1349.27 833.246 1349.27 832.409 1349.13 831.72 1348.86 831.179 1348.59 830.639 1348.13 830.369 1347.49 830.369 1346.97 830.369 1346.42 830.524 1345.82 830.835 1345.23 831.146 1344.63 831.544 1344.02 832.03 1343.41 832.517 1342.82 833.037 1342.26 833.591 1341.69 834.145 1341.16 834.665 1340.68 835.151L1338.73 832.882C1339.57 832.017 1340.46 831.159 1341.41 830.308 1342.35 829.457 1343.35 828.687 1344.41 827.998 1345.46 827.309 1346.57 826.755 1347.73 826.336 1348.89 825.918 1350.08 825.708 1351.29 825.708 1352.32 825.708 1353.16 825.877 1353.81 826.215 1354.46 826.552 1354.96 826.998 1355.33 827.552 1355.69 828.106 1355.94 828.714 1356.08 829.376 1356.21 830.038 1356.28 830.693 1356.28 831.341 1356.28 831.72 1356.27 832.084 1356.24 832.436 1356.21 832.787 1356.17 833.111 1356.12 833.408L1353.85 848.079C1353.6 849.619 1353.4 851.126 1353.24 852.598 1353.08 854.071 1353 855.374 1353 856.509 1353 857.644 1353.06 858.562 1353.2 859.265 1353.33 859.967 1353.59 860.319 1353.97 860.319 1354.86 860.319 1355.98 859.961 1357.33 859.245 1358.68 858.529 1360.1 857.542 1361.59 856.286 1363.07 855.03 1364.56 853.544 1366.05 851.828 1367.53 850.112 1368.87 848.255 1370.06 846.256 1371.25 844.256 1372.21 842.149 1372.96 839.933 1373.7 837.718 1374.07 835.489 1374.07 833.246 1374.07 832.274 1373.86 831.524 1373.44 830.997 1373.02 830.47 1372.37 830.207 1371.48 830.207 1370.34 830.207 1369.3 830.646 1368.34 831.524 1367.38 832.402 1366.38 833.557 1365.36 834.989L1363.05 832.922C1363.7 831.949 1364.46 831.017 1365.34 830.126 1366.22 829.234 1367.15 828.451 1368.13 827.775 1369.12 827.1 1370.14 826.559 1371.19 826.154 1372.25 825.749 1373.27 825.546 1374.27 825.546Z" fill-rule="evenodd"/><text fill="#000000" fill-opacity="0" font-family="Arial,Arial_MSFontService,sans-serif" font-size="40.2842" x="1338.73" y="860.795">ğ‘£</text><path d="M1395.43 850.8C1393.53 853.56 1391.62 856.3 1389.73 859.021 1387.83 861.741 1385.92 864.471 1383.99 867.212L1383.99 867.569 1395.43 867.569 1395.43 861.582C1395.43 860.907 1395.44 860.073 1395.46 859.08 1395.48 858.087 1395.51 857.08 1395.54 856.057 1395.57 855.034 1395.6 854.061 1395.64 853.138 1395.68 852.215 1395.72 851.435 1395.76 850.8ZM1396.3 843.83 1401.03 843.83 1401.03 867.569 1401.57 867.569C1402.38 867.569 1403.04 867.529 1403.55 867.45 1404.06 867.37 1404.46 867.207 1404.77 866.958 1405.08 866.71 1405.34 866.363 1405.54 865.916 1405.75 865.469 1405.98 864.888 1406.21 864.174L1408.75 864.174C1408.69 865.266 1408.62 866.348 1408.55 867.42 1408.48 868.492 1408.42 869.584 1408.36 870.696L1401.03 870.696 1401.03 874.598C1401.03 875.75 1401.06 876.644 1401.11 877.279 1401.16 877.914 1401.3 878.411 1401.55 878.768 1401.8 879.126 1402.17 879.394 1402.66 879.572 1403.14 879.751 1403.82 879.96 1404.7 880.198L1404.7 881.985 1391.83 881.985 1391.83 880.198C1392.42 880.039 1392.93 879.895 1393.35 879.766 1393.76 879.637 1394.11 879.488 1394.39 879.319 1394.67 879.151 1394.87 878.952 1395 878.724 1395.13 878.495 1395.23 878.207 1395.3 877.86 1395.37 877.512 1395.41 877.075 1395.42 876.549 1395.43 876.023 1395.43 875.373 1395.43 874.598L1395.43 870.696 1378.66 870.696 1378.66 868.343C1381.62 864.233 1384.56 860.148 1387.48 856.087 1390.4 852.026 1393.34 847.941 1396.3 843.83Z" fill-rule="evenodd"/><text fill="#000000" fill-opacity="0" font-family="Arial,Arial_MSFontService,sans-serif" font-size="38.1548" x="1378.66" y="877.216">4</text><path d="M1608.11 846.372C1610.05 846.372 1611.46 846.878 1612.32 847.891 1613.19 848.905 1613.62 850.262 1613.62 851.964 1613.62 853.261 1613.39 854.747 1612.93 856.422 1612.47 858.098 1611.82 859.867 1610.99 861.732 1610.15 863.596 1609.15 865.507 1607.99 867.466 1606.82 869.425 1605.54 871.33 1604.14 873.181 1602.73 875.031 1601.23 876.774 1599.64 878.409 1598.04 880.043 1596.39 881.468 1594.67 882.684 1592.96 883.9 1591.21 884.866 1589.45 885.582 1587.68 886.298 1585.91 886.656 1584.16 886.656 1583.37 886.656 1582.72 886.46 1582.19 886.068 1581.66 885.676 1581.24 885.123 1580.91 884.407 1580.59 883.691 1580.36 882.846 1580.23 881.874 1580.09 880.901 1580.02 879.834 1580.02 878.672 1580.02 877.132 1580.12 875.484 1580.31 873.728 1580.5 871.971 1580.74 870.202 1581.04 868.419L1582.74 857.193C1582.85 856.544 1582.93 855.929 1583 855.349 1583.07 854.768 1583.1 854.342 1583.1 854.072 1583.1 853.234 1582.97 852.545 1582.7 852.005 1582.43 851.465 1581.97 851.194 1581.32 851.194 1580.81 851.194 1580.25 851.35 1579.66 851.661 1579.06 851.971 1578.46 852.37 1577.85 852.856 1577.25 853.342 1576.66 853.862 1576.09 854.416 1575.52 854.97 1575 855.49 1574.51 855.977L1572.57 853.707C1573.4 852.843 1574.29 851.985 1575.24 851.134 1576.19 850.283 1577.19 849.513 1578.24 848.824 1579.29 848.135 1580.4 847.581 1581.56 847.162 1582.72 846.743 1583.91 846.534 1585.13 846.534 1586.16 846.534 1586.99 846.703 1587.64 847.04 1588.29 847.378 1588.8 847.824 1589.16 848.378 1589.53 848.932 1589.78 849.54 1589.91 850.202 1590.05 850.863 1590.11 851.519 1590.11 852.167 1590.11 852.545 1590.1 852.91 1590.07 853.261 1590.05 853.613 1590.01 853.937 1589.95 854.234L1587.68 868.905C1587.44 870.445 1587.24 871.951 1587.07 873.424 1586.91 874.896 1586.83 876.2 1586.83 877.335 1586.83 878.469 1586.9 879.388 1587.03 880.09 1587.17 880.793 1587.43 881.144 1587.8 881.144 1588.7 881.144 1589.82 880.786 1591.17 880.07 1592.52 879.354 1593.94 878.368 1595.42 877.112 1596.91 875.855 1598.4 874.369 1599.88 872.654 1601.37 870.938 1602.7 869.081 1603.89 867.081 1605.08 865.082 1606.05 862.974 1606.79 860.759 1607.53 858.543 1607.91 856.314 1607.91 854.072 1607.91 853.099 1607.7 852.349 1607.28 851.823 1606.86 851.296 1606.2 851.032 1605.31 851.032 1604.18 851.032 1603.13 851.471 1602.17 852.349 1601.21 853.228 1600.22 854.383 1599.19 855.815L1596.88 853.748C1597.53 852.775 1598.29 851.843 1599.17 850.951 1600.05 850.06 1600.98 849.276 1601.97 848.601 1602.95 847.925 1603.97 847.385 1605.03 846.98 1606.08 846.574 1607.11 846.372 1608.11 846.372Z" fill-rule="evenodd"/><text fill="#000000" fill-opacity="0" font-family="Arial,Arial_MSFontService,sans-serif" font-size="40.2842" x="1572.57" y="881.62">ğ‘£</text><path d="M1639.91 862.809 1642.6 862.809 1642.18 870.017 1624.72 870.017 1624.72 881.663C1625.78 881.306 1626.93 881.018 1628.18 880.799 1629.43 880.581 1630.69 880.472 1631.96 880.472 1633.79 880.472 1635.44 880.725 1636.92 881.231 1638.4 881.738 1639.67 882.462 1640.73 883.406 1641.8 884.349 1642.62 885.491 1643.21 886.831 1643.79 888.171 1644.08 889.675 1644.08 891.343 1644.08 893.25 1643.76 894.947 1643.1 896.437 1642.45 897.926 1641.51 899.192 1640.29 900.234 1639.07 901.277 1637.58 902.071 1635.82 902.617 1634.06 903.163 1632.08 903.436 1629.88 903.436 1628.13 903.436 1626.34 903.267 1624.52 902.93 1622.69 902.592 1620.79 902.096 1618.83 901.441L1618.83 894.828 1622.64 894.828C1623.23 896.834 1624.13 898.268 1625.32 899.132 1626.51 899.996 1628.08 900.428 1630.03 900.428 1632.63 900.428 1634.59 899.753 1635.92 898.402 1637.25 897.052 1637.92 894.937 1637.92 892.058 1637.92 889.298 1637.21 887.248 1635.8 885.908 1634.39 884.567 1632.42 883.897 1629.88 883.897 1629.2 883.897 1628.59 883.907 1628.05 883.927 1627.5 883.947 1626.96 883.996 1626.42 884.076 1625.89 884.155 1625.35 884.264 1624.83 884.403 1624.3 884.542 1623.71 884.701 1623.06 884.88L1620.61 883.54 1620.61 864.805 1637.11 864.805C1637.59 864.785 1637.97 864.755 1638.26 864.715 1638.55 864.676 1638.78 864.586 1638.96 864.447 1639.14 864.308 1639.3 864.115 1639.44 863.867 1639.58 863.618 1639.74 863.266 1639.91 862.809Z" fill-rule="evenodd"/><text fill="#000000" fill-opacity="0" font-family="Arial,Arial_MSFontService,sans-serif" font-size="40.627" x="1618.83" y="898.358">5</text><path d="M1535.92 979.288C1537.87 979.288 1539.27 979.795 1540.14 980.808 1541 981.821 1541.43 983.179 1541.43 984.881 1541.43 986.178 1541.2 987.664 1540.74 989.339 1540.28 991.014 1539.64 992.784 1538.8 994.648 1537.96 996.513 1536.96 998.424 1535.8 1000.38 1534.64 1002.34 1533.35 1004.25 1531.95 1006.1 1530.54 1007.95 1529.04 1009.69 1527.45 1011.33 1525.86 1012.96 1524.2 1014.39 1522.49 1015.6 1520.77 1016.82 1519.03 1017.78 1517.26 1018.5 1515.49 1019.21 1513.73 1019.57 1511.97 1019.57 1511.19 1019.57 1510.53 1019.38 1510 1018.98 1509.48 1018.59 1509.05 1018.04 1508.73 1017.32 1508.4 1016.61 1508.17 1015.76 1508.04 1014.79 1507.9 1013.82 1507.84 1012.75 1507.84 1011.59 1507.84 1010.05 1507.93 1008.4 1508.12 1006.64 1508.31 1004.89 1508.55 1003.12 1508.85 1001.34L1510.55 990.109C1510.66 989.461 1510.75 988.846 1510.81 988.265 1510.88 987.684 1510.92 987.259 1510.92 986.989 1510.92 986.151 1510.78 985.462 1510.51 984.922 1510.24 984.381 1509.78 984.111 1509.13 984.111 1508.62 984.111 1508.06 984.266 1507.47 984.577 1506.88 984.888 1506.27 985.286 1505.67 985.773 1505.06 986.259 1504.47 986.779 1503.9 987.333 1503.34 987.887 1502.81 988.407 1502.32 988.893L1500.38 986.624C1501.22 985.759 1502.11 984.901 1503.05 984.05 1504 983.199 1505 982.429 1506.05 981.74 1507.11 981.051 1508.21 980.497 1509.38 980.079 1510.54 979.66 1511.73 979.451 1512.94 979.451 1513.97 979.451 1514.81 979.619 1515.45 979.957 1516.1 980.295 1516.61 980.741 1516.97 981.294 1517.34 981.848 1517.59 982.456 1517.72 983.118 1517.86 983.78 1517.93 984.435 1517.93 985.084 1517.93 985.462 1517.91 985.827 1517.89 986.178 1517.86 986.529 1517.82 986.854 1517.76 987.151L1515.49 1001.82C1515.25 1003.36 1515.05 1004.87 1514.89 1006.34 1514.72 1007.81 1514.64 1009.12 1514.64 1010.25 1514.64 1011.39 1514.71 1012.3 1514.85 1013.01 1514.98 1013.71 1515.24 1014.06 1515.62 1014.06 1516.51 1014.06 1517.63 1013.7 1518.98 1012.99 1520.33 1012.27 1521.75 1011.28 1523.24 1010.03 1524.72 1008.77 1526.21 1007.29 1527.69 1005.57 1529.18 1003.85 1530.52 1002 1531.71 999.998 1532.89 997.999 1533.86 995.891 1534.6 993.676 1535.35 991.46 1535.72 989.231 1535.72 986.989 1535.72 986.016 1535.51 985.266 1535.09 984.739 1534.67 984.212 1534.02 983.949 1533.12 983.949 1531.99 983.949 1530.94 984.388 1529.98 985.266 1529.02 986.144 1528.03 987.299 1527 988.731L1524.69 986.664C1525.34 985.692 1526.11 984.76 1526.98 983.868 1527.86 982.976 1528.79 982.193 1529.78 981.517 1530.77 980.842 1531.79 980.302 1532.84 979.896 1533.89 979.491 1534.92 979.288 1535.92 979.288Z" fill-rule="evenodd"/><text fill="#000000" fill-opacity="0" font-family="Arial,Arial_MSFontService,sans-serif" font-size="40.2842" x="1500.38" y="1014.54">ğ‘£</text><path d="M1547.03 997.721 1572.94 997.721 1572.94 999.151 1555.46 1035.88 1550.9 1035.88 1550.9 1034.54 1566.92 1003.38 1566.92 1002.93 1554.29 1002.93C1553.42 1002.93 1552.74 1003 1552.25 1003.14 1551.77 1003.28 1551.34 1003.48 1550.96 1003.74 1550.8 1003.88 1550.66 1004.02 1550.54 1004.17 1550.42 1004.32 1550.3 1004.52 1550.18 1004.77 1550.06 1005.01 1549.94 1005.34 1549.81 1005.75 1549.68 1006.16 1549.53 1006.68 1549.35 1007.31L1546.37 1007.31Z" fill-rule="evenodd"/><text fill="#000000" fill-opacity="0" font-family="Arial,Arial_MSFontService,sans-serif" font-size="38.1548" x="1546.37" y="1031.11">7</text><path d="M1376.68 1146.33C1378.62 1146.33 1380.03 1146.84 1380.89 1147.85 1381.76 1148.87 1382.19 1150.22 1382.19 1151.93 1382.19 1153.22 1381.96 1154.71 1381.5 1156.38 1381.04 1158.06 1380.39 1159.83 1379.55 1161.69 1378.72 1163.56 1377.72 1165.47 1376.56 1167.43 1375.39 1169.39 1374.11 1171.29 1372.71 1173.14 1371.3 1174.99 1369.8 1176.74 1368.21 1178.37 1366.61 1180.01 1364.96 1181.43 1363.24 1182.65 1361.53 1183.86 1359.78 1184.83 1358.01 1185.54 1356.24 1186.26 1354.48 1186.62 1352.73 1186.62 1351.94 1186.62 1351.29 1186.42 1350.76 1186.03 1350.23 1185.64 1349.81 1185.08 1349.48 1184.37 1349.16 1183.65 1348.93 1182.81 1348.79 1181.84 1348.66 1180.86 1348.59 1179.8 1348.59 1178.63 1348.59 1177.09 1348.69 1175.45 1348.88 1173.69 1349.06 1171.93 1349.31 1170.16 1349.6 1168.38L1351.31 1157.15C1351.42 1156.51 1351.5 1155.89 1351.57 1155.31 1351.64 1154.73 1351.67 1154.3 1351.67 1154.03 1351.67 1153.2 1351.54 1152.51 1351.27 1151.97 1351 1151.43 1350.54 1151.16 1349.89 1151.16 1349.38 1151.16 1348.82 1151.31 1348.23 1151.62 1347.63 1151.93 1347.03 1152.33 1346.42 1152.82 1345.82 1153.3 1345.23 1153.82 1344.66 1154.38 1344.09 1154.93 1343.57 1155.45 1343.08 1155.94L1341.13 1153.67C1341.97 1152.8 1342.86 1151.95 1343.81 1151.1 1344.76 1150.24 1345.75 1149.47 1346.81 1148.79 1347.86 1148.1 1348.97 1147.54 1350.13 1147.12 1351.29 1146.71 1352.48 1146.5 1353.7 1146.5 1354.72 1146.5 1355.56 1146.66 1356.21 1147 1356.86 1147.34 1357.37 1147.79 1357.73 1148.34 1358.1 1148.89 1358.35 1149.5 1358.48 1150.16 1358.62 1150.83 1358.68 1151.48 1358.68 1152.13 1358.68 1152.51 1358.67 1152.87 1358.64 1153.22 1358.62 1153.57 1358.58 1153.9 1358.52 1154.2L1356.25 1168.87C1356.01 1170.41 1355.81 1171.91 1355.64 1173.39 1355.48 1174.86 1355.4 1176.16 1355.4 1177.3 1355.4 1178.43 1355.47 1179.35 1355.6 1180.05 1355.74 1180.76 1355.99 1181.11 1356.37 1181.11 1357.26 1181.11 1358.39 1180.75 1359.74 1180.03 1361.09 1179.32 1362.51 1178.33 1363.99 1177.07 1365.48 1175.82 1366.96 1174.33 1368.45 1172.62 1369.94 1170.9 1371.27 1169.04 1372.46 1167.04 1373.65 1165.04 1374.62 1162.94 1375.36 1160.72 1376.1 1158.51 1376.47 1156.28 1376.47 1154.03 1376.47 1153.06 1376.27 1152.31 1375.85 1151.78 1375.43 1151.26 1374.77 1150.99 1373.88 1150.99 1372.75 1150.99 1371.7 1151.43 1370.74 1152.31 1369.78 1153.19 1368.79 1154.34 1367.76 1155.78L1365.45 1153.71C1366.1 1152.74 1366.86 1151.81 1367.74 1150.91 1368.62 1150.02 1369.55 1149.24 1370.54 1148.56 1371.52 1147.89 1372.54 1147.35 1373.6 1146.94 1374.65 1146.54 1375.68 1146.33 1376.68 1146.33Z" fill-rule="evenodd"/><text fill="#000000" fill-opacity="0" font-family="Arial,Arial_MSFontService,sans-serif" font-size="40.2842" x="1341.13" y="1181.58">ğ‘£</text><path d="M1399.85 1184.57C1398.5 1184.57 1397.33 1184.76 1396.35 1185.13 1395.36 1185.49 1394.55 1186.01 1393.92 1186.67 1393.28 1187.34 1392.82 1188.14 1392.53 1189.09 1392.25 1190.03 1392.1 1191.08 1392.1 1192.23 1392.1 1193.46 1392.26 1194.58 1392.58 1195.58 1392.9 1196.58 1393.39 1197.44 1394.05 1198.16 1394.72 1198.87 1395.54 1199.42 1396.52 1199.81 1397.51 1200.2 1398.65 1200.39 1399.97 1200.39 1401.34 1200.39 1402.49 1200.19 1403.44 1199.78 1404.38 1199.37 1405.15 1198.82 1405.76 1198.13 1406.36 1197.43 1406.81 1196.62 1407.08 1195.68 1407.36 1194.75 1407.5 1193.78 1407.5 1192.77 1407.5 1191.47 1407.32 1190.32 1406.96 1189.3 1406.61 1188.27 1406.1 1187.42 1405.43 1186.73 1404.77 1186.05 1403.96 1185.52 1403 1185.14 1402.05 1184.76 1401 1184.57 1399.85 1184.57ZM1399.91 1167.09C1397.52 1167.09 1395.71 1167.7 1394.45 1168.92 1393.2 1170.14 1392.58 1171.88 1392.58 1174.12 1392.58 1175.27 1392.72 1176.31 1393.01 1177.23 1393.3 1178.16 1393.75 1178.95 1394.37 1179.61 1394.98 1180.28 1395.76 1180.78 1396.69 1181.12 1397.62 1181.46 1398.72 1181.63 1399.99 1181.63 1401.36 1181.63 1402.51 1181.44 1403.44 1181.06 1404.36 1180.68 1405.1 1180.17 1405.67 1179.51 1406.23 1178.86 1406.65 1178.1 1406.91 1177.23 1407.16 1176.37 1407.29 1175.45 1407.29 1174.48 1407.29 1173.29 1407.11 1172.23 1406.74 1171.32 1406.37 1170.41 1405.87 1169.63 1405.22 1168.98 1404.58 1168.34 1403.8 1167.86 1402.9 1167.55 1402 1167.24 1401 1167.09 1399.91 1167.09ZM1399.99 1164.2C1402.32 1164.2 1404.32 1164.44 1406 1164.92 1407.67 1165.39 1409.05 1166.05 1410.14 1166.9 1411.22 1167.74 1412.02 1168.75 1412.55 1169.92 1413.08 1171.09 1413.34 1172.39 1413.34 1173.82 1413.34 1175.85 1412.78 1177.57 1411.67 1179 1410.56 1180.43 1408.87 1181.67 1406.61 1182.7 1406.61 1182.76 1406.61 1182.84 1406.62 1182.94 1406.63 1183.04 1406.64 1183.11 1406.64 1183.17 1408.98 1184.01 1410.73 1185.23 1411.88 1186.84 1413.03 1188.45 1413.61 1190.29 1413.61 1192.38 1413.61 1194.03 1413.28 1195.53 1412.62 1196.89 1411.97 1198.25 1411.03 1199.42 1409.79 1200.4 1408.56 1201.39 1407.08 1202.14 1405.36 1202.67 1403.63 1203.19 1401.68 1203.46 1399.52 1203.46 1397.49 1203.46 1395.65 1203.22 1393.99 1202.74 1392.34 1202.27 1390.92 1201.57 1389.73 1200.66 1388.55 1199.74 1387.64 1198.63 1386.99 1197.31 1386.35 1195.99 1386.03 1194.5 1386.03 1192.85 1386.03 1191.66 1386.19 1190.61 1386.52 1189.68 1386.84 1188.76 1387.31 1187.93 1387.9 1187.2 1388.5 1186.46 1389.23 1185.81 1390.09 1185.23 1390.96 1184.65 1391.92 1184.1 1393 1183.56L1393 1183.17C1390.77 1182.22 1389.14 1181 1388.1 1179.53 1387.05 1178.05 1386.53 1176.28 1386.53 1174.24 1386.49 1172.75 1386.82 1171.38 1387.51 1170.14 1388.21 1168.9 1389.17 1167.84 1390.39 1166.97 1391.61 1166.1 1393.05 1165.42 1394.72 1164.93 1396.39 1164.44 1398.15 1164.2 1399.99 1164.2Z" fill-rule="evenodd"/><text fill="#000000" fill-opacity="0" font-family="Arial,Arial_MSFontService,sans-serif" font-size="39.2568" x="1386.03" y="1198.55">8</text><path d="M1629.68 1135.33C1631.62 1135.33 1633.03 1135.84 1633.89 1136.85 1634.76 1137.87 1635.19 1139.22 1635.19 1140.93 1635.19 1142.22 1634.96 1143.71 1634.5 1145.38 1634.04 1147.06 1633.39 1148.83 1632.55 1150.69 1631.72 1152.56 1630.72 1154.47 1629.56 1156.43 1628.39 1158.39 1627.11 1160.29 1625.71 1162.14 1624.3 1163.99 1622.8 1165.74 1621.21 1167.37 1619.61 1169.01 1617.96 1170.43 1616.24 1171.65 1614.53 1172.86 1612.78 1173.83 1611.01 1174.54 1609.24 1175.26 1607.48 1175.62 1605.73 1175.62 1604.94 1175.62 1604.29 1175.42 1603.76 1175.03 1603.23 1174.64 1602.81 1174.08 1602.48 1173.37 1602.16 1172.65 1601.93 1171.81 1601.79 1170.84 1601.66 1169.86 1601.59 1168.8 1601.59 1167.63 1601.59 1166.09 1601.69 1164.45 1601.88 1162.69 1602.06 1160.93 1602.31 1159.16 1602.6 1157.38L1604.31 1146.15C1604.42 1145.51 1604.5 1144.89 1604.57 1144.31 1604.64 1143.73 1604.67 1143.3 1604.67 1143.03 1604.67 1142.2 1604.54 1141.51 1604.27 1140.97 1604 1140.43 1603.54 1140.16 1602.89 1140.16 1602.38 1140.16 1601.82 1140.31 1601.23 1140.62 1600.63 1140.93 1600.03 1141.33 1599.42 1141.82 1598.82 1142.3 1598.23 1142.82 1597.66 1143.38 1597.09 1143.93 1596.57 1144.45 1596.08 1144.94L1594.13 1142.67C1594.97 1141.8 1595.86 1140.95 1596.81 1140.1 1597.76 1139.24 1598.75 1138.47 1599.81 1137.79 1600.86 1137.1 1601.97 1136.54 1603.13 1136.12 1604.29 1135.71 1605.48 1135.5 1606.7 1135.5 1607.72 1135.5 1608.56 1135.66 1609.21 1136 1609.86 1136.34 1610.37 1136.79 1610.73 1137.34 1611.1 1137.89 1611.35 1138.5 1611.48 1139.16 1611.62 1139.83 1611.68 1140.48 1611.68 1141.13 1611.68 1141.51 1611.67 1141.87 1611.64 1142.22 1611.62 1142.57 1611.58 1142.9 1611.52 1143.2L1609.25 1157.87C1609.01 1159.41 1608.81 1160.91 1608.64 1162.39 1608.48 1163.86 1608.4 1165.16 1608.4 1166.3 1608.4 1167.43 1608.47 1168.35 1608.6 1169.05 1608.74 1169.76 1608.99 1170.11 1609.37 1170.11 1610.26 1170.11 1611.39 1169.75 1612.74 1169.03 1614.09 1168.32 1615.51 1167.33 1616.99 1166.07 1618.48 1164.82 1619.96 1163.33 1621.45 1161.62 1622.94 1159.9 1624.27 1158.04 1625.46 1156.04 1626.65 1154.04 1627.62 1151.94 1628.36 1149.72 1629.1 1147.51 1629.47 1145.28 1629.47 1143.03 1629.47 1142.06 1629.27 1141.31 1628.85 1140.78 1628.43 1140.26 1627.77 1139.99 1626.88 1139.99 1625.75 1139.99 1624.7 1140.43 1623.74 1141.31 1622.78 1142.19 1621.79 1143.34 1620.76 1144.78L1618.45 1142.71C1619.1 1141.74 1619.86 1140.81 1620.74 1139.91 1621.62 1139.02 1622.55 1138.24 1623.54 1137.56 1624.52 1136.89 1625.54 1136.35 1626.6 1135.94 1627.65 1135.54 1628.68 1135.33 1629.68 1135.33Z" fill-rule="evenodd"/><text fill="#000000" fill-opacity="0" font-family="Arial,Arial_MSFontService,sans-serif" font-size="40.2842" x="1594.13" y="1170.58">ğ‘£</text><path d="M1652.43 1156.09C1651.06 1156.09 1649.87 1156.31 1648.87 1156.75 1647.87 1157.18 1647.03 1157.8 1646.37 1158.59 1645.7 1159.39 1645.21 1160.35 1644.88 1161.5 1644.55 1162.64 1644.39 1163.91 1644.39 1165.32 1644.39 1167.92 1644.96 1169.94 1646.11 1171.36 1647.27 1172.77 1649 1173.48 1651.33 1173.48 1652.66 1173.48 1653.9 1173.31 1655.06 1172.96 1656.23 1172.62 1657.27 1172.14 1658.21 1171.55 1658.6 1171.29 1658.91 1171.05 1659.13 1170.82 1659.35 1170.59 1659.53 1170.34 1659.67 1170.07 1659.81 1169.81 1659.89 1169.46 1659.92 1169.05 1659.95 1168.63 1659.96 1168.07 1659.96 1167.38 1659.96 1165.79 1659.83 1164.31 1659.56 1162.93 1659.29 1161.55 1658.86 1160.35 1658.25 1159.35 1657.65 1158.35 1656.86 1157.55 1655.9 1156.97 1654.94 1156.38 1653.78 1156.09 1652.43 1156.09ZM1652.82 1153.2C1654.96 1153.2 1656.85 1153.55 1658.48 1154.26 1660.1 1154.96 1661.47 1155.99 1662.59 1157.33 1663.7 1158.67 1664.54 1160.32 1665.12 1162.3 1665.69 1164.28 1665.98 1166.54 1665.98 1169.11 1665.98 1172.5 1665.52 1175.59 1664.6 1178.37 1663.67 1181.15 1662.35 1183.54 1660.63 1185.53 1658.92 1187.53 1656.85 1189.11 1654.44 1190.28 1652.03 1191.46 1649.35 1192.13 1646.41 1192.31L1645.07 1190.79 1645.07 1188.97C1647.36 1188.97 1649.36 1188.6 1651.07 1187.84 1652.79 1187.09 1654.26 1186.04 1655.48 1184.71 1656.7 1183.38 1657.66 1181.8 1658.36 1179.98 1659.05 1178.15 1659.49 1176.15 1659.67 1173.96L1659.4 1173.81C1657.71 1174.86 1656.07 1175.65 1654.47 1176.18 1652.87 1176.71 1651.12 1176.97 1649.21 1176.97 1647.46 1176.97 1645.92 1176.71 1644.58 1176.2 1643.24 1175.68 1642.11 1174.94 1641.2 1173.98 1640.29 1173.01 1639.6 1171.85 1639.13 1170.48 1638.66 1169.11 1638.43 1167.54 1638.43 1165.77 1638.43 1164.06 1638.73 1162.45 1639.34 1160.93 1639.94 1159.41 1640.85 1158.08 1642.06 1156.94 1643.28 1155.8 1644.78 1154.89 1646.59 1154.21 1648.4 1153.54 1650.47 1153.2 1652.82 1153.2Z" fill-rule="evenodd"/><text fill="#000000" fill-opacity="0" font-family="Arial,Arial_MSFontService,sans-serif" font-size="39.1079" x="1638.43" y="1187.42">9</text><path d="M1896.5 925C1896.5 916.44 1903.22 909.5 1911.5 909.5 1919.78 909.5 1926.5 916.44 1926.5 925 1926.5 933.56 1919.78 940.5 1911.5 940.5 1903.22 940.5 1896.5 933.56 1896.5 925Z" stroke="#000000" stroke-width="4.58333" stroke-miterlimit="8" fill="none" fill-rule="evenodd"/><path d="M1997.5 925C1997.5 916.44 2004.22 909.5 2012.5 909.5 2020.78 909.5 2027.5 916.44 2027.5 925 2027.5 933.56 2020.78 940.5 2012.5 940.5 2004.22 940.5 1997.5 933.56 1997.5 925Z" stroke="#000000" stroke-width="4.58333" stroke-miterlimit="8" fill="none" fill-rule="evenodd"/><path d="M1971 862 2001.59 913.703" stroke="#000000" stroke-width="5.72917" stroke-miterlimit="8" fill="none" fill-rule="evenodd"/><path d="M0 0 70.553 0.0519685" stroke="#000000" stroke-width="5.72917" stroke-miterlimit="8" fill="none" fill-rule="evenodd" transform="matrix(-1 0 0 1 1996.55 924)"/><path d="M0 0 27.3015 51.7552" stroke="#000000" stroke-width="5.72917" stroke-miterlimit="8" fill="none" fill-rule="evenodd" transform="matrix(-1 0 0 1 1949.3 862)"/><path d="M1944.5 851.5C1944.5 843.216 1951.44 836.5 1960 836.5 1968.56 836.5 1975.5 843.216 1975.5 851.5 1975.5 859.784 1968.56 866.5 1960 866.5 1951.44 866.5 1944.5 859.784 1944.5 851.5Z" stroke="#000000" stroke-width="4.58333" stroke-miterlimit="8" fill="none" fill-rule="evenodd"/><path d="M1727.5 949 1759.5 949 1759.5 877.5 1791.5 1020.5 1759.5 1163.5 1759.5 1092 1727.5 1092Z" stroke="#000000" stroke-width="3.4375" stroke-miterlimit="8" fill="#D9D9D9" fill-rule="evenodd"/><text font-family="Times New Roman,Times New Roman_MSFontService,sans-serif" font-weight="400" font-size="92" transform="matrix(1 0 0 1 2091.44 915)">#triangles </text><path d="M2481.42 894.65 2536.76 894.65 2536.76 900.624 2481.42 900.624ZM2481.42 876.007 2536.76 876.007 2536.76 881.982 2481.42 881.982Z" fill-rule="evenodd"/><text fill="#000000" fill-opacity="0" font-family="Arial,Arial_MSFontService,sans-serif" font-size="24.6172" x="2481.42" y="897.547">=</text><path d="M2597.37 863.114 2579.81 891.011 2579.81 891.64 2597.37 891.64 2597.37 880.454C2597.37 877.639 2597.42 874.487 2597.51 870.998 2597.59 867.509 2597.7 864.881 2597.82 863.114ZM2598.67 852.962 2605.1 852.962 2605.1 891.64 2606.04 891.64C2607.78 891.64 2609.02 891.513 2609.77 891.258 2610.52 891.003 2611.14 890.554 2611.63 889.91 2612.13 889.266 2612.58 888.211 2613 886.743L2616.42 886.743 2615.88 895.997 2605.1 895.997 2605.1 903.364C2605.1 905.371 2605.16 906.838 2605.3 907.767 2605.43 908.695 2605.66 909.429 2605.97 909.968 2606.29 910.507 2606.75 910.956 2607.37 911.316 2607.98 911.675 2608.98 912.034 2610.35 912.394L2610.35 914.595 2592.11 914.595 2592.11 912.394C2593.97 911.915 2595.21 911.383 2595.84 910.799 2596.47 910.215 2596.88 909.384 2597.08 908.306 2597.27 907.228 2597.37 905.581 2597.37 903.364L2597.37 895.997 2572.39 895.997 2572.39 892.628Z" fill-rule="evenodd"/><text fill="#000000" fill-opacity="0" font-family="Arial,Arial_MSFontService,sans-serif" font-size="61.6328" x="2572.39" y="906.891">4</text><path d="M1896.5 1056.5C1896.5 1048.22 1903.22 1041.5 1911.5 1041.5 1919.78 1041.5 1926.5 1048.22 1926.5 1056.5 1926.5 1064.78 1919.78 1071.5 1911.5 1071.5 1903.22 1071.5 1896.5 1064.78 1896.5 1056.5Z" stroke="#000000" stroke-width="4.58333" stroke-miterlimit="8" fill="none" fill-rule="evenodd"/><path d="M1997.5 1056.5C1997.5 1048.22 2004.22 1041.5 2012.5 1041.5 2020.78 1041.5 2027.5 1048.22 2027.5 1056.5 2027.5 1064.78 2020.78 1071.5 2012.5 1071.5 2004.22 1071.5 1997.5 1064.78 1997.5 1056.5Z" stroke="#000000" stroke-width="4.58333" stroke-miterlimit="8" fill="none" fill-rule="evenodd"/><path d="M1971 994 2001.59 1045.7" stroke="#000000" stroke-width="5.72917" stroke-miterlimit="8" fill="none" fill-rule="evenodd"/><path d="M0 0 27.3015 51.7552" stroke="#000000" stroke-width="5.72917" stroke-miterlimit="8" fill="none" fill-rule="evenodd" transform="matrix(-1 0 0 1 1949.3 994)"/><path d="M1944.5 983.5C1944.5 975.216 1951.44 968.5 1960 968.5 1968.56 968.5 1975.5 975.216 1975.5 983.5 1975.5 991.784 1968.56 998.5 1960 998.5 1951.44 998.5 1944.5 991.784 1944.5 983.5Z" stroke="#000000" stroke-width="4.58333" stroke-miterlimit="8" fill="none" fill-rule="evenodd"/><text font-family="Times New Roman,Times New Roman_MSFontService,sans-serif" font-weight="400" font-size="92" transform="matrix(1 0 0 1 2087.67 1053)">#2<tspan font-size="92" x="91.6668" y="0">-</tspan><tspan font-size="92" x="122.031" y="0">stars </tspan></text><path d="M2406.61 1033.55 2461.95 1033.55 2461.95 1039.53 2406.61 1039.53ZM2406.61 1014.91 2461.95 1014.91 2461.95 1020.89 2406.61 1020.89Z" fill-rule="evenodd"/><text fill="#000000" fill-opacity="0" font-family="Arial,Arial_MSFontService,sans-serif" font-size="24.6172" x="2406.61" y="1036.45">=</text><path d="M2570.37 995.28C2568.12 995.28 2566.22 995.669 2564.66 996.448 2563.11 997.226 2561.84 998.297 2560.87 999.66 2559.9 1001.02 2559.18 1002.62 2558.73 1004.47 2558.29 1006.31 2558.06 1008.31 2558.06 1010.46 2558.06 1014.93 2558.97 1018.38 2560.8 1020.84 2562.63 1023.3 2565.2 1024.52 2568.53 1024.52 2569.67 1024.52 2570.75 1024.43 2571.78 1024.23 2572.82 1024.04 2573.83 1023.75 2574.82 1023.38 2575.8 1023 2576.77 1022.52 2577.71 1021.94 2578.66 1021.36 2579.5 1020.74 2580.25 1020.08 2580.52 1019.84 2580.76 1019.52 2580.97 1019.13 2581.18 1018.74 2581.35 1018.23 2581.47 1017.61 2581.58 1016.98 2581.64 1015.99 2581.64 1014.64 2581.64 1010.54 2581.23 1007.03 2580.41 1004.11 2579.59 1001.19 2578.33 998.986 2576.64 997.503 2574.94 996.021 2572.85 995.28 2570.37 995.28ZM2570.86 991.461C2577.15 991.461 2581.94 993.633 2585.24 997.975 2588.53 1002.32 2590.18 1008.56 2590.18 1016.71 2590.18 1024.16 2588.97 1030.63 2586.54 1036.09 2584.12 1041.56 2580.72 1045.81 2576.34 1048.85 2571.97 1051.89 2566.87 1053.68 2561.03 1054.22L2559.18 1051.75 2559.18 1049.55C2563.38 1049.55 2567.01 1048.62 2570.08 1046.76 2573.15 1044.9 2575.62 1042.16 2577.49 1038.52 2579.36 1034.88 2580.61 1030.11 2581.24 1024.21L2580.79 1024.03C2578.28 1025.83 2575.8 1027.14 2573.36 1027.98 2570.92 1028.82 2568.27 1029.24 2565.43 1029.24 2562.04 1029.24 2559.16 1028.5 2556.78 1027.02 2554.4 1025.53 2552.61 1023.45 2551.41 1020.77 2550.21 1018.09 2549.62 1014.96 2549.62 1011.36 2549.62 1008.67 2550.06 1006.11 2550.96 1003.7 2551.86 1001.29 2553.19 999.18 2554.96 997.369 2556.73 995.557 2558.94 994.119 2561.59 993.056 2564.24 991.993 2567.33 991.461 2570.86 991.461ZM2519.95 991.461C2525.52 991.461 2529.73 992.682 2532.58 995.122 2535.42 997.563 2536.84 1001.1 2536.84 1005.75 2536.84 1007.33 2536.69 1008.79 2536.37 1010.13 2536.06 1011.46 2535.56 1012.78 2534.89 1014.08 2534.22 1015.38 2533.31 1016.78 2532.17 1018.28 2531.03 1019.78 2529.78 1021.3 2528.4 1022.84 2527.02 1024.38 2524.64 1026.95 2521.26 1030.54 2515.57 1036.56 2511.39 1041.82 2508.72 1046.31L2525.66 1046.31C2527.13 1046.31 2528.31 1046.22 2529.21 1046.04 2530.11 1045.86 2530.82 1045.56 2531.36 1045.14 2531.9 1044.72 2532.33 1044.18 2532.64 1043.5 2532.96 1042.83 2533.35 1041.79 2533.83 1040.38L2537.65 1040.38 2536.89 1053.5 2499.92 1053.5 2499.92 1051.34C2501.21 1048.2 2502.94 1044.98 2505.13 1041.68 2507.32 1038.39 2510.42 1034.51 2514.43 1030.05 2517.9 1026.22 2520.4 1023.31 2521.93 1021.33 2523.61 1019.18 2524.86 1017.31 2525.68 1015.74 2526.5 1014.17 2527.1 1012.69 2527.46 1011.29 2527.81 1009.9 2527.99 1008.5 2527.99 1007.09 2527.99 1004.85 2527.64 1002.86 2526.92 1001.14 2526.2 999.42 2525.1 998.065 2523.61 997.077 2522.13 996.088 2520.27 995.594 2518.02 995.594 2512.42 995.594 2508.65 998.709 2506.7 1004.94L2501.27 1004.94 2501.27 996.313C2504.89 994.606 2508.28 993.37 2511.44 992.607 2514.6 991.843 2517.44 991.461 2519.95 991.461Z" fill-rule="evenodd"/><text fill="#000000" fill-opacity="0" font-family="Arial,Arial_MSFontService,sans-serif" font-size="62.7559" x="2499.92" y="1046.37">29</text><text font-family="Times New Roman,Times New Roman_MSFontService,sans-serif" font-weight="400" font-size="92" transform="matrix(1 0 0 1 1890.23 1177)">clustering <tspan font-size="92" x="383.281" y="0">coeffieicent</tspan></text><path d="M2732.88 1157.3 2788.23 1157.3 2788.23 1163.27 2732.88 1163.27ZM2732.88 1138.65 2788.23 1138.65 2788.23 1144.63 2732.88 1144.63Z" fill-rule="evenodd"/><text fill="#000000" fill-opacity="0" font-family="Arial,Arial_MSFontService,sans-serif" font-size="24.6172" x="2732.88" y="1160.19">=</text><path d="M2845.87 1119.02C2843.8 1119.02 2842.07 1119.64 2840.68 1120.86 2839.29 1122.09 2838.17 1123.86 2837.31 1126.17 2836.46 1128.47 2835.85 1131.28 2835.49 1134.59 2835.13 1137.9 2834.95 1141.63 2834.95 1145.8 2834.95 1155.56 2835.86 1162.72 2837.67 1167.29 2839.48 1171.86 2842.29 1174.14 2846.09 1174.14 2849.72 1174.14 2852.41 1171.99 2854.16 1167.7 2855.91 1163.4 2856.79 1156.74 2856.79 1147.73 2856.79 1140.84 2856.34 1135.26 2855.44 1130.99 2854.54 1126.73 2853.29 1123.66 2851.69 1121.81 2850.08 1119.95 2848.15 1119.02 2845.87 1119.02ZM2846.09 1115.2C2852.65 1115.2 2857.53 1117.74 2860.74 1122.8 2863.94 1127.86 2865.54 1135.51 2865.54 1145.75 2865.54 1156.35 2863.83 1164.37 2860.4 1169.81 2856.97 1175.24 2851.96 1177.96 2845.38 1177.96 2838.91 1177.96 2834.09 1175.41 2830.93 1170.32 2827.77 1165.23 2826.19 1157.51 2826.19 1147.14 2826.19 1141.63 2826.68 1136.87 2827.65 1132.86 2828.63 1128.85 2829.99 1125.53 2831.74 1122.91 2833.49 1120.29 2835.6 1118.35 2838.05 1117.09 2840.51 1115.83 2843.19 1115.2 2846.09 1115.2Z" fill-rule="evenodd"/><text fill="#000000" fill-opacity="0" font-family="Arial,Arial_MSFontService,sans-serif" font-size="62.7559" x="2826.19" y="1170.12">0</text><path d="M2876.28 1166.82 2885.36 1166.82 2885.36 1177.24 2876.28 1177.24Z" fill-rule="evenodd"/><text fill="#000000" fill-opacity="0" font-family="Arial,Arial_MSFontService,sans-serif" font-size="10.4219" x="2876.28" y="1175.94">.</text><path d="M2918.73 1125.76 2901.17 1153.66 2901.17 1154.29 2918.73 1154.29 2918.73 1143.1C2918.73 1140.29 2918.77 1137.13 2918.86 1133.64 2918.95 1130.16 2919.06 1127.53 2919.18 1125.76ZM2920.03 1115.61 2926.46 1115.61 2926.46 1154.29 2927.4 1154.29C2929.14 1154.29 2930.38 1154.16 2931.13 1153.9 2931.88 1153.65 2932.5 1153.2 2932.99 1152.56 2933.49 1151.91 2933.94 1150.86 2934.36 1149.39L2937.78 1149.39 2937.24 1158.64 2926.46 1158.64 2926.46 1166.01C2926.46 1168.02 2926.52 1169.49 2926.66 1170.41 2926.79 1171.34 2927.02 1172.08 2927.33 1172.61 2927.65 1173.15 2928.11 1173.6 2928.72 1173.96 2929.34 1174.32 2930.33 1174.68 2931.71 1175.04L2931.71 1177.24 2913.47 1177.24 2913.47 1175.04C2915.33 1174.56 2916.57 1174.03 2917.2 1173.45 2917.83 1172.86 2918.24 1172.03 2918.44 1170.95 2918.63 1169.87 2918.73 1168.23 2918.73 1166.01L2918.73 1158.64 2893.75 1158.64 2893.75 1155.27ZM2970.31 1115.2 2972.78 1115.2C2972.6 1118.08 2972.51 1122.06 2972.51 1127.15L2972.51 1165.52C2972.51 1167.25 2972.61 1168.56 2972.81 1169.45 2973 1170.33 2973.35 1171.05 2973.84 1171.6 2974.33 1172.16 2975.05 1172.59 2975.97 1172.91 2976.9 1173.22 2978.07 1173.46 2979.48 1173.63 2980.89 1173.79 2982.74 1173.9 2985.05 1173.96L2985.05 1177.24 2951.85 1177.24 2951.85 1173.96C2955.18 1173.81 2957.55 1173.61 2958.97 1173.36 2960.39 1173.1 2961.48 1172.72 2962.23 1172.21 2962.98 1171.7 2963.52 1170.98 2963.87 1170.05 2964.21 1169.13 2964.38 1167.61 2964.38 1165.52L2964.38 1129.09C2964.38 1127.89 2964.17 1127.01 2963.76 1126.46 2963.34 1125.9 2962.72 1125.63 2961.91 1125.63 2960.96 1125.63 2959.59 1126.12 2957.83 1127.11 2956.06 1128.1 2953.87 1129.46 2951.27 1131.2L2949.29 1127.74Z" fill-rule="evenodd"/><text fill="#000000" fill-opacity="0" font-family="Arial,Arial_MSFontService,sans-serif" font-size="62.0371" x="2893.75" y="1169.49">41</text></g></svg>