<svg width="299" height="254" xmlns="http://www.w3.org/2000/svg" xmlns:xlink="http://www.w3.org/1999/xlink" overflow="hidden"><defs><clipPath id="clip0"><rect x="387" y="-5" width="299" height="254"/></clipPath></defs><g clip-path="url(#clip0)" transform="translate(-387 5)"><rect x="464.5" y="8.50005" width="221" height="239" stroke="#000000" stroke-width="1.33333" stroke-miterlimit="8" fill="none"/><path d="M547 193 601 193" stroke="#000000" stroke-width="6.05953" stroke-miterlimit="8" stroke-dasharray="6.05953 6.05953" stroke-opacity="0.501961" fill="none" fill-rule="evenodd"/><path d="M547 64 601 64" stroke="#000000" stroke-width="6.05953" stroke-miterlimit="8" stroke-dasharray="6.05953 6.05953" stroke-opacity="0.501961" fill="none" fill-rule="evenodd"/><path d="M640 116 640 147" stroke="#000000" stroke-width="6.05953" stroke-miterlimit="8" stroke-dasharray="6.05953 6.05953" stroke-opacity="0.501961" fill="none" fill-rule="evenodd"/><path d="M407 109C407 110.657 405.657 112 404 112 402.343 112 401 110.657 401 109 401 107.343 402.343 106 404 106 405.657 106 407 107.343 407 109Z" fill-rule="evenodd"/><path d="M407 135C407 136.657 405.657 138 404 138 402.343 138 401 136.657 401 135 401 133.343 402.343 132 404 132 405.657 132 407 133.343 407 135Z" fill-rule="evenodd"/><path d="M433 135C433 136.657 431.657 138 430 138 428.343 138 427 136.657 427 135 427 133.343 428.343 132 430 132 431.657 132 433 133.343 433 135Z" fill-rule="evenodd"/><path d="M433 109C433 110.657 431.657 112 430 112 428.343 112 427 110.657 427 109 427 107.343 428.343 106 430 106 431.657 106 433 107.343 433 109Z" fill-rule="evenodd"/><path d="M449.5 127.5C449.5 144.069 436.069 157.5 419.5 157.5 402.932 157.5 389.5 144.069 389.5 127.5 389.5 110.932 402.932 97.5001 419.5 97.5001 436.069 97.5001 449.5 110.932 449.5 127.5Z" stroke="#000000" stroke-width="1.05606" stroke-miterlimit="8" fill="none" fill-rule="evenodd"/><path d="M405.5 135.5 430.5 135.5" stroke="#000000" stroke-width="0.969554" stroke-miterlimit="8" fill="none" fill-rule="evenodd"/><path d="M430.5 109.5 404.5 109.5" stroke="#000000" stroke-width="0.969554" stroke-miterlimit="8" fill="none" fill-rule="evenodd"/><text font-family="Cambria Math,Cambria Math_MSFontService,sans-serif" font-weight="400" font-size="13" transform="translate(400.945 121)">ğ‘£<tspan font-size="9" x="7.19998" y="2">3</tspan><tspan font-size="13" x="25.8175" y="0">ğ‘£</tspan><tspan font-size="9" x="32.4442" y="2">4</tspan><tspan font-size="13" x="-0.0689392" y="25">ğ‘£</tspan><tspan font-size="9" x="6.8244" y="28">1</tspan><tspan font-size="13" x="25.5553" y="25">ğ‘£</tspan><tspan font-size="9" x="32.7552" y="28">2</tspan><tspan font-size="13" x="12.3202" y="-28">ğ‘€</tspan></text><path d="M629 49.0001C629 50.6569 627.657 52.0001 626 52.0001 624.343 52.0001 623 50.6569 623 49.0001 623 47.3431 624.343 46 626 46 627.657 46 629 47.3431 629 49.0001Z" fill-rule="evenodd"/><path d="M629 75.0001C629 76.6569 627.657 78.0001 626 78.0001 624.343 78.0001 623 76.6569 623 75.0001 623 73.3431 624.343 72 626 72 627.657 72 629 73.3431 629 75.0001Z" fill-rule="evenodd"/><path d="M654 75.0001C654 76.6569 652.881 78.0001 651.5 78.0001 650.119 78.0001 649 76.6569 649 75.0001 649 73.3431 650.119 72 651.5 72 652.881 72 654 73.3431 654 75.0001Z" fill-rule="evenodd"/><path d="M654 49.0001C654 50.6569 652.881 52.0001 651.5 52.0001 650.119 52.0001 649 50.6569 649 49.0001 649 47.3431 650.119 46 651.5 46 652.881 46 654 47.3431 654 49.0001Z" fill-rule="evenodd"/><path d="M671.5 67.5001C671.5 84.0686 657.845 97.5002 641 97.5002 624.155 97.5002 610.5 84.0686 610.5 67.5001 610.5 50.9315 624.155 37.5001 641 37.5001 657.845 37.5001 671.5 50.9315 671.5 67.5001Z" stroke="#000000" stroke-width="1.05606" stroke-miterlimit="8" fill="none" fill-rule="evenodd"/><path d="M626.5 75.5001 652.5 75.5001" stroke="#000000" stroke-width="0.969554" stroke-miterlimit="8" fill="none" fill-rule="evenodd"/><path d="M651.5 49.5001 626.5 49.5001" stroke="#000000" stroke-width="0.969554" stroke-miterlimit="8" fill="none" fill-rule="evenodd"/><text font-family="Cambria Math,Cambria Math_MSFontService,sans-serif" font-weight="400" font-size="13" transform="translate(622.478 61)">ğ‘£<tspan font-size="9" x="7.20001" y="2">3</tspan><tspan font-size="13" x="25.8175" y="0">ğ‘£</tspan><tspan font-size="9" x="32.4442" y="2">4</tspan><tspan font-size="13" x="-0.0689087" y="25">ğ‘£</tspan><tspan font-size="9" x="6.8244" y="28">1</tspan><tspan font-size="13" x="25.5552" y="25">ğ‘£</tspan><tspan font-size="9" x="32.7552" y="28">2</tspan><tspan font-size="13" x="11.1942" y="-28">ğº</tspan><tspan font-size="9" x="18.7475" y="-26">4</tspan><tspan font-size="13" x="-12.3731" y="49">ğ‘”</tspan></text><path d="M641.777 99.7938C643.013 100.12 643.962 100.823 644.624 101.904 645.287 102.986 645.618 104.29 645.618 105.818 645.618 107.35 645.288 108.654 644.628 109.731 643.967 110.808 643.017 111.509 641.777 111.835L641.625 111.347C642.603 111.021 643.329 110.377 643.806 109.417 644.282 108.456 644.52 107.235 644.52 105.754 644.52 104.324 644.283 103.136 643.809 102.19 643.335 101.244 642.601 100.608 641.606 100.283ZM623.481 99.7938 623.652 100.283C622.662 100.608 621.929 101.244 621.453 102.19 620.977 103.136 620.739 104.324 620.739 105.754 620.739 107.235 620.977 108.456 621.453 109.417 621.929 110.377 622.656 111.021 623.633 111.347L623.481 111.835C622.241 111.509 621.291 110.808 620.631 109.731 619.971 108.654 619.641 107.35 619.641 105.818 619.641 104.29 619.972 102.986 620.634 101.904 621.296 100.823 622.245 100.12 623.481 99.7938Z" fill-rule="evenodd"/><text font-family="Cambria Math,Cambria Math_MSFontService,sans-serif" font-weight="400" font-size="13" transform="translate(624.031 110)">1<tspan font-size="13" x="7.33331" y="0">,</tspan><tspan font-size="13" x="10" y="0">1</tspan><tspan font-size="13" x="26.5734" y="0">=</tspan><tspan font-size="13" x="40.28" y="0">5</tspan></text><path d="M626.5 75.5002 652.5 49.5001" stroke="#000000" stroke-width="0.969554" stroke-miterlimit="8" fill="none" fill-rule="evenodd"/><path d="M628 176C628 177.657 626.881 179 625.5 179 624.119 179 623 177.657 623 176 623 174.343 624.119 173 625.5 173 626.881 173 628 174.343 628 176Z" fill-rule="evenodd"/><path d="M628 202C628 203.657 626.881 205 625.5 205 624.119 205 623 203.657 623 202 623 200.343 624.119 199 625.5 199 626.881 199 628 200.343 628 202Z" fill-rule="evenodd"/><path d="M654 202C654 203.657 652.657 205 651 205 649.343 205 648 203.657 648 202 648 200.343 649.343 199 651 199 652.657 199 654 200.343 654 202Z" fill-rule="evenodd"/><path d="M654 176C654 177.657 652.657 179 651 179 649.343 179 648 177.657 648 176 648 174.343 649.343 173 651 173 652.657 173 654 174.343 654 176Z" fill-rule="evenodd"/><path d="M670.5 194.5C670.5 211.069 657.069 224.5 640.5 224.5 623.932 224.5 610.5 211.069 610.5 194.5 610.5 177.931 623.932 164.5 640.5 164.5 657.069 164.5 670.5 177.931 670.5 194.5Z" stroke="#000000" stroke-width="1.05606" stroke-miterlimit="8" fill="none" fill-rule="evenodd"/><path d="M651.5 176.5 625.5 176.5" stroke="#000000" stroke-width="0.969554" stroke-miterlimit="8" fill="none" fill-rule="evenodd"/><text font-family="Cambria Math,Cambria Math_MSFontService,sans-serif" font-weight="400" font-size="13" transform="translate(622.278 187)">ğ‘£<tspan font-size="9" x="7.20001" y="3">3</tspan><tspan font-size="13" x="25.8175" y="0">ğ‘£</tspan><tspan font-size="9" x="32.4442" y="3">4</tspan><tspan font-size="13" x="-0.0689087" y="26">ğ‘£</tspan><tspan font-size="9" x="6.8244" y="28">1</tspan><tspan font-size="13" x="25.5553" y="26">ğ‘£</tspan><tspan font-size="9" x="32.7552" y="28">2</tspan><tspan font-size="13" x="11.0009" y="-28">ğº</tspan><tspan font-size="9" x="18.9409" y="-25">2</tspan><tspan font-size="13" x="-13.0398" y="49">ğ‘”</tspan></text><path d="M640.911 226.52C642.146 226.846 643.095 227.549 643.758 228.63 644.42 229.712 644.751 231.016 644.751 232.544 644.751 234.076 644.421 235.38 643.761 236.457 643.101 237.534 642.151 238.235 640.911 238.561L640.758 238.072C641.736 237.747 642.463 237.103 642.939 236.143 643.415 235.182 643.653 233.961 643.653 232.48 643.653 231.05 643.416 229.862 642.942 228.916 642.468 227.97 641.734 227.334 640.739 227.008ZM622.614 226.52 622.786 227.008C621.796 227.334 621.062 227.97 620.586 228.916 620.11 229.862 619.872 231.05 619.872 232.48 619.872 233.961 620.11 235.182 620.586 236.143 621.062 237.103 621.789 237.747 622.767 238.072L622.614 238.561C621.374 238.235 620.424 237.534 619.764 236.457 619.104 235.38 618.774 234.076 618.774 232.544 618.774 231.016 619.105 229.712 619.767 228.63 620.43 227.549 621.379 226.846 622.614 226.52Z" fill-rule="evenodd"/><text font-family="Cambria Math,Cambria Math_MSFontService,sans-serif" font-weight="400" font-size="13" transform="translate(623.165 236)">0<tspan font-size="13" x="7.33331" y="0">,</tspan><tspan font-size="13" x="10" y="0">1</tspan><tspan font-size="13" x="26.5733" y="0">=</tspan><tspan font-size="13" x="40.28" y="0">3</tspan></text><path d="M626.5 202.5 652.5 176.5" stroke="#000000" stroke-width="0.969554" stroke-miterlimit="8" fill="none" fill-rule="evenodd"/><path d="M511 116 511 147" stroke="#000000" stroke-width="6.05953" stroke-miterlimit="8" stroke-dasharray="6.05953 6.05953" stroke-opacity="0.501961" fill="none" fill-rule="evenodd"/><path d="M499 49.0001C499 50.6569 497.657 52.0001 496 52.0001 494.343 52.0001 493 50.6569 493 49.0001 493 47.3431 494.343 46 496 46 497.657 46 499 47.3431 499 49.0001Z" fill-rule="evenodd"/><path d="M499 75.0001C499 76.6569 497.657 78.0001 496 78.0001 494.343 78.0001 493 76.6569 493 75.0001 493 73.3431 494.343 72 496 72 497.657 72 499 73.3431 499 75.0001Z" fill-rule="evenodd"/><path d="M525 75.0001C525 76.6569 523.657 78.0001 522 78.0001 520.343 78.0001 519 76.6569 519 75.0001 519 73.3431 520.343 72 522 72 523.657 72 525 73.3431 525 75.0001Z" fill-rule="evenodd"/><path d="M525 49.0001C525 50.6569 523.657 52.0001 522 52.0001 520.343 52.0001 519 50.6569 519 49.0001 519 47.3431 520.343 46 522 46 523.657 46 525 47.3431 525 49.0001Z" fill-rule="evenodd"/><path d="M541.5 67.5001C541.5 84.0686 527.845 97.5002 511 97.5002 494.155 97.5002 480.5 84.0686 480.5 67.5001 480.5 50.9315 494.155 37.5001 511 37.5001 527.845 37.5001 541.5 50.9315 541.5 67.5001Z" stroke="#000000" stroke-width="1.05606" stroke-miterlimit="8" fill="none" fill-rule="evenodd"/><path d="M496.5 75.5001 522.5 75.5001" stroke="#000000" stroke-width="0.969554" stroke-miterlimit="8" fill="none" fill-rule="evenodd"/><text font-family="Cambria Math,Cambria Math_MSFontService,sans-serif" font-weight="400" font-size="13" transform="translate(492.878 61)">ğ‘£<tspan font-size="9" x="7.19998" y="2">3</tspan><tspan font-size="13" x="25.8175" y="0">ğ‘£</tspan><tspan font-size="9" x="32.4442" y="2">4</tspan><tspan font-size="13" x="-0.0689392" y="25">ğ‘£</tspan><tspan font-size="9" x="6.8244" y="28">1</tspan><tspan font-size="13" x="25.5553" y="25">ğ‘£</tspan><tspan font-size="9" x="32.7553" y="28">2</tspan><tspan font-size="13" x="11.0008" y="-28">ğº</tspan><tspan font-size="9" x="18.9408" y="-26">3</tspan><tspan font-size="13" x="-12.7065" y="49">ğ‘”</tspan></text><path d="M511.844 99.7938C513.08 100.12 514.029 100.823 514.691 101.904 515.353 102.986 515.684 104.29 515.684 105.818 515.684 107.35 515.354 108.654 514.694 109.731 514.034 110.808 513.084 111.509 511.844 111.835L511.692 111.347C512.669 111.021 513.396 110.377 513.872 109.417 514.348 108.456 514.586 107.235 514.586 105.754 514.586 104.324 514.349 103.136 513.875 102.19 513.401 101.244 512.667 100.608 511.673 100.283ZM493.548 99.7938 493.719 100.283C492.729 100.608 491.996 101.244 491.52 102.19 491.044 103.136 490.806 104.324 490.806 105.754 490.806 107.235 491.044 108.456 491.52 109.417 491.996 110.377 492.723 111.021 493.7 111.347L493.548 111.835C492.308 111.509 491.358 110.808 490.698 109.731 490.037 108.654 489.707 107.35 489.707 105.818 489.707 104.29 490.039 102.986 490.701 101.904 491.363 100.823 492.312 100.12 493.548 99.7938Z" fill-rule="evenodd"/><text font-family="Cambria Math,Cambria Math_MSFontService,sans-serif" font-weight="400" font-size="13" transform="translate(494.098 110)">1<tspan font-size="13" x="7.33331" y="0">,</tspan><tspan font-size="13" x="10" y="0">0</tspan><tspan font-size="13" x="26.5733" y="0">=</tspan><tspan font-size="13" x="40.28" y="0">2</tspan></text><path d="M497.5 75.5002 522.5 49.5001" stroke="#000000" stroke-width="0.969554" stroke-miterlimit="8" fill="none" fill-rule="evenodd"/><path d="M499 176C499 177.657 497.657 179 496 179 494.343 179 493 177.657 493 176 493 174.343 494.343 173 496 173 497.657 173 499 174.343 499 176Z" fill-rule="evenodd"/><path d="M499 202C499 203.657 497.657 205 496 205 494.343 205 493 203.657 493 202 493 200.343 494.343 199 496 199 497.657 199 499 200.343 499 202Z" fill-rule="evenodd"/><path d="M525 202C525 203.657 523.657 205 522 205 520.343 205 519 203.657 519 202 519 200.343 520.343 199 522 199 523.657 199 525 200.343 525 202Z" fill-rule="evenodd"/><path d="M525 176C525 177.657 523.657 179 522 179 520.343 179 519 177.657 519 176 519 174.343 520.343 173 522 173 523.657 173 525 174.343 525 176Z" fill-rule="evenodd"/><path d="M541.5 194.5C541.5 211.069 527.845 224.5 511 224.5 494.155 224.5 480.5 211.069 480.5 194.5 480.5 177.931 494.155 164.5 511 164.5 527.845 164.5 541.5 177.931 541.5 194.5Z" stroke="#000000" stroke-width="1.05606" stroke-miterlimit="8" fill="none" fill-rule="evenodd"/><text font-family="Cambria Math,Cambria Math_MSFontService,sans-serif" font-weight="400" font-size="13" transform="translate(492.678 187)">ğ‘£<tspan font-size="9" x="7.20001" y="3">3</tspan><tspan font-size="13" x="25.8175" y="0">ğ‘£</tspan><tspan font-size="9" x="32.4442" y="3">4</tspan><tspan font-size="13" x="-0.0689087" y="26">ğ‘£</tspan><tspan font-size="9" x="6.8244" y="28">1</tspan><tspan font-size="13" x="25.5553" y="26">ğ‘£</tspan><tspan font-size="9" x="32.7553" y="28">2</tspan><tspan font-size="13" x="10.7637" y="-28">ğº</tspan><tspan font-size="9" x="18.397" y="-25">1</tspan><tspan font-size="13" x="-12.7065" y="49">ğ‘”</tspan></text><path d="M511.644 226.52C512.88 226.846 513.829 227.549 514.491 228.63 515.153 229.712 515.484 231.016 515.484 232.544 515.484 234.076 515.154 235.38 514.494 236.457 513.834 237.534 512.884 238.235 511.644 238.561L511.492 238.072C512.469 237.747 513.196 237.103 513.672 236.143 514.148 235.182 514.386 233.961 514.386 232.48 514.386 231.05 514.149 229.862 513.675 228.916 513.201 227.97 512.467 227.334 511.473 227.008ZM493.348 226.52 493.519 227.008C492.529 227.334 491.796 227.97 491.32 228.916 490.844 229.862 490.606 231.05 490.606 232.48 490.606 233.961 490.844 235.182 491.32 236.143 491.796 237.103 492.523 237.747 493.5 238.072L493.348 238.561C492.108 238.235 491.158 237.534 490.498 236.457 489.837 235.38 489.507 234.076 489.507 232.544 489.507 231.016 489.839 229.712 490.501 228.63 491.163 227.549 492.112 226.846 493.348 226.52Z" fill-rule="evenodd"/><text font-family="Cambria Math,Cambria Math_MSFontService,sans-serif" font-weight="400" font-size="13" transform="translate(493.898 236)">0<tspan font-size="13" x="7.33334" y="0">,</tspan><tspan font-size="13" x="10" y="0">0</tspan><tspan font-size="13" x="26.5733" y="0">=</tspan><tspan font-size="13" x="40.28" y="0">0</tspan></text><path d="M497.5 202.5 522.5 176.5" stroke="#000000" stroke-width="0.969554" stroke-miterlimit="8" fill="none" fill-rule="evenodd"/><rect x="483" y="0" width="183" height="16" fill="#FFFFFF"/><path d="M509.562 2.32507C510.797 2.65091 511.746 3.35444 512.409 4.43566 513.071 5.51688 513.402 6.82132 513.402 8.34899 513.402 9.88089 513.072 11.1853 512.412 12.2623 511.752 13.3393 510.802 14.0407 509.562 14.3666L509.409 13.8778C510.387 13.552 511.114 12.9087 511.59 11.9481 512.066 10.9875 512.304 9.76663 512.304 8.28551 512.304 6.85518 512.067 5.66711 511.593 4.7213 511.119 3.7755 510.385 3.13968 509.39 2.81383ZM491.265 2.32507 491.437 2.81383C490.446 3.13968 489.713 3.7755 489.237 4.7213 488.761 5.66711 488.523 6.85518 488.523 8.28551 488.523 9.76663 488.761 10.9875 489.237 11.9481 489.713 12.9087 490.44 13.552 491.418 13.8778L491.265 14.3666C490.025 14.0407 489.075 13.3393 488.415 12.2623 487.755 11.1853 487.425 9.88089 487.425 8.34899 487.425 6.82132 487.756 5.51688 488.418 4.43566 489.081 3.35444 490.03 2.65091 491.265 2.32507Z" fill-rule="evenodd"/><text font-family="Cambria Math,Cambria Math_MSFontService,sans-serif" font-weight="400" font-size="13" transform="translate(491.816 12)">2<tspan font-size="13" x="7.33331" y="0">,</tspan><tspan font-size="13" x="10" y="0">2</tspan><tspan font-family="Times New Roman,Times New Roman_MSFontService,sans-serif" font-size="13" x="22.8667" y="0">-</tspan>Boolean<tspan font-size="13" x="73.7" y="0"> </tspan><tspan font-family="Times New Roman,Times New Roman_MSFontService,sans-serif" font-size="13" x="76.7" y="0">independent cube</tspan></text></g></svg>