<svg width="326" height="92" xmlns="http://www.w3.org/2000/svg" xmlns:xlink="http://www.w3.org/1999/xlink" overflow="hidden"><defs><clipPath id="clip0"><rect x="336" y="145" width="326" height="92"/></clipPath></defs><g clip-path="url(#clip0)" transform="translate(-336 -145)"><path d="M0 0 24.5015 13.4968" stroke="#000000" stroke-miterlimit="8" fill="none" fill-rule="evenodd" transform="matrix(1 0 0 -1 432.5 180.997)"/><path d="M0 0 23.6947 14.2445" stroke="#000000" stroke-miterlimit="8" fill="none" fill-rule="evenodd" transform="matrix(1 0 0 -1 459.5 229.745)"/><path d="M483.421 180.997 459.5 167.5" stroke="#000000" stroke-miterlimit="8" fill="none" fill-rule="evenodd"/><path d="M457.122 229.694 432.5 215.5" stroke="#000000" stroke-miterlimit="8" fill="none" fill-rule="evenodd"/><path d="M0 0 0.000104987 27.5243" stroke="#000000" stroke-miterlimit="8" fill="none" fill-rule="evenodd" transform="matrix(1 0 0 -1 431.5 212.024)"/><path d="M0 0 0.105617 27.4737" stroke="#000000" stroke-miterlimit="8" fill="none" fill-rule="evenodd" transform="matrix(1 0 0 -1 484.5 211.974)"/><path d="M458.621 229.023 458.5 168.5" stroke="#000000" stroke-miterlimit="8" fill="none" fill-rule="evenodd"/><path d="M433.5 182.5 483.488 182.5" stroke="#000000" stroke-miterlimit="8" fill="none" fill-rule="evenodd"/><path d="M0 0 49.8826 0.0506037" stroke="#000000" stroke-miterlimit="8" fill="none" fill-rule="evenodd" transform="matrix(1 0 0 -1 433.5 213.551)"/><path d="M483.5 182.5C483.5 181.395 484.172 180.5 485 180.5 485.828 180.5 486.5 181.395 486.5 182.5 486.5 183.605 485.828 184.5 485 184.5 484.172 184.5 483.5 183.605 483.5 182.5Z" stroke="#000000" stroke-width="1.33333" stroke-miterlimit="8" fill-rule="evenodd"/><path d="M456.5 166.5C456.5 165.395 457.395 164.5 458.5 164.5 459.605 164.5 460.5 165.395 460.5 166.5 460.5 167.605 459.605 168.5 458.5 168.5 457.395 168.5 456.5 167.605 456.5 166.5Z" stroke="#000000" stroke-width="1.33333" stroke-miterlimit="8" fill-rule="evenodd"/><path d="M429.5 182.5C429.5 181.395 430.395 180.5 431.5 180.5 432.605 180.5 433.5 181.395 433.5 182.5 433.5 183.605 432.605 184.5 431.5 184.5 430.395 184.5 429.5 183.605 429.5 182.5Z" stroke="#000000" stroke-width="1.33333" stroke-miterlimit="8" fill-rule="evenodd"/><path d="M429.5 214C429.5 213.172 430.395 212.5 431.5 212.5 432.605 212.5 433.5 213.172 433.5 214 433.5 214.828 432.605 215.5 431.5 215.5 430.395 215.5 429.5 214.828 429.5 214Z" stroke="#000000" stroke-width="1.33333" stroke-miterlimit="8" fill-rule="evenodd"/><path d="M456.5 230.5C456.5 229.395 457.395 228.5 458.5 228.5 459.605 228.5 460.5 229.395 460.5 230.5 460.5 231.605 459.605 232.5 458.5 232.5 457.395 232.5 456.5 231.605 456.5 230.5Z" stroke="#000000" stroke-width="1.33333" stroke-miterlimit="8" fill-rule="evenodd"/><path d="M483.5 214C483.5 213.172 484.172 212.5 485 212.5 485.828 212.5 486.5 213.172 486.5 214 486.5 214.828 485.828 215.5 485 215.5 484.172 215.5 483.5 214.828 483.5 214Z" stroke="#000000" stroke-width="1.33333" stroke-miterlimit="8" fill-rule="evenodd"/><path d="M432.5 184.5 483.49 213.073" stroke="#000000" stroke-miterlimit="8" fill="none" fill-rule="evenodd"/><path d="M0 0 51.0952 28.6237" stroke="#000000" stroke-miterlimit="8" fill="none" fill-rule="evenodd" transform="matrix(1 0 0 -1 432.5 213.124)"/><path d="M0 0 24.5015 44.7745" stroke="#000000" stroke-miterlimit="8" fill="none" fill-rule="evenodd" transform="matrix(1 0 0 -1 432.5 212.275)"/><path d="M483.316 212.224 459.5 167.5" stroke="#000000" stroke-miterlimit="8" fill="none" fill-rule="evenodd"/><path d="M457.122 229.972 432.5 184.5" stroke="#000000" stroke-miterlimit="8" fill="none" fill-rule="evenodd"/><path d="M0 0 23.8003 45.4716" stroke="#000000" stroke-miterlimit="8" fill="none" fill-rule="evenodd" transform="matrix(1 0 0 -1 459.5 229.972)"/><path d="M376.5 182.5C376.5 181.395 377.395 180.5 378.5 180.5 379.605 180.5 380.5 181.395 380.5 182.5 380.5 183.605 379.605 184.5 378.5 184.5 377.395 184.5 376.5 183.605 376.5 182.5Z" stroke="#000000" stroke-width="1.33333" stroke-miterlimit="8" fill-rule="evenodd"/><path d="M344.5 182.5C344.5 181.395 345.395 180.5 346.5 180.5 347.605 180.5 348.5 181.395 348.5 182.5 348.5 183.605 347.605 184.5 346.5 184.5 345.395 184.5 344.5 183.605 344.5 182.5Z" stroke="#000000" stroke-width="1.33333" stroke-miterlimit="8" fill-rule="evenodd"/><path d="M344.5 214C344.5 213.172 345.395 212.5 346.5 212.5 347.605 212.5 348.5 213.172 348.5 214 348.5 214.828 347.605 215.5 346.5 215.5 345.395 215.5 344.5 214.828 344.5 214Z" stroke="#000000" stroke-width="1.33333" stroke-miterlimit="8" fill-rule="evenodd"/><path d="M376.5 213.5C376.5 212.395 377.395 211.5 378.5 211.5 379.605 211.5 380.5 212.395 380.5 213.5 380.5 214.605 379.605 215.5 378.5 215.5 377.395 215.5 376.5 214.605 376.5 213.5Z" stroke="#000000" stroke-width="1.33333" stroke-miterlimit="8" fill-rule="evenodd"/><path d="M348.5 182.5 376.988 182.5" stroke="#000000" stroke-miterlimit="8" fill="none" fill-rule="evenodd"/><path d="M0 0 28.3825 0.0506037" stroke="#000000" stroke-miterlimit="8" fill="none" fill-rule="evenodd" transform="matrix(1 0 0 -1 348.5 213.551)"/><path d="M0 0 0.000104987 27.5243" stroke="#000000" stroke-miterlimit="8" fill="none" fill-rule="evenodd" transform="matrix(1 0 0 -1 346.5 212.024)"/><path d="M0 0 0.105617 27.4737" stroke="#000000" stroke-miterlimit="8" fill="none" fill-rule="evenodd" transform="matrix(1 0 0 -1 378.5 211.974)"/><path d="M347.5 183.5 376.99 212.073" stroke="#000000" stroke-miterlimit="8" fill="none" fill-rule="evenodd"/><path d="M0 0 29.5951 28.6237" stroke="#000000" stroke-miterlimit="8" fill="none" fill-rule="evenodd" transform="matrix(1 0 0 -1 347.5 212.124)"/><path d="M419.5 182.5C419.5 181.395 420.172 180.5 421 180.5 421.828 180.5 422.5 181.395 422.5 182.5 422.5 183.605 421.828 184.5 421 184.5 420.172 184.5 419.5 183.605 419.5 182.5Z" stroke="#000000" stroke-width="1.33333" stroke-miterlimit="8" fill-rule="evenodd"/><path d="M386.5 182.5C386.5 181.395 387.395 180.5 388.5 180.5 389.605 180.5 390.5 181.395 390.5 182.5 390.5 183.605 389.605 184.5 388.5 184.5 387.395 184.5 386.5 183.605 386.5 182.5Z" stroke="#000000" stroke-width="1.33333" stroke-miterlimit="8" fill-rule="evenodd"/><path d="M386.5 214C386.5 213.172 387.395 212.5 388.5 212.5 389.605 212.5 390.5 213.172 390.5 214 390.5 214.828 389.605 215.5 388.5 215.5 387.395 215.5 386.5 214.828 386.5 214Z" stroke="#000000" stroke-width="1.33333" stroke-miterlimit="8" fill-rule="evenodd"/><path d="M418.5 213.5C418.5 212.395 419.395 211.5 420.5 211.5 421.605 211.5 422.5 212.395 422.5 213.5 422.5 214.605 421.605 215.5 420.5 215.5 419.395 215.5 418.5 214.605 418.5 213.5Z" stroke="#000000" stroke-width="1.33333" stroke-miterlimit="8" fill-rule="evenodd"/><path d="M390.5 182.5 418.988 182.5" stroke="#000000" stroke-miterlimit="8" fill="none" fill-rule="evenodd"/><path d="M0 0 28.3825 0.0506037" stroke="#000000" stroke-miterlimit="8" fill="none" fill-rule="evenodd" transform="matrix(1 0 0 -1 390.5 213.551)"/><path d="M0 0 0.000104987 27.5243" stroke="#000000" stroke-miterlimit="8" fill="none" fill-rule="evenodd" transform="matrix(1 0 0 -1 388.5 212.024)"/><path d="M0 0 0.105617 27.4737" stroke="#000000" stroke-miterlimit="8" fill="none" fill-rule="evenodd" transform="matrix(1 0 0 -1 420.5 211.974)"/><path d="M389.5 183.5 418.99 212.073" stroke="#000000" stroke-miterlimit="8" fill="none" fill-rule="evenodd"/><path d="M0 0 29.5951 28.6237" stroke="#000000" stroke-miterlimit="8" fill="none" fill-rule="evenodd" transform="matrix(1 0 0 -1 389.5 212.124)"/><rect x="337.5" y="155.5" width="157" height="81" stroke="#000000" stroke-miterlimit="8" fill="none"/><rect x="377" y="146" width="78" height="19" fill="#FFFFFF"/><text font-family="Cambria Math,Cambria Math_MSFontService,sans-serif" font-weight="400" font-size="16" transform="translate(379.956 161)">𝐺<tspan font-size="16" x="15.1467" y="0">=</tspan><tspan font-size="16" x="31.5934" y="0">(</tspan><tspan font-size="16" x="38.26" y="0">𝑉</tspan><tspan font-size="16" x="48.7667" y="0">,</tspan><tspan font-size="16" x="54.7667" y="0">𝐸</tspan><tspan font-size="16" x="65.3933" y="0">)</tspan></text><path d="M0 0 24.5015 13.4968" stroke="#000000" stroke-miterlimit="8" fill="none" fill-rule="evenodd" transform="matrix(1 0 0 -1 598.5 180.997)"/><path d="M623.122 229.694 598.5 215.5" stroke="#000000" stroke-miterlimit="8" fill="none" fill-rule="evenodd"/><path d="M0 0 0.105617 27.4737" stroke="#000000" stroke-miterlimit="8" fill="none" fill-rule="evenodd" transform="matrix(1 0 0 -1 650.5 211.974)"/><path d="M649.5 182.5C649.5 181.395 650.172 180.5 651 180.5 651.828 180.5 652.5 181.395 652.5 182.5 652.5 183.605 651.828 184.5 651 184.5 650.172 184.5 649.5 183.605 649.5 182.5Z" stroke="#000000" stroke-width="1.33333" stroke-miterlimit="8" fill-rule="evenodd"/><path d="M622.5 166.5C622.5 165.395 623.396 164.5 624.5 164.5 625.605 164.5 626.5 165.395 626.5 166.5 626.5 167.605 625.605 168.5 624.5 168.5 623.396 168.5 622.5 167.605 622.5 166.5Z" stroke="#000000" stroke-width="1.33333" stroke-miterlimit="8" fill-rule="evenodd"/><path d="M595.5 182.5C595.5 181.395 596.396 180.5 597.5 180.5 598.605 180.5 599.5 181.395 599.5 182.5 599.5 183.605 598.605 184.5 597.5 184.5 596.396 184.5 595.5 183.605 595.5 182.5Z" stroke="#000000" stroke-width="1.33333" stroke-miterlimit="8" fill-rule="evenodd"/><path d="M595.5 214C595.5 213.172 596.396 212.5 597.5 212.5 598.605 212.5 599.5 213.172 599.5 214 599.5 214.828 598.605 215.5 597.5 215.5 596.396 215.5 595.5 214.828 595.5 214Z" stroke="#000000" stroke-width="1.33333" stroke-miterlimit="8" fill-rule="evenodd"/><path d="M622.5 230.5C622.5 229.395 623.396 228.5 624.5 228.5 625.605 228.5 626.5 229.395 626.5 230.5 626.5 231.605 625.605 232.5 624.5 232.5 623.396 232.5 622.5 231.605 622.5 230.5Z" stroke="#000000" stroke-width="1.33333" stroke-miterlimit="8" fill-rule="evenodd"/><path d="M649.5 214C649.5 213.172 650.172 212.5 651 212.5 651.828 212.5 652.5 213.172 652.5 214 652.5 214.828 651.828 215.5 651 215.5 650.172 215.5 649.5 214.828 649.5 214Z" stroke="#000000" stroke-width="1.33333" stroke-miterlimit="8" fill-rule="evenodd"/><path d="M542.5 182.5C542.5 181.395 543.396 180.5 544.5 180.5 545.605 180.5 546.5 181.395 546.5 182.5 546.5 183.605 545.605 184.5 544.5 184.5 543.396 184.5 542.5 183.605 542.5 182.5Z" stroke="#000000" stroke-width="1.33333" stroke-miterlimit="8" fill-rule="evenodd"/><path d="M510.5 182.5C510.5 181.395 511.395 180.5 512.5 180.5 513.605 180.5 514.5 181.395 514.5 182.5 514.5 183.605 513.605 184.5 512.5 184.5 511.395 184.5 510.5 183.605 510.5 182.5Z" stroke="#000000" stroke-width="1.33333" stroke-miterlimit="8" fill-rule="evenodd"/><path d="M510.5 214C510.5 213.172 511.395 212.5 512.5 212.5 513.605 212.5 514.5 213.172 514.5 214 514.5 214.828 513.605 215.5 512.5 215.5 511.395 215.5 510.5 214.828 510.5 214Z" stroke="#000000" stroke-width="1.33333" stroke-miterlimit="8" fill-rule="evenodd"/><path d="M542.5 213.5C542.5 212.395 543.396 211.5 544.5 211.5 545.605 211.5 546.5 212.395 546.5 213.5 546.5 214.605 545.605 215.5 544.5 215.5 543.396 215.5 542.5 214.605 542.5 213.5Z" stroke="#000000" stroke-width="1.33333" stroke-miterlimit="8" fill-rule="evenodd"/><path d="M513.5 183.5 542.99 212.073" stroke="#000000" stroke-miterlimit="8" fill="none" fill-rule="evenodd"/><path d="M0 0 29.5951 28.6237" stroke="#000000" stroke-miterlimit="8" fill="none" fill-rule="evenodd" transform="matrix(1 0 0 -1 513.5 212.124)"/><path d="M585.5 182.5C585.5 181.395 586.172 180.5 587 180.5 587.828 180.5 588.5 181.395 588.5 182.5 588.5 183.605 587.828 184.5 587 184.5 586.172 184.5 585.5 183.605 585.5 182.5Z" stroke="#000000" stroke-width="1.33333" stroke-miterlimit="8" fill-rule="evenodd"/><path d="M552.5 182.5C552.5 181.395 553.396 180.5 554.5 180.5 555.605 180.5 556.5 181.395 556.5 182.5 556.5 183.605 555.605 184.5 554.5 184.5 553.396 184.5 552.5 183.605 552.5 182.5Z" stroke="#000000" stroke-width="1.33333" stroke-miterlimit="8" fill-rule="evenodd"/><path d="M552.5 214C552.5 213.172 553.396 212.5 554.5 212.5 555.605 212.5 556.5 213.172 556.5 214 556.5 214.828 555.605 215.5 554.5 215.5 553.396 215.5 552.5 214.828 552.5 214Z" stroke="#000000" stroke-width="1.33333" stroke-miterlimit="8" fill-rule="evenodd"/><path d="M584.5 213.5C584.5 212.395 585.396 211.5 586.5 211.5 587.605 211.5 588.5 212.395 588.5 213.5 588.5 214.605 587.605 215.5 586.5 215.5 585.396 215.5 584.5 214.605 584.5 213.5Z" stroke="#000000" stroke-width="1.33333" stroke-miterlimit="8" fill-rule="evenodd"/><path d="M0 0 0.000104987 27.5243" stroke="#000000" stroke-miterlimit="8" fill="none" fill-rule="evenodd" transform="matrix(1 0 0 -1 554.5 212.024)"/><path d="M0 0 0.105617 27.4737" stroke="#000000" stroke-miterlimit="8" fill="none" fill-rule="evenodd" transform="matrix(1 0 0 -1 586.5 211.974)"/><rect x="503.5" y="155.5" width="157" height="81" stroke="#000000" stroke-miterlimit="8" fill="none"/><rect x="571" y="146" width="22" height="19" fill="#FFFFFF"/><text font-family="Cambria Math,Cambria Math_MSFontService,sans-serif" font-weight="400" font-size="16" transform="translate(574.956 161)">𝑀</text></g></svg>