<svg width="299" height="254" xmlns="http://www.w3.org/2000/svg" xmlns:xlink="http://www.w3.org/1999/xlink" overflow="hidden"><defs><clipPath id="clip0"><rect x="387" y="-5" width="299" height="254"/></clipPath></defs><g clip-path="url(#clip0)" transform="translate(-387 5)"><rect x="464.5" y="8.50005" width="221" height="239" stroke="#000000" stroke-width="1.33333" stroke-miterlimit="8" fill="none"/><path d="M547 193 601 193" stroke="#000000" stroke-width="6.05953" stroke-miterlimit="8" stroke-dasharray="6.05953 6.05953" stroke-opacity="0.501961" fill="none" fill-rule="evenodd"/><path d="M547 64 601 64" stroke="#000000" stroke-width="6.05953" stroke-miterlimit="8" stroke-dasharray="6.05953 6.05953" stroke-opacity="0.501961" fill="none" fill-rule="evenodd"/><path d="M640 116 640 147" stroke="#000000" stroke-width="6.05953" stroke-miterlimit="8" stroke-dasharray="6.05953 6.05953" stroke-opacity="0.501961" fill="none" fill-rule="evenodd"/><path d="M407 109C407 110.657 405.657 112 404 112 402.343 112 401 110.657 401 109 401 107.343 402.343 106 404 106 405.657 106 407 107.343 407 109Z" fill-rule="evenodd"/><path d="M407 135C407 136.657 405.657 138 404 138 402.343 138 401 136.657 401 135 401 133.343 402.343 132 404 132 405.657 132 407 133.343 407 135Z" fill-rule="evenodd"/><path d="M433 135C433 136.657 431.657 138 430 138 428.343 138 427 136.657 427 135 427 133.343 428.343 132 430 132 431.657 132 433 133.343 433 135Z" fill-rule="evenodd"/><path d="M433 109C433 110.657 431.657 112 430 112 428.343 112 427 110.657 427 109 427 107.343 428.343 106 430 106 431.657 106 433 107.343 433 109Z" fill-rule="evenodd"/><path d="M449.5 127.5C449.5 144.069 436.069 157.5 419.5 157.5 402.932 157.5 389.5 144.069 389.5 127.5 389.5 110.932 402.932 97.5001 419.5 97.5001 436.069 97.5001 449.5 110.932 449.5 127.5Z" stroke="#000000" stroke-width="1.05606" stroke-miterlimit="8" fill="none" fill-rule="evenodd"/><path d="M405.5 135.5 430.5 135.5" stroke="#000000" stroke-width="0.969554" stroke-miterlimit="8" fill="none" fill-rule="evenodd"/><path d="M430.5 109.5 404.5 109.5" stroke="#000000" stroke-width="0.969554" stroke-miterlimit="8" fill="none" fill-rule="evenodd"/><text font-family="Cambria Math,Cambria Math_MSFontService,sans-serif" font-weight="400" font-size="13" transform="translate(400.945 121)">ğ‘£<tspan font-size="9" x="7.19998" y="2">3</tspan><tspan font-size="13" x="25.8175" y="0">ğ‘£</tspan><tspan font-size="9" x="32.4442" y="2">4</tspan><tspan font-size="13" x="-0.0689392" y="25">ğ‘£</tspan><tspan font-size="9" x="6.8244" y="28">1</tspan><tspan font-size="13" x="25.5553" y="25">ğ‘£</tspan><tspan font-size="9" x="32.7552" y="28">2</tspan><tspan font-size="13" x="12.3202" y="-28">ğ‘€</tspan></text><path d="M629 49.0001C629 50.6569 627.657 52.0001 626 52.0001 624.343 52.0001 623 50.6569 623 49.0001 623 47.3431 624.343 46 626 46 627.657 46 629 47.3431 629 49.0001Z" fill-rule="evenodd"/><path d="M629 75.0001C629 76.6569 627.657 78.0001 626 78.0001 624.343 78.0001 623 76.6569 623 75.0001 623 73.3431 624.343 72 626 72 627.657 72 629 73.3431 629 75.0001Z" fill-rule="evenodd"/><path d="M654 75.0001C654 76.6569 652.881 78.0001 651.5 78.0001 650.119 78.0001 649 76.6569 649 75.0001 649 73.3431 650.119 72 651.5 72 652.881 72 654 73.3431 654 75.0001Z" fill-rule="evenodd"/><path d="M654 49.0001C654 50.6569 652.881 52.0001 651.5 52.0001 650.119 52.0001 649 50.6569 649 49.0001 649 47.3431 650.119 46 651.5 46 652.881 46 654 47.3431 654 49.0001Z" fill-rule="evenodd"/><path d="M671.5 67.5001C671.5 84.0686 657.845 97.5002 641 97.5002 624.155 97.5002 610.5 84.0686 610.5 67.5001 610.5 50.9315 624.155 37.5001 641 37.5001 657.845 37.5001 671.5 50.9315 671.5 67.5001Z" stroke="#000000" stroke-width="1.05606" stroke-miterlimit="8" fill="none" fill-rule="evenodd"/><path d="M626.5 75.5001 652.5 75.5001" stroke="#000000" stroke-width="0.969554" stroke-miterlimit="8" fill="none" fill-rule="evenodd"/><path d="M651.5 49.5001 626.5 49.5001" stroke="#000000" stroke-width="0.969554" stroke-miterlimit="8" fill="none" fill-rule="evenodd"/><text font-family="Cambria Math,Cambria Math_MSFontService,sans-serif" font-weight="400" font-size="13" transform="translate(622.478 61)">ğ‘£<tspan font-size="9" x="7.20001" y="2">3</tspan><tspan font-size="13" x="25.8175" y="0">ğ‘£</tspan><tspan font-size="9" x="32.4442" y="2">4</tspan><tspan font-size="13" x="-0.0689087" y="25">ğ‘£</tspan><tspan font-size="9" x="6.8244" y="28">1</tspan><tspan font-size="13" x="25.5552" y="25">ğ‘£</tspan><tspan font-size="9" x="32.7552" y="28">2</tspan><tspan font-size="13" x="11.1942" y="-28">ğº</tspan><tspan font-size="9" x="18.7475" y="-26">4</tspan><tspan font-size="13" x="-11.2598" y="49">ğ‘“</tspan></text><path d="M638.664 99.7938C639.9 100.12 640.849 100.823 641.511 101.904 642.173 102.986 642.504 104.29 642.504 105.818 642.504 107.35 642.174 108.654 641.514 109.731 640.854 110.808 639.904 111.509 638.664 111.835L638.512 111.347C639.489 111.021 640.216 110.377 640.692 109.417 641.168 108.456 641.406 107.235 641.406 105.754 641.406 104.324 641.169 103.136 640.695 102.19 640.221 101.244 639.487 100.608 638.493 100.283ZM623.928 99.7938 624.099 100.283C623.109 100.608 622.376 101.244 621.9 102.19 621.424 103.136 621.186 104.324 621.186 105.754 621.186 107.235 621.424 108.456 621.9 109.417 622.376 110.377 623.103 111.021 624.08 111.347L623.928 111.835C622.688 111.509 621.738 110.808 621.078 109.731 620.417 108.654 620.087 107.35 620.087 105.818 620.087 104.29 620.419 102.986 621.081 101.904 621.743 100.823 622.692 100.12 623.928 99.7938Z" fill-rule="evenodd"/><text font-family="Cambria Math,Cambria Math_MSFontService,sans-serif" font-weight="400" font-size="13" transform="translate(624.478 110)">ğº<tspan font-size="9" x="7.55334" y="2">4</tspan><tspan font-size="13" x="23.0134" y="0">=</tspan><tspan font-size="13" x="36.72" y="0">5</tspan></text><path d="M626.5 75.5002 652.5 49.5001" stroke="#000000" stroke-width="0.969554" stroke-miterlimit="8" fill="none" fill-rule="evenodd"/><path d="M628 176C628 177.657 626.881 179 625.5 179 624.119 179 623 177.657 623 176 623 174.343 624.119 173 625.5 173 626.881 173 628 174.343 628 176Z" fill-rule="evenodd"/><path d="M628 202C628 203.657 626.881 205 625.5 205 624.119 205 623 203.657 623 202 623 200.343 624.119 199 625.5 199 626.881 199 628 200.343 628 202Z" fill-rule="evenodd"/><path d="M654 202C654 203.657 652.657 205 651 205 649.343 205 648 203.657 648 202 648 200.343 649.343 199 651 199 652.657 199 654 200.343 654 202Z" fill-rule="evenodd"/><path d="M654 176C654 177.657 652.657 179 651 179 649.343 179 648 177.657 648 176 648 174.343 649.343 173 651 173 652.657 173 654 174.343 654 176Z" fill-rule="evenodd"/><path d="M670.5 194.5C670.5 211.069 657.069 224.5 640.5 224.5 623.932 224.5 610.5 211.069 610.5 194.5 610.5 177.931 623.932 164.5 640.5 164.5 657.069 164.5 670.5 177.931 670.5 194.5Z" stroke="#000000" stroke-width="1.05606" stroke-miterlimit="8" fill="none" fill-rule="evenodd"/><path d="M651.5 176.5 625.5 176.5" stroke="#000000" stroke-width="0.969554" stroke-miterlimit="8" fill="none" fill-rule="evenodd"/><text font-family="Cambria Math,Cambria Math_MSFontService,sans-serif" font-weight="400" font-size="13" transform="translate(622.278 187)">ğ‘£<tspan font-size="9" x="7.20001" y="3">3</tspan><tspan font-size="13" x="25.8175" y="0">ğ‘£</tspan><tspan font-size="9" x="32.4442" y="3">4</tspan><tspan font-size="13" x="-0.0689087" y="26">ğ‘£</tspan><tspan font-size="9" x="6.8244" y="28">1</tspan><tspan font-size="13" x="25.5553" y="26">ğ‘£</tspan><tspan font-size="9" x="32.7552" y="28">2</tspan><tspan font-size="13" x="11.0009" y="-28">ğº</tspan><tspan font-size="9" x="18.9409" y="-25">2</tspan><tspan font-size="13" x="-11.4531" y="49">ğ‘“</tspan></text><path d="M638.657 226.52C639.893 226.846 640.842 227.549 641.504 228.63 642.167 229.712 642.498 231.016 642.498 232.544 642.498 234.076 642.168 235.38 641.508 236.457 640.847 237.534 639.897 238.235 638.657 238.561L638.505 238.072C639.483 237.747 640.209 237.103 640.685 236.143 641.162 235.182 641.4 233.961 641.4 232.48 641.4 231.05 641.163 229.862 640.689 228.916 640.215 227.97 639.48 227.334 638.486 227.008ZM623.534 226.52 623.706 227.008C622.716 227.334 621.982 227.97 621.506 228.916 621.03 229.862 620.792 231.05 620.792 232.48 620.792 233.961 621.03 235.182 621.506 236.143 621.982 237.103 622.709 237.747 623.687 238.072L623.534 238.561C622.294 238.235 621.344 237.534 620.684 236.457 620.024 235.38 619.694 234.076 619.694 232.544 619.694 231.016 620.025 229.712 620.687 228.63 621.35 227.549 622.299 226.846 623.534 226.52Z" fill-rule="evenodd"/><text font-family="Cambria Math,Cambria Math_MSFontService,sans-serif" font-weight="400" font-size="13" transform="translate(624.085 236)">ğº<tspan font-size="9" x="7.94" y="3">2</tspan><tspan font-size="13" x="23.4" y="0">=</tspan><tspan font-size="13" x="37.1066" y="0">3</tspan></text><path d="M626.5 202.5 652.5 176.5" stroke="#000000" stroke-width="0.969554" stroke-miterlimit="8" fill="none" fill-rule="evenodd"/><path d="M511 116 511 147" stroke="#000000" stroke-width="6.05953" stroke-miterlimit="8" stroke-dasharray="6.05953 6.05953" stroke-opacity="0.501961" fill="none" fill-rule="evenodd"/><path d="M499 49.0001C499 50.6569 497.657 52.0001 496 52.0001 494.343 52.0001 493 50.6569 493 49.0001 493 47.3431 494.343 46 496 46 497.657 46 499 47.3431 499 49.0001Z" fill-rule="evenodd"/><path d="M499 75.0001C499 76.6569 497.657 78.0001 496 78.0001 494.343 78.0001 493 76.6569 493 75.0001 493 73.3431 494.343 72 496 72 497.657 72 499 73.3431 499 75.0001Z" fill-rule="evenodd"/><path d="M525 75.0001C525 76.6569 523.657 78.0001 522 78.0001 520.343 78.0001 519 76.6569 519 75.0001 519 73.3431 520.343 72 522 72 523.657 72 525 73.3431 525 75.0001Z" fill-rule="evenodd"/><path d="M525 49.0001C525 50.6569 523.657 52.0001 522 52.0001 520.343 52.0001 519 50.6569 519 49.0001 519 47.3431 520.343 46 522 46 523.657 46 525 47.3431 525 49.0001Z" fill-rule="evenodd"/><path d="M541.5 67.5001C541.5 84.0686 527.845 97.5002 511 97.5002 494.155 97.5002 480.5 84.0686 480.5 67.5001 480.5 50.9315 494.155 37.5001 511 37.5001 527.845 37.5001 541.5 50.9315 541.5 67.5001Z" stroke="#000000" stroke-width="1.05606" stroke-miterlimit="8" fill="none" fill-rule="evenodd"/><path d="M496.5 75.5001 522.5 75.5001" stroke="#000000" stroke-width="0.969554" stroke-miterlimit="8" fill="none" fill-rule="evenodd"/><text font-family="Cambria Math,Cambria Math_MSFontService,sans-serif" font-weight="400" font-size="13" transform="translate(492.878 61)">ğ‘£<tspan font-size="9" x="7.19998" y="2">3</tspan><tspan font-size="13" x="25.8175" y="0">ğ‘£</tspan><tspan font-size="9" x="32.4442" y="2">4</tspan><tspan font-size="13" x="-0.0689392" y="25">ğ‘£</tspan><tspan font-size="9" x="6.8244" y="28">1</tspan><tspan font-size="13" x="25.5553" y="25">ğ‘£</tspan><tspan font-size="9" x="32.7553" y="28">2</tspan><tspan font-size="13" x="11.0008" y="-28">ğº</tspan><tspan font-size="9" x="18.9408" y="-26">3</tspan><tspan font-size="13" x="-11.4531" y="49">ğ‘“</tspan></text><path d="M509.257 99.7938C510.493 100.12 511.442 100.823 512.104 101.904 512.767 102.986 513.098 104.29 513.098 105.818 513.098 107.35 512.768 108.654 512.108 109.731 511.447 110.808 510.497 111.509 509.257 111.835L509.105 111.347C510.083 111.021 510.809 110.377 511.286 109.417 511.762 108.456 512 107.235 512 105.754 512 104.324 511.763 103.136 511.289 102.19 510.815 101.244 510.081 100.608 509.086 100.283ZM494.134 99.7938 494.306 100.283C493.316 100.608 492.582 101.244 492.106 102.19 491.63 103.136 491.392 104.324 491.392 105.754 491.392 107.235 491.63 108.456 492.106 109.417 492.582 110.377 493.309 111.021 494.287 111.347L494.134 111.835C492.895 111.509 491.944 110.808 491.284 109.731 490.624 108.654 490.294 107.35 490.294 105.818 490.294 104.29 490.625 102.986 491.288 101.904 491.95 100.823 492.899 100.12 494.134 99.7938Z" fill-rule="evenodd"/><text font-family="Cambria Math,Cambria Math_MSFontService,sans-serif" font-weight="400" font-size="13" transform="translate(494.685 110)">ğº<tspan font-size="9" x="7.93997" y="2">3</tspan><tspan font-size="13" x="23.4" y="0">=</tspan><tspan font-size="13" x="37.1067" y="0">2</tspan></text><path d="M497.5 75.5002 522.5 49.5001" stroke="#000000" stroke-width="0.969554" stroke-miterlimit="8" fill="none" fill-rule="evenodd"/><path d="M499 176C499 177.657 497.657 179 496 179 494.343 179 493 177.657 493 176 493 174.343 494.343 173 496 173 497.657 173 499 174.343 499 176Z" fill-rule="evenodd"/><path d="M499 202C499 203.657 497.657 205 496 205 494.343 205 493 203.657 493 202 493 200.343 494.343 199 496 199 497.657 199 499 200.343 499 202Z" fill-rule="evenodd"/><path d="M525 202C525 203.657 523.657 205 522 205 520.343 205 519 203.657 519 202 519 200.343 520.343 199 522 199 523.657 199 525 200.343 525 202Z" fill-rule="evenodd"/><path d="M525 176C525 177.657 523.657 179 522 179 520.343 179 519 177.657 519 176 519 174.343 520.343 173 522 173 523.657 173 525 174.343 525 176Z" fill-rule="evenodd"/><path d="M541.5 194.5C541.5 211.069 527.845 224.5 511 224.5 494.155 224.5 480.5 211.069 480.5 194.5 480.5 177.931 494.155 164.5 511 164.5 527.845 164.5 541.5 177.931 541.5 194.5Z" stroke="#000000" stroke-width="1.05606" stroke-miterlimit="8" fill="none" fill-rule="evenodd"/><text font-family="Cambria Math,Cambria Math_MSFontService,sans-serif" font-weight="400" font-size="13" transform="translate(492.678 187)">ğ‘£<tspan font-size="9" x="7.20001" y="3">3</tspan><tspan font-size="13" x="25.8175" y="0">ğ‘£</tspan><tspan font-size="9" x="32.4442" y="3">4</tspan><tspan font-size="13" x="-0.0689087" y="26">ğ‘£</tspan><tspan font-size="9" x="6.8244" y="28">1</tspan><tspan font-size="13" x="25.5553" y="26">ğ‘£</tspan><tspan font-size="9" x="32.7553" y="28">2</tspan><tspan font-size="13" x="10.7637" y="-28">ğº</tspan><tspan font-size="9" x="18.397" y="-25">1</tspan><tspan font-size="13" x="-11.2998" y="49">ğ‘“</tspan></text><path d="M508.904 226.52C510.14 226.846 511.089 227.549 511.751 228.63 512.413 229.712 512.744 231.016 512.744 232.544 512.744 234.076 512.414 235.38 511.754 236.457 511.094 237.534 510.144 238.235 508.904 238.561L508.752 238.072C509.729 237.747 510.456 237.103 510.932 236.143 511.408 235.182 511.646 233.961 511.646 232.48 511.646 231.05 511.409 229.862 510.935 228.916 510.461 227.97 509.727 227.334 508.733 227.008ZM494.088 226.52 494.259 227.008C493.269 227.334 492.536 227.97 492.06 228.916 491.584 229.862 491.346 231.05 491.346 232.48 491.346 233.961 491.584 235.182 492.06 236.143 492.536 237.103 493.263 237.747 494.24 238.072L494.088 238.561C492.848 238.235 491.898 237.534 491.238 236.457 490.577 235.38 490.247 234.076 490.247 232.544 490.247 231.016 490.579 229.712 491.241 228.63 491.903 227.549 492.852 226.846 494.088 226.52Z" fill-rule="evenodd"/><text font-family="Cambria Math,Cambria Math_MSFontService,sans-serif" font-weight="400" font-size="13" transform="translate(494.638 236)">ğº<tspan font-size="9" x="7.63333" y="3">1</tspan><tspan font-size="13" x="23.0934" y="0">=</tspan><tspan font-size="13" x="36.8" y="0">0</tspan></text><path d="M497.5 202.5 522.5 176.5" stroke="#000000" stroke-width="0.969554" stroke-miterlimit="8" fill="none" fill-rule="evenodd"/><rect x="495" y="0" width="159" height="16" fill="#FFFFFF"/><path d="M526.307 2.32507C527.543 2.65091 528.492 3.35444 529.154 4.43566 529.817 5.51688 530.148 6.82132 530.148 8.34899 530.148 9.88089 529.818 11.1853 529.158 12.2623 528.497 13.3393 527.547 14.0407 526.307 14.3666L526.155 13.8778C527.133 13.552 527.859 12.9087 528.336 11.9481 528.812 10.9875 529.05 9.76663 529.05 8.28551 529.05 6.85518 528.813 5.66711 528.339 4.7213 527.865 3.7755 527.131 3.13968 526.136 2.81383ZM508.011 2.32507 508.182 2.81383C507.192 3.13968 506.459 3.7755 505.983 4.7213 505.507 5.66711 505.269 6.85518 505.269 8.28551 505.269 9.76663 505.507 10.9875 505.983 11.9481 506.459 12.9087 507.186 13.552 508.163 13.8778L508.011 14.3666C506.771 14.0407 505.821 13.3393 505.161 12.2623 504.501 11.1853 504.171 9.88089 504.171 8.34899 504.171 6.82132 504.502 5.51688 505.164 4.43566 505.826 3.35444 506.775 2.65091 508.011 2.32507Z" fill-rule="evenodd"/><text font-family="Cambria Math,Cambria Math_MSFontService,sans-serif" font-weight="400" font-size="13" transform="translate(508.562 12)">4<tspan font-size="13" x="7.33331" y="0">,</tspan><tspan font-size="13" x="10" y="0">2</tspan><tspan font-family="Times New Roman,Times New Roman_MSFontService,sans-serif" font-size="13" x="22.8666" y="0">-</tspan><tspan font-family="Times New Roman,Times New Roman_MSFontService,sans-serif" font-size="13" x="27.3666" y="0">independent </tspan><tspan font-family="Times New Roman,Times New Roman_MSFontService,sans-serif" font-size="13" x="96.0333" y="0">cube</tspan><tspan font-size="13" x="125.2" y="0">ğ’œ</tspan></text></g></svg>