<svg width="364" height="270" xmlns="http://www.w3.org/2000/svg" xmlns:xlink="http://www.w3.org/1999/xlink" overflow="hidden"><defs><clipPath id="clip0"><rect x="329" y="136" width="364" height="270"/></clipPath></defs><g clip-path="url(#clip0)" transform="translate(-329 -136)"><path d="M437.5 211.5C437.5 240.771 413.771 264.5 384.5 264.5 355.229 264.5 331.5 240.771 331.5 211.5 331.5 182.229 355.229 158.5 384.5 158.5 413.771 158.5 437.5 182.229 437.5 211.5Z" stroke="#000000" stroke-width="1.05606" stroke-miterlimit="8" fill="none" fill-rule="evenodd"/><text font-family="Cambria Math,Cambria Math_MSFontService,sans-serif" font-weight="400" font-size="16" transform="translate(338.539 204)">𝑣<tspan font-size="12" x="7.82666" y="3">4</tspan><tspan font-size="16" x="73.2172" y="1">𝑣</tspan><tspan font-size="12" x="81.7305" y="5">5</tspan><tspan font-size="16" x="-0.228912" y="31">𝑣</tspan><tspan font-size="12" x="8.28442" y="34">2</tspan><tspan font-size="16" x="72.9949" y="32">𝑣</tspan><tspan font-size="12" x="81.5082" y="36">3</tspan><tspan font-size="16" x="9.28656" y="-52">𝐺</tspan><tspan font-size="16" x="24.4332" y="-52">=</tspan><tspan font-size="16" x="40.8799" y="-52">(</tspan><tspan font-size="16" x="47.5466" y="-52">𝑉</tspan><tspan font-size="16" x="58.0532" y="-52">,</tspan><tspan font-size="16" x="64.0532" y="-52">𝐸</tspan><tspan font-size="16" x="74.6799" y="-52">)</tspan><tspan font-size="16" x="40.7726" y="-33">𝑣</tspan><tspan font-size="12" x="49.286" y="-30">6</tspan><tspan font-size="16" x="40.5704" y="51">𝑣</tspan><tspan font-size="12" x="48.7104" y="54">1</tspan></text><path d="M0 0 24.5015 13.4968" stroke="#000000" stroke-miterlimit="8" fill="none" fill-rule="evenodd" transform="matrix(1 0 0 -1 356.5 190.997)"/><path d="M0 0 23.6947 14.2445" stroke="#000000" stroke-miterlimit="8" fill="none" fill-rule="evenodd" transform="matrix(1 0 0 -1 384.5 239.745)"/><path d="M408.421 190.997 384.5 177.5" stroke="#000000" stroke-miterlimit="8" fill="none" fill-rule="evenodd"/><path d="M381.122 239.694 356.5 225.5" stroke="#000000" stroke-miterlimit="8" fill="none" fill-rule="evenodd"/><path d="M0 0 0.000104987 27.5243" stroke="#000000" stroke-miterlimit="8" fill="none" fill-rule="evenodd" transform="matrix(1 0 0 -1 355.5 222.024)"/><path d="M0 0 0.105617 27.4737" stroke="#000000" stroke-miterlimit="8" fill="none" fill-rule="evenodd" transform="matrix(1 0 0 -1 409.5 221.974)"/><path d="M382.621 239.023 382.5 178.5" stroke="#000000" stroke-miterlimit="8" fill="none" fill-rule="evenodd"/><path d="M357.5 192.5 407.488 192.5" stroke="#000000" stroke-miterlimit="8" fill="none" fill-rule="evenodd"/><path d="M0 0 49.8826 0.0506037" stroke="#000000" stroke-miterlimit="8" fill="none" fill-rule="evenodd" transform="matrix(1 0 0 -1 357.5 223.551)"/><path d="M558.5 190.75 567.5 190.75 567.5 171.5 576.5 210 567.5 248.5 567.5 229.25 558.5 229.25Z" stroke="#000000" stroke-width="1.33333" stroke-miterlimit="8" fill="#7F7F7F" fill-rule="evenodd"/><path d="M407.5 192.5C407.5 191.395 408.395 190.5 409.5 190.5 410.605 190.5 411.5 191.395 411.5 192.5 411.5 193.605 410.605 194.5 409.5 194.5 408.395 194.5 407.5 193.605 407.5 192.5Z" stroke="#000000" stroke-width="1.33333" stroke-miterlimit="8" fill-rule="evenodd"/><path d="M380.5 176.5C380.5 175.395 381.395 174.5 382.5 174.5 383.605 174.5 384.5 175.395 384.5 176.5 384.5 177.605 383.605 178.5 382.5 178.5 381.395 178.5 380.5 177.605 380.5 176.5Z" stroke="#000000" stroke-width="1.33333" stroke-miterlimit="8" fill-rule="evenodd"/><path d="M353.5 192.5C353.5 191.395 354.395 190.5 355.5 190.5 356.605 190.5 357.5 191.395 357.5 192.5 357.5 193.605 356.605 194.5 355.5 194.5 354.395 194.5 353.5 193.605 353.5 192.5Z" stroke="#000000" stroke-width="1.33333" stroke-miterlimit="8" fill-rule="evenodd"/><path d="M353.5 224C353.5 223.172 354.395 222.5 355.5 222.5 356.605 222.5 357.5 223.172 357.5 224 357.5 224.828 356.605 225.5 355.5 225.5 354.395 225.5 353.5 224.828 353.5 224Z" stroke="#000000" stroke-width="1.33333" stroke-miterlimit="8" fill-rule="evenodd"/><path d="M380.5 240.5C380.5 239.395 381.395 238.5 382.5 238.5 383.605 238.5 384.5 239.395 384.5 240.5 384.5 241.605 383.605 242.5 382.5 242.5 381.395 242.5 380.5 241.605 380.5 240.5Z" stroke="#000000" stroke-width="1.33333" stroke-miterlimit="8" fill-rule="evenodd"/><path d="M407.5 224C407.5 223.172 408.395 222.5 409.5 222.5 410.605 222.5 411.5 223.172 411.5 224 411.5 224.828 410.605 225.5 409.5 225.5 408.395 225.5 407.5 224.828 407.5 224Z" stroke="#000000" stroke-width="1.33333" stroke-miterlimit="8" fill-rule="evenodd"/><path d="M549.5 211.5C549.5 240.771 525.771 264.5 496.5 264.5 467.229 264.5 443.5 240.771 443.5 211.5 443.5 182.229 467.229 158.5 496.5 158.5 525.771 158.5 549.5 182.229 549.5 211.5Z" stroke="#000000" stroke-width="1.05606" stroke-miterlimit="8" fill="none" fill-rule="evenodd"/><text font-family="Cambria Math,Cambria Math_MSFontService,sans-serif" font-weight="400" font-size="16" transform="translate(450.803 204)">𝑣<tspan font-size="12" x="7.82669" y="3">4</tspan><tspan font-size="16" x="73.2172" y="1">𝑣</tspan><tspan font-size="12" x="81.7305" y="5">5</tspan><tspan font-size="16" x="-0.228912" y="31">𝑣</tspan><tspan font-size="12" x="8.28442" y="34">2</tspan><tspan font-size="16" x="72.9949" y="32">𝑣</tspan><tspan font-size="12" x="81.5082" y="36">3</tspan><tspan font-size="16" x="38.322" y="-52">𝑀</tspan><tspan font-size="16" x="40.7727" y="-33">𝑣</tspan><tspan font-size="12" x="49.286" y="-30">6</tspan><tspan font-size="16" x="40.5704" y="51">𝑣</tspan><tspan font-size="12" x="48.7104" y="54">1</tspan></text><path d="M0 0 23.6947 14.2445" stroke="#000000" stroke-miterlimit="8" fill="none" fill-rule="evenodd" transform="matrix(1 0 0 -1 496.5 239.745)"/><path d="M469.5 192.5 519.488 192.5" stroke="#000000" stroke-miterlimit="8" fill="none" fill-rule="evenodd"/><path d="M0 0 24.5015 44.7745" stroke="#000000" stroke-miterlimit="8" fill="none" fill-rule="evenodd" transform="matrix(1 0 0 -1 469.5 222.275)"/><path d="M519.5 192.5C519.5 191.395 520.396 190.5 521.5 190.5 522.605 190.5 523.5 191.395 523.5 192.5 523.5 193.605 522.605 194.5 521.5 194.5 520.396 194.5 519.5 193.605 519.5 192.5Z" stroke="#000000" stroke-width="1.33333" stroke-miterlimit="8" fill-rule="evenodd"/><path d="M493.5 176.5C493.5 175.395 494.172 174.5 495 174.5 495.828 174.5 496.5 175.395 496.5 176.5 496.5 177.605 495.828 178.5 495 178.5 494.172 178.5 493.5 177.605 493.5 176.5Z" stroke="#000000" stroke-width="1.33333" stroke-miterlimit="8" fill-rule="evenodd"/><path d="M465.5 192.5C465.5 191.395 466.395 190.5 467.5 190.5 468.605 190.5 469.5 191.395 469.5 192.5 469.5 193.605 468.605 194.5 467.5 194.5 466.395 194.5 465.5 193.605 465.5 192.5Z" stroke="#000000" stroke-width="1.33333" stroke-miterlimit="8" fill-rule="evenodd"/><path d="M465.5 224C465.5 223.172 466.395 222.5 467.5 222.5 468.605 222.5 469.5 223.172 469.5 224 469.5 224.828 468.605 225.5 467.5 225.5 466.395 225.5 465.5 224.828 465.5 224Z" stroke="#000000" stroke-width="1.33333" stroke-miterlimit="8" fill-rule="evenodd"/><path d="M493.5 240.5C493.5 239.395 494.172 238.5 495 238.5 495.828 238.5 496.5 239.395 496.5 240.5 496.5 241.605 495.828 242.5 495 242.5 494.172 242.5 493.5 241.605 493.5 240.5Z" stroke="#000000" stroke-width="1.33333" stroke-miterlimit="8" fill-rule="evenodd"/><path d="M519.5 224C519.5 223.172 520.396 222.5 521.5 222.5 522.605 222.5 523.5 223.172 523.5 224 523.5 224.828 522.605 225.5 521.5 225.5 520.396 225.5 519.5 224.828 519.5 224Z" stroke="#000000" stroke-width="1.33333" stroke-miterlimit="8" fill-rule="evenodd"/><path d="M691.5 211.5C691.5 240.771 667.771 264.5 638.5 264.5 609.229 264.5 585.5 240.771 585.5 211.5 585.5 182.229 609.229 158.5 638.5 158.5 667.771 158.5 691.5 182.229 691.5 211.5Z" stroke="#000000" stroke-width="1.05606" stroke-miterlimit="8" fill="none" fill-rule="evenodd"/><text font-family="Cambria Math,Cambria Math_MSFontService,sans-serif" font-weight="400" font-size="16" transform="translate(593.206 204)">𝑣<tspan font-size="12" x="7.82666" y="3">4</tspan><tspan font-size="16" x="73.2172" y="2">𝑣</tspan><tspan font-size="12" x="81.7305" y="5">5</tspan><tspan font-size="16" x="-0.228943" y="31">𝑣</tspan><tspan font-size="12" x="8.28436" y="34">2</tspan><tspan font-size="16" x="72.9949" y="33">𝑣</tspan><tspan font-size="12" x="81.5082" y="36">3</tspan><tspan font-size="16" x="3.82202" y="-52">𝐺</tspan><tspan font-size="12" x="14.7953" y="-58">′</tspan><tspan font-size="16" x="24.0754" y="-52">=</tspan><tspan font-size="16" x="40.522" y="-52">(</tspan><tspan font-size="16" x="47.1887" y="-52">𝑉</tspan><tspan font-size="16" x="57.6954" y="-52">,</tspan><tspan font-size="16" x="63.6954" y="-52">𝐸</tspan><tspan font-size="12" x="74.322" y="-58">′</tspan><tspan font-size="16" x="79.1553" y="-52">)</tspan><tspan font-size="16" x="40.7726" y="-33">𝑣</tspan><tspan font-size="12" x="49.2859" y="-29">6</tspan><tspan font-size="16" x="40.5704" y="51">𝑣</tspan><tspan font-size="12" x="48.7104" y="54">1</tspan></text><path d="M0 0 24.5015 13.4968" stroke="#000000" stroke-miterlimit="8" fill="none" fill-rule="evenodd" transform="matrix(1 0 0 -1 611.5 191.997)"/><path d="M662.421 191.997 638.5 178.5" stroke="#000000" stroke-miterlimit="8" fill="none" fill-rule="evenodd"/><path d="M636.122 239.694 611.5 225.5" stroke="#000000" stroke-miterlimit="8" fill="none" fill-rule="evenodd"/><path d="M0 0 0.000104987 27.5243" stroke="#000000" stroke-miterlimit="8" fill="none" fill-rule="evenodd" transform="matrix(1 0 0 -1 610.5 222.024)"/><path d="M0 0 0.105617 27.4737" stroke="#000000" stroke-miterlimit="8" fill="none" fill-rule="evenodd" transform="matrix(1 0 0 -1 663.5 221.974)"/><path d="M637.621 239.023 637.5 178.5" stroke="#000000" stroke-miterlimit="8" fill="none" fill-rule="evenodd"/><path d="M0 0 49.8826 0.0506037" stroke="#000000" stroke-miterlimit="8" fill="none" fill-rule="evenodd" transform="matrix(1 0 0 -1 612.5 224.551)"/><path d="M662.5 193C662.5 192.172 663.172 191.5 664 191.5 664.828 191.5 665.5 192.172 665.5 193 665.5 193.828 664.828 194.5 664 194.5 663.172 194.5 662.5 193.828 662.5 193Z" stroke="#000000" stroke-width="1.33333" stroke-miterlimit="8" fill-rule="evenodd"/><path d="M635.5 176.5C635.5 175.395 636.396 174.5 637.5 174.5 638.605 174.5 639.5 175.395 639.5 176.5 639.5 177.605 638.605 178.5 637.5 178.5 636.396 178.5 635.5 177.605 635.5 176.5Z" stroke="#000000" stroke-width="1.33333" stroke-miterlimit="8" fill-rule="evenodd"/><path d="M608.5 193C608.5 192.172 609.396 191.5 610.5 191.5 611.605 191.5 612.5 192.172 612.5 193 612.5 193.828 611.605 194.5 610.5 194.5 609.396 194.5 608.5 193.828 608.5 193Z" stroke="#000000" stroke-width="1.33333" stroke-miterlimit="8" fill-rule="evenodd"/><path d="M608.5 224.5C608.5 223.395 609.396 222.5 610.5 222.5 611.605 222.5 612.5 223.395 612.5 224.5 612.5 225.605 611.605 226.5 610.5 226.5 609.396 226.5 608.5 225.605 608.5 224.5Z" stroke="#000000" stroke-width="1.33333" stroke-miterlimit="8" fill-rule="evenodd"/><path d="M635.5 241C635.5 240.172 636.396 239.5 637.5 239.5 638.605 239.5 639.5 240.172 639.5 241 639.5 241.828 638.605 242.5 637.5 242.5 636.396 242.5 635.5 241.828 635.5 241Z" stroke="#000000" stroke-width="1.33333" stroke-miterlimit="8" fill-rule="evenodd"/><path d="M661.5 224.5C661.5 223.395 662.396 222.5 663.5 222.5 664.605 222.5 665.5 223.395 665.5 224.5 665.5 225.605 664.605 226.5 663.5 226.5 662.396 226.5 661.5 225.605 661.5 224.5Z" stroke="#000000" stroke-width="1.33333" stroke-miterlimit="8" fill-rule="evenodd"/><path d="M330.5 334.75 340 334.75 340 315.5 349.5 354 340 392.5 340 373.25 330.5 373.25Z" stroke="#000000" stroke-width="1.33333" stroke-miterlimit="8" fill="#7F7F7F" fill-rule="evenodd"/><rect x="356.5" y="294.5" width="331" height="111" stroke="#000000" stroke-width="1.33333" stroke-miterlimit="8" fill="none"/><rect x="375" y="272" width="294" height="44" fill="#FFFFFF"/><path d="M485.308 274.478C487.448 276.311 489.148 279.046 490.405 282.681 491.663 286.317 492.292 290.374 492.292 294.853 492.292 299.264 491.663 303.315 490.405 307.005 489.148 310.695 487.448 313.452 485.308 315.275L484.941 314.697C486.79 312.817 488.214 310.095 489.214 306.533 490.214 302.97 490.714 299.08 490.714 294.861 490.714 290.543 490.211 286.634 489.206 283.134 488.201 279.634 486.779 276.944 484.941 275.064ZM388.868 274.478 389.236 275.064C387.392 276.944 385.969 279.634 384.966 283.134 383.964 286.634 383.462 290.543 383.462 294.861 383.462 299.08 383.962 302.97 384.962 306.533 385.962 310.095 387.387 312.817 389.236 314.697L388.868 315.275C386.728 313.452 385.029 310.695 383.771 307.005 382.513 303.315 381.884 299.264 381.884 294.853 381.884 290.374 382.513 286.317 383.771 282.681 385.029 279.046 386.728 276.311 388.868 274.478Z" fill-rule="evenodd"/><text font-family="Cambria Math,Cambria Math_MSFontService,sans-serif" font-weight="400" font-size="16" transform="translate(389.752 299)">𝑛<tspan font-size="16" x="9.44" y="0">,</tspan></text><path d="M477.479 279.08C478.984 280.257 480.297 282.182 481.417 284.857 482.536 287.531 483.096 290.871 483.096 294.876 483.096 298.892 482.536 302.237 481.417 304.912 480.297 307.586 478.984 309.512 477.479 310.689L477.026 310.166C478.344 308.947 479.432 307.051 480.292 304.478 481.151 301.905 481.581 298.707 481.581 294.884 481.581 291.061 481.151 287.863 480.292 285.291 479.432 282.718 478.344 280.822 477.026 279.603ZM412.137 279.08 412.59 279.603C411.272 280.822 410.184 282.718 409.324 285.291 408.465 287.863 408.035 291.061 408.035 294.884 408.035 298.707 408.465 301.905 409.324 304.478 410.184 307.051 411.272 308.947 412.59 310.166L412.137 310.689C410.632 309.512 409.319 307.586 408.199 304.912 407.08 302.237 406.52 298.892 406.52 294.876 406.52 290.871 407.08 287.531 408.199 284.857 409.319 282.182 410.632 280.257 412.137 279.08Z" fill-rule="evenodd"/><text font-family="Cambria Math,Cambria Math_MSFontService,sans-serif" font-weight="400" font-size="16" transform="translate(413.098 291)">𝑑<tspan font-size="12" x="9.33334" y="3">𝑚𝑎𝑥</tspan><tspan font-size="16" x="39.0333" y="0">−</tspan><tspan font-size="16" x="54.5867" y="0">2</tspan><tspan font-size="16" x="13.0867" y="19">𝑘</tspan><tspan font-size="16" x="25.94" y="19">−</tspan><tspan font-size="16" x="41.4933" y="19">1</tspan><tspan font-family="Times New Roman,Times New Roman_MSFontService,sans-serif" font-size="16" x="80.5067" y="8">-</tspan><tspan font-family="Times New Roman,Times New Roman_MSFontService,sans-serif" font-size="16" x="85.84" y="8">monotone cube</tspan><tspan font-size="16" x="188.84" y="8">𝒜</tspan><tspan font-family="Times New Roman,Times New Roman_MSFontService,sans-serif" font-size="16" x="207.8" y="8">for </tspan><tspan font-size="16" x="230.467" y="8">𝑓</tspan><tspan font-size="12" x="236.8" y="12">𝑘</tspan><tspan font-size="12" x="244.14" y="12">⋆</tspan></text><path d="M453.5 361.5C453.5 382.487 436.711 399.5 416 399.5 395.289 399.5 378.5 382.487 378.5 361.5 378.5 340.513 395.289 323.5 416 323.5 436.711 323.5 453.5 340.513 453.5 361.5Z" stroke="#000000" stroke-width="1.05606" stroke-miterlimit="8" fill="none" fill-rule="evenodd"/><path d="M0 0 21.3057 11.7364" stroke="#000000" stroke-miterlimit="8" fill="none" fill-rule="evenodd" transform="matrix(1 0 0 -1 393.5 346.236)"/><path d="M437.301 346.236 416.5 334.5" stroke="#000000" stroke-miterlimit="8" fill="none" fill-rule="evenodd"/><path d="M414.911 387.843 393.5 375.5" stroke="#000000" stroke-miterlimit="8" fill="none" fill-rule="evenodd"/><path d="M0 0 0.000104987 23.9342" stroke="#000000" stroke-miterlimit="8" fill="none" fill-rule="evenodd" transform="matrix(1 0 0 -1 391.5 373.434)"/><path d="M0 0 0.0918635 23.8902" stroke="#000000" stroke-miterlimit="8" fill="none" fill-rule="evenodd" transform="matrix(1 0 0 -1 438.5 373.39)"/><path d="M415.605 388.129 415.5 335.5" stroke="#000000" stroke-miterlimit="8" fill="none" fill-rule="evenodd"/><path d="M0 0 43.3763 0.0439895" stroke="#000000" stroke-miterlimit="8" fill="none" fill-rule="evenodd" transform="matrix(1 0 0 -1 393.5 374.544)"/><path d="M437.5 347.5C437.5 346.395 438.172 345.5 439 345.5 439.828 345.5 440.5 346.395 440.5 347.5 440.5 348.605 439.828 349.5 439 349.5 438.172 349.5 437.5 348.605 437.5 347.5Z" stroke="#000000" stroke-width="1.33333" stroke-miterlimit="8" fill-rule="evenodd"/><path d="M413.5 333.5C413.5 332.395 414.395 331.5 415.5 331.5 416.605 331.5 417.5 332.395 417.5 333.5 417.5 334.605 416.605 335.5 415.5 335.5 414.395 335.5 413.5 334.605 413.5 333.5Z" stroke="#000000" stroke-width="1.33333" stroke-miterlimit="8" fill-rule="evenodd"/><path d="M390.5 347.5C390.5 346.395 391.172 345.5 392 345.5 392.828 345.5 393.5 346.395 393.5 347.5 393.5 348.605 392.828 349.5 392 349.5 391.172 349.5 390.5 348.605 390.5 347.5Z" stroke="#000000" stroke-width="1.33333" stroke-miterlimit="8" fill-rule="evenodd"/><path d="M390.5 375C390.5 374.172 391.172 373.5 392 373.5 392.828 373.5 393.5 374.172 393.5 375 393.5 375.828 392.828 376.5 392 376.5 391.172 376.5 390.5 375.828 390.5 375Z" stroke="#000000" stroke-width="1.33333" stroke-miterlimit="8" fill-rule="evenodd"/><path d="M414.5 389C414.5 388.172 415.172 387.5 416 387.5 416.828 387.5 417.5 388.172 417.5 389 417.5 389.828 416.828 390.5 416 390.5 415.172 390.5 414.5 389.828 414.5 389Z" stroke="#000000" stroke-width="1.33333" stroke-miterlimit="8" fill-rule="evenodd"/><path d="M436.5 374.5C436.5 373.395 437.395 372.5 438.5 372.5 439.605 372.5 440.5 373.395 440.5 374.5 440.5 375.605 439.605 376.5 438.5 376.5 437.395 376.5 436.5 375.605 436.5 374.5Z" stroke="#000000" stroke-width="1.33333" stroke-miterlimit="8" fill-rule="evenodd"/><path d="M537.5 362C537.5 382.711 520.487 399.5 499.5 399.5 478.513 399.5 461.5 382.711 461.5 362 461.5 341.289 478.513 324.5 499.5 324.5 520.487 324.5 537.5 341.289 537.5 362Z" stroke="#000000" stroke-width="1.05606" stroke-miterlimit="8" fill="none" fill-rule="evenodd"/><path d="M0 0 21.3056 11.7364" stroke="#000000" stroke-miterlimit="8" fill="none" fill-rule="evenodd" transform="matrix(1 0 0 -1 476.5 346.236)"/><path d="M521.301 346.236 500.5 334.5" stroke="#000000" stroke-miterlimit="8" fill="none" fill-rule="evenodd"/><path d="M497.911 388.843 476.5 376.5" stroke="#000000" stroke-miterlimit="8" fill="none" fill-rule="evenodd"/><path d="M0 0 0.000104987 23.9342" stroke="#000000" stroke-miterlimit="8" fill="none" fill-rule="evenodd" transform="matrix(1 0 0 -1 475.5 373.434)"/><path d="M0 0 0.0918635 23.8902" stroke="#000000" stroke-miterlimit="8" fill="none" fill-rule="evenodd" transform="matrix(1 0 0 -1 522.5 373.39)"/><path d="M498.605 388.129 498.5 335.5" stroke="#000000" stroke-miterlimit="8" fill="none" fill-rule="evenodd"/><path d="M0 0 43.3762 0.0439895" stroke="#000000" stroke-miterlimit="8" fill="none" fill-rule="evenodd" transform="matrix(1 0 0 -1 476.5 374.544)"/><path d="M520.5 348C520.5 347.172 521.172 346.5 522 346.5 522.828 346.5 523.5 347.172 523.5 348 523.5 348.828 522.828 349.5 522 349.5 521.172 349.5 520.5 348.828 520.5 348Z" stroke="#000000" stroke-width="1.33333" stroke-miterlimit="8" fill-rule="evenodd"/><path d="M497.5 333.5C497.5 332.395 498.172 331.5 499 331.5 499.828 331.5 500.5 332.395 500.5 333.5 500.5 334.605 499.828 335.5 499 335.5 498.172 335.5 497.5 334.605 497.5 333.5Z" stroke="#000000" stroke-width="1.33333" stroke-miterlimit="8" fill-rule="evenodd"/><path d="M473.5 348C473.5 347.172 474.172 346.5 475 346.5 475.828 346.5 476.5 347.172 476.5 348 476.5 348.828 475.828 349.5 475 349.5 474.172 349.5 473.5 348.828 473.5 348Z" stroke="#000000" stroke-width="1.33333" stroke-miterlimit="8" fill-rule="evenodd"/><path d="M473.5 375C473.5 374.172 474.172 373.5 475 373.5 475.828 373.5 476.5 374.172 476.5 375 476.5 375.828 475.828 376.5 475 376.5 474.172 376.5 473.5 375.828 473.5 375Z" stroke="#000000" stroke-width="1.33333" stroke-miterlimit="8" fill-rule="evenodd"/><path d="M497.5 389.5C497.5 388.395 498.172 387.5 499 387.5 499.828 387.5 500.5 388.395 500.5 389.5 500.5 390.605 499.828 391.5 499 391.5 498.172 391.5 497.5 390.605 497.5 389.5Z" stroke="#000000" stroke-width="1.33333" stroke-miterlimit="8" fill-rule="evenodd"/><path d="M520.5 375C520.5 374.172 521.172 373.5 522 373.5 522.828 373.5 523.5 374.172 523.5 375 523.5 375.828 522.828 376.5 522 376.5 521.172 376.5 520.5 375.828 520.5 375Z" stroke="#000000" stroke-width="1.33333" stroke-miterlimit="8" fill-rule="evenodd"/><path d="M0 0 20.604 12.3865" stroke="#000000" stroke-miterlimit="8" fill="none" fill-rule="evenodd" transform="matrix(1 0 0 -1 500.5 387.887)"/><path d="M675.5 362C675.5 382.711 658.487 399.5 637.5 399.5 616.513 399.5 599.5 382.711 599.5 362 599.5 341.289 616.513 324.5 637.5 324.5 658.487 324.5 675.5 341.289 675.5 362Z" stroke="#000000" stroke-width="1.05606" stroke-miterlimit="8" fill="none" fill-rule="evenodd"/><path d="M0 0 21.3056 11.7364" stroke="#000000" stroke-miterlimit="8" fill="none" fill-rule="evenodd" transform="matrix(1 0 0 -1 614.5 346.236)"/><path d="M658.301 346.236 637.5 334.5" stroke="#000000" stroke-miterlimit="8" fill="none" fill-rule="evenodd"/><path d="M635.911 388.843 614.5 376.5" stroke="#000000" stroke-miterlimit="8" fill="none" fill-rule="evenodd"/><path d="M0 0 0.000104987 23.9342" stroke="#000000" stroke-miterlimit="8" fill="none" fill-rule="evenodd" transform="matrix(1 0 0 -1 613.5 373.434)"/><path d="M0 0 0.0918635 23.8902" stroke="#000000" stroke-miterlimit="8" fill="none" fill-rule="evenodd" transform="matrix(1 0 0 -1 659.5 373.39)"/><path d="M636.605 388.129 636.5 335.5" stroke="#000000" stroke-miterlimit="8" fill="none" fill-rule="evenodd"/><path d="M0 0 43.3762 0.0439895" stroke="#000000" stroke-miterlimit="8" fill="none" fill-rule="evenodd" transform="matrix(1 0 0 -1 614.5 374.544)"/><path d="M658.5 348C658.5 347.172 659.172 346.5 660 346.5 660.828 346.5 661.5 347.172 661.5 348 661.5 348.828 660.828 349.5 660 349.5 659.172 349.5 658.5 348.828 658.5 348Z" stroke="#000000" stroke-width="1.33333" stroke-miterlimit="8" fill-rule="evenodd"/><path d="M635.5 333.5C635.5 332.395 636.172 331.5 637 331.5 637.828 331.5 638.5 332.395 638.5 333.5 638.5 334.605 637.828 335.5 637 335.5 636.172 335.5 635.5 334.605 635.5 333.5Z" stroke="#000000" stroke-width="1.33333" stroke-miterlimit="8" fill-rule="evenodd"/><path d="M611.5 348C611.5 347.172 612.172 346.5 613 346.5 613.828 346.5 614.5 347.172 614.5 348 614.5 348.828 613.828 349.5 613 349.5 612.172 349.5 611.5 348.828 611.5 348Z" stroke="#000000" stroke-width="1.33333" stroke-miterlimit="8" fill-rule="evenodd"/><path d="M611.5 375C611.5 374.172 612.172 373.5 613 373.5 613.828 373.5 614.5 374.172 614.5 375 614.5 375.828 613.828 376.5 613 376.5 612.172 376.5 611.5 375.828 611.5 375Z" stroke="#000000" stroke-width="1.33333" stroke-miterlimit="8" fill-rule="evenodd"/><path d="M635.5 389.5C635.5 388.395 636.172 387.5 637 387.5 637.828 387.5 638.5 388.395 638.5 389.5 638.5 390.605 637.828 391.5 637 391.5 636.172 391.5 635.5 390.605 635.5 389.5Z" stroke="#000000" stroke-width="1.33333" stroke-miterlimit="8" fill-rule="evenodd"/><path d="M658.5 375C658.5 374.172 659.172 373.5 660 373.5 660.828 373.5 661.5 374.172 661.5 375 661.5 375.828 660.828 376.5 660 376.5 659.172 376.5 658.5 375.828 658.5 375Z" stroke="#000000" stroke-width="1.33333" stroke-miterlimit="8" fill-rule="evenodd"/><path d="M0 0 21.3057 38.9343" stroke="#000000" stroke-miterlimit="8" fill="none" fill-rule="evenodd" transform="matrix(1 0 0 -1 614.5 373.434)"/><path d="M614.5 347.5 657.968 347.5" stroke="#000000" stroke-miterlimit="8" fill="none" fill-rule="evenodd"/><path d="M0 0 20.604 12.3865" stroke="#000000" stroke-miterlimit="8" fill="none" fill-rule="evenodd" transform="matrix(-1 0 0 1 659.104 375.5)"/><text font-family="Times New Roman,Times New Roman_MSFontService,sans-serif" font-weight="400" font-size="40" transform="translate(547.166 363)">…</text></g></svg>